<?xml version="1.0" ?>
<svg baseProfile="full" height="195mm" version="1.1" viewBox="0 0 27.5 19.5" width="275mm" xmlns="http://www.w3.org/2000/svg" xmlns:ev="http://www.w3.org/2001/xml-events" xmlns:xlink="http://www.w3.org/1999/xlink">
	<defs/>
	<path d="M 16.980026245117188,9.31005859375 L 16.980026245117188,9.31005859375 L 16.637405395507812,9.36798095703125 L 16.20086669921875,9.18707275390625 L 15.700881958007812,8.986984252929688 L 15.353225708007812,8.574478149414062 L 15.005569458007812,8.36163330078125 L 14.761886596679688,8.844406127929688 L 15.1783447265625,9.175445556640625 M 15.025787353515625,9.089187622070312 L 15.025787353515625,9.089187622070312 L 14.617767333984375,9.434600830078125 L 14.519973754882812,9.934585571289062 L 14.939773559570312,10.303970336914062 L 15.399826049804688,10.535980224609375 M 15.194168090820312,10.697265625 L 15.194168090820312,10.697265625 L 15.022598266601562,11.194412231445312 L 15.482650756835938,11.428024291992188 L 15.691162109375,10.948440551757812 L 15.74371337890625,10.448440551757812 M 15.777435302734375,9.33380126953125 L 15.777435302734375,9.33380126953125 L 15.96917724609375,9.517898559570312 L 16.001602172851562,10.01788330078125 L 15.648910522460938,10.452743530273438" fill="none" stroke="#000000" stroke-width="1"/>
	<path d="M 17.975784301757812,6.83306884765625 L 17.975784301757812,6.83306884765625 L 17.681793212890625,6.867034912109375 L 17.480026245117188,7.362579345703125 L 17.540969848632812,7.8625640869140625 L 17.799789428710938,8.346923828125 L 18.167617797851562,8.737060546875 L 18.167617797851562,8.552947998046875 L 18.208419799804688,8.052947998046875 L 18.23748779296875,7.552947998046875 L 18.106155395507812,7.052947998046875 L 17.94464111328125,6.552947998046875 M 17.915130615234375,7.28216552734375 L 17.915130615234375,7.28216552734375 L 17.679824829101562,7.528564453125 L 17.900070190429688,8.02410888671875 L 18.298080444335938,8.121963500976562 M 18.150726318359375,11.204193115234375 L 18.150726318359375,11.204193115234375 L 18.443084716796875,11.43780517578125 L 18.758926391601562,11.88702392578125 L 18.99090576171875,12.369796752929688 L 19.025009155273438,12.869781494140625 L 18.818222045898438,13.3685302734375 L 18.58123779296875,13.8544921875 L 18.26544189453125,14.3021240234375 M 18.468414306640625,13.580474853515625 L 18.468414306640625,13.580474853515625 L 18.179458618164062,13.359619140625 L 17.744598388671875,13.049331665039062 L 17.677001953125,12.549331665039062 L 17.81005859375,12.049331665039062 L 18.12420654296875,11.632034301757812 L 18.421600341796875,11.209945678710938 M 18.825820922851562,12.982589721679688 L 18.825820922851562,12.982589721679688 L 19.047744750976562,12.570083618164062 L 18.5927734375,12.280563354492188 L 18.094192504882812,12.523757934570312 L 18.351333618164062,13.00811767578125 L 18.834869384765625,12.918228149414062" fill="none" stroke="#000000" stroke-width="1"/>
	<path d="M 13.478195190429688,7.9643402099609375 L 13.478195190429688,7.9643402099609375 L 13.678329467773438,8.15643310546875 L 13.880142211914062,8.532196044921875 L 13.829299926757812,9.032180786132812 L 13.691268920898438,9.53216552734375 L 13.750534057617188,10.032150268554688 L 14.0194091796875,10.494155883789062 L 14.019973754882812,10.994140625 L 13.866836547851562,11.494125366210938 L 13.713699340820312,11.994110107421875 L 13.359329223632812,12.395431518554688 M 13.261093139648438,10.649429321289062 L 13.261093139648438,10.649429321289062 L 13.131439208984375,10.236923217773438 L 12.897811889648438,9.78448486328125 L 12.857040405273438,9.28448486328125 L 12.9632568359375,8.78448486328125" fill="none" stroke="#000000" stroke-width="1"/>
</svg>
