<?xml version="1.0" ?>
<svg baseProfile="full" height="195mm" version="1.1" viewBox="0 0 27.5 19.5" width="275mm" xmlns="http://www.w3.org/2000/svg" xmlns:ev="http://www.w3.org/2001/xml-events" xmlns:xlink="http://www.w3.org/1999/xlink">
	<defs/>
	<path d="M 17.313629150390625,10.160125732421875 L 17.313629150390625,10.160125732421875 L 17.017959594726562,10.039901733398438 L 16.566329956054688,9.911697387695312 L 16.06634521484375,9.786697387695312 L 15.566360473632812,9.661697387695312 L 15.066375732421875,9.519119262695312 L 14.782440185546875,9.073074340820312 L 14.406280517578125,8.801116943359375 L 13.906295776367188,8.922927856445312 L 13.975616455078125,9.42291259765625 L 14.298171997070312,9.568679809570312 L 14.357437133789062,9.068679809570312 L 14.308273315429688,9.56866455078125 L 13.86669921875,9.842208862304688 L 13.842697143554688,10.342193603515625 L 13.900283813476562,10.842178344726562 L 13.932708740234375,11.3421630859375 L 13.965133666992188,11.842147827148438 L 14.021041870117188,12.342132568359375 L 14.370407104492188,12.738662719726562 L 14.51519775390625,12.687118530273438 L 14.388900756835938,12.6036376953125 L 14.227386474609375,12.421127319335938 L 14.070892333984375,12.921112060546875 M 14.113388061523438,13.066879272460938 L 14.113388061523438,13.066879272460938 L 14.154190063476562,13.512924194335938 L 14.654190063476562,13.538909912109375 L 15.154190063476562,13.409103393554688 L 15.344253540039062,12.929519653320312 M 15.320892333984375,10.702713012695312 L 15.320892333984375,10.702713012695312 L 15.46734619140625,10.832504272460938 L 15.612136840820312,11.251388549804688 L 15.433853149414062,11.751373291015625 L 15.210296630859375,11.909927368164062 M 15.4227294921875,11.647125244140625 L 15.4227294921875,11.647125244140625 L 15.731857299804688,11.391128540039062 L 16.188552856445312,11.17828369140625 L 16.680465698242188,11.097991943359375 L 17.180465698242188,11.125564575195312 L 17.657302856445312,11.370361328125" fill="none" stroke="#000000" stroke-width="1"/>
	<path d="M 21.366546630859375,13.220687866210938 L 21.366546630859375,13.220687866210938 L 21.55828857421875,13.278610229492188 L 21.879165649414062,13.457916259765625 L 22.216796875,13.790557861328125 L 22.532638549804688,14.238189697265625 L 22.752883911132812,14.730545043945312 L 22.8004150390625,15.23052978515625 L 22.687530517578125,15.730514526367188 L 22.512603759765625,16.21807861328125 L 22.1280517578125,16.561904907226562 L 21.68145751953125,16.795516967773438 L 21.204666137695312,16.947662353515625 L 20.716140747070312,17.045516967773438 L 20.216156005859375,16.99237060546875 L 19.716171264648438,16.848190307617188 L 19.269577026367188,16.597000122070312 L 18.876632690429688,16.293106079101562 L 18.5306396484375,15.934906005859375 L 18.240005493164062,15.555938720703125 L 18.157302856445312,15.077957153320312 L 18.411087036132812,14.639892578125 L 18.693389892578125,14.225784301757812 L 18.947174072265625,13.792526245117188 L 19.160720825195312,13.352859497070312 L 19.546981811523438,13.0665283203125 L 20.008712768554688,13.194717407226562 L 20.468765258789062,13.321304321289062 L 20.935516357421875,13.3504638671875 L 21.402267456054688,13.310104370117188 M 21.557510375976562,10.263442993164062 L 21.557510375976562,10.263442993164062 L 21.641937255859375,9.763442993164062 L 21.934295654296875,9.322189331054688 L 22.312179565429688,9.016693115234375 L 22.515670776367188,8.559463500976562 L 22.131118774414062,8.215621948242188 L 21.674468994140625,7.9835968017578125 L 21.269790649414062,7.6653289794921875 L 20.799713134765625,7.4540557861328125 L 20.299728393554688,7.467254638671875 L 19.79974365234375,7.5363616943359375 L 19.299758911132812,7.611846923828125 L 18.869918823242188,7.907745361328125 L 18.6715087890625,8.37933349609375 L 18.551910400390625,8.8748779296875 L 18.43231201171875,9.37042236328125 L 18.608963012695312,9.854782104492188 L 18.9566650390625,10.18902587890625 L 19.314437866210938,10.516860961914062 L 19.754379272460938,10.718536376953125 L 20.227859497070312,10.718963623046875 L 20.701339721679688,10.659439086914062 L 21.173141479492188,10.587127685546875 L 21.2760009765625,10.087127685546875 M 21.44427490234375,10.03558349609375 L 21.44427490234375,10.03558349609375 L 21.885894775390625,9.821136474609375 M 20.535812377929688,9.15826416015625 L 20.535812377929688,9.15826416015625 L 20.505111694335938,9.658248901367188 L 20.06353759765625,9.912628173828125 L 19.563552856445312,9.827545166015625 L 19.237701416015625,9.446990966796875 L 19.158355712890625,8.962615966796875 L 19.495986938476562,8.60760498046875 L 19.883926391601562,8.316482543945312 L 20.360763549804688,8.470230102539062 L 20.725234985351562,8.83001708984375 L 21.015914916992188,9.252105712890625 M 20.562606811523438,9.527236938476562 L 20.562606811523438,9.527236938476562 M 21.1966552734375,15.38092041015625 L 21.1966552734375,15.38092041015625 L 21.1966552734375,15.834945678710938 L 20.862411499023438,16.233062744140625 L 20.3624267578125,16.319732666015625 L 19.882293701171875,16.111663818359375 L 19.496063232421875,15.79339599609375 L 19.321136474609375,15.352142333984375 L 19.61181640625,14.931640625 L 19.989700317382812,14.659683227539062 L 20.391067504882812,14.443634033203125 L 20.861175537109375,14.468017578125 L 21.15521240234375,14.872528076171875 L 21.271484375,15.347320556640625 L 21.33074951171875,15.847305297851562" fill="none" stroke="#000000" stroke-width="1"/>
	<path d="M 12.969818115234375,12.14630126953125 L 12.969818115234375,12.14630126953125 L 13.074356079101562,12.349578857421875 L 13.180572509765625,12.557632446289062 L 13.290145874023438,12.764083862304688 L 13.342697143554688,12.970535278320312 L 13.315338134765625,13.184982299804688 L 13.140411376953125,13.444137573242188 L 12.87493896484375,13.77197265625 L 12.689956665039062,14.163711547851562 L 12.551925659179688,14.58099365234375 L 12.42730712890625,15.007858276367188 L 12.332870483398438,15.433120727539062 L 12.277008056640625,15.855209350585938 M 12.2060546875,15.720611572265625 L 12.2060546875,15.720611572265625 L 12.126708984375,15.576431274414062 L 12.023895263671875,15.4130859375 L 11.909332275390625,15.249740600585938 L 11.79644775390625,15.086395263671875 L 11.683563232421875,14.918258666992188 L 11.60589599609375,14.74853515625 L 11.543319702148438,14.578811645507812 L 11.543319702148438,14.410675048828125 L 11.569046020507812,14.242538452148438 L 11.594772338867188,14.07440185546875 L 11.625518798828125,13.906265258789062 L 11.6512451171875,13.738128662109375 L 11.658523559570312,13.569992065429688 L 11.652969360351562,13.40185546875 L 11.618896484375,13.233718872070312 L 11.584823608398438,13.065582275390625 L 11.550750732421875,12.897445678710938 L 11.516677856445312,12.72930908203125 L 11.48260498046875,12.561172485351562 L 11.448532104492188,12.393035888671875 L 11.41278076171875,12.224899291992188 L 11.377029418945312,12.0567626953125 L 11.346328735351562,11.888626098632812 L 11.327362060546875,11.720489501953125 L 11.327362060546875,11.550765991210938 L 11.396682739257812,11.390625 L 11.502899169921875,11.254440307617188 L 11.6527099609375,11.119842529296875 L 11.802520751953125,10.985244750976562 L 11.915435791015625,10.802734375 L 11.96966552734375,10.625015258789062 L 11.940643310546875,10.421737670898438 L 11.873046875,10.212066650390625 L 11.800399780273438,9.999221801757812 L 11.769699096679688,9.802337646484375 M 11.828964233398438,9.640594482421875 L 11.828964233398438,9.640594482421875 L 11.904983520507812,9.464462280273438 L 12.001144409179688,9.2867431640625 L 12.097305297851562,9.109024047851562 M 12.203521728515625,9.216461181640625 L 12.203521728515625,9.216461181640625 L 12.311416625976562,9.339874267578125 L 12.456207275390625,9.568695068359375 L 12.629501342773438,9.8118896484375 L 12.799453735351562,10.056686401367188 L 12.969406127929688,10.301483154296875 L 13.137680053710938,10.544677734375 L 13.280792236328125,10.805435180664062 L 13.34173583984375,11.1732177734375 L 13.30096435546875,11.657577514648438 L 13.134414672851562,12.141937255859375 L 12.9158935546875,12.626296997070312 M 12.330886840820312,10.227493286132812 L 12.330886840820312,10.227493286132812 L 12.32867431640625,10.411590576171875 L 12.326461791992188,10.64520263671875 L 12.322586059570312,10.878814697265625 L 12.317031860351562,11.1124267578125 L 12.311477661132812,11.346038818359375 L 12.305923461914062,11.57965087890625 L 12.300369262695312,11.813262939453125 L 12.294815063476562,12.046875 L 12.289260864257812,12.280487060546875 L 12.283706665039062,12.518890380859375 L 12.278152465820312,12.757293701171875 L 12.272598266601562,13.00048828125 L 12.267044067382812,13.243682861328125 L 12.261489868164062,13.48687744140625 L 12.254257202148438,13.72528076171875 L 12.247024536132812,13.968475341796875 L 12.239791870117188,14.208465576171875 L 12.232559204101562,14.448455810546875 L 12.225326538085938,14.688446044921875 L 12.218093872070312,14.928436279296875 M 11.763473510742188,10.168106079101562 L 11.763473510742188,10.168106079101562 L 11.73779296875,10.347412109375 L 11.712112426757812,10.526718139648438 L 11.686431884765625,10.707626342773438 L 11.660751342773438,10.888534545898438 L 11.63507080078125,11.069442749023438 L 11.609390258789062,11.250350952148438 L 11.583709716796875,11.431259155273438 L 11.558029174804688,11.612167358398438 M 11.177505493164062,11.820587158203125 L 11.177505493164062,11.820587158203125 L 11.206573486328125,12.050994873046875 L 11.235641479492188,12.294189453125 L 11.26470947265625,12.537384033203125 L 11.293777465820312,12.78057861328125 L 11.321182250976562,13.025375366210938 L 11.305572509765625,13.270172119140625 L 11.231246948242188,13.514968872070312 L 11.108306884765625,13.7406005859375 L 10.978652954101562,13.97100830078125 L 10.882537841796875,14.2205810546875 L 10.83673095703125,14.514877319335938 L 10.869155883789062,14.897018432617188 L 10.915008544921875,15.283966064453125 L 10.960861206054688,15.670913696289062 L 11.073776245117188,15.918899536132812 M 11.097396850585938,11.4403076171875 L 11.097396850585938,11.4403076171875 L 11.20361328125,11.227462768554688 L 11.321563720703125,10.990646362304688 L 11.2371826171875,10.862442016601562 L 11.134368896484375,10.72625732421875 L 11.023162841796875,10.546951293945312 L 10.911956787109375,10.362838745117188 L 10.876205444335938,10.1771240234375 L 10.876205444335938,9.993011474609375 L 10.91534423828125,9.810501098632812 L 10.986343383789062,9.583267211914062 L 11.05902099609375,9.308120727539062 L 11.091445922851562,9.020187377929688 L 10.963470458984375,8.716293334960938 L 10.79022216796875,8.406005859375 L 10.744415283203125,8.0350341796875 L 10.931121826171875,7.6640625 L 11.205032348632812,7.449615478515625 M 10.4417724609375,11.181060791015625 L 10.4417724609375,11.181060791015625 L 10.445709228515625,11.411468505859375 L 10.451309204101562,11.728134155273438 L 10.4569091796875,12.075149536132812 L 10.462509155273438,12.422164916992188 L 10.464767456054688,12.884170532226562 M 10.29010009765625,10.517959594726562 L 10.29010009765625,10.517959594726562 L 10.214111328125,10.666915893554688 L 10.133087158203125,10.815872192382812 L 10.047027587890625,10.964828491210938 L 9.960968017578125,11.113784790039062 L 9.873245239257812,11.262741088867188 L 9.795578002929688,11.421295166015625 L 9.726303100585938,11.594207763671875 L 9.677139282226562,11.775115966796875 L 9.648117065429688,11.9991455078125 L 9.635848999023438,12.283859252929688 L 9.66827392578125,12.731491088867188 L 9.715805053710938,13.231475830078125 L 9.775070190429688,13.731460571289062 L 10.045623779296875,14.201446533203125 L 10.373199462890625,14.644287109375 M 12.803970336914062,12.203094482421875 L 12.803970336914062,12.203094482421875 L 12.654205322265625,12.224273681640625 L 12.485977172851562,12.24066162109375 M 12.848831176757812,12.401229858398438 L 12.848831176757812,12.401229858398438 L 12.697372436523438,12.427215576171875 L 12.525802612304688,12.453201293945312 L 12.29888916015625,12.47918701171875 M 12.111495971679688,11.822189331054688 L 12.111495971679688,11.822189331054688 L 12.164047241210938,12.066986083984375 L 12.221633911132812,12.335739135742188 M 11.979766845703125,13.025772094726562 L 11.979766845703125,13.025772094726562 L 12.039031982421875,12.865631103515625 L 12.098297119140625,12.70068359375 L 12.15924072265625,12.530960083007812 M 12.02801513671875,12.553314208984375 L 12.02801513671875,12.553314208984375 L 12.027481079101562,12.364410400390625 L 12.026947021484375,12.173919677734375 L 12.026412963867188,11.983428955078125" fill="none" stroke="#000000" stroke-width="1"/>
</svg>
