<?xml version="1.0" ?>
<svg baseProfile="full" height="195mm" version="1.1" viewBox="0 0 27.5 19.5" width="275mm" xmlns="http://www.w3.org/2000/svg" xmlns:ev="http://www.w3.org/2001/xml-events" xmlns:xlink="http://www.w3.org/1999/xlink">
	<defs/>
	<path d="M 19.382720947265625,10.69036865234375 L 19.382720947265625,10.69036865234375 L 19.128982543945312,10.746688842773438 L 18.764556884765625,10.820571899414062 L 18.395095825195312,10.904037475585938 L 17.94012451171875,11.073760986328125 L 17.45159912109375,11.29779052734375 L 17.00836181640625,11.619247436523438 L 16.578521728515625,11.950286865234375 L 16.150360107421875,12.282928466796875 L 15.722198486328125,12.615570068359375 L 15.294036865234375,12.948211669921875 L 14.847442626953125,13.261688232421875 L 14.347457885742188,13.389877319335938 L 13.84747314453125,13.48931884765625 L 13.67254638671875,13.439376831054688 L 13.763671875,13.311172485351562 L 13.86151123046875,13.032821655273438 L 13.934188842773438,12.6842041015625 L 13.85986328125,12.311630249023438 L 13.711776733398438,11.931076049804688 L 13.543548583984375,11.540939331054688 L 13.375320434570312,11.144393920898438 L 13.25238037109375,10.666412353515625 L 13.235092163085938,10.166412353515625 L 13.23455810546875,9.666412353515625 L 13.339096069335938,9.166412353515625 L 13.591217041015625,8.993484497070312 L 13.88189697265625,8.953125 L 14.241348266601562,8.959930419921875 L 14.637680053710938,9.057785034179688 L 15.034011840820312,9.283416748046875 L 15.048004150390625,9.609664916992188 L 14.81939697265625,9.9359130859375 M 14.073959350585938,10.916213989257812 L 14.073959350585938,10.916213989257812 L 14.126510620117188,11.122665405273438 L 14.074005126953125,10.980087280273438 L 13.947708129882812,10.668212890625 M 13.91363525390625,10.500076293945312 L 13.91363525390625,10.500076293945312 L 13.799072265625,10.315963745117188 L 13.558731079101562,10.133453369140625 L 13.23455810546875,10.05157470703125 L 12.856719970703125,10.041549682617188 L 12.413482666015625,10.287948608398438 L 12.119491577148438,10.737167358398438 L 12.117279052734375,11.237152099609375 L 12.48175048828125,11.630477905273438 L 12.945159912109375,11.798614501953125 L 13.343170166015625,11.6336669921875 L 13.402435302734375,11.459136962890625" fill="none" stroke="#000000" stroke-width="1"/>
	<path d="M 24.386367797851562,8.912826538085938 L 24.386367797851562,8.912826538085938 L 24.315414428710938,8.661636352539062 L 24.160598754882812,8.381698608398438 L 23.722381591796875,8.235916137695312 L 23.259002685546875,8.106109619140625 L 22.787246704101562,7.974700927734375 L 22.287261962890625,7.793792724609375 L 21.827255249023438,7.4866943359375 L 21.355499267578125,7.763427734375 L 20.989395141601562,8.153564453125 L 20.7322998046875,8.604385375976562 L 20.6143798828125,9.1043701171875 L 20.561874389648438,9.604354858398438 L 20.778778076171875,10.103103637695312 L 21.074493408203125,10.553924560546875 L 21.427215576171875,10.961624145507812 L 21.927215576171875,11.144119262695312 L 22.427215576171875,11.01751708984375 L 22.867156982421875,10.721603393554688 L 23.307098388671875,10.420913696289062 L 23.747039794921875,10.120223999023438 L 24.185302734375,9.82110595703125 L 24.578292846679688,9.477264404296875 L 24.455352783203125,8.981704711914062 L 23.955368041992188,9.004486083984375 M 21.018692016601562,8.431808471679688 L 21.018692016601562,8.431808471679688 L 21.238937377929688,8.343521118164062 L 21.5396728515625,8.252059936523438 L 21.806869506835938,8.332351684570312 L 22.07574462890625,8.460540771484375 L 22.2943115234375,8.828323364257812 L 22.506179809570312,9.218460083007812 L 22.718048095703125,9.611785888671875 L 22.221145629882812,9.743179321289062 L 21.739334106445312,9.53033447265625 L 21.735458374023438,10.030319213867188 L 21.448165893554688,10.358154296875 L 20.94818115234375,10.314590454101562 L 20.637405395507812,10.0186767578125 M 24.04364013671875,13.181198120117188 L 24.04364013671875,13.181198120117188 L 23.758026123046875,12.877304077148438 L 23.356704711914062,12.512710571289062 L 22.918487548828125,12.194442749023438 L 22.418502807617188,12.010330200195312 L 21.91851806640625,11.915664672851562 L 21.418533325195312,11.830581665039062 L 20.940078735351562,12.073776245117188 L 20.558883666992188,12.451141357421875 L 20.313522338867188,12.901962280273438 L 20.173812866210938,13.401947021484375 L 20.129684448242188,13.901931762695312 L 20.349929809570312,14.3958740234375 L 20.685882568359375,14.837112426757812 L 21.125823974609375,15.134613037109375 L 21.625823974609375,15.23565673828125 L 22.125823974609375,15.201675415039062 L 22.592575073242188,14.985626220703125 L 23.045928955078125,14.73443603515625 L 23.497604370117188,14.481643676757812 L 23.94927978515625,14.228851318359375 L 23.801193237304688,13.728851318359375 L 23.523971557617188,13.29559326171875 L 23.86663818359375,13.085922241210938 M 21.015777587890625,12.326812744140625 L 21.015777587890625,12.326812744140625 L 21.293045043945312,12.3511962890625 L 21.625656127929688,12.375579833984375 L 21.889511108398438,12.623565673828125 L 21.692779541015625,12.940231323242188 L 21.22772216796875,13.189804077148438 L 21.72772216796875,13.104721069335938 L 22.22772216796875,13.056381225585938 L 22.55194091796875,13.504013061523438 L 22.387069702148438,13.996368408203125 L 22.145065307617188,14.4775390625 L 21.794052124023438,14.878860473632812 L 21.2940673828125,14.989486694335938 L 20.794082641601562,14.806976318359375 L 20.294097900390625,14.614883422851562 L 19.882720947265625,14.606460571289062 M 23.760147094726562,7.55560302734375 L 23.760147094726562,7.55560302734375 L 24.010589599609375,7.8467254638671875 L 24.328109741210938,8.279983520507812 L 24.573516845703125,8.751571655273438 L 24.69146728515625,9.250320434570312 L 24.78594970703125,9.75030517578125 L 24.908935546875,10.250289916992188 L 25.104019165039062,10.750274658203125 L 25.564071655273438,10.51824951171875 L 25.83294677734375,10.102554321289062 L 25.55572509765625,9.677276611328125 L 25.189620971679688,9.298309326171875 L 24.999588012695312,8.805938720703125 L 24.819625854492188,8.307174682617188 L 24.580963134765625,7.8515472412109375 L 24.16455078125,7.526885986328125 L 23.691116333007812,7.24853515625 L 23.191131591796875,7.3671417236328125 M 25.41278076171875,13.519210815429688 L 25.41278076171875,13.519210815429688 L 24.998046875,13.850250244140625 L 24.813064575195312,14.336212158203125 L 24.631439208984375,14.820571899414062 L 24.454833984375,15.306533813476562 L 24.092086791992188,15.70465087890625 L 23.59210205078125,15.627548217773438 L 23.529525756835938,15.127548217773438 L 23.733016967773438,14.630386352539062 L 24.0689697265625,14.240249633789062 L 24.406600952148438,13.842117309570312 L 24.561447143554688,13.342117309570312 L 24.707901000976562,12.842117309570312 L 25.207901000976562,12.939971923828125 L 25.659576416015625,13.231094360351562 L 25.827850341796875,13.7310791015625" fill="none" stroke="#000000" stroke-width="1"/>
	<path d="M 9.341827392578125,13.992721557617188 L 9.341827392578125,13.992721557617188 L 9.1685791015625,13.741531372070312 L 8.889678955078125,13.2667236328125 L 8.649337768554688,12.788742065429688 L 8.474411010742188,12.291580200195312 L 8.44873046875,11.791580200195312 L 8.513015747070312,11.291580200195312 L 8.553817749023438,10.791580200195312 L 8.553817749023438,10.291580200195312 L 8.59295654296875,9.791580200195312 L 8.65557861328125,9.291580200195312 L 8.927810668945312,8.855117797851562 L 9.19500732421875,8.41705322265625 L 9.418609619140625,7.975799560546875 L 9.628799438476562,7.529754638671875 L 9.89935302734375,7.093292236328125 L 10.168228149414062,6.6552276611328125 L 10.520950317382812,6.292236328125 L 10.97430419921875,6.055419921875 L 11.427658081054688,5.8170013427734375 L 11.5372314453125,5.699981689453125 M 11.558013916015625,6.6866912841796875 L 11.558013916015625,6.6866912841796875 L 11.617279052734375,6.1866912841796875 L 11.477569580078125,5.6866912841796875 L 11.193634033203125,5.2310638427734375 L 10.74200439453125,4.962310791015625 L 10.242019653320312,4.8932037353515625 L 10.092254638671875,5.098052978515625" fill="none" stroke="#000000" stroke-width="1"/>
</svg>
