<?xml version="1.0" ?>
<svg baseProfile="full" height="195mm" version="1.1" viewBox="0 0 27.5 19.5" width="275mm" xmlns="http://www.w3.org/2000/svg" xmlns:ev="http://www.w3.org/2001/xml-events" xmlns:xlink="http://www.w3.org/1999/xlink">
	<defs/>
	<path d="M 16.683258056640625,11.982696533203125 L 16.683258056640625,11.982696533203125 L 16.312118530273438,11.7410888671875 L 15.8121337890625,11.5426025390625 L 15.312149047851562,11.348907470703125 L 14.812164306640625,11.348907470703125 L 14.333709716796875,11.624038696289062 L 14.291259765625,12.1240234375 L 14.550079345703125,12.605194091796875 L 14.865921020507812,13.04803466796875 L 15.1817626953125,13.490875244140625 L 15.58648681640625,13.191757202148438 L 15.909042358398438,12.820785522460938 L 16.3037109375,12.536056518554688 L 16.7755126953125,12.412628173828125 L 17.208740234375,12.147064208984375" fill="none" stroke="#000000" stroke-width="1"/>
	<path d="M 20.749465942382812,9.918441772460938 L 20.749465942382812,9.918441772460938 L 21.01666259765625,9.537887573242188 L 21.230209350585938,9.047119140625 L 21.2659912109375,8.55316162109375 L 20.970321655273438,8.139053344726562 L 20.582412719726562,7.79364013671875 L 20.172714233398438,7.48974609375 L 19.69927978515625,7.294464111328125 L 19.199295043945312,7.3236236572265625 L 18.700714111328125,7.555633544921875 L 18.260818481445312,7.888275146484375 L 17.981918334960938,8.345504760742188 L 17.926055908203125,8.845489501953125 L 18.211715698242188,9.291534423828125 L 18.564437866210938,9.694442749023438 L 18.952377319335938,10.063827514648438 L 19.390640258789062,10.361328125 L 19.828903198242188,10.658828735351562 L 20.22357177734375,10.994659423828125 L 20.556182861328125,11.40875244140625 L 20.880401611328125,11.843612670898438 L 21.0855712890625,12.323196411132812 L 21.08001708984375,12.82318115234375 L 20.806137084960938,13.27880859375 L 20.37127685546875,13.568328857421875 L 19.899520874023438,13.770004272460938 L 19.3995361328125,13.89501953125 L 18.899551391601562,13.956130981445312 L 18.399566650390625,13.842300415039062 L 18.0150146484375,13.498458862304688 L 17.86187744140625,13.020477294921875 L 17.708740234375,12.542495727539062 L 18.084945678710938,12.187484741210938 L 18.584945678710938,12.048095703125 L 19.084945678710938,11.908706665039062 L 19.544998168945312,11.635147094726562 L 19.974868774414062,11.334457397460938 L 20.369537353515625,10.993820190429688 L 20.665252685546875,10.581314086914062 L 20.942520141601562,10.167205810546875 L 20.97998046875,9.673248291015625 M 20.98223876953125,9.8509521484375 L 20.98223876953125,9.8509521484375 L 20.986175537109375,10.084564208984375 M 20.100189208984375,8.82733154296875 L 20.100189208984375,8.82733154296875 L 20.137649536132812,8.44677734375 L 19.637664794921875,8.450393676757812 L 19.229644775390625,8.826156616210938 L 19.34088134765625,9.326141357421875 L 19.785842895507812,9.582122802734375 L 20.151992797851562,9.257461547851562 L 20.308517456054688,8.78106689453125 M 20.047149658203125,12.46185302734375 L 20.047149658203125,12.46185302734375 L 19.63409423828125,12.161163330078125 L 19.18414306640625,12.482620239257812 L 19.218246459960938,12.8040771484375 L 19.617935180664062,13.168655395507812 L 20.117935180664062,13.181854248046875 M 20.659591674804688,7.843780517578125 L 20.659591674804688,7.843780517578125 L 20.53497314453125,7.9943389892578125 L 20.6126708984375,7.835784912109375 L 20.801055908203125,7.6229400634765625 L 20.798843383789062,7.4723663330078125 L 20.856430053710938,7.2083892822265625 L 21.103515625,7.1041412353515625 M 21.250595092773438,8.02618408203125 L 21.250595092773438,8.02618408203125 L 21.452407836914062,7.8899993896484375 L 21.672653198242188,7.6995086669921875 M 21.451980590820312,8.760101318359375 L 21.451980590820312,8.760101318359375 L 21.655471801757812,8.941009521484375 L 21.92938232421875,9.264068603515625 M 21.506301879882812,9.528427124023438 L 21.506301879882812,9.528427124023438 L 21.734939575195312,9.877029418945312 L 21.670700073242188,9.729660034179688 L 21.536026000976562,9.355484008789062 L 21.280609130859375,9.113876342773438 L 20.936309814453125,8.94415283203125 L 20.702682495117188,8.814346313476562 M 20.784454345703125,11.568984985351562 L 20.784454345703125,11.568984985351562 L 20.984588623046875,11.4822998046875 L 21.253463745117188,11.352493286132812 M 21.242385864257812,12.164703369140625 L 21.242385864257812,12.164703369140625 L 21.435806274414062,12.135528564453125 L 21.630889892578125,12.09356689453125 L 21.782379150390625,12.081954956054688 M 21.284988403320312,12.709747314453125 L 21.284988403320312,12.709747314453125 L 21.475051879882812,12.941757202148438 L 21.725494384765625,13.186553955078125 M 21.194549560546875,13.579559326171875 L 21.194549560546875,13.579559326171875 L 21.376235961914062,13.825958251953125 L 21.569656372070312,14.133041381835938 M 20.54583740234375,14.166885375976562 L 20.54583740234375,14.166885375976562 L 20.821441650390625,14.628890991210938" fill="none" stroke="#000000" stroke-width="1"/>
	<path d="M 12.99102783203125,8.36553955078125 L 12.99102783203125,8.36553955078125 L 12.494125366210938,8.599151611328125 L 12.029067993164062,8.845550537109375 L 11.585830688476562,9.130264282226562 L 11.275054931640625,9.52838134765625 L 11.088394165039062,9.991989135742188 L 10.9017333984375,10.453994750976562 L 10.716751098632812,10.916000366210938 L 10.531768798828125,11.378005981445312 L 10.346786499023438,11.840011596679688 L 10.168502807617188,12.3179931640625 L 10.058975219726562,12.817977905273438 L 10.136672973632812,13.317962646484375 L 10.246246337890625,13.817947387695312 L 10.394378662109375,14.31793212890625 L 10.54754638671875,14.817916870117188 L 10.819778442382812,15.276718139648438 L 11.118850708007812,15.725936889648438 L 11.618850708007812,15.5865478515625 L 12.083938598632812,15.279449462890625 L 12.583938598632812,15.378890991210938 L 13.083938598632812,15.559799194335938 L 13.583938598632812,15.743896484375 M 13.192337036132812,15.218704223632812 L 13.192337036132812,15.218704223632812 L 13.032501220703125,14.718704223632812 L 12.857574462890625,14.226333618164062 L 12.682647705078125,13.73077392578125 L 12.4322509765625,13.268753051757812 L 12.603866577148438,12.771591186523438 L 12.773818969726562,12.2728271484375 L 12.943771362304688,11.774063110351562 L 13.115386962890625,11.276901245117188 L 13.28533935546875,10.776901245117188 L 13.404983520507812,10.276901245117188 L 13.514556884765625,9.776901245117188 L 13.62579345703125,9.276901245117188 L 13.737030029296875,8.776901245117188 L 13.791259765625,8.276901245117188 L 13.316146850585938,8.054458618164062 M 12.1168212890625,9.926910400390625 L 12.1168212890625,9.926910400390625 L 12.261611938476562,10.426895141601562 L 12.406402587890625,10.9268798828125 L 12.527725219726562,11.426864624023438 L 12.638961791992188,11.926849365234375 L 12.306396484375,12.363296508789062 L 11.822906494140625,12.587326049804688 L 11.6295166015625,13.086074829101562 L 11.504898071289062,13.5860595703125 L 11.383621215820312,14.086044311523438 L 11.262344360351562,14.586029052734375 L 11.49432373046875,15.086013793945312 L 11.99432373046875,15.100814819335938" fill="none" stroke="#000000" stroke-width="1"/>
</svg>
