<?xml version="1.0" ?>
<svg baseProfile="full" height="195mm" version="1.1" viewBox="0 0 27.5 19.5" width="275mm" xmlns="http://www.w3.org/2000/svg" xmlns:ev="http://www.w3.org/2001/xml-events" xmlns:xlink="http://www.w3.org/1999/xlink">
	<defs/>
	<path d="M 17.812705993652344,10.653732299804688 L 17.812705993652344,10.653732299804688 L 17.312721252441406,10.5638427734375 L 16.81273651123047,10.477157592773438 L 16.31275177001953,10.392074584960938 L 15.812767028808594,10.303787231445312 L 15.312782287597656,10.199539184570312 M 18.02623748779297,11.879074096679688 L 18.02623748779297,11.879074096679688 L 17.54778289794922,12.111083984375 L 17.04779815673828,12.208938598632812 L 16.547813415527344,12.130233764648438 L 16.047828674316406,12.049942016601562 L 15.547843933105469,12.020767211914062 L 15.047859191894531,12.169723510742188 M 15.851173400878906,12.623397827148438 L 15.851173400878906,12.623397827148438 L 15.604133605957031,13.08380126953125 L 15.104148864746094,13.234359741210938 L 14.604164123535156,13.1907958984375 L 14.104179382324219,13.09613037109375 L 13.689445495605469,12.744308471679688 L 13.506141662597656,12.258331298828125 L 13.473762512207031,11.758331298828125 L 13.474327087402344,11.258331298828125 L 13.495018005371094,10.758331298828125 L 13.519065856933594,10.258331298828125 L 13.543113708496094,9.758331298828125 L 13.647651672363281,9.258331298828125 L 13.986961364746094,8.895339965820312 L 14.329627990722656,8.524368286132812 L 14.829627990722656,8.612640380859375 L 15.279624938964844,8.873397827148438 L 15.727943420410156,9.138946533203125 L 16.171226501464844,9.402908325195312" fill="none" stroke="#000000" stroke-width="1"/>
	<path d="M 19.22588348388672,4.168426513671875 L 19.22588348388672,4.168426513671875 L 19.52661895751953,4.235931396484375 L 19.792137145996094,4.2619171142578125 M 19.575904846191406,3.7902984619140625 L 19.575904846191406,3.7902984619140625 L 19.422767639160156,4.1804351806640625 M 19.444602966308594,4.1667938232421875 L 19.444602966308594,4.1667938232421875 L 19.006385803222656,4.0353851318359375 L 19.38426971435547,4.3184967041015625 L 19.74036407470703,3.923553466796875 L 19.240379333496094,4.050140380859375 L 19.370079040527344,4.5501251220703125 L 19.65070343017578,4.097686767578125 L 19.25273895263672,4.4846343994140625 M 19.196876525878906,4.3005218505859375 L 19.196876525878906,4.3005218505859375 L 19.05046844482422,3.804962158203125 L 18.56865692138672,4.054534912109375 M 18.59270477294922,4.5545196533203125 L 18.59270477294922,4.5545196533203125 L 18.965553283691406,4.9334869384765625 L 19.00804901123047,4.4334869384765625 L 18.52623748779297,4.6894683837890625 M 22.05364227294922,6.4447784423828125 L 22.05364227294922,6.4447784423828125 L 21.74622344970703,6.4452056884765625 L 21.35999298095703,6.7219390869140625 L 21.14984893798828,7.21429443359375 L 21.41704559326172,7.67950439453125 L 21.764747619628906,8.077621459960938 L 22.22480010986328,8.306442260742188 M 22.324302673339844,8.175033569335938 L 22.324302673339844,8.175033569335938 L 22.519386291503906,7.9861297607421875 L 22.73461151123047,7.6454925537109375 L 22.84082794189453,7.1454925537109375 L 22.738014221191406,6.6454925537109375 L 22.457435607910156,6.1898651123046875 M 21.773338317871094,6.9425506591796875 L 21.773338317871094,6.9425506591796875 L 21.571571350097656,6.8718414306640625 L 21.32788848876953,7.0591278076171875 L 21.37877655029297,7.5083465576171875 L 21.72814178466797,7.7946624755859375 L 22.18651580810547,7.775054931640625 L 22.39502716064453,7.282684326171875 L 22.07085418701172,6.8637847900390625 M 21.857826232910156,13.669708251953125 L 21.857826232910156,13.669708251953125 L 21.594017028808594,13.804290771484375 L 21.27654266357422,14.095413208007812 L 21.15526580810547,14.59539794921875 L 21.137977600097656,15.095382690429688 L 21.37836456298828,15.584548950195312 L 21.81494903564453,15.81976318359375 L 22.28003692626953,15.99267578125 M 22.443275451660156,15.947509765625 L 22.443275451660156,15.947509765625 L 22.78594207763672,15.814498901367188 L 23.150413513183594,15.432342529296875 L 23.128089904785156,14.932342529296875 L 22.95484161376953,14.432342529296875 L 22.717857360839844,13.947967529296875 L 22.373558044433594,13.564208984375 L 21.873573303222656,13.480728149414062 M 22.34040069580078,15.271697998046875 L 22.34040069580078,15.271697998046875 L 22.61766815185547,15.232940673828125 L 22.86139678955078,14.759735107421875 L 22.68311309814453,14.259735107421875 L 22.184532165527344,14.077224731445312 L 21.684547424316406,14.293258666992188 L 21.336891174316406,14.73291015625 L 21.61249542236328,15.185333251953125 L 22.050758361816406,15.455673217773438 L 22.550758361816406,15.364212036132812 M 22.242271423339844,14.958831787109375 L 22.242271423339844,14.958831787109375 L 21.871131896972656,14.835403442382812 L 21.958900451660156,14.703994750976562 L 22.316673278808594,14.563003540039062 L 22.615745544433594,14.842941284179688 L 22.115760803222656,14.864120483398438" fill="none" stroke="#000000" stroke-width="1"/>
	<path d="M 12.143455505371094,8.568634033203125 L 12.143455505371094,8.568634033203125 L 12.065788269042969,8.891693115234375 L 11.998191833496094,9.339324951171875 L 12.273796081542969,9.785369873046875 L 12.594673156738281,10.229812622070312 L 12.441535949707031,10.281341552734375 L 12.207908630371094,10.4478759765625 L 11.979301452636719,10.873138427734375 L 12.046943664550781,11.373123168945312 L 12.480171203613281,11.624298095703125 L 12.973762512207031,11.632705688476562 L 12.777030944824219,11.703414916992188 L 12.400871276855469,11.898681640625 L 12.071662902832031,12.343124389648438 L 11.900093078613281,12.843109130859375 L 11.900657653808594,13.343093872070312 L 11.936439514160156,13.84307861328125 L 11.936439514160156,14.250778198242188 L 11.934226989746094,14.079452514648438 L 11.908546447753906,13.829864501953125 L 11.748710632324219,13.4732666015625 L 11.320549011230469,13.289154052734375 L 10.872276306152344,13.076309204101562 L 10.579963684082031,12.652633666992188 L 10.515724182128906,12.152633666992188 L 10.544792175292969,11.652633666992188 L 10.600700378417969,11.152633666992188 L 10.666664123535156,10.652633666992188 L 11.011009216308594,10.240127563476562 L 11.445915222167969,9.945816040039062 L 11.840583801269531,9.5924072265625 L 12.032325744628906,9.10003662109375 L 12.120094299316406,8.60003662109375 M 11.659599304199219,9.91461181640625 L 11.659599304199219,9.91461181640625 L 11.533302307128906,10.2568359375 L 11.232612609863281,10.643783569335938 L 10.916816711425781,11.08343505859375 L 10.684867858886719,11.574203491210938 L 10.680992126464844,12.074188232421875 L 11.067253112792969,12.410018920898438 L 11.465263366699219,12.75543212890625 L 11.698921203613281,13.239791870117188 L 11.914146423339844,13.732147216796875" fill="none" stroke="#000000" stroke-width="1"/>
</svg>
