<?xml version="1.0" ?>
<svg baseProfile="full" height="195mm" version="1.1" viewBox="0 0 27.5 19.5" width="275mm" xmlns="http://www.w3.org/2000/svg" xmlns:ev="http://www.w3.org/2001/xml-events" xmlns:xlink="http://www.w3.org/1999/xlink">
	<defs/>
	<path d="M 17.812705993652344,10.653732299804688 L 17.812705993652344,10.653732299804688 L 17.312721252441406,10.5638427734375 L 16.81273651123047,10.477157592773438 L 16.31275177001953,10.392074584960938 L 15.812767028808594,10.303787231445312 L 15.312782287597656,10.199539184570312 M 18.02623748779297,11.879074096679688 L 18.02623748779297,11.879074096679688 L 17.54778289794922,12.111083984375 L 17.04779815673828,12.208938598632812 L 16.547813415527344,12.130233764648438 L 16.047828674316406,12.049942016601562 L 15.547843933105469,12.020767211914062 L 15.047859191894531,12.169723510742188 M 15.851173400878906,12.623397827148438 L 15.851173400878906,12.623397827148438 L 15.604133605957031,13.08380126953125 L 15.104148864746094,13.234359741210938 L 14.604164123535156,13.1907958984375 L 14.104179382324219,13.09613037109375 L 13.689445495605469,12.744308471679688 L 13.506141662597656,12.258331298828125 L 13.473762512207031,11.758331298828125 L 13.474327087402344,11.258331298828125 L 13.495018005371094,10.758331298828125 L 13.519065856933594,10.258331298828125 L 13.543113708496094,9.758331298828125 L 13.647651672363281,9.258331298828125 L 13.986961364746094,8.895339965820312 L 14.329627990722656,8.524368286132812 L 14.829627990722656,8.612640380859375 L 15.279624938964844,8.873397827148438 L 15.727943420410156,9.138946533203125 L 16.171226501464844,9.402908325195312" fill="none" stroke="#000000" stroke-width="1"/>
	<path d="M 23.464378356933594,8.266708374023438 L 23.464378356933594,8.266708374023438 L 23.43030548095703,7.8685760498046875 L 23.345924377441406,7.3685760498046875 L 23.228004455566406,6.8685760498046875 L 23.110084533691406,6.3685760498046875 L 22.96367645263672,5.8685760498046875 L 22.66968536376953,5.4337158203125 L 22.202964782714844,5.16973876953125 L 21.702980041503906,4.995208740234375 L 21.20299530029297,4.938873291015625 L 20.70301055908203,4.996795654296875 L 20.203025817871094,5.160125732421875 L 19.732948303222656,5.4336700439453125 L 19.30310821533203,5.761505126953125 L 18.935325622558594,6.180389404296875 L 18.70671844482422,6.6711578369140625 L 18.533470153808594,7.171142578125 L 18.52623748779297,7.6711273193359375 L 18.65929412841797,8.171112060546875 L 18.86278533935547,8.66986083984375 L 19.12328338623047,9.139846801757812 L 19.467628479003906,9.541168212890625 L 19.872352600097656,9.869003295898438 L 20.340782165527344,10.054702758789062 L 20.83605194091797,10.12060546875 L 21.334678649902344,10.127410888671875 L 21.818214416503906,10.03912353515625 L 22.27490997314453,9.826278686523438 L 22.719871520996094,9.575088500976562 L 23.059181213378906,9.204116821289062 L 23.339805603027344,8.775634765625 L 23.618751525878906,8.345550537109375 M 21.42871856689453,13.394851684570312 L 21.42871856689453,13.394851684570312 L 21.195091247558594,13.143661499023438 L 20.695106506347656,13.005874633789062 L 20.21831512451172,13.285812377929688 L 19.843833923339844,13.695114135742188 L 19.953407287597656,14.195098876953125 L 20.185386657714844,14.68426513671875 L 20.685386657714844,14.73419189453125 L 21.182334899902344,14.647506713867188 L 21.59375762939453,14.342010498046875 L 21.62786102294922,13.842010498046875 L 21.39087677001953,13.365615844726562" fill="none" stroke="#000000" stroke-width="1"/>
	<path d="M 12.963417053222656,6.990570068359375 L 12.963417053222656,6.990570068359375 L 12.706321716308594,6.9438323974609375 L 12.206336975097656,6.90826416015625 L 11.732902526855469,7.1434783935546875 L 11.385246276855469,7.540008544921875 L 11.097953796386719,7.986053466796875 L 10.840858459472656,8.432098388671875 L 10.583763122558594,8.879730224609375 L 10.449089050292969,9.370498657226562 L 10.541893005371094,9.867645263671875 L 10.817497253417969,10.31048583984375 L 11.093101501464844,10.753326416015625 L 11.356956481933594,11.202545166015625 L 11.396095275878906,11.696487426757812 L 11.398353576660156,12.1904296875 L 11.678977966308594,12.636474609375 L 12.108848571777344,12.914810180664062 L 12.608848571777344,12.935989379882812 L 12.832450866699219,12.7630615234375 L 12.761497497558594,12.921615600585938 L 12.643577575683594,13.193557739257812 L 12.368019104003906,13.588485717773438 L 11.868034362792969,13.538543701171875 L 11.463356018066406,13.223464965820312 L 11.028495788574219,12.922775268554688 L 10.593635559082031,12.622085571289062 L 10.152061462402344,12.330963134765625 L 9.710487365722656,12.039840698242188 L 9.268913269042969,11.750320434570312 L 8.827339172363281,11.459197998046875 L 8.414283752441406,11.15850830078125 L 8.061592102050781,10.784332275390625 L 7.729026794433594,10.405364990234375 L 7.642967224121094,9.922576904296875 L 8.056068420410156,9.626663208007812 L 8.502708435058594,9.413818359375 L 8.956062316894531,9.199371337890625 L 9.359107971191406,8.890670776367188 L 9.500541687011719,8.412689208984375 L 9.608436584472656,7.93310546875 L 9.714653015136719,7.453521728515625 L 10.017066955566406,7.0394134521484375 L 10.473762512207031,6.8345489501953125 L 10.973762512207031,6.781402587890625 L 11.473762512207031,6.7713775634765625 L 11.973762512207031,6.8452606201171875 L 12.473762512207031,6.9942169189453125 L 12.973762512207031,7.032958984375 M 8.775184631347656,9.45355224609375 L 8.775184631347656,9.45355224609375 L 8.836128234863281,9.854873657226562 L 8.895393371582031,10.3548583984375 L 8.969749450683594,10.854843139648438 L 9.044105529785156,11.354827880859375 M 8.555198669433594,9.850982666015625 L 8.555198669433594,9.850982666015625 L 8.130393981933594,10.079803466796875 M 8.698432922363281,10.550201416015625 L 8.698432922363281,10.550201416015625 L 8.216621398925781,10.751876831054688 L 7.724754333496094,10.95355224609375 M 9.661705017089844,9.10723876953125 L 9.661705017089844,9.10723876953125 L 9.253684997558594,9.475021362304688 L 8.959693908691406,9.919464111328125 L 8.778068542480469,10.403823852539062 L 9.254905700683594,10.581527709960938 L 9.703224182128906,10.317550659179688 L 9.962043762207031,9.881088256835938 M 9.428886413574219,9.665008544921875 L 9.428886413574219,9.665008544921875 L 9.696083068847656,9.361114501953125 L 10.102485656738281,9.055618286132812 L 10.565895080566406,8.889068603515625" fill="none" stroke="#000000" stroke-width="1"/>
</svg>
