<?xml version="1.0" ?>
<svg baseProfile="full" height="195mm" version="1.1" viewBox="0 0 27.5 19.5" width="275mm" xmlns="http://www.w3.org/2000/svg" xmlns:ev="http://www.w3.org/2001/xml-events" xmlns:xlink="http://www.w3.org/1999/xlink">
	<defs/>
	<path d="M 17.17980194091797,11.495849609375 L 17.17980194091797,11.495849609375 L 16.69127655029297,11.700698852539062 L 16.19129180908203,11.7266845703125 L 15.691307067871094,11.6224365234375 L 15.191322326660156,11.49102783203125 L 14.691337585449219,11.636795043945312 L 14.320198059082031,12.026931762695312" fill="none" stroke="#000000" stroke-width="1"/>
	<path d="M 22.183448791503906,8.912826538085938 L 22.183448791503906,8.912826538085938 L 22.11249542236328,8.661636352539062 L 21.957679748535156,8.381698608398438 L 21.51946258544922,8.235916137695312 L 21.05608367919922,8.106109619140625 L 20.584327697753906,7.974700927734375 L 20.08434295654297,7.793792724609375 L 19.62433624267578,7.4866943359375 L 19.15258026123047,7.763427734375 L 18.786476135253906,8.153564453125 L 18.529380798339844,8.604385375976562 L 18.411460876464844,9.1043701171875 L 18.35895538330078,9.604354858398438 L 18.57585906982422,10.103103637695312 L 18.87157440185547,10.553924560546875 L 19.22429656982422,10.961624145507812 L 19.72429656982422,11.144119262695312 L 20.22429656982422,11.01751708984375 L 20.66423797607422,10.721603393554688 L 21.10417938232422,10.420913696289062 L 21.54412078857422,10.120223999023438 L 21.982383728027344,9.82110595703125 L 22.37537384033203,9.477264404296875 L 22.25243377685547,8.981704711914062 L 21.75244903564453,9.004486083984375 M 18.815773010253906,8.431808471679688 L 18.815773010253906,8.431808471679688 L 19.03601837158203,8.343521118164062 L 19.336753845214844,8.252059936523438 L 19.60395050048828,8.332351684570312 L 19.872825622558594,8.460540771484375 L 20.091392517089844,8.828323364257812 L 20.303260803222656,9.218460083007812 L 20.51512908935547,9.611785888671875 L 20.018226623535156,9.743179321289062 L 19.536415100097656,9.53033447265625 L 19.53253936767578,10.030319213867188 L 19.24524688720703,10.358154296875 L 18.745262145996094,10.314590454101562 L 18.434486389160156,10.0186767578125 M 21.840721130371094,13.181198120117188 L 21.840721130371094,13.181198120117188 L 21.55510711669922,12.877304077148438 L 21.153785705566406,12.512710571289062 L 20.71556854248047,12.194442749023438 L 20.21558380126953,12.010330200195312 L 19.715599060058594,11.915664672851562 L 19.215614318847656,11.830581665039062 L 18.737159729003906,12.073776245117188 L 18.35596466064453,12.451141357421875 L 18.11060333251953,12.901962280273438 L 17.97089385986328,13.401947021484375 L 17.92676544189453,13.901931762695312 L 18.147010803222656,14.3958740234375 L 18.48296356201172,14.837112426757812 L 18.92290496826172,15.134613037109375 L 19.42290496826172,15.23565673828125 L 19.92290496826172,15.201675415039062 L 20.38965606689453,14.985626220703125 L 20.84300994873047,14.73443603515625 L 21.29468536376953,14.481643676757812 L 21.746360778808594,14.228851318359375 L 21.59827423095703,13.728851318359375 L 21.32105255126953,13.29559326171875 L 21.663719177246094,13.085922241210938 M 18.81285858154297,12.326812744140625 L 18.81285858154297,12.326812744140625 L 19.090126037597656,12.3511962890625 L 19.42273712158203,12.375579833984375 L 19.68659210205078,12.623565673828125 L 19.48986053466797,12.940231323242188 L 19.024803161621094,13.189804077148438 L 19.524803161621094,13.104721069335938 L 20.024803161621094,13.056381225585938 L 20.349021911621094,13.504013061523438 L 20.18415069580078,13.996368408203125 L 19.94214630126953,14.4775390625 L 19.59113311767578,14.878860473632812 L 19.091148376464844,14.989486694335938 L 18.591163635253906,14.806976318359375 L 18.09117889404297,14.614883422851562 L 17.67980194091797,14.606460571289062 M 21.557228088378906,7.55560302734375 L 21.557228088378906,7.55560302734375 L 21.80767059326172,7.8467254638671875 L 22.12519073486328,8.279983520507812 L 22.37059783935547,8.751571655273438 L 22.488548278808594,9.250320434570312 L 22.583030700683594,9.75030517578125 L 22.706016540527344,10.250289916992188 L 22.901100158691406,10.750274658203125 L 23.36115264892578,10.51824951171875 L 23.630027770996094,10.102554321289062 L 23.352806091308594,9.677276611328125 L 22.98670196533203,9.298309326171875 L 22.796669006347656,8.805938720703125 L 22.61670684814453,8.307174682617188 L 22.37804412841797,7.8515472412109375 L 21.961631774902344,7.526885986328125 L 21.488197326660156,7.24853515625 L 20.98821258544922,7.3671417236328125 M 23.209861755371094,13.519210815429688 L 23.209861755371094,13.519210815429688 L 22.795127868652344,13.850250244140625 L 22.610145568847656,14.336212158203125 L 22.42852020263672,14.820571899414062 L 22.251914978027344,15.306533813476562 L 21.88916778564453,15.70465087890625 L 21.389183044433594,15.627548217773438 L 21.32660675048828,15.127548217773438 L 21.53009796142578,14.630386352539062 L 21.866050720214844,14.240249633789062 L 22.20368194580078,13.842117309570312 L 22.35852813720703,13.342117309570312 L 22.504981994628906,12.842117309570312 L 23.004981994628906,12.939971923828125 L 23.45665740966797,13.231094360351562 L 23.62493133544922,13.7310791015625" fill="none" stroke="#000000" stroke-width="1"/>
	<path d="M 13.303047180175781,8.839447021484375 L 13.303047180175781,8.839447021484375 L 13.409263610839844,9.01556396484375 L 13.540641784667969,9.2459716796875 L 13.651878356933594,9.533889770507812 L 13.743003845214844,9.847366333007812 L 13.743003845214844,10.232711791992188 L 13.563041687011719,10.726654052734375 L 13.602180480957031,11.226638793945312 L 13.636283874511719,11.375595092773438 L 13.715660095214844,11.618789672851562 L 13.820198059082031,12.1187744140625 L 13.584892272949219,12.609542846679688 L 13.196983337402344,13.00128173828125 L 13.028755187988281,13.501266479492188 L 13.260734558105469,13.995208740234375 L 13.469245910644531,14.489151000976562 L 13.227241516113281,14.9735107421875 L 12.887977600097656,15.384414672851562 L 12.387992858886719,15.517410278320312 L 11.986671447753906,15.16558837890625 L 11.662498474121094,14.772247314453125 L 11.591545104980469,14.281478881835938 L 11.520591735839844,13.79071044921875 L 11.469749450683594,13.29833984375 L 11.417243957519531,12.80596923828125 L 11.364738464355469,12.3135986328125 L 11.312232971191406,11.82122802734375 L 11.259727478027344,11.328857421875 L 11.290473937988281,10.833297729492188 L 11.321220397949219,10.337738037109375 L 11.365394592285156,9.842178344726562 L 11.458198547363281,9.34661865234375 L 11.673423767089844,8.865432739257812 L 11.949028015136719,8.419387817382812 L 12.449028015136719,8.44537353515625 L 12.949028015136719,8.576766967773438 L 13.449028015136719,8.617111206054688" fill="none" stroke="#000000" stroke-width="1"/>
</svg>
