<?xml version="1.0" ?>
<svg baseProfile="full" height="195mm" version="1.1" viewBox="0 0 27.5 19.5" width="275mm" xmlns="http://www.w3.org/2000/svg" xmlns:ev="http://www.w3.org/2001/xml-events" xmlns:xlink="http://www.w3.org/1999/xlink">
	<defs/>
	<path d="M 16.980026245117188,9.31005859375 L 16.980026245117188,9.31005859375 L 16.637405395507812,9.36798095703125 L 16.20086669921875,9.18707275390625 L 15.700881958007812,8.986984252929688 L 15.353225708007812,8.574478149414062 L 15.005569458007812,8.36163330078125 L 14.761886596679688,8.844406127929688 L 15.1783447265625,9.175445556640625 M 15.025787353515625,9.089187622070312 L 15.025787353515625,9.089187622070312 L 14.617767333984375,9.434600830078125 L 14.519973754882812,9.934585571289062 L 14.939773559570312,10.303970336914062 L 15.399826049804688,10.535980224609375 M 15.194168090820312,10.697265625 L 15.194168090820312,10.697265625 L 15.022598266601562,11.194412231445312 L 15.482650756835938,11.428024291992188 L 15.691162109375,10.948440551757812 L 15.74371337890625,10.448440551757812 M 15.777435302734375,9.33380126953125 L 15.777435302734375,9.33380126953125 L 15.96917724609375,9.517898559570312 L 16.001602172851562,10.01788330078125 L 15.648910522460938,10.452743530273438" fill="none" stroke="#000000" stroke-width="1"/>
	<path d="M 19.180435180664062,12.240570068359375 L 19.180435180664062,12.240570068359375 L 19.306777954101562,12.3895263671875 L 19.475051879882812,12.546478271484375 L 19.67181396484375,12.679473876953125 L 19.870269775390625,12.812469482421875 L 20.0687255859375,12.945465087890625 L 20.265487670898438,13.124771118164062 L 20.455551147460938,13.391921997070312 L 20.598663330078125,13.743728637695312 L 20.664627075195312,14.141845703125 L 20.61212158203125,14.61663818359375 L 20.432159423828125,15.108993530273438 L 20.171707153320312,15.591766357421875 L 19.899505615234375,16.069747924804688 L 19.561920166015625,16.512588500976562 L 19.170654296875,16.907516479492188 L 19.121490478515625,16.763336181640625 L 19.037109375,16.580825805664062 L 18.890701293945312,16.375961303710938 L 18.727508544921875,16.167892456054688 L 18.564315795898438,15.959823608398438 L 18.399444580078125,15.695846557617188 L 18.237930297851562,15.4127197265625 L 18.093185424804688,15.094451904296875 L 17.980300903320312,14.745834350585938 L 17.929458618164062,14.344512939453125 L 17.968597412109375,13.9320068359375 L 18.163681030273438,13.521087646484375 L 18.430877685546875,13.16448974609375 L 18.741683959960938,12.865371704101562 L 18.794235229492188,12.716400146484375 L 18.846786499023438,12.5418701171875 L 18.897674560546875,12.372146606445312 L 18.908309936523438,12.200820922851562 L 18.823928833007812,12.02789306640625 L 18.968719482421875,11.98272705078125 L 19.1571044921875,11.9439697265625 L 19.121353149414062,12.094528198242188 L 19.055435180664062,12.323348999023438 M 19.082473754882812,10.013107299804688 L 19.082473754882812,10.013107299804688 L 19.175277709960938,9.886505126953125 L 19.291549682617188,9.761505126953125 L 19.412872314453125,9.636505126953125 L 19.529144287109375,9.511505126953125 L 19.645416259765625,9.381698608398438 L 19.761688232421875,9.25189208984375 L 19.869583129882812,9.078964233398438 L 19.97747802734375,8.9012451171875 L 20.083694458007812,8.718734741210938 L 20.141281127929688,8.494705200195312 L 20.180419921875,8.229141235351562 L 20.158096313476562,7.9332275390625 L 20.083770751953125,7.6309356689453125 L 19.96417236328125,7.328643798828125 L 19.834518432617188,7.0263519287109375 L 19.678024291992188,6.72406005859375 L 19.509796142578125,6.420166015625 L 19.257720947265625,6.149810791015625 L 18.931869506835938,5.9497222900390625 L 18.60601806640625,5.7448577880859375 L 18.541778564453125,5.5974884033203125 L 18.574203491210938,5.7464447021484375 L 18.608306884765625,5.9065704345703125 L 18.642410278320312,6.071502685546875 L 18.571456909179688,6.2779541015625 L 18.485397338867188,6.50836181640625 L 18.399337768554688,6.73876953125 L 18.227767944335938,6.9500274658203125 L 18.054519653320312,7.161285400390625 L 17.8896484375,7.391693115234375 L 17.759994506835938,7.678009033203125 L 17.630340576171875,7.99786376953125 L 17.51409912109375,8.322525024414062 L 17.480026245117188,8.653564453125 L 17.530914306640625,8.984603881835938 L 17.72265625,9.31085205078125 L 18.038497924804688,9.47418212890625 L 18.361053466796875,9.623138427734375 L 18.495773315429688,9.736968994140625 L 18.699264526367188,9.901901245117188 L 18.820587158203125,9.996551513671875 L 18.758010864257812,10.137527465820312 L 18.682022094726562,10.353561401367188 L 18.7127685546875,10.569595336914062 L 18.812271118164062,10.447769165039062 L 18.91680908203125,10.3211669921875 L 18.904541015625,10.167404174804688 L 18.933609008789062,9.948150634765625 L 18.939208984375,9.720916748046875 M 17.705230712890625,8.226531982421875 L 17.705230712890625,8.226531982421875 L 17.898651123046875,8.295639038085938 L 18.107162475585938,8.366348266601562 L 18.313995361328125,8.427459716796875 L 18.520828247070312,8.453445434570312 L 18.7276611328125,8.477828979492188 L 18.937850952148438,8.4814453125 L 19.161453247070312,8.485061645507812 L 19.395111083984375,8.423934936523438 L 19.628768920898438,8.305313110351562 L 19.8624267578125,8.177108764648438 L 19.972000122070312,8.045700073242188 M 19.855758666992188,7.9462432861328125 L 19.855758666992188,7.9462432861328125 L 19.716049194335938,7.81964111328125 L 19.54949951171875,7.6834564208984375 L 19.372894287109375,7.563232421875 L 19.19293212890625,7.471771240234375 L 19.007949829101562,7.4090423583984375 L 18.705581665039062,7.50848388671875 L 18.408233642578125,7.6207122802734375 L 18.1075439453125,7.6834259033203125 L 17.806854248046875,7.7461395263671875 L 17.512863159179688,7.89190673828125 L 17.546966552734375,8.16864013671875 M 17.638092041015625,8.034042358398438 L 17.638092041015625,8.034042358398438 L 17.782882690429688,7.851531982421875 L 17.989715576171875,7.7249298095703125 L 18.055679321289062,7.8738861083984375 L 18.113265991210938,8.137847900390625 L 18.189285278320312,7.996856689453125 L 18.287124633789062,7.812744140625 L 18.259765625,7.9744720458984375 L 18.202224731445312,8.212875366210938 L 18.261489868164062,8.070297241210938 L 18.355972290039062,7.870208740234375 L 18.385040283203125,8.022354125976562 L 18.414108276367188,8.206451416015625 L 18.473373413085938,8.35382080078125 L 18.552749633789062,8.225616455078125 L 18.669021606445312,7.96484375 L 18.668487548828125,8.131378173828125 L 18.607589721679688,8.4033203125 L 18.686965942382812,8.273513793945312 L 18.796539306640625,8.051071166992188 L 18.90777587890625,7.95001220703125 L 18.89886474609375,8.108566284179688 L 18.931289672851562,8.27349853515625 L 19.111297607421875,8.347381591796875 L 19.30303955078125,8.062652587890625 L 19.303604125976562,8.213211059570312 L 19.303604125976562,8.408477783203125 L 19.44000244140625,8.324996948242188 L 19.584793090820312,8.048248291015625 L 19.716171264648438,7.74755859375 L 19.54962158203125,7.7359466552734375 L 19.312637329101562,7.7211456298828125 L 19.053863525390625,7.6360626220703125 L 18.882293701171875,7.6700286865234375 L 18.554763793945312,7.7199554443359375 L 18.6978759765625,7.776275634765625 L 18.966751098632812,7.7990570068359375 L 19.344635009765625,7.787445068359375 L 19.184799194335938,7.7774200439453125 L 18.951171875,7.76739501953125 L 18.6488037109375,7.72222900390625 L 18.354812622070312,7.84564208984375 L 18.246963500976562,7.9977874755859375 L 18.544357299804688,8.183486938476562 L 19.044357299804688,8.20947265625 L 19.044357299804688,7.70947265625 L 18.720184326171875,7.6898651123046875 L 18.55029296875,8.107147216796875 L 18.896316528320312,7.9246368408203125 L 18.863937377929688,7.4246368408203125 L 19.102645874023438,7.74609375 L 19.509048461914062,8.065948486328125 L 19.660537719726562,8.057525634765625 L 19.87744140625,8.057525634765625 L 20.139617919921875,8.156967163085938 L 19.88922119140625,8.182952880859375 L 19.560012817382812,8.038772583007812 L 19.393463134765625,8.004791259765625 L 19.16485595703125,7.9740142822265625 L 18.889297485351562,7.7931060791015625 L 18.707672119140625,7.7931060791015625 L 18.27783203125,7.795135498046875 L 18.196807861328125,7.66693115234375 L 18.025238037109375,7.482818603515625 L 17.910675048828125,7.3562164306640625 L 17.886672973632812,7.530731201171875 L 17.7218017578125,7.9256591796875 L 17.7218017578125,8.077804565429688 L 17.7218017578125,8.324203491210938 L 17.829696655273438,8.208770751953125 L 18.049942016601562,8.018280029296875 L 18.382553100585938,7.83416748046875 L 18.382553100585938,8.013473510742188 L 18.653106689453125,8.079376220703125 M 18.037673950195312,14.46173095703125 L 18.037673950195312,14.46173095703125 L 18.187484741210938,14.522842407226562 L 18.372512817382812,14.574371337890625 L 18.591079711914062,14.6578369140625 L 18.809646606445312,14.741302490234375 L 19.036605834960938,14.80560302734375 L 19.28033447265625,14.8251953125 L 19.549209594726562,14.780029296875 L 19.824813842773438,14.709320068359375 L 20.102081298828125,14.63861083984375 L 20.379348754882812,14.567901611328125 L 20.654953002929688,14.48760986328125 M 20.543746948242188,14.373779296875 L 20.543746948242188,14.373779296875 L 20.422470092773438,14.2327880859375 L 20.271011352539062,14.093399047851562 L 20.092727661132812,14.005111694335938 L 19.914443969726562,13.916824340820312 L 19.67578125,13.90521240234375 L 19.418685913085938,13.983901977539062 L 19.151519775390625,14.064193725585938 L 18.862564086914062,14.090179443359375 L 18.571929931640625,14.080154418945312 L 18.281295776367188,14.07012939453125 L 17.988983154296875,14.094512939453125 L 17.772125244140625,14.288192749023438 M 17.92193603515625,14.266998291015625 L 17.92193603515625,14.266998291015625 L 18.071746826171875,14.177108764648438 L 18.071746826171875,14.353225708007812 L 18.035995483398438,14.743362426757812 L 18.091903686523438,14.600784301757812 L 18.147811889648438,14.458206176757812 L 18.23223876953125,14.207015991210938 L 18.321685791015625,14.330429077148438 L 18.424545288085938,14.452239990234375 L 18.529083251953125,14.7337646484375 L 18.71746826171875,14.586395263671875 L 18.85052490234375,14.218612670898438 L 18.833236694335938,14.378738403320312 L 18.815948486328125,14.69061279296875 L 18.861801147460938,14.546432495117188 L 18.90765380859375,14.276077270507812 L 18.990402221679688,14.063232421875 L 19.027862548828125,14.212188720703125 L 19.065322875976562,14.405868530273438 L 19.33251953125,14.556427001953125 L 19.427001953125,14.284469604492188 L 19.374496459960938,14.452606201171875 L 19.3203125,14.746902465820312 L 19.374542236328125,14.60272216796875 L 19.425430297851562,14.297225952148438 L 19.425430297851562,13.9853515625 L 19.531646728515625,14.1087646484375 L 19.671401977539062,14.2896728515625 L 19.677001953125,14.116744995117188 L 19.680938720703125,13.857574462890625 L 19.63177490234375,14.020904541015625 L 19.522247314453125,14.323196411132812 L 19.561386108398438,14.470565795898438 L 19.598846435546875,14.707382202148438 L 19.703384399414062,14.59674072265625 L 19.80792236328125,14.30242919921875 L 19.865509033203125,14.155059814453125 L 19.923095703125,13.889495849609375 L 19.902450561523438,14.04644775390625 L 19.881805419921875,14.27685546875 L 19.881805419921875,14.539215087890625 L 20.0316162109375,14.5635986328125 L 20.220001220703125,14.542404174804688 L 20.415084838867188,14.462112426757812 L 20.288787841796875,14.377029418945312 L 20.135650634765625,14.291946411132812 L 19.964080810546875,14.291946411132812 L 20.118927001953125,14.291946411132812 L 20.2720947265625,14.3275146484375 L 20.127349853515625,14.388626098632812 L 19.888687133789062,14.452926635742188 L 19.527618408203125,14.474105834960938 L 19.161514282226562,14.299575805664062 L 18.684722900390625,14.16339111328125 L 18.246505737304688,14.337905883789062 L 18.11517333984375,14.541183471679688 L 18.382369995117188,14.655014038085938 L 18.86590576171875,14.767242431640625 L 19.32427978515625,14.557571411132812 L 19.618316650390625,14.28082275390625 L 19.47357177734375,14.197341918945312 L 19.223175048828125,14.134613037109375 L 18.88055419921875,14.087875366210938 L 18.683822631835938,14.418914794921875 L 18.602798461914062,14.292312622070312 L 18.451339721679688,14.097030639648438 L 18.147293090820312,13.90972900390625 L 17.9639892578125,14.180068969726562 L 18.0584716796875,14.410476684570312 L 18.221710205078125,14.381301879882812 L 18.559341430664062,14.380859375 L 18.8399658203125,14.443572998046875 L 18.8399658203125,14.608505249023438 L 18.862335205078125,14.822952270507812 L 19.055755615234375,14.693145751953125 L 19.344757080078125,14.548965454101562 L 19.489547729492188,14.503799438476562 L 19.822158813476562,14.495376586914062 L 20.00048828125,14.415084838867188 L 20.415267944335938,14.406661987304688 L 20.364425659179688,14.22735595703125 L 20.276702880859375,14.003326416015625 L 20.095077514648438,14.003753662109375 L 20.032501220703125,14.176666259765625 L 19.911224365234375,14.45819091796875 L 19.940292358398438,14.310821533203125 L 19.9693603515625,14.126708984375 L 19.858154296875,14.251724243164062 L 19.6446533203125,14.432632446289062 L 19.789443969726562,14.39227294921875 L 20.014724731445312,14.342330932617188 L 20.312118530273438,14.319534301757812 L 20.170730590820312,14.237655639648438 L 19.982391357421875,14.152572631835938 L 19.728652954101562,14.040328979492188 L 19.488311767578125,14.189285278320312 L 19.234573364257812,14.317474365234375 L 18.987533569335938,14.491989135742188 L 19.152450561523438,14.516372680664062 L 19.503494262695312,14.539154052734375 L 19.940078735351562,14.65936279296875 L 19.755096435546875,14.607818603515625 L 19.392349243164062,14.51953125 L 18.979293823242188,14.337020874023438 L 18.525985717773438,14.212020874023438 L 18.076034545898438,14.117355346679688 M 20.552627563476562,10.13287353515625 L 20.552627563476562,10.13287353515625 L 20.881881713867188,10.082931518554688 L 20.728744506835938,10.032989501953125 L 20.5655517578125,9.90478515625 L 20.388946533203125,9.653594970703125 L 20.540435791015625,9.597259521484375 L 20.899887084960938,9.537734985351562 L 20.8775634765625,9.375991821289062 L 20.809967041015625,9.159942626953125 L 20.74237060546875,8.94549560546875 L 20.987777709960938,8.862014770507812 L 21.461257934570312,8.884796142578125 L 21.29974365234375,8.884796142578125 L 21.118118286132812,8.884353637695312 L 20.876113891601562,8.804061889648438 L 21.01922607421875,8.754119873046875 L 21.254562377929688,8.704177856445312 L 21.59051513671875,8.526458740234375 L 21.452484130859375,8.463729858398438 L 21.301025390625,8.402603149414062 L 21.121063232421875,8.344680786132812 L 21.265853881835938,8.262802124023438 L 21.603485107421875,8.164932250976562 L 21.677841186523438,7.929718017578125 L 21.526382446289062,7.884552001953125 L 21.289398193359375,7.8441925048828125 L 21.032302856445312,7.8421478271484375 L 21.126785278320312,7.7139434814453125 L 21.23468017578125,7.470733642578125 L 21.379470825195312,7.18121337890625 L 21.216278076171875,7.15362548828125 L 20.999420166015625,7.082916259765625 L 21.147552490234375,7.0329742431640625 L 21.34600830078125,6.9846343994140625 L 21.557876586914062,6.8931732177734375 L 21.419845581054688,6.8096923828125 L 21.177841186523438,6.724609375 L 20.90228271484375,6.6395263671875 L 20.963226318359375,6.4761810302734375 L 21.089569091796875,6.274505615234375 L 21.470809936523438,6.1207427978515625 L 21.274078369140625,6.1419219970703125 L 21.147781372070312,6.0536346435546875 L 20.917510986328125,5.9653472900390625 L 21.1025390625,6.00408935546875 L 21.470367431640625,6.041259765625 L 21.157928466796875,6.1199493408203125 L 20.833755493164062,6.0827789306640625 L 20.90643310546875,5.94976806640625 L 20.974075317382812,5.7672576904296875 L 20.919891357421875,5.554412841796875 L 20.543731689453125,5.57879638671875 L 20.128997802734375,5.643096923828125 M 20.8531494140625,12.011459350585938 L 20.8531494140625,12.011459350585938 L 21.229354858398438,12.037445068359375 L 21.531768798828125,12.135299682617188 L 21.375274658203125,12.193222045898438 L 21.161773681640625,12.29266357421875 L 21.266311645507812,12.417678833007812 L 21.494949340820312,12.705596923828125 L 21.350204467773438,12.655654907226562 L 21.181976318359375,12.605712890625 L 21.330108642578125,12.631698608398438 L 21.560409545898438,12.6640625 L 21.946670532226562,12.69482421875 L 21.790176391601562,12.720809936523438 L 21.618606567382812,12.746795654296875 L 21.681228637695312,12.895751953125 L 21.867935180664062,13.174087524414062 L 22.012725830078125,13.23040771484375 L 21.864639282226562,13.183670043945312 L 21.693069458007812,13.135330200195312 L 21.842880249023438,13.183670043945312 L 22.158721923828125,13.284713745117188 L 22.035781860351562,13.374588012695312 L 21.85247802734375,13.542724609375 L 22.00396728515625,13.565505981445312 L 22.19403076171875,13.588287353515625 L 22.38409423828125,13.611068725585938 L 22.219223022460938,13.637054443359375 L 21.968826293945312,13.885040283203125 L 22.018035888671875,14.03399658203125 L 22.124252319335938,14.21649169921875 L 22.366302490234375,14.344680786132812 L 22.201431274414062,14.35308837890625 L 22.006378173828125,14.356704711914062 L 22.142776489257812,14.45135498046875 L 22.389862060546875,14.550796508789062 L 22.615142822265625,14.680587768554688 L 22.468734741210938,14.738510131835938 L 22.278701782226562,14.839553833007812 L 22.071914672851562,14.988510131835938 L 22.203292846679688,15.078384399414062 L 22.373245239257812,15.179428100585938 L 22.578414916992188,15.314010620117188 L 22.42864990234375,15.352752685546875 L 22.18328857421875,15.479339599609375 L 21.884262084960938,15.430999755859375 L 21.825042724609375,15.62786865234375 L 21.973175048828125,15.882247924804688 L 21.8636474609375,16.131820678710938 L 21.584747314453125,16.197723388671875 L 21.346084594726562,16.324310302734375 L 21.32208251953125,16.570709228515625 L 21.172317504882812,16.590301513671875 L 20.978927612304688,16.619461059570312 L 20.762069702148438,16.717315673828125" fill="none" stroke="#000000" stroke-width="1"/>
	<path d="M 13.151611328125,6.66644287109375 L 13.151611328125,6.66644287109375 L 12.971649169921875,6.815399169921875 L 12.699447631835938,7.045806884765625 L 12.648605346679688,7.493438720703125 L 12.818557739257812,7.9921875 L 13.02874755859375,8.489334106445312 L 13.272476196289062,8.97210693359375 L 13.537994384765625,9.440505981445312 L 13.803512573242188,9.908905029296875 L 13.683914184570312,10.033920288085938 L 13.453643798828125,10.26593017578125 L 13.2803955078125,10.587387084960938 L 13.4134521484375,10.995086669921875 L 13.70916748046875,11.442718505859375 L 14.019973754882812,11.887161254882812 L 13.870208740234375,11.924331665039062 L 13.6617431640625,12.023773193359375 L 13.392898559570312,12.33404541015625 L 13.308517456054688,12.834030151367188 L 13.374481201171875,13.334014892578125 L 13.522613525390625,13.833999633789062 L 13.670745849609375,14.333984375 L 13.944656372070312,14.711349487304688 L 13.773086547851562,14.716552734375 L 13.529403686523438,14.716552734375 L 13.205230712890625,14.700149536132812 L 12.840805053710938,14.607086181640625 L 12.389175415039062,14.41339111328125 L 11.922454833984375,14.189361572265625 L 11.542938232421875,13.808807373046875 L 11.285842895507812,13.342010498046875 L 11.074020385742188,12.856033325195312 L 10.967849731445312,12.356033325195312 L 10.918685913085938,11.856033325195312 L 10.874557495117188,11.356033325195312 L 10.840484619140625,10.856033325195312 L 10.81146240234375,10.356033325195312 L 10.797515869140625,9.856033325195312 L 10.78692626953125,9.356033325195312 L 10.861282348632812,8.856033325195312 L 11.006072998046875,8.356033325195312 L 11.20452880859375,7.8560333251953125 L 11.580734252929688,7.4786529541015625 L 11.953582763671875,7.0996856689453125 L 12.326431274414062,6.7207183837890625 L 12.821701049804688,6.724334716796875 L 13.0654296875,6.78863525390625 M 12.39154052734375,8.57330322265625 L 12.39154052734375,8.57330322265625 L 12.449127197265625,8.837265014648438 L 12.5067138671875,9.145950317382812 L 12.522384643554688,9.453033447265625 L 12.46148681640625,9.760116577148438 L 12.2899169921875,10.065597534179688 L 12.061309814453125,10.385452270507812 L 11.978607177734375,10.75640869140625 L 12.17034912109375,11.068283081054688 L 12.206130981445312,11.222030639648438 L 12.24359130859375,11.484390258789062 L 12.279373168945312,11.812225341796875 L 12.315155029296875,12.140060424804688 L 12.4649658203125,12.383255004882812 L 12.6298828125,12.629653930664062 L 12.788070678710938,12.906387329101562 L 12.889251708984375,13.184722900390625 L 12.998825073242188,13.431121826171875" fill="none" stroke="#000000" stroke-width="1"/>
</svg>
