<?xml version="1.0" ?>
<svg baseProfile="full" height="195mm" version="1.1" viewBox="0 0 27.5 19.5" width="275mm" xmlns="http://www.w3.org/2000/svg" xmlns:ev="http://www.w3.org/2001/xml-events" xmlns:xlink="http://www.w3.org/1999/xlink">
	<defs/>
	<path d="M 16.88262176513672,11.045989990234375 L 16.88262176513672,11.045989990234375 L 16.612098693847656,10.997650146484375 L 16.28624725341797,10.949310302734375 L 15.965415954589844,10.902572631835938 L 15.755271911621094,10.8590087890625 L 15.786018371582031,10.70684814453125 L 15.828514099121094,10.391769409179688 L 15.839149475097656,10.1102294921875 L 15.694404602050781,10.047500610351562 L 15.366874694824219,9.99755859375 L 14.972251892089844,9.982757568359375 L 14.897926330566406,10.117340087890625 L 14.778327941894531,10.485122680664062 L 14.692268371582031,10.927963256835938 L 14.606208801269531,11.372406005859375 L 14.543632507324219,11.816848754882812 L 14.486091613769531,12.26129150390625 L 14.604042053222656,12.705734252929688 L 14.871238708496094,13.095870971679688 L 15.329612731933594,13.053909301757812 L 15.673957824707031,12.646194458007812 L 15.274314880371094,12.324722290039062 L 15.675682067871094,12.392227172851562 L 16.095481872558594,12.459732055664062 L 16.54547882080078,12.430557250976562 L 17.01390838623047,12.348678588867188 M 14.921348571777344,10.78839111328125 L 14.921348571777344,10.78839111328125 L 14.958808898925781,10.28839111328125 L 14.958274841308594,10.4613037109375 L 14.895698547363281,10.853042602539062 L 14.926445007324219,10.705673217773438 L 14.957191467285156,10.3394775390625 L 14.933189392089844,10.490036010742188 L 14.823661804199219,10.936080932617188 M 14.637672424316406,12.165557861328125 L 14.637672424316406,12.165557861328125 L 14.680168151855469,11.665557861328125 L 14.676292419433594,11.910354614257812 L 14.607017517089844,12.41033935546875 L 14.604804992675781,12.24859619140625 L 14.604804992675781,11.74859619140625" fill="none" stroke="#000000" stroke-width="1"/>
	<path d="M 29.45081329345703,10.021621704101562 L 29.45081329345703,10.021621704101562 L 29.88068389892578,9.843902587890625 L 30.34241485595703,9.61187744140625 L 30.68004608154297,9.205764770507812 L 30.95227813720703,8.7469482421875 L 31.147361755371094,8.25457763671875 L 31.12000274658203,7.75457763671875 L 30.940040588378906,7.25457763671875 L 30.59070587158203,6.8372802734375 L 30.184349060058594,6.482269287109375 L 29.72937774658203,6.1895599365234375 L 29.252586364746094,5.936767578125 L 28.752601623535156,5.8005828857421875 L 28.25261688232422,5.6883392333984375 L 27.75263214111328,5.59844970703125 L 27.252647399902344,5.5596923828125 L 26.752662658691406,5.56011962890625 L 26.25267791748047,5.5972900390625 L 25.75269317626953,5.6488189697265625 L 25.252708435058594,5.7626495361328125 L 24.752723693847656,5.9307861328125 L 24.329612731933594,6.263427734375 L 24.00543975830078,6.7030792236328125 L 23.75336456298828,7.1650848388671875 L 23.538185119628906,7.6510467529296875 L 23.411888122558594,8.151031494140625 L 23.46611785888672,8.651016235351562 L 23.73834991455078,9.127395629882812 L 24.102821350097656,9.528717041015625 L 24.485740661621094,9.917251586914062 L 24.883750915527344,10.2882080078125 L 25.383750915527344,10.370086669921875 L 25.883750915527344,10.378494262695312 L 26.383750915527344,10.383697509765625 L 26.883750915527344,10.39849853515625 L 27.383750915527344,10.413299560546875 L 27.883750915527344,10.4281005859375 L 28.383750915527344,10.444488525390625 L 28.883750915527344,10.319488525390625 L 29.370643615722656,10.1146240234375 L 29.84412384033203,9.876205444335938 L 29.94866180419922,9.999618530273438 L 30.24437713623047,10.274749755859375 L 30.612205505371094,10.64093017578125 L 30.94481658935547,11.083770751953125 L 31.26569366455078,11.529815673828125 L 31.53289031982422,11.985443115234375 L 31.72797393798828,12.477798461914062 L 31.738609313964844,12.977783203125 L 31.63579559326172,13.477767944335938 L 31.467567443847656,13.976516723632812 L 31.27753448486328,14.46087646484375 L 30.909751892089844,14.857406616210938 L 30.48326873779297,15.18206787109375 L 30.014869689941406,15.41888427734375 L 29.54479217529297,15.650894165039062 L 29.06800079345703,15.87811279296875 L 28.57947540283203,16.05902099609375 L 28.079490661621094,16.121734619140625 L 27.579505920410156,16.051025390625 L 27.07952117919922,15.926025390625 L 26.57953643798828,15.802597045898438 L 26.079551696777344,15.63287353515625 L 25.61115264892578,15.35772705078125 L 25.22827911376953,14.978759765625 L 24.892372131347656,14.56146240234375 L 24.55980682373047,14.1441650390625 L 24.28258514404297,13.683746337890625 L 24.147911071777344,13.183746337890625 L 24.026634216308594,12.683746337890625 L 23.990882873535156,12.183746337890625 L 23.993141174316406,11.683746337890625 L 24.080909729003906,11.183746337890625 L 24.334693908691406,10.691375732421875 L 24.633766174316406,10.246932983398438 M 29.48151397705078,9.779693603515625 L 29.48151397705078,9.779693603515625 L 29.184165954589844,9.352813720703125 L 28.684181213378906,9.165512084960938 L 28.18419647216797,9.113967895507812 L 27.68421173095703,9.062423706054688 L 27.184226989746094,9.101165771484375 L 26.684242248535156,9.270889282226562 L 26.251060485839844,9.603530883789062 L 25.81787872314453,9.936172485351562 L 25.386375427246094,10.272003173828125 L 25.028648376464844,10.70367431640625 L 25.324363708496094,10.270416259765625 L 25.71735382080078,9.913818359375 L 26.17070770263672,10.164993286132812 L 26.337303161621094,10.66497802734375 L 26.52568817138672,10.19818115234375 L 26.70233917236328,9.726577758789062 L 26.91588592529297,10.2093505859375 L 27.191490173339844,9.771286010742188 L 27.37987518310547,9.302886962890625 L 27.611854553222656,9.788848876953125 L 28.019920349121094,10.035247802734375 L 28.24687957763672,9.592391967773438 L 28.43358612060547,10.087936401367188 L 28.81816864013672,10.152236938476562 L 29.035072326660156,9.699798583984375 L 29.25029754638672,9.252151489257812 M 30.20594024658203,15.044647216796875 L 30.20594024658203,15.044647216796875 L 29.834800720214844,14.63214111328125 L 29.35131072998047,14.379348754882812 L 28.85132598876953,14.400527954101562 L 28.351341247558594,14.464828491210938 L 27.851356506347656,14.529129028320312 L 27.35137176513672,14.591842651367188 L 26.85138702392578,14.697677612304688 L 26.351402282714844,14.8131103515625 L 25.913185119628906,15.129776000976562 L 25.50012969970703,15.478378295898438 M 28.458900451660156,9.427947998046875 L 28.458900451660156,9.427947998046875 L 27.95891571044922,9.41314697265625 L 27.45893096923828,9.399948120117188 L 26.958946228027344,9.386749267578125 L 26.505638122558594,9.700225830078125 L 27.005638122558594,9.7437744140625 L 27.505638122558594,9.697036743164062 L 28.005638122558594,9.688613891601562 L 28.505638122558594,9.6754150390625 L 29.005638122558594,9.665390014648438 L 29.505638122558594,9.7935791015625 L 29.023826599121094,9.977676391601562 L 28.523841857910156,10.056365966796875 L 28.02385711669922,10.135055541992188 L 27.52387237548828,10.05157470703125 L 27.023887634277344,9.96649169921875 L 26.523902893066406,9.990875244140625 L 26.02391815185547,10.013656616210938 M 20.03850555419922,6.036102294921875 L 20.03850555419922,6.036102294921875 L 19.679100036621094,6.4342193603515625 L 19.31635284423828,6.83074951171875 L 18.987144470214844,7.27838134765625 L 18.671348571777344,7.72601318359375 L 18.394126892089844,8.186416625976562 L 18.135353088378906,8.658004760742188 L 17.896690368652344,9.139175415039062 L 17.721763610839844,9.637924194335938 L 17.60552215576172,10.137908935546875 L 17.524497985839844,10.637893676757812 L 17.51390838623047,11.13787841796875 L 17.57317352294922,11.637863159179688 L 17.697837829589844,12.137847900390625 L 17.839271545410156,12.637832641601562 L 17.98908233642578,13.1378173828125 L 18.17578887939453,13.636566162109375 L 18.43964385986328,14.120925903320312" fill="none" stroke="#000000" stroke-width="1"/>
	<path d="M 13.671165466308594,13.6156005859375 L 13.671165466308594,13.6156005859375 L 13.595176696777344,13.147201538085938 L 13.421928405761719,12.647201538085938 L 13.248680114746094,12.147201538085938 L 13.217979431152344,11.647201538085938 L 13.193977355957031,11.147201538085938 L 13.169975280761719,10.647201538085938 L 13.139274597167969,10.147201538085938 L 13.105201721191406,9.647201538085938 L 13.071128845214844,9.147201538085938 L 13.037055969238281,8.647201538085938 L 13.037620544433594,8.147201538085938 L 13.066688537597656,7.6472015380859375 L 13.062812805175781,7.1472015380859375 L 12.562828063964844,7.1419830322265625 M 12.797706604003906,6.9231719970703125 L 12.797706604003906,6.9231719970703125 L 12.470176696777344,7.191925048828125 L 12.021903991699219,7.4798431396484375 L 11.553504943847656,7.73101806640625 M 12.733589172363281,6.9610595703125 L 12.733589172363281,6.9610595703125 L 12.233604431152344,7.0301666259765625 L 11.733619689941406,7.251007080078125 L 11.241752624511719,7.489410400390625 L 10.754905700683594,7.735809326171875 L 10.303276062011719,8.052474975585938 L 9.937171936035156,8.476150512695312 L 9.693489074707031,8.95892333984375 L 9.516883850097656,9.457672119140625 L 9.477775573730469,9.957656860351562 L 9.532005310058594,10.4576416015625 L 9.668403625488281,10.957626342773438 L 9.892005920410156,11.446792602539062 L 10.159202575683594,11.910400390625 L 10.431434631347656,12.367630004882812 L 10.769065856933594,12.770538330078125 L 11.180488586425781,13.093597412109375 L 11.612037658691406,13.384719848632812 L 12.067054748535156,13.627914428710938 L 12.533805847167969,13.82318115234375 L 13.015663146972656,13.954574584960938 L 13.500877380371094,14.081161499023438 L 13.986091613769531,14.207748413085938 M 12.586006164550781,13.661788940429688 L 12.586006164550781,13.661788940429688 L 12.260154724121094,13.244491577148438 L 11.934303283691406,12.827194213867188 L 11.608451843261719,12.409896850585938 L 11.351356506347656,11.951080322265625 L 11.168052673339844,11.4619140625 L 11.060203552246094,10.9619140625 L 10.985877990722656,10.4619140625 L 10.993156433105469,9.9619140625 L 11.097694396972656,9.4619140625 L 11.291114807128906,8.966354370117188 L 11.565025329589844,8.525100708007812 L 11.847328186035156,8.090240478515625 L 12.144721984863281,7.6713409423828125 L 12.534339904785156,7.3291015625 L 12.947441101074219,7.0268096923828125 M 13.031867980957031,7.178955078125 L 13.031867980957031,7.178955078125 L 13.134727478027344,7.6789398193359375 L 13.237586975097656,8.178924560546875 L 13.138130187988281,8.678909301757812 M 12.461906433105469,8.646087646484375 L 12.461906433105469,8.646087646484375 L 11.961921691894531,8.678451538085938 L 11.461936950683594,8.72998046875 M 12.819221496582031,9.75225830078125 L 12.819221496582031,9.75225830078125 L 12.319236755371094,9.83892822265625 L 11.819252014160156,9.923995971679688 L 11.319267272949219,10.007461547851562 L 10.819282531738281,10.090927124023438 M 12.899345397949219,11.193923950195312 L 12.899345397949219,11.193923950195312 L 12.553352355957031,11.247055053710938 L 12.053367614746094,11.386428833007812 L 11.553382873535156,11.525802612304688 L 11.053398132324219,11.665176391601562 M 13.175437927246094,12.796051025390625 L 13.175437927246094,12.796051025390625 L 12.680213928222656,12.975357055664062 L 12.180229187011719,13.1546630859375 L 11.680244445800781,13.333969116210938 M 11.496421813964844,12.528106689453125 L 11.496421813964844,12.528106689453125 L 11.039772033691406,12.803237915039062 L 10.539787292480469,12.869140625 M 10.787483215332031,11.70745849609375 L 10.787483215332031,11.70745849609375 L 10.287498474121094,11.837249755859375 M 10.586341857910156,10.122894287109375 L 10.586341857910156,10.122894287109375 L 10.086357116699219,10.209564208984375 L 9.586372375488281,10.296234130859375 M 10.930274963378906,8.579849243164062 L 10.930274963378906,8.579849243164062 L 10.430290222167969,8.561843872070312 L 9.930305480957031,8.543838500976562" fill="none" stroke="#000000" stroke-width="1"/>
</svg>
