<?xml version="1.0" ?>
<svg baseProfile="full" height="195mm" version="1.1" viewBox="0 0 27.5 19.5" width="275mm" xmlns="http://www.w3.org/2000/svg" xmlns:ev="http://www.w3.org/2001/xml-events" xmlns:xlink="http://www.w3.org/1999/xlink">
	<defs/>
	<path d="M 15.539100646972656,10.005416870117188 L 15.539100646972656,10.005416870117188 L 15.541358947753906,9.805328369140625 L 15.577140808105469,9.330520629882812 L 15.077156066894531,9.20391845703125 L 14.577171325683594,9.328933715820312 L 14.326774597167969,9.774978637695312 M 14.761146545410156,10.036590576171875 L 14.761146545410156,10.036590576171875 L 14.842216491699219,10.425125122070312 L 14.405677795410156,10.657135009765625 L 14.051307678222656,11.09039306640625 L 13.883079528808594,11.590377807617188 L 13.979240417480469,12.090362548828125 L 14.204521179199219,12.585906982421875 L 14.678001403808594,12.766815185546875 L 15.178001403808594,12.766815185546875 L 15.175788879394531,12.5731201171875 L 15.251808166503906,12.443313598632812 L 15.423423767089844,12.236846923828125 L 15.719139099121094,11.977676391601562 L 15.795158386230469,11.477676391601562 L 16.14118194580078,11.448501586914062 L 16.633094787597656,11.345855712890625 L 17.12500762939453,11.219253540039062 L 17.616920471191406,11.091049194335938" fill="none" stroke="#000000" stroke-width="1"/>
	<path d="M 19.863136291503906,9.744125366210938 L 19.863136291503906,9.744125366210938 M 20.742469787597656,10.349853515625 L 20.742469787597656,10.349853515625 L 20.616172790527344,10.849838256835938 L 20.45465850830078,11.349822998046875 L 20.160667419433594,11.799041748046875 L 19.66712188720703,11.965576171875 L 19.167137145996094,11.78466796875 L 18.73729705810547,11.466400146484375 L 18.367835998535156,11.066665649414062 L 18.15937042236328,10.5806884765625 L 18.116920471191406,10.0806884765625 L 18.32209014892578,9.599502563476562 L 18.76203155517578,9.325942993164062 L 19.23719024658203,9.138641357421875 L 19.73719024658203,9.051956176757812 L 20.23719024658203,9.12744140625 L 20.717369079589844,9.388198852539062 L 21.115379333496094,9.7767333984375 L 21.426185607910156,10.2227783203125 L 21.534080505371094,10.722763061523438 M 21.364891052246094,14.22265625 L 21.364891052246094,14.22265625 L 21.663963317871094,14.671875 L 21.99321746826172,15.116317749023438 L 22.456626892089844,15.378677368164062 L 22.94519805908203,15.561172485351562 L 23.44519805908203,15.585556030273438 L 23.90357208251953,15.321578979492188 L 24.19928741455078,14.88671875 L 24.429588317871094,14.408737182617188 L 24.633079528808594,13.922760009765625 L 24.67388153076172,13.422760009765625 L 24.378211975097656,12.96234130859375 L 24.01714324951172,12.546646118164062 L 23.65607452392578,12.130950927734375 L 23.21283721923828,11.83026123046875 L 22.712852478027344,11.892974853515625 L 22.212867736816406,12.04034423828125 L 21.71288299560547,12.265975952148438 L 21.303184509277344,12.646530151367188 L 21.121559143066406,13.145278930664062 L 20.960044860839844,13.645263671875 M 24.64185333251953,10.30181884765625 L 24.64185333251953,10.30181884765625 L 24.461891174316406,9.80181884765625 L 24.270179748535156,9.30181884765625 L 24.13884735107422,8.80181884765625 L 24.05950164794922,8.30181884765625 L 23.629661560058594,7.9995269775390625 L 23.129676818847656,8.081405639648438 L 22.689781188964844,8.414047241210938 L 22.529945373535156,8.914031982421875 L 22.761924743652344,9.409576416015625 L 23.128074645996094,9.810897827148438" fill="none" stroke="#000000" stroke-width="1"/>
	<path d="M 12.319114685058594,8.093719482421875 L 12.319114685058594,8.093719482421875 L 12.614830017089844,8.218734741210938 L 12.930671691894531,8.366104125976562 L 13.038566589355469,8.805755615234375 L 12.922325134277344,9.305740356445312 L 12.804405212402344,9.80572509765625 L 12.664695739746094,10.305709838867188 L 12.647407531738281,10.805694580078125 L 12.803932189941406,11.305679321289062 L 12.967170715332031,11.8056640625 L 13.101890563964844,12.305648803710938 L 13.250022888183594,12.805633544921875 L 13.383079528808594,13.305618286132812 L 13.218208312988281,13.80560302734375 L 12.920860290527344,14.25482177734375 L 12.635246276855469,13.910980224609375 L 12.425102233886719,13.42340087890625 L 12.230049133300781,12.9310302734375 L 12.034996032714844,12.43865966796875 L 11.950614929199219,11.93865966796875 L 12.008201599121094,11.43865966796875 L 12.099327087402344,10.93865966796875 L 12.195487976074219,10.43865966796875" fill="none" stroke="#000000" stroke-width="1"/>
</svg>
