<?xml version="1.0" ?>
<svg baseProfile="full" height="195mm" version="1.1" viewBox="0 0 27.5 19.5" width="275mm" xmlns="http://www.w3.org/2000/svg" xmlns:ev="http://www.w3.org/2001/xml-events" xmlns:xlink="http://www.w3.org/1999/xlink">
	<defs/>
	<path d="M 15.539100646972656,10.005416870117188 L 15.539100646972656,10.005416870117188 L 15.541358947753906,9.805328369140625 L 15.577140808105469,9.330520629882812 L 15.077156066894531,9.20391845703125 L 14.577171325683594,9.328933715820312 L 14.326774597167969,9.774978637695312 M 14.761146545410156,10.036590576171875 L 14.761146545410156,10.036590576171875 L 14.842216491699219,10.425125122070312 L 14.405677795410156,10.657135009765625 L 14.051307678222656,11.09039306640625 L 13.883079528808594,11.590377807617188 L 13.979240417480469,12.090362548828125 L 14.204521179199219,12.585906982421875 L 14.678001403808594,12.766815185546875 L 15.178001403808594,12.766815185546875 L 15.175788879394531,12.5731201171875 L 15.251808166503906,12.443313598632812 L 15.423423767089844,12.236846923828125 L 15.719139099121094,11.977676391601562 L 15.795158386230469,11.477676391601562 L 16.14118194580078,11.448501586914062 L 16.633094787597656,11.345855712890625 L 17.12500762939453,11.219253540039062 L 17.616920471191406,11.091049194335938" fill="none" stroke="#000000" stroke-width="1"/>
	<path d="M 18.926780700683594,7.3739013671875 L 18.926780700683594,7.3739013671875 L 18.629432678222656,7.41107177734375 L 18.186195373535156,7.6558685302734375 L 18.116920471191406,8.155853271484375 L 18.204689025878906,8.655838012695312 L 18.42829132080078,9.151382446289062 L 18.76592254638672,9.554290771484375 L 19.26592254638672,9.63616943359375 L 19.76592254638672,9.649368286132812 L 19.66478729248047,9.775955200195312 L 19.55693817138672,9.923324584960938 L 19.668174743652344,9.815872192382812 L 19.967247009277344,9.511978149414062 L 19.99799346923828,9.011978149414062 L 19.99578094482422,8.511978149414062 L 19.978492736816406,8.011978149414062 L 19.82703399658203,7.5119781494140625 L 19.55651092529297,7.0467529296875 L 19.20885467529297,6.635833740234375 M 18.347129821777344,8.597793579101562 L 18.347129821777344,8.597793579101562 L 18.267784118652344,9.064590454101562 L 18.52660369873047,9.5489501953125 L 19.00176239013672,9.72186279296875 L 19.493675231933594,9.595260620117188 L 19.79608917236328,9.193939208984375 L 19.952613830566406,8.711151123046875 L 19.831336975097656,8.211151123046875 L 19.33135223388672,8.233932495117188 L 19.03736114501953,8.683151245117188 L 19.23078155517578,9.183135986328125 L 19.697532653808594,9.381607055664062 L 20.164283752441406,9.580078125 M 19.61327362060547,11.772384643554688 L 19.61327362060547,11.772384643554688 L 19.243812561035156,11.793563842773438 L 18.81397247314453,12.126205444335938 L 18.474708557128906,12.56744384765625 L 18.27965545654297,13.059799194335938 L 18.333885192871094,13.559783935546875 L 18.56922149658203,14.045745849609375 L 18.997413635253906,14.343246459960938 L 19.45746612548828,14.578460693359375 L 19.95441436767578,14.400741577148438 L 19.93376922607422,14.578445434570312 L 19.846046447753906,14.989349365234375 L 19.896934509277344,14.816421508789062 L 20.073585510253906,14.316421508789062 L 20.11608123779297,13.816421508789062 L 20.009910583496094,13.316421508789062 L 20.14128875732422,12.816421508789062 L 20.28272247314453,12.316421508789062 L 20.283287048339844,11.816421508789062 L 20.02619171142578,11.33843994140625 L 19.725502014160156,11.323638916015625 M 18.72338104248047,13.41461181640625 L 18.72338104248047,13.41461181640625 L 18.72563934326172,13.736068725585938 L 19.06159210205078,14.17572021484375 L 19.56159210205078,14.201705932617188 L 19.830467224121094,13.750869750976562 L 19.575050354003906,13.280868530273438 L 19.31963348388672,13.37872314453125 L 18.839500427246094,13.649063110351562 L 18.95073699951172,14.1490478515625" fill="none" stroke="#000000" stroke-width="1"/>
	<path d="M 12.319114685058594,8.093719482421875 L 12.319114685058594,8.093719482421875 L 12.614830017089844,8.218734741210938 L 12.930671691894531,8.366104125976562 L 13.038566589355469,8.805755615234375 L 12.922325134277344,9.305740356445312 L 12.804405212402344,9.80572509765625 L 12.664695739746094,10.305709838867188 L 12.647407531738281,10.805694580078125 L 12.803932189941406,11.305679321289062 L 12.967170715332031,11.8056640625 L 13.101890563964844,12.305648803710938 L 13.250022888183594,12.805633544921875 L 13.383079528808594,13.305618286132812 L 13.218208312988281,13.80560302734375 L 12.920860290527344,14.25482177734375 L 12.635246276855469,13.910980224609375 L 12.425102233886719,13.42340087890625 L 12.230049133300781,12.9310302734375 L 12.034996032714844,12.43865966796875 L 11.950614929199219,11.93865966796875 L 12.008201599121094,11.43865966796875 L 12.099327087402344,10.93865966796875 L 12.195487976074219,10.43865966796875" fill="none" stroke="#000000" stroke-width="1"/>
</svg>
