<?xml version="1.0" ?>
<svg baseProfile="full" height="195mm" version="1.1" viewBox="0 0 27.5 19.5" width="275mm" xmlns="http://www.w3.org/2000/svg" xmlns:ev="http://www.w3.org/2001/xml-events" xmlns:xlink="http://www.w3.org/1999/xlink">
	<defs/>
	<path d="M 14.989875793457031,9.662933349609375 L 14.989875793457031,9.662933349609375 L 14.990440368652344,9.46923828125 L 15.093299865722656,9.20367431640625 L 15.432609558105469,9.2999267578125 L 15.490196228027344,9.440902709960938 L 15.549461364746094,9.648956298828125 L 15.593635559082031,10.021514892578125 L 15.365028381347656,10.272689819335938 L 15.069358825683594,10.586166381835938 L 14.894432067871094,10.885269165039062 L 14.846946716308594,11.219512939453125 M 14.775489807128906,11.597671508789062 L 14.775489807128906,11.597671508789062 L 14.886726379394531,11.82330322265625 L 15.184120178222656,11.924346923828125 L 15.513374328613281,11.943939208984375 L 15.815788269042969,12.1871337890625 L 15.861640930175781,12.685882568359375 L 15.550865173339844,13.112747192382812 L 15.310523986816406,12.83599853515625 L 15.252983093261719,12.528900146484375 M 14.967414855957031,12.951812744140625 L 14.967414855957031,12.951812744140625 L 15.142387390136719,13.1854248046875 L 15.423011779785156,13.249725341796875 L 15.710350036621094,13.183807373046875 L 15.999351501464844,13.09552001953125 L 16.19109344482422,12.775650024414062 L 16.260414123535156,12.419052124023438 L 16.08045196533203,11.934677124023438 M 16.226905822753906,11.852798461914062 L 16.226905822753906,11.852798461914062 L 16.48572540283203,11.673492431640625 L 16.729454040527344,11.195510864257812 L 16.505897521972656,10.703140258789062 L 16.062660217285156,10.412017822265625 M 15.496055603027344,9.042236328125 L 15.496055603027344,9.042236328125 L 15.197029113769531,9.040191650390625 L 14.770545959472656,9.096511840820312 L 14.918678283691406,9.438735961914062" fill="none" stroke="#000000" stroke-width="1"/>
	<path d="M 19.32654571533203,14.240798950195312 L 19.32654571533203,14.240798950195312 L 19.436119079589844,14.396148681640625 L 19.545692443847656,14.551498413085938 L 19.65526580810547,14.7164306640625 L 19.759803771972656,14.890945434570312 L 19.850929260253906,15.07025146484375 L 19.88335418701172,15.254348754882812 L 19.827491760253906,15.438446044921875 L 19.74311065673828,15.619354248046875 L 19.658729553222656,15.800262451171875 L 19.571006774902344,15.984359741210938 L 19.48328399658203,16.16845703125 L 19.393882751464844,16.363723754882812 L 19.30280303955078,16.565399169921875 L 19.210044860839844,16.763870239257812 L 19.018333435058594,16.960739135742188 L 18.762916564941406,17.08575439453125 L 18.499107360839844,16.999069213867188 L 18.257102966308594,16.8133544921875 L 18.02515411376953,16.613265991210938 L 17.887123107910156,16.338119506835938 L 17.79436492919922,16.048599243164062 L 17.709983825683594,15.751083374023438 L 17.67591094970703,15.443984985351562 L 17.72344207763672,15.136886596679688 L 17.81456756591797,14.829788208007812 L 17.925804138183594,14.527496337890625 L 18.10749053955078,14.27630615234375 L 18.295875549316406,14.119354248046875 L 18.48426055908203,13.967193603515625 L 18.676002502441406,13.827804565429688 L 18.87108612060547,13.699600219726562 L 19.06616973876953,13.636871337890625 L 19.242820739746094,13.721939086914062 L 19.37921905517578,13.87249755859375 L 19.503883361816406,14.03582763671875 L 19.611778259277344,14.211944580078125 M 19.486671447753906,14.667984008789062 L 19.486671447753906,14.667984008789062 L 19.398948669433594,14.520614624023438 L 19.306190490722656,14.373245239257812 L 19.21343231201172,14.225875854492188 L 19.09215545654297,14.0960693359375 L 18.940696716308594,14.009384155273438 L 18.78253936767578,13.957839965820312 L 18.61766815185547,13.963043212890625 L 18.447776794433594,14.062484741210938 L 18.276206970214844,14.221038818359375 M 19.434532165527344,16.052474975585938 L 19.434532165527344,16.052474975585938 L 19.32500457763672,16.25732421875 L 19.215476989746094,16.462173461914062 L 19.079124450683594,16.65106201171875 L 18.887413024902344,16.726547241210938 L 18.673912048339844,16.72857666015625 L 18.460411071777344,16.707382202148438 L 18.236854553222656,16.587158203125 L 18.019996643066406,16.462158203125 L 17.806495666503906,16.34033203125 M 18.735694885253906,15.510223388671875 L 18.735694885253906,15.510223388671875 L 18.92743682861328,15.463485717773438 L 19.077247619628906,15.33367919921875 L 18.99622344970703,15.207077026367188 L 18.886695861816406,15.080474853515625 L 18.733558654785156,15.108047485351562 L 18.81798553466797,15.236236572265625 L 18.910789489746094,15.362823486328125 L 19.005271911621094,15.54052734375 L 18.852134704589844,15.568099975585938 L 18.67217254638672,15.57012939453125 L 18.49054718017578,15.425949096679688 L 18.54645538330078,15.211502075195312 L 18.73316192626953,14.9986572265625 L 18.879615783691406,15.083724975585938 L 18.90198516845703,15.253448486328125 L 18.77568817138672,15.423171997070312 L 18.595726013183594,15.570541381835938 L 18.583457946777344,15.396011352539062 L 18.607505798339844,15.179962158203125 L 18.681861877441406,15.352874755859375 L 18.776344299316406,15.521011352539062 M 19.478126525878906,13.615982055664062 L 19.478126525878906,13.615982055664062 L 19.674888610839844,13.721817016601562 L 19.896812438964844,13.829254150390625 L 20.115379333496094,13.954269409179688 L 20.310462951660156,14.13836669921875 L 20.47034454345703,14.362396240234375 L 20.598365783691406,14.594406127929688 L 20.70793914794922,14.828018188476562 L 20.755470275878906,15.07281494140625 L 20.757728576660156,15.32080078125 L 20.691810607910156,15.615097045898438 L 20.58228302001953,15.9317626953125 L 20.288291931152344,16.250015258789062 L 20.02281951904297,16.6209716796875 L 19.76740264892578,16.9903564453125 M 19.861061096191406,15.969879150390625 L 19.861061096191406,15.969879150390625 L 20.121559143066406,16.058151245117188 M 19.999794006347656,15.494216918945312 L 19.999794006347656,15.494216918945312 L 20.18817901611328,15.44427490234375 L 20.38159942626953,15.392730712890625 M 19.821617126464844,14.786819458007812 L 19.821617126464844,14.786819458007812 L 20.011680603027344,14.605911254882812 L 20.20006561279297,14.4329833984375 M 19.61663055419922,14.247238159179688 L 19.61663055419922,14.247238159179688 L 19.76811981201172,14.16375732421875 M 19.319007873535156,10.82086181640625 L 19.319007873535156,10.82086181640625 L 19.41181182861328,10.651138305664062 L 19.50965118408203,10.481414794921875 L 19.605812072753906,10.310089111328125 L 19.70197296142578,10.138763427734375 L 19.79645538330078,9.967437744140625 L 19.87920379638672,9.7833251953125 L 19.91834259033203,9.570480346679688 L 19.872535705566406,9.33685302734375 L 19.76972198486328,9.103225708007812 L 19.666908264160156,8.869598388671875 L 19.56073760986328,8.635971069335938 L 19.454566955566406,8.40234375 L 19.34168243408203,8.170318603515625 L 19.20867156982422,7.9366912841796875 L 19.025367736816406,7.7509765625 L 18.783363342285156,7.6978302001953125 L 18.496070861816406,7.822845458984375 L 18.17021942138672,8.05645751953125 L 17.874549865722656,8.339569091796875 L 17.59899139404297,8.656234741210938 L 17.341896057128906,8.977691650390625 L 17.26087188720703,9.415740966796875 L 17.30504608154297,9.855392456054688 L 17.359275817871094,10.2950439453125 L 17.50572967529297,10.69476318359375 L 17.72095489501953,11.025802612304688 L 17.996559143066406,11.26739501953125 L 18.29059600830078,11.488235473632812 L 18.629905700683594,11.49664306640625 L 18.944053649902344,11.309341430664062 L 19.18610382080078,11.002243041992188 M 19.186134338378906,10.788192749023438 L 19.186134338378906,10.788192749023438 L 18.975990295410156,10.87646484375 L 18.76081085205078,10.963134765625 L 18.540611267089844,11.027435302734375 L 18.320411682128906,11.055007934570312 L 18.09685516357422,11.016250610351562 L 17.87329864501953,10.8896484375 L 17.653099060058594,10.755050659179688 L 17.432899475097656,10.620452880859375 L 17.229454040527344,10.484268188476562 M 18.17591094970703,8.180145263671875 L 18.17591094970703,8.180145263671875 L 18.41796112060547,7.99603271484375 L 18.711997985839844,7.858245849609375 L 19.00267791748047,7.849822998046875 L 19.290016174316406,7.8758087158203125 L 19.550514221191406,7.988037109375 L 19.64667510986328,8.1146240234375 M 18.42664337158203,9.789810180664062 L 18.42664337158203,9.789810180664062 L 18.526145935058594,9.94036865234375 L 18.70111846923828,10.043014526367188 L 18.67711639404297,9.86688232421875 L 18.63800811767578,9.66839599609375 L 18.598899841308594,9.455551147460938 L 18.589988708496094,9.622085571289062 L 18.632484436035156,9.871658325195312 L 18.549781799316406,9.74505615234375 L 18.467079162597656,9.618453979492188 L 18.327369689941406,9.547744750976562 L 18.15747833251953,9.477035522460938 L 17.987586975097656,9.603622436523438 L 17.92334747314453,9.782928466796875 L 17.964149475097656,9.963836669921875 L 18.008323669433594,9.819656372070312 L 18.047462463378906,9.646728515625 L 18.08660125732422,9.473800659179688 L 18.17436981201172,9.59881591796875 L 18.267173767089844,9.72222900390625 L 18.44886016845703,9.802520751953125 L 18.71271514892578,9.828506469726562 L 18.638389587402344,9.69232177734375 L 18.48357391357422,9.548141479492188 L 18.29859161376953,9.536529541015625 L 18.135398864746094,9.634384155273438 L 18.07115936279297,9.813690185546875 L 18.11365509033203,9.994598388671875 L 18.337257385253906,10.1243896484375 L 18.54242706298828,9.946670532226562 L 18.54468536376953,9.695480346679688 L 18.43347930908203,9.429916381835938 L 18.48101043701172,9.578872680664062 M 19.815956115722656,11.431350708007812 L 19.815956115722656,11.431350708007812 L 19.85845184326172,11.285568237304688 L 19.902626037597656,11.134994506835938 L 19.961891174316406,10.926925659179688 L 20.02283477783203,10.717254638671875 L 20.10053253173828,10.507583618164062 L 20.19501495361328,10.29791259765625 L 20.348182678222656,10.121780395507812 L 20.49799346923828,9.945648193359375 L 20.647804260253906,9.769515991210938 L 20.79425811767578,9.58221435546875 L 20.908851623535156,9.361358642578125 L 20.95470428466797,9.097381591796875 L 20.890464782714844,8.774322509765625 L 20.718894958496094,8.462448120117188 L 20.463478088378906,8.248001098632812 M 19.65772247314453,10.462295532226562 L 19.65772247314453,10.462295532226562 L 19.869590759277344,10.540985107421875 L 20.08313751220703,10.62127685546875 M 19.77471160888672,9.924789428710938 L 19.77471160888672,9.924789428710938 L 19.979881286621094,9.941177368164062 L 20.19007110595703,9.963958740234375 M 20.14043426513672,9.264266967773438 L 20.14043426513672,9.264266967773438 L 20.283546447753906,9.182388305664062 L 20.438392639160156,9.098907470703125 L 20.58820343017578,9.015426635742188 M 19.77336883544922,8.743316650390625 L 19.77336883544922,8.743316650390625 L 20.000328063964844,8.613510131835938" fill="none" stroke="#000000" stroke-width="1"/>
	<path d="M 11.425605773925781,6.0695648193359375 L 11.425605773925781,6.0695648193359375 L 11.662635803222656,6.5587310791015625 L 11.996925354003906,7.0015716552734375 L 12.374809265136719,7.378936767578125 L 12.754371643066406,7.7563018798828125 L 13.133934020996094,8.1336669921875 L 13.513496398925781,8.511032104492188 L 13.720329284667969,8.993804931640625 L 13.754432678222656,9.4925537109375 L 13.781837463378906,9.989700317382812 L 13.807563781738281,10.488449096679688 L 13.833290100097656,10.987197875976562 L 13.727119445800781,11.485946655273438 L 13.547157287597656,11.968719482421875 L 13.414146423339844,12.46746826171875 L 13.501914978027344,12.966217041015625 L 13.681922912597656,13.45538330078125 L 13.947441101074219,13.90142822265625 L 14.212959289550781,14.34747314453125 L 14.270545959472656,14.847457885742188 L 14.209648132324219,15.347442626953125 L 14.074974060058594,15.84619140625 L 13.888313293457031,16.335357666015625 L 13.559104919433594,16.771804809570312 L 13.198036193847656,17.171524047851562 L 12.836967468261719,17.571243286132812 L 12.475898742675781,17.970962524414062 L 12.111473083496094,18.370681762695312 L 11.747047424316406,18.770401000976562 L 11.384300231933594,19.170120239257812 M 11.146354675292969,18.896575927734375 L 11.146354675292969,18.896575927734375 L 11.016700744628906,18.396575927734375 L 10.885368347167969,17.8994140625 L 10.755714416503906,17.403854370117188 L 10.619361877441406,16.914688110351562 L 10.437736511230469,16.449462890625 L 10.200752258300781,16.011398315429688 L 9.945335388183594,15.582916259765625 L 9.688240051269531,15.15924072265625 L 9.429466247558594,14.73236083984375 L 9.189125061035156,14.271942138671875 L 8.953819274902344,13.805145263671875 L 8.845970153808594,13.319168090820312 L 8.815269470214844,12.83319091796875 L 8.815269470214844,12.345611572265625 L 8.815834045410156,11.859634399414062 L 8.816398620605469,11.3736572265625 L 8.855537414550781,10.886077880859375 L 8.928215026855469,10.400100708007812 L 9.017662048339844,9.91412353515625 L 9.127235412597656,9.428146362304688 L 9.270347595214844,8.943771362304688 L 9.458732604980469,8.467376708984375 L 9.652153015136719,7.994171142578125 L 9.847236633300781,7.524169921875 L 10.043998718261719,7.0557708740234375 L 10.240760803222656,6.587371826171875 L 10.437522888183594,6.1189727783203125 L 10.637657165527344,5.6521759033203125 L 10.891441345214844,5.2125091552734375 L 11.188835144042969,4.7952117919921875 L 11.573417663574219,4.48333740234375 M 11.403038024902344,5.71966552734375 L 11.403038024902344,5.71966552734375 L 11.335441589355469,5.21966552734375 L 11.301368713378906,4.71966552734375 L 11.301368713378906,4.21966552734375 M 11.073448181152344,4.8433990478515625 L 11.073448181152344,4.8433990478515625 L 11.024284362792969,5.236724853515625 L 10.993583679199219,5.7367095947265625 L 11.250724792480469,6.1987152099609375 L 11.506187438964844,6.6607208251953125 L 11.602348327636719,7.16070556640625 L 11.519645690917969,7.6606903076171875 L 11.436943054199219,8.160675048828125 L 11.324058532714844,8.660659790039062 L 11.206138610839844,9.16064453125 L 11.088218688964844,9.660629272460938 L 10.971977233886719,10.160614013671875 L 10.855735778808594,10.660598754882812 L 10.739494323730469,11.16058349609375 L 10.708793640136719,11.660568237304688 L 10.732841491699219,12.160552978515625 L 10.771980285644531,12.660537719726562 L 10.837944030761719,13.1605224609375 L 11.019630432128906,13.644882202148438 L 11.201316833496094,14.129241943359375 L 11.383003234863281,14.613601684570312 L 11.557975769042969,15.099563598632812 L 11.704429626464844,15.585525512695312 L 11.795555114746094,16.081069946289062 L 11.824623107910156,16.578216552734375 L 11.770439147949219,17.078201293945312 L 11.706199645996094,17.57818603515625 L 11.620140075683594,18.078170776367188 L 11.534080505371094,18.578155517578125 L 11.424552917480469,19.078140258789062 L 11.135597229003906,19.5" fill="none" stroke="#000000" stroke-width="1"/>
</svg>
