<?xml version="1.0" ?>
<svg baseProfile="full" height="195mm" version="1.1" viewBox="0 0 27.5 19.5" width="275mm" xmlns="http://www.w3.org/2000/svg" xmlns:ev="http://www.w3.org/2001/xml-events" xmlns:xlink="http://www.w3.org/1999/xlink">
	<defs/>
	<path d="M 16.980026245117188,9.31005859375 L 16.980026245117188,9.31005859375 L 16.637405395507812,9.36798095703125 L 16.20086669921875,9.18707275390625 L 15.700881958007812,8.986984252929688 L 15.353225708007812,8.574478149414062 L 15.005569458007812,8.36163330078125 L 14.761886596679688,8.844406127929688 L 15.1783447265625,9.175445556640625 M 15.025787353515625,9.089187622070312 L 15.025787353515625,9.089187622070312 L 14.617767333984375,9.434600830078125 L 14.519973754882812,9.934585571289062 L 14.939773559570312,10.303970336914062 L 15.399826049804688,10.535980224609375 M 15.194168090820312,10.697265625 L 15.194168090820312,10.697265625 L 15.022598266601562,11.194412231445312 L 15.482650756835938,11.428024291992188 L 15.691162109375,10.948440551757812 L 15.74371337890625,10.448440551757812 M 15.777435302734375,9.33380126953125 L 15.777435302734375,9.33380126953125 L 15.96917724609375,9.517898559570312 L 16.001602172851562,10.01788330078125 L 15.648910522460938,10.452743530273438" fill="none" stroke="#000000" stroke-width="1"/>
	<path d="M 18.179672241210938,4.168426513671875 L 18.179672241210938,4.168426513671875 L 18.48040771484375,4.235931396484375 L 18.745925903320312,4.2619171142578125 M 18.529693603515625,3.7902984619140625 L 18.529693603515625,3.7902984619140625 L 18.376556396484375,4.1804351806640625 M 18.398391723632812,4.1667938232421875 L 18.398391723632812,4.1667938232421875 L 17.960174560546875,4.0353851318359375 L 18.338058471679688,4.3184967041015625 L 18.69415283203125,3.923553466796875 L 18.194168090820312,4.050140380859375 L 18.323867797851562,4.5501251220703125 L 18.6044921875,4.097686767578125 L 18.206527709960938,4.4846343994140625 M 18.150665283203125,4.3005218505859375 L 18.150665283203125,4.3005218505859375 L 18.004257202148438,3.804962158203125 L 17.522445678710938,4.054534912109375 M 17.546493530273438,4.5545196533203125 L 17.546493530273438,4.5545196533203125 L 17.919342041015625,4.9334869384765625 L 17.961837768554688,4.4334869384765625 L 17.480026245117188,4.6894683837890625 M 21.007431030273438,6.4447784423828125 L 21.007431030273438,6.4447784423828125 L 20.70001220703125,6.4452056884765625 L 20.31378173828125,6.7219390869140625 L 20.1036376953125,7.21429443359375 L 20.370834350585938,7.67950439453125 L 20.718536376953125,8.077621459960938 L 21.1785888671875,8.306442260742188 M 21.278091430664062,8.175033569335938 L 21.278091430664062,8.175033569335938 L 21.473175048828125,7.9861297607421875 L 21.688400268554688,7.6454925537109375 L 21.79461669921875,7.1454925537109375 L 21.691802978515625,6.6454925537109375 L 21.411224365234375,6.1898651123046875 M 20.727127075195312,6.9425506591796875 L 20.727127075195312,6.9425506591796875 L 20.525360107421875,6.8718414306640625 L 20.28167724609375,7.0591278076171875 L 20.332565307617188,7.5083465576171875 L 20.681930541992188,7.7946624755859375 L 21.140304565429688,7.775054931640625 L 21.34881591796875,7.282684326171875 L 21.024642944335938,6.8637847900390625 M 20.811614990234375,13.669708251953125 L 20.811614990234375,13.669708251953125 L 20.547805786132812,13.804290771484375 L 20.230331420898438,14.095413208007812 L 20.109054565429688,14.59539794921875 L 20.091766357421875,15.095382690429688 L 20.3321533203125,15.584548950195312 L 20.76873779296875,15.81976318359375 L 21.23382568359375,15.99267578125 M 21.397064208984375,15.947509765625 L 21.397064208984375,15.947509765625 L 21.739730834960938,15.814498901367188 L 22.104202270507812,15.432342529296875 L 22.081878662109375,14.932342529296875 L 21.90863037109375,14.432342529296875 L 21.671646118164062,13.947967529296875 L 21.327346801757812,13.564208984375 L 20.827362060546875,13.480728149414062 M 21.294189453125,15.271697998046875 L 21.294189453125,15.271697998046875 L 21.571456909179688,15.232940673828125 L 21.815185546875,14.759735107421875 L 21.63690185546875,14.259735107421875 L 21.138320922851562,14.077224731445312 L 20.638336181640625,14.293258666992188 L 20.290679931640625,14.73291015625 L 20.5662841796875,15.185333251953125 L 21.004547119140625,15.455673217773438 L 21.504547119140625,15.364212036132812 M 21.196060180664062,14.958831787109375 L 21.196060180664062,14.958831787109375 L 20.824920654296875,14.835403442382812 L 20.912689208984375,14.703994750976562 L 21.270462036132812,14.563003540039062 L 21.569534301757812,14.842941284179688 L 21.069549560546875,14.864120483398438" fill="none" stroke="#000000" stroke-width="1"/>
	<path d="M 13.890823364257812,8.213577270507812 L 13.890823364257812,8.213577270507812 L 13.93499755859375,8.71356201171875 L 13.975799560546875,9.213546752929688 L 14.019973754882812,9.713531494140625 L 14.01776123046875,10.213516235351562 L 13.988739013671875,10.7135009765625 L 13.937896728515625,11.213485717773438 L 13.871978759765625,11.713470458984375 L 13.80438232421875,12.213455200195312 L 13.788772583007812,12.71343994140625 L 13.788772583007812,13.213424682617188 L 13.788772583007812,13.713409423828125 L 13.788238525390625,14.213394165039062 M 13.7279052734375,13.616790771484375 L 13.7279052734375,13.616790771484375 L 13.51104736328125,13.376785278320312 L 13.1348876953125,13.088851928710938 L 12.909652709960938,12.604476928710938 L 12.8873291015625,12.104476928710938 L 12.8873291015625,11.604476928710938 L 12.8873291015625,11.104476928710938 L 12.8873291015625,10.604476928710938 L 12.993545532226562,10.104476928710938 L 13.233932495117188,9.618499755859375 L 13.501129150390625,9.151702880859375 L 13.768325805664062,8.684906005859375 M 13.164199829101562,10.205581665039062 L 13.164199829101562,10.205581665039062 L 13.500152587890625,10.424819946289062 L 13.742202758789062,10.9075927734375 L 13.711502075195312,11.407577514648438 L 13.45440673828125,11.887161254882812 L 13.125198364257812,12.326812744140625 L 12.762451171875,12.726531982421875 M 12.297515869140625,12.830734252929688 L 12.297515869140625,12.830734252929688 L 12.26513671875,12.338363647460938 L 12.209274291992188,11.838363647460938 L 12.175201416015625,11.338363647460938 L 12.273040771484375,10.838363647460938 L 12.375900268554688,10.338363647460938 L 12.507278442382812,9.838363647460938" fill="none" stroke="#000000" stroke-width="1"/>
</svg>
