<?xml version="1.0" ?>
<svg baseProfile="full" height="195mm" version="1.1" viewBox="0 0 27.5 19.5" width="275mm" xmlns="http://www.w3.org/2000/svg" xmlns:ev="http://www.w3.org/2001/xml-events" xmlns:xlink="http://www.w3.org/1999/xlink">
	<defs/>
	<path d="M 19.382720947265625,10.69036865234375 L 19.382720947265625,10.69036865234375 L 19.128982543945312,10.746688842773438 L 18.764556884765625,10.820571899414062 L 18.395095825195312,10.904037475585938 L 17.94012451171875,11.073760986328125 L 17.45159912109375,11.29779052734375 L 17.00836181640625,11.619247436523438 L 16.578521728515625,11.950286865234375 L 16.150360107421875,12.282928466796875 L 15.722198486328125,12.615570068359375 L 15.294036865234375,12.948211669921875 L 14.847442626953125,13.261688232421875 L 14.347457885742188,13.389877319335938 L 13.84747314453125,13.48931884765625 L 13.67254638671875,13.439376831054688 L 13.763671875,13.311172485351562 L 13.86151123046875,13.032821655273438 L 13.934188842773438,12.6842041015625 L 13.85986328125,12.311630249023438 L 13.711776733398438,11.931076049804688 L 13.543548583984375,11.540939331054688 L 13.375320434570312,11.144393920898438 L 13.25238037109375,10.666412353515625 L 13.235092163085938,10.166412353515625 L 13.23455810546875,9.666412353515625 L 13.339096069335938,9.166412353515625 L 13.591217041015625,8.993484497070312 L 13.88189697265625,8.953125 L 14.241348266601562,8.959930419921875 L 14.637680053710938,9.057785034179688 L 15.034011840820312,9.283416748046875 L 15.048004150390625,9.609664916992188 L 14.81939697265625,9.9359130859375 M 14.073959350585938,10.916213989257812 L 14.073959350585938,10.916213989257812 L 14.126510620117188,11.122665405273438 L 14.074005126953125,10.980087280273438 L 13.947708129882812,10.668212890625 M 13.91363525390625,10.500076293945312 L 13.91363525390625,10.500076293945312 L 13.799072265625,10.315963745117188 L 13.558731079101562,10.133453369140625 L 13.23455810546875,10.05157470703125 L 12.856719970703125,10.041549682617188 L 12.413482666015625,10.287948608398438 L 12.119491577148438,10.737167358398438 L 12.117279052734375,11.237152099609375 L 12.48175048828125,11.630477905273438 L 12.945159912109375,11.798614501953125 L 13.343170166015625,11.6336669921875 L 13.402435302734375,11.459136962890625" fill="none" stroke="#000000" stroke-width="1"/>
	<path d="M 22.270889282226562,16.465164184570312 L 22.270889282226562,16.465164184570312 L 22.4676513671875,16.281051635742188 L 22.7918701171875,16.096939086914062 L 22.936660766601562,15.984695434570312 L 23.225662231445312,15.870864868164062 L 23.099365234375,15.645233154296875 L 22.968032836914062,15.339736938476562 L 22.786407470703125,14.839736938476562 L 22.880889892578125,14.62689208984375 L 22.94183349609375,14.414047241210938 L 22.999420166015625,14.231536865234375 L 22.908340454101562,14.021865844726562 L 22.678070068359375,13.709991455078125 L 22.375701904296875,13.393310546875 L 22.081710815429688,13.083023071289062 L 21.734054565429688,13.068222045898438 L 21.320999145507812,13.130935668945312 L 20.907943725585938,13.295867919921875 L 20.665939331054688,13.47357177734375 L 20.491012573242188,13.699203491210938 L 20.3948974609375,13.975936889648438 L 20.477645874023438,14.334136962890625 L 20.666030883789062,14.72906494140625 L 20.812484741210938,15.17510986328125 L 20.906967163085938,15.675094604492188 L 20.954498291015625,16.175079345703125 L 21.236801147460938,16.517303466796875 L 21.701889038085938,16.765289306640625 L 22.178726196289062,16.974945068359375 L 22.388916015625,16.870697021484375 L 22.411285400390625,16.66583251953125 L 22.442031860351562,16.24853515625 M 22.22821044921875,11.286270141601562 L 22.22821044921875,11.286270141601562 L 22.381378173828125,10.789108276367188 L 22.52783203125,10.291946411132812 L 22.674285888671875,9.794784545898438 L 22.82073974609375,9.297622680664062 L 22.77996826171875,8.797622680664062 L 22.539627075195312,8.341995239257812 L 22.294265747070312,7.8863677978515625 L 21.968414306640625,7.48504638671875 L 21.598953247070312,7.1172637939453125 L 21.098968505859375,7.0321807861328125 L 20.70770263671875,7.4079437255859375 L 20.32147216796875,7.80126953125 L 20.0023193359375,8.247314453125 L 19.882720947265625,8.747299194335938 L 19.985580444335938,9.247283935546875 L 20.113601684570312,9.747268676757812 L 20.260055541992188,10.24725341796875 L 20.40484619140625,10.747238159179688 L 20.750869750976562,11.1485595703125 L 21.220977783203125,11.318283081054688 L 21.720977783203125,11.478408813476562 L 22.209548950195312,11.710418701171875 M 21.450942993164062,8.773574829101562 L 21.450942993164062,8.773574829101562 L 21.364883422851562,8.485641479492188 L 21.26708984375,8.121047973632812 L 20.897628784179688,8.456878662109375 L 20.553329467773438,8.883743286132812 L 20.3717041015625,9.380889892578125 L 20.544998168945312,9.880874633789062 L 21.044998168945312,9.954757690429688 L 21.536911010742188,10.0909423828125 L 21.948333740234375,10.158447265625 L 22.034439086914062,9.878509521484375 L 21.985275268554688,9.378509521484375 L 21.897552490234375,8.878509521484375 L 21.772933959960938,8.378509521484375 M 21.028488159179688,9.153533935546875 L 21.028488159179688,9.153533935546875 L 21.06427001953125,8.8096923828125 L 21.21240234375,8.775711059570312 L 21.489669799804688,8.838424682617188 L 21.892715454101562,9.08001708984375 L 22.153213500976562,9.564376831054688 L 21.8826904296875,10.013595581054688 L 21.415969848632812,10.231231689453125 L 20.915985107421875,10.087051391601562 L 20.732681274414062,9.594680786132812 L 21.192733764648438,9.33551025390625 M 21.335723876953125,15.331832885742188 L 21.335723876953125,15.331832885742188 L 21.398345947265625,15.147720336914062 L 21.354217529296875,14.850204467773438 L 21.201080322265625,14.900131225585938 L 20.814849853515625,15.03631591796875 L 20.653335571289062,15.536300659179688 L 21.03289794921875,15.662887573242188 L 21.083786010742188,15.4005126953125" fill="none" stroke="#000000" stroke-width="1"/>
	<path d="M 9.341827392578125,13.992721557617188 L 9.341827392578125,13.992721557617188 L 9.1685791015625,13.741531372070312 L 8.889678955078125,13.2667236328125 L 8.649337768554688,12.788742065429688 L 8.474411010742188,12.291580200195312 L 8.44873046875,11.791580200195312 L 8.513015747070312,11.291580200195312 L 8.553817749023438,10.791580200195312 L 8.553817749023438,10.291580200195312 L 8.59295654296875,9.791580200195312 L 8.65557861328125,9.291580200195312 L 8.927810668945312,8.855117797851562 L 9.19500732421875,8.41705322265625 L 9.418609619140625,7.975799560546875 L 9.628799438476562,7.529754638671875 L 9.89935302734375,7.093292236328125 L 10.168228149414062,6.6552276611328125 L 10.520950317382812,6.292236328125 L 10.97430419921875,6.055419921875 L 11.427658081054688,5.8170013427734375 L 11.5372314453125,5.699981689453125 M 11.558013916015625,6.6866912841796875 L 11.558013916015625,6.6866912841796875 L 11.617279052734375,6.1866912841796875 L 11.477569580078125,5.6866912841796875 L 11.193634033203125,5.2310638427734375 L 10.74200439453125,4.962310791015625 L 10.242019653320312,4.8932037353515625 L 10.092254638671875,5.098052978515625" fill="none" stroke="#000000" stroke-width="1"/>
</svg>
