<?xml version="1.0" ?>
<svg baseProfile="full" height="195mm" version="1.1" viewBox="0 0 27.5 19.5" width="275mm" xmlns="http://www.w3.org/2000/svg" xmlns:ev="http://www.w3.org/2001/xml-events" xmlns:xlink="http://www.w3.org/1999/xlink">
	<defs/>
	<path d="M 17.73993682861328,13.489852905273438 L 17.73993682861328,13.489852905273438 L 17.511329650878906,13.517425537109375 L 17.26428985595703,13.554595947265625 L 17.017250061035156,13.614120483398438 L 16.77021026611328,13.67364501953125 L 16.51813507080078,13.801834106445312 L 16.26941680908203,13.979537963867188 L 16.022377014160156,14.158843994140625 L 15.775337219238281,14.3365478515625 L 15.449485778808594,14.420013427734375 L 15.123634338378906,14.50030517578125 L 14.797782897949219,14.580596923828125 L 14.471931457519531,14.646499633789062 M 14.449699401855469,13.98193359375 L 14.449699401855469,13.98193359375 L 14.408927917480469,13.796218872070312 L 14.264183044433594,13.612106323242188 L 14.054039001464844,13.536605834960938 L 13.904273986816406,13.600906372070312 L 14.018867492675781,13.698760986328125 L 14.163658142089844,13.817367553710938 L 14.308448791503906,13.93597412109375 L 14.453239440917969,14.052978515625 M 14.419212341308594,13.79058837890625 L 14.419212341308594,13.79058837890625 L 14.562324523925781,13.864471435546875 L 14.707115173339844,13.936767578125 L 14.569084167480469,13.8516845703125 L 14.379051208496094,13.764999389648438 L 14.163871765136719,13.678314208984375 L 13.947013854980469,13.596435546875 M 13.924797058105469,13.484176635742188 L 13.924797058105469,13.484176635742188 L 13.837074279785156,13.3543701171875 L 13.767799377441406,13.171859741210938 L 13.711936950683594,12.98614501953125 L 13.704704284667969,12.802032470703125 L 13.710304260253906,12.617919921875 L 13.772926330566406,12.433807373046875 L 13.912681579589844,12.275253295898438 L 14.062492370605469,12.147048950195312 L 14.213981628417969,12.02044677734375 L 14.365470886230469,11.893844604492188 M 14.491813659667969,11.807159423828125 L 14.491813659667969,11.807159423828125 L 14.633247375488281,11.706100463867188 L 14.784736633300781,11.491653442382812 L 14.864112854003906,11.245254516601562 L 14.915000915527344,10.994064331054688 L 14.874229431152344,10.792388916015625 L 14.694267272949219,10.837539672851562 L 14.505928039550781,10.984909057617188 L 14.334358215332031,11.167404174804688 L 14.318748474121094,11.353103637695312 L 14.386390686035156,11.490875244140625 L 14.464088439941406,11.628646850585938 L 14.575325012207031,11.769622802734375 M 14.604972839355469,11.307159423828125 L 14.604972839355469,11.307159423828125 L 14.642433166503906,11.115066528320312 L 14.691642761230469,10.844711303710938 M 15.199790954589844,10.81158447265625 L 15.199790954589844,10.81158447265625 L 15.480415344238281,10.813613891601562 L 15.769416809082031,10.845977783203125 L 15.982963562011719,10.991744995117188 L 16.19147491455078,11.18701171875 L 16.399986267089844,11.395065307617188 L 16.608497619628906,11.585556030273438 L 16.81700897216797,11.768051147460938 L 17.043968200683594,11.89306640625 L 17.294410705566406,11.938217163085938 L 17.54485321044922,11.981765747070312 L 17.79529571533203,12.025314331054688" fill="none" stroke="#000000" stroke-width="1"/>
	<path d="M 24.839027404785156,12.3013916015625 L 24.839027404785156,12.3013916015625 L 25.339027404785156,12.328964233398438 L 25.839027404785156,12.552993774414062 L 26.317527770996094,12.802566528320312 L 26.74907684326172,13.136810302734375 L 26.877098083496094,13.636795043945312 L 26.89946746826172,14.13677978515625 L 26.498146057128906,14.466217041015625 L 26.061607360839844,14.76531982421875 L 25.62506866455078,15.064422607421875 L 25.18852996826172,15.363525390625 L 24.68854522705078,15.491714477539062 L 24.188560485839844,15.619903564453125 L 23.688575744628906,15.712966918945312 L 23.18859100341797,15.661422729492188 L 22.68860626220703,15.515640258789062 L 22.188621520996094,15.369857788085938 L 21.688636779785156,15.29595947265625 L 21.18865203857422,15.222061157226562 L 20.68866729736328,15.1529541015625 L 20.190086364746094,15.019943237304688 L 19.69318389892578,14.847015380859375 L 19.23821258544922,14.60540771484375 L 18.88719940185547,14.23443603515625 L 18.742454528808594,13.75164794921875 L 18.736900329589844,13.25164794921875 L 18.811256408691406,12.75164794921875 L 19.15392303466797,12.3551025390625 L 19.526771545410156,11.984130859375 L 19.928138732910156,11.638717651367188 L 20.383155822753906,11.363571166992188 L 20.883155822753906,11.493362426757812 L 21.383155822753906,11.5496826171875 L 21.85663604736328,11.324050903320312 L 22.35663604736328,11.343643188476562 L 22.85663604736328,11.49420166015625 L 23.313331604003906,11.8172607421875 L 23.795188903808594,12.06524658203125 L 24.295188903808594,12.06524658203125 L 24.795188903808594,11.98016357421875 M 19.07886505126953,10.746231079101562 L 19.07886505126953,10.746231079101562 L 19.347740173339844,11.20025634765625 L 19.847740173339844,11.377960205078125 L 20.347740173339844,11.39434814453125 M 25.473915100097656,12.220947265625 L 25.473915100097656,12.220947265625 L 25.840065002441406,11.848373413085938 L 26.27161407470703,11.5380859375 L 26.74341583251953,11.27410888671875 L 26.570167541503906,10.797714233398438 L 26.33989715576172,10.351669311523438 L 26.107948303222656,9.9072265625 L 25.875999450683594,9.464370727539062 L 25.429405212402344,9.249923706054688 L 24.95764923095703,9.037078857421875 L 24.48925018310547,8.806655883789062 L 24.02587127685547,8.57623291015625 L 23.52588653564453,8.486343383789062 L 23.025901794433594,8.486770629882812 L 22.525917053222656,8.487197875976562 L 22.02593231201172,8.487625122070312 L 21.52594757080078,8.487625122070312 L 21.025962829589844,8.488052368164062 L 20.525978088378906,8.488479614257812 L 20.02599334716797,8.55438232421875 L 19.52600860595703,8.663406372070312 L 19.026023864746094,8.788421630859375 L 19.18254852294922,9.288406372070312 L 19.28876495361328,9.78839111328125 M 19.465797424316406,9.514389038085938 L 19.465797424316406,9.514389038085938 L 19.22211456298828,10.000350952148438 L 18.74700164794922,10.210006713867188 L 18.52008819580078,10.694366455078125 L 18.95667266845703,10.967910766601562 L 19.45667266845703,10.807769775390625 M 19.44091033935547,9.015045166015625 L 19.44091033935547,9.015045166015625 L 19.94091033935547,9.183181762695312 L 20.31543731689453,9.576507568359375 L 20.68828582763672,9.966644287109375 L 20.473106384277344,10.44781494140625 L 20.23780059814453,10.9066162109375 L 19.987403869628906,11.357437133789062 L 19.52068328857422,11.5926513671875 M 19.256065368652344,11.868057250976562 L 19.256065368652344,11.868057250976562 L 19.70606231689453,11.616867065429688 L 19.63678741455078,11.121307373046875 L 19.38304901123047,10.689620971679688 L 19.073951721191406,10.301071166992188 L 18.57396697998047,10.325454711914062 M 19.98058319091797,12.350311279296875 L 19.98058319091797,12.350311279296875 L 20.39368438720703,12.676559448242188 L 20.79169464111328,13.052322387695312 L 20.89958953857422,13.55230712890625 L 20.905189514160156,14.052291870117188 L 20.905189514160156,14.552276611328125 L 20.606163024902344,14.990325927734375 L 20.23670196533203,15.382064819335938 L 19.79680633544922,15.662002563476562 L 19.29682159423828,15.69757080078125 M 19.246559143066406,15.10211181640625 L 19.246559143066406,15.10211181640625 L 19.740150451660156,14.922805786132812 L 19.767555236816406,14.422805786132812 L 19.67144012451172,13.932037353515625 L 19.732383728027344,13.44287109375 L 19.40485382080078,13.06390380859375 L 18.904869079589844,12.935699462890625 L 18.681312561035156,13.260360717773438 M 23.20880889892578,9.439453125 L 23.20880889892578,9.439453125 M 23.16356658935547,9.437835693359375 L 23.16356658935547,9.437835693359375 L 23.26642608642578,9.937820434570312 L 23.37432098388672,10.43780517578125 L 23.315101623535156,10.937789916992188 L 23.23407745361328,11.437774658203125 L 23.345314025878906,11.937759399414062 L 23.345314025878906,12.437744140625 L 23.286094665527344,12.937728881835938 L 23.20171356201172,13.437713623046875 L 23.42363739013672,13.907699584960938 L 23.519798278808594,14.406448364257812 L 23.497474670410156,14.90643310546875 L 23.47515106201172,15.406417846679688 L 23.44947052001953,15.906402587890625 L 23.241004943847656,16.379592895507812 L 23.005699157714844,16.828811645507812 M 23.433982849121094,15.697906494140625 L 23.433982849121094,15.697906494140625 L 22.933998107910156,15.7606201171875 L 22.43401336669922,15.7606201171875 M 23.339683532714844,14.695816040039062 L 23.339683532714844,14.695816040039062 L 22.839698791503906,14.623504638671875 L 22.33971405029297,14.551193237304688 M 23.220191955566406,13.525222778320312 L 23.220191955566406,13.525222778320312 L 22.72020721435547,13.55279541015625 L 22.22022247314453,13.580368041992188 M 23.39588165283203,13.148681640625 L 23.39588165283203,13.148681640625 L 22.895896911621094,13.211395263671875 L 22.395912170410156,13.269317626953125 L 21.89592742919922,13.13153076171875 M 23.10688018798828,12.016494750976562 L 23.10688018798828,12.016494750976562 L 22.606895446777344,12.0440673828125 L 22.106910705566406,12.070053100585938 M 23.094154357910156,11.15155029296875 L 23.094154357910156,11.15155029296875 L 22.59416961669922,11.136749267578125 L 22.09418487548828,11.123550415039062 M 22.860069274902344,10.332809448242188 L 22.860069274902344,10.332809448242188 L 22.360084533691406,10.360382080078125 L 21.86009979248047,10.386367797851562 L 22.313453674316406,10.13037109375 L 22.763450622558594,9.877578735351562 L 23.263450622558594,9.988204956054688 M 22.48345184326172,9.828033447265625 L 22.48345184326172,9.828033447265625 L 21.98346710205078,9.935470581054688 M 19.289649963378906,11.30517578125 L 19.289649963378906,11.30517578125 L 19.644065856933594,11.2200927734375 L 19.462440490722656,11.168548583984375 L 19.12653350830078,11.118606567382812 L 18.626548767089844,11.103805541992188 L 19.071510314941406,11.225616455078125 L 18.95862579345703,11.350631713867188 L 18.58916473388672,11.74395751953125 L 18.64842987060547,11.24395751953125 L 18.71607208251953,10.78033447265625 L 18.34326934814453,10.398178100585938 L 18.65741729736328,10.845809936523438 L 19.12921905517578,10.680862426757812 L 18.89727020263672,10.8521728515625 L 19.09740447998047,11.2998046875 L 19.59740447998047,11.316192626953125 L 19.266517639160156,11.263046264648438 L 18.84003448486328,11.602066040039062 L 19.11394500732422,11.75421142578125 L 19.00273895263672,11.25421142578125 L 18.530982971191406,10.995040893554688 L 18.97930145263672,10.74224853515625 L 19.42761993408203,10.479873657226562 L 19.632789611816406,10.97064208984375 L 19.546730041503906,11.470626831054688 L 19.294654846191406,10.995819091796875 L 19.12140655517578,10.768585205078125 L 18.689903259277344,11.054901123046875 L 19.16674041748047,11.181488037109375 L 19.66674041748047,11.407119750976562 L 19.35430145263672,11.832382202148438 L 18.87248992919922,12.002105712890625 M 18.533226013183594,11.589599609375 L 18.533226013183594,11.589599609375 L 18.45220184326172,11.089599609375 M 18.68029022216797,10.398666381835938 L 18.68029022216797,10.398666381835938 L 19.091712951660156,10.08837890625 L 19.35053253173828,10.540802001953125 L 19.15882110595703,11.026763916015625 L 19.24156951904297,11.25079345703125 L 19.388023376464844,11.750778198242188 L 19.181236267089844,11.718399047851562 L 18.681251525878906,11.761947631835938 L 18.32018280029297,11.381393432617188 M 19.04637908935547,13.676345825195312 L 19.04637908935547,13.676345825195312 L 19.461158752441406,14.004180908203125 L 19.38013458251953,14.504165649414062 L 18.91675567626953,14.744155883789062 L 18.669715881347656,14.291717529296875 L 18.96039581298828,13.8712158203125 L 19.34833526611328,13.528976440429688 L 19.228736877441406,14.028961181640625 L 18.75530242919922,14.265777587890625 L 18.29529571533203,14.358840942382812 L 18.79224395751953,14.423141479492188 L 19.26740264892578,14.6551513671875 L 19.413856506347656,14.1551513671875 L 19.29761505126953,13.67236328125 L 19.25012969970703,13.17236328125 L 18.750144958496094,13.367630004882812 L 18.674156188964844,13.86761474609375 L 19.036949157714844,14.268936157226562 L 19.171669006347656,14.7689208984375 L 19.519371032714844,14.39154052734375 L 19.62726593017578,13.899169921875 L 19.67981719970703,13.40679931640625 L 19.27179718017578,13.130050659179688 L 18.771812438964844,13.15283203125 L 18.336952209472656,13.479080200195312 L 18.624290466308594,13.920318603515625 L 18.819374084472656,14.390304565429688 L 18.88031768798828,14.884246826171875 L 19.38031768798828,14.748062133789062 L 19.62908172607422,14.29083251953125 L 19.516197204589844,13.80804443359375 L 19.14673614501953,13.461029052734375 L 18.646751403808594,13.417465209960938 L 18.53050994873047,13.917449951171875 L 18.86479949951172,14.3299560546875 L 19.36479949951172,14.341552734375 L 19.69908905029297,14.781204223632812 L 19.368202209472656,15.195297241210938 L 18.86821746826172,15.030349731445312 L 18.572547912597656,14.62103271484375 L 18.84815216064453,14.181365966796875 L 18.89568328857422,13.690597534179688 L 18.65032196044922,13.26531982421875" fill="none" stroke="#000000" stroke-width="1"/>
	<path d="M 13.204704284667969,11.238388061523438 L 13.204704284667969,11.238388061523438 L 13.090141296386719,11.467208862304688 L 12.861534118652344,11.9068603515625 L 12.574241638183594,12.3560791015625 L 12.236656188964844,12.789337158203125 L 12.236656188964844,12.603622436523438 M 13.180473327636719,10.946624755859375 L 13.180473327636719,10.946624755859375 L 13.067588806152344,10.679458618164062 L 12.817192077636719,10.335617065429688 L 12.456123352050781,9.972625732421875 L 12.084983825683594,9.603240966796875 L 11.755775451660156,9.291366577148438 L 11.495323181152344,9.762954711914062 L 11.283500671386719,10.25689697265625 L 11.095161437988281,10.755645751953125 L 11.213111877441406,10.858291625976562 L 11.344490051269531,11.050384521484375 L 11.589897155761719,11.446914672851562 L 11.858772277832031,11.904144287109375 L 12.125968933105469,12.375732421875 L 12.393165588378906,12.847320556640625 M 11.944206237792969,9.441574096679688 L 11.944206237792969,9.441574096679688 L 12.127555847167969,9.935516357421875 L 12.310905456542969,10.429458618164062 L 12.494255065917969,10.92340087890625 L 12.672584533691406,11.417343139648438 L 12.586524963378906,11.917327880859375 L 12.416633605957031,12.417312622070312 L 12.243385314941406,12.91729736328125" fill="none" stroke="#000000" stroke-width="1"/>
</svg>
