<?xml version="1.0" ?>
<svg baseProfile="full" height="195mm" version="1.1" viewBox="0 0 27.5 19.5" width="275mm" xmlns="http://www.w3.org/2000/svg" xmlns:ev="http://www.w3.org/2001/xml-events" xmlns:xlink="http://www.w3.org/1999/xlink">
	<defs/>
	<path d="M 16.43895721435547,13.58294677734375 L 16.43895721435547,13.58294677734375 L 16.124839782714844,13.556961059570312 L 15.889533996582031,13.54693603515625 L 15.825294494628906,13.735824584960938 L 15.662101745605469,14.183456420898438 L 15.492210388183594,14.28289794921875 L 15.325660705566406,14.404708862304688 L 15.159111022949219,14.526519775390625 L 14.985862731933594,14.571670532226562 L 14.755592346191406,14.357223510742188 L 14.508552551269531,13.98944091796875 L 14.336982727050781,13.551376342773438 L 14.391212463378906,13.189971923828125 L 14.661766052246094,12.874893188476562 L 14.907173156738281,12.556625366210938 L 14.738945007324219,12.255935668945312 L 14.506996154785156,11.89453125 L 14.903327941894531,11.718399047851562 L 15.403327941894531,11.741180419921875 L 15.903327941894531,11.990753173828125 L 16.175559997558594,12.417617797851562 L 16.474632263183594,12.858856201171875 L 16.974632263183594,12.818496704101562 L 17.16301727294922,12.431533813476562 M 17.09937286376953,13.83636474609375 L 17.09937286376953,13.83636474609375 L 16.632652282714844,13.82794189453125 M 16.76238250732422,13.699737548828125 L 16.76238250732422,13.699737548828125 L 17.039649963378906,13.797592163085938 M 15.405372619628906,13.50994873046875 L 15.405372619628906,13.50994873046875 L 15.113059997558594,13.407302856445312 L 14.678199768066406,13.479598999023438 L 14.822990417480469,13.979583740234375 L 15.298149108886719,14.225982666015625 L 15.754844665527344,13.91888427734375 M 15.309440612792969,13.977096557617188 L 15.309440612792969,13.977096557617188 M 14.821708679199219,12.083282470703125 L 14.821708679199219,12.083282470703125 L 14.998359680175781,12.076461791992188 L 15.268913269042969,11.97540283203125 L 15.437187194824219,11.993392944335938 L 15.581977844238281,11.9466552734375 L 15.621116638183594,12.386306762695312 L 15.565254211425781,12.88629150390625 L 15.336647033691406,12.87786865234375 L 15.034278869628906,12.415847778320312 L 15.293098449707031,11.9378662109375" fill="none" stroke="#000000" stroke-width="1"/>
	<path d="M 25.374183654785156,9.569107055664062 L 25.374183654785156,9.569107055664062 L 25.669898986816406,9.397781372070312 L 26.10480499267578,9.124221801757812 L 26.536354064941406,8.823532104492188 L 26.736488342285156,8.348724365234375 L 26.834327697753906,7.856353759765625 L 26.920433044433594,7.363983154296875 L 26.920433044433594,7.1862640380859375 L 26.920433044433594,6.7066802978515625 L 26.76897430419922,6.2066802978515625 L 26.51355743408203,5.7510528564453125 L 26.13404083251953,5.37847900390625 L 25.69414520263672,5.090545654296875 L 25.19416046142578,4.9942779541015625 L 24.694175720214844,5.1416473388671875 L 24.286155700683594,5.45831298828125 L 23.903282165527344,5.8260955810546875 L 23.527122497558594,6.2018585205078125 L 23.150962829589844,6.5792236328125 L 22.94751739501953,7.05560302734375 L 23.001747131347656,7.5555877685546875 L 23.258888244628906,7.9984283447265625 L 23.51435089111328,8.447647094726562 L 23.77149200439453,8.895278930664062 L 24.10912322998047,9.294998168945312 L 24.46184539794922,9.680343627929688 L 24.826316833496094,10.059310913085938 L 25.30315399169922,9.931106567382812 L 25.65587615966797,9.57928466796875 M 24.576148986816406,8.330520629882812 L 24.576148986816406,8.330520629882812 L 24.88861846923828,8.77496337890625 L 25.36377716064453,8.912734985351562 L 25.770179748535156,8.62640380859375 L 25.87303924560547,8.14361572265625 L 25.699790954589844,7.673614501953125 L 25.466163635253906,7.23394775390625 L 25.23253631591797,6.792694091796875 L 24.73255157470703,6.792694091796875 L 24.259117126464844,7.0247039794921875 L 24.176414489746094,7.5234527587890625 L 24.503990173339844,7.9551239013671875 L 24.831565856933594,8.381988525390625 L 25.32013702392578,8.362380981445312 L 25.65106964111328,7.986602783203125 L 25.68181610107422,7.4990234375 L 25.303977966308594,7.142425537109375 L 24.803993225097656,7.20672607421875 L 24.30400848388672,7.3572845458984375 L 24.432029724121094,7.85443115234375 L 24.816612243652344,8.193450927734375 L 25.144187927246094,7.8112945556640625 L 25.100059509277344,7.320526123046875 L 24.650108337402344,7.6387786865234375 L 24.97936248779297,8.076828002929688 L 25.47631072998047,7.9518280029296875 L 25.97325897216797,7.8268280029296875 L 25.524986267089844,7.5756378173828125 L 25.043174743652344,7.378753662109375 L 24.543190002441406,7.53887939453125 L 24.71648406982422,8.038864135742188 L 25.08263397216797,7.6950225830078125 L 25.14189910888672,7.2058563232421875 L 24.66008758544922,7.0121612548828125 L 24.35771942138672,7.4582061767578125 M 24.956092834472656,12.3411865234375 L 24.956092834472656,12.3411865234375 L 25.243431091308594,12.7904052734375 L 25.54082489013672,13.234848022460938 L 25.856666564941406,13.680892944335938 L 26.16913604736328,14.126937866210938 L 26.11829376220703,14.626922607421875 L 26.06745147705078,15.126907348632812 L 25.89588165283203,15.620849609375 L 25.588462829589844,16.0301513671875 L 25.182106018066406,16.350006103515625 L 24.68212127685547,16.4510498046875 L 24.18213653564453,16.324447631835938 L 23.790870666503906,16.017349243164062 L 23.49352264404297,15.636795043945312 L 23.29175567626953,15.200332641601562 L 23.12018585205078,14.74151611328125 L 22.92345428466797,14.276290893554688 L 22.75188446044922,13.817474365234375 L 22.87487030029297,13.331497192382812 L 23.22759246826172,12.966903686523438 L 23.68932342529297,12.742874145507812 L 24.15105438232422,12.522018432617188 L 24.48198699951172,12.15423583984375 L 24.85987091064453,11.845535278320312 L 25.259559631347656,12.21649169921875 M 24.750953674316406,13.436065673828125 L 24.750953674316406,13.436065673828125 L 24.364723205566406,13.795852661132812 L 24.110984802246094,14.241897583007812 L 24.118263244628906,14.740646362304688 L 24.398887634277344,15.1802978515625 L 24.84217071533203,15.42987060546875 L 25.27875518798828,15.151519775390625 L 25.332984924316406,14.6639404296875 L 25.21338653564453,14.1795654296875 L 25.093788146972656,13.6951904296875 L 24.93897247314453,13.214004516601562 L 24.458839416503906,13.406097412109375 L 24.143043518066406,13.840957641601562 L 24.336463928222656,14.328521728515625 L 24.71434783935547,14.701080322265625 L 25.18950653076172,14.515365600585938 L 25.43659210205078,14.072509765625 M 25.219215393066406,15.006118774414062 L 25.219215393066406,15.006118774414062 L 24.87659454345703,15.40423583984375 L 24.376609802246094,15.26165771484375 L 24.28217315673828,14.77886962890625 L 24.554405212402344,14.356781005859375 L 24.99266815185547,14.671844482421875 L 25.34539031982422,14.3072509765625 L 24.982643127441406,14.703781127929688 L 24.571266174316406,15.033218383789062 L 24.12299346923828,14.770843505859375 L 24.50255584716797,15.168960571289062 L 24.96930694580078,15.367431640625 L 25.22644805908203,14.929367065429688 L 24.746315002441406,14.716522216796875 L 24.26952362060547,14.946929931640625 M 22.722511291503906,10.092514038085938 L 22.722511291503906,10.092514038085938 L 22.33124542236328,9.732711791992188 L 21.92322540283203,9.414443969726562 L 21.50849151611328,9.104156494140625 L 21.041770935058594,8.851364135742188 L 20.648826599121094,8.545867919921875 L 20.46216583251953,8.1046142578125 L 20.29059600830078,7.6473846435546875 L 19.926170349121094,7.274810791015625 L 19.437644958496094,7.1290283203125 L 18.937660217285156,7.1290283203125 L 18.43767547607422,7.1550140380859375 L 17.962562561035156,7.3966064453125 L 17.779258728027344,7.6381988525390625 L 17.66301727294922,8.13818359375 L 17.812828063964844,8.638168334960938" fill="none" stroke="#000000" stroke-width="1"/>
	<path d="M 13.016136169433594,7.286895751953125 L 13.016136169433594,7.286895751953125 L 12.780830383300781,7.2768707275390625 L 12.510307312011719,7.3076324462890625 L 12.233085632324219,7.47735595703125 L 11.935737609863281,7.707763671875 L 11.614906311035156,7.9397735595703125 L 11.295753479003906,8.219711303710938 L 11.001762390136719,8.600265502929688 L 10.820137023925781,9.046310424804688 L 10.717323303222656,9.5035400390625 L 10.751426696777344,9.975128173828125 L 10.834175109863281,10.44671630859375 L 10.942070007324219,10.918304443359375 L 11.093559265136719,11.319625854492188 M 11.446891784667969,11.42181396484375 L 11.446891784667969,11.42181396484375 L 11.214942932128906,11.52606201171875 L 10.966224670410156,11.59356689453125 L 10.715827941894531,11.686630249023438 L 10.540901184082031,11.912261962890625 M 12.821189880371094,6.4921417236328125 L 12.821189880371094,6.4921417236328125 L 12.825126647949219,6.6730499267578125 L 12.829063415527344,6.866729736328125 L 12.833000183105469,7.116302490234375 L 12.969398498535156,7.2189483642578125 L 13.110832214355469,7.3199920654296875 L 13.260643005371094,7.4929046630859375 L 13.541267395019531,7.63067626953125 L 13.836982727050781,7.6566619873046875" fill="none" stroke="#000000" stroke-width="1"/>
</svg>
