<?xml version="1.0" ?>
<svg baseProfile="full" height="195mm" version="1.1" viewBox="0 0 27.5 19.5" width="275mm" xmlns="http://www.w3.org/2000/svg" xmlns:ev="http://www.w3.org/2001/xml-events" xmlns:xlink="http://www.w3.org/1999/xlink">
	<defs/>
	<path d="M 17.391700744628906,10.064163208007812 L 17.391700744628906,10.064163208007812 L 17.280494689941406,9.567001342773438 L 17.11060333251953,9.067001342773438 L 16.94237518310547,8.567001342773438 L 16.44239044189453,8.505874633789062 L 15.942405700683594,8.443145751953125 L 15.442420959472656,8.425140380859375 L 14.960609436035156,8.673126220703125 L 14.591148376464844,9.084030151367188 L 14.298835754394531,9.530075073242188 L 14.113853454589844,10.0272216796875 L 14.108299255371094,10.527206420898438 L 14.160850524902344,11.027191162109375 L 14.426368713378906,11.509963989257812 L 14.799217224121094,11.888931274414062 L 15.198905944824219,12.216766357421875 L 15.692497253417969,12.293853759765625 L 16.16765594482422,12.181610107421875 L 16.641136169433594,12.039031982421875 L 17.111244201660156,11.85491943359375 L 17.173866271972656,11.362548828125 L 17.17333221435547,10.87017822265625 L 17.05876922607422,10.3778076171875 L 16.94420623779297,9.88543701171875 M 15.349601745605469,9.57147216796875 L 15.349601745605469,9.57147216796875 L 15.849601745605469,9.57147216796875 L 16.34960174560547,9.57147216796875 L 16.84960174560547,9.57147216796875 M 16.58483123779297,10.96905517578125 L 16.58483123779297,10.96905517578125 L 16.08484649658203,10.969482421875 L 15.584861755371094,10.96990966796875 L 15.084877014160156,10.9703369140625 L 14.584892272949219,10.97076416015625" fill="none" stroke="#000000" stroke-width="1"/>
	<path d="M 20.63874053955078,9.761459350585938 L 20.63874053955078,9.761459350585938 L 20.974693298339844,9.361724853515625 L 21.40959930419922,9.067413330078125 L 21.676795959472656,8.595809936523438 L 21.774635314941406,8.100250244140625 L 21.81041717529297,7.60308837890625 L 21.819374084472656,7.1075286865234375 L 21.70313262939453,6.611968994140625 L 21.39403533935547,6.1978607177734375 L 20.95246124267578,5.9195098876953125 L 20.452476501464844,5.8216400146484375 L 19.952491760253906,5.9705963134765625 L 19.51427459716797,6.2473297119140625 L 19.126365661621094,6.5767669677734375 L 18.740135192871094,6.9094085693359375 L 18.367332458496094,7.286773681640625 L 18.08843231201172,7.734405517578125 L 17.891700744628906,8.217178344726562 L 17.96605682373047,8.7171630859375 L 18.05048370361328,9.215911865234375 L 18.153343200683594,9.71466064453125 L 18.519493103027344,10.1143798828125 L 18.989601135253906,10.298477172851562 L 19.464759826660156,10.16229248046875 L 19.926490783691406,9.965408325195312 L 20.426490783691406,9.989791870117188 L 20.926490783691406,10.014175415039062 L 21.242332458496094,9.633621215820312 L 21.341835021972656,9.146041870117188 L 21.43799591064453,8.658462524414062 M 18.84062957763672,7.96588134765625 L 18.84062957763672,7.96588134765625 L 18.721031188964844,8.465866088867188 L 19.18946075439453,8.701080322265625 L 19.65789031982422,8.936294555664062 L 19.998878479003906,8.57330322265625 L 20.10509490966797,8.085723876953125 L 19.873146057128906,7.593353271484375 L 19.471824645996094,7.2399444580078125 L 18.971839904785156,7.262725830078125 L 18.66442108154297,7.708770751953125 L 19.11943817138672,7.958343505859375 M 19.326637268066406,13.23248291015625 L 19.326637268066406,13.23248291015625 L 19.36241912841797,13.732467651367188 L 19.86241912841797,13.607467651367188 L 20.36241912841797,13.480865478515625 L 20.65813446044922,13.063568115234375 L 20.436256408691406,12.590362548828125 L 19.93627166748047,12.404647827148438 L 19.43628692626953,12.531234741210938 L 18.936302185058594,12.657821655273438 L 19.007301330566406,13.157806396484375 L 19.326499938964844,13.602249145507812 L 19.796607971191406,13.422943115234375 L 20.29187774658203,13.337860107421875 L 20.631187438964844,12.938125610351562 L 20.45793914794922,12.448959350585938 L 19.95795440673828,12.521255493164062 L 19.544898986816406,12.897018432617188 L 19.229103088378906,13.344650268554688 L 19.56505584716797,12.951309204101562 L 19.88593292236328,12.5595703125 L 19.73784637451172,13.059555053710938 L 19.49750518798828,13.526351928710938 M 21.76567840576172,13.36663818359375 L 21.76567840576172,13.36663818359375 L 21.76567840576172,12.86663818359375 L 21.709815979003906,12.36663818359375 L 21.53321075439453,11.86663818359375 M 22.59770965576172,6.9317474365234375 L 22.59770965576172,6.9317474365234375 L 22.97559356689453,7.024810791015625 L 22.89289093017578,7.462860107421875 L 22.432884216308594,7.7411956787109375 L 22.72692108154297,8.188827514648438 L 22.908607482910156,8.671600341796875 L 22.420082092285156,8.852508544921875 L 22.01372528076172,9.228271484375 L 22.336280822753906,9.651947021484375 L 22.818138122558594,9.743408203125" fill="none" stroke="#000000" stroke-width="1"/>
	<path d="M 13.046791076660156,8.429214477539062 L 13.046791076660156,8.429214477539062 L 12.739372253417969,8.875259399414062 L 12.842231750488281,9.375244140625 L 13.002113342285156,9.875228881835938 L 13.165351867675781,10.375213623046875 L 12.993782043457031,10.87396240234375 L 12.820533752441406,11.367904663085938 L 12.647285461425781,11.861846923828125 L 12.524345397949219,12.355789184570312 L 12.428230285644531,12.852935791015625 L 12.342170715332031,13.350082397460938 L 12.678123474121094,13.729049682617188 L 13.134819030761719,13.879608154296875 L 13.608299255371094,13.807296752929688 M 13.347251892089844,8.189208984375 L 13.347251892089844,8.189208984375 L 12.847267150878906,8.168014526367188 L 12.347282409667969,8.18121337890625 L 12.135459899902344,8.671981811523438 L 11.930335998535156,9.162750244140625 L 11.725212097167969,9.653518676757812 L 11.585502624511719,10.15350341796875 L 11.548072814941406,10.653488159179688 L 11.537483215332031,11.153472900390625 L 11.521873474121094,11.653457641601562 L 11.506263732910156,12.1534423828125 L 11.490653991699219,12.653427124023438 L 11.475044250488281,13.153411865234375 L 11.782493591308594,13.570693969726562 L 12.165412902832031,13.919296264648438 L 12.650627136230469,13.791091918945312 L 13.053672790527344,13.487197875976562 M 12.879478454589844,8.488815307617188 L 12.879478454589844,8.488815307617188 L 12.905204772949219,8.988800048828125 L 12.839286804199219,9.488784790039062 L 12.666038513183594,9.97314453125 L 12.499488830566406,10.465499877929688 L 12.317863464355469,10.93548583984375 L 12.166404724121094,11.419845581054688 L 12.080345153808594,11.913787841796875 L 12.121147155761719,12.406143188476562 L 12.319602966308594,12.8905029296875 L 12.521415710449219,13.373275756835938 L 12.442070007324219,13.865631103515625" fill="none" stroke="#000000" stroke-width="1"/>
</svg>
