<?xml version="1.0" ?>
<svg baseProfile="full" height="195mm" version="1.1" viewBox="0 0 27.5 19.5" width="275mm" xmlns="http://www.w3.org/2000/svg" xmlns:ev="http://www.w3.org/2001/xml-events" xmlns:xlink="http://www.w3.org/1999/xlink">
	<defs/>
	<path d="M 16.80864715576172,10.367965698242188 L 16.80864715576172,10.367965698242188 L 16.31678009033203,10.18865966796875 L 15.910423278808594,9.879959106445312 L 15.504066467285156,9.572860717773438 L 15.097709655761719,9.265762329101562 L 14.691352844238281,8.958663940429688 L 14.753974914550781,9.125198364257812 L 14.835044860839844,9.62518310546875 L 14.882575988769531,10.125167846679688 L 14.909980773925781,10.625152587890625 L 14.925651550292969,11.125137329101562 M 15.466773986816406,10.788864135742188 L 15.466773986816406,10.788864135742188 L 15.955345153808594,10.743698120117188 L 16.05652618408203,11.243682861328125 L 15.884956359863281,11.737625122070312" fill="none" stroke="#000000" stroke-width="1"/>
	<path d="M 18.827003479003906,12.761962890625 L 18.827003479003906,12.761962890625 L 19.05396270751953,12.965240478515625 L 19.284263610839844,13.233993530273438 L 19.496131896972656,13.56024169921875 L 19.568809509277344,14.060226440429688 L 19.528038024902344,14.560211181640625 L 19.487266540527344,15.060195922851562 L 19.40624237060547,15.5601806640625 L 19.17261505126953,16.022186279296875 L 18.804832458496094,16.4171142578125 L 18.43537139892578,16.812042236328125 L 18.27385711669922,16.830032348632812 L 18.23474884033203,16.330032348632812 L 17.944114685058594,15.850448608398438 L 17.64508819580078,15.388427734375 L 17.38799285888672,14.900848388671875 L 17.30864715576172,14.400848388671875 L 17.490333557128906,13.900848388671875 L 17.72736358642578,13.408477783203125 L 17.964393615722656,12.916107177734375 L 18.30370330810547,12.540328979492188 L 18.772132873535156,12.623794555664062 M 18.214698791503906,10.324234008789062 L 18.214698791503906,10.324234008789062 L 17.883811950683594,9.882980346679688 L 17.804466247558594,9.382980346679688 L 17.78717803955078,8.882980346679688 L 17.76988983154297,8.382980346679688 L 17.766014099121094,7.8829803466796875 L 18.03992462158203,7.43853759765625 L 18.280311584472656,6.9701385498046875 L 18.311058044433594,6.4701385498046875 L 18.343482971191406,5.9701385498046875 L 18.46814727783203,5.4701385498046875 M 18.55591583251953,5.59515380859375 L 18.55591583251953,5.59515380859375 L 18.478248596191406,6.0951385498046875 L 18.34357452392578,6.5906829833984375 L 18.661094665527344,7.0159454345703125 L 18.978614807128906,7.4412078857421875 L 19.03620147705078,7.9367523193359375 L 19.090431213378906,8.432296752929688 L 19.14466094970703,8.927841186523438 L 19.198890686035156,9.42498779296875 L 19.226295471191406,9.9205322265625 L 19.01111602783203,10.406494140625 L 18.511131286621094,10.63690185546875 M 17.796119689941406,8.444351196289062 L 17.796119689941406,8.444351196289062 L 18.088478088378906,8.007888793945312 L 18.45294952392578,8.247879028320312 L 18.67151641845703,8.73223876953125 L 18.65087127685547,9.227783203125 L 18.630226135253906,9.062835693359375 L 18.22386932373047,8.68865966796875 L 18.278099060058594,8.18865966796875 L 17.778114318847656,8.100372314453125 L 17.83570098876953,8.600357055664062 L 18.216941833496094,8.961746215820312 L 18.63507843017578,8.640274047851562 L 18.744651794433594,8.140274047851562 L 18.35338592529297,8.533599853515625 L 18.237144470214844,9.0323486328125 L 18.638511657714844,8.725250244140625 L 18.69274139404297,8.225250244140625 L 18.19275665283203,8.1737060546875 L 17.90546417236328,8.621337890625 L 17.61817169189453,8.685638427734375 L 17.33087921142578,8.573394775390625 M 18.835243225097656,14.34521484375 L 18.835243225097656,14.34521484375 L 18.891151428222656,13.84521484375 L 18.39116668701172,13.65472412109375 L 17.974754333496094,13.949020385742188 L 18.013893127441406,14.447769165039062 L 18.433692932128906,14.734085083007812 L 18.89374542236328,14.462127685546875 L 18.71881866455078,13.976150512695312 L 18.218833923339844,14.074005126953125 L 18.08917999267578,14.573989868164062 L 18.56768035888672,14.359542846679688 L 19.046180725097656,14.145095825195312 L 18.54619598388672,14.319610595703125 M 20.42279815673828,12.52935791015625 L 20.42279815673828,12.52935791015625 L 20.653099060058594,12.814071655273438 L 20.89850616455078,13.256912231445312 L 21.083534240722656,13.755661010742188 L 21.00251007080078,14.254409790039062 L 20.839317321777344,14.751556396484375 L 20.676124572753906,15.248703002929688 L 20.514610290527344,15.747451782226562 M 20.164329528808594,10.291122436523438 L 20.164329528808594,10.291122436523438 L 20.273902893066406,9.80035400390625 L 20.56458282470703,9.384658813476562 L 20.74793243408203,8.905075073242188 L 20.70044708251953,8.411117553710938 L 20.64458465576172,7.9187469482421875 L 20.580345153808594,7.4263763427734375 L 20.443992614746094,6.9340057373046875 L 20.25395965576172,6.4448394775390625" fill="none" stroke="#000000" stroke-width="1"/>
	<path d="M 13.573005676269531,10.655380249023438 L 13.573005676269531,10.655380249023438 L 13.862007141113281,10.517593383789062 L 13.961509704589844,10.033218383789062 L 13.556831359863281,9.716537475585938 L 13.083396911621094,9.495681762695312 L 12.900093078613281,9.0384521484375 L 12.793922424316406,8.5556640625 L 12.893424987792969,8.066497802734375 L 12.997962951660156,7.57891845703125 L 13.228263854980469,7.11529541015625 M 13.675132751464844,10.854705810546875 L 13.675132751464844,10.854705810546875 L 14.089912414550781,11.166580200195312 L 13.918342590332031,11.654144287109375 L 13.671302795410156,12.104965209960938 L 13.384010314941406,12.551010131835938 L 13.188957214355469,13.046554565429688 L 13.442741394042969,13.492599487304688 L 13.780372619628906,13.887527465820312 L 14.118003845214844,14.282455444335938 M 13.618019104003906,14.378707885742188 L 13.618019104003906,14.378707885742188 L 13.118034362792969,14.288818359375 L 12.618049621582031,14.111099243164062 L 12.136238098144531,13.914215087890625 L 11.748329162597656,13.600738525390625 L 11.422477722167969,13.221771240234375 L 11.178794860839844,12.790084838867188 L 10.997169494628906,12.331268310546875 L 10.823921203613281,11.869247436523438 L 10.763023376464844,11.381668090820312 L 10.857505798339844,10.892501831054688 L 10.951988220214844,10.4017333984375 L 11.051490783691406,9.912567138671875 L 11.150993347167969,9.42340087890625 L 11.245475769042969,8.934234619140625 L 11.324851989746094,8.4466552734375 L 11.434425354003906,7.957489013671875 L 11.758644104003906,7.5577545166015625 L 12.200263977050781,7.285797119140625 L 12.700263977050781,7.1655731201171875 L 13.200263977050781,7.0916748046875 M 12.807029724121094,7.5995941162109375 L 12.807029724121094,7.5995941162109375 L 12.593528747558594,8.085556030273438 L 12.366615295410156,8.552352905273438 L 12.263801574707031,9.051101684570312 L 12.159309387207031,9.546646118164062 L 12.056495666503906,10.046630859375 L 12.056495666503906,10.545379638671875 L 12.162712097167969,11.04412841796875 L 12.268928527832031,11.542877197265625 L 12.375144958496094,12.0416259765625 L 12.481361389160156,12.540374755859375 L 12.587577819824219,13.040359497070312 L 12.923530578613281,13.446456909179688 L 13.331596374511719,13.76470947265625 L 13.749732971191406,14.081375122070312 L 14.191352844238281,14.351715087890625" fill="none" stroke="#000000" stroke-width="1"/>
</svg>
