<?xml version="1.0" ?>
<svg baseProfile="full" height="195mm" version="1.1" viewBox="0 0 27.5 19.5" width="275mm" xmlns="http://www.w3.org/2000/svg" xmlns:ev="http://www.w3.org/2001/xml-events" xmlns:xlink="http://www.w3.org/1999/xlink">
	<defs/>
	<path d="M 16.88262176513672,11.045989990234375 L 16.88262176513672,11.045989990234375 L 16.612098693847656,10.997650146484375 L 16.28624725341797,10.949310302734375 L 15.965415954589844,10.902572631835938 L 15.755271911621094,10.8590087890625 L 15.786018371582031,10.70684814453125 L 15.828514099121094,10.391769409179688 L 15.839149475097656,10.1102294921875 L 15.694404602050781,10.047500610351562 L 15.366874694824219,9.99755859375 L 14.972251892089844,9.982757568359375 L 14.897926330566406,10.117340087890625 L 14.778327941894531,10.485122680664062 L 14.692268371582031,10.927963256835938 L 14.606208801269531,11.372406005859375 L 14.543632507324219,11.816848754882812 L 14.486091613769531,12.26129150390625 L 14.604042053222656,12.705734252929688 L 14.871238708496094,13.095870971679688 L 15.329612731933594,13.053909301757812 L 15.673957824707031,12.646194458007812 L 15.274314880371094,12.324722290039062 L 15.675682067871094,12.392227172851562 L 16.095481872558594,12.459732055664062 L 16.54547882080078,12.430557250976562 L 17.01390838623047,12.348678588867188 M 14.921348571777344,10.78839111328125 L 14.921348571777344,10.78839111328125 L 14.958808898925781,10.28839111328125 L 14.958274841308594,10.4613037109375 L 14.895698547363281,10.853042602539062 L 14.926445007324219,10.705673217773438 L 14.957191467285156,10.3394775390625 L 14.933189392089844,10.490036010742188 L 14.823661804199219,10.936080932617188 M 14.637672424316406,12.165557861328125 L 14.637672424316406,12.165557861328125 L 14.680168151855469,11.665557861328125 L 14.676292419433594,11.910354614257812 L 14.607017517089844,12.41033935546875 L 14.604804992675781,12.24859619140625 L 14.604804992675781,11.74859619140625" fill="none" stroke="#000000" stroke-width="1"/>
	<path d="M 18.591773986816406,16.346115112304688 L 18.591773986816406,16.346115112304688 L 18.743263244628906,16.29937744140625 L 18.89307403564453,16.257415771484375 L 19.042884826660156,16.213851928710938 L 19.191017150878906,16.168685913085938 L 19.34082794189453,16.155487060546875 L 19.490638732910156,16.200637817382812 L 19.64044952392578,16.25537109375 L 19.790260314941406,16.316482543945312 L 19.94007110595703,16.383987426757812 L 20.09156036376953,16.446701049804688 L 20.238014221191406,16.511001586914062 L 20.38446807861328,16.575302124023438 L 20.530921936035156,16.639602661132812 M 20.41803741455078,16.51617431640625 L 20.41803741455078,16.51617431640625 L 20.197837829589844,16.330459594726562 L 19.964210510253906,16.146347045898438 L 19.73058319091797,15.962234497070312 L 19.495277404785156,15.730209350585938 L 19.26165008544922,15.46783447265625 L 19.033042907714844,15.109634399414062 L 18.837989807128906,14.695526123046875 L 18.64795684814453,14.246292114257812 L 18.454566955566406,13.795455932617188 L 18.26117706298828,13.343017578125 L 18.06946563720703,12.892181396484375 L 17.887840270996094,12.392181396484375 M 17.797325134277344,12.339462280273438 L 17.797325134277344,12.339462280273438 L 17.82807159423828,12.547515869140625 L 17.885658264160156,12.854598999023438 L 17.958335876464844,13.18084716796875 L 18.029335021972656,13.555007934570312 L 18.10033416748047,13.929168701171875 L 18.173011779785156,14.303329467773438 L 18.245689392089844,14.677490234375 L 18.31836700439453,15.053253173828125 L 18.39104461669922,15.42901611328125 L 18.438575744628906,15.823944091796875 L 18.444175720214844,16.258804321289062 L 18.468223571777344,16.65692138671875 M 17.79387664794922,10.984481811523438 L 17.79387664794922,10.984481811523438 L 17.84978485107422,10.733291625976562 L 17.95264434814453,10.411819458007812 L 18.067237854003906,10.087158203125 L 18.215370178222656,9.756103515625 L 18.363502502441406,9.418670654296875 L 18.511634826660156,9.076431274414062 L 18.57257843017578,8.644744873046875 L 18.633522033691406,8.21148681640625 L 18.74309539794922,7.778228759765625 L 19.167930603027344,7.4727325439453125 L 19.59276580810547,7.1656341552734375 L 19.908607482910156,6.7227783203125 L 20.261329650878906,6.339019775390625 M 20.10987091064453,6.282684326171875 L 20.10987091064453,6.282684326171875 L 19.718605041503906,6.2391204833984375 L 19.21862030029297,6.24114990234375 L 18.71863555908203,6.2431793212890625 L 18.218650817871094,6.2436065673828125 L 17.718666076660156,6.2440338134765625 M 17.720924377441406,6.408966064453125 L 17.720924377441406,6.408966064453125 L 17.72486114501953,6.8502044677734375 L 17.866294860839844,7.350189208984375 L 18.007728576660156,7.8501739501953125 L 17.97197723388672,8.35015869140625 L 17.88257598876953,8.850143432617188 L 17.783119201660156,9.350128173828125 L 17.68700408935547,9.850112915039062 L 17.68647003173828,10.35009765625 L 17.685935974121094,10.850082397460938 L 17.79047393798828,11.350067138671875 M 18.577842712402344,15.20709228515625 L 18.577842712402344,15.20709228515625 L 18.76622772216797,15.268203735351562 L 18.96636199951172,15.36285400390625 L 19.158103942871094,15.673126220703125 L 19.353187561035156,15.996185302734375 L 19.46276092529297,16.450210571289062 M 18.013893127441406,7.636016845703125 L 18.013893127441406,7.636016845703125 L 17.51390838623047,7.7003173828125 L 17.641929626464844,7.5800933837890625 L 17.937644958496094,7.3289031982421875 L 18.27025604248047,7.05694580078125 L 18.602867126464844,7.0389404296875 L 18.937156677246094,7.0113525390625 L 19.271446228027344,6.940643310546875 L 19.223960876464844,6.440643310546875" fill="none" stroke="#000000" stroke-width="1"/>
	<path d="M 13.752662658691406,8.895599365234375 L 13.752662658691406,8.895599365234375 L 13.475440979003906,8.69073486328125 L 12.975456237792969,8.640792846679688 L 12.475471496582031,8.722671508789062 L 11.975486755371094,8.820526123046875 L 11.512107849121094,9.060516357421875 L 11.192955017089844,9.4730224609375 L 11.001243591308594,9.957382202148438 L 10.874946594238281,10.456130981445312 L 10.810707092285156,10.95611572265625 L 10.761543273925781,11.456100463867188 L 10.800682067871094,11.956085205078125 L 10.839820861816406,12.456069946289062 L 10.951057434082031,12.9560546875 L 11.236717224121094,13.400497436523438 L 11.597831726074219,13.785842895507812 L 12.000877380371094,14.128067016601562 L 12.486091613769531,14.321746826171875 L 12.986091613769531,14.389251708984375 L 13.486091613769531,14.456756591796875 L 13.986091613769531,14.411590576171875 L 13.952018737792969,14.225875854492188 L 13.803932189941406,13.725875854492188 L 13.649116516113281,13.251068115234375 L 13.494300842285156,12.78106689453125 L 13.352912902832031,12.311065673828125 M 13.495567321777344,10.042434692382812 L 13.495567321777344,10.042434692382812 L 13.132820129394531,9.958953857421875 L 12.838829040527344,9.8770751953125 L 12.605201721191406,9.987701416015625 L 12.296104431152344,10.219711303710938 L 12.358726501464844,10.541168212890625 L 12.540412902832031,10.494430541992188 L 12.881401062011719,10.32470703125 L 13.366615295410156,10.23004150390625 L 13.866615295410156,10.37420654296875 M 11.311424255371094,12.04296875 L 11.311424255371094,12.04296875 L 11.531669616699219,12.021774291992188 L 11.798866271972656,12.008575439453125 L 12.066062927246094,11.921890258789062 L 12.289665222167969,11.542922973632812 L 11.789680480957031,11.3699951171875 L 11.289695739746094,11.373611450195312 L 10.789710998535156,11.396392822265625" fill="none" stroke="#000000" stroke-width="1"/>
</svg>
