<?xml version="1.0" ?>
<svg baseProfile="full" height="195mm" version="1.1" viewBox="0 0 27.5 19.5" width="275mm" xmlns="http://www.w3.org/2000/svg" xmlns:ev="http://www.w3.org/2001/xml-events" xmlns:xlink="http://www.w3.org/1999/xlink">
	<defs/>
	<path d="M 17.082122802734375,10.668182373046875 L 17.082122802734375,10.668182373046875 L 16.90216064453125,10.753250122070312 L 16.675247192382812,10.836715698242188 L 16.503677368164062,10.9744873046875 L 16.365646362304688,11.144210815429688 L 16.194076538085938,11.3953857421875 L 15.975555419921875,11.64178466796875 L 15.7100830078125,11.76837158203125 L 15.412734985351562,11.794357299804688 L 15.08856201171875,11.7220458984375 L 14.762710571289062,11.577865600585938 L 14.500579833984375,11.31549072265625 L 14.417877197265625,10.942916870117188 L 14.591171264648438,10.639022827148438 L 14.866775512695312,10.391036987304688 L 15.264785766601562,10.253250122070312 L 15.662796020507812,10.274429321289062 M 15.279541015625,10.292388916015625 L 15.279541015625,10.292388916015625 L 15.16162109375,10.1082763671875 L 15.035324096679688,9.924163818359375 L 15.094589233398438,10.095474243164062 L 15.27459716796875,10.471237182617188 L 15.092971801757812,10.53076171875 L 14.713455200195312,10.68450927734375 L 14.906875610351562,10.602630615234375 L 15.174072265625,10.420120239257812 L 15.071258544921875,10.307876586914062 L 14.723602294921875,10.214813232421875 L 14.87005615234375,10.25836181640625 L 15.145660400390625,10.311492919921875 L 15.184799194335938,10.760711669921875 L 15.188735961914062,10.610137939453125 L 15.2396240234375,10.3094482421875 L 15.071395874023438,10.40570068359375 L 14.64996337890625,10.735137939453125" fill="none" stroke="#000000" stroke-width="1"/>
	<path d="M 19.803176879882812,11.9219970703125 L 19.803176879882812,11.9219970703125 L 19.633285522460938,12.149215698242188 L 19.458358764648438,12.378036499023438 L 19.223052978515625,12.608444213867188 L 18.97601318359375,12.838851928710938 L 18.83294677734375,12.772933959960938 L 18.65802001953125,12.697433471679688 L 18.488128662109375,12.621932983398438 L 18.405426025390625,12.495330810546875 L 18.316024780273438,12.354339599609375 L 18.233322143554688,12.052047729492188 L 18.174102783203125,11.687454223632812 L 18.118240356445312,11.231826782226562 L 18.079132080078125,10.731826782226562 L 18.138397216796875,10.231826782226562 L 18.397216796875,9.744247436523438 L 18.676162719726562,9.283828735351562 L 18.955108642578125,8.82501220703125 L 19.405105590820312,8.91168212890625 L 19.818206787109375,9.271469116210938 L 20.122299194335938,9.717514038085938 L 20.309005737304688,10.21466064453125 L 20.331375122070312,10.714645385742188 L 20.270477294921875,11.214630126953125 M 20.268264770507812,11.389144897460938 L 20.268264770507812,11.389144897460938 L 20.204025268554688,11.71697998046875 L 20.067672729492188,12.102325439453125 L 19.61102294921875,12.361480712890625 M 18.439102172851562,11.274887084960938 L 18.439102172851562,11.274887084960938 L 18.463150024414062,11.5931396484375 L 18.614639282226562,11.592697143554688 L 18.816452026367188,11.592254638671875 L 19.041732788085938,11.592254638671875 L 19.267013549804688,11.592254638671875 L 19.408447265625,11.472030639648438 L 19.372695922851562,11.271942138671875 L 19.226287841796875,10.849853515625 L 19.048004150390625,10.35748291015625 L 18.551101684570312,10.587890625 L 18.1497802734375,10.96844482421875 L 18.153717041015625,11.467193603515625 M 18.893447875976562,14.455825805664062 L 18.893447875976562,14.455825805664062 L 19.2310791015625,14.515350341796875 L 19.62908935546875,14.651535034179688 L 19.944931030273438,15.099166870117188 L 19.91925048828125,15.599151611328125 L 19.806365966796875,16.099136352539062 L 19.688446044921875,16.59912109375 L 19.567169189453125,17.099105834960938 L 19.445892333984375,17.599090576171875 L 19.084823608398438,17.998809814453125 L 18.59295654296875,18.13818359375 L 18.092971801757812,18.009979248046875 L 17.68829345703125,17.6629638671875 L 17.582122802734375,17.1629638671875 L 17.723556518554688,16.6629638671875 L 17.890151977539062,16.1629638671875 L 18.061767578125,15.6629638671875 L 18.231719970703125,15.1629638671875 L 18.40167236328125,14.6629638671875 L 18.571624755859375,14.1629638671875 M 18.321975708007812,16.517776489257812 L 18.321975708007812,16.517776489257812 L 18.428192138671875,16.960617065429688 L 18.79937744140625,16.928237915039062 L 19.240997314453125,16.758514404296875 L 19.508193969726562,16.280532836914062 L 19.373519897460938,15.780532836914062 L 18.893386840820312,15.553298950195312 L 18.513870239257812,15.946624755859375 L 18.335586547851562,16.432586669921875 L 18.182449340820312,16.932571411132812 M 18.498016357421875,11.20697021484375 L 18.498016357421875,11.20697021484375 L 18.639450073242188,11.27447509765625 L 18.916717529296875,11.365936279296875 L 18.944122314453125,11.19140625 L 18.9698486328125,10.69140625 L 18.905609130859375,10.872314453125 L 18.616653442382812,11.3199462890625 L 18.436691284179688,11.2747802734375 L 17.93670654296875,11.23602294921875 M 18.641159057617188,16.508621215820312 L 18.641159057617188,16.508621215820312 L 18.99725341796875,16.330902099609375 L 19.131973266601562,16.455917358398438 L 19.3035888671875,16.89556884765625 L 18.934127807617188,16.959869384765625 M 21.1700439453125,12.280960083007812 L 21.1700439453125,12.280960083007812 L 21.435562133789062,11.935546875 L 21.74468994140625,11.524627685546875 L 22.057159423828125,11.11212158203125 L 22.057723999023438,10.61212158203125 L 21.869384765625,10.124542236328125 L 21.645828247070312,9.646560668945312 L 21.422271728515625,9.1685791015625 L 21.198715209960938,8.690597534179688 M 21.349456787109375,14.8685302734375 L 21.349456787109375,14.8685302734375 L 21.799453735351562,15.095748901367188 L 22.15386962890625,15.4986572265625 L 22.1097412109375,15.998641967773438 L 21.881134033203125,16.473434448242188 L 21.645828247070312,16.938644409179688 L 21.408843994140625,17.403854370117188 L 21.171859741210938,17.869064331054688 L 20.93487548828125,18.334274291992188" fill="none" stroke="#000000" stroke-width="1"/>
	<path d="M 11.642425537109375,13.992721557617188 L 11.642425537109375,13.992721557617188 L 11.46917724609375,13.741531372070312 L 11.190277099609375,13.2667236328125 L 10.949935913085938,12.788742065429688 L 10.775009155273438,12.291580200195312 L 10.74932861328125,11.791580200195312 L 10.813613891601562,11.291580200195312 L 10.854415893554688,10.791580200195312 L 10.854415893554688,10.291580200195312 L 10.8935546875,9.791580200195312 L 10.9561767578125,9.291580200195312 L 11.228408813476562,8.855117797851562 L 11.49560546875,8.41705322265625 L 11.719207763671875,7.975799560546875 L 11.929397583007812,7.529754638671875 L 12.199951171875,7.093292236328125 L 12.468826293945312,6.6552276611328125 L 12.821548461914062,6.292236328125 L 13.27490234375,6.055419921875 L 13.728256225585938,5.8170013427734375 L 13.83782958984375,5.699981689453125 M 13.858612060546875,6.6866912841796875 L 13.858612060546875,6.6866912841796875 L 13.917877197265625,6.1866912841796875 L 13.778167724609375,5.6866912841796875 L 13.494232177734375,5.2310638427734375 L 13.0426025390625,4.962310791015625 L 12.542617797851562,4.8932037353515625 L 12.392852783203125,5.098052978515625" fill="none" stroke="#000000" stroke-width="1"/>
</svg>
