<?xml version="1.0" ?>
<svg baseProfile="full" height="195mm" version="1.1" viewBox="0 0 27.5 19.5" width="275mm" xmlns="http://www.w3.org/2000/svg" xmlns:ev="http://www.w3.org/2001/xml-events" xmlns:xlink="http://www.w3.org/1999/xlink">
	<defs/>
	<path d="M 16.836143493652344,8.731582641601562 L 16.836143493652344,8.731582641601562 L 16.411338806152344,9.05303955078125 L 15.981498718261719,9.374496459960938 L 15.538261413574219,9.6719970703125 L 15.091667175292969,9.959915161132812 L 14.645072937011719,10.247833251953125 L 14.195121765136719,10.534149169921875 L 14.578041076660156,10.925888061523438 L 14.957603454589844,11.317626953125 L 15.404243469238281,11.62310791015625 L 15.879402160644531,11.832763671875 L 16.35456085205078,12.047210693359375 L 16.82971954345703,12.26165771484375 L 17.30487823486328,12.4713134765625" fill="none" stroke="#000000" stroke-width="1"/>
	<path d="M 19.997825622558594,12.377288818359375 L 19.997825622558594,12.377288818359375 L 20.184532165527344,12.575759887695312 L 20.379615783691406,12.758255004882812 L 20.576377868652344,12.940750122070312 L 20.771461486816406,13.156784057617188 L 20.96654510498047,13.37762451171875 L 21.08953094482422,13.622421264648438 L 21.087318420410156,14.01416015625 L 20.90233612060547,14.460205078125 L 20.75257110595703,14.9078369140625 L 20.66651153564453,15.392196655273438 L 20.57207489013672,15.876556396484375 L 20.395469665527344,16.332183837890625 L 20.05956268310547,16.656845092773438 L 19.68675994873047,16.733932495117188 L 19.317298889160156,16.645645141601562 L 18.95287322998047,16.463134765625 L 18.621986389160156,16.248687744140625 L 18.29277801513672,16.013473510742188 L 18.00548553466797,15.711181640625 L 17.832237243652344,15.298675537109375 L 17.80487823486328,14.815887451171875 L 17.840660095214844,14.329910278320312 L 17.928428649902344,13.829910278320312 L 18.178871154785156,13.353515625 L 18.561790466308594,13.001693725585938 L 19.013465881347656,12.7489013671875 L 19.48694610595703,12.564788818359375 L 19.953697204589844,12.29443359375 M 20.043296813964844,9.698333740234375 L 20.043296813964844,9.698333740234375 L 20.15119171142578,9.501449584960938 L 20.39995574951172,9.223098754882812 L 20.69231414794922,8.952743530273438 L 20.99304962158203,8.682388305664062 L 21.261924743652344,8.373687744140625 L 21.217796325683594,7.873687744140625 L 21.042869567871094,7.37652587890625 L 20.86626434326172,6.8809661865234375 L 20.68798065185547,6.3809661865234375 L 20.44261932373047,5.9397125244140625 L 19.94263458251953,5.856231689453125 L 19.442649841308594,6.0882415771484375 L 19.004432678222656,6.4224853515625 L 18.628273010253906,6.838165283203125 L 18.42650604248047,7.3369140625 L 18.291831970214844,7.8368988037109375 L 18.341041564941406,8.336883544921875 L 18.413719177246094,8.836868286132812 L 18.779869079589844,9.209426879882812 L 19.241600036621094,9.466995239257812 L 19.70500946044922,9.724563598632812 L 20.165061950683594,10.039627075195312 M 18.89136505126953,8.361572265625 L 18.89136505126953,8.361572265625 L 18.78351593017578,8.55206298828125 L 18.655540466308594,8.945388793945312 L 18.76007843017578,9.071975708007812 L 18.958534240722656,9.286422729492188 L 19.225730895996094,9.400253295898438 L 19.415794372558594,9.547622680664062 M 18.430519104003906,8.563186645507812 L 18.430519104003906,8.563186645507812 L 18.563575744628906,8.691375732421875 L 18.706687927246094,8.843521118164062 L 18.901771545410156,8.950958251953125 L 19.13207244873047,8.956161499023438 L 19.36573028564453,8.859893798828125 L 19.59101104736328,8.6358642578125 L 19.811256408691406,8.5699462890625 L 20.036537170410156,8.57037353515625 L 20.265174865722656,8.749679565429688 L 20.324440002441406,8.587936401367188 L 20.330039978027344,8.149871826171875 L 20.304359436035156,7.780487060546875 L 20.20824432373047,7.4717864990234375 L 20.034996032714844,7.2014312744140625 L 19.69573211669922,7.108367919921875 L 19.30950164794922,7.2796783447265625 L 18.98699188232422,7.6426544189453125 L 18.98699188232422,7.967315673828125 L 19.07141876220703,8.38299560546875 L 19.25812530517578,8.805084228515625 L 19.52198028564453,8.933273315429688 L 19.829429626464844,9.05828857421875 L 20.14527130126953,8.823074340820312 L 20.12462615966797,8.565505981445312 L 20.12519073486328,8.314315795898438 M 19.839256286621094,14.028121948242188 L 19.839256286621094,14.028121948242188 L 20.025962829589844,14.177078247070312 L 20.219383239746094,14.401107788085938 L 20.10985565185547,14.644302368164062 L 19.98188018798828,15.020065307617188 L 19.758323669433594,15.416595458984375 L 19.38886260986328,15.72686767578125 L 18.888877868652344,15.544357299804688 L 18.63513946533203,15.361846923828125 L 18.485374450683594,14.88226318359375 L 18.75928497314453,14.528854370117188 L 19.088539123535156,14.239334106445312 L 19.464744567871094,14.0264892578125 L 19.86443328857422,14.04608154296875 L 20.202064514160156,14.401077270507812 M 19.220603942871094,14.960922241210938 L 19.220603942871094,14.960922241210938 L 19.05071258544922,14.826324462890625 L 18.880821228027344,14.691726684570312 L 19.025611877441406,14.636978149414062 L 19.222373962402344,14.56787109375 L 19.55162811279297,14.521133422851562 L 19.495765686035156,14.670089721679688 L 19.44158172607422,14.913284301757812 L 19.276710510253906,15.039871215820312 L 19.207435607910156,14.902084350585938 L 19.134788513183594,14.719573974609375 L 19.06383514404297,14.532272338867188 L 19.171730041503906,14.658859252929688 L 19.32489776611328,14.838165283203125 L 19.289146423339844,14.687591552734375 L 19.24669647216797,14.505081176757812 M 19.17107391357422,8.241973876953125 L 19.17107391357422,8.241973876953125 L 19.359458923339844,8.051483154296875 M 19.40363311767578,7.90411376953125 L 19.40363311767578,7.90411376953125 L 19.44780731201172,7.699249267578125 L 19.53223419189453,7.4959716796875 L 19.63007354736328,7.6209869384765625 L 19.679283142089844,7.928070068359375 L 19.735191345214844,8.214385986328125 L 19.518333435058594,8.246749877929688 L 19.40544891357422,8.376541137695312 L 19.21710968017578,8.3760986328125 L 19.26799774169922,8.206375122070312 L 19.53185272216797,7.897674560546875 L 19.812477111816406,7.8876495361328125 L 19.68114471435547,7.9775238037109375 L 19.34020233154297,8.105712890625 L 19.401145935058594,7.959930419921875 L 19.46710968017578,7.8061676025390625 L 19.54985809326172,7.5549774169921875 M 20.081687927246094,12.419509887695312 L 20.081687927246094,12.419509887695312 L 20.233177185058594,12.499801635742188 L 20.40479278564453,12.580093383789062 L 20.57640838623047,12.660385131835938 L 20.726219177246094,12.807754516601562 L 20.871009826660156,12.97589111328125 L 20.818504333496094,13.300552368164062 L 20.867713928222656,13.505401611328125 L 20.90851593017578,13.737411499023438 L 21.05664825439453,13.761795043945312 L 21.20813751220703,13.765411376953125 L 21.35962677001953,13.794570922851562 L 21.359092712402344,13.94512939453125 L 21.26129913330078,14.1915283203125 L 21.158485412597656,14.452285766601562 L 21.291542053222656,14.553329467773438 L 21.456459045410156,14.654373168945312 L 21.560997009277344,14.886383056640625 L 21.51183319091797,15.124786376953125 L 21.424110412597656,15.361602783203125 L 21.23577117919922,15.617584228515625 L 21.148048400878906,15.868759155273438 L 20.97480010986328,16.13751220703125 L 20.95415496826172,16.371124267578125 L 20.82953643798828,16.617523193359375 L 20.550636291503906,16.943771362304688 L 20.184532165527344,17.150222778320312 M 19.776573181152344,16.546768188476562 L 19.776573181152344,16.546768188476562 L 20.05384063720703,16.77398681640625 L 20.25060272216797,17.100234985351562 L 20.361839294433594,17.2220458984375 M 20.63970184326172,16.807937622070312 L 20.63970184326172,16.807937622070312 L 20.82305145263672,17.051132202148438 L 20.99634552001953,17.37579345703125 M 21.215599060058594,15.956954956054688 L 21.215599060058594,15.956954956054688 L 21.507957458496094,16.120285034179688 L 21.736595153808594,16.43695068359375 M 21.45105743408203,15.147811889648438 L 21.45105743408203,15.147811889648438 L 21.780311584472656,15.137786865234375 L 22.060935974121094,15.507171630859375 L 22.03191375732422,16.004318237304688 M 21.587120056152344,14.260040283203125 L 21.587120056152344,14.260040283203125 L 21.850975036621094,14.386627197265625 L 22.07793426513672,14.778366088867188 L 22.135520935058594,15.059890747070312 M 21.305564880371094,13.720138549804688 L 21.305564880371094,13.720138549804688 L 21.57276153564453,13.84832763671875 L 21.86176300048828,14.016464233398438 L 22.085365295410156,14.074386596679688 L 22.282127380371094,14.306396484375 M 20.819419860839844,12.872726440429688 L 20.819419860839844,12.872726440429688 L 20.95581817626953,12.750900268554688 L 21.102272033691406,12.665817260742188 L 21.283958435058594,12.718948364257812 L 21.46228790283203,12.903045654296875 L 21.65235137939453,13.181381225585938 L 21.85584259033203,13.31915283203125 M 20.175315856933594,9.639602661132812 L 20.175315856933594,9.639602661132812 L 20.323448181152344,9.554519653320312 L 20.553749084472656,9.469436645507812 L 20.82935333251953,9.409912109375 L 21.10662078857422,9.35516357421875 L 21.30004119873047,9.225357055664062 M 20.98542022705078,8.631912231445312 L 20.98542022705078,8.631912231445312 L 21.33478546142578,8.651504516601562 L 21.67241668701172,8.560043334960938 L 21.758522033691406,8.259353637695312 L 21.72277069091797,7.949066162109375 L 21.763572692871094,7.7729339599609375 M 21.17729949951172,7.572418212890625 L 21.17729949951172,7.572418212890625 L 21.417686462402344,7.271728515625 L 21.60271453857422,6.9997711181640625 L 21.65526580810547,6.707061767578125 L 21.48369598388672,6.403167724609375 M 20.76439666748047,6.5393218994140625 L 20.76439666748047,6.5393218994140625 L 20.956138610839844,6.3823699951171875 L 21.159629821777344,6.132781982421875 L 21.218894958496094,5.9406890869140625 L 21.398902893066406,5.7469940185546875 L 21.37657928466797,5.537322998046875 M 20.44768524169922,5.816497802734375 L 20.44768524169922,5.816497802734375 L 20.714881896972656,5.6803131103515625 L 20.992149353027344,5.4866180419921875 L 20.992149353027344,5.2545928955078125 L 20.97150421142578,4.955474853515625" fill="none" stroke="#000000" stroke-width="1"/>
	<path d="M 13.695121765136719,10.916519165039062 L 13.695121765136719,10.916519165039062 L 13.518516540527344,10.673309326171875 L 13.043403625488281,10.406143188476562 L 12.700782775878906,10.80267333984375 L 12.738243103027344,11.302658081054688 L 13.206672668457031,11.541061401367188 L 13.680152893066406,11.329788208007812 L 13.555534362792969,10.829788208007812" fill="none" stroke="#000000" stroke-width="1"/>
</svg>
