<?xml version="1.0" ?>
<svg baseProfile="full" height="195mm" version="1.1" viewBox="0 0 27.5 19.5" width="275mm" xmlns="http://www.w3.org/2000/svg" xmlns:ev="http://www.w3.org/2001/xml-events" xmlns:xlink="http://www.w3.org/1999/xlink">
	<defs/>
	<path d="M 16.980026245117188,9.31005859375 L 16.980026245117188,9.31005859375 L 16.637405395507812,9.36798095703125 L 16.20086669921875,9.18707275390625 L 15.700881958007812,8.986984252929688 L 15.353225708007812,8.574478149414062 L 15.005569458007812,8.36163330078125 L 14.761886596679688,8.844406127929688 L 15.1783447265625,9.175445556640625 M 15.025787353515625,9.089187622070312 L 15.025787353515625,9.089187622070312 L 14.617767333984375,9.434600830078125 L 14.519973754882812,9.934585571289062 L 14.939773559570312,10.303970336914062 L 15.399826049804688,10.535980224609375 M 15.194168090820312,10.697265625 L 15.194168090820312,10.697265625 L 15.022598266601562,11.194412231445312 L 15.482650756835938,11.428024291992188 L 15.691162109375,10.948440551757812 L 15.74371337890625,10.448440551757812 M 15.777435302734375,9.33380126953125 L 15.777435302734375,9.33380126953125 L 15.96917724609375,9.517898559570312 L 16.001602172851562,10.01788330078125 L 15.648910522460938,10.452743530273438" fill="none" stroke="#000000" stroke-width="1"/>
	<path d="M 18.286865234375,12.586654663085938 L 18.286865234375,12.586654663085938 L 18.4769287109375,12.871368408203125 L 18.707229614257812,13.245529174804688 L 18.939208984375,13.693161010742188 L 19.171188354492188,14.140792846679688 L 19.40484619140625,14.620376586914062 L 19.551300048828125,15.120361328125 M 19.35235595703125,14.9326171875 L 19.35235595703125,14.9326171875 L 19.125442504882812,14.9241943359375 L 18.895172119140625,15.022048950195312 L 18.66656494140625,15.13427734375 L 18.437957763671875,15.132232666015625 L 18.298248291015625,14.829940795898438 L 18.327316284179688,14.657012939453125 L 18.35638427734375,14.388259887695312 L 18.349151611328125,14.09234619140625 L 18.289932250976562,13.796432495117188 L 18.120040893554688,13.500518798828125 L 18.120040893554688,13.159881591796875 L 18.31512451171875,12.721817016601562 L 18.550460815429688,12.622360229492188 M 18.783584594726562,13.742889404296875 L 18.783584594726562,13.742889404296875 L 18.72100830078125,14.029205322265625 L 18.895980834960938,14.336288452148438 L 19.300704956054688,14.360671997070312 M 17.74560546875,12.785232543945312 L 17.74560546875,12.785232543945312 L 17.743392944335938,13.014053344726562 L 17.670745849609375,13.327529907226562 L 17.860809326171875,13.642593383789062 L 17.968704223632812,14.122177124023438 L 17.939682006835938,14.622161865234375 L 18.005645751953125,15.122146606445312 L 18.230926513671875,15.571365356445312 M 18.97015380859375,12.601699829101562 L 18.97015380859375,12.601699829101562 L 18.758331298828125,12.478271484375 L 18.466018676757812,12.295761108398438 L 18.526962280273438,12.473464965820312 M 18.33868408203125,11.618408203125 L 18.33868408203125,11.618408203125 L 18.577392578125,11.536529541015625 L 18.951919555664062,11.464218139648438 L 19.346588134765625,11.581222534179688 M 19.166091918945312,11.456649780273438 L 19.166091918945312,11.456649780273438 L 19.175048828125,11.956634521484375 M 18.71734619140625,11.669448852539062 L 18.71734619140625,11.669448852539062 L 18.63128662109375,11.237762451171875 M 18.353561401367188,10.749008178710938 L 18.353561401367188,10.749008178710938 L 18.114898681640625,10.749435424804688 L 18.170806884765625,10.61004638671875 L 18.328994750976562,10.298171997070312 L 18.698501586914062,9.933578491210938 L 18.928802490234375,9.449203491210938 L 19.157440185546875,8.963226318359375 L 19.386077880859375,8.477249145507812 M 18.98370361328125,8.915725708007812 L 18.98370361328125,8.915725708007812 L 18.987640380859375,8.632598876953125 L 18.7020263671875,8.4117431640625 L 18.4566650390625,8.536758422851562 L 18.286773681640625,8.749603271484375 L 18.121902465820312,8.996002197265625 L 18.162704467773438,9.459609985351562 L 18.223648071289062,9.9232177734375 L 18.33154296875,10.386825561523438 L 18.546768188476562,10.516616821289062 M 18.8240966796875,9.20037841796875 L 18.8240966796875,9.20037841796875 L 18.625686645507812,9.309402465820312 L 18.35516357421875,9.53662109375 L 18.585464477539062,9.929946899414062 M 17.649917602539062,10.219879150390625 L 17.649917602539062,10.219879150390625 L 17.480026245117188,9.947921752929688 L 17.4805908203125,9.50506591796875 L 17.62872314453125,9.035064697265625 L 17.83221435546875,8.541107177734375 L 18.173202514648438,8.125411987304688" fill="none" stroke="#000000" stroke-width="1"/>
	<path d="M 13.705047607421875,13.6156005859375 L 13.705047607421875,13.6156005859375 L 13.629058837890625,13.147201538085938 L 13.455810546875,12.647201538085938 L 13.282562255859375,12.147201538085938 L 13.251861572265625,11.647201538085938 L 13.227859497070312,11.147201538085938 L 13.203857421875,10.647201538085938 L 13.17315673828125,10.147201538085938 L 13.139083862304688,9.647201538085938 L 13.105010986328125,9.147201538085938 L 13.070938110351562,8.647201538085938 L 13.071502685546875,8.147201538085938 L 13.100570678710938,7.6472015380859375 L 13.096694946289062,7.1472015380859375 L 12.596710205078125,7.1419830322265625 M 12.831588745117188,6.9231719970703125 L 12.831588745117188,6.9231719970703125 L 12.504058837890625,7.191925048828125 L 12.0557861328125,7.4798431396484375 L 11.587387084960938,7.73101806640625 M 12.767471313476562,6.9610595703125 L 12.767471313476562,6.9610595703125 L 12.267486572265625,7.0301666259765625 L 11.767501831054688,7.251007080078125 L 11.275634765625,7.489410400390625 L 10.788787841796875,7.735809326171875 L 10.337158203125,8.052474975585938 L 9.971054077148438,8.476150512695312 L 9.727371215820312,8.95892333984375 L 9.550765991210938,9.457672119140625 L 9.51165771484375,9.957656860351562 L 9.565887451171875,10.4576416015625 L 9.702285766601562,10.957626342773438 L 9.925888061523438,11.446792602539062 L 10.193084716796875,11.910400390625 L 10.465316772460938,12.367630004882812 L 10.802947998046875,12.770538330078125 L 11.214370727539062,13.093597412109375 L 11.645919799804688,13.384719848632812 L 12.100936889648438,13.627914428710938 L 12.56768798828125,13.82318115234375 L 13.049545288085938,13.954574584960938 L 13.534759521484375,14.081161499023438 L 14.019973754882812,14.207748413085938 M 12.619888305664062,13.661788940429688 L 12.619888305664062,13.661788940429688 L 12.294036865234375,13.244491577148438 L 11.968185424804688,12.827194213867188 L 11.642333984375,12.409896850585938 L 11.385238647460938,11.951080322265625 L 11.201934814453125,11.4619140625 L 11.094085693359375,10.9619140625 L 11.019760131835938,10.4619140625 L 11.02703857421875,9.9619140625 L 11.131576538085938,9.4619140625 L 11.324996948242188,8.966354370117188 L 11.598907470703125,8.525100708007812 L 11.881210327148438,8.090240478515625 L 12.178604125976562,7.6713409423828125 L 12.568222045898438,7.3291015625 L 12.9813232421875,7.0268096923828125 M 13.065750122070312,7.178955078125 L 13.065750122070312,7.178955078125 L 13.168609619140625,7.6789398193359375 L 13.271469116210938,8.178924560546875 L 13.172012329101562,8.678909301757812 M 12.49578857421875,8.646087646484375 L 12.49578857421875,8.646087646484375 L 11.995803833007812,8.678451538085938 L 11.495819091796875,8.72998046875 M 12.853103637695312,9.75225830078125 L 12.853103637695312,9.75225830078125 L 12.353118896484375,9.83892822265625 L 11.853134155273438,9.923995971679688 L 11.3531494140625,10.007461547851562 L 10.853164672851562,10.090927124023438 M 12.9332275390625,11.193923950195312 L 12.9332275390625,11.193923950195312 L 12.587234497070312,11.247055053710938 L 12.087249755859375,11.386428833007812 L 11.587265014648438,11.525802612304688 L 11.0872802734375,11.665176391601562 M 13.209320068359375,12.796051025390625 L 13.209320068359375,12.796051025390625 L 12.714096069335938,12.975357055664062 L 12.214111328125,13.1546630859375 L 11.714126586914062,13.333969116210938 M 11.530303955078125,12.528106689453125 L 11.530303955078125,12.528106689453125 L 11.073654174804688,12.803237915039062 L 10.57366943359375,12.869140625 M 10.821365356445312,11.70745849609375 L 10.821365356445312,11.70745849609375 L 10.321380615234375,11.837249755859375 M 10.620223999023438,10.122894287109375 L 10.620223999023438,10.122894287109375 L 10.1202392578125,10.209564208984375 L 9.620254516601562,10.296234130859375 M 10.964157104492188,8.579849243164062 L 10.964157104492188,8.579849243164062 L 10.46417236328125,8.561843872070312 L 9.964187622070312,8.543838500976562" fill="none" stroke="#000000" stroke-width="1"/>
</svg>
