<?xml version="1.0" ?>
<svg baseProfile="full" height="195mm" version="1.1" viewBox="0 0 27.5 19.5" width="275mm" xmlns="http://www.w3.org/2000/svg" xmlns:ev="http://www.w3.org/2001/xml-events" xmlns:xlink="http://www.w3.org/1999/xlink">
	<defs/>
	<path d="M 17.062095642089844,13.987411499023438 L 17.062095642089844,13.987411499023438 L 17.114646911621094,14.487396240234375 L 16.907859802246094,14.981338500976562 L 16.469642639160156,15.2564697265625 L 16.014671325683594,15.494873046875 L 15.514686584472656,15.472076416015625 L 15.076469421386719,15.1553955078125 L 15.005516052246094,14.838714599609375 L 15.034584045410156,14.52203369140625 L 15.112281799316406,14.205352783203125 L 15.111747741699219,13.705352783203125 L 14.933464050292969,13.205352783203125 L 14.751838684082031,12.705352783203125 L 14.660758972167969,12.205352783203125 L 14.673072814941406,11.705352783203125 L 14.705497741699219,11.205352783203125 L 14.737922668457031,10.705352783203125 L 14.708900451660156,10.205352783203125 L 14.654716491699219,9.705352783203125 L 14.521705627441406,9.205352783203125 L 14.385353088378906,8.705352783203125 L 14.416099548339844,8.205352783203125 L 14.627967834472656,7.722564697265625 L 15.119880676269531,7.81243896484375 L 15.610115051269531,8.0029296875 L 16.11011505126953,8.0029296875" fill="none" stroke="#000000" stroke-width="1"/>
	<path d="M 18.11040496826172,6.83306884765625 L 18.11040496826172,6.83306884765625 L 17.81641387939453,6.867034912109375 L 17.614646911621094,7.362579345703125 L 17.67559051513672,7.8625640869140625 L 17.934410095214844,8.346923828125 L 18.30223846435547,8.737060546875 L 18.30223846435547,8.552947998046875 L 18.343040466308594,8.052947998046875 L 18.372108459472656,7.552947998046875 L 18.24077606201172,7.052947998046875 L 18.079261779785156,6.552947998046875 M 18.04975128173828,7.28216552734375 L 18.04975128173828,7.28216552734375 L 17.81444549560547,7.528564453125 L 18.034690856933594,8.02410888671875 L 18.432701110839844,8.121963500976562 M 18.28534698486328,11.204193115234375 L 18.28534698486328,11.204193115234375 L 18.57770538330078,11.43780517578125 L 18.89354705810547,11.88702392578125 L 19.125526428222656,12.369796752929688 L 19.159629821777344,12.869781494140625 L 18.952842712402344,13.3685302734375 L 18.715858459472656,13.8544921875 L 18.400062561035156,14.3021240234375 M 18.60303497314453,13.580474853515625 L 18.60303497314453,13.580474853515625 L 18.31407928466797,13.359619140625 L 17.87921905517578,13.049331665039062 L 17.811622619628906,12.549331665039062 L 17.944679260253906,12.049331665039062 L 18.258827209472656,11.632034301757812 L 18.55622100830078,11.209945678710938 M 18.96044158935547,12.982589721679688 L 18.96044158935547,12.982589721679688 L 19.18236541748047,12.570083618164062 L 18.727394104003906,12.280563354492188 L 18.22881317138672,12.523757934570312 L 18.48595428466797,13.00811767578125 L 18.96949005126953,12.918228149414062" fill="none" stroke="#000000" stroke-width="1"/>
	<path d="M 13.512474060058594,12.14630126953125 L 13.512474060058594,12.14630126953125 L 13.617012023925781,12.349578857421875 L 13.723228454589844,12.557632446289062 L 13.832801818847656,12.764083862304688 L 13.885353088378906,12.970535278320312 L 13.857994079589844,13.184982299804688 L 13.683067321777344,13.444137573242188 L 13.417594909667969,13.77197265625 L 13.232612609863281,14.163711547851562 L 13.094581604003906,14.58099365234375 L 12.969963073730469,15.007858276367188 L 12.875526428222656,15.433120727539062 L 12.819664001464844,15.855209350585938 M 12.748710632324219,15.720611572265625 L 12.748710632324219,15.720611572265625 L 12.669364929199219,15.576431274414062 L 12.566551208496094,15.4130859375 L 12.451988220214844,15.249740600585938 L 12.339103698730469,15.086395263671875 L 12.226219177246094,14.918258666992188 L 12.148551940917969,14.74853515625 L 12.085975646972656,14.578811645507812 L 12.085975646972656,14.410675048828125 L 12.111701965332031,14.242538452148438 L 12.137428283691406,14.07440185546875 L 12.168174743652344,13.906265258789062 L 12.193901062011719,13.738128662109375 L 12.201179504394531,13.569992065429688 L 12.195625305175781,13.40185546875 L 12.161552429199219,13.233718872070312 L 12.127479553222656,13.065582275390625 L 12.093406677246094,12.897445678710938 L 12.059333801269531,12.72930908203125 L 12.025260925292969,12.561172485351562 L 11.991188049316406,12.393035888671875 L 11.955436706542969,12.224899291992188 L 11.919685363769531,12.0567626953125 L 11.888984680175781,11.888626098632812 L 11.870018005371094,11.720489501953125 L 11.870018005371094,11.550765991210938 L 11.939338684082031,11.390625 L 12.045555114746094,11.254440307617188 L 12.195365905761719,11.119842529296875 L 12.345176696777344,10.985244750976562 L 12.458091735839844,10.802734375 L 12.512321472167969,10.625015258789062 L 12.483299255371094,10.421737670898438 L 12.415702819824219,10.212066650390625 L 12.343055725097656,9.999221801757812 L 12.312355041503906,9.802337646484375 M 12.371620178222656,9.640594482421875 L 12.371620178222656,9.640594482421875 L 12.447639465332031,9.464462280273438 L 12.543800354003906,9.2867431640625 L 12.639961242675781,9.109024047851562 M 12.746177673339844,9.216461181640625 L 12.746177673339844,9.216461181640625 L 12.854072570800781,9.339874267578125 L 12.998863220214844,9.568695068359375 L 13.172157287597656,9.8118896484375 L 13.342109680175781,10.056686401367188 L 13.512062072753906,10.301483154296875 L 13.680335998535156,10.544677734375 L 13.823448181152344,10.805435180664062 L 13.884391784667969,11.1732177734375 L 13.843620300292969,11.657577514648438 L 13.677070617675781,12.141937255859375 L 13.458549499511719,12.626296997070312 M 12.873542785644531,10.227493286132812 L 12.873542785644531,10.227493286132812 L 12.871330261230469,10.411590576171875 L 12.869117736816406,10.64520263671875 L 12.865242004394531,10.878814697265625 L 12.859687805175781,11.1124267578125 L 12.854133605957031,11.346038818359375 L 12.848579406738281,11.57965087890625 L 12.843025207519531,11.813262939453125 L 12.837471008300781,12.046875 L 12.831916809082031,12.280487060546875 L 12.826362609863281,12.518890380859375 L 12.820808410644531,12.757293701171875 L 12.815254211425781,13.00048828125 L 12.809700012207031,13.243682861328125 L 12.804145812988281,13.48687744140625 L 12.796913146972656,13.72528076171875 L 12.789680480957031,13.968475341796875 L 12.782447814941406,14.208465576171875 L 12.775215148925781,14.448455810546875 L 12.767982482910156,14.688446044921875 L 12.760749816894531,14.928436279296875 M 12.306129455566406,10.168106079101562 L 12.306129455566406,10.168106079101562 L 12.280448913574219,10.347412109375 L 12.254768371582031,10.526718139648438 L 12.229087829589844,10.707626342773438 L 12.203407287597656,10.888534545898438 L 12.177726745605469,11.069442749023438 L 12.152046203613281,11.250350952148438 L 12.126365661621094,11.431259155273438 L 12.100685119628906,11.612167358398438 M 11.720161437988281,11.820587158203125 L 11.720161437988281,11.820587158203125 L 11.749229431152344,12.050994873046875 L 11.778297424316406,12.294189453125 L 11.807365417480469,12.537384033203125 L 11.836433410644531,12.78057861328125 L 11.863838195800781,13.025375366210938 L 11.848228454589844,13.270172119140625 L 11.773902893066406,13.514968872070312 L 11.650962829589844,13.7406005859375 L 11.521308898925781,13.97100830078125 L 11.425193786621094,14.2205810546875 L 11.379386901855469,14.514877319335938 L 11.411811828613281,14.897018432617188 L 11.457664489746094,15.283966064453125 L 11.503517150878906,15.670913696289062 L 11.616432189941406,15.918899536132812 M 11.640052795410156,11.4403076171875 L 11.640052795410156,11.4403076171875 L 11.746269226074219,11.227462768554688 L 11.864219665527344,10.990646362304688 L 11.779838562011719,10.862442016601562 L 11.677024841308594,10.72625732421875 L 11.565818786621094,10.546951293945312 L 11.454612731933594,10.362838745117188 L 11.418861389160156,10.1771240234375 L 11.418861389160156,9.993011474609375 L 11.458000183105469,9.810501098632812 L 11.528999328613281,9.583267211914062 L 11.601676940917969,9.308120727539062 L 11.634101867675781,9.020187377929688 L 11.506126403808594,8.716293334960938 L 11.332878112792969,8.406005859375 L 11.287071228027344,8.0350341796875 L 11.473777770996094,7.6640625 L 11.747688293457031,7.449615478515625 M 10.984428405761719,11.181060791015625 L 10.984428405761719,11.181060791015625 L 10.988365173339844,11.411468505859375 L 10.993965148925781,11.728134155273438 L 10.999565124511719,12.075149536132812 L 11.005165100097656,12.422164916992188 L 11.007423400878906,12.884170532226562 M 10.832756042480469,10.517959594726562 L 10.832756042480469,10.517959594726562 L 10.756767272949219,10.666915893554688 L 10.675743103027344,10.815872192382812 L 10.589683532714844,10.964828491210938 L 10.503623962402344,11.113784790039062 L 10.415901184082031,11.262741088867188 L 10.338233947753906,11.421295166015625 L 10.268959045410156,11.594207763671875 L 10.219795227050781,11.775115966796875 L 10.190773010253906,11.9991455078125 L 10.178504943847656,12.283859252929688 L 10.210929870605469,12.731491088867188 L 10.258460998535156,13.231475830078125 L 10.317726135253906,13.731460571289062 L 10.588279724121094,14.201446533203125 L 10.915855407714844,14.644287109375 M 13.346626281738281,12.203094482421875 L 13.346626281738281,12.203094482421875 L 13.196861267089844,12.224273681640625 L 13.028633117675781,12.24066162109375 M 13.391487121582031,12.401229858398438 L 13.391487121582031,12.401229858398438 L 13.240028381347656,12.427215576171875 L 13.068458557128906,12.453201293945312 L 12.841545104980469,12.47918701171875 M 12.654151916503906,11.822189331054688 L 12.654151916503906,11.822189331054688 L 12.706703186035156,12.066986083984375 L 12.764289855957031,12.335739135742188 M 12.522422790527344,13.025772094726562 L 12.522422790527344,13.025772094726562 L 12.581687927246094,12.865631103515625 L 12.640953063964844,12.70068359375 L 12.701896667480469,12.530960083007812 M 12.570671081542969,12.553314208984375 L 12.570671081542969,12.553314208984375 L 12.570137023925781,12.364410400390625 L 12.569602966308594,12.173919677734375 L 12.569068908691406,11.983428955078125" fill="none" stroke="#000000" stroke-width="1"/>
</svg>
