<?xml version="1.0" ?>
<svg baseProfile="full" height="195mm" version="1.1" viewBox="0 0 27.5 19.5" width="275mm" xmlns="http://www.w3.org/2000/svg" xmlns:ev="http://www.w3.org/2001/xml-events" xmlns:xlink="http://www.w3.org/1999/xlink">
	<defs/>
	<path d="M 17.84760284423828,12.180831909179688 L 17.84760284423828,12.180831909179688 L 17.670997619628906,12.181259155273438 L 17.422279357910156,12.181259155273438 L 17.158470153808594,12.205642700195312 L 16.89299774169922,12.230026245117188 L 16.627525329589844,12.254409790039062 L 16.36205291748047,12.2803955078125 L 16.08985137939453,12.35748291015625 L 15.810951232910156,12.519210815429688 L 15.475044250488281,12.751220703125 L 15.132423400878906,12.96087646484375 L 14.771354675292969,12.925308227539062 L 14.406929016113281,12.835418701171875 L 14.042503356933594,12.65130615234375 L 13.812232971191406,12.325042724609375 L 13.652397155761719,11.962051391601562 L 13.654655456542969,11.60064697265625 L 13.702186584472656,11.228073120117188 L 13.758094787597656,10.847518920898438 L 13.842521667480469,10.473342895507812 L 13.950416564941406,10.201385498046875 L 14.100227355957031,10.002899169921875 L 14.291969299316406,9.828369140625 L 14.557487487792969,9.644256591796875 L 14.834754943847656,9.55279541015625 L 15.075141906738281,9.609115600585938 L 15.271903991699219,9.726119995117188 L 15.299308776855469,9.956527709960938 L 15.308265686035156,10.137435913085938 M 14.371742248535156,10.58660888671875 L 14.371742248535156,10.58660888671875 L 14.550071716308594,10.488739013671875 L 14.740135192871094,10.3892822265625 L 14.846351623535156,10.507888793945312 L 14.945854187011719,10.653656005859375 L 15.052070617675781,10.861709594726562" fill="none" stroke="#000000" stroke-width="1"/>
	<path d="M 26.05876922607422,9.569107055664062 L 26.05876922607422,9.569107055664062 L 26.35448455810547,9.397781372070312 L 26.789390563964844,9.124221801757812 L 27.22093963623047,8.823532104492188 L 27.42107391357422,8.348724365234375 L 27.51891326904297,7.856353759765625 L 27.605018615722656,7.363983154296875 L 27.605018615722656,7.1862640380859375 L 27.605018615722656,6.7066802978515625 L 27.45355987548828,6.2066802978515625 L 27.198143005371094,5.7510528564453125 L 26.818626403808594,5.37847900390625 L 26.37873077392578,5.090545654296875 L 25.878746032714844,4.9942779541015625 L 25.378761291503906,5.1416473388671875 L 24.970741271972656,5.45831298828125 L 24.587867736816406,5.8260955810546875 L 24.211708068847656,6.2018585205078125 L 23.835548400878906,6.5792236328125 L 23.632102966308594,7.05560302734375 L 23.68633270263672,7.5555877685546875 L 23.94347381591797,7.9984283447265625 L 24.198936462402344,8.447647094726562 L 24.456077575683594,8.895278930664062 L 24.79370880126953,9.294998168945312 L 25.14643096923828,9.680343627929688 L 25.510902404785156,10.059310913085938 L 25.98773956298828,9.931106567382812 L 26.34046173095703,9.57928466796875 M 25.26073455810547,8.330520629882812 L 25.26073455810547,8.330520629882812 L 25.573204040527344,8.77496337890625 L 26.048362731933594,8.912734985351562 L 26.45476531982422,8.62640380859375 L 26.55762481689453,8.14361572265625 L 26.384376525878906,7.673614501953125 L 26.15074920654297,7.23394775390625 L 25.91712188720703,6.792694091796875 L 25.417137145996094,6.792694091796875 L 24.943702697753906,7.0247039794921875 L 24.861000061035156,7.5234527587890625 L 25.188575744628906,7.9551239013671875 L 25.516151428222656,8.381988525390625 L 26.004722595214844,8.362380981445312 L 26.335655212402344,7.986602783203125 L 26.36640167236328,7.4990234375 L 25.988563537597656,7.142425537109375 L 25.48857879638672,7.20672607421875 L 24.98859405517578,7.3572845458984375 L 25.116615295410156,7.85443115234375 L 25.501197814941406,8.193450927734375 L 25.828773498535156,7.8112945556640625 L 25.784645080566406,7.320526123046875 L 25.334693908691406,7.6387786865234375 L 25.66394805908203,8.076828002929688 L 26.16089630126953,7.9518280029296875 L 26.65784454345703,7.8268280029296875 L 26.209571838378906,7.5756378173828125 L 25.727760314941406,7.378753662109375 L 25.22777557373047,7.53887939453125 L 25.40106964111328,8.038864135742188 L 25.76721954345703,7.6950225830078125 L 25.82648468017578,7.2058563232421875 L 25.34467315673828,7.0121612548828125 L 25.04230499267578,7.4582061767578125 M 25.64067840576172,12.3411865234375 L 25.64067840576172,12.3411865234375 L 25.928016662597656,12.7904052734375 L 26.22541046142578,13.234848022460938 L 26.54125213623047,13.680892944335938 L 26.853721618652344,14.126937866210938 L 26.802879333496094,14.626922607421875 L 26.752037048339844,15.126907348632812 L 26.580467224121094,15.620849609375 L 26.273048400878906,16.0301513671875 L 25.86669158935547,16.350006103515625 L 25.36670684814453,16.4510498046875 L 24.866722106933594,16.324447631835938 L 24.47545623779297,16.017349243164062 L 24.17810821533203,15.636795043945312 L 23.976341247558594,15.200332641601562 L 23.804771423339844,14.74151611328125 L 23.60803985595703,14.276290893554688 L 23.43647003173828,13.817474365234375 L 23.55945587158203,13.331497192382812 L 23.91217803955078,12.966903686523438 L 24.37390899658203,12.742874145507812 L 24.83563995361328,12.522018432617188 L 25.16657257080078,12.15423583984375 L 25.544456481933594,11.845535278320312 L 25.94414520263672,12.21649169921875 M 25.43553924560547,13.436065673828125 L 25.43553924560547,13.436065673828125 L 25.04930877685547,13.795852661132812 L 24.795570373535156,14.241897583007812 L 24.80284881591797,14.740646362304688 L 25.083473205566406,15.1802978515625 L 25.526756286621094,15.42987060546875 L 25.963340759277344,15.151519775390625 L 26.01757049560547,14.6639404296875 L 25.897972106933594,14.1795654296875 L 25.77837371826172,13.6951904296875 L 25.623558044433594,13.214004516601562 L 25.14342498779297,13.406097412109375 L 24.82762908935547,13.840957641601562 L 25.02104949951172,14.328521728515625 L 25.39893341064453,14.701080322265625 L 25.87409210205078,14.515365600585938 L 26.121177673339844,14.072509765625 M 25.90380096435547,15.006118774414062 L 25.90380096435547,15.006118774414062 L 25.561180114746094,15.40423583984375 L 25.061195373535156,15.26165771484375 L 24.966758728027344,14.77886962890625 L 25.238990783691406,14.356781005859375 L 25.67725372314453,14.671844482421875 L 26.02997589111328,14.3072509765625 L 25.66722869873047,14.703781127929688 L 25.25585174560547,15.033218383789062 L 24.807579040527344,14.770843505859375 L 25.18714141845703,15.168960571289062 L 25.653892517089844,15.367431640625 L 25.911033630371094,14.929367065429688 L 25.43090057373047,14.716522216796875 L 24.95410919189453,14.946929931640625 M 23.40709686279297,10.092514038085938 L 23.40709686279297,10.092514038085938 L 23.015830993652344,9.732711791992188 L 22.607810974121094,9.414443969726562 L 22.193077087402344,9.104156494140625 L 21.726356506347656,8.851364135742188 L 21.333412170410156,8.545867919921875 L 21.146751403808594,8.1046142578125 L 20.975181579589844,7.6473846435546875 L 20.610755920410156,7.274810791015625 L 20.122230529785156,7.1290283203125 L 19.62224578857422,7.1290283203125 L 19.12226104736328,7.1550140380859375 L 18.64714813232422,7.3966064453125 L 18.463844299316406,7.6381988525390625 L 18.34760284423828,8.13818359375 L 18.497413635253906,8.638168334960938" fill="none" stroke="#000000" stroke-width="1"/>
	<path d="M 12.590888977050781,8.429214477539062 L 12.590888977050781,8.429214477539062 L 12.283470153808594,8.875259399414062 L 12.386329650878906,9.375244140625 L 12.546211242675781,9.875228881835938 L 12.709449768066406,10.375213623046875 L 12.537879943847656,10.87396240234375 L 12.364631652832031,11.367904663085938 L 12.191383361816406,11.861846923828125 L 12.068443298339844,12.355789184570312 L 11.972328186035156,12.852935791015625 L 11.886268615722656,13.350082397460938 L 12.222221374511719,13.729049682617188 L 12.678916931152344,13.879608154296875 L 13.152397155761719,13.807296752929688 M 12.891349792480469,8.189208984375 L 12.891349792480469,8.189208984375 L 12.391365051269531,8.168014526367188 L 11.891380310058594,8.18121337890625 L 11.679557800292969,8.671981811523438 L 11.474433898925781,9.162750244140625 L 11.269309997558594,9.653518676757812 L 11.129600524902344,10.15350341796875 L 11.092170715332031,10.653488159179688 L 11.081581115722656,11.153472900390625 L 11.065971374511719,11.653457641601562 L 11.050361633300781,12.1534423828125 L 11.034751892089844,12.653427124023438 L 11.019142150878906,13.153411865234375 L 11.326591491699219,13.570693969726562 L 11.709510803222656,13.919296264648438 L 12.194725036621094,13.791091918945312 L 12.597770690917969,13.487197875976562 M 12.423576354980469,8.488815307617188 L 12.423576354980469,8.488815307617188 L 12.449302673339844,8.988800048828125 L 12.383384704589844,9.488784790039062 L 12.210136413574219,9.97314453125 L 12.043586730957031,10.465499877929688 L 11.861961364746094,10.93548583984375 L 11.710502624511719,11.419845581054688 L 11.624443054199219,11.913787841796875 L 11.665245056152344,12.406143188476562 L 11.863700866699219,12.8905029296875 L 12.065513610839844,13.373275756835938 L 11.986167907714844,13.865631103515625" fill="none" stroke="#000000" stroke-width="1"/>
</svg>
