<?xml version="1.0" ?>
<svg baseProfile="full" height="195mm" version="1.1" viewBox="0 0 27.5 19.5" width="275mm" xmlns="http://www.w3.org/2000/svg" xmlns:ev="http://www.w3.org/2001/xml-events" xmlns:xlink="http://www.w3.org/1999/xlink">
	<defs/>
	<path d="M 19.120140075683594,7.459991455078125 L 19.120140075683594,7.459991455078125 L 18.747337341308594,7.8533172607421875 L 18.29570770263672,8.117279052734375 L 17.79572296142578,8.213531494140625 L 17.295738220214844,8.309783935546875 L 16.795753479003906,8.404434204101562 L 16.29576873779297,8.500686645507812 L 15.795783996582031,8.601730346679688 L 15.295799255371094,8.702774047851562 L 14.832420349121094,8.952346801757812 L 14.441154479980469,9.326507568359375 L 13.941169738769531,9.19830322265625 L 13.692451477050781,8.776214599609375 L 13.651679992675781,8.290237426757812 L 13.651145935058594,7.8026580810546875 L 13.707054138183594,7.3134918212890625 L 13.767997741699219,6.8259124755859375 L 13.929557800292969,6.3383331298828125 L 14.265510559082031,5.922637939453125 L 14.723884582519531,5.657073974609375 M 14.143486022949219,6.4201812744140625 L 14.143486022949219,6.4201812744140625 L 14.643486022949219,6.5691375732421875 L 14.612785339355469,7.069122314453125 L 14.441215515136719,7.5630645751953125 L 14.189140319824219,8.013885498046875 L 13.772727966308594,8.340133666992188 L 13.299293518066406,8.5146484375 M 13.506874084472656,6.8824462890625 L 13.506874084472656,6.8824462890625 L 13.303428649902344,6.88287353515625 L 12.803443908691406,6.802581787109375 L 12.678825378417969,6.6759796142578125 M 13.593971252441406,7.169891357421875 L 13.593971252441406,7.169891357421875 L 13.137321472167969,7.446624755859375 L 12.663887023925781,7.6818389892578125 M 13.707923889160156,7.796783447265625 L 13.707923889160156,7.796783447265625 L 13.301567077636719,8.121444702148438 L 12.859992980957031,8.371017456054688 L 12.379859924316406,8.553512573242188" fill="none" stroke="#000000" stroke-width="1"/>
	<path d="M 20.343238830566406,6.576629638671875 L 20.343238830566406,6.576629638671875 L 20.833473205566406,6.6121978759765625 L 21.32874298095703,6.64776611328125 L 21.824012756347656,6.6833343505859375 L 22.317604064941406,6.718902587890625 L 22.811195373535156,6.7544708251953125 L 23.304786682128906,6.7884368896484375 L 23.798377990722656,6.8224029541015625 L 24.291969299316406,6.8563690185546875 L 24.31769561767578,7.0053253173828125 L 24.303749084472656,7.3667144775390625 L 24.25458526611328,7.86669921875 L 24.205421447753906,8.366683959960938 L 24.15625762939453,8.866668701171875 L 24.107093811035156,9.366653442382812 L 24.05792999267578,9.86663818359375 L 24.01044464111328,10.366622924804688 L 23.961280822753906,10.866607666015625 L 23.78803253173828,10.819869995117188 L 23.288047790527344,10.731582641601562 L 22.788063049316406,10.643295288085938 L 22.28807830810547,10.555007934570312 L 21.78809356689453,10.466720581054688 L 21.288108825683594,10.380035400390625 L 20.788124084472656,10.294952392578125 L 20.28813934326172,10.209869384765625 L 19.78815460205078,10.123184204101562 L 19.80884552001953,9.942276000976562 L 19.873130798339844,9.451507568359375 L 19.93909454345703,8.951507568359375 L 20.00505828857422,8.451507568359375 L 20.07270050048828,7.951507568359375 L 20.140342712402344,7.451507568359375 L 20.207984924316406,6.951507568359375 L 20.273948669433594,6.451507568359375 M 21.00981903076172,8.873519897460938 L 21.00981903076172,8.873519897460938 L 20.640357971191406,8.786834716796875 L 20.14037322998047,8.701751708984375 L 20.14037322998047,8.890640258789062 L 20.14037322998047,9.390625 L 20.14093780517578,9.589096069335938 L 20.381324768066406,9.589523315429688 L 20.859825134277344,9.560348510742188 L 21.202491760253906,9.586334228515625 L 21.253379821777344,9.379867553710938 L 21.42499542236328,8.879867553710938 M 23.639366149902344,11.907333374023438 L 23.639366149902344,11.907333374023438 L 23.139381408691406,11.822250366210938 L 22.63939666748047,11.73876953125 L 22.13941192626953,11.655288696289062 L 21.639427185058594,11.571807861328125 L 21.139442443847656,11.48992919921875 L 20.63945770263672,11.408050537109375 L 20.13947296142578,11.326171875 L 19.639488220214844,11.244293212890625 L 19.639488220214844,11.434783935546875 L 19.63727569580078,11.934768676757812 L 19.63506317138672,12.43475341796875 L 19.631187438964844,12.934738159179688 L 19.62731170654297,13.434722900390625 L 19.62677764892578,13.934707641601562 L 19.62456512451172,14.4346923828125 L 19.622352600097656,14.934677124023438 L 19.620140075683594,15.434661865234375 L 19.877281188964844,15.49737548828125 L 20.35076141357422,15.60321044921875 L 20.824241638183594,15.70904541015625 L 21.29772186279297,15.81488037109375 L 21.771202087402344,15.92071533203125 L 22.24468231201172,16.02655029296875 L 22.718162536621094,16.13238525390625 L 23.19164276123047,16.23822021484375 L 23.665122985839844,16.34405517578125 L 24.13860321044922,16.44989013671875 L 24.19451141357422,15.94989013671875 L 24.23029327392578,15.44989013671875 L 24.262718200683594,14.94989013671875 L 24.295143127441406,14.44989013671875 L 24.32756805419922,13.94989013671875 L 24.35999298095703,13.44989013671875 L 24.392417907714844,12.94989013671875 L 24.424842834472656,12.44989013671875 L 24.45726776123047,11.94989013671875 L 23.95728302001953,11.906326293945312 L 23.457298278808594,11.9027099609375 M 20.848228454589844,12.085906982421875 L 20.848228454589844,12.085906982421875 L 20.348243713378906,12.002426147460938 L 19.84825897216797,11.9189453125 L 19.84882354736328,12.334625244140625 L 19.80133819580078,12.834609985351562 L 19.75049591064453,13.3345947265625 L 20.23906707763672,13.299026489257812 L 20.717567443847656,13.299026489257812 L 21.196067810058594,13.302642822265625 L 21.190513610839844,13.121734619140625 L 21.190513610839844,12.621734619140625 L 21.191078186035156,12.121734619140625 L 21.048011779785156,12.038253784179688 M 25.24724578857422,12.256744384765625 L 25.24724578857422,12.256744384765625 L 25.54296112060547,12.701187133789062 L 25.82526397705078,13.147232055664062 L 26.094139099121094,13.594863891601562 L 26.363014221191406,14.042495727539062 L 26.630210876464844,14.490127563476562 L 26.89740753173828,14.937759399414062 L 27.16460418701172,15.383804321289062 L 27.431800842285156,15.829849243164062 M 25.15532684326172,10.413223266601562 L 25.15532684326172,10.413223266601562 L 25.12462615966797,9.913223266601562 L 25.09392547607422,9.413223266601562 L 25.06322479248047,8.913223266601562 L 25.03252410888672,8.413223266601562 L 25.00182342529297,7.9132232666015625 L 24.967750549316406,7.4132232666015625" fill="none" stroke="#000000" stroke-width="1"/>
	<path d="M 9.400108337402344,6.500732421875 L 9.400108337402344,6.500732421875 L 9.885322570800781,6.678436279296875 L 10.372215270996094,6.8960723876953125 L 10.812156677246094,7.222320556640625 L 11.149787902832031,7.660369873046875 L 11.427055358886719,8.111190795898438 L 11.684196472167969,8.574798583984375 L 11.832328796386719,9.070343017578125 L 11.879859924316406,9.567489624023438 L 11.860893249511719,10.06463623046875 L 11.818443298339844,10.561782836914062 L 11.777671813964844,11.058929443359375 L 11.728507995605469,11.556076049804688 L 11.687736511230469,12.05322265625 L 11.646965026855469,12.550369262695312 L 11.606193542480469,13.047515869140625 L 11.565422058105469,13.544662475585938 L 11.373710632324219,14.029022216796875 L 11.096488952636719,14.478240966796875 L 10.804176330566406,14.922683715820312 L 10.417945861816406,15.306427001953125 L 9.979728698730469,15.61669921875 L 9.511329650878906,15.86468505859375 L 9.014427185058594,16.067962646484375 L 8.514442443847656,16.170608520507812 L 8.014457702636719,16.111083984375 L 7.678550720214844,15.695388793945312 L 7.754570007324219,15.195388793945312 L 8.085502624511719,14.778091430664062 L 8.460029602050781,14.41668701171875 L 8.836235046386719,14.056884765625 L 9.180580139160156,13.671524047851562 L 9.293495178222656,13.182357788085938 L 9.391334533691406,12.69158935546875 L 9.487495422363281,12.200820922851562 L 9.585334777832031,11.710052490234375 L 9.646278381347656,11.216094970703125 L 9.703865051269531,10.723724365234375 L 9.763130187988281,10.229766845703125 L 9.814018249511719,9.735809326171875 L 9.791694641113281,9.243438720703125 L 9.645286560058594,8.752670288085938 L 9.337867736816406,8.362533569335938 L 9.025428771972656,7.9723968505859375 L 8.662681579589844,7.6125946044921875 L 8.286521911621094,7.2687530517578125 L 8.099861145019531,6.787567138671875 L 8.284889221191406,6.293609619140625 L 8.784889221191406,6.1254730224609375 L 9.284889221191406,6.314361572265625 L 9.635932922363281,6.7108917236328125 L 10.089286804199219,6.974853515625 M 10.562538146972656,7.5007171630859375 L 10.562538146972656,7.5007171630859375 L 10.062553405761719,7.632110595703125 L 9.562568664550781,7.70599365234375 L 9.062583923339844,7.779876708984375 M 10.951759338378906,9.482223510742188 L 10.951759338378906,9.482223510742188 L 10.451774597167969,9.663131713867188 L 9.951789855957031,9.794525146484375 M 11.010551452636719,11.605819702148438 L 11.010551452636719,11.605819702148438 L 10.614265441894531,11.555877685546875 L 10.114280700683594,11.545852661132812 L 9.614295959472656,11.545852661132812 M 10.551826477050781,13.73858642578125 L 10.551826477050781,13.73858642578125 L 10.051841735839844,13.667877197265625 L 9.551856994628906,13.59716796875 L 9.051872253417969,13.526458740234375 M 9.694206237792969,15.374923706054688 L 9.694206237792969,15.374923706054688 L 9.194221496582031,15.326583862304688 L 8.694236755371094,15.276641845703125 L 8.194252014160156,15.226699829101562 L 7.694267272949219,15.175155639648438" fill="none" stroke="#000000" stroke-width="1"/>
</svg>
