<?xml version="1.0" ?>
<svg baseProfile="full" height="195mm" version="1.1" viewBox="0 0 27.5 19.5" width="275mm" xmlns="http://www.w3.org/2000/svg" xmlns:ev="http://www.w3.org/2001/xml-events" xmlns:xlink="http://www.w3.org/1999/xlink">
	<defs/>
	<path d="M 19.382720947265625,10.69036865234375 L 19.382720947265625,10.69036865234375 L 19.128982543945312,10.746688842773438 L 18.764556884765625,10.820571899414062 L 18.395095825195312,10.904037475585938 L 17.94012451171875,11.073760986328125 L 17.45159912109375,11.29779052734375 L 17.00836181640625,11.619247436523438 L 16.578521728515625,11.950286865234375 L 16.150360107421875,12.282928466796875 L 15.722198486328125,12.615570068359375 L 15.294036865234375,12.948211669921875 L 14.847442626953125,13.261688232421875 L 14.347457885742188,13.389877319335938 L 13.84747314453125,13.48931884765625 L 13.67254638671875,13.439376831054688 L 13.763671875,13.311172485351562 L 13.86151123046875,13.032821655273438 L 13.934188842773438,12.6842041015625 L 13.85986328125,12.311630249023438 L 13.711776733398438,11.931076049804688 L 13.543548583984375,11.540939331054688 L 13.375320434570312,11.144393920898438 L 13.25238037109375,10.666412353515625 L 13.235092163085938,10.166412353515625 L 13.23455810546875,9.666412353515625 L 13.339096069335938,9.166412353515625 L 13.591217041015625,8.993484497070312 L 13.88189697265625,8.953125 L 14.241348266601562,8.959930419921875 L 14.637680053710938,9.057785034179688 L 15.034011840820312,9.283416748046875 L 15.048004150390625,9.609664916992188 L 14.81939697265625,9.9359130859375 M 14.073959350585938,10.916213989257812 L 14.073959350585938,10.916213989257812 L 14.126510620117188,11.122665405273438 L 14.074005126953125,10.980087280273438 L 13.947708129882812,10.668212890625 M 13.91363525390625,10.500076293945312 L 13.91363525390625,10.500076293945312 L 13.799072265625,10.315963745117188 L 13.558731079101562,10.133453369140625 L 13.23455810546875,10.05157470703125 L 12.856719970703125,10.041549682617188 L 12.413482666015625,10.287948608398438 L 12.119491577148438,10.737167358398438 L 12.117279052734375,11.237152099609375 L 12.48175048828125,11.630477905273438 L 12.945159912109375,11.798614501953125 L 13.343170166015625,11.6336669921875 L 13.402435302734375,11.459136962890625" fill="none" stroke="#000000" stroke-width="1"/>
	<path d="M 23.252716064453125,11.989120483398438 L 23.252716064453125,11.989120483398438 L 23.362289428710938,12.101348876953125 L 23.505401611328125,12.264678955078125 L 23.648513793945312,12.428009033203125 L 23.793304443359375,12.664825439453125 L 23.938095092773438,12.925582885742188 L 24.084548950195312,13.237457275390625 L 24.20587158203125,13.568496704101562 L 24.271835327148438,13.96661376953125 L 24.262924194335938,14.399871826171875 L 24.158432006835938,14.884231567382812 L 24.005294799804688,15.38421630859375 L 23.81024169921875,15.884201049804688 L 23.496124267578125,16.331832885742188 L 23.0662841796875,16.65966796875 L 22.609634399414062,16.947586059570312 L 22.152984619140625,17.233901977539062 L 21.696334838867188,17.520217895507812 L 21.414077758789062,17.977447509765625 L 21.516937255859375,18.477432250976562 M 21.425857543945312,18.306106567382812 L 21.425857543945312,18.306106567382812 L 21.2291259765625,18.054916381835938 L 20.80096435546875,17.846847534179688 L 20.451629638671875,17.435928344726562 L 20.263290405273438,16.941970825195312 L 20.110153198242188,16.441970825195312 L 19.973800659179688,15.941970825195312 L 19.882720947265625,15.441970825195312 L 19.938629150390625,14.941970825195312 L 20.252777099609375,14.500717163085938 L 20.721206665039062,14.281463623046875 L 21.18963623046875,14.05902099609375 L 21.3377685546875,13.569854736328125 L 21.442306518554688,13.077484130859375 L 21.533432006835938,12.586715698242188 L 21.750335693359375,12.116714477539062 L 22.18524169921875,11.846359252929688 L 22.68524169921875,11.798019409179688 L 23.00946044921875,11.417465209960938 M 22.7054443359375,10.306472778320312 L 22.7054443359375,10.306472778320312 L 22.7054443359375,9.806472778320312 L 23.2054443359375,9.83404541015625 L 23.7054443359375,9.88238525390625 L 23.855255126953125,9.402801513671875 L 24.003387451171875,8.924819946289062 L 24.151519775390625,8.44683837890625 L 24.299652099609375,7.9688568115234375 L 24.335433959960938,7.47808837890625 L 24.202423095703125,6.990509033203125 L 23.878250122070312,6.611541748046875 L 23.549041748046875,6.232574462890625 L 23.219833374023438,5.853607177734375 L 22.795028686523438,5.5608978271484375 L 22.2950439453125,5.5125579833984375 L 21.795059204101562,5.4642181396484375 L 21.482620239257812,5.082061767578125 L 21.39154052734375,4.6040802001953125 L 21.268600463867188,4.1244964599609375 L 20.823684692382812,4.436370849609375 L 20.739303588867188,4.9363555908203125 L 20.766708374023438,5.43634033203125 L 20.817596435546875,5.9363250732421875 L 20.786895751953125,6.436309814453125 L 20.622024536132812,6.9362945556640625 L 20.443740844726562,7.42864990234375 L 20.265457153320312,7.9210052490234375 L 20.088851928710938,8.413360595703125 L 20.387924194335938,8.862579345703125 L 20.829544067382812,9.190414428710938 L 21.271163940429688,9.51824951171875 L 21.712783813476562,9.844497680664062 L 22.154403686523438,10.12921142578125 L 22.585952758789062,10.473037719726562 L 22.585418701171875,10.971786499023438 L 22.55303955078125,11.471771240234375 M 21.946273803710938,7.7445068359375 L 21.946273803710938,7.7445068359375 L 21.4510498046875,7.9254150390625 L 21.16375732421875,7.46978759765625 L 21.259918212890625,6.96978759765625 L 21.676376342773438,6.69464111328125 L 22.176376342773438,6.719024658203125 L 22.639785766601562,7.00213623046875 L 22.938858032226562,7.4465789794921875 L 22.877960205078125,7.946563720703125 L 22.718124389648438,8.446548461914062 L 22.499603271484375,8.927719116210938 L 21.999618530273438,9.022369384765625 L 21.610031127929688,8.659378051757812 L 21.607818603515625,8.175003051757812 L 21.61175537109375,7.693817138671875 M 22.406326293945312,14.640777587890625 L 22.406326293945312,14.640777587890625 L 22.5494384765625,15.140762329101562 L 22.456680297851562,15.6407470703125 L 22.063735961914062,15.990951538085938 L 21.571868896484375,15.7940673828125 L 21.279556274414062,15.411911010742188 L 21.067733764648438,14.97705078125 L 21.0521240234375,14.49267578125 L 21.336105346679688,14.043441772460938 L 21.826339721679688,13.956756591796875 L 22.313232421875,13.902008056640625 L 22.759872436523438,13.924789428710938" fill="none" stroke="#000000" stroke-width="1"/>
	<path d="M 10.373931884765625,14.980514526367188 L 10.373931884765625,14.980514526367188 L 9.905532836914062,14.721343994140625 L 9.527694702148438,14.37750244140625 L 9.29071044921875,13.957000732421875 L 9.164413452148438,13.491775512695312 L 9.164413452148438,13.008987426757812 L 9.205215454101562,12.526199340820312 L 9.246017456054688,12.043411254882812 L 9.286819458007812,11.560623168945312 L 9.327621459960938,11.077835083007812 L 9.368423461914062,10.595046997070312 L 9.558486938476562,10.131423950195312 L 9.91290283203125,9.792388916015625 L 10.274017333984375,9.47412109375 L 10.697174072265625,9.222930908203125 L 11.158905029296875,9.1314697265625 L 11.617279052734375,9.428970336914062 L 11.117294311523438,9.385406494140625 L 10.6173095703125,9.341842651367188 L 10.117324829101562,9.29827880859375 L 9.617340087890625,9.254714965820312 L 9.117355346679688,9.211151123046875 L 8.61737060546875,9.167587280273438 L 8.117385864257812,9.195159912109375 L 7.617401123046875,9.320175170898438 L 7.1174163818359375,9.4451904296875 L 6.617431640625,9.57177734375 L 6.1174468994140625,9.6983642578125 L 5.6373138427734375,9.94476318359375 L 5.235992431640625,10.271011352539062 L 4.8363494873046875,10.598846435546875 L 4.4517974853515625,10.973007202148438 L 4.2030792236328125,11.420639038085938 L 4.0851593017578125,11.916183471679688 L 3.9990997314453125,12.414932250976562 L 3.9163970947265625,12.913681030273438 L 4.18359375,13.35333251953125 L 4.62017822265625,13.537429809570312 L 5.0567626953125,13.721527099609375 L 5.49334716796875,13.904022216796875 L 5.929931640625,14.086517333984375 L 6.36651611328125,14.269012451171875 L 6.8131561279296875,14.409988403320312 L 7.2715301513671875,14.469512939453125 L 7.7299041748046875,14.529037475585938 L 8.189956665039062,14.582168579101562 L 8.651687622070312,14.635299682617188 L 9.115097045898438,14.698013305664062 L 9.578506469726562,14.797454833984375 L 10.041915893554688,14.896896362304688 L 10.505325317382812,15.0123291015625 M 6.83544921875,14.25537109375 L 6.83544921875,14.25537109375 L 6.496185302734375,13.855636596679688 L 6.2105712890625,13.407989501953125 L 6.040679931640625,12.94757080078125 L 5.9797821044921875,12.466384887695312 L 6.0071868896484375,11.983596801757812 L 6.0362548828125,11.500808715820312 L 6.08880615234375,11.018020629882812 L 6.21514892578125,10.535232543945312 L 6.4840240478515625,10.119537353515625 L 6.826690673828125,9.770919799804688 L 7.179412841796875,9.425506591796875" fill="none" stroke="#000000" stroke-width="1"/>
</svg>
