<?xml version="1.0" ?>
<svg baseProfile="full" height="195mm" version="1.1" viewBox="0 0 27.5 19.5" width="275mm" xmlns="http://www.w3.org/2000/svg" xmlns:ev="http://www.w3.org/2001/xml-events" xmlns:xlink="http://www.w3.org/1999/xlink">
	<defs/>
	<path d="M 13.025474548339844,9.42578125 L 13.025474548339844,9.42578125 L 13.023262023925781,9.925765991210938 L 13.021049499511719,10.425750732421875 L 13.017173767089844,10.925735473632812 L 13.013298034667969,11.42572021484375 L 13.009422302246094,11.925704956054688 L 13.005546569824219,12.425689697265625 L 13.001670837402344,12.925674438476562 M 13.201988220214844,9.422195434570312 L 13.201988220214844,9.422195434570312 L 13.534599304199219,9.44818115234375 L 14.034599304199219,9.474166870117188 L 14.534599304199219,9.659866333007812 L 15.011436462402344,9.903060913085938 L 15.511436462402344,9.946609497070312 L 16.011436462402344,9.898269653320312 L 16.511436462402344,10.018478393554688 L 17.011436462402344,10.1339111328125 L 17.511436462402344,10.337188720703125 L 18.011436462402344,10.4014892578125 L 18.498329162597656,10.255706787109375" fill="none" stroke="#000000" stroke-width="1"/>
	<path d="M 21.386497497558594,16.465164184570312 L 21.386497497558594,16.465164184570312 L 21.58325958251953,16.281051635742188 L 21.90747833251953,16.096939086914062 L 22.052268981933594,15.984695434570312 L 22.341270446777344,15.870864868164062 L 22.21497344970703,15.645233154296875 L 22.083641052246094,15.339736938476562 L 21.902015686035156,14.839736938476562 L 21.996498107910156,14.62689208984375 L 22.05744171142578,14.414047241210938 L 22.115028381347656,14.231536865234375 L 22.023948669433594,14.021865844726562 L 21.793678283691406,13.709991455078125 L 21.491310119628906,13.393310546875 L 21.19731903076172,13.083023071289062 L 20.84966278076172,13.068222045898438 L 20.436607360839844,13.130935668945312 L 20.02355194091797,13.295867919921875 L 19.78154754638672,13.47357177734375 L 19.60662078857422,13.699203491210938 L 19.51050567626953,13.975936889648438 L 19.59325408935547,14.334136962890625 L 19.781639099121094,14.72906494140625 L 19.92809295654297,15.17510986328125 L 20.02257537841797,15.675094604492188 L 20.070106506347656,16.175079345703125 L 20.35240936279297,16.517303466796875 L 20.81749725341797,16.765289306640625 L 21.294334411621094,16.974945068359375 L 21.50452423095703,16.870697021484375 L 21.526893615722656,16.66583251953125 L 21.557640075683594,16.24853515625 M 21.34381866455078,11.286270141601562 L 21.34381866455078,11.286270141601562 L 21.496986389160156,10.789108276367188 L 21.64344024658203,10.291946411132812 L 21.789894104003906,9.794784545898438 L 21.93634796142578,9.297622680664062 L 21.89557647705078,8.797622680664062 L 21.655235290527344,8.341995239257812 L 21.409873962402344,7.8863677978515625 L 21.084022521972656,7.48504638671875 L 20.714561462402344,7.1172637939453125 L 20.214576721191406,7.0321807861328125 L 19.82331085205078,7.4079437255859375 L 19.43708038330078,7.80126953125 L 19.11792755126953,8.247314453125 L 18.998329162597656,8.747299194335938 L 19.10118865966797,9.247283935546875 L 19.229209899902344,9.747268676757812 L 19.37566375732422,10.24725341796875 L 19.52045440673828,10.747238159179688 L 19.866477966308594,11.1485595703125 L 20.336585998535156,11.318283081054688 L 20.836585998535156,11.478408813476562 L 21.325157165527344,11.710418701171875 M 20.566551208496094,8.773574829101562 L 20.566551208496094,8.773574829101562 L 20.480491638183594,8.485641479492188 L 20.38269805908203,8.121047973632812 L 20.01323699951172,8.456878662109375 L 19.66893768310547,8.883743286132812 L 19.48731231689453,9.380889892578125 L 19.660606384277344,9.880874633789062 L 20.160606384277344,9.954757690429688 L 20.65251922607422,10.0909423828125 L 21.063941955566406,10.158447265625 L 21.150047302246094,9.878509521484375 L 21.10088348388672,9.378509521484375 L 21.013160705566406,8.878509521484375 L 20.88854217529297,8.378509521484375 M 20.14409637451172,9.153533935546875 L 20.14409637451172,9.153533935546875 L 20.17987823486328,8.8096923828125 L 20.32801055908203,8.775711059570312 L 20.60527801513672,8.838424682617188 L 21.008323669433594,9.08001708984375 L 21.268821716308594,9.564376831054688 L 20.99829864501953,10.013595581054688 L 20.531578063964844,10.231231689453125 L 20.031593322753906,10.087051391601562 L 19.848289489746094,9.594680786132812 L 20.30834197998047,9.33551025390625 M 20.451332092285156,15.331832885742188 L 20.451332092285156,15.331832885742188 L 20.513954162597656,15.147720336914062 L 20.469825744628906,14.850204467773438 L 20.316688537597656,14.900131225585938 L 19.930458068847656,15.03631591796875 L 19.768943786621094,15.536300659179688 L 20.14850616455078,15.662887573242188 L 20.19939422607422,15.4005126953125" fill="none" stroke="#000000" stroke-width="1"/>
	<path d="M 11.095756530761719,9.647140502929688 L 11.095756530761719,9.647140502929688 L 11.391471862792969,9.590805053710938 L 11.856559753417969,9.771713256835938 L 12.296501159667969,10.0899658203125 L 12.501670837402344,10.575927734375 L 12.474311828613281,11.075912475585938 L 12.245704650878906,11.571456909179688 L 11.800788879394531,11.88812255859375 L 11.325675964355469,12.121734619140625 L 10.825691223144531,12.262710571289062 M 10.993415832519531,11.82537841796875 L 10.993415832519531,11.82537841796875 L 11.143226623535156,11.44482421875 L 11.408744812011719,10.976425170898438 L 11.374671936035156,10.476425170898438 L 11.092414855957031,10.020797729492188 M 11.677696228027344,10.152191162109375 L 11.677696228027344,10.152191162109375 L 11.954963684082031,10.302749633789062 L 12.275840759277344,10.742401123046875 L 12.191459655761719,11.242385864257812 L 11.816978454589844,11.632522583007812" fill="none" stroke="#000000" stroke-width="1"/>
</svg>
