<?xml version="1.0" ?>
<svg baseProfile="full" height="195mm" version="1.1" viewBox="0 0 27.5 19.5" width="275mm" xmlns="http://www.w3.org/2000/svg" xmlns:ev="http://www.w3.org/2001/xml-events" xmlns:xlink="http://www.w3.org/1999/xlink">
	<defs/>
	<path d="M 16.43895721435547,13.58294677734375 L 16.43895721435547,13.58294677734375 L 16.124839782714844,13.556961059570312 L 15.889533996582031,13.54693603515625 L 15.825294494628906,13.735824584960938 L 15.662101745605469,14.183456420898438 L 15.492210388183594,14.28289794921875 L 15.325660705566406,14.404708862304688 L 15.159111022949219,14.526519775390625 L 14.985862731933594,14.571670532226562 L 14.755592346191406,14.357223510742188 L 14.508552551269531,13.98944091796875 L 14.336982727050781,13.551376342773438 L 14.391212463378906,13.189971923828125 L 14.661766052246094,12.874893188476562 L 14.907173156738281,12.556625366210938 L 14.738945007324219,12.255935668945312 L 14.506996154785156,11.89453125 L 14.903327941894531,11.718399047851562 L 15.403327941894531,11.741180419921875 L 15.903327941894531,11.990753173828125 L 16.175559997558594,12.417617797851562 L 16.474632263183594,12.858856201171875 L 16.974632263183594,12.818496704101562 L 17.16301727294922,12.431533813476562 M 17.09937286376953,13.83636474609375 L 17.09937286376953,13.83636474609375 L 16.632652282714844,13.82794189453125 M 16.76238250732422,13.699737548828125 L 16.76238250732422,13.699737548828125 L 17.039649963378906,13.797592163085938 M 15.405372619628906,13.50994873046875 L 15.405372619628906,13.50994873046875 L 15.113059997558594,13.407302856445312 L 14.678199768066406,13.479598999023438 L 14.822990417480469,13.979583740234375 L 15.298149108886719,14.225982666015625 L 15.754844665527344,13.91888427734375 M 15.309440612792969,13.977096557617188 L 15.309440612792969,13.977096557617188 M 14.821708679199219,12.083282470703125 L 14.821708679199219,12.083282470703125 L 14.998359680175781,12.076461791992188 L 15.268913269042969,11.97540283203125 L 15.437187194824219,11.993392944335938 L 15.581977844238281,11.9466552734375 L 15.621116638183594,12.386306762695312 L 15.565254211425781,12.88629150390625 L 15.336647033691406,12.87786865234375 L 15.034278869628906,12.415847778320312 L 15.293098449707031,11.9378662109375" fill="none" stroke="#000000" stroke-width="1"/>
	<path d="M 20.051185607910156,16.465164184570312 L 20.051185607910156,16.465164184570312 L 20.247947692871094,16.281051635742188 L 20.572166442871094,16.096939086914062 L 20.716957092285156,15.984695434570312 L 21.005958557128906,15.870864868164062 L 20.879661560058594,15.645233154296875 L 20.748329162597656,15.339736938476562 L 20.56670379638672,14.839736938476562 L 20.66118621826172,14.62689208984375 L 20.722129821777344,14.414047241210938 L 20.77971649169922,14.231536865234375 L 20.688636779785156,14.021865844726562 L 20.45836639404297,13.709991455078125 L 20.15599822998047,13.393310546875 L 19.86200714111328,13.083023071289062 L 19.51435089111328,13.068222045898438 L 19.101295471191406,13.130935668945312 L 18.68824005126953,13.295867919921875 L 18.44623565673828,13.47357177734375 L 18.27130889892578,13.699203491210938 L 18.175193786621094,13.975936889648438 L 18.25794219970703,14.334136962890625 L 18.446327209472656,14.72906494140625 L 18.59278106689453,15.17510986328125 L 18.68726348876953,15.675094604492188 L 18.73479461669922,16.175079345703125 L 19.01709747314453,16.517303466796875 L 19.48218536376953,16.765289306640625 L 19.959022521972656,16.974945068359375 L 20.169212341308594,16.870697021484375 L 20.19158172607422,16.66583251953125 L 20.222328186035156,16.24853515625 M 20.008506774902344,11.286270141601562 L 20.008506774902344,11.286270141601562 L 20.16167449951172,10.789108276367188 L 20.308128356933594,10.291946411132812 L 20.45458221435547,9.794784545898438 L 20.601036071777344,9.297622680664062 L 20.560264587402344,8.797622680664062 L 20.319923400878906,8.341995239257812 L 20.074562072753906,7.8863677978515625 L 19.74871063232422,7.48504638671875 L 19.379249572753906,7.1172637939453125 L 18.87926483154297,7.0321807861328125 L 18.487998962402344,7.4079437255859375 L 18.101768493652344,7.80126953125 L 17.782615661621094,8.247314453125 L 17.66301727294922,8.747299194335938 L 17.76587677001953,9.247283935546875 L 17.893898010253906,9.747268676757812 L 18.04035186767578,10.24725341796875 L 18.185142517089844,10.747238159179688 L 18.531166076660156,11.1485595703125 L 19.00127410888672,11.318283081054688 L 19.50127410888672,11.478408813476562 L 19.989845275878906,11.710418701171875 M 19.231239318847656,8.773574829101562 L 19.231239318847656,8.773574829101562 L 19.145179748535156,8.485641479492188 L 19.047386169433594,8.121047973632812 L 18.67792510986328,8.456878662109375 L 18.33362579345703,8.883743286132812 L 18.152000427246094,9.380889892578125 L 18.325294494628906,9.880874633789062 L 18.825294494628906,9.954757690429688 L 19.31720733642578,10.0909423828125 L 19.72863006591797,10.158447265625 L 19.814735412597656,9.878509521484375 L 19.76557159423828,9.378509521484375 L 19.67784881591797,8.878509521484375 L 19.55323028564453,8.378509521484375 M 18.80878448486328,9.153533935546875 L 18.80878448486328,9.153533935546875 L 18.844566345214844,8.8096923828125 L 18.992698669433594,8.775711059570312 L 19.26996612548828,8.838424682617188 L 19.673011779785156,9.08001708984375 L 19.933509826660156,9.564376831054688 L 19.662986755371094,10.013595581054688 L 19.196266174316406,10.231231689453125 L 18.69628143310547,10.087051391601562 L 18.512977600097656,9.594680786132812 L 18.97303009033203,9.33551025390625 M 19.11602020263672,15.331832885742188 L 19.11602020263672,15.331832885742188 L 19.17864227294922,15.147720336914062 L 19.13451385498047,14.850204467773438 L 18.98137664794922,14.900131225585938 L 18.59514617919922,15.03631591796875 L 18.433631896972656,15.536300659179688 L 18.813194274902344,15.662887573242188 L 18.86408233642578,15.4005126953125" fill="none" stroke="#000000" stroke-width="1"/>
	<path d="M 13.776557922363281,6.7613525390625 L 13.776557922363281,6.7613525390625 L 13.276573181152344,6.7146148681640625 L 12.776588439941406,6.667877197265625 L 12.276603698730469,6.6211395263671875 L 11.776618957519531,6.6031341552734375 L 11.276634216308594,6.5547943115234375 L 10.776649475097656,6.508056640625 L 10.276664733886719,6.4613189697265625 L 10.242591857910156,6.7093048095703125 L 10.230323791503906,7.20928955078125 L 10.218055725097656,7.7092742919921875 L 10.204109191894531,8.209259033203125 L 10.190162658691406,8.709243774414062 L 10.176216125488281,9.209228515625 L 10.162269592285156,9.709213256835938 L 10.150001525878906,10.209197998046875 L 10.137733459472656,10.709182739257812 L 10.125465393066406,11.20916748046875 L 10.113197326660156,11.709152221679688 L 10.100929260253906,12.209136962890625 L 10.088661193847656,12.709121704101562 L 10.076393127441406,13.2091064453125 L 10.064125061035156,13.709091186523438 L 10.051856994628906,14.209075927734375 L 10.039588928222656,14.709060668945312 L 10.027320861816406,15.20904541015625 L 10.502479553222656,15.162307739257812 L 10.977638244628906,15.115570068359375 L 11.452796936035156,15.067230224609375 L 11.929634094238281,15.020492553710938 L 12.406471252441406,14.9737548828125 L 12.883308410644531,14.927017211914062 L 13.360145568847656,14.880279541015625 L 13.836982727050781,14.831939697265625 L 13.814659118652344,14.649429321289062 L 13.790657043457031,14.149429321289062 L 13.768333435058594,13.649429321289062 L 13.746009826660156,13.149429321289062 L 13.722007751464844,12.649429321289062 L 13.698005676269531,12.149429321289062 L 13.674003601074219,11.649429321289062 L 13.650001525878906,11.149429321289062 L 13.627677917480469,10.649429321289062 L 13.605354309082031,10.149429321289062 L 13.581352233886719,9.649429321289062 L 13.603721618652344,9.149429321289062 L 13.629447937011719,8.649429321289062 L 13.653495788574219,8.149429321289062 L 13.677543640136719,7.6494293212890625 L 13.748542785644531,7.1494293212890625 L 13.824562072753906,6.6494293212890625 M 12.190483093261719,6.9318084716796875 L 12.190483093261719,6.9318084716796875 L 12.211174011230469,7.3874359130859375 L 12.231864929199219,7.887420654296875 L 12.252555847167969,8.387405395507812 L 12.225196838378906,8.88739013671875 L 12.194496154785156,9.387374877929688 L 12.163795471191406,9.887359619140625 L 12.133094787597656,10.387344360351562 L 12.102394104003906,10.8873291015625 L 12.071693420410156,11.387313842773438 L 12.039314270019531,11.887298583984375 L 12.013633728027344,12.387283325195312 L 12.044380187988281,12.88726806640625 L 12.080162048339844,13.387252807617188 L 12.176322937011719,13.887237548828125 L 12.210426330566406,14.387222290039062 L 12.244529724121094,14.88720703125 M 13.154640197753906,12.7418212890625 L 13.154640197753906,12.7418212890625 L 12.654655456542969,12.701461791992188 L 12.154670715332031,12.661102294921875 M 12.863853454589844,10.554092407226562 L 12.863853454589844,10.554092407226562 L 12.363868713378906,10.4674072265625 M 13.052055358886719,8.368759155273438 L 13.052055358886719,8.368759155273438 L 12.552070617675781,8.307632446289062 M 11.369667053222656,7.6015472412109375 L 11.369667053222656,7.6015472412109375 L 10.869682312011719,7.5308380126953125 L 10.369697570800781,7.4601287841796875 M 10.771095275878906,9.012680053710938 L 10.771095275878906,9.012680053710938 L 11.254631042480469,9.097747802734375 L 11.741523742675781,9.16845703125 M 11.091056823730469,11.643997192382812 L 11.091056823730469,11.643997192382812 L 10.591072082519531,11.627593994140625 M 11.452583312988281,13.742462158203125 L 11.452583312988281,13.742462158203125 L 10.952598571777344,13.742889404296875 L 10.452613830566406,13.743316650390625" fill="none" stroke="#000000" stroke-width="1"/>
</svg>
