<?xml version="1.0" ?>
<svg baseProfile="full" height="195mm" version="1.1" viewBox="0 0 27.5 19.5" width="275mm" xmlns="http://www.w3.org/2000/svg" xmlns:ev="http://www.w3.org/2001/xml-events" xmlns:xlink="http://www.w3.org/1999/xlink">
	<defs/>
	<path d="M 16.663185119628906,11.363906860351562 L 16.663185119628906,11.363906860351562 L 16.63080596923828,11.181396484375 L 16.563209533691406,10.930206298828125 L 16.465415954589844,10.675811767578125 L 16.357566833496094,10.423019409179688 L 16.17760467529297,10.163848876953125 L 15.905403137207031,9.979736328125 L 15.561103820800781,9.902633666992188 L 15.168159484863281,9.997283935546875 L 14.760139465332031,10.256439208984375 L 14.466148376464844,10.649765014648438 L 14.395195007324219,11.14691162109375 L 14.481300354003906,11.646896362304688 L 14.771980285644531,11.957168579101562 L 15.062660217285156,12.086959838867188 L 14.978279113769531,12.213546752929688 L 14.892219543457031,12.391250610351562 L 14.782691955566406,12.706314086914062 L 14.795005798339844,12.872848510742188 L 14.808998107910156,13.101669311523438 L 14.843101501464844,13.376800537109375 L 14.905723571777344,13.650344848632812 L 14.985099792480469,13.927078247070312 L 15.253974914550781,14.21820068359375 L 15.677131652832031,14.39910888671875 L 16.147239685058594,14.352371215820312 L 16.613990783691406,14.101181030273438 L 16.996910095214844,13.7525634765625 L 17.10480499267578,13.2681884765625 L 17.043907165527344,12.7681884765625 L 16.872337341308594,12.2681884765625 L 16.63703155517578,11.997833251953125" fill="none" stroke="#000000" stroke-width="1"/>
	<path d="M 18.604957580566406,7.4194183349609375 L 18.604957580566406,7.4194183349609375 L 18.317665100097656,7.351898193359375 L 18.10248565673828,7.534393310546875 M 17.86890411376953,7.0228424072265625 L 17.86890411376953,7.0228424072265625 L 18.00196075439453,7.452911376953125 L 18.15345001220703,7.95166015625 L 18.10094451904297,8.451644897460938 L 17.86060333251953,8.9200439453125 L 17.60852813720703,9.374069213867188 M 18.229576110839844,8.86529541015625 L 18.229576110839844,8.86529541015625 L 18.525291442871094,9.033432006835938 L 19.025291442871094,8.905227661132812 L 19.361244201660156,8.526260375976562 L 19.42218780517578,8.026260375976562 L 19.242225646972656,7.5262603759765625 L 18.879478454589844,7.1472930908203125 M 18.55457305908203,8.376861572265625 L 18.55457305908203,8.376861572265625 L 18.85028839111328,8.746246337890625 L 18.95818328857422,8.246246337890625 L 18.97551727294922,7.746246337890625 L 18.79053497314453,8.243392944335938 M 17.769020080566406,12.267868041992188 L 17.769020080566406,12.267868041992188 L 17.824928283691406,12.693130493164062 L 17.93450164794922,13.193115234375 L 18.04407501220703,13.693099975585938 L 18.001625061035156,14.193084716796875 L 17.804893493652344,14.690231323242188 L 17.60480499267578,15.185775756835938 M 18.08386993408203,14.885513305664062 L 18.08386993408203,14.885513305664062 L 18.42485809326172,15.17022705078125 L 18.92485809326172,15.160202026367188 L 19.393287658691406,14.971298217773438 L 19.586708068847656,14.4901123046875 L 19.64765167236328,13.99615478515625 L 19.62700653076172,13.49615478515625 L 19.447044372558594,13.01177978515625 L 18.965232849121094,12.829269409179688 L 18.465248107910156,12.831298828125 L 17.96526336669922,13.063308715820312 M 18.48029327392578,13.753631591796875 L 18.48029327392578,13.753631591796875 L 18.26177215576172,14.1102294921875 L 18.606117248535156,14.275161743164062 L 19.071205139160156,14.452865600585938 L 19.24449920654297,13.952865600585938 L 18.74451446533203,13.826263427734375 L 18.32978057861328,14.019943237304688" fill="none" stroke="#000000" stroke-width="1"/>
	<path d="M 13.116645812988281,8.9051513671875 L 13.116645812988281,8.9051513671875 L 13.264778137207031,8.929534912109375 L 13.466590881347656,8.961898803710938 L 13.663352966308594,8.997467041015625 L 13.624244689941406,9.14642333984375 L 13.546577453613281,9.392822265625 L 13.462196350097656,9.664764404296875 L 13.377815246582031,9.93670654296875 L 13.293434143066406,10.208648681640625 L 13.205711364746094,10.514129638671875 L 13.116310119628906,10.904266357421875 L 13.052070617675781,11.297592163085938 L 12.992851257324219,11.69091796875 L 13.008522033691406,12.084243774414062 L 13.057731628417969,12.506332397460938 L 13.153892517089844,12.931594848632812 L 13.297004699707031,13.360061645507812 L 13.450172424316406,13.785324096679688 L 13.601661682128906,14.210586547851562 L 13.691108703613281,14.658218383789062 L 13.549720764160156,14.783233642578125 L 13.170204162597656,15.042388916015625 M 12.805870056152344,13.793609619140625 L 12.805870056152344,13.793609619140625 L 12.751686096191406,13.611099243164062 L 12.571723937988281,13.383865356445312 L 12.374992370605469,13.150238037109375 L 12.188331604003906,12.772857666015625 L 12.102272033691406,12.357162475585938 L 12.039695739746094,11.901535034179688 L 12.132499694824219,11.401535034179688 L 12.327583312988281,10.901535034179688 M 13.724586486816406,11.468597412109375 L 13.724586486816406,11.468597412109375 L 13.625129699707031,11.668670654296875 L 13.555854797363281,11.927825927734375 L 13.521781921386719,12.239700317382812 L 13.671592712402344,12.554763793945312 L 13.895195007324219,12.82989501953125" fill="none" stroke="#000000" stroke-width="1"/>
</svg>
