<?xml version="1.0" ?>
<svg baseProfile="full" height="195mm" version="1.1" viewBox="0 0 27.5 19.5" width="275mm" xmlns="http://www.w3.org/2000/svg" xmlns:ev="http://www.w3.org/2001/xml-events" xmlns:xlink="http://www.w3.org/1999/xlink">
	<defs/>
	<path d="M 18.87049102783203,10.578765869140625 L 18.87049102783203,10.578765869140625 L 18.432273864746094,10.488876342773438 L 17.932289123535156,10.295181274414062 L 17.463890075683594,10.020034790039062 L 17.03404998779297,9.712936401367188 L 16.624351501464844,9.381881713867188 L 16.221351623535156,9.041244506835938 L 15.892143249511719,8.662277221679688 L 15.626670837402344,8.229019165039062 L 15.371253967285156,7.7957611083984375 L 15.107444763183594,7.36090087890625 L 14.727928161621094,7.005889892578125 L 14.286354064941406,6.7435150146484375 L 13.789451599121094,6.626495361328125 L 13.289466857910156,6.7515106201171875 L 12.851249694824219,7.06817626953125 L 12.488502502441406,7.482269287109375 L 12.236427307128906,7.958648681640625 L 12.263832092285156,8.458633422851562 L 12.366691589355469,8.9586181640625 L 12.560111999511719,9.457366943359375 L 12.844093322753906,9.911392211914062 L 13.151542663574219,10.357437133789062 L 13.341606140136719,10.84820556640625 L 13.415962219238281,11.348190307617188 L 13.294685363769531,11.848175048828125 L 13.367362976074219,12.348159790039062 L 13.252799987792969,12.84814453125 L 13.593788146972656,13.249465942382812 L 14.062217712402344,13.44793701171875 L 14.562217712402344,13.517044067382812 L 15.062217712402344,13.541427612304688 L 15.562217712402344,13.553024291992188 L 16.062217712402344,13.553024291992188 L 16.562217712402344,13.52703857421875 L 17.062217712402344,13.438751220703125 L 17.54071807861328,13.30096435546875 L 18.000770568847656,13.065750122070312 L 18.398780822753906,12.726715087890625 L 18.791770935058594,12.406845092773438 L 19.263572692871094,12.269058227539062 M 12.586524963378906,8.400436401367188 L 12.586524963378906,8.400436401367188 L 12.897331237792969,8.43280029296875 L 13.352348327636719,8.20556640625 L 13.795631408691406,7.9320068359375 L 13.802909851074219,7.4320068359375 L 13.426750183105469,7.06103515625 L 13.050590515136719,6.6900634765625" fill="none" stroke="#000000" stroke-width="1"/>
	<path d="M 20.76372528076172,7.4194183349609375 L 20.76372528076172,7.4194183349609375 L 20.47643280029297,7.351898193359375 L 20.261253356933594,7.534393310546875 M 20.027671813964844,7.0228424072265625 L 20.027671813964844,7.0228424072265625 L 20.160728454589844,7.452911376953125 L 20.312217712402344,7.95166015625 L 20.25971221923828,8.451644897460938 L 20.019371032714844,8.9200439453125 L 19.767295837402344,9.374069213867188 M 20.388343811035156,8.86529541015625 L 20.388343811035156,8.86529541015625 L 20.684059143066406,9.033432006835938 L 21.184059143066406,8.905227661132812 L 21.52001190185547,8.526260375976562 L 21.580955505371094,8.026260375976562 L 21.40099334716797,7.5262603759765625 L 21.038246154785156,7.1472930908203125 M 20.713340759277344,8.376861572265625 L 20.713340759277344,8.376861572265625 L 21.009056091308594,8.746246337890625 L 21.11695098876953,8.246246337890625 L 21.13428497314453,7.746246337890625 L 20.949302673339844,8.243392944335938 M 19.92778778076172,12.267868041992188 L 19.92778778076172,12.267868041992188 L 19.98369598388672,12.693130493164062 L 20.09326934814453,13.193115234375 L 20.202842712402344,13.693099975585938 L 20.16039276123047,14.193084716796875 L 19.963661193847656,14.690231323242188 L 19.763572692871094,15.185775756835938 M 20.242637634277344,14.885513305664062 L 20.242637634277344,14.885513305664062 L 20.58362579345703,15.17022705078125 L 21.08362579345703,15.160202026367188 L 21.55205535888672,14.971298217773438 L 21.74547576904297,14.4901123046875 L 21.806419372558594,13.99615478515625 L 21.78577423095703,13.49615478515625 L 21.605812072753906,13.01177978515625 L 21.124000549316406,12.829269409179688 L 20.62401580810547,12.831298828125 L 20.12403106689453,13.063308715820312 M 20.639060974121094,13.753631591796875 L 20.639060974121094,13.753631591796875 L 20.42053985595703,14.1102294921875 L 20.76488494873047,14.275161743164062 L 21.22997283935547,14.452865600585938 L 21.40326690673828,13.952865600585938 L 20.903282165527344,13.826263427734375 L 20.488548278808594,14.019943237304688" fill="none" stroke="#000000" stroke-width="1"/>
	<path d="M 7.830482482910156,14.058761596679688 L 7.830482482910156,14.058761596679688 L 7.737724304199219,13.874649047851562 L 7.660057067871094,13.422210693359375 L 7.690803527832031,12.922210693359375 L 7.887565612792969,12.422210693359375 L 8.132972717285156,11.93304443359375 L 8.239189147949219,11.43304443359375 L 8.308509826660156,10.93304443359375 L 8.349311828613281,10.43304443359375 L 8.390113830566406,9.93304443359375 L 8.499687194824219,9.43304443359375 L 8.621009826660156,8.93304443359375 L 8.790962219238281,8.43304443359375 L 8.981025695800781,7.93304443359375 L 9.172767639160156,7.43304443359375 L 9.361152648925781,6.9518585205078125 L 9.539482116699219,6.4518585205078125 L 9.595390319824219,5.9518585205078125 M 11.736427307128906,7.889007568359375 L 11.736427307128906,7.889007568359375 L 11.299888610839844,8.026779174804688 L 10.799903869628906,8.2012939453125 L 10.299919128417969,8.2879638671875 L 9.799934387207031,8.234817504882812 L 9.299949645996094,8.181671142578125 L 8.799964904785156,8.128524780273438 L 8.299980163574219,8.07537841796875 L 7.799995422363281,8.0965576171875 L 7.300010681152344,8.178436279296875 L 6.800025939941406,8.26031494140625 M 7.755424499511719,9.62762451171875 L 7.755424499511719,9.62762451171875 L 8.124931335449219,9.529754638671875 L 8.600090026855469,9.403152465820312 L 9.097038269042969,9.378768920898438 L 9.593986511230469,9.475021362304688 L 10.089256286621094,9.576065063476562 L 10.584526062011719,9.677108764648438 M 9.339530944824219,10.758071899414062 L 9.339530944824219,10.758071899414062 L 8.839546203613281,10.918197631835938 L 8.339561462402344,11.078323364257812 L 7.839576721191406,11.10589599609375 L 7.339591979980469,11.130279541015625 M 7.585685729980469,12.41168212890625 L 7.585685729980469,12.41168212890625 L 7.923316955566406,12.320220947265625 L 8.396797180175781,12.46759033203125 L 8.870277404785156,12.634124755859375 M 8.210823059082031,13.924758911132812 L 8.210823059082031,13.924758911132812 L 7.819557189941406,14.102462768554688 L 7.339424133300781,14.332870483398438 L 6.839439392089844,14.464263916015625" fill="none" stroke="#000000" stroke-width="1"/>
</svg>
