<?xml version="1.0" ?>
<svg baseProfile="full" height="195mm" version="1.1" viewBox="0 0 27.5 19.5" width="275mm" xmlns="http://www.w3.org/2000/svg" xmlns:ev="http://www.w3.org/2001/xml-events" xmlns:xlink="http://www.w3.org/1999/xlink">
	<defs/>
	<path d="M 15.234420776367188,13.816802978515625 L 15.234420776367188,13.816802978515625 L 15.627410888671875,13.69818115234375 L 15.180816650390625,13.534835815429688 M 15.109100341796875,12.870620727539062 L 15.109100341796875,12.870620727539062 L 15.502090454101562,12.56512451171875 L 15.308700561523438,12.484832763671875 M 15.87835693359375,14.415908813476562 L 15.87835693359375,14.415908813476562 L 15.66485595703125,14.662307739257812 L 15.164871215820312,14.559661865234375 M 16.390899658203125,12.278182983398438 L 16.390899658203125,12.278182983398438 L 16.27801513671875,11.801788330078125 L 15.778030395507812,11.824569702148438" fill="none" stroke="#000000" stroke-width="1"/>
	<path d="M 20.127700805664062,9.157058715820312 L 20.127700805664062,9.157058715820312 L 20.336212158203125,8.663101196289062 L 20.082473754882812,8.181915283203125 L 19.7515869140625,7.7630157470703125 L 19.279830932617188,7.4926605224609375 L 18.77984619140625,7.2813873291015625 L 18.279861450195312,7.313751220703125 L 17.8466796875,7.6431884765625 L 17.443679809570312,8.014144897460938 L 17.050735473632812,8.3883056640625 L 16.890899658203125,8.885452270507812 L 17.023956298828125,9.38543701171875 L 17.252593994140625,9.874603271484375 L 17.591903686523438,10.287109375 L 18.026809692382812,10.6005859375 L 18.526809692382812,10.58258056640625 L 18.961715698242188,10.294647216796875 L 19.379852294921875,9.989151000976562 L 19.799652099609375,9.709213256835938 L 20.214431762695312,9.430862426757812 M 18.82562255859375,12.691696166992188 L 18.82562255859375,12.691696166992188 L 19.32562255859375,12.716079711914062 L 19.792373657226562,12.986419677734375 L 20.170257568359375,13.373367309570312 L 20.4676513671875,13.816207885742188 L 20.555419921875,14.316192626953125 L 20.41571044921875,14.816177368164062 L 20.141830444335938,15.2606201171875 L 19.748886108398438,15.628402709960938 L 19.295578002929688,15.876388549804688 L 18.79559326171875,15.950271606445312 L 18.295608520507812,15.97784423828125 L 17.795623779296875,15.844833374023438 L 17.41778564453125,15.435516357421875 L 17.2462158203125,14.935516357421875 L 17.079666137695312,14.435516357421875 L 16.914794921875,13.935516357421875 L 17.004241943359375,13.435516357421875 L 17.283187866210938,12.997451782226562 L 17.739883422851562,12.783004760742188 L 18.239883422851562,12.931961059570312 L 18.739883422851562,13.0841064453125 M 21.389205932617188,6.508544921875 L 21.389205932617188,6.508544921875 L 20.930877685546875,6.8156280517578125 L 21.395965576171875,7.041259765625 L 21.871124267578125,7.2061920166015625 L 21.371139526367188,7.3663177490234375 L 20.969818115234375,7.743682861328125 L 21.469818115234375,7.8079833984375 L 21.969818115234375,7.9393768310546875 L 21.625518798828125,8.3406982421875 L 21.336563110351562,8.79632568359375 L 21.796615600585938,9.041122436523438 L 21.410385131835938,9.420089721679688 L 20.926895141601562,9.570648193359375 L 21.403732299804688,9.738784790039062 L 21.850372314453125,10.049057006835938 L 21.350387573242188,10.049057006835938 L 20.85040283203125,10.226760864257812 M 21.438323974609375,12.655532836914062 L 21.438323974609375,12.655532836914062 L 21.938323974609375,12.780548095703125 L 21.4866943359375,13.047698974609375 L 21.192703247070312,13.495330810546875 L 21.644378662109375,13.74810791015625 L 21.199462890625,14.00408935546875 L 20.739456176757812,14.236099243164062 L 21.176040649414062,14.52081298828125 L 21.617660522460938,14.795944213867188 L 22.059280395507812,15.071075439453125 L 21.559295654296875,15.223220825195312 L 21.059310913085938,15.418487548828125 L 21.527740478515625,15.599395751953125 L 21.045928955078125,15.780303955078125 L 20.545944213867188,15.878158569335938 L 20.947311401367188,16.209197998046875 L 20.737167358398438,16.623291015625 L 20.883621215820312,16.686004638671875 L 21.36212158203125,16.8157958984375 M 19.345672607421875,14.5487060546875 L 19.345672607421875,14.5487060546875 L 19.36468505859375,14.0487060546875 L 19.422271728515625,14.204055786132812 L 19.51171875,14.70404052734375 L 19.278091430664062,14.229232788085938 L 19.3792724609375,14.6976318359375 L 19.43853759765625,14.840194702148438 L 18.938552856445312,14.867767333984375 L 18.766983032226562,14.367767333984375 L 19.049285888671875,13.950469970703125 L 19.220901489257812,14.276718139648438 L 19.0946044921875,14.1756591796875 L 18.731857299804688,13.993148803710938 L 18.879989624023438,14.068634033203125 L 19.251174926757812,14.295852661132812 L 19.066192626953125,14.309051513671875 L 18.775558471679688,14.16326904296875 L 18.923690795898438,14.187652587890625 L 19.422317504882812,14.227996826171875 L 18.92877197265625,14.418487548828125 L 18.988037109375,14.597793579101562 L 19.46319580078125,14.467987060546875 L 19.0870361328125,14.421249389648438 M 19.131393432617188,8.88018798828125 L 19.131393432617188,8.88018798828125 L 19.165496826171875,8.38018798828125 L 18.665512084960938,8.385391235351562 L 18.42852783203125,8.872955322265625 L 18.824859619140625,9.218368530273438 L 19.135665893554688,8.78668212890625 L 18.709182739257812,8.96917724609375 L 18.910995483398438,9.015914916992188 L 18.717605590820312,8.970748901367188 L 18.5343017578125,8.751495361328125 L 18.580154418945312,8.549819946289062 L 19.080154418945312,8.549819946289062 L 18.580169677734375,8.458358764648438 L 18.2945556640625,8.905990600585938 L 18.216888427734375,8.77618408203125 L 18.052017211914062,8.403610229492188 L 18.552017211914062,8.554168701171875 L 19.052017211914062,8.59771728515625 L 18.885467529296875,8.725906372070312" fill="none" stroke="#000000" stroke-width="1"/>
	<path d="M 13.58087158203125,7.362060546875 L 13.58087158203125,7.362060546875 L 13.249984741210938,7.804901123046875 L 13.0096435546875,8.287673950195312 L 12.973892211914062,8.78765869140625 L 12.923049926757812,9.287643432617188 L 12.875564575195312,9.787628173828125 L 12.828079223632812,10.287612915039062 L 12.780593872070312,10.78759765625 L 12.838180541992188,11.287582397460938 L 13.043350219726562,11.787567138671875 L 13.27532958984375,12.283111572265625 L 13.508987426757812,12.778656005859375 L 13.809722900390625,13.227874755859375 L 14.20941162109375,13.558914184570312 L 14.609100341796875,13.891555786132812 L 14.42913818359375,14.39154052734375 L 13.959060668945312,14.637939453125 L 13.459075927734375,14.641555786132812 L 12.959091186523438,14.55487060546875 L 12.4591064453125,14.480972290039062 L 11.959121704101562,14.387908935546875 L 11.459136962890625,14.24212646484375 L 10.959152221679688,14.097946166992188 L 10.5242919921875,13.794052124023438 L 10.143096923828125,13.42626953125 L 9.75518798828125,13.053695678710938 L 9.367279052734375,12.681121826171875 L 9.178939819335938,12.199935913085938 L 9.181198120117188,11.699935913085938 L 9.163909912109375,11.199935913085938 L 9.066116333007812,10.699935913085938 L 9.33331298828125,10.2379150390625 L 9.362380981445312,9.7379150390625 L 9.394805908203125,9.2379150390625 L 9.730758666992188,8.838180541992188 L 10.106964111328125,8.47998046875 L 10.578765869140625,8.27191162109375 L 10.901321411132812,7.873779296875 L 10.995803833007812,7.3830108642578125 L 11.455856323242188,7.1414031982421875 L 11.955856323242188,7.26641845703125 L 12.455856323242188,7.2595977783203125 L 12.827041625976562,6.891815185546875 L 13.268661499023438,6.602294921875 L 13.768661499023438,6.6681976318359375 L 14.191818237304688,7.005615234375 L 13.839126586914062,7.4085235595703125 M 13.256423950195312,7.4331817626953125 L 13.256423950195312,7.4331817626953125 L 12.756439208984375,7.551788330078125 L 12.608352661132812,7.614501953125 L 12.1365966796875,7.84490966796875 L 12.581558227539062,8.161575317382812 L 13.056716918945312,8.34088134765625 M 12.334884643554688,9.5684814453125 L 12.334884643554688,9.5684814453125 L 11.83489990234375,9.74139404296875 L 11.651596069335938,10.238540649414062 L 12.128433227539062,10.46575927734375 L 12.61700439453125,10.34075927734375 L 12.954635620117188,10.491317749023438 M 12.774734497070312,11.864700317382812 L 12.774734497070312,11.864700317382812 L 12.366714477539062,12.197341918945312 L 11.918441772460938,12.498031616210938 L 12.418441772460938,12.6629638671875 L 12.918441772460938,12.842269897460938 L 13.418441772460938,12.938522338867188 M 13.722152709960938,13.35064697265625 L 13.722152709960938,13.35064697265625 L 13.22216796875,13.453292846679688 L 12.9197998046875,13.900924682617188 L 13.4197998046875,13.925308227539062 L 13.9197998046875,14.008773803710938 L 14.31109619140625,14.394119262695312 M 11.029815673828125,8.08416748046875 L 11.029815673828125,8.08416748046875 L 11.41607666015625,8.261871337890625 L 11.450180053710938,8.761856079101562 L 10.956634521484375,8.981094360351562 L 10.456649780273438,8.852890014648438 L 9.9566650390625,8.80615234375 L 9.459762573242188,9.046142578125 M 9.343658447265625,10.540390014648438 L 9.343658447265625,10.540390014648438 L 9.622604370117188,10.567962646484375 L 10.112838745117188,10.661026000976562 L 10.445449829101562,11.055953979492188 L 10.471176147460938,11.509979248046875 L 10.044692993164062,11.844223022460938 L 9.544708251953125,11.813446044921875 L 9.069595336914062,11.842605590820312 M 10.813735961914062,13.793380737304688 L 10.813735961914062,13.793380737304688 L 11.02392578125,13.66357421875 L 11.430328369140625,13.35968017578125 L 11.88702392578125,13.130844116210938 L 11.9462890625,13.630828857421875 L 11.575149536132812,14.032150268554688 L 11.202346801757812,14.4334716796875" fill="none" stroke="#000000" stroke-width="1"/>
</svg>
