<?xml version="1.0" ?>
<svg baseProfile="full" height="195mm" version="1.1" viewBox="0 0 27.5 19.5" width="275mm" xmlns="http://www.w3.org/2000/svg" xmlns:ev="http://www.w3.org/2001/xml-events" xmlns:xlink="http://www.w3.org/1999/xlink">
	<defs/>
	<path d="M 14.632766723632812,10.02069091796875 L 14.632766723632812,10.02069091796875 L 14.288467407226562,10.42041015625 L 14.465118408203125,10.907974243164062 L 14.75579833984375,11.328460693359375 M 17.115631103515625,9.614776611328125 L 17.115631103515625,9.614776611328125 L 16.615646362304688,9.478591918945312 L 16.125457763671875,9.29608154296875 L 15.640289306640625,9.11517333984375 L 15.176910400390625,8.863983154296875 L 14.723602294921875,9.180648803710938 L 14.6241455078125,9.680633544921875 L 14.963455200195312,10.077163696289062 M 17.457290649414062,11.582611083984375 L 17.457290649414062,11.582611083984375 L 17.014053344726562,11.868927001953125 L 16.564102172851562,12.139266967773438 L 16.064117431640625,12.256271362304688 L 15.564132690429688,12.342941284179688 L 15.08734130859375,12.562179565429688 L 14.665908813476562,12.255081176757812 L 14.252853393554688,11.9495849609375 L 14.042709350585938,11.508331298828125 L 14.23779296875,11.027145385742188 L 14.73779296875,10.903717041015625 M 16.088119506835938,11.083755493164062 L 16.088119506835938,11.083755493164062 L 15.591217041015625,11.25347900390625 M 15.986221313476562,10.285018920898438 L 15.986221313476562,10.285018920898438 M 14.297378540039062,10.09014892578125 L 14.297378540039062,10.09014892578125 L 14.068771362304688,9.648895263671875 L 14.510391235351562,9.963958740234375 L 15.010391235351562,10.128890991210938 L 14.572174072265625,9.861724853515625 M 14.605804443359375,10.51544189453125 L 14.605804443359375,10.51544189453125 L 14.306777954101562,10.96307373046875 L 14.66455078125,11.342041015625 L 14.49298095703125,10.852874755859375 L 14.091659545898438,11.230239868164062" fill="none" stroke="#000000" stroke-width="1"/>
	<path d="M 18.656936645507812,4.168426513671875 L 18.656936645507812,4.168426513671875 L 18.957672119140625,4.235931396484375 L 19.223190307617188,4.2619171142578125 M 19.0069580078125,3.7902984619140625 L 19.0069580078125,3.7902984619140625 L 18.85382080078125,4.1804351806640625 M 18.875656127929688,4.1667938232421875 L 18.875656127929688,4.1667938232421875 L 18.43743896484375,4.0353851318359375 L 18.815322875976562,4.3184967041015625 L 19.171417236328125,3.923553466796875 L 18.671432495117188,4.050140380859375 L 18.801132202148438,4.5501251220703125 L 19.081756591796875,4.097686767578125 L 18.683792114257812,4.4846343994140625 M 18.6279296875,4.3005218505859375 L 18.6279296875,4.3005218505859375 L 18.481521606445312,3.804962158203125 L 17.999710083007812,4.054534912109375 M 18.023757934570312,4.5545196533203125 L 18.023757934570312,4.5545196533203125 L 18.3966064453125,4.9334869384765625 L 18.439102172851562,4.4334869384765625 L 17.957290649414062,4.6894683837890625 M 21.484695434570312,6.4447784423828125 L 21.484695434570312,6.4447784423828125 L 21.177276611328125,6.4452056884765625 L 20.791046142578125,6.7219390869140625 L 20.580902099609375,7.21429443359375 L 20.848098754882812,7.67950439453125 L 21.19580078125,8.077621459960938 L 21.655853271484375,8.306442260742188 M 21.755355834960938,8.175033569335938 L 21.755355834960938,8.175033569335938 L 21.950439453125,7.9861297607421875 L 22.165664672851562,7.6454925537109375 L 22.271881103515625,7.1454925537109375 L 22.1690673828125,6.6454925537109375 L 21.88848876953125,6.1898651123046875 M 21.204391479492188,6.9425506591796875 L 21.204391479492188,6.9425506591796875 L 21.00262451171875,6.8718414306640625 L 20.758941650390625,7.0591278076171875 L 20.809829711914062,7.5083465576171875 L 21.159194946289062,7.7946624755859375 L 21.617568969726562,7.775054931640625 L 21.826080322265625,7.282684326171875 L 21.501907348632812,6.8637847900390625 M 21.28887939453125,13.669708251953125 L 21.28887939453125,13.669708251953125 L 21.025070190429688,13.804290771484375 L 20.707595825195312,14.095413208007812 L 20.586318969726562,14.59539794921875 L 20.56903076171875,15.095382690429688 L 20.809417724609375,15.584548950195312 L 21.246002197265625,15.81976318359375 L 21.711090087890625,15.99267578125 M 21.87432861328125,15.947509765625 L 21.87432861328125,15.947509765625 L 22.216995239257812,15.814498901367188 L 22.581466674804688,15.432342529296875 L 22.55914306640625,14.932342529296875 L 22.385894775390625,14.432342529296875 L 22.148910522460938,13.947967529296875 L 21.804611206054688,13.564208984375 L 21.30462646484375,13.480728149414062 M 21.771453857421875,15.271697998046875 L 21.771453857421875,15.271697998046875 L 22.048721313476562,15.232940673828125 L 22.292449951171875,14.759735107421875 L 22.114166259765625,14.259735107421875 L 21.615585327148438,14.077224731445312 L 21.1156005859375,14.293258666992188 L 20.7679443359375,14.73291015625 L 21.043548583984375,15.185333251953125 L 21.4818115234375,15.455673217773438 L 21.9818115234375,15.364212036132812 M 21.673324584960938,14.958831787109375 L 21.673324584960938,14.958831787109375 L 21.30218505859375,14.835403442382812 L 21.38995361328125,14.703994750976562 L 21.747726440429688,14.563003540039062 L 22.046798706054688,14.842941284179688 L 21.54681396484375,14.864120483398438" fill="none" stroke="#000000" stroke-width="1"/>
	<path d="M 12.299362182617188,14.980514526367188 L 12.299362182617188,14.980514526367188 L 11.830963134765625,14.721343994140625 L 11.453125,14.37750244140625 L 11.216140747070312,13.957000732421875 L 11.08984375,13.491775512695312 L 11.08984375,13.008987426757812 L 11.130645751953125,12.526199340820312 L 11.17144775390625,12.043411254882812 L 11.212249755859375,11.560623168945312 L 11.2530517578125,11.077835083007812 L 11.293853759765625,10.595046997070312 L 11.483917236328125,10.131423950195312 L 11.838333129882812,9.792388916015625 L 12.199447631835938,9.47412109375 L 12.622604370117188,9.222930908203125 L 13.084335327148438,9.1314697265625 L 13.542709350585938,9.428970336914062 L 13.042724609375,9.385406494140625 L 12.542739868164062,9.341842651367188 L 12.042755126953125,9.29827880859375 L 11.542770385742188,9.254714965820312 L 11.04278564453125,9.211151123046875 L 10.542800903320312,9.167587280273438 L 10.042816162109375,9.195159912109375 L 9.542831420898438,9.320175170898438 L 9.0428466796875,9.4451904296875 L 8.542861938476562,9.57177734375 L 8.042877197265625,9.6983642578125 L 7.562744140625,9.94476318359375 L 7.1614227294921875,10.271011352539062 L 6.76177978515625,10.598846435546875 L 6.377227783203125,10.973007202148438 L 6.128509521484375,11.420639038085938 L 6.010589599609375,11.916183471679688 L 5.924530029296875,12.414932250976562 L 5.841827392578125,12.913681030273438 L 6.1090240478515625,13.35333251953125 L 6.5456085205078125,13.537429809570312 L 6.9821929931640625,13.721527099609375 L 7.4187774658203125,13.904022216796875 L 7.8553619384765625,14.086517333984375 L 8.291946411132812,14.269012451171875 L 8.73858642578125,14.409988403320312 L 9.19696044921875,14.469512939453125 L 9.65533447265625,14.529037475585938 L 10.115386962890625,14.582168579101562 L 10.577117919921875,14.635299682617188 L 11.04052734375,14.698013305664062 L 11.503936767578125,14.797454833984375 L 11.96734619140625,14.896896362304688 L 12.430755615234375,15.0123291015625 M 8.760879516601562,14.25537109375 L 8.760879516601562,14.25537109375 L 8.421615600585938,13.855636596679688 L 8.136001586914062,13.407989501953125 L 7.9661102294921875,12.94757080078125 L 7.90521240234375,12.466384887695312 L 7.9326171875,11.983596801757812 L 7.9616851806640625,11.500808715820312 L 8.014236450195312,11.018020629882812 L 8.140579223632812,10.535232543945312 L 8.409454345703125,10.119537353515625 L 8.752120971679688,9.770919799804688 L 9.104843139648438,9.425506591796875" fill="none" stroke="#000000" stroke-width="1"/>
</svg>
