<?xml version="1.0" ?>
<svg baseProfile="full" height="195mm" version="1.1" viewBox="0 0 27.5 19.5" width="275mm" xmlns="http://www.w3.org/2000/svg" xmlns:ev="http://www.w3.org/2001/xml-events" xmlns:xlink="http://www.w3.org/1999/xlink">
	<defs/>
	<path d="M 15.669410705566406,11.097686767578125 L 15.669410705566406,11.097686767578125 L 15.586708068847656,10.969482421875 L 15.504005432128906,10.841278076171875 L 15.419624328613281,10.698699951171875 L 15.448692321777344,10.544937133789062 L 15.581748962402344,10.461456298828125 L 15.731559753417969,10.3699951171875 L 15.883049011230469,10.25775146484375 L 16.03453826904297,10.261367797851562 L 16.14411163330078,10.368804931640625 L 16.25200653076172,10.504989624023438 L 16.36492156982422,10.653945922851562 L 16.472816467285156,10.80450439453125 L 16.532081604003906,10.98541259765625 L 16.487953186035156,11.211044311523438 L 16.33818817138672,11.441452026367188 L 16.158226013183594,11.671859741210938 L 15.978263854980469,11.900680541992188 L 15.766441345214844,12.129501342773438 L 15.485862731933594,12.305618286132812 L 15.205284118652344,12.481735229492188 L 14.923027038574219,12.641860961914062 L 14.639091491699219,12.798812866210938 L 14.345100402832031,12.9078369140625 L 14.044410705566406,12.981719970703125 L 13.745384216308594,12.968521118164062 L 13.463127136230469,12.819549560546875 L 13.212730407714844,12.61627197265625 L 13.017677307128906,12.3507080078125 L 12.817588806152344,12.08673095703125 L 12.617500305175781,11.82275390625 M 12.605995178222656,11.74456787109375 L 12.605995178222656,11.74456787109375 L 12.566886901855469,11.552474975585938 L 12.521080017089844,11.3555908203125 L 12.475273132324219,11.158706665039062 L 12.437843322753906,10.961822509765625 L 12.437843322753906,10.772918701171875 L 12.478645324707031,10.623947143554688 L 12.529533386230469,10.430252075195312 L 12.580421447753906,10.278091430664062 M 18.692481994628906,11.83544921875 L 18.692481994628906,11.83544921875 L 18.52593231201172,11.965240478515625 L 18.35938262939453,12.09503173828125 L 18.26830291748047,12.215240478515625 L 18.152061462402344,12.36419677734375 L 18.03582000732422,12.513153076171875 L 17.926292419433594,12.663711547851562 L 17.763099670410156,12.886138916015625 L 17.74077606201172,12.714813232421875 L 17.716773986816406,12.474807739257812 L 17.69109344482422,12.2252197265625 L 17.66541290283203,11.986801147460938 L 17.646446228027344,11.770751953125 L 17.640892028808594,11.556304931640625 L 17.635337829589844,11.34185791015625 L 17.634803771972656,11.127410888671875 L 17.632591247558594,10.9129638671875 L 17.63037872314453,10.716079711914062 L 17.62816619873047,10.520797729492188 L 17.625953674316406,10.325515747070312 L 17.720436096191406,10.445724487304688 L 17.81659698486328,10.57073974609375 L 17.912757873535156,10.695755004882812 L 18.00891876220703,10.819168090820312 L 18.105079650878906,10.944183349609375 L 18.20124053955078,11.069198608398438 L 18.297401428222656,11.1942138671875 L 18.39356231689453,11.319229125976562 L 18.48804473876953,11.444244384765625 L 18.629478454589844,11.503768920898438 L 18.770912170410156,11.56329345703125 L 18.91570281982422,11.622817993164062 L 19.062156677246094,11.682342529296875" fill="none" stroke="#000000" stroke-width="1"/>
	<path d="M 20.56230926513672,7.4194183349609375 L 20.56230926513672,7.4194183349609375 L 20.27501678466797,7.351898193359375 L 20.059837341308594,7.534393310546875 M 19.826255798339844,7.0228424072265625 L 19.826255798339844,7.0228424072265625 L 19.959312438964844,7.452911376953125 L 20.110801696777344,7.95166015625 L 20.05829620361328,8.451644897460938 L 19.817955017089844,8.9200439453125 L 19.565879821777344,9.374069213867188 M 20.186927795410156,8.86529541015625 L 20.186927795410156,8.86529541015625 L 20.482643127441406,9.033432006835938 L 20.982643127441406,8.905227661132812 L 21.31859588623047,8.526260375976562 L 21.379539489746094,8.026260375976562 L 21.19957733154297,7.5262603759765625 L 20.836830139160156,7.1472930908203125 M 20.511924743652344,8.376861572265625 L 20.511924743652344,8.376861572265625 L 20.807640075683594,8.746246337890625 L 20.91553497314453,8.246246337890625 L 20.93286895751953,7.746246337890625 L 20.747886657714844,8.243392944335938 M 19.72637176513672,12.267868041992188 L 19.72637176513672,12.267868041992188 L 19.78227996826172,12.693130493164062 L 19.89185333251953,13.193115234375 L 20.001426696777344,13.693099975585938 L 19.95897674560547,14.193084716796875 L 19.762245178222656,14.690231323242188 L 19.562156677246094,15.185775756835938 M 20.041221618652344,14.885513305664062 L 20.041221618652344,14.885513305664062 L 20.38220977783203,15.17022705078125 L 20.88220977783203,15.160202026367188 L 21.35063934326172,14.971298217773438 L 21.54405975341797,14.4901123046875 L 21.605003356933594,13.99615478515625 L 21.58435821533203,13.49615478515625 L 21.404396057128906,13.01177978515625 L 20.922584533691406,12.829269409179688 L 20.42259979248047,12.831298828125 L 19.92261505126953,13.063308715820312 M 20.437644958496094,13.753631591796875 L 20.437644958496094,13.753631591796875 L 20.21912384033203,14.1102294921875 L 20.56346893310547,14.275161743164062 L 21.02855682373047,14.452865600585938 L 21.20185089111328,13.952865600585938 L 20.701866149902344,13.826263427734375 L 20.287132263183594,14.019943237304688" fill="none" stroke="#000000" stroke-width="1"/>
	<path d="M 11.376335144042969,8.429214477539062 L 11.376335144042969,8.429214477539062 L 11.068916320800781,8.875259399414062 L 11.171775817871094,9.375244140625 L 11.331657409667969,9.875228881835938 L 11.494895935058594,10.375213623046875 L 11.323326110839844,10.87396240234375 L 11.150077819824219,11.367904663085938 L 10.976829528808594,11.861846923828125 L 10.853889465332031,12.355789184570312 L 10.757774353027344,12.852935791015625 L 10.671714782714844,13.350082397460938 L 11.007667541503906,13.729049682617188 L 11.464363098144531,13.879608154296875 L 11.937843322753906,13.807296752929688 M 11.676795959472656,8.189208984375 L 11.676795959472656,8.189208984375 L 11.176811218261719,8.168014526367188 L 10.676826477050781,8.18121337890625 L 10.465003967285156,8.671981811523438 L 10.259880065917969,9.162750244140625 L 10.054756164550781,9.653518676757812 L 9.915046691894531,10.15350341796875 L 9.877616882324219,10.653488159179688 L 9.867027282714844,11.153472900390625 L 9.851417541503906,11.653457641601562 L 9.835807800292969,12.1534423828125 L 9.820198059082031,12.653427124023438 L 9.804588317871094,13.153411865234375 L 10.112037658691406,13.570693969726562 L 10.494956970214844,13.919296264648438 L 10.980171203613281,13.791091918945312 L 11.383216857910156,13.487197875976562 M 11.209022521972656,8.488815307617188 L 11.209022521972656,8.488815307617188 L 11.234748840332031,8.988800048828125 L 11.168830871582031,9.488784790039062 L 10.995582580566406,9.97314453125 L 10.829032897949219,10.465499877929688 L 10.647407531738281,10.93548583984375 L 10.495948791503906,11.419845581054688 L 10.409889221191406,11.913787841796875 L 10.450691223144531,12.406143188476562 L 10.649147033691406,12.8905029296875 L 10.850959777832031,13.373275756835938 L 10.771614074707031,13.865631103515625" fill="none" stroke="#000000" stroke-width="1"/>
</svg>
