<?xml version="1.0" ?>
<svg baseProfile="full" height="195mm" version="1.1" viewBox="0 0 27.5 19.5" width="275mm" xmlns="http://www.w3.org/2000/svg" xmlns:ev="http://www.w3.org/2001/xml-events" xmlns:xlink="http://www.w3.org/1999/xlink">
	<defs/>
	<path d="M 15.539100646972656,10.005416870117188 L 15.539100646972656,10.005416870117188 L 15.541358947753906,9.805328369140625 L 15.577140808105469,9.330520629882812 L 15.077156066894531,9.20391845703125 L 14.577171325683594,9.328933715820312 L 14.326774597167969,9.774978637695312 M 14.761146545410156,10.036590576171875 L 14.761146545410156,10.036590576171875 L 14.842216491699219,10.425125122070312 L 14.405677795410156,10.657135009765625 L 14.051307678222656,11.09039306640625 L 13.883079528808594,11.590377807617188 L 13.979240417480469,12.090362548828125 L 14.204521179199219,12.585906982421875 L 14.678001403808594,12.766815185546875 L 15.178001403808594,12.766815185546875 L 15.175788879394531,12.5731201171875 L 15.251808166503906,12.443313598632812 L 15.423423767089844,12.236846923828125 L 15.719139099121094,11.977676391601562 L 15.795158386230469,11.477676391601562 L 16.14118194580078,11.448501586914062 L 16.633094787597656,11.345855712890625 L 17.12500762939453,11.219253540039062 L 17.616920471191406,11.091049194335938" fill="none" stroke="#000000" stroke-width="1"/>
	<path d="M 19.863136291503906,9.744125366210938 L 19.863136291503906,9.744125366210938 M 20.742469787597656,10.349853515625 L 20.742469787597656,10.349853515625 L 20.616172790527344,10.849838256835938 L 20.45465850830078,11.349822998046875 L 20.160667419433594,11.799041748046875 L 19.66712188720703,11.965576171875 L 19.167137145996094,11.78466796875 L 18.73729705810547,11.466400146484375 L 18.367835998535156,11.066665649414062 L 18.15937042236328,10.5806884765625 L 18.116920471191406,10.0806884765625 L 18.32209014892578,9.599502563476562 L 18.76203155517578,9.325942993164062 L 19.23719024658203,9.138641357421875 L 19.73719024658203,9.051956176757812 L 20.23719024658203,9.12744140625 L 20.717369079589844,9.388198852539062 L 21.115379333496094,9.7767333984375 L 21.426185607910156,10.2227783203125 L 21.534080505371094,10.722763061523438 M 21.364891052246094,14.22265625 L 21.364891052246094,14.22265625 L 21.663963317871094,14.671875 L 21.99321746826172,15.116317749023438 L 22.456626892089844,15.378677368164062 L 22.94519805908203,15.561172485351562 L 23.44519805908203,15.585556030273438 L 23.90357208251953,15.321578979492188 L 24.19928741455078,14.88671875 L 24.429588317871094,14.408737182617188 L 24.633079528808594,13.922760009765625 L 24.67388153076172,13.422760009765625 L 24.378211975097656,12.96234130859375 L 24.01714324951172,12.546646118164062 L 23.65607452392578,12.130950927734375 L 23.21283721923828,11.83026123046875 L 22.712852478027344,11.892974853515625 L 22.212867736816406,12.04034423828125 L 21.71288299560547,12.265975952148438 L 21.303184509277344,12.646530151367188 L 21.121559143066406,13.145278930664062 L 20.960044860839844,13.645263671875 M 24.64185333251953,10.30181884765625 L 24.64185333251953,10.30181884765625 L 24.461891174316406,9.80181884765625 L 24.270179748535156,9.30181884765625 L 24.13884735107422,8.80181884765625 L 24.05950164794922,8.30181884765625 L 23.629661560058594,7.9995269775390625 L 23.129676818847656,8.081405639648438 L 22.689781188964844,8.414047241210938 L 22.529945373535156,8.914031982421875 L 22.761924743652344,9.409576416015625 L 23.128074645996094,9.810897827148438" fill="none" stroke="#000000" stroke-width="1"/>
	<path d="M 13.269996643066406,7.1826324462890625 L 13.269996643066406,7.1826324462890625 L 12.948081970214844,7.0506134033203125 L 12.549858093261719,6.9185943603515625 L 12.151634216308594,6.7865753173828125 L 11.753410339355469,6.6545562744140625 L 11.350425720214844,6.5897369384765625 L 10.850440979003906,6.7793121337890625 L 10.350456237792969,6.93048095703125 L 9.850471496582031,7.0816497802734375 L 9.350486755371094,7.1592254638671875 L 8.850502014160156,7.2176055908203125 L 9.010307312011719,7.3255767822265625 L 9.302055358886719,7.53594970703125 L 9.507957458496094,7.8087310791015625 L 9.713859558105469,8.081512451171875 L 9.926124572753906,8.354293823242188 L 10.147926330566406,8.636672973632812 L 10.369728088378906,8.919052124023438 L 10.591529846191406,9.201431274414062 L 10.713188171386719,9.525421142578125 L 10.739448547363281,9.900604248046875 L 10.727561950683594,10.275787353515625 L 10.728385925292969,10.663772583007812 L 10.740348815917969,11.0517578125 L 10.752311706542969,11.439743041992188 L 10.764274597167969,11.827728271484375 L 10.776237487792969,12.215713500976562 L 10.748451232910156,12.60369873046875 L 10.687278747558594,12.991683959960938 L 10.586357116699219,13.395660400390625 L 10.431388854980469,13.807647705078125 L 10.306617736816406,14.2308349609375 L 10.181846618652344,14.654022216796875 L 10.095237731933594,15.072402954101562 L 10.013404846191406,15.497177124023438 L 9.947456359863281,15.921951293945312 L 10.112037658691406,15.895523071289062 L 10.465782165527344,15.880294799804688 L 10.837013244628906,15.961074829101562 L 11.208244323730469,16.041854858398438 L 11.579475402832031,16.103424072265625 L 11.955482482910156,16.158599853515625 L 12.331489562988281,16.1497802734375 L 12.624824523925781,16.097763061523438 L 12.509605407714844,15.8553466796875 L 12.340324401855469,15.400146484375 L 12.261665344238281,14.940139770507812 L 12.189369201660156,14.480133056640625 L 12.155220031738281,14.020126342773438 L 12.127433776855469,13.56011962890625 L 12.099647521972656,13.100112915039062 L 12.067085266113281,12.640106201171875 L 12.039299011230469,12.180099487304688 L 12.110084533691406,11.7200927734375 L 12.222190856933594,11.260086059570312 L 12.356559753417969,10.800079345703125 L 12.490928649902344,10.340072631835938 L 12.625297546386719,9.88006591796875 L 12.766029357910156,9.420059204101562 L 12.906761169433594,8.960052490234375 L 13.041130065917969,8.500045776367188 L 13.148475646972656,8.0400390625 L 13.238334655761719,7.5704345703125 L 13.344093322753906,7.420806884765625 L 13.383079528808594,7.2455902099609375 M 13.093925476074219,7.8710174560546875 L 13.093925476074219,7.8710174560546875 L 12.759300231933594,7.790191650390625 L 12.362663269042969,7.7093658447265625 L 11.966026306152344,7.602935791015625 L 11.575752258300781,7.4965057373046875 L 11.075767517089844,7.684478759765625 L 10.575782775878906,7.8916473388671875 L 10.075798034667969,8.08441162109375 M 10.243629455566406,8.769927978515625 L 10.243629455566406,8.769927978515625 L 10.703880310058594,8.773895263671875 L 11.153007507324219,8.7874755859375 L 11.602134704589844,8.801055908203125 L 12.056037902832031,8.81463623046875 L 12.509941101074219,8.828216552734375 L 12.863685607910156,8.841796875 M 12.595161437988281,9.844894409179688 L 12.595161437988281,9.844894409179688 L 12.235099792480469,9.920867919921875 L 11.778053283691406,9.796844482421875 L 11.330543518066406,9.6024169921875 L 10.968894958496094,9.479995727539062 L 10.545234680175781,9.634368896484375 M 10.895912170410156,10.911849975585938 L 10.895912170410156,10.911849975585938 L 11.395912170410156,10.938217163085938 L 11.895912170410156,11.00299072265625 L 12.395912170410156,11.07257080078125 M 11.765708923339844,12.148452758789062 L 11.765708923339844,12.148452758789062 L 11.265724182128906,12.144424438476562 L 10.765739440917969,12.140396118164062 M 10.678428649902344,13.269882202148438 L 10.678428649902344,13.269882202148438 L 11.178428649902344,13.254653930664062 L 11.678428649902344,13.239425659179688 L 12.089408874511719,13.256195068359375 M 11.931388854980469,14.634475708007812 L 11.931388854980469,14.634475708007812 L 11.522041320800781,14.56805419921875 L 11.028434753417969,14.7208251953125 L 10.528450012207031,14.868789672851562 L 10.028465270996094,14.803970336914062" fill="none" stroke="#000000" stroke-width="1"/>
</svg>
