<?xml version="1.0" ?>
<svg baseProfile="full" height="195mm" version="1.1" viewBox="0 0 27.5 19.5" width="275mm" xmlns="http://www.w3.org/2000/svg" xmlns:ev="http://www.w3.org/2001/xml-events" xmlns:xlink="http://www.w3.org/1999/xlink">
	<defs/>
	<path d="M 16.43895721435547,13.58294677734375 L 16.43895721435547,13.58294677734375 L 16.124839782714844,13.556961059570312 L 15.889533996582031,13.54693603515625 L 15.825294494628906,13.735824584960938 L 15.662101745605469,14.183456420898438 L 15.492210388183594,14.28289794921875 L 15.325660705566406,14.404708862304688 L 15.159111022949219,14.526519775390625 L 14.985862731933594,14.571670532226562 L 14.755592346191406,14.357223510742188 L 14.508552551269531,13.98944091796875 L 14.336982727050781,13.551376342773438 L 14.391212463378906,13.189971923828125 L 14.661766052246094,12.874893188476562 L 14.907173156738281,12.556625366210938 L 14.738945007324219,12.255935668945312 L 14.506996154785156,11.89453125 L 14.903327941894531,11.718399047851562 L 15.403327941894531,11.741180419921875 L 15.903327941894531,11.990753173828125 L 16.175559997558594,12.417617797851562 L 16.474632263183594,12.858856201171875 L 16.974632263183594,12.818496704101562 L 17.16301727294922,12.431533813476562 M 17.09937286376953,13.83636474609375 L 17.09937286376953,13.83636474609375 L 16.632652282714844,13.82794189453125 M 16.76238250732422,13.699737548828125 L 16.76238250732422,13.699737548828125 L 17.039649963378906,13.797592163085938 M 15.405372619628906,13.50994873046875 L 15.405372619628906,13.50994873046875 L 15.113059997558594,13.407302856445312 L 14.678199768066406,13.479598999023438 L 14.822990417480469,13.979583740234375 L 15.298149108886719,14.225982666015625 L 15.754844665527344,13.91888427734375 M 15.309440612792969,13.977096557617188 L 15.309440612792969,13.977096557617188 M 14.821708679199219,12.083282470703125 L 14.821708679199219,12.083282470703125 L 14.998359680175781,12.076461791992188 L 15.268913269042969,11.97540283203125 L 15.437187194824219,11.993392944335938 L 15.581977844238281,11.9466552734375 L 15.621116638183594,12.386306762695312 L 15.565254211425781,12.88629150390625 L 15.336647033691406,12.87786865234375 L 15.034278869628906,12.415847778320312 L 15.293098449707031,11.9378662109375" fill="none" stroke="#000000" stroke-width="1"/>
	<path d="M 26.00017547607422,15.175323486328125 L 26.00017547607422,15.175323486328125 L 25.976173400878906,14.675323486328125 L 25.95720672607422,14.497604370117188 L 25.954994201660156,13.997604370117188 L 25.946083068847656,13.497604370117188 M 25.684715270996094,9.937301635742188 L 25.684715270996094,9.937301635742188 L 25.56177520751953,9.437301635742188 L 25.433799743652344,8.937301635742188 L 25.476295471191406,8.437301635742188 L 25.51709747314453,7.9373016357421875 L 25.690391540527344,7.4373016357421875 M 31.02153778076172,10.823944091796875 L 31.02153778076172,10.823944091796875 L 30.870079040527344,10.440185546875 L 30.698509216308594,9.940185546875 L 30.52861785888672,9.440185546875 L 30.48113250732422,8.940185546875 L 30.43364715576172,8.440185546875 L 30.32915496826172,7.940185546875 L 30.004981994628906,7.50372314453125 L 29.66236114501953,7.070465087890625 L 29.31806182861328,6.6387786865234375 L 28.97376251220703,6.20709228515625 L 28.595924377441406,5.8025665283203125 L 28.156028747558594,5.492279052734375 L 27.679237365722656,5.2410888671875 L 27.17925262451172,5.05218505859375 L 26.67926788330078,5.00384521484375 L 26.179283142089844,5.041015625 L 25.679298400878906,5.0877532958984375 L 25.17931365966797,5.1217193603515625 L 24.67932891845703,5.1556854248046875 L 24.179344177246094,5.2183990478515625 L 23.679359436035156,5.346588134765625 L 23.17937469482422,5.4971466064453125 L 22.67938995361328,5.647705078125 L 22.187522888183594,5.8477783203125 L 21.709068298339844,6.0797882080078125 L 21.23731231689453,6.321380615234375 L 20.76891326904297,6.567779541015625 L 20.303855895996094,6.815765380859375 L 19.87737274169922,7.12445068359375 L 19.476051330566406,7.4554901123046875 L 19.09821319580078,7.8312530517578125 L 18.815956115722656,8.270904541015625 L 18.62256622314453,8.728134155273438 L 18.440940856933594,9.196533203125 L 18.277748107910156,9.680892944335938 L 18.12293243408203,10.165252685546875 L 17.96979522705078,10.649612426757812 L 17.84014129638672,11.140380859375 L 17.730613708496094,11.634323120117188 L 17.66301727294922,12.129867553710938 L 17.693763732910156,12.623809814453125 L 17.79662322998047,13.117752075195312 L 17.96991729736328,13.605316162109375 L 18.206947326660156,14.0577392578125 L 18.52446746826172,14.471832275390625 L 18.86377716064453,14.869949340820312 L 19.245018005371094,15.213775634765625 L 19.626258850097656,15.549606323242188 L 20.059486389160156,15.821548461914062 L 20.506126403808594,16.071121215820312 L 20.95276641845703,16.320693969726562 L 21.419517517089844,16.503189086914062 L 21.886268615722656,16.685684204101562 L 22.361427307128906,16.76116943359375 L 22.851661682128906,16.807907104492188 L 23.34357452392578,16.833892822265625 L 23.835487365722656,16.859878540039062 L 24.329078674316406,16.8858642578125 L 24.826026916503906,16.910247802734375 L 25.319618225097656,17.060806274414062 L 25.81153106689453,17.19219970703125 L 26.31153106689453,17.256500244140625 L 26.81153106689453,17.169815063476562 L 27.29674530029297,17.04638671875 L 27.76854705810547,16.863876342773438 L 28.225242614746094,16.654205322265625 L 28.60144805908203,16.324752807617188 L 28.922325134277344,15.942596435546875 L 29.23816680908203,15.560440063476562 L 29.555686950683594,15.17828369140625 L 29.88829803466797,14.796127319335938 L 30.194068908691406,14.409164428710938 L 30.493141174316406,14.01422119140625 L 30.72679901123047,13.54742431640625 L 30.84978485107422,13.051864624023438 L 30.929161071777344,12.551864624023438 L 30.95153045654297,12.051864624023438 L 30.97557830810547,11.551864624023438 L 30.997947692871094,11.051864624023438 L 31.02031707763672,10.551864624023438" fill="none" stroke="#000000" stroke-width="1"/>
	<path d="M 12.443687438964844,6.5576324462890625 L 12.443687438964844,6.5576324462890625 L 11.943702697753906,6.580413818359375 L 11.443717956542969,6.64471435546875 L 10.943733215332031,6.7729034423828125 L 10.466941833496094,6.9458160400390625 L 9.993507385253906,7.1283111572265625 L 9.523429870605469,7.3108062744140625 L 9.053352355957031,7.4933013916015625 L 8.591667175292969,7.7221221923828125 L 8.150093078613281,7.9653167724609375 L 7.713554382324219,8.218093872070312 L 7.360862731933594,8.592254638671875 L 7.122200012207031,9.038299560546875 L 6.907020568847656,9.487518310546875 L 6.696876525878906,9.935150146484375 L 6.498466491699219,10.382781982421875 L 6.315162658691406,10.830413818359375 L 6.143592834472656,11.290817260742188 L 6.050834655761719,11.775177001953125 L 6.023475646972656,12.269119262695312 L 6.109580993652344,12.767868041992188 L 6.294609069824219,13.257034301757812 L 6.479637145996094,13.744598388671875 L 6.751869201660156,14.192230224609375 L 7.044227600097656,14.62548828125 L 7.385215759277344,15.012435913085938 L 7.816764831542969,15.258834838867188 L 8.255027770996094,15.495651245117188 L 8.694969177246094,15.7276611328125 L 9.134910583496094,15.959671020507812 L 9.573173522949219,16.185302734375 L 10.011436462402344,16.407730102539062 L 10.449699401855469,16.630157470703125 L 10.909751892089844,16.761550903320312 L 11.373161315917969,16.886566162109375 L 11.834892272949219,17.001998901367188 L 12.298301696777344,17.122207641601562 L 12.760032653808594,17.240814208984375 M 13.836982727050781,18.159149169921875 L 13.836982727050781,18.159149169921875 L 13.475914001464844,18.07086181640625 L 12.975929260253906,17.936264038085938 L 13.030158996582031,17.436264038085938 L 13.089424133300781,16.936264038085938 L 13.123527526855469,16.436264038085938 L 13.588615417480469,16.261734008789062 M 13.613990783691406,5.3799591064453125 L 13.613990783691406,5.3799591064453125 L 13.319999694824219,5.2421722412109375 L 12.820014953613281,5.1043853759765625 L 12.541114807128906,5.548828125 L 12.372886657714844,6.0427703857421875 L 12.204658508300781,6.536712646484375 L 12.189048767089844,7.0366973876953125 L 12.421028137207031,7.4843292236328125 L 12.867668151855469,7.7466888427734375 L 13.341148376464844,7.9307861328125" fill="none" stroke="#000000" stroke-width="1"/>
</svg>
