<?xml version="1.0" ?>
<svg baseProfile="full" height="195mm" version="1.1" viewBox="0 0 27.5 19.5" width="275mm" xmlns="http://www.w3.org/2000/svg" xmlns:ev="http://www.w3.org/2001/xml-events" xmlns:xlink="http://www.w3.org/1999/xlink">
	<defs/>
	<path d="M 16.980026245117188,9.31005859375 L 16.980026245117188,9.31005859375 L 16.637405395507812,9.36798095703125 L 16.20086669921875,9.18707275390625 L 15.700881958007812,8.986984252929688 L 15.353225708007812,8.574478149414062 L 15.005569458007812,8.36163330078125 L 14.761886596679688,8.844406127929688 L 15.1783447265625,9.175445556640625 M 15.025787353515625,9.089187622070312 L 15.025787353515625,9.089187622070312 L 14.617767333984375,9.434600830078125 L 14.519973754882812,9.934585571289062 L 14.939773559570312,10.303970336914062 L 15.399826049804688,10.535980224609375 M 15.194168090820312,10.697265625 L 15.194168090820312,10.697265625 L 15.022598266601562,11.194412231445312 L 15.482650756835938,11.428024291992188 L 15.691162109375,10.948440551757812 L 15.74371337890625,10.448440551757812 M 15.777435302734375,9.33380126953125 L 15.777435302734375,9.33380126953125 L 15.96917724609375,9.517898559570312 L 16.001602172851562,10.01788330078125 L 15.648910522460938,10.452743530273438" fill="none" stroke="#000000" stroke-width="1"/>
	<path d="M 18.474746704101562,6.8470916748046875 L 18.474746704101562,6.8470916748046875 L 18.555816650390625,6.3470916748046875 L 18.85321044921875,5.9297943115234375 L 19.303207397460938,5.6818084716796875 L 19.756561279296875,5.44818115234375 L 20.238418579101562,5.694580078125 L 20.70684814453125,5.9649200439453125 L 21.166900634765625,6.23846435546875 L 21.439132690429688,6.6829071044921875 L 21.671112060546875,7.1353302001953125 L 21.832672119140625,7.6244964599609375 L 21.8583984375,8.124481201171875 L 21.834396362304688,8.624465942382812 L 21.68463134765625,9.12445068359375 L 21.494598388671875,9.624435424804688 L 21.271041870117188,10.118377685546875 L 20.923385620117188,10.5516357421875 L 20.498580932617188,10.877883911132812 L 20.053665161132812,11.15142822265625 L 19.561798095703125,11.353103637695312 L 19.061813354492188,11.232879638671875 L 18.7996826171875,10.742111206054688 L 18.5543212890625,10.248153686523438 L 18.3089599609375,9.754196166992188 L 18.070297241210938,9.260238647460938 L 17.937286376953125,8.760238647460938 L 17.8529052734375,8.260238647460938 L 17.850692749023438,7.7602386474609375 L 17.977035522460938,7.2602386474609375 L 18.219085693359375,6.7774505615234375 M 19.495346069335938,7.5737457275390625 L 19.495346069335938,7.5737457275390625 L 19.4730224609375,8.07373046875 L 19.76873779296875,8.518173217773438 L 20.042648315429688,8.962615966796875 L 20.11029052734375,9.462600708007812 L 20.51165771484375,9.113983154296875 L 20.834213256835938,8.698287963867188 L 21.044403076171875,8.215499877929688 L 20.7269287109375,7.7982025146484375 L 20.226943969726562,7.662017822265625 L 19.726959228515625,7.540191650390625 L 19.226974487304688,7.483856201171875 L 18.914535522460938,7.044189453125 L 18.9637451171875,6.544189453125 L 19.442245483398438,6.3680572509765625 L 19.942245483398438,6.5345916748046875 L 20.417404174804688,6.7777862548828125 L 20.770126342773438,7.171112060546875 L 21.028945922851562,7.6219329833984375 L 21.23577880859375,8.106292724609375 M 20.37701416015625,8.601882934570312 L 20.37701416015625,8.601882934570312 L 20.148406982421875,8.189376831054688 L 19.871185302734375,7.9717254638671875 L 19.871185302734375,8.293182373046875 L 20.046157836914062,8.616241455078125 L 20.232864379882812,8.685348510742188 L 20.06463623046875,8.68896484375 L 19.775680541992188,8.705352783203125 L 19.4498291015625,8.724945068359375 L 19.392288208007812,8.555221557617188 L 19.535400390625,8.171463012695312 L 19.777450561523438,7.6870880126953125 L 20.15869140625,7.880767822265625 L 20.575149536132812,8.208602905273438 L 20.40692138671875,8.261734008789062 L 20.12969970703125,8.54644775390625 L 20.158767700195312,8.38470458984375 L 19.983840942382812,8.119140625 L 19.951461791992188,8.268096923828125 L 19.865402221679688,8.659835815429688 L 19.760910034179688,8.531631469726562 L 19.585983276367188,8.099945068359375 L 19.737472534179688,8.146682739257812 L 20.07342529296875,8.204605102539062 L 20.223236083984375,8.236968994140625 L 20.41497802734375,8.302871704101562 M 21.445938110351562,13.298019409179688 L 21.445938110351562,13.298019409179688 L 20.945953369140625,13.411849975585938 L 20.445968627929688,13.323562622070312 L 19.95074462890625,13.048416137695312 L 19.455520629882812,12.773269653320312 L 18.96197509765625,12.568405151367188 L 18.461990356445312,12.712570190429688 L 18.072402954101562,13.062774658203125 L 17.729782104492188,13.459304809570312 L 17.558212280273438,13.956451416015625 L 17.487258911132812,14.456436157226562 L 17.480026245117188,14.9564208984375 L 17.58624267578125,15.456405639648438 L 17.771270751953125,15.947174072265625 L 18.016677856445312,16.410781860351562 L 18.359344482421875,16.813690185546875 L 18.754013061523438,17.163894653320312 L 19.195632934570312,16.853607177734375 L 19.61041259765625,16.503387451171875 L 20.023513793945312,16.153167724609375 L 20.436614990234375,15.802947998046875 L 20.844680786132812,15.449539184570312 L 21.012954711914062,14.949539184570312 L 20.91851806640625,14.449539184570312 L 20.803955078125,13.949539184570312 L 20.684356689453125,13.449539184570312 L 20.536270141601562,12.949539184570312 M 19.891891479492188,14.4869384765625 L 19.891891479492188,14.4869384765625 L 19.7069091796875,14.3619384765625 L 19.206924438476562,14.235336303710938 L 18.706939697265625,14.1151123046875 L 18.230148315429688,14.36151123046875 L 18.149124145507812,14.852279663085938 L 18.537063598632812,15.228042602539062 L 18.982025146484375,15.509567260742188 L 19.482025146484375,15.530746459960938 L 19.856552124023438,15.148590087890625 L 20.135498046875,14.673782348632812 L 20.184707641601562,14.173782348632812 M 18.602188110351562,14.957962036132812 L 18.602188110351562,14.957962036132812 L 18.99517822265625,15.189971923828125 L 19.373062133789062,14.811004638671875 L 19.167938232421875,14.45599365234375 L 18.966171264648438,14.953140258789062 L 18.792922973632812,14.93994140625 L 18.448623657226562,14.838882446289062 L 18.452560424804688,14.686721801757812 L 18.503448486328125,14.306167602539062 L 18.601287841796875,14.432754516601562 L 18.796371459960938,14.715866088867188 L 18.779083251953125,14.526962280273438 L 18.83331298828125,14.026962280273438 L 19.009963989257812,14.08807373046875 L 19.394546508789062,14.406326293945312" fill="none" stroke="#000000" stroke-width="1"/>
	<path d="M 13.478195190429688,7.9643402099609375 L 13.478195190429688,7.9643402099609375 L 13.678329467773438,8.15643310546875 L 13.880142211914062,8.532196044921875 L 13.829299926757812,9.032180786132812 L 13.691268920898438,9.53216552734375 L 13.750534057617188,10.032150268554688 L 14.0194091796875,10.494155883789062 L 14.019973754882812,10.994140625 L 13.866836547851562,11.494125366210938 L 13.713699340820312,11.994110107421875 L 13.359329223632812,12.395431518554688 M 13.261093139648438,10.649429321289062 L 13.261093139648438,10.649429321289062 L 13.131439208984375,10.236923217773438 L 12.897811889648438,9.78448486328125 L 12.857040405273438,9.28448486328125 L 12.9632568359375,8.78448486328125" fill="none" stroke="#000000" stroke-width="1"/>
</svg>
