<?xml version="1.0" ?>
<svg baseProfile="full" height="195mm" version="1.1" viewBox="0 0 27.5 19.5" width="275mm" xmlns="http://www.w3.org/2000/svg" xmlns:ev="http://www.w3.org/2001/xml-events" xmlns:xlink="http://www.w3.org/1999/xlink">
	<defs/>
	<path d="M 16.836143493652344,8.731582641601562 L 16.836143493652344,8.731582641601562 L 16.411338806152344,9.05303955078125 L 15.981498718261719,9.374496459960938 L 15.538261413574219,9.6719970703125 L 15.091667175292969,9.959915161132812 L 14.645072937011719,10.247833251953125 L 14.195121765136719,10.534149169921875 L 14.578041076660156,10.925888061523438 L 14.957603454589844,11.317626953125 L 15.404243469238281,11.62310791015625 L 15.879402160644531,11.832763671875 L 16.35456085205078,12.047210693359375 L 16.82971954345703,12.26165771484375 L 17.30487823486328,12.4713134765625" fill="none" stroke="#000000" stroke-width="1"/>
	<path d="M 20.551918029785156,9.761459350585938 L 20.551918029785156,9.761459350585938 L 20.88787078857422,9.361724853515625 L 21.322776794433594,9.067413330078125 L 21.58997344970703,8.595809936523438 L 21.68781280517578,8.100250244140625 L 21.723594665527344,7.60308837890625 L 21.73255157470703,7.1075286865234375 L 21.616310119628906,6.611968994140625 L 21.307212829589844,6.1978607177734375 L 20.865638732910156,5.9195098876953125 L 20.36565399169922,5.8216400146484375 L 19.86566925048828,5.9705963134765625 L 19.427452087402344,6.2473297119140625 L 19.03954315185547,6.5767669677734375 L 18.65331268310547,6.9094085693359375 L 18.28050994873047,7.286773681640625 L 18.001609802246094,7.734405517578125 L 17.80487823486328,8.217178344726562 L 17.879234313964844,8.7171630859375 L 17.963661193847656,9.215911865234375 L 18.06652069091797,9.71466064453125 L 18.43267059326172,10.1143798828125 L 18.90277862548828,10.298477172851562 L 19.37793731689453,10.16229248046875 L 19.83966827392578,9.965408325195312 L 20.33966827392578,9.989791870117188 L 20.83966827392578,10.014175415039062 L 21.15550994873047,9.633621215820312 L 21.25501251220703,9.146041870117188 L 21.351173400878906,8.658462524414062 M 18.753807067871094,7.96588134765625 L 18.753807067871094,7.96588134765625 L 18.63420867919922,8.465866088867188 L 19.102638244628906,8.701080322265625 L 19.571067810058594,8.936294555664062 L 19.91205596923828,8.57330322265625 L 20.018272399902344,8.085723876953125 L 19.78632354736328,7.593353271484375 L 19.38500213623047,7.2399444580078125 L 18.88501739501953,7.262725830078125 L 18.577598571777344,7.708770751953125 L 19.032615661621094,7.958343505859375 M 19.23981475830078,13.23248291015625 L 19.23981475830078,13.23248291015625 L 19.275596618652344,13.732467651367188 L 19.775596618652344,13.607467651367188 L 20.275596618652344,13.480865478515625 L 20.571311950683594,13.063568115234375 L 20.34943389892578,12.590362548828125 L 19.849449157714844,12.404647827148438 L 19.349464416503906,12.531234741210938 L 18.84947967529297,12.657821655273438 L 18.92047882080078,13.157806396484375 L 19.23967742919922,13.602249145507812 L 19.70978546142578,13.422943115234375 L 20.205055236816406,13.337860107421875 L 20.54436492919922,12.938125610351562 L 20.371116638183594,12.448959350585938 L 19.871131896972656,12.521255493164062 L 19.45807647705078,12.897018432617188 L 19.14228057861328,13.344650268554688 L 19.478233337402344,12.951309204101562 L 19.799110412597656,12.5595703125 L 19.651023864746094,13.059555053710938 L 19.410682678222656,13.526351928710938 M 21.678855895996094,13.36663818359375 L 21.678855895996094,13.36663818359375 L 21.678855895996094,12.86663818359375 L 21.62299346923828,12.36663818359375 L 21.446388244628906,11.86663818359375 M 22.510887145996094,6.9317474365234375 L 22.510887145996094,6.9317474365234375 L 22.888771057128906,7.024810791015625 L 22.806068420410156,7.462860107421875 L 22.34606170654297,7.7411956787109375 L 22.640098571777344,8.188827514648438 L 22.82178497314453,8.671600341796875 L 22.33325958251953,8.852508544921875 L 21.926902770996094,9.228271484375 L 22.24945831298828,9.651947021484375 L 22.73131561279297,9.743408203125" fill="none" stroke="#000000" stroke-width="1"/>
	<path d="M 12.864768981933594,8.414047241210938 L 12.864768981933594,8.414047241210938 L 13.064903259277344,8.644454956054688 L 13.206336975097656,8.957931518554688 L 13.319252014160156,9.2841796875 L 13.396949768066406,9.667922973632812 L 13.471305847167969,10.03887939453125 L 13.545661926269531,10.425827026367188 L 13.569709777832031,10.815963745117188 L 13.576988220214844,11.204498291015625 L 13.582588195800781,11.596237182617188 L 13.586524963378906,11.986373901367188 L 13.505500793457031,12.382904052734375 L 13.360755920410156,12.827346801757812 L 13.216011047363281,13.27178955078125 L 13.037727355957031,13.716232299804688 L 12.711875915527344,14.160675048828125 L 12.303855895996094,14.534835815429688 L 11.892478942871094,14.894622802734375 L 11.410667419433594,15.078720092773438 L 10.910682678222656,15.123870849609375 L 10.427192687988281,14.895034790039062 L 9.988975524902344,14.587936401367188 L 9.544059753417969,14.284042358398438 L 9.174598693847656,13.900283813476562 L 8.877250671386719,13.465423583984375 L 8.603370666503906,13.012985229492188 L 8.388191223144531,12.530197143554688 L 8.273628234863281,12.030197143554688 L 8.160743713378906,11.530197143554688 L 8.088096618652344,11.030197143554688 L 8.120521545410156,10.530197143554688 L 8.137855529785156,10.030197143554688 L 8.108833312988281,9.530197143554688 L 8.163063049316406,9.030197143554688 L 8.336357116699219,8.530197143554688 L 8.516365051269531,8.030197143554688 L 8.859031677246094,7.628875732421875 L 9.297294616699219,7.33135986328125 L 9.735557556152344,7.033843994140625 L 10.212394714355469,6.8672943115234375 L 10.712394714355469,6.8221282958984375 L 11.212394714355469,7.001434326171875 L 11.650657653808594,7.3324737548828125 L 12.093940734863281,7.601226806640625 L 12.593940734863281,7.6192169189453125 L 13.043937683105469,7.935882568359375 L 13.202125549316406,8.435867309570312 L 13.144584655761719,8.93585205078125 L 13.107154846191406,9.435836791992188 M 9.829460144042969,7.331390380859375 L 9.829460144042969,7.331390380859375 L 9.830024719238281,7.692779541015625 L 9.830589294433594,8.079727172851562 L 9.831153869628906,8.4666748046875 L 9.831718444824219,8.853622436523438 L 9.831718444824219,9.240570068359375 L 9.831718444824219,9.627517700195312 L 9.831718444824219,10.01446533203125 L 9.831718444824219,10.402999877929688 L 9.831718444824219,10.791534423828125 L 9.831718444824219,11.180068969726562 L 9.831718444824219,11.568603515625 L 9.832283020019531,11.955551147460938 L 9.832847595214844,12.342498779296875 L 9.832847595214844,12.72784423828125 L 9.832847595214844,13.114791870117188 L 9.832847595214844,13.501739501953125 L 9.833412170410156,13.888687133789062 L 9.833976745605469,14.275634765625 L 9.833976745605469,14.593887329101562 M 11.871650695800781,7.5839385986328125 L 11.871650695800781,7.5839385986328125 L 11.900718688964844,7.74566650390625 L 11.929786682128906,8.129409790039062 L 11.958854675292969,8.577041625976562 L 11.981224060058594,9.0770263671875 L 12.003593444824219,9.577011108398438 L 12.022605895996094,10.076995849609375 L 12.043296813964844,10.576980590820312 L 12.082435607910156,11.07696533203125 L 12.101448059082031,11.576950073242188 L 12.122138977050781,12.076934814453125 L 12.142829895019531,12.576919555664062 L 12.163520812988281,13.076904296875 L 12.184211730957031,13.576889038085938 L 12.204902648925781,14.076873779296875 L 12.223915100097656,14.576858520507812 M 9.867424011230469,12.929580688476562 L 9.867424011230469,12.929580688476562 L 9.679084777832031,12.953964233398438 L 9.484031677246094,12.978347778320312 L 9.285621643066406,13.002731323242188 L 9.087211608886719,13.027114868164062 L 8.888801574707031,13.0531005859375 L 8.688713073730469,13.075881958007812 M 8.417274475097656,11.904983520507812 L 8.417274475097656,11.904983520507812 L 8.232292175292969,11.877395629882812 L 8.383781433105469,11.877395629882812 L 8.639244079589844,11.877395629882812 L 8.918190002441406,11.870574951171875 L 9.197135925292969,11.854171752929688 L 9.474403381347656,11.82818603515625 L 9.751670837402344,11.802200317382812 L 9.971916198730469,11.774612426757812 M 9.859718322753906,10.572219848632812 L 9.859718322753906,10.572219848632812 L 9.518775939941406,10.595001220703125 L 9.018791198730469,10.649734497070312 L 8.550392150878906,10.710845947265625 L 8.092063903808594,10.7735595703125 M 8.177650451660156,9.341018676757812 L 8.177650451660156,9.341018676757812 L 8.451560974121094,9.29107666015625 L 8.733863830566406,9.241134643554688 L 9.014488220214844,9.170425415039062 L 9.296791076660156,9.104507446289062 L 9.577415466308594,9.040191650390625 L 9.844612121582031,8.975875854492188 M 9.849189758300781,7.9514923095703125 L 9.849189758300781,7.9514923095703125 L 9.612205505371094,7.8664093017578125 L 9.370201110839844,7.77972412109375 L 9.134895324707031,7.69464111328125 L 8.899589538574219,7.60955810546875 L 8.699501037597656,7.5228729248046875 M 12.303459167480469,8.420944213867188 L 12.303459167480469,8.420944213867188 L 12.518684387207031,8.420944213867188 L 12.898246765136719,8.420944213867188 L 13.277809143066406,8.420944213867188 M 13.175025939941406,9.3873291015625 L 13.175025939941406,9.3873291015625 L 12.767005920410156,9.437255859375 L 12.338844299316406,9.491989135742188 L 11.966041564941406,9.545120239257812 M 12.418342590332031,10.44195556640625 L 12.418342590332031,10.44195556640625 L 12.772758483886719,10.459945678710938 L 13.212699890136719,10.459945678710938 L 13.365867614746094,10.459945678710938 L 13.695121765136719,10.459503173828125 M 13.302284240722656,11.543243408203125 L 13.302284240722656,11.543243408203125 L 13.073677062988281,11.494903564453125 L 12.836692810058594,11.446563720703125 L 12.586296081542969,11.451766967773438 L 12.339256286621094,11.535232543945312 L 12.092216491699219,11.621902465820312 M 12.399696350097656,12.570724487304688 L 12.399696350097656,12.570724487304688 L 12.598152160644531,12.636627197265625 L 12.821754455566406,12.7169189453125 L 13.053733825683594,12.782821655273438 L 13.285713195800781,12.84393310546875 L 13.517692565917969,12.908233642578125 M 12.991905212402344,13.466812133789062 L 12.991905212402344,13.466812133789062 L 12.820335388183594,13.43603515625 L 12.564918518066406,13.419631958007812 L 12.384956359863281,13.44879150390625 L 12.025550842285156,13.500320434570312" fill="none" stroke="#000000" stroke-width="1"/>
</svg>
