<?xml version="1.0" ?>
<svg baseProfile="full" height="195mm" version="1.1" viewBox="0 0 27.5 19.5" width="275mm" xmlns="http://www.w3.org/2000/svg" xmlns:ev="http://www.w3.org/2001/xml-events" xmlns:xlink="http://www.w3.org/1999/xlink">
	<defs/>
	<path d="M 16.980026245117188,9.31005859375 L 16.980026245117188,9.31005859375 L 16.637405395507812,9.36798095703125 L 16.20086669921875,9.18707275390625 L 15.700881958007812,8.986984252929688 L 15.353225708007812,8.574478149414062 L 15.005569458007812,8.36163330078125 L 14.761886596679688,8.844406127929688 L 15.1783447265625,9.175445556640625 M 15.025787353515625,9.089187622070312 L 15.025787353515625,9.089187622070312 L 14.617767333984375,9.434600830078125 L 14.519973754882812,9.934585571289062 L 14.939773559570312,10.303970336914062 L 15.399826049804688,10.535980224609375 M 15.194168090820312,10.697265625 L 15.194168090820312,10.697265625 L 15.022598266601562,11.194412231445312 L 15.482650756835938,11.428024291992188 L 15.691162109375,10.948440551757812 L 15.74371337890625,10.448440551757812 M 15.777435302734375,9.33380126953125 L 15.777435302734375,9.33380126953125 L 15.96917724609375,9.517898559570312 L 16.001602172851562,10.01788330078125 L 15.648910522460938,10.452743530273438" fill="none" stroke="#000000" stroke-width="1"/>
	<path d="M 18.305633544921875,12.682464599609375 L 18.305633544921875,12.682464599609375 L 18.805633544921875,12.6988525390625 L 19.305633544921875,12.716842651367188 L 19.805633544921875,12.738021850585938 L 20.305633544921875,12.759201049804688 L 20.805633544921875,12.88421630859375 L 21.253952026367188,13.14337158203125 L 21.56475830078125,13.560653686523438 L 21.645828247070312,14.059402465820312 L 21.605056762695312,14.55938720703125 L 21.426773071289062,15.056533813476562 L 21.0992431640625,15.494583129882812 L 20.630844116210938,15.717010498046875 L 20.130859375,15.802078247070312 L 19.630874633789062,15.82965087890625 L 19.130889892578125,15.857223510742188 L 18.630905151367188,15.883209228515625 L 18.13092041015625,15.909194946289062 L 17.630935668945312,15.9351806640625 M 17.653305053710938,15.751068115234375 L 17.653305053710938,15.751068115234375 L 17.845046997070312,15.258697509765625 L 18.031753540039062,14.758697509765625 L 18.220138549804688,14.258697509765625 L 18.150863647460938,13.758697509765625 L 17.91387939453125,13.299880981445312 L 17.735595703125,12.829879760742188 L 17.771377563476562,12.329879760742188 M 18.315643310546875,13.71868896484375 L 18.315643310546875,13.71868896484375 L 18.78912353515625,13.61444091796875 L 19.277694702148438,13.613998413085938 L 19.6136474609375,14.0057373046875 L 19.604736328125,14.498092651367188 L 19.21514892578125,14.8626708984375 L 18.715164184570312,14.877471923828125 L 18.215179443359375,14.790786743164062 L 17.715194702148438,14.7041015625 M 18.241546630859375,10.2108154296875 L 18.241546630859375,10.2108154296875 L 18.70159912109375,10.225616455078125 L 19.19183349609375,10.24041748046875 L 19.683746337890625,10.255218505859375 L 20.1756591796875,10.27001953125 L 20.6658935546875,10.234451293945312 L 21.142730712890625,10.093460083007812 L 21.517257690429688,9.764007568359375 L 21.762664794921875,9.327545166015625 L 21.800125122070312,8.835174560546875 L 21.799591064453125,8.342803955078125 L 21.799057006835938,7.850433349609375 L 21.781768798828125,7.358062744140625 L 21.455917358398438,6.9423675537109375 L 20.9559326171875,6.8604888916015625 L 20.455947875976562,6.921600341796875 L 19.955963134765625,7.0194549560546875 L 19.455978393554688,6.9742889404296875 L 18.95599365234375,6.839691162109375 L 18.5479736328125,6.526214599609375 L 18.131561279296875,6.22869873046875 L 17.700057983398438,6.5341796875 L 17.506668090820312,6.9850006103515625 L 17.64642333984375,7.4849853515625 L 17.932083129882812,7.92303466796875 L 18.217742919921875,8.354705810546875 L 18.503402709960938,8.784774780273438 L 18.629745483398438,9.269134521484375 L 18.486679077148438,9.763076782226562 L 18.16082763671875,10.194747924804688 M 18.431793212890625,8.709884643554688 L 18.431793212890625,8.709884643554688 L 18.925384521484375,8.7518310546875 L 19.418975830078125,8.803359985351562 L 19.763320922851562,8.453140258789062 L 19.893020629882812,7.97515869140625 L 19.479965209960938,7.70001220703125 L 18.97998046875,7.71160888671875 L 18.479995727539062,7.774322509765625 L 17.980010986328125,7.8498077392578125 L 17.480026245117188,7.7679290771484375" fill="none" stroke="#000000" stroke-width="1"/>
	<path d="M 12.590744018554688,9.33282470703125 L 12.590744018554688,9.33282470703125 L 12.777450561523438,9.199813842773438 L 12.939010620117188,9.2130126953125 L 13.179397583007812,9.258163452148438 L 13.1419677734375,9.408721923828125 L 13.05926513671875,9.656707763671875 L 12.988311767578125,9.978164672851562 L 13.0458984375,10.41302490234375 L 13.101806640625,10.913009643554688 L 13.15435791015625,11.412994384765625 L 13.205245971679688,11.912979125976562 L 13.25445556640625,12.4129638671875 L 13.31036376953125,12.912948608398438 L 13.367950439453125,13.412933349609375 L 13.1947021484375,13.451675415039062 L 12.899032592773438,13.509597778320312 M 12.805252075195312,12.641387939453125 L 12.805252075195312,12.641387939453125 L 12.652114868164062,12.289566040039062 L 12.4268798828125,11.808380126953125 L 12.497879028320312,11.308380126953125 L 12.585647583007812,10.808380126953125 L 12.58343505859375,10.308380126953125 M 13.153839111328125,8.83221435546875 L 13.153839111328125,8.83221435546875 L 13.414337158203125,8.82379150390625 L 13.698318481445312,8.945602416992188 M 13.126144409179688,13.851531982421875 L 13.126144409179688,13.851531982421875 L 13.393341064453125,13.864730834960938 L 13.746063232421875,13.653457641601562 L 14.019973754882812,13.239349365234375" fill="none" stroke="#000000" stroke-width="1"/>
</svg>
