<?xml version="1.0" ?>
<svg baseProfile="full" height="195mm" version="1.1" viewBox="0 0 27.5 19.5" width="275mm" xmlns="http://www.w3.org/2000/svg" xmlns:ev="http://www.w3.org/2001/xml-events" xmlns:xlink="http://www.w3.org/1999/xlink">
	<defs/>
	<path d="M 15.183998107910156,9.309402465820312 L 15.183998107910156,9.309402465820312 L 15.146568298339844,8.893707275390625 L 15.440605163574219,8.993148803710938 L 15.669242858886719,9.448776245117188 L 15.334999084472656,9.886825561523438 L 14.950447082519531,10.275360107421875 L 14.669868469238281,10.724578857421875 L 14.997444152832031,11.154647827148438 L 15.492713928222656,11.255691528320312 L 15.987983703613281,11.466949462890625 L 15.843238830566406,11.966934204101562 L 15.669990539550781,12.4669189453125 L 15.555427551269531,11.9669189453125 L 15.444221496582031,11.509689331054688 M 15.302299499511719,12.193771362304688 L 15.302299499511719,12.193771362304688 L 15.239723205566406,12.6717529296875 L 15.627662658691406,12.948486328125 L 16.121253967285156,13.052734375 L 16.567893981933594,12.777587890625 L 16.674110412597656,12.277587890625 L 16.534400939941406,11.777587890625 M 16.64342498779297,10.953750610351562 L 16.64342498779297,10.953750610351562 L 16.83013153076172,10.514083862304688 L 16.601524353027344,10.0233154296875 L 16.240455627441406,9.641159057617188 M 14.790580749511719,8.842025756835938 L 14.790580749511719,8.842025756835938 L 14.826362609863281,8.342025756835938 L 15.283058166503906,8.111602783203125 L 15.758216857910156,7.9418792724609375 L 16.09082794189453,8.38153076171875 L 16.058448791503906,8.881515502929688 L 15.740974426269531,9.317962646484375" fill="none" stroke="#000000" stroke-width="1"/>
	<path d="M 18.330284118652344,7.4194183349609375 L 18.330284118652344,7.4194183349609375 L 18.042991638183594,7.351898193359375 L 17.82781219482422,7.534393310546875 M 17.59423065185547,7.0228424072265625 L 17.59423065185547,7.0228424072265625 L 17.72728729248047,7.452911376953125 L 17.87877655029297,7.95166015625 L 17.826271057128906,8.451644897460938 L 17.58592987060547,8.9200439453125 L 17.33385467529297,9.374069213867188 M 17.95490264892578,8.86529541015625 L 17.95490264892578,8.86529541015625 L 18.25061798095703,9.033432006835938 L 18.75061798095703,8.905227661132812 L 19.086570739746094,8.526260375976562 L 19.14751434326172,8.026260375976562 L 18.967552185058594,7.5262603759765625 L 18.60480499267578,7.1472930908203125 M 18.27989959716797,8.376861572265625 L 18.27989959716797,8.376861572265625 L 18.57561492919922,8.746246337890625 L 18.683509826660156,8.246246337890625 L 18.700843811035156,7.746246337890625 L 18.51586151123047,8.243392944335938 M 17.494346618652344,12.267868041992188 L 17.494346618652344,12.267868041992188 L 17.550254821777344,12.693130493164062 L 17.659828186035156,13.193115234375 L 17.76940155029297,13.693099975585938 L 17.726951599121094,14.193084716796875 L 17.53022003173828,14.690231323242188 L 17.33013153076172,15.185775756835938 M 17.80919647216797,14.885513305664062 L 17.80919647216797,14.885513305664062 L 18.150184631347656,15.17022705078125 L 18.650184631347656,15.160202026367188 L 19.118614196777344,14.971298217773438 L 19.312034606933594,14.4901123046875 L 19.37297821044922,13.99615478515625 L 19.352333068847656,13.49615478515625 L 19.17237091064453,13.01177978515625 L 18.69055938720703,12.829269409179688 L 18.190574645996094,12.831298828125 L 17.690589904785156,13.063308715820312 M 18.20561981201172,13.753631591796875 L 18.20561981201172,13.753631591796875 L 17.987098693847656,14.1102294921875 L 18.331443786621094,14.275161743164062 L 18.796531677246094,14.452865600585938 L 18.969825744628906,13.952865600585938 L 18.46984100341797,13.826263427734375 L 18.05510711669922,14.019943237304688" fill="none" stroke="#000000" stroke-width="1"/>
	<path d="M 13.197746276855469,8.628372192382812 L 13.197746276855469,8.628372192382812 L 13.599113464355469,8.869964599609375 L 13.837821960449219,9.354324340820312 L 14.026206970214844,9.843490600585938 L 14.137443542480469,10.332656860351562 L 14.169868469238281,10.821823120117188 L 14.098915100097656,11.310989379882812 L 13.991065979003906,11.800155639648438 L 13.881538391113281,12.289321899414062 L 13.772010803222656,12.778488159179688 L 13.662483215332031,13.267654418945312 L 13.546241760253906,13.756820678710938 L 13.381370544433594,14.245986938476562 L 12.996818542480469,14.612167358398438 L 12.597175598144531,14.244384765625 L 12.674873352050781,13.744384765625 L 12.995750427246094,13.322296142578125 L 13.143882751464844,12.829925537109375 L 12.945472717285156,12.34075927734375 L 12.654838562011719,11.899505615234375 L 12.523506164550781,11.405548095703125 L 12.539176940917969,10.905548095703125 L 12.600120544433594,10.405548095703125 L 12.652671813964844,9.905548095703125 L 12.685096740722656,9.405548095703125 L 12.715843200683594,8.905548095703125 L 12.748268127441406,8.405548095703125 M 12.857841491699219,8.509796142578125 L 12.857841491699219,8.509796142578125 L 12.970756530761719,8.641189575195312 L 13.115547180175781,8.863616943359375 L 13.086524963378906,9.0125732421875 L 13.032341003417969,9.183883666992188 L 12.867469787597656,9.468597412109375 L 12.867469787597656,9.732559204101562 L 13.007225036621094,9.966171264648438 L 13.324745178222656,10.139083862304688 L 13.541648864746094,10.411026000976562 L 13.542213439941406,10.9110107421875 L 13.541679382324219,11.410995483398438 L 13.541145324707031,11.910980224609375 L 13.538932800292969,12.410964965820312 L 13.514930725097656,12.91094970703125 L 13.455711364746094,13.410934448242188 L 13.277427673339844,13.901702880859375 L 13.099143981933594,14.392471313476562 L 12.920860290527344,14.880035400390625" fill="none" stroke="#000000" stroke-width="1"/>
</svg>
