<?xml version="1.0" ?>
<svg baseProfile="full" height="195mm" version="1.1" viewBox="0 0 27.5 19.5" width="275mm" xmlns="http://www.w3.org/2000/svg" xmlns:ev="http://www.w3.org/2001/xml-events" xmlns:xlink="http://www.w3.org/1999/xlink">
	<defs/>
	<path d="M 19.382720947265625,10.69036865234375 L 19.382720947265625,10.69036865234375 L 19.128982543945312,10.746688842773438 L 18.764556884765625,10.820571899414062 L 18.395095825195312,10.904037475585938 L 17.94012451171875,11.073760986328125 L 17.45159912109375,11.29779052734375 L 17.00836181640625,11.619247436523438 L 16.578521728515625,11.950286865234375 L 16.150360107421875,12.282928466796875 L 15.722198486328125,12.615570068359375 L 15.294036865234375,12.948211669921875 L 14.847442626953125,13.261688232421875 L 14.347457885742188,13.389877319335938 L 13.84747314453125,13.48931884765625 L 13.67254638671875,13.439376831054688 L 13.763671875,13.311172485351562 L 13.86151123046875,13.032821655273438 L 13.934188842773438,12.6842041015625 L 13.85986328125,12.311630249023438 L 13.711776733398438,11.931076049804688 L 13.543548583984375,11.540939331054688 L 13.375320434570312,11.144393920898438 L 13.25238037109375,10.666412353515625 L 13.235092163085938,10.166412353515625 L 13.23455810546875,9.666412353515625 L 13.339096069335938,9.166412353515625 L 13.591217041015625,8.993484497070312 L 13.88189697265625,8.953125 L 14.241348266601562,8.959930419921875 L 14.637680053710938,9.057785034179688 L 15.034011840820312,9.283416748046875 L 15.048004150390625,9.609664916992188 L 14.81939697265625,9.9359130859375 M 14.073959350585938,10.916213989257812 L 14.073959350585938,10.916213989257812 L 14.126510620117188,11.122665405273438 L 14.074005126953125,10.980087280273438 L 13.947708129882812,10.668212890625 M 13.91363525390625,10.500076293945312 L 13.91363525390625,10.500076293945312 L 13.799072265625,10.315963745117188 L 13.558731079101562,10.133453369140625 L 13.23455810546875,10.05157470703125 L 12.856719970703125,10.041549682617188 L 12.413482666015625,10.287948608398438 L 12.119491577148438,10.737167358398438 L 12.117279052734375,11.237152099609375 L 12.48175048828125,11.630477905273438 L 12.945159912109375,11.798614501953125 L 13.343170166015625,11.6336669921875 L 13.402435302734375,11.459136962890625" fill="none" stroke="#000000" stroke-width="1"/>
	<path d="M 23.094894409179688,10.129669189453125 L 23.094894409179688,10.129669189453125 L 23.318496704101562,9.769866943359375 L 23.59576416015625,9.331802368164062 L 23.851226806640625,8.847427368164062 L 23.945709228515625,8.347427368164062 L 23.879791259765625,7.8474273681640625 L 23.761871337890625,7.3582611083984375 L 23.61041259765625,6.8738861083984375 L 23.420379638671875,6.40228271484375 L 23.210235595703125,5.9434661865234375 L 22.76531982421875,5.690673828125 L 22.265335083007812,5.5640716552734375 L 21.765350341796875,5.5093231201171875 L 21.265365600585938,5.6902313232421875 L 20.857345581054688,6.067596435546875 L 20.581787109375,6.5279998779296875 L 20.401824951171875,7.021942138671875 L 20.2822265625,7.5219268798828125 L 20.259902954101562,8.02191162109375 L 20.312454223632812,8.521896362304688 L 20.425369262695312,9.021881103515625 L 20.679153442382812,9.482284545898438 L 21.008407592773438,9.882003784179688 L 21.376235961914062,10.257766723632812 L 21.839645385742188,10.508941650390625 L 22.339645385742188,10.576446533203125 L 22.839645385742188,10.623184204101562 L 23.306396484375,10.360809326171875 L 23.385772705078125,9.860809326171875 M 22.788406372070312,7.592071533203125 L 22.788406372070312,7.592071533203125 L 22.820831298828125,7.092071533203125 L 22.320846557617188,6.9095611572265625 L 21.82086181640625,7.0361480712890625 L 21.3424072265625,7.30010986328125 L 21.154067993164062,7.798858642578125 L 21.337417602539062,8.286422729492188 L 21.606292724609375,8.732467651367188 L 21.947280883789062,9.130584716796875 L 22.447280883789062,9.029525756835938 L 22.783233642578125,8.628204345703125 L 22.74078369140625,8.128204345703125 L 22.659759521484375,7.628204345703125 L 22.572036743164062,7.128204345703125 M 21.9052734375,8.063385009765625 L 21.9052734375,8.063385009765625 L 22.246261596679688,7.7850341796875 L 22.074691772460938,7.849334716796875 L 21.663314819335938,8.181976318359375 L 21.6923828125,7.9994659423828125 L 21.837173461914062,7.5725860595703125 L 21.732681274414062,7.4395751953125 L 21.648300170898438,7.1564483642578125 L 21.784698486328125,7.377288818359375 L 21.988189697265625,7.8137359619140625 L 22.111175537109375,7.92596435546875 L 22.297882080078125,8.153182983398438 M 22.46697998046875,12.392166137695312 L 22.46697998046875,12.392166137695312 L 21.991867065429688,12.125 L 21.555328369140625,11.817901611328125 L 21.055343627929688,12.049911499023438 L 20.65570068359375,12.430465698242188 L 20.326492309570312,12.873306274414062 L 20.0274658203125,13.319351196289062 L 19.882720947265625,13.816497802734375 L 19.960418701171875,14.316482543945312 L 20.066635131835938,14.81646728515625 L 20.1728515625,15.316452026367188 L 20.35955810546875,15.810394287109375 L 20.552978515625,16.302749633789062 L 20.830245971679688,16.748794555664062 L 21.308746337890625,16.947265625 L 21.808746337890625,16.945220947265625 L 22.308746337890625,16.821792602539062 L 22.700042724609375,16.482757568359375 L 23.02593994140625,16.079833984375 L 23.3216552734375,15.660934448242188 L 23.501663208007812,15.178146362304688 L 23.469284057617188,14.688980102539062 L 23.353042602539062,14.199813842773438 L 23.225067138671875,13.713836669921875 L 23.092056274414062,13.227859497070312 L 22.95904541015625,12.74188232421875 L 22.826034545898438,12.255905151367188 M 21.8441162109375,14.590774536132812 L 21.8441162109375,14.590774536132812 L 21.940277099609375,14.090774536132812 L 21.8726806640625,13.590774536132812 L 21.429443359375,13.312423706054688 L 21.105270385742188,13.758468627929688 L 21.164535522460938,14.258453369140625 L 21.223800659179688,14.758438110351562 L 21.299819946289062,15.2584228515625 L 21.736404418945312,15.576675415039062 L 21.85772705078125,15.082717895507812 L 21.578826904296875,14.646255493164062 M 21.398895263671875,14.200942993164062 L 21.398895263671875,14.200942993164062 L 21.667770385742188,13.74371337890625 L 21.600173950195312,14.109893798828125 L 21.776824951171875,14.609878540039062 L 21.675689697265625,14.795578002929688 L 21.282745361328125,15.164962768554688 L 21.25372314453125,15.014389038085938 L 21.2095947265625,14.514389038085938" fill="none" stroke="#000000" stroke-width="1"/>
	<path d="M -2.2642364501953125,5.03521728515625 L -2.2642364501953125,5.03521728515625 L -2.538116455078125,5.48443603515625 L -2.7784576416015625,5.9352569580078125 L -2.9701690673828125,6.386077880859375 L -3.15179443359375,6.84808349609375 L -3.29486083984375,7.329254150390625 L -3.41278076171875,7.8120269775390625 L -3.4736785888671875,8.2947998046875 L -3.4395751953125,8.791946411132812 L -3.360198974609375,9.281112670898438 L -3.2506256103515625,9.7686767578125 L -3.14105224609375,10.256240844726562 L -3.0314788818359375,10.745407104492188 L -2.921905517578125,11.234573364257812 L -2.8123321533203125,11.723739624023438 L -2.6256256103515625,12.188949584960938 L -2.4254913330078125,12.636581420898438 L -2.208587646484375,13.085800170898438 L -1.9749298095703125,13.531845092773438 L -1.6775360107421875,13.93475341796875 L -1.3516387939453125,14.332870483398438 L -1.0190277099609375,14.723007202148438 L -0.6361083984375,15.044464111328125 L -0.1961669921875,15.212600708007812 M -0.205078125,15.0396728515625 L -0.205078125,15.0396728515625 L -0.215667724609375,14.742156982421875 M -0.18035888671875,14.815597534179688 L -0.18035888671875,14.815597534179688 L -0.08587646484375,14.3248291015625 L -0.4754638671875,13.952255249023438 L -0.9103240966796875,13.654739379882812 L -1.2479095458984375,13.286956787109375 L -1.4546966552734375,12.8472900390625 L -1.639678955078125,12.396453857421875 L -1.740814208984375,11.920059204101562 L -1.9761199951171875,11.480392456054688 L -2.301971435546875,11.099838256835938 L -2.6278228759765625,10.719284057617188 L -2.920135498046875,10.337127685546875 L -3.0866851806640625,9.879898071289062 L -3.0324554443359375,9.395523071289062 L -2.9748687744140625,8.911148071289062 L -3.2202301025390625,8.493850708007812 L -3.4672698974609375,8.076553344726562 L -3.5751190185546875,7.59857177734375 L -3.529266357421875,7.11419677734375 M -1.14923095703125,4.814849853515625 L -1.14923095703125,4.814849853515625 L -1.54217529296875,4.8583984375 L -2.0421600341796875,4.9243011474609375 L -2.542144775390625,4.932708740234375 L -2.8344573974609375,4.534576416015625 L -3.0093841552734375,4.0773468017578125 L -3.1658782958984375,3.615325927734375 M -2.930877685546875,10.58856201171875 L -2.930877685546875,10.58856201171875 L -2.745849609375,10.973907470703125 L -2.52392578125,11.47265625 L -2.29864501953125,11.96820068359375 L -2.075042724609375,12.465347290039062 L -1.849761962890625,12.962493896484375 L -1.6194610595703125,13.437286376953125 L -1.3237457275390625,13.838607788085938 L -0.9676513671875,14.1728515625 L -0.6115570068359375,14.507095336914062 L -0.1816864013671875,14.739105224609375 M -0.5926666259765625,14.020660400390625 L -0.5926666259765625,14.020660400390625 L -0.7675933837890625,14.466705322265625 L -0.9810943603515625,14.959060668945312 M -1.2326812744140625,13.399246215820312 L -1.2326812744140625,13.399246215820312 L -1.6205902099609375,13.78778076171875 L -1.6999359130859375,13.915969848632812 M -1.7979736328125,12.677261352539062 L -1.7979736328125,12.677261352539062 L -2.19091796875,13.0450439453125 M -2.050994873046875,11.503219604492188 L -2.050994873046875,11.503219604492188 L -2.296356201171875,11.962020874023438 L -2.467926025390625,12.058273315429688 L -2.84912109375,12.445220947265625 M -6.380523681640625,12.460723876953125 L -6.380523681640625,12.460723876953125 L -5.88861083984375,12.45867919921875 L -5.38861083984375,12.463882446289062 L -4.88861083984375,12.63360595703125 L -4.5040283203125,12.998184204101562 L -4.173095703125,13.418670654296875 L -3.843841552734375,13.84075927734375 L -3.4676361083984375,14.21331787109375 L -3.093109130859375,14.58270263671875 L -2.7185821533203125,14.95208740234375 L -2.325592041015625,15.281524658203125 L -1.9309234619140625,15.612564086914062 L -1.4574432373046875,15.76312255859375 L -0.9839630126953125,15.913681030273438 L -0.5088043212890625,16.065826416015625 L -0.0336456298828125,16.216384887695312 M 2.074371337890625,16.146835327148438 L 2.074371337890625,16.146835327148438 L 2.4153594970703125,16.5401611328125 L 2.7295074462890625,16.979812622070312 L 2.8541717529296875,17.46417236328125 L 2.8949737548828125,17.958114624023438 L 2.8089141845703125,18.450469970703125 L 2.719512939453125,18.942825317382812 L 2.817352294921875,18.806640625 L 3.1080322265625,18.38934326171875 L 3.4439849853515625,17.989608764648438 L 3.7782745361328125,17.593063354492188 L 3.887847900390625,17.110275268554688 L 3.9169158935546875,16.6195068359375 L 3.94598388671875,16.12713623046875 L 4.33056640625,15.821640014648438 L 4.72857666015625,16.152679443359375 L 4.821380615234375,16.649826049804688 L 4.8689117431640625,17.148574829101562 L 4.904693603515625,17.647323608398438 L 4.9404754638671875,18.142868041992188 L 4.97625732421875,18.638412475585938 L 5.3189239501953125,18.257858276367188 L 5.5643310546875,17.819793701171875 L 5.893585205078125,17.43603515625 L 6.227874755859375,17.05548095703125 L 6.4933929443359375,16.617416381835938 L 6.7119598388671875,16.158599853515625 L 6.81146240234375,15.659835815429688 L 7.0988006591796875,16.107467651367188 L 7.365997314453125,16.556686401367188 L 7.6348724365234375,17.004318237304688 L 7.8936920166015625,17.453536987304688 L 8.150833129882812,17.902755737304688 L 8.5303955078125,18.23858642578125 L 8.503036499023438,17.747817993164062 L 8.518707275390625,17.258651733398438 L 8.539398193359375,16.769485473632812 L 8.4583740234375,16.275527954101562 L 8.342132568359375,15.781570434570312 L 8.22589111328125,15.289199829101562 L 8.28515625,14.798431396484375 L 8.78515625,14.956985473632812 L 9.052352905273438,15.403030395507812 L 9.280990600585938,15.861831665039062 L 9.60186767578125,16.299880981445312 L 9.962982177734375,16.674041748046875 L 10.228500366210938,16.2327880859375 L 10.289443969726562,15.742019653320312 L 10.278854370117188,15.242019653320312 L 10.061996459960938,14.779998779296875 L 9.846817016601562,14.321182250976562 L 9.634994506835938,13.86236572265625 L 9.50701904296875,13.382781982421875 L 9.613235473632812,13.25457763671875 L 10.0062255859375,12.936309814453125 L 10.49981689453125,13.082077026367188 L 10.768692016601562,13.526519775390625 L 11.032546997070312,13.972564697265625 L 11.412109375,14.294021606445312 L 11.617279052734375,13.843185424804688 L 11.50103759765625,13.343185424804688 L 11.10809326171875,12.996170043945312 L 10.706771850585938,12.682693481445312 L 10.640853881835938,12.182693481445312 L 10.576614379882812,11.683929443359375 M 10.296173095703125,10.883132934570312 L 10.296173095703125,10.883132934570312 L 10.238632202148438,10.383132934570312 L 10.093887329101562,9.883132934570312 L 9.932373046875,9.3875732421875 L 9.769180297851562,8.89361572265625 L 9.820068359375,8.402847290039062 L 9.857528686523438,7.9104766845703125 L 9.58197021484375,7.4931793212890625 L 9.217544555664062,7.126983642578125 L 9.022491455078125,6.6745452880859375 L 8.80731201171875,6.231689453125 L 8.479782104492188,5.85272216796875 L 7.97979736328125,5.7261199951171875 L 7.4798126220703125,5.599517822265625 L 7.006378173828125,5.3770751953125 L 6.5832672119140625,5.0779571533203125 L 6.1651763916015625,4.7772674560546875 L 5.665191650390625,4.6394805908203125 L 5.1652069091796875,4.5879364013671875 L 4.66522216796875,4.5363922119140625 L 4.1652374267578125,4.4848480224609375 L 3.665252685546875,4.3805999755859375 L 3.1652679443359375,4.2763519287109375 M -4.414306640625,3.6505584716796875 L -4.414306640625,3.6505584716796875 L -4.3701324462890625,4.150543212890625 L -4.4394073486328125,4.6505279541015625 L -4.56402587890625,5.14129638671875 L -4.6869659423828125,5.6320648193359375 L -4.8803558349609375,6.095672607421875 L -5.0938568115234375,6.5560760498046875 L -5.3727569580078125,6.9941253662109375 L -5.6533355712890625,7.4321746826171875 L -5.9758453369140625,7.8271026611328125 L -6.3436279296875,8.201263427734375 L -6.7114105224609375,8.573822021484375 L -7.1043548583984375,8.898483276367188 L -7.5408935546875,9.146469116210938 L -7.9807891845703125,9.392868041992188 L -8.42236328125,9.640853881835938 L -8.863937377929688,9.888839721679688 M 0.1184844970703125,16.524322509765625 L 0.1184844970703125,16.524322509765625 L -0.1235198974609375,16.981552124023438 L -0.544952392578125,17.291824340820312 L -1.0016021728515625,17.53662109375 L -0.736083984375,17.982666015625 L -0.336395263671875,18.30572509765625 L 0.14044189453125,18.472259521484375 L 0.64044189453125,18.499832153320312 L 1.14044189453125,18.506637573242188 L 1.64044189453125,18.400787353515625 L 2.1156005859375,18.2166748046875 L 2.265411376953125,17.7322998046875 L 2.201171875,17.2322998046875 L 2.1134490966796875,16.741531372070312 L 1.61346435546875,16.7410888671875 L 1.1735687255859375,17.016220092773438 M 1.27899169921875,16.604873657226562 L 1.27899169921875,16.604873657226562 L 1.74407958984375,16.409591674804688 L 1.8536529541015625,15.92840576171875 L 2.1275634765625,15.495147705078125 L 2.587615966796875,15.269515991210938 M 1.837677001953125,17.381500244140625 L 1.837677001953125,17.381500244140625 L 1.8220672607421875,17.881484985351562 L 1.533111572265625,18.319534301757812 L 1.0331268310546875,18.304733276367188 L 0.59490966796875,18.053543090820312 L 0.210357666015625,17.733673095703125 L -0.2865447998046875,17.560745239257812 L 0.1869354248046875,17.39739990234375 L 0.655364990234375,17.202117919921875 M -5.520111083984375,14.432418823242188 L -5.520111083984375,14.432418823242188 L -5.7537384033203125,13.975189208984375 L -6.25372314453125,13.953994750976562 L -6.7537078857421875,13.93280029296875 L -7.253692626953125,13.910003662109375 L -7.5778656005859375,14.304931640625 L -7.705841064453125,14.804916381835938 M -6.659912109375,14.362869262695312 L -6.659912109375,14.362869262695312 L -6.7845306396484375,14.8536376953125 M -5.596038818359375,14.845611572265625 L -5.596038818359375,14.845611572265625 L -5.8363800048828125,15.296432495117188 M -6.834930419921875,15.62945556640625 L -6.834930419921875,15.62945556640625 L -7.3349151611328125,15.520416259765625 L -7.83489990234375,15.411376953125 L -8.334884643554688,15.310317993164062 M -8.304092407226562,16.380172729492188 L -8.304092407226562,16.380172729492188 L -7.8040924072265625,16.414138793945312 L -7.3040924072265625,16.446502685546875 L -6.8040924072265625,16.478866577148438 M -7.5236968994140625,16.222869873046875 L -7.5236968994140625,16.222869873046875 L -7.352081298828125,15.722869873046875 L -7.219024658203125,15.222869873046875 M -8.288772583007812,16.761474609375 L -8.288772583007812,16.761474609375 L -7.8505096435546875,17.0174560546875 L -7.4088897705078125,17.2734375 L -6.9505157470703125,17.507049560546875 L -7.4289703369140625,17.695938110351562 L -7.897369384765625,17.93115234375 L -7.47589111328125,18.249404907226562 L -7.09130859375,18.623565673828125 L -7.5912933349609375,18.786895751953125 L -8.091278076171875,18.827239990234375 L -8.591262817382812,18.769317626953125 L -9.09124755859375,18.711395263671875" fill="none" stroke="#000000" stroke-width="1"/>
</svg>
