<?xml version="1.0" ?>
<svg baseProfile="full" height="195mm" version="1.1" viewBox="0 0 27.5 19.5" width="275mm" xmlns="http://www.w3.org/2000/svg" xmlns:ev="http://www.w3.org/2001/xml-events" xmlns:xlink="http://www.w3.org/1999/xlink">
	<defs/>
	<path d="M 18.751731872558594,11.418975830078125 L 18.751731872558594,11.418975830078125 L 18.780799865722656,11.703689575195312 L 18.818260192871094,12.20367431640625 L 18.74561309814453,12.703659057617188 L 18.595848083496094,13.203643798828125 L 18.38066864013672,13.697586059570312 L 18.133628845214844,14.18194580078125 L 17.787635803222656,14.583267211914062 L 17.369544982910156,14.909515380859375 L 16.94306182861328,15.234176635742188 L 16.494789123535156,15.507720947265625 L 15.994804382324219,15.592788696289062 L 15.494819641113281,15.461380004882812 L 14.994834899902344,15.321990966796875 L 14.494850158691406,15.180999755859375 L 14.002983093261719,15.000091552734375 L 13.625144958496094,14.659454345703125 L 13.337852478027344,14.274093627929688 L 13.050559997558594,13.883956909179688 L 12.828681945800781,13.453872680664062 L 12.705741882324219,12.987075805664062 L 12.681739807128906,12.505889892578125 L 12.717521667480469,12.021514892578125 L 12.756660461425781,11.538726806640625 L 12.797462463378906,11.055938720703125 L 12.836601257324219,10.573150634765625 L 12.932762145996094,10.090362548828125 L 13.406242370605469,9.856735229492188 L 13.879722595214844,9.642288208007812 L 14.379722595214844,9.494918823242188 L 14.879722595214844,9.41143798828125 L 15.379722595214844,9.506088256835938 L 15.879722595214844,9.60552978515625" fill="none" stroke="#000000" stroke-width="1"/>
	<path d="M 23.37993621826172,8.411026000976562 L 23.37993621826172,8.411026000976562 L 23.56664276123047,8.2109375 L 23.89757537841797,7.8447418212890625 L 24.008811950683594,7.3603668212890625 L 23.978111267089844,6.869598388671875 L 23.786399841308594,6.405975341796875 L 23.354896545410156,6.1340179443359375 L 22.87140655517578,5.9499053955078125 L 22.371421813964844,5.8121185302734375 L 21.871437072753906,5.905181884765625 L 21.37285614013672,6.095672607421875 L 20.89606475830078,6.3228912353515625 L 20.602073669433594,6.764129638671875 L 20.385215759277344,7.230926513671875 L 20.20525360107422,7.7200927734375 L 20.23432159423828,8.220077514648438 L 20.37743377685547,8.720062255859375 L 20.520545959472656,9.220046997070312 L 20.88166046142578,9.619766235351562 L 21.306495666503906,9.906082153320312 L 21.800086975097656,10.090179443359375 L 22.300086975097656,10.00189208984375 L 22.72492218017578,9.699600219726562 L 23.06255340576172,9.309463500976562 L 23.395164489746094,8.90972900390625 L 23.645606994628906,8.470062255859375 L 23.77362823486328,7.985687255859375 M 22.493507385253906,15.843124389648438 L 22.493507385253906,15.843124389648438 L 22.760704040527344,15.385894775390625 L 23.02790069580078,14.927078247070312 L 23.21125030517578,14.463455200195312 L 23.26380157470703,13.979080200195312 L 23.228050231933594,13.496292114257812 L 22.93909454345703,13.077392578125 L 22.482444763183594,12.845367431640625 L 21.982460021972656,12.715560913085938 L 21.48247528076172,12.624099731445312 L 20.98249053955078,12.672439575195312 L 20.482505798339844,12.802230834960938 L 19.997337341308594,13.002304077148438 L 19.585960388183594,13.320556640625 L 19.380836486816406,13.793746948242188 L 19.318260192871094,14.293731689453125 L 19.35906219482422,14.793716430664062 L 19.425025939941406,15.293701171875 L 19.526206970214844,15.793685913085938 L 19.719627380371094,16.292434692382812 L 20.065650939941406,16.6905517578125 L 20.50727081298828,16.999237060546875 L 21.00727081298828,16.9189453125 L 21.50727081298828,16.76837158203125 L 22.00727081298828,16.619400024414062 L 22.37006378173828,16.243621826171875 L 22.558448791503906,15.760833740234375 L 22.740135192871094,15.279647827148438 M 21.34369659423828,8.050445556640625 L 21.34369659423828,8.050445556640625 L 21.45159149169922,8.415023803710938 L 21.57793426513672,8.801971435546875 L 21.87364959716797,8.970108032226562 L 22.30016326904297,9.010452270507812 L 22.768592834472656,8.823150634765625 L 23.05089569091797,8.42022705078125 L 23.11016082763672,7.93743896484375 L 23.164390563964844,7.45306396484375 L 23.166648864746094,6.96868896484375 L 22.666664123535156,6.8947906494140625 L 22.16667938232422,7.059722900390625 L 21.726783752441406,7.3332672119140625 L 21.29192352294922,7.6163787841796875 L 21.179039001464844,8.116363525390625 M 21.91381072998047,14.762252807617188 L 21.91381072998047,14.762252807617188 L 21.836143493652344,14.549407958984375 L 21.75176239013672,14.2982177734375 L 21.667381286621094,14.047027587890625 L 21.556175231933594,13.784652709960938 L 21.371192932128906,13.515899658203125 L 21.07050323486328,13.30145263671875 L 20.714454650878906,13.136505126953125 L 20.32654571533203,13.178451538085938 L 19.97553253173828,13.597335815429688 L 19.897865295410156,14.097320556640625 L 19.873863220214844,14.597305297851562 L 19.887855529785156,15.0972900390625 L 20.13829803466797,15.559295654296875 L 20.486000061035156,15.931854248046875 L 20.947731018066406,16.179840087890625 L 21.447731018066406,16.096359252929688 L 21.855796813964844,15.779678344726562 L 22.007286071777344,15.298492431640625 L 21.991676330566406,14.807723999023438 L 21.915687561035156,14.31695556640625" fill="none" stroke="#000000" stroke-width="1"/>
	<path d="M 11.313377380371094,6.66644287109375 L 11.313377380371094,6.66644287109375 L 11.133415222167969,6.815399169921875 L 10.861213684082031,7.045806884765625 L 10.810371398925781,7.493438720703125 L 10.980323791503906,7.9921875 L 11.190513610839844,8.489334106445312 L 11.434242248535156,8.97210693359375 L 11.699760437011719,9.440505981445312 L 11.965278625488281,9.908905029296875 L 11.845680236816406,10.033920288085938 L 11.615409851074219,10.26593017578125 L 11.442161560058594,10.587387084960938 L 11.575218200683594,10.995086669921875 L 11.870933532714844,11.442718505859375 L 12.181739807128906,11.887161254882812 L 12.031974792480469,11.924331665039062 L 11.823509216308594,12.023773193359375 L 11.554664611816406,12.33404541015625 L 11.470283508300781,12.834030151367188 L 11.536247253417969,13.334014892578125 L 11.684379577636719,13.833999633789062 L 11.832511901855469,14.333984375 L 12.106422424316406,14.711349487304688 L 11.934852600097656,14.716552734375 L 11.691169738769531,14.716552734375 L 11.366996765136719,14.700149536132812 L 11.002571105957031,14.607086181640625 L 10.550941467285156,14.41339111328125 L 10.084220886230469,14.189361572265625 L 9.704704284667969,13.808807373046875 L 9.447608947753906,13.342010498046875 L 9.235786437988281,12.856033325195312 L 9.129615783691406,12.356033325195312 L 9.080451965332031,11.856033325195312 L 9.036323547363281,11.356033325195312 L 9.002250671386719,10.856033325195312 L 8.973228454589844,10.356033325195312 L 8.959281921386719,9.856033325195312 L 8.948692321777344,9.356033325195312 L 9.023048400878906,8.856033325195312 L 9.167839050292969,8.356033325195312 L 9.366294860839844,7.8560333251953125 L 9.742500305175781,7.4786529541015625 L 10.115348815917969,7.0996856689453125 L 10.488197326660156,6.7207183837890625 L 10.983467102050781,6.724334716796875 L 11.227195739746094,6.78863525390625 M 10.553306579589844,8.57330322265625 L 10.553306579589844,8.57330322265625 L 10.610893249511719,8.837265014648438 L 10.668479919433594,9.145950317382812 L 10.684150695800781,9.453033447265625 L 10.623252868652344,9.760116577148438 L 10.451683044433594,10.065597534179688 L 10.223075866699219,10.385452270507812 L 10.140373229980469,10.75640869140625 L 10.332115173339844,11.068283081054688 L 10.367897033691406,11.222030639648438 L 10.405357360839844,11.484390258789062 L 10.441139221191406,11.812225341796875 L 10.476921081542969,12.140060424804688 L 10.626731872558594,12.383255004882812 L 10.791648864746094,12.629653930664062 L 10.949836730957031,12.906387329101562 L 11.051017761230469,13.184722900390625 L 11.160591125488281,13.431121826171875" fill="none" stroke="#000000" stroke-width="1"/>
</svg>
