<?xml version="1.0" ?>
<svg baseProfile="full" height="195mm" version="1.1" viewBox="0 0 27.5 19.5" width="275mm" xmlns="http://www.w3.org/2000/svg" xmlns:ev="http://www.w3.org/2001/xml-events" xmlns:xlink="http://www.w3.org/1999/xlink">
	<defs/>
	<path d="M 16.43895721435547,13.58294677734375 L 16.43895721435547,13.58294677734375 L 16.124839782714844,13.556961059570312 L 15.889533996582031,13.54693603515625 L 15.825294494628906,13.735824584960938 L 15.662101745605469,14.183456420898438 L 15.492210388183594,14.28289794921875 L 15.325660705566406,14.404708862304688 L 15.159111022949219,14.526519775390625 L 14.985862731933594,14.571670532226562 L 14.755592346191406,14.357223510742188 L 14.508552551269531,13.98944091796875 L 14.336982727050781,13.551376342773438 L 14.391212463378906,13.189971923828125 L 14.661766052246094,12.874893188476562 L 14.907173156738281,12.556625366210938 L 14.738945007324219,12.255935668945312 L 14.506996154785156,11.89453125 L 14.903327941894531,11.718399047851562 L 15.403327941894531,11.741180419921875 L 15.903327941894531,11.990753173828125 L 16.175559997558594,12.417617797851562 L 16.474632263183594,12.858856201171875 L 16.974632263183594,12.818496704101562 L 17.16301727294922,12.431533813476562 M 17.09937286376953,13.83636474609375 L 17.09937286376953,13.83636474609375 L 16.632652282714844,13.82794189453125 M 16.76238250732422,13.699737548828125 L 16.76238250732422,13.699737548828125 L 17.039649963378906,13.797592163085938 M 15.405372619628906,13.50994873046875 L 15.405372619628906,13.50994873046875 L 15.113059997558594,13.407302856445312 L 14.678199768066406,13.479598999023438 L 14.822990417480469,13.979583740234375 L 15.298149108886719,14.225982666015625 L 15.754844665527344,13.91888427734375 M 15.309440612792969,13.977096557617188 L 15.309440612792969,13.977096557617188 M 14.821708679199219,12.083282470703125 L 14.821708679199219,12.083282470703125 L 14.998359680175781,12.076461791992188 L 15.268913269042969,11.97540283203125 L 15.437187194824219,11.993392944335938 L 15.581977844238281,11.9466552734375 L 15.621116638183594,12.386306762695312 L 15.565254211425781,12.88629150390625 L 15.336647033691406,12.87786865234375 L 15.034278869628906,12.415847778320312 L 15.293098449707031,11.9378662109375" fill="none" stroke="#000000" stroke-width="1"/>
	<path d="M 29.59992218017578,10.021621704101562 L 29.59992218017578,10.021621704101562 L 30.02979278564453,9.843902587890625 L 30.49152374267578,9.61187744140625 L 30.82915496826172,9.205764770507812 L 31.10138702392578,8.7469482421875 L 31.296470642089844,8.25457763671875 L 31.26911163330078,7.75457763671875 L 31.089149475097656,7.25457763671875 L 30.73981475830078,6.8372802734375 L 30.333457946777344,6.482269287109375 L 29.87848663330078,6.1895599365234375 L 29.401695251464844,5.936767578125 L 28.901710510253906,5.8005828857421875 L 28.40172576904297,5.6883392333984375 L 27.90174102783203,5.59844970703125 L 27.401756286621094,5.5596923828125 L 26.901771545410156,5.56011962890625 L 26.40178680419922,5.5972900390625 L 25.90180206298828,5.6488189697265625 L 25.401817321777344,5.7626495361328125 L 24.901832580566406,5.9307861328125 L 24.478721618652344,6.263427734375 L 24.15454864501953,6.7030792236328125 L 23.90247344970703,7.1650848388671875 L 23.687294006347656,7.6510467529296875 L 23.560997009277344,8.151031494140625 L 23.61522674560547,8.651016235351562 L 23.88745880126953,9.127395629882812 L 24.251930236816406,9.528717041015625 L 24.634849548339844,9.917251586914062 L 25.032859802246094,10.2882080078125 L 25.532859802246094,10.370086669921875 L 26.032859802246094,10.378494262695312 L 26.532859802246094,10.383697509765625 L 27.032859802246094,10.39849853515625 L 27.532859802246094,10.413299560546875 L 28.032859802246094,10.4281005859375 L 28.532859802246094,10.444488525390625 L 29.032859802246094,10.319488525390625 L 29.519752502441406,10.1146240234375 L 29.99323272705078,9.876205444335938 L 30.09777069091797,9.999618530273438 L 30.39348602294922,10.274749755859375 L 30.761314392089844,10.64093017578125 L 31.09392547607422,11.083770751953125 L 31.41480255126953,11.529815673828125 L 31.68199920654297,11.985443115234375 L 31.87708282470703,12.477798461914062 L 31.887718200683594,12.977783203125 L 31.78490447998047,13.477767944335938 L 31.616676330566406,13.976516723632812 L 31.42664337158203,14.46087646484375 L 31.058860778808594,14.857406616210938 L 30.63237762451172,15.18206787109375 L 30.163978576660156,15.41888427734375 L 29.69390106201172,15.650894165039062 L 29.21710968017578,15.87811279296875 L 28.72858428955078,16.05902099609375 L 28.228599548339844,16.121734619140625 L 27.728614807128906,16.051025390625 L 27.22863006591797,15.926025390625 L 26.72864532470703,15.802597045898438 L 26.228660583496094,15.63287353515625 L 25.76026153564453,15.35772705078125 L 25.37738800048828,14.978759765625 L 25.041481018066406,14.56146240234375 L 24.70891571044922,14.1441650390625 L 24.43169403076172,13.683746337890625 L 24.297019958496094,13.183746337890625 L 24.175743103027344,12.683746337890625 L 24.139991760253906,12.183746337890625 L 24.142250061035156,11.683746337890625 L 24.230018615722656,11.183746337890625 L 24.483802795410156,10.691375732421875 L 24.782875061035156,10.246932983398438 M 29.63062286376953,9.779693603515625 L 29.63062286376953,9.779693603515625 L 29.333274841308594,9.352813720703125 L 28.833290100097656,9.165512084960938 L 28.33330535888672,9.113967895507812 L 27.83332061767578,9.062423706054688 L 27.333335876464844,9.101165771484375 L 26.833351135253906,9.270889282226562 L 26.400169372558594,9.603530883789062 L 25.96698760986328,9.936172485351562 L 25.535484313964844,10.272003173828125 L 25.177757263183594,10.70367431640625 L 25.473472595214844,10.270416259765625 L 25.86646270751953,9.913818359375 L 26.31981658935547,10.164993286132812 L 26.486412048339844,10.66497802734375 L 26.67479705810547,10.19818115234375 L 26.85144805908203,9.726577758789062 L 27.06499481201172,10.2093505859375 L 27.340599060058594,9.771286010742188 L 27.52898406982422,9.302886962890625 L 27.760963439941406,9.788848876953125 L 28.169029235839844,10.035247802734375 L 28.39598846435547,9.592391967773438 L 28.58269500732422,10.087936401367188 L 28.96727752685547,10.152236938476562 L 29.184181213378906,9.699798583984375 L 29.39940643310547,9.252151489257812 M 30.35504913330078,15.044647216796875 L 30.35504913330078,15.044647216796875 L 29.983909606933594,14.63214111328125 L 29.50041961669922,14.379348754882812 L 29.00043487548828,14.400527954101562 L 28.500450134277344,14.464828491210938 L 28.000465393066406,14.529129028320312 L 27.50048065185547,14.591842651367188 L 27.00049591064453,14.697677612304688 L 26.500511169433594,14.8131103515625 L 26.062294006347656,15.129776000976562 L 25.64923858642578,15.478378295898438 M 28.608009338378906,9.427947998046875 L 28.608009338378906,9.427947998046875 L 28.10802459716797,9.41314697265625 L 27.60803985595703,9.399948120117188 L 27.108055114746094,9.386749267578125 L 26.654747009277344,9.700225830078125 L 27.154747009277344,9.7437744140625 L 27.654747009277344,9.697036743164062 L 28.154747009277344,9.688613891601562 L 28.654747009277344,9.6754150390625 L 29.154747009277344,9.665390014648438 L 29.654747009277344,9.7935791015625 L 29.172935485839844,9.977676391601562 L 28.672950744628906,10.056365966796875 L 28.17296600341797,10.135055541992188 L 27.67298126220703,10.05157470703125 L 27.172996520996094,9.96649169921875 L 26.673011779785156,9.990875244140625 L 26.17302703857422,10.013656616210938 M 20.18761444091797,6.036102294921875 L 20.18761444091797,6.036102294921875 L 19.828208923339844,6.4342193603515625 L 19.46546173095703,6.83074951171875 L 19.136253356933594,7.27838134765625 L 18.820457458496094,7.72601318359375 L 18.543235778808594,8.186416625976562 L 18.284461975097656,8.658004760742188 L 18.045799255371094,9.139175415039062 L 17.870872497558594,9.637924194335938 L 17.75463104248047,10.137908935546875 L 17.673606872558594,10.637893676757812 L 17.66301727294922,11.13787841796875 L 17.72228240966797,11.637863159179688 L 17.846946716308594,12.137847900390625 L 17.988380432128906,12.637832641601562 L 18.13819122314453,13.1378173828125 L 18.32489776611328,13.636566162109375 L 18.58875274658203,14.120925903320312" fill="none" stroke="#000000" stroke-width="1"/>
	<path d="M 13.006629943847656,8.414047241210938 L 13.006629943847656,8.414047241210938 L 13.206764221191406,8.644454956054688 L 13.348197937011719,8.957931518554688 L 13.461112976074219,9.2841796875 L 13.538810729980469,9.667922973632812 L 13.613166809082031,10.03887939453125 L 13.687522888183594,10.425827026367188 L 13.711570739746094,10.815963745117188 L 13.718849182128906,11.204498291015625 L 13.724449157714844,11.596237182617188 L 13.728385925292969,11.986373901367188 L 13.647361755371094,12.382904052734375 L 13.502616882324219,12.827346801757812 L 13.357872009277344,13.27178955078125 L 13.179588317871094,13.716232299804688 L 12.853736877441406,14.160675048828125 L 12.445716857910156,14.534835815429688 L 12.034339904785156,14.894622802734375 L 11.552528381347656,15.078720092773438 L 11.052543640136719,15.123870849609375 L 10.569053649902344,14.895034790039062 L 10.130836486816406,14.587936401367188 L 9.685920715332031,14.284042358398438 L 9.316459655761719,13.900283813476562 L 9.019111633300781,13.465423583984375 L 8.745231628417969,13.012985229492188 L 8.530052185058594,12.530197143554688 L 8.415489196777344,12.030197143554688 L 8.302604675292969,11.530197143554688 L 8.229957580566406,11.030197143554688 L 8.262382507324219,10.530197143554688 L 8.279716491699219,10.030197143554688 L 8.250694274902344,9.530197143554688 L 8.304924011230469,9.030197143554688 L 8.478218078613281,8.530197143554688 L 8.658226013183594,8.030197143554688 L 9.000892639160156,7.628875732421875 L 9.439155578613281,7.33135986328125 L 9.877418518066406,7.033843994140625 L 10.354255676269531,6.8672943115234375 L 10.854255676269531,6.8221282958984375 L 11.354255676269531,7.001434326171875 L 11.792518615722656,7.3324737548828125 L 12.235801696777344,7.601226806640625 L 12.735801696777344,7.6192169189453125 L 13.185798645019531,7.935882568359375 L 13.343986511230469,8.435867309570312 L 13.286445617675781,8.93585205078125 L 13.249015808105469,9.435836791992188 M 9.971321105957031,7.331390380859375 L 9.971321105957031,7.331390380859375 L 9.971885681152344,7.692779541015625 L 9.972450256347656,8.079727172851562 L 9.973014831542969,8.4666748046875 L 9.973579406738281,8.853622436523438 L 9.973579406738281,9.240570068359375 L 9.973579406738281,9.627517700195312 L 9.973579406738281,10.01446533203125 L 9.973579406738281,10.402999877929688 L 9.973579406738281,10.791534423828125 L 9.973579406738281,11.180068969726562 L 9.973579406738281,11.568603515625 L 9.974143981933594,11.955551147460938 L 9.974708557128906,12.342498779296875 L 9.974708557128906,12.72784423828125 L 9.974708557128906,13.114791870117188 L 9.974708557128906,13.501739501953125 L 9.975273132324219,13.888687133789062 L 9.975837707519531,14.275634765625 L 9.975837707519531,14.593887329101562 M 12.013511657714844,7.5839385986328125 L 12.013511657714844,7.5839385986328125 L 12.042579650878906,7.74566650390625 L 12.071647644042969,8.129409790039062 L 12.100715637207031,8.577041625976562 L 12.123085021972656,9.0770263671875 L 12.145454406738281,9.577011108398438 L 12.164466857910156,10.076995849609375 L 12.185157775878906,10.576980590820312 L 12.224296569824219,11.07696533203125 L 12.243309020996094,11.576950073242188 L 12.263999938964844,12.076934814453125 L 12.284690856933594,12.576919555664062 L 12.305381774902344,13.076904296875 L 12.326072692871094,13.576889038085938 L 12.346763610839844,14.076873779296875 L 12.365776062011719,14.576858520507812 M 10.009284973144531,12.929580688476562 L 10.009284973144531,12.929580688476562 L 9.820945739746094,12.953964233398438 L 9.625892639160156,12.978347778320312 L 9.427482604980469,13.002731323242188 L 9.229072570800781,13.027114868164062 L 9.030662536621094,13.0531005859375 L 8.830574035644531,13.075881958007812 M 8.559135437011719,11.904983520507812 L 8.559135437011719,11.904983520507812 L 8.374153137207031,11.877395629882812 L 8.525642395019531,11.877395629882812 L 8.781105041503906,11.877395629882812 L 9.060050964355469,11.870574951171875 L 9.338996887207031,11.854171752929688 L 9.616264343261719,11.82818603515625 L 9.893531799316406,11.802200317382812 L 10.113777160644531,11.774612426757812 M 10.001579284667969,10.572219848632812 L 10.001579284667969,10.572219848632812 L 9.660636901855469,10.595001220703125 L 9.160652160644531,10.649734497070312 L 8.692253112792969,10.710845947265625 L 8.233924865722656,10.7735595703125 M 8.319511413574219,9.341018676757812 L 8.319511413574219,9.341018676757812 L 8.593421936035156,9.29107666015625 L 8.875724792480469,9.241134643554688 L 9.156349182128906,9.170425415039062 L 9.438652038574219,9.104507446289062 L 9.719276428222656,9.040191650390625 L 9.986473083496094,8.975875854492188 M 9.991050720214844,7.9514923095703125 L 9.991050720214844,7.9514923095703125 L 9.754066467285156,7.8664093017578125 L 9.512062072753906,7.77972412109375 L 9.276756286621094,7.69464111328125 L 9.041450500488281,7.60955810546875 L 8.841361999511719,7.5228729248046875 M 12.445320129394531,8.420944213867188 L 12.445320129394531,8.420944213867188 L 12.660545349121094,8.420944213867188 L 13.040107727050781,8.420944213867188 L 13.419670104980469,8.420944213867188 M 13.316886901855469,9.3873291015625 L 13.316886901855469,9.3873291015625 L 12.908866882324219,9.437255859375 L 12.480705261230469,9.491989135742188 L 12.107902526855469,9.545120239257812 M 12.560203552246094,10.44195556640625 L 12.560203552246094,10.44195556640625 L 12.914619445800781,10.459945678710938 L 13.354560852050781,10.459945678710938 L 13.507728576660156,10.459945678710938 L 13.836982727050781,10.459503173828125 M 13.444145202636719,11.543243408203125 L 13.444145202636719,11.543243408203125 L 13.215538024902344,11.494903564453125 L 12.978553771972656,11.446563720703125 L 12.728157043457031,11.451766967773438 L 12.481117248535156,11.535232543945312 L 12.234077453613281,11.621902465820312 M 12.541557312011719,12.570724487304688 L 12.541557312011719,12.570724487304688 L 12.740013122558594,12.636627197265625 L 12.963615417480469,12.7169189453125 L 13.195594787597656,12.782821655273438 L 13.427574157714844,12.84393310546875 L 13.659553527832031,12.908233642578125 M 13.133766174316406,13.466812133789062 L 13.133766174316406,13.466812133789062 L 12.962196350097656,13.43603515625 L 12.706779479980469,13.419631958007812 L 12.526817321777344,13.44879150390625 L 12.167411804199219,13.500320434570312" fill="none" stroke="#000000" stroke-width="1"/>
</svg>
