<?xml version="1.0" ?>
<svg baseProfile="full" height="195mm" version="1.1" viewBox="0 0 27.5 19.5" width="275mm" xmlns="http://www.w3.org/2000/svg" xmlns:ev="http://www.w3.org/2001/xml-events" xmlns:xlink="http://www.w3.org/1999/xlink">
	<defs/>
	<path d="M 18.1002197265625,12.266845703125 L 18.1002197265625,12.266845703125 L 17.970687866210938,12.133224487304688 L 17.810943603515625,11.999603271484375 L 17.581253051757812,11.933181762695312 L 17.310211181640625,11.92755126953125 L 17.005783081054688,11.91552734375 L 16.680694580078125,11.817108154296875 L 16.355606079101562,11.65948486328125 L 16.017791748046875,11.525863647460938 L 15.679977416992188,11.392242431640625 L 15.33740234375,11.258621215820312 L 14.994827270507812,11.144195556640625 L 14.64111328125,11.040969848632812 L 14.287399291992188,10.937744140625 L 13.933685302734375,10.834518432617188 L 13.86773681640625,10.979293823242188 L 13.88128662109375,11.165664672851562 L 13.804214477539062,11.552047729492188 L 13.727142333984375,11.938430786132812 L 13.626220703125,12.324813842773438 L 13.518951416015625,12.711196899414062 L 13.432342529296875,13.097579956054688 L 13.3997802734375,13.483963012695312 L 13.488052368164062,13.870346069335938 L 13.643081665039062,13.887115478515625 L 13.987289428710938,13.969482421875 L 14.229766845703125,13.891860961914062 L 14.472244262695312,13.785430908203125 L 14.765579223632812,13.759002685546875 L 15.058914184570312,13.732574462890625 L 15.34429931640625,13.592544555664062 L 15.63763427734375,13.460525512695312 L 15.946868896484375,13.360504150390625 L 16.278350830078125,13.278076171875 L 16.65753173828125,13.290054321289062 L 17.036712646484375,13.302032470703125 L 17.406356811523438,13.240402221679688 L 17.621810913085938,12.8699951171875 L 17.652847290039062,12.3699951171875 L 17.7935791015625,12.308364868164062" fill="none" stroke="#000000" stroke-width="1"/>
	<path d="M 20.49249267578125,6.34228515625 L 20.49249267578125,6.34228515625 L 20.410659790039062,6.475860595703125 L 20.255691528320312,6.673431396484375 L 20.005325317382812,6.871002197265625 L 19.775634765625,7.1453857421875 L 19.569793701171875,7.49017333984375 L 19.36395263671875,7.8349609375 L 19.1453857421875,8.17974853515625 L 18.937957763671875,8.53253173828125 L 18.744827270507812,8.928512573242188 L 18.608932495117188,9.407699584960938 L 18.6002197265625,9.896484375 L 18.6121826171875,10.385269165039062 L 18.678192138671875,10.874053955078125 L 18.807785034179688,11.316436767578125 L 19.078857421875,11.626022338867188 L 19.40875244140625,11.783599853515625 L 19.511322021484375,11.661178588867188 L 19.776031494140625,11.506759643554688 L 20.09002685546875,11.438735961914062 L 20.354736328125,11.21551513671875 L 20.678268432617188,10.958709716796875 L 21.024063110351562,10.71148681640625 L 21.369857788085938,10.4578857421875 L 21.4644775390625,10.09228515625 L 21.552749633789062,9.656280517578125 L 21.5631103515625,9.156280517578125 L 21.47808837890625,8.656280517578125 L 21.329483032226562,8.156280517578125 L 21.126815795898438,7.656280517578125 L 20.846237182617188,7.156280517578125 L 20.565658569335938,6.656280517578125 L 20.42022705078125,6.228271484375 M 20.110397338867188,8.559356689453125 L 20.110397338867188,8.559356689453125 L 20.028564453125,8.875335693359375 L 19.94195556640625,9.191314697265625 L 19.88873291015625,9.507293701171875 L 20.005615234375,9.78167724609375 L 20.186080932617188,9.840057373046875 L 20.17578125,9.680831909179688 L 20.073272705078125,9.4000244140625 L 20.0740966796875,9.106414794921875 L 20.132156372070312,8.81280517578125 L 20.063034057617188,8.519195556640625 M 19.819381713867188,12.713394165039062 L 19.819381713867188,12.713394165039062 L 20.114303588867188,12.987777709960938 L 20.34088134765625,13.322967529296875 L 20.629440307617188,13.678955078125 L 20.840118408203125,14.110137939453125 L 20.97607421875,14.560516357421875 L 20.9896240234375,15.039703369140625 L 20.965011596679688,15.539688110351562 L 20.884765625,16.0396728515625 L 20.814056396484375,16.539657592773438 L 20.733810424804688,17.039642333984375 L 20.653564453125,17.539627075195312 L 20.400009155273438,18.033203125 L 20.25299072265625,17.949172973632812 L 19.896102905273438,17.844345092773438 L 19.766571044921875,17.765121459960938 L 19.62750244140625,17.663497924804688 L 19.50433349609375,17.509078979492188 L 19.277816772460938,17.277862548828125 L 19.159408569335938,17.171432495117188 L 18.894729614257812,16.794631958007812 L 18.76519775390625,16.65460205078125 L 18.788284301757812,16.504974365234375 L 18.7652587890625,16.216171264648438 L 18.685012817382812,15.91937255859375 L 18.747848510742188,15.600173950195312 L 18.850418090820312,15.272964477539062 L 18.871917724609375,14.934555053710938 L 18.848892211914062,14.562545776367188 L 18.838592529296875,14.185745239257812 L 18.84100341796875,13.80413818359375 L 19.003982543945312,13.412933349609375 L 19.166961669921875,13.348114013671875 L 19.193222045898438,13.198486328125 L 19.343490600585938,12.909683227539062 L 19.47149658203125,12.803253173828125 L 19.470733642578125,12.621627807617188 L 19.606689453125,12.552001953125 M 19.492431640625,14.870269775390625 L 19.492431640625,14.870269775390625 L 19.43603515625,15.128646850585938 L 19.389175415039062,15.38702392578125 L 19.542617797851562,15.639007568359375 L 19.780319213867188,15.785385131835938 L 19.797042846679688,15.602157592773438 L 19.767669677734375,15.159759521484375 L 19.738296508789062,14.717361450195312 L 19.554718017578125,14.3277587890625" fill="none" stroke="#000000" stroke-width="1"/>
	<path d="M 12.539215087890625,8.766845703125 L 12.539215087890625,8.766845703125 L 12.735977172851562,8.914215087890625 L 12.890823364257812,9.414199829101562 L 12.8997802734375,9.9141845703125 L 12.835540771484375,10.414169311523438 L 12.647201538085938,10.906524658203125 L 12.1905517578125,11.18804931640625 M 12.264907836914062,11.338607788085938 L 12.264907836914062,11.338607788085938 L 12.377822875976562,11.781448364257812 L 12.490737915039062,12.28143310546875 L 12.433197021484375,12.781417846679688 L 12.072128295898438,13.1827392578125 L 11.685897827148438,13.560104370117188 M 12.2376708984375,8.684417724609375 L 12.2376708984375,8.684417724609375 L 11.849761962890625,8.817413330078125 L 11.359573364257812,9.036651611328125 L 10.859588623046875,9.238327026367188 L 10.359603881835938,9.344161987304688 L 9.88616943359375,9.092971801757812 L 9.511688232421875,8.73956298828125 L 9.075149536132812,9.022674560546875 L 8.688919067382812,9.3792724609375 L 8.37982177734375,9.782180786132812 L 8.161300659179688,10.240982055664062 M 8.205474853515625,10.39154052734375 L 8.205474853515625,10.39154052734375 L 8.2630615234375,10.711395263671875 L 8.320648193359375,11.211380004882812 L 8.37823486328125,11.71136474609375 L 8.435821533203125,12.211349487304688 L 8.488372802734375,12.711334228515625 L 8.540924072265625,13.211318969726562 L 8.942291259765625,13.384231567382812 M 11.492721557617188,13.466384887695312 L 11.492721557617188,13.466384887695312 L 11.410018920898438,13.255111694335938 L 11.298812866210938,13.023086547851562 L 11.127243041992188,12.757522583007812 L 10.782943725585938,12.666061401367188 L 10.282958984375,12.588958740234375 L 9.782974243164062,12.753890991210938 L 9.379974365234375,13.134445190429688 L 9.012191772460938,13.548538208007812 M 9.139541625976562,13.396072387695312 L 9.139541625976562,13.396072387695312 L 9.41009521484375,13.460372924804688 L 9.241867065429688,13.432785034179688 L 8.74188232421875,13.615280151367188 L 8.69775390625,13.432769775390625 L 8.61505126953125,13.01068115234375 M 12.12359619140625,8.969329833984375 L 12.12359619140625,8.969329833984375 L 11.9520263671875,9.372238159179688 L 11.782135009765625,9.805496215820312 L 11.781600952148438,10.30548095703125 L 11.792236328125,10.805465698242188 L 11.802871704101562,11.305450439453125 L 11.813507080078125,11.805435180664062 L 11.819107055664062,12.305419921875 L 11.773300170898438,12.805404663085938 L 11.655380249023438,13.305389404296875 M 11.709609985351562,13.46234130859375 L 11.709609985351562,13.46234130859375 L 11.794036865234375,13.774215698242188 L 11.878463745117188,14.074905395507812 M 9.7509765625,8.92718505859375 L 9.7509765625,8.92718505859375 L 9.519027709960938,9.22308349609375 L 9.327316284179688,9.573287963867188 L 9.14569091796875,10.017730712890625 L 8.980819702148438,10.517715454101562 L 8.815948486328125,11.0177001953125 L 8.694671630859375,11.517684936523438 L 8.660598754882812,12.017669677734375 L 8.716506958007812,12.51641845703125 L 8.774093627929688,13.015167236328125 L 8.830001831054688,13.512313842773438 L 8.885910034179688,14.00946044921875 M 11.564208984375,11.102401733398438 L 11.564208984375,11.102401733398438 L 11.370819091796875,11.057235717773438 L 11.098617553710938,11.012069702148438 M 11.14111328125,10.831161499023438 L 11.14111328125,10.831161499023438 L 11.23223876953125,10.524063110351562 L 11.333419799804688,10.212188720703125 L 11.437957763671875,10.338775634765625 L 11.5693359375,10.558013916015625 L 11.71746826171875,10.786834716796875 M 11.57672119140625,12.240036010742188 L 11.57672119140625,12.240036010742188 L 11.413528442382812,12.256423950195312 L 11.18157958984375,12.290390014648438 L 11.1693115234375,12.138229370117188 L 11.167098999023438,11.984466552734375 L 11.204559326171875,11.682174682617188 L 11.36444091796875,11.725723266601562 L 11.650100708007812,11.785247802734375 L 11.80828857421875,11.796844482421875 L 12.015121459960938,11.816436767578125 M 9.07427978515625,10.629257202148438 L 9.07427978515625,10.629257202148438 L 9.505828857421875,10.65203857421875 L 9.513107299804688,10.804183959960938 L 9.453887939453125,11.079315185546875 L 9.240386962890625,11.475845336914062 L 9.269454956054688,11.6375732421875 L 9.278411865234375,12.029312133789062 L 9.111862182617188,11.985748291015625 L 8.61187744140625,11.817611694335938" fill="none" stroke="#000000" stroke-width="1"/>
</svg>
