<?xml version="1.0" ?>
<svg baseProfile="full" height="195mm" version="1.1" viewBox="0 0 27.5 19.5" width="275mm" xmlns="http://www.w3.org/2000/svg" xmlns:ev="http://www.w3.org/2001/xml-events" xmlns:xlink="http://www.w3.org/1999/xlink">
	<defs/>
	<path d="M 14.989875793457031,9.662933349609375 L 14.989875793457031,9.662933349609375 L 14.990440368652344,9.46923828125 L 15.093299865722656,9.20367431640625 L 15.432609558105469,9.2999267578125 L 15.490196228027344,9.440902709960938 L 15.549461364746094,9.648956298828125 L 15.593635559082031,10.021514892578125 L 15.365028381347656,10.272689819335938 L 15.069358825683594,10.586166381835938 L 14.894432067871094,10.885269165039062 L 14.846946716308594,11.219512939453125 M 14.775489807128906,11.597671508789062 L 14.775489807128906,11.597671508789062 L 14.886726379394531,11.82330322265625 L 15.184120178222656,11.924346923828125 L 15.513374328613281,11.943939208984375 L 15.815788269042969,12.1871337890625 L 15.861640930175781,12.685882568359375 L 15.550865173339844,13.112747192382812 L 15.310523986816406,12.83599853515625 L 15.252983093261719,12.528900146484375 M 14.967414855957031,12.951812744140625 L 14.967414855957031,12.951812744140625 L 15.142387390136719,13.1854248046875 L 15.423011779785156,13.249725341796875 L 15.710350036621094,13.183807373046875 L 15.999351501464844,13.09552001953125 L 16.19109344482422,12.775650024414062 L 16.260414123535156,12.419052124023438 L 16.08045196533203,11.934677124023438 M 16.226905822753906,11.852798461914062 L 16.226905822753906,11.852798461914062 L 16.48572540283203,11.673492431640625 L 16.729454040527344,11.195510864257812 L 16.505897521972656,10.703140258789062 L 16.062660217285156,10.412017822265625 M 15.496055603027344,9.042236328125 L 15.496055603027344,9.042236328125 L 15.197029113769531,9.040191650390625 L 14.770545959472656,9.096511840820312 L 14.918678283691406,9.438735961914062" fill="none" stroke="#000000" stroke-width="1"/>
	<path d="M 17.893028259277344,8.9600830078125 L 17.893028259277344,8.9600830078125 L 17.817039489746094,8.708892822265625 L 17.741050720214844,8.270828247070312 L 17.91938018798828,7.7708282470703125 L 18.19664764404297,7.299224853515625 L 18.67180633544922,7.2061614990234375 L 19.14696502685547,7.194549560546875 L 19.62212371826172,7.321136474609375 L 20.02349090576172,7.636199951171875 L 20.339332580566406,8.032730102539062 L 20.49250030517578,8.502716064453125 L 20.37122344970703,8.990280151367188 L 20.031959533691406,9.388397216796875 L 19.563560485839844,9.618804931640625 L 19.081748962402344,9.798110961914062 L 18.581764221191406,9.903945922851562 L 18.08177947998047,9.78851318359375 L 17.693870544433594,9.4095458984375 L 17.711204528808594,8.9095458984375 L 17.961647033691406,8.434738159179688 M 17.759544372558594,11.012496948242188 L 17.759544372558594,11.012496948242188 L 17.97978973388672,10.628738403320312 L 18.372779846191406,10.444625854492188 L 18.872779846191406,10.316421508789062 L 19.372779846191406,10.188217163085938 L 19.84626007080078,10.386688232421875 L 20.11681365966797,10.82952880859375 L 20.32532501220703,11.286758422851562 L 20.52545928955078,11.747161865234375 L 20.390785217285156,12.239517211914062 L 19.98778533935547,12.562576293945312 L 19.51099395751953,12.743484497070312 L 19.01744842529297,12.84613037109375 L 18.51746368408203,12.908843994140625 L 18.017478942871094,12.836532592773438 L 17.64299774169922,12.452774047851562 L 17.473106384277344,11.952774047851562 L 17.47704315185547,11.452774047851562 L 17.814674377441406,11.073806762695312 L 18.27136993408203,10.8641357421875 M 18.061561584472656,7.8450164794921875 L 18.061561584472656,7.8450164794921875 L 18.286842346191406,7.7599334716796875 L 18.644615173339844,7.6668701171875 L 18.94702911376953,8.119293212890625 L 19.142112731933594,8.611648559570312 L 19.335533142089844,9.1055908203125 L 18.90904998779297,9.414276123046875 L 18.569786071777344,9.329193115234375 L 18.22045135498047,9.245712280273438 L 17.87279510498047,9.240493774414062 L 17.52680206298828,9.306396484375 L 17.229454040527344,9.377105712890625 M 18.346397399902344,10.88580322265625 L 18.346397399902344,10.88580322265625 L 18.71086883544922,10.757598876953125 L 19.15918731689453,11.042312622070312 L 19.30229949951172,11.54229736328125 L 19.125694274902344,12.041046142578125 L 18.684120178222656,12.316177368164062 L 18.215721130371094,12.4954833984375 L 17.832847595214844,12.4503173828125 M 20.025550842285156,9.280532836914062 L 20.025550842285156,9.280532836914062 L 19.768455505371094,9.010177612304688 L 19.63042449951172,8.510177612304688 L 19.77185821533203,8.010177612304688 L 20.03571319580078,7.552947998046875 L 20.438758850097656,7.2650146484375 L 20.897132873535156,7.0968780517578125 L 21.355506896972656,6.97027587890625 M 20.09984588623047,10.790252685546875 L 20.09984588623047,10.790252685546875 L 19.861183166503906,11.27142333984375 L 19.71141815185547,11.771408081054688 L 19.772361755371094,12.271392822265625 L 20.06304168701172,12.719024658203125 L 20.42919158935547,13.11395263671875 L 20.79534149169922,13.508880615234375 L 21.25707244873047,13.739288330078125 L 21.532676696777344,13.323593139648438" fill="none" stroke="#000000" stroke-width="1"/>
	<path d="M 13.653846740722656,6.1258392333984375 L 13.653846740722656,6.1258392333984375 L 13.483955383300781,6.625823974609375 L 13.263755798339844,7.1181793212890625 L 13.040199279785156,7.5945587158203125 L 12.816642761230469,8.072540283203125 L 12.593086242675781,8.548919677734375 L 12.414802551269531,9.033279418945312 L 12.236518859863281,9.51763916015625 L 12.073326110839844,10.008407592773438 L 11.970512390136719,10.502349853515625 L 11.970512390136719,10.999496459960938 L 12.018043518066406,11.49664306640625 L 12.068931579589844,11.9921875 L 12.119819641113281,12.489334106445312 L 12.172370910644531,12.984878540039062 L 12.223258972167969,13.480422973632812 L 12.352958679199219,13.975967407226562 L 12.561470031738281,14.447555541992188 L 12.785072326660156,14.907958984375 L 13.027122497558594,15.357177734375 L 13.284263610839844,15.806396484375 L 13.541404724121094,16.255615234375 L 13.766685485839844,16.709640502929688 L 13.916496276855469,17.19720458984375 L 13.496742248535156,17.536224365234375 L 12.996757507324219,17.578170776367188 L 12.496772766113281,17.3717041015625 L 12.025016784667969,17.09814453125 L 11.625373840332031,16.744735717773438 L 11.229087829589844,16.384933471679688 L 10.831123352050781,16.020339965820312 L 10.496879577636719,15.583877563476562 L 10.256538391113281,15.096298217773438 L 10.017875671386719,14.607131958007812 L 9.790962219238281,14.114761352539062 L 9.736778259277344,13.614761352539062 L 9.712776184082031,13.114761352539062 L 9.693809509277344,12.614761352539062 L 9.679862976074219,12.114761352539062 L 9.669273376464844,11.614761352539062 L 9.658683776855469,11.114761352539062 L 9.646415710449219,10.614761352539062 L 9.635826110839844,10.114761352539062 L 9.623558044433594,9.614761352539062 L 9.634193420410156,9.114761352539062 L 9.706871032714844,8.614761352539062 L 9.893577575683594,8.114761352539062 L 10.127235412597656,7.6255950927734375 L 10.454811096191406,7.21148681640625 L 10.784065246582031,6.798980712890625 L 11.113319396972656,6.386474609375 L 11.442573547363281,5.973968505859375 L 11.773506164550781,5.56146240234375 L 12.104438781738281,5.148956298828125 L 12.572868347167969,5.020751953125 L 13.042976379394531,4.9276885986328125 L 13.518135070800781,4.8426055908203125 L 13.986564636230469,5.0235137939453125 L 14.270545959472656,5.4663543701171875 L 14.167732238769531,5.958709716796875 L 13.769767761230469,6.2945404052734375 L 13.346656799316406,6.606414794921875" fill="none" stroke="#000000" stroke-width="1"/>
</svg>
