<?xml version="1.0" ?>
<svg baseProfile="full" height="195mm" version="1.1" viewBox="0 0 27.5 19.5" width="275mm" xmlns="http://www.w3.org/2000/svg" xmlns:ev="http://www.w3.org/2001/xml-events" xmlns:xlink="http://www.w3.org/1999/xlink">
	<defs/>
	<path d="M 15.183998107910156,9.309402465820312 L 15.183998107910156,9.309402465820312 L 15.146568298339844,8.893707275390625 L 15.440605163574219,8.993148803710938 L 15.669242858886719,9.448776245117188 L 15.334999084472656,9.886825561523438 L 14.950447082519531,10.275360107421875 L 14.669868469238281,10.724578857421875 L 14.997444152832031,11.154647827148438 L 15.492713928222656,11.255691528320312 L 15.987983703613281,11.466949462890625 L 15.843238830566406,11.966934204101562 L 15.669990539550781,12.4669189453125 L 15.555427551269531,11.9669189453125 L 15.444221496582031,11.509689331054688 M 15.302299499511719,12.193771362304688 L 15.302299499511719,12.193771362304688 L 15.239723205566406,12.6717529296875 L 15.627662658691406,12.948486328125 L 16.121253967285156,13.052734375 L 16.567893981933594,12.777587890625 L 16.674110412597656,12.277587890625 L 16.534400939941406,11.777587890625 M 16.64342498779297,10.953750610351562 L 16.64342498779297,10.953750610351562 L 16.83013153076172,10.514083862304688 L 16.601524353027344,10.0233154296875 L 16.240455627441406,9.641159057617188 M 14.790580749511719,8.842025756835938 L 14.790580749511719,8.842025756835938 L 14.826362609863281,8.342025756835938 L 15.283058166503906,8.111602783203125 L 15.758216857910156,7.9418792724609375 L 16.09082794189453,8.38153076171875 L 16.058448791503906,8.881515502929688 L 15.740974426269531,9.317962646484375" fill="none" stroke="#000000" stroke-width="1"/>
	<path d="M 17.825889587402344,6.83306884765625 L 17.825889587402344,6.83306884765625 L 17.531898498535156,6.867034912109375 L 17.33013153076172,7.362579345703125 L 17.391075134277344,7.8625640869140625 L 17.64989471435547,8.346923828125 L 18.017723083496094,8.737060546875 L 18.017723083496094,8.552947998046875 L 18.05852508544922,8.052947998046875 L 18.08759307861328,7.552947998046875 L 17.956260681152344,7.052947998046875 L 17.79474639892578,6.552947998046875 M 17.765235900878906,7.28216552734375 L 17.765235900878906,7.28216552734375 L 17.529930114746094,7.528564453125 L 17.75017547607422,8.02410888671875 L 18.14818572998047,8.121963500976562 M 18.000831604003906,11.204193115234375 L 18.000831604003906,11.204193115234375 L 18.293190002441406,11.43780517578125 L 18.609031677246094,11.88702392578125 L 18.84101104736328,12.369796752929688 L 18.87511444091797,12.869781494140625 L 18.66832733154297,13.3685302734375 L 18.43134307861328,13.8544921875 L 18.11554718017578,14.3021240234375 M 18.318519592285156,13.580474853515625 L 18.318519592285156,13.580474853515625 L 18.029563903808594,13.359619140625 L 17.594703674316406,13.049331665039062 L 17.52710723876953,12.549331665039062 L 17.66016387939453,12.049331665039062 L 17.97431182861328,11.632034301757812 L 18.271705627441406,11.209945678710938 M 18.675926208496094,12.982589721679688 L 18.675926208496094,12.982589721679688 L 18.897850036621094,12.570083618164062 L 18.44287872314453,12.280563354492188 L 17.944297790527344,12.523757934570312 L 18.201438903808594,13.00811767578125 L 18.684974670410156,12.918228149414062" fill="none" stroke="#000000" stroke-width="1"/>
	<path d="M 13.272346496582031,8.068145751953125 L 13.272346496582031,8.068145751953125 L 12.772361755371094,8.114883422851562 L 12.272377014160156,8.220718383789062 L 11.871055603027344,8.596481323242188 L 11.670967102050781,9.087249755859375 L 11.548027038574219,9.587234497070312 L 11.520668029785156,10.08721923828125 L 11.574897766113281,10.587203979492188 L 11.808555603027344,11.081146240234375 L 12.149543762207031,11.479263305664062 M 12.058494567871094,11.891738891601562 L 12.058494567871094,11.891738891601562 L 12.141242980957031,11.391738891601562 L 12.229011535644531,10.891738891601562 L 12.331871032714844,10.391738891601562 L 12.540382385253906,9.891738891601562 L 12.817649841308594,9.41534423828125 L 13.155281066894531,8.998046875 L 13.487892150878906,8.579147338867188 L 13.825523376464844,8.160247802734375 L 14.169868469238281,7.9074554443359375 M 12.563591003417969,8.368240356445312 L 12.563591003417969,8.368240356445312 L 12.567527770996094,8.734420776367188 L 12.245018005371094,9.177261352539062 L 11.818534851074219,9.506698608398438 L 11.365226745605469,9.756271362304688" fill="none" stroke="#000000" stroke-width="1"/>
</svg>
