<?xml version="1.0" ?>
<svg baseProfile="full" height="195mm" version="1.1" viewBox="0 0 27.5 19.5" width="275mm" xmlns="http://www.w3.org/2000/svg" xmlns:ev="http://www.w3.org/2001/xml-events" xmlns:xlink="http://www.w3.org/1999/xlink">
	<defs/>
	<path d="M 16.572731018066406,11.779327392578125 L 16.572731018066406,11.779327392578125 L 16.13451385498047,12.064041137695312 L 15.659400939941406,12.296051025390625 L 15.160820007324219,12.119918823242188 L 14.759498596191406,11.81121826171875 L 14.482276916503906,11.392318725585938 L 14.320762634277344,10.909530639648438 L 14.279991149902344,10.41876220703125 L 14.470054626464844,9.929595947265625 L 14.928428649902344,9.713546752929688 L 15.428428649902344,9.739532470703125 L 15.900230407714844,10.013076782226562 L 16.291526794433594,10.401611328125 L 16.758277893066406,10.635223388671875 L 17.220008850097656,10.92791748046875" fill="none" stroke="#000000" stroke-width="1"/>
	<path d="M 20.46704864501953,9.761459350585938 L 20.46704864501953,9.761459350585938 L 20.803001403808594,9.361724853515625 L 21.23790740966797,9.067413330078125 L 21.505104064941406,8.595809936523438 L 21.602943420410156,8.100250244140625 L 21.63872528076172,7.60308837890625 L 21.647682189941406,7.1075286865234375 L 21.53144073486328,6.611968994140625 L 21.22234344482422,6.1978607177734375 L 20.78076934814453,5.9195098876953125 L 20.280784606933594,5.8216400146484375 L 19.780799865722656,5.9705963134765625 L 19.34258270263672,6.2473297119140625 L 18.954673767089844,6.5767669677734375 L 18.568443298339844,6.9094085693359375 L 18.195640563964844,7.286773681640625 L 17.91674041748047,7.734405517578125 L 17.720008850097656,8.217178344726562 L 17.79436492919922,8.7171630859375 L 17.87879180908203,9.215911865234375 L 17.981651306152344,9.71466064453125 L 18.347801208496094,10.1143798828125 L 18.817909240722656,10.298477172851562 L 19.293067932128906,10.16229248046875 L 19.754798889160156,9.965408325195312 L 20.254798889160156,9.989791870117188 L 20.754798889160156,10.014175415039062 L 21.070640563964844,9.633621215820312 L 21.170143127441406,9.146041870117188 L 21.26630401611328,8.658462524414062 M 18.66893768310547,7.96588134765625 L 18.66893768310547,7.96588134765625 L 18.549339294433594,8.465866088867188 L 19.01776885986328,8.701080322265625 L 19.48619842529297,8.936294555664062 L 19.827186584472656,8.57330322265625 L 19.93340301513672,8.085723876953125 L 19.701454162597656,7.593353271484375 L 19.300132751464844,7.2399444580078125 L 18.800148010253906,7.262725830078125 L 18.49272918701172,7.708770751953125 L 18.94774627685547,7.958343505859375 M 19.154945373535156,13.23248291015625 L 19.154945373535156,13.23248291015625 L 19.19072723388672,13.732467651367188 L 19.69072723388672,13.607467651367188 L 20.19072723388672,13.480865478515625 L 20.48644256591797,13.063568115234375 L 20.264564514160156,12.590362548828125 L 19.76457977294922,12.404647827148438 L 19.26459503173828,12.531234741210938 L 18.764610290527344,12.657821655273438 L 18.835609436035156,13.157806396484375 L 19.154808044433594,13.602249145507812 L 19.624916076660156,13.422943115234375 L 20.12018585205078,13.337860107421875 L 20.459495544433594,12.938125610351562 L 20.28624725341797,12.448959350585938 L 19.78626251220703,12.521255493164062 L 19.373207092285156,12.897018432617188 L 19.057411193847656,13.344650268554688 L 19.39336395263672,12.951309204101562 L 19.71424102783203,12.5595703125 L 19.56615447998047,13.059555053710938 L 19.32581329345703,13.526351928710938 M 21.59398651123047,13.36663818359375 L 21.59398651123047,13.36663818359375 L 21.59398651123047,12.86663818359375 L 21.538124084472656,12.36663818359375 L 21.36151885986328,11.86663818359375 M 22.42601776123047,6.9317474365234375 L 22.42601776123047,6.9317474365234375 L 22.80390167236328,7.024810791015625 L 22.72119903564453,7.462860107421875 L 22.261192321777344,7.7411956787109375 L 22.55522918701172,8.188827514648438 L 22.736915588378906,8.671600341796875 L 22.248390197753906,8.852508544921875 L 21.84203338623047,9.228271484375 L 22.164588928222656,9.651947021484375 L 22.646446228027344,9.743408203125" fill="none" stroke="#000000" stroke-width="1"/>
	<path d="M 12.350761413574219,9.33282470703125 L 12.350761413574219,9.33282470703125 L 12.537467956542969,9.199813842773438 L 12.699028015136719,9.2130126953125 L 12.939414978027344,9.258163452148438 L 12.901985168457031,9.408721923828125 L 12.819282531738281,9.656707763671875 L 12.748329162597656,9.978164672851562 L 12.805915832519531,10.41302490234375 L 12.861824035644531,10.913009643554688 L 12.914375305175781,11.412994384765625 L 12.965263366699219,11.912979125976562 L 13.014472961425781,12.4129638671875 L 13.070381164550781,12.912948608398438 L 13.127967834472656,13.412933349609375 L 12.954719543457031,13.451675415039062 L 12.659049987792969,13.509597778320312 M 12.565269470214844,12.641387939453125 L 12.565269470214844,12.641387939453125 L 12.412132263183594,12.289566040039062 L 12.186897277832031,11.808380126953125 L 12.257896423339844,11.308380126953125 L 12.345664978027344,10.808380126953125 L 12.343452453613281,10.308380126953125 M 12.913856506347656,8.83221435546875 L 12.913856506347656,8.83221435546875 L 13.174354553222656,8.82379150390625 L 13.458335876464844,8.945602416992188 M 12.886161804199219,13.851531982421875 L 12.886161804199219,13.851531982421875 L 13.153358459472656,13.864730834960938 L 13.506080627441406,13.653457641601562 L 13.779991149902344,13.239349365234375" fill="none" stroke="#000000" stroke-width="1"/>
</svg>
