<?xml version="1.0" ?>
<svg baseProfile="full" height="195mm" version="1.1" viewBox="0 0 27.5 19.5" width="275mm" xmlns="http://www.w3.org/2000/svg" xmlns:ev="http://www.w3.org/2001/xml-events" xmlns:xlink="http://www.w3.org/1999/xlink">
	<defs/>
	<path d="M 15.218048095703125,8.22247314453125 L 15.218048095703125,8.22247314453125 L 15.357803344726562,7.72247314453125 L 15.288528442382812,8.222457885742188 M 15.86669921875,9.204391479492188 L 15.86669921875,9.204391479492188 L 16.189254760742188,9.647232055664062 L 16.488327026367188,10.093276977539062 L 16.424087524414062,10.59326171875 L 16.172012329101562,11.044082641601562 L 15.824356079101562,11.445404052734375 L 15.345901489257812,11.637496948242188 L 14.845916748046875,11.653884887695312 M 14.982391357421875,10.77410888671875 L 14.982391357421875,10.77410888671875 L 15.363632202148438,11.138687133789062 L 15.562088012695312,10.683059692382812 L 15.688430786132812,10.203475952148438 L 15.617477416992188,9.714309692382812 L 15.11749267578125,9.74029541015625 L 14.949264526367188,10.240280151367188 L 15.06890869140625,10.740264892578125 L 15.56890869140625,10.8045654296875 L 15.727096557617188,10.328170776367188 L 15.39788818359375,9.952392578125 L 14.937881469726562,10.264266967773438 L 15.396255493164062,10.259048461914062 L 15.345413208007812,9.760284423828125 L 15.04974365234375,10.206329345703125 L 14.853012084960938,10.698684692382812 L 15.316421508789062,10.484237670898438 L 15.314208984375,10.226669311523438 L 15.343276977539062,10.726654052734375 M 15.036270141601562,9.126083374023438 L 15.036270141601562,9.126083374023438 L 15.077072143554688,9.626068115234375 L 15.344268798828125,10.091278076171875 M 16.559600830078125,7.4408111572265625 L 16.559600830078125,7.4408111572265625 L 16.654083251953125,6.9408111572265625 L 16.628402709960938,6.4408111572265625 L 16.383041381835938,5.98199462890625 L 15.928070068359375,5.7132415771484375 L 15.457992553710938,5.4652557373046875 M 15.356887817382812,6.0774078369140625 L 15.356887817382812,6.0774078369140625 L 15.815261840820312,6.3238067626953125 L 16.22332763671875,6.678802490234375 L 16.04840087890625,7.1727447509765625 L 15.548416137695312,7.0812835693359375 L 15.474090576171875,6.5812835693359375 L 15.7144775390625,6.103302001953125 L 15.867645263671875,6.6032867431640625 L 15.644088745117188,7.0988311767578125 L 16.082351684570312,6.846038818359375 L 15.81854248046875,6.5948486328125" fill="none" stroke="#000000" stroke-width="1"/>
	<path d="M 18.877975463867188,5.6528778076171875 L 18.877975463867188,5.6528778076171875 L 19.22064208984375,5.56298828125 L 19.71087646484375,5.4667205810546875 L 20.21087646484375,5.5038909912109375 L 20.71087646484375,5.6911773681640625 L 21.21087646484375,5.8784637451171875 L 21.71087646484375,5.9890899658203125 L 22.21087646484375,6.1156768798828125 L 22.70111083984375,6.34130859375 L 23.19134521484375,6.5669403076171875 L 23.64971923828125,6.84527587890625 L 23.920272827148438,7.29290771484375 L 23.889572143554688,7.7884521484375 L 23.811904907226562,8.282394409179688 L 23.635299682617188,8.774749755859375 L 23.40167236328125,9.246337890625 L 22.965133666992188,9.563003540039062 L 22.483322143554688,9.795013427734375 L 21.98333740234375,9.894454956054688 L 21.483352661132812,9.995498657226562 L 20.983367919921875,10.029464721679688 L 20.483383178710938,10.065032958984375 L 19.9833984375,10.053421020507812 L 19.483413696289062,10.046600341796875 L 18.983428955078125,10.034988403320312 M 22.21514892578125,9.80572509765625 L 22.21514892578125,9.80572509765625 L 22.547760009765625,9.985031127929688 L 22.980987548828125,10.260162353515625 L 23.2750244140625,10.704605102539062 L 23.56402587890625,11.1490478515625 L 23.710479736328125,11.633407592773438 L 23.76806640625,12.125762939453125 L 23.588104248046875,12.608535766601562 L 23.292434692382812,13.046585083007812 L 22.991744995117188,13.487823486328125 L 22.598800659179688,13.82684326171875 L 22.132080078125,14.068435668945312 L 21.636856079101562,14.2381591796875 L 21.136871337890625,14.313644409179688 L 20.636886596679688,14.334823608398438 L 20.13690185546875,14.2337646484375 L 19.636917114257812,14.051254272460938 L 19.1400146484375,13.841583251953125 L 18.644790649414062,13.619140625 L 18.14788818359375,13.409469604492188 L 17.650985717773438,13.199798583984375 L 17.154083251953125,12.990127563476562 M 19.262374877929688,12.302871704101562 L 19.262374877929688,12.302871704101562 L 19.663742065429688,12.533279418945312 L 20.163742065429688,12.59918212890625 L 20.637222290039062,12.403900146484375 L 20.983245849609375,12.042495727539062 L 20.53497314453125,11.778518676757812 L 20.034988403320312,11.776473999023438 L 19.535003662109375,11.7896728515625 L 19.035018920898438,11.804473876953125 L 19.485015869140625,12.0572509765625 L 19.985015869140625,12.055206298828125 L 20.09625244140625,11.818389892578125 L 19.70330810546875,11.941802978515625 L 19.699432373046875,12.387847900390625 L 20.142715454101562,12.658187866210938 L 20.258987426757812,12.172210693359375 L 20.006912231445312,11.735748291015625 L 19.6827392578125,12.176986694335938 L 20.1796875,12.273239135742188 L 20.50390625,11.892684936523438 L 20.584976196289062,11.392684936523438 L 20.213836669921875,11.781219482421875 L 20.109344482421875,12.275161743164062 L 19.761688232421875,12.67327880859375 L 19.271499633789062,12.801467895507812 L 19.303924560546875,12.301467895507812 L 19.512435913085938,11.801467895507812 M 19.170608520507812,8.375961303710938 L 19.170608520507812,8.375961303710938 L 19.664199829101562,8.443466186523438 L 20.164199829101562,8.4366455078125 L 20.637680053710938,8.252532958984375 L 20.988723754882812,7.892730712890625 L 20.877517700195312,7.3971710205078125 L 20.377532958984375,7.4918212890625 L 19.877548217773438,7.7094573974609375 L 19.38232421875,7.9191131591796875 L 18.882339477539062,7.7877044677734375 L 18.965087890625,7.6371307373046875 L 19.238998413085938,7.2805328369140625 L 19.738998413085938,7.236968994140625 L 20.1336669921875,7.609527587890625 L 20.59539794921875,7.8351593017578125 L 20.72845458984375,7.74847412109375 L 20.7877197265625,7.593109130859375 L 20.868789672851562,7.099151611328125 L 20.566421508789062,7.3311614990234375 L 20.253982543945312,7.7787933349609375 L 19.807388305664062,8.034774780273438 L 19.37420654296875,7.72607421875 L 19.393218994140625,7.4573211669921875 L 19.342376708984375,7.6765594482421875 L 19.219436645507812,8.159332275390625 L 19.404464721679688,8.101409912109375 L 19.877944946289062,7.9572296142578125 L 19.938888549804688,7.8066558837890625 L 20.056838989257812,7.906097412109375 L 20.389450073242188,8.0550537109375 L 19.996505737304688,7.698455810546875 M 22.339324951171875,6.415374755859375 L 22.339324951171875,6.415374755859375 L 22.401947021484375,6.9153594970703125 L 22.466232299804688,7.41534423828125 L 22.532196044921875,7.9153289794921875 L 22.571334838867188,8.415313720703125 L 22.633956909179688,8.915298461914062 L 22.696578979492188,9.415283203125 L 22.757522583007812,9.915267944335938 M 22.86883544921875,10.751495361328125 L 22.86883544921875,10.751495361328125 L 22.692230224609375,11.248641967773438 L 22.466995239257812,11.717041015625 L 22.131088256835938,12.118362426757812 L 21.825363159179688,12.518081665039062 L 21.58502197265625,12.965713500976562 L 21.403396606445312,13.426116943359375 L 21.221771240234375,13.891326904296875 L 21.026718139648438,14.35333251953125 M 21.5177001953125,13.279006958007812 L 21.5177001953125,13.279006958007812 L 21.934158325195312,13.571701049804688 L 22.152725219726562,14.02252197265625 L 22.36962890625,14.473342895507812 L 22.690505981445312,14.874664306640625 M 22.645797729492188,12.382476806640625 L 22.645797729492188,12.382476806640625 L 23.117599487304688,12.553787231445312 L 23.589401245117188,12.745880126953125 L 24.061203002929688,12.966720581054688 M 22.792526245117188,10.962326049804688 L 22.792526245117188,10.962326049804688 L 23.291152954101562,10.993087768554688 L 23.791152954101562,11.023849487304688 L 24.291152954101562,11.01702880859375 M 22.80841064453125,8.369796752929688 L 22.80841064453125,8.369796752929688 L 23.236602783203125,8.643341064453125 L 23.669830322265625,8.920074462890625 L 24.123184204101562,9.166473388671875 L 24.588272094726562,9.379318237304688 M 22.695220947265625,7.4975433349609375 L 22.695220947265625,7.4975433349609375 L 23.19049072265625,7.52032470703125 L 23.69049072265625,7.54150390625 L 24.19049072265625,7.56109619140625 L 24.69049072265625,7.51275634765625 M 22.433883666992188,6.43505859375 L 22.433883666992188,6.43505859375 L 22.71282958984375,6.2493438720703125 L 23.090713500976562,5.8895416259765625 L 23.565872192382812,5.762939453125 L 24.037673950195312,5.5932159423828125" fill="none" stroke="#000000" stroke-width="1"/>
	<path d="M 13.567367553710938,8.9051513671875 L 13.567367553710938,8.9051513671875 L 13.715499877929688,8.929534912109375 L 13.917312622070312,8.961898803710938 L 14.11407470703125,8.997467041015625 L 14.074966430664062,9.14642333984375 L 13.997299194335938,9.392822265625 L 13.912918090820312,9.664764404296875 L 13.828536987304688,9.93670654296875 L 13.744155883789062,10.208648681640625 L 13.65643310546875,10.514129638671875 L 13.567031860351562,10.904266357421875 L 13.502792358398438,11.297592163085938 L 13.443572998046875,11.69091796875 L 13.459243774414062,12.084243774414062 L 13.508453369140625,12.506332397460938 L 13.6046142578125,12.931594848632812 L 13.747726440429688,13.360061645507812 L 13.900894165039062,13.785324096679688 L 14.052383422851562,14.210586547851562 L 14.141830444335938,14.658218383789062 L 14.000442504882812,14.783233642578125 L 13.620925903320312,15.042388916015625 M 13.256591796875,13.793609619140625 L 13.256591796875,13.793609619140625 L 13.202407836914062,13.611099243164062 L 13.022445678710938,13.383865356445312 L 12.825714111328125,13.150238037109375 L 12.639053344726562,12.772857666015625 L 12.552993774414062,12.357162475585938 L 12.49041748046875,11.901535034179688 L 12.583221435546875,11.401535034179688 L 12.778305053710938,10.901535034179688 M 14.175308227539062,11.468597412109375 L 14.175308227539062,11.468597412109375 L 14.075851440429688,11.668670654296875 L 14.006576538085938,11.927825927734375 L 13.972503662109375,12.239700317382812 L 14.122314453125,12.554763793945312 L 14.345916748046875,12.82989501953125" fill="none" stroke="#000000" stroke-width="1"/>
</svg>
