<?xml version="1.0" ?>
<svg baseProfile="full" height="195mm" version="1.1" viewBox="0 0 27.5 19.5" width="275mm" xmlns="http://www.w3.org/2000/svg" xmlns:ev="http://www.w3.org/2001/xml-events" xmlns:xlink="http://www.w3.org/1999/xlink">
	<defs/>
	<path d="M 16.980026245117188,9.31005859375 L 16.980026245117188,9.31005859375 L 16.637405395507812,9.36798095703125 L 16.20086669921875,9.18707275390625 L 15.700881958007812,8.986984252929688 L 15.353225708007812,8.574478149414062 L 15.005569458007812,8.36163330078125 L 14.761886596679688,8.844406127929688 L 15.1783447265625,9.175445556640625 M 15.025787353515625,9.089187622070312 L 15.025787353515625,9.089187622070312 L 14.617767333984375,9.434600830078125 L 14.519973754882812,9.934585571289062 L 14.939773559570312,10.303970336914062 L 15.399826049804688,10.535980224609375 M 15.194168090820312,10.697265625 L 15.194168090820312,10.697265625 L 15.022598266601562,11.194412231445312 L 15.482650756835938,11.428024291992188 L 15.691162109375,10.948440551757812 L 15.74371337890625,10.448440551757812 M 15.777435302734375,9.33380126953125 L 15.777435302734375,9.33380126953125 L 15.96917724609375,9.517898559570312 L 16.001602172851562,10.01788330078125 L 15.648910522460938,10.452743530273438" fill="none" stroke="#000000" stroke-width="1"/>
	<path d="M 19.063858032226562,13.267425537109375 L 19.063858032226562,13.267425537109375 L 18.90234375,13.314163208007812 L 18.725738525390625,13.36090087890625 L 18.54913330078125,13.407638549804688 L 18.372528076171875,13.454376220703125 L 18.1959228515625,13.501113891601562 L 18.02099609375,13.565414428710938 L 17.901397705078125,13.66485595703125 L 17.8170166015625,13.793045043945312 L 17.7376708984375,13.922836303710938 L 17.678451538085938,14.063812255859375 L 17.625946044921875,14.215957641601562 L 17.573440551757812,14.36810302734375 L 17.54608154296875,14.517059326171875 L 17.543869018554688,14.667617797851562 L 17.562881469726562,14.81976318359375 L 17.598663330078125,14.968719482421875 L 17.667984008789062,15.11767578125 L 17.745681762695312,15.265045166015625 L 17.823379516601562,15.406021118164062 L 17.929595947265625,15.516647338867188 L 18.037490844726562,15.622482299804688 L 18.1453857421875,15.728317260742188 L 18.286819458007812,15.784637451171875 L 18.428253173828125,15.840957641601562 L 18.568008422851562,15.970748901367188 L 18.758071899414062,16.047836303710938 L 18.951492309570312,16.115341186523438 L 19.14825439453125,16.142913818359375 L 19.346710205078125,16.162506103515625 L 19.545166015625,16.162506103515625 L 19.746978759765625,16.06463623046875 L 19.9454345703125,15.971572875976562 L 20.143890380859375,15.883285522460938 L 20.34234619140625,15.794998168945312 L 20.540802001953125,15.706710815429688 L 20.7392578125,15.618423461914062 L 20.937713623046875,15.530136108398438 L 21.13616943359375,15.441848754882812 L 21.334625244140625,15.31524658203125 L 21.517974853515625,15.132736206054688 L 21.662765502929688,14.934249877929688 L 21.73712158203125,14.710220336914062 L 21.766189575195312,14.476593017578125 L 21.686843872070312,14.242965698242188 L 21.53875732421875,14.00775146484375 L 21.3470458984375,13.820449829101562 L 21.153656005859375,13.690643310546875 L 20.958602905273438,13.580001831054688 L 20.7384033203125,13.4901123046875 L 20.518203735351562,13.400222778320312 L 20.29632568359375,13.339096069335938 L 20.074447631835938,13.290756225585938 L 19.877716064453125,13.366241455078125 L 19.680984497070312,13.441726684570312 L 19.485931396484375,13.5172119140625 L 19.262374877929688,13.511993408203125 L 19.033767700195312,13.455657958984375 L 18.803497314453125,13.389739990234375 L 18.576583862304688,13.33819580078125 M 18.994308471679688,14.925933837890625 L 18.994308471679688,14.925933837890625 L 18.9937744140625,15.161148071289062 L 19.143585205078125,15.151123046875 L 19.291717529296875,15.118743896484375 L 19.453277587890625,15.065597534179688 L 19.631607055664062,15.006072998046875 L 19.783096313476562,14.911407470703125 L 19.874221801757812,14.733688354492188 L 19.874786376953125,14.464935302734375 L 19.743453979492188,14.18499755859375 L 19.474609375,14.120681762695312 L 19.195709228515625,14.172210693359375 L 18.943634033203125,14.270065307617188 L 18.738510131835938,14.529220581054688 L 18.652450561523438,14.78997802734375 L 18.65301513671875,15.090667724609375 L 18.827987670898438,15.077468872070312 L 19.011337280273438,14.946060180664062 L 19.194686889648438,14.814651489257812 L 19.378036499023438,14.681640625 L 19.561386108398438,14.548629760742188 L 19.5457763671875,14.27667236328125 L 19.305435180664062,14.05902099609375 L 19.093612670898438,14.332565307617188 L 19.09307861328125,14.784988403320312 L 19.177505493164062,15.213455200195312 L 19.495025634765625,15.2314453125 L 19.71527099609375,14.9371337890625 L 19.657730102539062,14.594894409179688 L 19.4190673828125,14.390029907226562 L 19.17706298828125,14.516616821289062 L 19.079269409179688,14.822097778320312 M 19.190322875976562,9.347305297851562 L 19.190322875976562,9.347305297851562 L 18.884597778320312,9.311737060546875 L 18.506759643554688,9.258590698242188 L 18.219467163085938,9.044143676757812 L 17.932174682617188,8.829696655273438 L 17.663330078125,8.529006958007812 L 17.480026245117188,8.172409057617188 L 17.488983154296875,7.7918548583984375 L 17.566680908203125,7.4113006591796875 L 17.785247802734375,7.0403289794921875 L 18.049102783203125,6.7268524169921875 L 18.344818115234375,6.498016357421875 L 18.655624389648438,6.29315185546875 L 18.993255615234375,6.180908203125 L 19.330886840820312,6.20208740234375 L 19.66851806640625,6.2280731201171875 L 20.007827758789062,6.2508544921875 L 20.345458984375,6.318359375 L 20.683090209960938,6.4769134521484375 L 21.020721435546875,6.6402435302734375 L 21.351654052734375,6.8227386474609375 L 21.66412353515625,7.030792236328125 L 21.90283203125,7.3250885009765625 L 22.047622680664062,7.651336669921875 L 22.135391235351562,8.019119262695312 L 22.099639892578125,8.38690185546875 L 22.045455932617188,8.753082275390625 L 21.84033203125,9.103286743164062 L 21.497711181640625,9.429534912109375 L 21.089691162109375,9.6727294921875 L 20.631362915039062,9.821685791015625 L 20.157928466796875,9.81646728515625 L 19.684494018554688,9.756942749023438 L 19.2110595703125,9.697418212890625 L 18.735946655273438,9.497329711914062 L 18.311141967773438,9.222183227539062 L 18.07080078125,8.739395141601562 M 19.372817993164062,8.070480346679688 L 19.372817993164062,8.070480346679688 L 19.139190673828125,8.07568359375 L 18.905563354492188,8.092071533203125 L 18.670257568359375,8.0006103515625 L 18.49700927734375,7.62005615234375 L 18.519378662109375,7.2059478759765625 L 18.85198974609375,6.8317718505859375 L 19.233230590820312,6.79620361328125 L 19.564163208007812,7.0218353271484375 L 19.854843139648438,7.2841949462890625 L 20.103607177734375,7.5784912109375 L 20.226593017578125,7.93988037109375 L 19.987930297851562,8.314041137695312 L 19.487945556640625,8.418289184570312 L 18.987960815429688,8.296463012695312 L 18.51788330078125,8.029296875 L 18.558685302734375,7.529296875 L 18.903030395507812,7.116790771484375 L 19.396621704101562,7.3488006591796875 L 19.729232788085938,7.793243408203125 L 19.2591552734375,8.038040161132812 L 18.759170532226562,7.85552978515625 L 19.016311645507812,7.3647613525390625 L 19.456253051757812,7.6846160888671875 L 19.485321044921875,8.184600830078125 L 19.05548095703125,7.87750244140625 L 18.862091064453125,7.4122772216796875 L 19.362091064453125,7.5452728271484375 L 19.145233154296875,8.04241943359375" fill="none" stroke="#000000" stroke-width="1"/>
	<path d="M 13.959548950195312,6.7613525390625 L 13.959548950195312,6.7613525390625 L 13.459564208984375,6.7146148681640625 L 12.959579467773438,6.667877197265625 L 12.4595947265625,6.6211395263671875 L 11.959609985351562,6.6031341552734375 L 11.459625244140625,6.5547943115234375 L 10.959640502929688,6.508056640625 L 10.45965576171875,6.4613189697265625 L 10.425582885742188,6.7093048095703125 L 10.413314819335938,7.20928955078125 L 10.401046752929688,7.7092742919921875 L 10.387100219726562,8.209259033203125 L 10.373153686523438,8.709243774414062 L 10.359207153320312,9.209228515625 L 10.345260620117188,9.709213256835938 L 10.332992553710938,10.209197998046875 L 10.320724487304688,10.709182739257812 L 10.308456420898438,11.20916748046875 L 10.296188354492188,11.709152221679688 L 10.283920288085938,12.209136962890625 L 10.271652221679688,12.709121704101562 L 10.259384155273438,13.2091064453125 L 10.247116088867188,13.709091186523438 L 10.234848022460938,14.209075927734375 L 10.222579956054688,14.709060668945312 L 10.210311889648438,15.20904541015625 L 10.685470581054688,15.162307739257812 L 11.160629272460938,15.115570068359375 L 11.635787963867188,15.067230224609375 L 12.112625122070312,15.020492553710938 L 12.589462280273438,14.9737548828125 L 13.066299438476562,14.927017211914062 L 13.543136596679688,14.880279541015625 L 14.019973754882812,14.831939697265625 L 13.997650146484375,14.649429321289062 L 13.973648071289062,14.149429321289062 L 13.951324462890625,13.649429321289062 L 13.929000854492188,13.149429321289062 L 13.904998779296875,12.649429321289062 L 13.880996704101562,12.149429321289062 L 13.85699462890625,11.649429321289062 L 13.832992553710938,11.149429321289062 L 13.8106689453125,10.649429321289062 L 13.788345336914062,10.149429321289062 L 13.76434326171875,9.649429321289062 L 13.786712646484375,9.149429321289062 L 13.81243896484375,8.649429321289062 L 13.83648681640625,8.149429321289062 L 13.86053466796875,7.6494293212890625 L 13.931533813476562,7.1494293212890625 L 14.007553100585938,6.6494293212890625 M 12.37347412109375,6.9318084716796875 L 12.37347412109375,6.9318084716796875 L 12.3941650390625,7.3874359130859375 L 12.41485595703125,7.887420654296875 L 12.435546875,8.387405395507812 L 12.408187866210938,8.88739013671875 L 12.377487182617188,9.387374877929688 L 12.346786499023438,9.887359619140625 L 12.316085815429688,10.387344360351562 L 12.285385131835938,10.8873291015625 L 12.254684448242188,11.387313842773438 L 12.222305297851562,11.887298583984375 L 12.196624755859375,12.387283325195312 L 12.227371215820312,12.88726806640625 L 12.263153076171875,13.387252807617188 L 12.35931396484375,13.887237548828125 L 12.393417358398438,14.387222290039062 L 12.427520751953125,14.88720703125 M 13.337631225585938,12.7418212890625 L 13.337631225585938,12.7418212890625 L 12.837646484375,12.701461791992188 L 12.337661743164062,12.661102294921875 M 13.046844482421875,10.554092407226562 L 13.046844482421875,10.554092407226562 L 12.546859741210938,10.4674072265625 M 13.23504638671875,8.368759155273438 L 13.23504638671875,8.368759155273438 L 12.735061645507812,8.307632446289062 M 11.552658081054688,7.6015472412109375 L 11.552658081054688,7.6015472412109375 L 11.05267333984375,7.5308380126953125 L 10.552688598632812,7.4601287841796875 M 10.954086303710938,9.012680053710938 L 10.954086303710938,9.012680053710938 L 11.4376220703125,9.097747802734375 L 11.924514770507812,9.16845703125 M 11.2740478515625,11.643997192382812 L 11.2740478515625,11.643997192382812 L 10.774063110351562,11.627593994140625 M 11.635574340820312,13.742462158203125 L 11.635574340820312,13.742462158203125 L 11.135589599609375,13.742889404296875 L 10.635604858398438,13.743316650390625" fill="none" stroke="#000000" stroke-width="1"/>
</svg>
