<?xml version="1.0" ?>
<svg baseProfile="full" height="195mm" version="1.1" viewBox="0 0 27.5 19.5" width="275mm" xmlns="http://www.w3.org/2000/svg" xmlns:ev="http://www.w3.org/2001/xml-events" xmlns:xlink="http://www.w3.org/1999/xlink">
	<defs/>
	<path d="M 16.43895721435547,13.58294677734375 L 16.43895721435547,13.58294677734375 L 16.124839782714844,13.556961059570312 L 15.889533996582031,13.54693603515625 L 15.825294494628906,13.735824584960938 L 15.662101745605469,14.183456420898438 L 15.492210388183594,14.28289794921875 L 15.325660705566406,14.404708862304688 L 15.159111022949219,14.526519775390625 L 14.985862731933594,14.571670532226562 L 14.755592346191406,14.357223510742188 L 14.508552551269531,13.98944091796875 L 14.336982727050781,13.551376342773438 L 14.391212463378906,13.189971923828125 L 14.661766052246094,12.874893188476562 L 14.907173156738281,12.556625366210938 L 14.738945007324219,12.255935668945312 L 14.506996154785156,11.89453125 L 14.903327941894531,11.718399047851562 L 15.403327941894531,11.741180419921875 L 15.903327941894531,11.990753173828125 L 16.175559997558594,12.417617797851562 L 16.474632263183594,12.858856201171875 L 16.974632263183594,12.818496704101562 L 17.16301727294922,12.431533813476562 M 17.09937286376953,13.83636474609375 L 17.09937286376953,13.83636474609375 L 16.632652282714844,13.82794189453125 M 16.76238250732422,13.699737548828125 L 16.76238250732422,13.699737548828125 L 17.039649963378906,13.797592163085938 M 15.405372619628906,13.50994873046875 L 15.405372619628906,13.50994873046875 L 15.113059997558594,13.407302856445312 L 14.678199768066406,13.479598999023438 L 14.822990417480469,13.979583740234375 L 15.298149108886719,14.225982666015625 L 15.754844665527344,13.91888427734375 M 15.309440612792969,13.977096557617188 L 15.309440612792969,13.977096557617188 M 14.821708679199219,12.083282470703125 L 14.821708679199219,12.083282470703125 L 14.998359680175781,12.076461791992188 L 15.268913269042969,11.97540283203125 L 15.437187194824219,11.993392944335938 L 15.581977844238281,11.9466552734375 L 15.621116638183594,12.386306762695312 L 15.565254211425781,12.88629150390625 L 15.336647033691406,12.87786865234375 L 15.034278869628906,12.415847778320312 L 15.293098449707031,11.9378662109375" fill="none" stroke="#000000" stroke-width="1"/>
	<path d="M 20.87519073486328,10.129669189453125 L 20.87519073486328,10.129669189453125 L 21.098793029785156,9.769866943359375 L 21.376060485839844,9.331802368164062 L 21.63152313232422,8.847427368164062 L 21.72600555419922,8.347427368164062 L 21.66008758544922,7.8474273681640625 L 21.54216766357422,7.3582611083984375 L 21.390708923339844,6.8738861083984375 L 21.20067596435547,6.40228271484375 L 20.99053192138672,5.9434661865234375 L 20.545616149902344,5.690673828125 L 20.045631408691406,5.5640716552734375 L 19.54564666748047,5.5093231201171875 L 19.04566192626953,5.6902313232421875 L 18.63764190673828,6.067596435546875 L 18.362083435058594,6.5279998779296875 L 18.18212127685547,7.021942138671875 L 18.062522888183594,7.5219268798828125 L 18.040199279785156,8.02191162109375 L 18.092750549316406,8.521896362304688 L 18.205665588378906,9.021881103515625 L 18.459449768066406,9.482284545898438 L 18.78870391845703,9.882003784179688 L 19.156532287597656,10.257766723632812 L 19.61994171142578,10.508941650390625 L 20.11994171142578,10.576446533203125 L 20.61994171142578,10.623184204101562 L 21.086692810058594,10.360809326171875 L 21.16606903076172,9.860809326171875 M 20.568702697753906,7.592071533203125 L 20.568702697753906,7.592071533203125 L 20.60112762451172,7.092071533203125 L 20.10114288330078,6.9095611572265625 L 19.601158142089844,7.0361480712890625 L 19.122703552246094,7.30010986328125 L 18.934364318847656,7.798858642578125 L 19.117713928222656,8.286422729492188 L 19.38658905029297,8.732467651367188 L 19.727577209472656,9.130584716796875 L 20.227577209472656,9.029525756835938 L 20.56352996826172,8.628204345703125 L 20.521080017089844,8.128204345703125 L 20.44005584716797,7.628204345703125 L 20.352333068847656,7.128204345703125 M 19.685569763183594,8.063385009765625 L 19.685569763183594,8.063385009765625 L 20.02655792236328,7.7850341796875 L 19.85498809814453,7.849334716796875 L 19.44361114501953,8.181976318359375 L 19.472679138183594,7.9994659423828125 L 19.617469787597656,7.5725860595703125 L 19.512977600097656,7.4395751953125 L 19.42859649658203,7.1564483642578125 L 19.56499481201172,7.377288818359375 L 19.76848602294922,7.8137359619140625 L 19.89147186279297,7.92596435546875 L 20.07817840576172,8.153182983398438 M 20.247276306152344,12.392166137695312 L 20.247276306152344,12.392166137695312 L 19.77216339111328,12.125 L 19.33562469482422,11.817901611328125 L 18.83563995361328,12.049911499023438 L 18.435997009277344,12.430465698242188 L 18.106788635253906,12.873306274414062 L 17.807762145996094,13.319351196289062 L 17.66301727294922,13.816497802734375 L 17.74071502685547,14.316482543945312 L 17.84693145751953,14.81646728515625 L 17.953147888183594,15.316452026367188 L 18.139854431152344,15.810394287109375 L 18.333274841308594,16.302749633789062 L 18.61054229736328,16.748794555664062 L 19.08904266357422,16.947265625 L 19.58904266357422,16.945220947265625 L 20.08904266357422,16.821792602539062 L 20.48033905029297,16.482757568359375 L 20.806236267089844,16.079833984375 L 21.101951599121094,15.660934448242188 L 21.281959533691406,15.178146362304688 L 21.24958038330078,14.688980102539062 L 21.133338928222656,14.199813842773438 L 21.00536346435547,13.713836669921875 L 20.872352600097656,13.227859497070312 L 20.739341735839844,12.74188232421875 L 20.60633087158203,12.255905151367188 M 19.624412536621094,14.590774536132812 L 19.624412536621094,14.590774536132812 L 19.72057342529297,14.090774536132812 L 19.652976989746094,13.590774536132812 L 19.209739685058594,13.312423706054688 L 18.88556671142578,13.758468627929688 L 18.94483184814453,14.258453369140625 L 19.00409698486328,14.758438110351562 L 19.080116271972656,15.2584228515625 L 19.516700744628906,15.576675415039062 L 19.638023376464844,15.082717895507812 L 19.35912322998047,14.646255493164062 M 19.17919158935547,14.200942993164062 L 19.17919158935547,14.200942993164062 L 19.44806671142578,13.74371337890625 L 19.380470275878906,14.109893798828125 L 19.55712127685547,14.609878540039062 L 19.45598602294922,14.795578002929688 L 19.06304168701172,15.164962768554688 L 19.034019470214844,15.014389038085938 L 18.989891052246094,14.514389038085938" fill="none" stroke="#000000" stroke-width="1"/>
	<path d="M 11.357231140136719,6.500732421875 L 11.357231140136719,6.500732421875 L 11.842445373535156,6.678436279296875 L 12.329338073730469,6.8960723876953125 L 12.769279479980469,7.222320556640625 L 13.106910705566406,7.660369873046875 L 13.384178161621094,8.111190795898438 L 13.641319274902344,8.574798583984375 L 13.789451599121094,9.070343017578125 L 13.836982727050781,9.567489624023438 L 13.818016052246094,10.06463623046875 L 13.775566101074219,10.561782836914062 L 13.734794616699219,11.058929443359375 L 13.685630798339844,11.556076049804688 L 13.644859313964844,12.05322265625 L 13.604087829589844,12.550369262695312 L 13.563316345214844,13.047515869140625 L 13.522544860839844,13.544662475585938 L 13.330833435058594,14.029022216796875 L 13.053611755371094,14.478240966796875 L 12.761299133300781,14.922683715820312 L 12.375068664550781,15.306427001953125 L 11.936851501464844,15.61669921875 L 11.468452453613281,15.86468505859375 L 10.971549987792969,16.067962646484375 L 10.471565246582031,16.170608520507812 L 9.971580505371094,16.111083984375 L 9.635673522949219,15.695388793945312 L 9.711692810058594,15.195388793945312 L 10.042625427246094,14.778091430664062 L 10.417152404785156,14.41668701171875 L 10.793357849121094,14.056884765625 L 11.137702941894531,13.671524047851562 L 11.250617980957031,13.182357788085938 L 11.348457336425781,12.69158935546875 L 11.444618225097656,12.200820922851562 L 11.542457580566406,11.710052490234375 L 11.603401184082031,11.216094970703125 L 11.660987854003906,10.723724365234375 L 11.720252990722656,10.229766845703125 L 11.771141052246094,9.735809326171875 L 11.748817443847656,9.243438720703125 L 11.602409362792969,8.752670288085938 L 11.294990539550781,8.362533569335938 L 10.982551574707031,7.9723968505859375 L 10.619804382324219,7.6125946044921875 L 10.243644714355469,7.2687530517578125 L 10.056983947753906,6.787567138671875 L 10.242012023925781,6.293609619140625 L 10.742012023925781,6.1254730224609375 L 11.242012023925781,6.314361572265625 L 11.593055725097656,6.7108917236328125 L 12.046409606933594,6.974853515625 M 12.519660949707031,7.5007171630859375 L 12.519660949707031,7.5007171630859375 L 12.019676208496094,7.632110595703125 L 11.519691467285156,7.70599365234375 L 11.019706726074219,7.779876708984375 M 12.908882141113281,9.482223510742188 L 12.908882141113281,9.482223510742188 L 12.408897399902344,9.663131713867188 L 11.908912658691406,9.794525146484375 M 12.967674255371094,11.605819702148438 L 12.967674255371094,11.605819702148438 L 12.571388244628906,11.555877685546875 L 12.071403503417969,11.545852661132812 L 11.571418762207031,11.545852661132812 M 12.508949279785156,13.73858642578125 L 12.508949279785156,13.73858642578125 L 12.008964538574219,13.667877197265625 L 11.508979797363281,13.59716796875 L 11.008995056152344,13.526458740234375 M 11.651329040527344,15.374923706054688 L 11.651329040527344,15.374923706054688 L 11.151344299316406,15.326583862304688 L 10.651359558105469,15.276641845703125 L 10.151374816894531,15.226699829101562 L 9.651390075683594,15.175155639648438" fill="none" stroke="#000000" stroke-width="1"/>
</svg>
