<?xml version="1.0" ?>
<svg baseProfile="full" height="195mm" version="1.1" viewBox="0 0 27.5 19.5" width="275mm" xmlns="http://www.w3.org/2000/svg" xmlns:ev="http://www.w3.org/2001/xml-events" xmlns:xlink="http://www.w3.org/1999/xlink">
	<defs/>
	<path d="M 17.082122802734375,10.668182373046875 L 17.082122802734375,10.668182373046875 L 16.90216064453125,10.753250122070312 L 16.675247192382812,10.836715698242188 L 16.503677368164062,10.9744873046875 L 16.365646362304688,11.144210815429688 L 16.194076538085938,11.3953857421875 L 15.975555419921875,11.64178466796875 L 15.7100830078125,11.76837158203125 L 15.412734985351562,11.794357299804688 L 15.08856201171875,11.7220458984375 L 14.762710571289062,11.577865600585938 L 14.500579833984375,11.31549072265625 L 14.417877197265625,10.942916870117188 L 14.591171264648438,10.639022827148438 L 14.866775512695312,10.391036987304688 L 15.264785766601562,10.253250122070312 L 15.662796020507812,10.274429321289062 M 15.279541015625,10.292388916015625 L 15.279541015625,10.292388916015625 L 15.16162109375,10.1082763671875 L 15.035324096679688,9.924163818359375 L 15.094589233398438,10.095474243164062 L 15.27459716796875,10.471237182617188 L 15.092971801757812,10.53076171875 L 14.713455200195312,10.68450927734375 L 14.906875610351562,10.602630615234375 L 15.174072265625,10.420120239257812 L 15.071258544921875,10.307876586914062 L 14.723602294921875,10.214813232421875 L 14.87005615234375,10.25836181640625 L 15.145660400390625,10.311492919921875 L 15.184799194335938,10.760711669921875 L 15.188735961914062,10.610137939453125 L 15.2396240234375,10.3094482421875 L 15.071395874023438,10.40570068359375 L 14.64996337890625,10.735137939453125" fill="none" stroke="#000000" stroke-width="1"/>
	<path d="M 21.643798828125,8.411026000976562 L 21.643798828125,8.411026000976562 L 21.83050537109375,8.2109375 L 22.16143798828125,7.8447418212890625 L 22.272674560546875,7.3603668212890625 L 22.241973876953125,6.869598388671875 L 22.050262451171875,6.405975341796875 L 21.618759155273438,6.1340179443359375 L 21.135269165039062,5.9499053955078125 L 20.635284423828125,5.8121185302734375 L 20.135299682617188,5.905181884765625 L 19.63671875,6.095672607421875 L 19.159927368164062,6.3228912353515625 L 18.865936279296875,6.764129638671875 L 18.649078369140625,7.230926513671875 L 18.4691162109375,7.7200927734375 L 18.498184204101562,8.220077514648438 L 18.64129638671875,8.720062255859375 L 18.784408569335938,9.220046997070312 L 19.145523071289062,9.619766235351562 L 19.570358276367188,9.906082153320312 L 20.063949584960938,10.090179443359375 L 20.563949584960938,10.00189208984375 L 20.988784790039062,9.699600219726562 L 21.326416015625,9.309463500976562 L 21.659027099609375,8.90972900390625 L 21.909469604492188,8.470062255859375 L 22.037490844726562,7.985687255859375 M 20.757369995117188,15.843124389648438 L 20.757369995117188,15.843124389648438 L 21.024566650390625,15.385894775390625 L 21.291763305664062,14.927078247070312 L 21.475112915039062,14.463455200195312 L 21.527664184570312,13.979080200195312 L 21.491912841796875,13.496292114257812 L 21.202957153320312,13.077392578125 L 20.746307373046875,12.845367431640625 L 20.246322631835938,12.715560913085938 L 19.746337890625,12.624099731445312 L 19.246353149414062,12.672439575195312 L 18.746368408203125,12.802230834960938 L 18.261199951171875,13.002304077148438 L 17.849822998046875,13.320556640625 L 17.644699096679688,13.793746948242188 L 17.582122802734375,14.293731689453125 L 17.6229248046875,14.793716430664062 L 17.688888549804688,15.293701171875 L 17.790069580078125,15.793685913085938 L 17.983489990234375,16.292434692382812 L 18.329513549804688,16.6905517578125 L 18.771133422851562,16.999237060546875 L 19.271133422851562,16.9189453125 L 19.771133422851562,16.76837158203125 L 20.271133422851562,16.619400024414062 L 20.633926391601562,16.243621826171875 L 20.822311401367188,15.760833740234375 L 21.003997802734375,15.279647827148438 M 19.607559204101562,8.050445556640625 L 19.607559204101562,8.050445556640625 L 19.7154541015625,8.415023803710938 L 19.841796875,8.801971435546875 L 20.13751220703125,8.970108032226562 L 20.56402587890625,9.010452270507812 L 21.032455444335938,8.823150634765625 L 21.31475830078125,8.42022705078125 L 21.3740234375,7.93743896484375 L 21.428253173828125,7.45306396484375 L 21.430511474609375,6.96868896484375 L 20.930526733398438,6.8947906494140625 L 20.4305419921875,7.059722900390625 L 19.990646362304688,7.3332672119140625 L 19.5557861328125,7.6163787841796875 L 19.442901611328125,8.116363525390625 M 20.17767333984375,14.762252807617188 L 20.17767333984375,14.762252807617188 L 20.100006103515625,14.549407958984375 L 20.015625,14.2982177734375 L 19.931243896484375,14.047027587890625 L 19.820037841796875,13.784652709960938 L 19.635055541992188,13.515899658203125 L 19.334365844726562,13.30145263671875 L 18.978317260742188,13.136505126953125 L 18.590408325195312,13.178451538085938 L 18.239395141601562,13.597335815429688 L 18.161727905273438,14.097320556640625 L 18.137725830078125,14.597305297851562 L 18.151718139648438,15.0972900390625 L 18.40216064453125,15.559295654296875 L 18.749862670898438,15.931854248046875 L 19.211593627929688,16.179840087890625 L 19.711593627929688,16.096359252929688 L 20.119659423828125,15.779678344726562 L 20.271148681640625,15.298492431640625 L 20.255538940429688,14.807723999023438 L 20.179550170898438,14.31695556640625" fill="none" stroke="#000000" stroke-width="1"/>
	<path d="M 13.400726318359375,8.839447021484375 L 13.400726318359375,8.839447021484375 L 13.506942749023438,9.01556396484375 L 13.638320922851562,9.2459716796875 L 13.749557495117188,9.533889770507812 L 13.840682983398438,9.847366333007812 L 13.840682983398438,10.232711791992188 L 13.660720825195312,10.726654052734375 L 13.699859619140625,11.226638793945312 L 13.733963012695312,11.375595092773438 L 13.813339233398438,11.618789672851562 L 13.917877197265625,12.1187744140625 L 13.682571411132812,12.609542846679688 L 13.294662475585938,13.00128173828125 L 13.126434326171875,13.501266479492188 L 13.358413696289062,13.995208740234375 L 13.566925048828125,14.489151000976562 L 13.324920654296875,14.9735107421875 L 12.98565673828125,15.384414672851562 L 12.485671997070312,15.517410278320312 L 12.0843505859375,15.16558837890625 L 11.760177612304688,14.772247314453125 L 11.689224243164062,14.281478881835938 L 11.618270874023438,13.79071044921875 L 11.567428588867188,13.29833984375 L 11.514923095703125,12.80596923828125 L 11.462417602539062,12.3135986328125 L 11.409912109375,11.82122802734375 L 11.357406616210938,11.328857421875 L 11.388153076171875,10.833297729492188 L 11.418899536132812,10.337738037109375 L 11.46307373046875,9.842178344726562 L 11.555877685546875,9.34661865234375 L 11.771102905273438,8.865432739257812 L 12.046707153320312,8.419387817382812 L 12.546707153320312,8.44537353515625 L 13.046707153320312,8.576766967773438 L 13.546707153320312,8.617111206054688" fill="none" stroke="#000000" stroke-width="1"/>
</svg>
