<?xml version="1.0" ?>
<svg baseProfile="full" height="195mm" version="1.1" viewBox="0 0 27.5 19.5" width="275mm" xmlns="http://www.w3.org/2000/svg" xmlns:ev="http://www.w3.org/2001/xml-events" xmlns:xlink="http://www.w3.org/1999/xlink">
	<defs/>
	<path d="M 16.122055053710938,9.246124267578125 L 16.122055053710938,9.246124267578125 L 15.6220703125,9.272109985351562 L 15.151992797851562,9.545654296875 L 14.858001708984375,9.994873046875 L 14.704864501953125,10.494857788085938 L 14.5634765625,10.994842529296875 L 14.4774169921875,11.494827270507812 L 14.535003662109375,11.99481201171875 L 14.8323974609375,12.44085693359375 L 15.319290161132812,12.56744384765625 L 15.816238403320312,12.646133422851562 L 16.289718627929688,12.441268920898438 L 16.696121215820312,12.1309814453125 L 16.968353271484375,11.692916870117188 L 17.0225830078125,11.192916870117188 L 16.973419189453125,10.692916870117188 L 16.917556762695312,10.192916870117188 L 16.838211059570312,9.692916870117188 L 16.405029296875,9.411376953125 M 16.083786010742188,9.143035888671875 L 16.083786010742188,9.143035888671875 L 16.235275268554688,8.909408569335938 L 16.167678833007812,8.439407348632812 L 15.866989135742188,8.023712158203125 L 15.36700439453125,8.059280395507812 L 15.027740478515625,8.500518798828125 L 15.022186279296875,9.000503540039062 L 15.14013671875,9.50048828125 M 14.9273681640625,12.618011474609375 L 14.9273681640625,12.618011474609375 L 14.821197509765625,12.982589721679688 L 14.870407104492188,13.482574462890625 L 15.298599243164062,13.784866333007812 L 15.78717041015625,13.605560302734375 L 15.92022705078125,13.105560302734375 L 15.743621826171875,12.605560302734375" fill="none" stroke="#000000" stroke-width="1"/>
	<path d="M 20.731826782226562,13.220687866210938 L 20.731826782226562,13.220687866210938 L 20.923568725585938,13.278610229492188 L 21.24444580078125,13.457916259765625 L 21.582077026367188,13.790557861328125 L 21.897918701171875,14.238189697265625 L 22.1181640625,14.730545043945312 L 22.165695190429688,15.23052978515625 L 22.052810668945312,15.730514526367188 L 21.877883911132812,16.21807861328125 L 21.493331909179688,16.561904907226562 L 21.046737670898438,16.795516967773438 L 20.5699462890625,16.947662353515625 L 20.0814208984375,17.045516967773438 L 19.581436157226562,16.99237060546875 L 19.081451416015625,16.848190307617188 L 18.634857177734375,16.597000122070312 L 18.241912841796875,16.293106079101562 L 17.895919799804688,15.934906005859375 L 17.60528564453125,15.555938720703125 L 17.5225830078125,15.077957153320312 L 17.7763671875,14.639892578125 L 18.058670043945312,14.225784301757812 L 18.312454223632812,13.792526245117188 L 18.5260009765625,13.352859497070312 L 18.912261962890625,13.0665283203125 L 19.373992919921875,13.194717407226562 L 19.83404541015625,13.321304321289062 L 20.300796508789062,13.3504638671875 L 20.767547607421875,13.310104370117188 M 20.92279052734375,10.263442993164062 L 20.92279052734375,10.263442993164062 L 21.007217407226562,9.763442993164062 L 21.299575805664062,9.322189331054688 L 21.677459716796875,9.016693115234375 L 21.880950927734375,8.559463500976562 L 21.49639892578125,8.215621948242188 L 21.039749145507812,7.9835968017578125 L 20.63507080078125,7.6653289794921875 L 20.164993286132812,7.4540557861328125 L 19.665008544921875,7.467254638671875 L 19.165023803710938,7.5363616943359375 L 18.6650390625,7.611846923828125 L 18.235198974609375,7.907745361328125 L 18.036788940429688,8.37933349609375 L 17.917190551757812,8.8748779296875 L 17.797592163085938,9.37042236328125 L 17.9742431640625,9.854782104492188 L 18.321945190429688,10.18902587890625 L 18.679718017578125,10.516860961914062 L 19.119659423828125,10.718536376953125 L 19.5931396484375,10.718963623046875 L 20.066619873046875,10.659439086914062 L 20.538421630859375,10.587127685546875 L 20.641281127929688,10.087127685546875 M 20.809555053710938,10.03558349609375 L 20.809555053710938,10.03558349609375 L 21.251174926757812,9.821136474609375 M 19.901092529296875,9.15826416015625 L 19.901092529296875,9.15826416015625 L 19.870391845703125,9.658248901367188 L 19.428817749023438,9.912628173828125 L 18.9288330078125,9.827545166015625 L 18.602981567382812,9.446990966796875 L 18.523635864257812,8.962615966796875 L 18.86126708984375,8.60760498046875 L 19.24920654296875,8.316482543945312 L 19.726043701171875,8.470230102539062 L 20.09051513671875,8.83001708984375 L 20.381195068359375,9.252105712890625 M 19.927886962890625,9.527236938476562 L 19.927886962890625,9.527236938476562 M 20.561935424804688,15.38092041015625 L 20.561935424804688,15.38092041015625 L 20.561935424804688,15.834945678710938 L 20.227691650390625,16.233062744140625 L 19.727706909179688,16.319732666015625 L 19.247573852539062,16.111663818359375 L 18.861343383789062,15.79339599609375 L 18.686416625976562,15.352142333984375 L 18.977096557617188,14.931640625 L 19.35498046875,14.659683227539062 L 19.75634765625,14.443634033203125 L 20.226455688476562,14.468017578125 L 20.520492553710938,14.872528076171875 L 20.636764526367188,15.347320556640625 L 20.696029663085938,15.847305297851562" fill="none" stroke="#000000" stroke-width="1"/>
	<path d="M 13.2764892578125,6.63397216796875 L 13.2764892578125,6.63397216796875 L 12.987533569335938,6.7925262451171875 L 12.577835083007812,7.12835693359375 L 12.273788452148438,7.57598876953125 L 12.023391723632812,8.0523681640625 L 11.774673461914062,8.52874755859375 L 11.534332275390625,9.009918212890625 L 11.309097290039062,9.494277954101562 L 11.097274780273438,9.98504638671875 L 10.91229248046875,10.482192993164062 L 10.747421264648438,10.982177734375 L 10.637893676757812,11.482162475585938 L 10.6719970703125,11.982147216796875 L 10.835235595703125,12.482131958007812 L 11.028656005859375,12.98211669921875 L 11.240524291992188,13.482101440429688 L 11.4708251953125,13.977645874023438 L 11.707855224609375,14.470001220703125 L 11.986801147460938,14.936798095703125 L 12.280838012695312,15.390823364257812 L 12.576553344726562,15.83526611328125 L 12.912506103515625,16.238174438476562 L 13.253494262695312,16.63470458984375 L 13.612945556640625,17.020050048828125 L 13.9774169921875,17.397415161132812" fill="none" stroke="#000000" stroke-width="1"/>
</svg>
