<?xml version="1.0" ?>
<svg baseProfile="full" height="195mm" version="1.1" viewBox="0 0 27.5 19.5" width="275mm" xmlns="http://www.w3.org/2000/svg" xmlns:ev="http://www.w3.org/2001/xml-events" xmlns:xlink="http://www.w3.org/1999/xlink">
	<defs/>
	<path d="M 16.572731018066406,11.779327392578125 L 16.572731018066406,11.779327392578125 L 16.13451385498047,12.064041137695312 L 15.659400939941406,12.296051025390625 L 15.160820007324219,12.119918823242188 L 14.759498596191406,11.81121826171875 L 14.482276916503906,11.392318725585938 L 14.320762634277344,10.909530639648438 L 14.279991149902344,10.41876220703125 L 14.470054626464844,9.929595947265625 L 14.928428649902344,9.713546752929688 L 15.428428649902344,9.739532470703125 L 15.900230407714844,10.013076782226562 L 16.291526794433594,10.401611328125 L 16.758277893066406,10.635223388671875 L 17.220008850097656,10.92791748046875" fill="none" stroke="#000000" stroke-width="1"/>
	<path d="M 18.419654846191406,4.168426513671875 L 18.419654846191406,4.168426513671875 L 18.72039031982422,4.235931396484375 L 18.98590850830078,4.2619171142578125 M 18.769676208496094,3.7902984619140625 L 18.769676208496094,3.7902984619140625 L 18.616539001464844,4.1804351806640625 M 18.63837432861328,4.1667938232421875 L 18.63837432861328,4.1667938232421875 L 18.200157165527344,4.0353851318359375 L 18.578041076660156,4.3184967041015625 L 18.93413543701172,3.923553466796875 L 18.43415069580078,4.050140380859375 L 18.56385040283203,4.5501251220703125 L 18.84447479248047,4.097686767578125 L 18.446510314941406,4.4846343994140625 M 18.390647888183594,4.3005218505859375 L 18.390647888183594,4.3005218505859375 L 18.244239807128906,3.804962158203125 L 17.762428283691406,4.054534912109375 M 17.786476135253906,4.5545196533203125 L 17.786476135253906,4.5545196533203125 L 18.159324645996094,4.9334869384765625 L 18.201820373535156,4.4334869384765625 L 17.720008850097656,4.6894683837890625 M 21.247413635253906,6.4447784423828125 L 21.247413635253906,6.4447784423828125 L 20.93999481201172,6.4452056884765625 L 20.55376434326172,6.7219390869140625 L 20.34362030029297,7.21429443359375 L 20.610816955566406,7.67950439453125 L 20.958518981933594,8.077621459960938 L 21.41857147216797,8.306442260742188 M 21.51807403564453,8.175033569335938 L 21.51807403564453,8.175033569335938 L 21.713157653808594,7.9861297607421875 L 21.928382873535156,7.6454925537109375 L 22.03459930419922,7.1454925537109375 L 21.931785583496094,6.6454925537109375 L 21.651206970214844,6.1898651123046875 M 20.96710968017578,6.9425506591796875 L 20.96710968017578,6.9425506591796875 L 20.765342712402344,6.8718414306640625 L 20.52165985107422,7.0591278076171875 L 20.572547912597656,7.5083465576171875 L 20.921913146972656,7.7946624755859375 L 21.380287170410156,7.775054931640625 L 21.58879852294922,7.282684326171875 L 21.264625549316406,6.8637847900390625 M 21.051597595214844,13.669708251953125 L 21.051597595214844,13.669708251953125 L 20.78778839111328,13.804290771484375 L 20.470314025878906,14.095413208007812 L 20.349037170410156,14.59539794921875 L 20.331748962402344,15.095382690429688 L 20.57213592529297,15.584548950195312 L 21.00872039794922,15.81976318359375 L 21.47380828857422,15.99267578125 M 21.637046813964844,15.947509765625 L 21.637046813964844,15.947509765625 L 21.979713439941406,15.814498901367188 L 22.34418487548828,15.432342529296875 L 22.321861267089844,14.932342529296875 L 22.14861297607422,14.432342529296875 L 21.91162872314453,13.947967529296875 L 21.56732940673828,13.564208984375 L 21.067344665527344,13.480728149414062 M 21.53417205810547,15.271697998046875 L 21.53417205810547,15.271697998046875 L 21.811439514160156,15.232940673828125 L 22.05516815185547,14.759735107421875 L 21.87688446044922,14.259735107421875 L 21.37830352783203,14.077224731445312 L 20.878318786621094,14.293258666992188 L 20.530662536621094,14.73291015625 L 20.80626678466797,15.185333251953125 L 21.244529724121094,15.455673217773438 L 21.744529724121094,15.364212036132812 M 21.43604278564453,14.958831787109375 L 21.43604278564453,14.958831787109375 L 21.064903259277344,14.835403442382812 L 21.152671813964844,14.703994750976562 L 21.51044464111328,14.563003540039062 L 21.80951690673828,14.842941284179688 L 21.309532165527344,14.864120483398438" fill="none" stroke="#000000" stroke-width="1"/>
	<path d="M 12.911628723144531,6.66644287109375 L 12.911628723144531,6.66644287109375 L 12.731666564941406,6.815399169921875 L 12.459465026855469,7.045806884765625 L 12.408622741699219,7.493438720703125 L 12.578575134277344,7.9921875 L 12.788764953613281,8.489334106445312 L 13.032493591308594,8.97210693359375 L 13.298011779785156,9.440505981445312 L 13.563529968261719,9.908905029296875 L 13.443931579589844,10.033920288085938 L 13.213661193847656,10.26593017578125 L 13.040412902832031,10.587387084960938 L 13.173469543457031,10.995086669921875 L 13.469184875488281,11.442718505859375 L 13.779991149902344,11.887161254882812 L 13.630226135253906,11.924331665039062 L 13.421760559082031,12.023773193359375 L 13.152915954589844,12.33404541015625 L 13.068534851074219,12.834030151367188 L 13.134498596191406,13.334014892578125 L 13.282630920410156,13.833999633789062 L 13.430763244628906,14.333984375 L 13.704673767089844,14.711349487304688 L 13.533103942871094,14.716552734375 L 13.289421081542969,14.716552734375 L 12.965248107910156,14.700149536132812 L 12.600822448730469,14.607086181640625 L 12.149192810058594,14.41339111328125 L 11.682472229003906,14.189361572265625 L 11.302955627441406,13.808807373046875 L 11.045860290527344,13.342010498046875 L 10.834037780761719,12.856033325195312 L 10.727867126464844,12.356033325195312 L 10.678703308105469,11.856033325195312 L 10.634574890136719,11.356033325195312 L 10.600502014160156,10.856033325195312 L 10.571479797363281,10.356033325195312 L 10.557533264160156,9.856033325195312 L 10.546943664550781,9.356033325195312 L 10.621299743652344,8.856033325195312 L 10.766090393066406,8.356033325195312 L 10.964546203613281,7.8560333251953125 L 11.340751647949219,7.4786529541015625 L 11.713600158691406,7.0996856689453125 L 12.086448669433594,6.7207183837890625 L 12.581718444824219,6.724334716796875 L 12.825447082519531,6.78863525390625 M 12.151557922363281,8.57330322265625 L 12.151557922363281,8.57330322265625 L 12.209144592285156,8.837265014648438 L 12.266731262207031,9.145950317382812 L 12.282402038574219,9.453033447265625 L 12.221504211425781,9.760116577148438 L 12.049934387207031,10.065597534179688 L 11.821327209472656,10.385452270507812 L 11.738624572753906,10.75640869140625 L 11.930366516113281,11.068283081054688 L 11.966148376464844,11.222030639648438 L 12.003608703613281,11.484390258789062 L 12.039390563964844,11.812225341796875 L 12.075172424316406,12.140060424804688 L 12.224983215332031,12.383255004882812 L 12.389900207519531,12.629653930664062 L 12.548088073730469,12.906387329101562 L 12.649269104003906,13.184722900390625 L 12.758842468261719,13.431121826171875" fill="none" stroke="#000000" stroke-width="1"/>
</svg>
