<?xml version="1.0" ?>
<svg baseProfile="full" height="195mm" version="1.1" viewBox="0 0 27.5 19.5" width="275mm" xmlns="http://www.w3.org/2000/svg" xmlns:ev="http://www.w3.org/2001/xml-events" xmlns:xlink="http://www.w3.org/1999/xlink">
	<defs/>
	<path d="M 18.1002197265625,12.266845703125 L 18.1002197265625,12.266845703125 L 17.970687866210938,12.133224487304688 L 17.810943603515625,11.999603271484375 L 17.581253051757812,11.933181762695312 L 17.310211181640625,11.92755126953125 L 17.005783081054688,11.91552734375 L 16.680694580078125,11.817108154296875 L 16.355606079101562,11.65948486328125 L 16.017791748046875,11.525863647460938 L 15.679977416992188,11.392242431640625 L 15.33740234375,11.258621215820312 L 14.994827270507812,11.144195556640625 L 14.64111328125,11.040969848632812 L 14.287399291992188,10.937744140625 L 13.933685302734375,10.834518432617188 L 13.86773681640625,10.979293823242188 L 13.88128662109375,11.165664672851562 L 13.804214477539062,11.552047729492188 L 13.727142333984375,11.938430786132812 L 13.626220703125,12.324813842773438 L 13.518951416015625,12.711196899414062 L 13.432342529296875,13.097579956054688 L 13.3997802734375,13.483963012695312 L 13.488052368164062,13.870346069335938 L 13.643081665039062,13.887115478515625 L 13.987289428710938,13.969482421875 L 14.229766845703125,13.891860961914062 L 14.472244262695312,13.785430908203125 L 14.765579223632812,13.759002685546875 L 15.058914184570312,13.732574462890625 L 15.34429931640625,13.592544555664062 L 15.63763427734375,13.460525512695312 L 15.946868896484375,13.360504150390625 L 16.278350830078125,13.278076171875 L 16.65753173828125,13.290054321289062 L 17.036712646484375,13.302032470703125 L 17.406356811523438,13.240402221679688 L 17.621810913085938,12.8699951171875 L 17.652847290039062,12.3699951171875 L 17.7935791015625,12.308364868164062" fill="none" stroke="#000000" stroke-width="1"/>
	<path d="M 19.410079956054688,7.3739013671875 L 19.410079956054688,7.3739013671875 L 19.11273193359375,7.41107177734375 L 18.66949462890625,7.6558685302734375 L 18.6002197265625,8.155853271484375 L 18.68798828125,8.655838012695312 L 18.911590576171875,9.151382446289062 L 19.249221801757812,9.554290771484375 L 19.749221801757812,9.63616943359375 L 20.249221801757812,9.649368286132812 L 20.148086547851562,9.775955200195312 L 20.040237426757812,9.923324584960938 L 20.151473999023438,9.815872192382812 L 20.450546264648438,9.511978149414062 L 20.481292724609375,9.011978149414062 L 20.479080200195312,8.511978149414062 L 20.4617919921875,8.011978149414062 L 20.310333251953125,7.5119781494140625 L 20.039810180664062,7.0467529296875 L 19.692153930664062,6.635833740234375 M 18.830429077148438,8.597793579101562 L 18.830429077148438,8.597793579101562 L 18.751083374023438,9.064590454101562 L 19.009902954101562,9.5489501953125 L 19.485061645507812,9.72186279296875 L 19.976974487304688,9.595260620117188 L 20.279388427734375,9.193939208984375 L 20.4359130859375,8.711151123046875 L 20.31463623046875,8.211151123046875 L 19.814651489257812,8.233932495117188 L 19.520660400390625,8.683151245117188 L 19.714080810546875,9.183135986328125 L 20.180831909179688,9.381607055664062 L 20.6475830078125,9.580078125 M 20.096572875976562,11.772384643554688 L 20.096572875976562,11.772384643554688 L 19.72711181640625,11.793563842773438 L 19.297271728515625,12.126205444335938 L 18.9580078125,12.56744384765625 L 18.762954711914062,13.059799194335938 L 18.817184448242188,13.559783935546875 L 19.052520751953125,14.045745849609375 L 19.480712890625,14.343246459960938 L 19.940765380859375,14.578460693359375 L 20.437713623046875,14.400741577148438 L 20.417068481445312,14.578445434570312 L 20.329345703125,14.989349365234375 L 20.380233764648438,14.816421508789062 L 20.556884765625,14.316421508789062 L 20.599380493164062,13.816421508789062 L 20.493209838867188,13.316421508789062 L 20.624588012695312,12.816421508789062 L 20.766021728515625,12.316421508789062 L 20.766586303710938,11.816421508789062 L 20.509490966796875,11.33843994140625 L 20.20880126953125,11.323638916015625 M 19.206680297851562,13.41461181640625 L 19.206680297851562,13.41461181640625 L 19.208938598632812,13.736068725585938 L 19.544891357421875,14.17572021484375 L 20.044891357421875,14.201705932617188 L 20.313766479492188,13.750869750976562 L 20.058349609375,13.280868530273438 L 19.802932739257812,13.37872314453125 L 19.322799682617188,13.649063110351562 L 19.434036254882812,14.1490478515625" fill="none" stroke="#000000" stroke-width="1"/>
	<path d="M 12.786697387695312,7.1826324462890625 L 12.786697387695312,7.1826324462890625 L 12.46478271484375,7.0506134033203125 L 12.066558837890625,6.9185943603515625 L 11.6683349609375,6.7865753173828125 L 11.270111083984375,6.6545562744140625 L 10.86712646484375,6.5897369384765625 L 10.367141723632812,6.7793121337890625 L 9.867156982421875,6.93048095703125 L 9.367172241210938,7.0816497802734375 L 8.8671875,7.1592254638671875 L 8.367202758789062,7.2176055908203125 L 8.527008056640625,7.3255767822265625 L 8.818756103515625,7.53594970703125 L 9.024658203125,7.8087310791015625 L 9.230560302734375,8.081512451171875 L 9.442825317382812,8.354293823242188 L 9.664627075195312,8.636672973632812 L 9.886428833007812,8.919052124023438 L 10.108230590820312,9.201431274414062 L 10.229888916015625,9.525421142578125 L 10.256149291992188,9.900604248046875 L 10.2442626953125,10.275787353515625 L 10.245086669921875,10.663772583007812 L 10.257049560546875,11.0517578125 L 10.269012451171875,11.439743041992188 L 10.280975341796875,11.827728271484375 L 10.292938232421875,12.215713500976562 L 10.265151977539062,12.60369873046875 L 10.2039794921875,12.991683959960938 L 10.103057861328125,13.395660400390625 L 9.948089599609375,13.807647705078125 L 9.823318481445312,14.2308349609375 L 9.69854736328125,14.654022216796875 L 9.6119384765625,15.072402954101562 L 9.530105590820312,15.497177124023438 L 9.464157104492188,15.921951293945312 L 9.628738403320312,15.895523071289062 L 9.98248291015625,15.880294799804688 L 10.353713989257812,15.961074829101562 L 10.724945068359375,16.041854858398438 L 11.096176147460938,16.103424072265625 L 11.472183227539062,16.158599853515625 L 11.848190307617188,16.1497802734375 L 12.141525268554688,16.097763061523438 L 12.02630615234375,15.8553466796875 L 11.857025146484375,15.400146484375 L 11.778366088867188,14.940139770507812 L 11.706069946289062,14.480133056640625 L 11.671920776367188,14.020126342773438 L 11.644134521484375,13.56011962890625 L 11.616348266601562,13.100112915039062 L 11.583786010742188,12.640106201171875 L 11.555999755859375,12.180099487304688 L 11.626785278320312,11.7200927734375 L 11.7388916015625,11.260086059570312 L 11.873260498046875,10.800079345703125 L 12.00762939453125,10.340072631835938 L 12.141998291015625,9.88006591796875 L 12.282730102539062,9.420059204101562 L 12.4234619140625,8.960052490234375 L 12.557830810546875,8.500045776367188 L 12.665176391601562,8.0400390625 L 12.755035400390625,7.5704345703125 L 12.860794067382812,7.420806884765625 L 12.8997802734375,7.2455902099609375 M 12.610626220703125,7.8710174560546875 L 12.610626220703125,7.8710174560546875 L 12.2760009765625,7.790191650390625 L 11.879364013671875,7.7093658447265625 L 11.48272705078125,7.602935791015625 L 11.092453002929688,7.4965057373046875 L 10.59246826171875,7.684478759765625 L 10.092483520507812,7.8916473388671875 L 9.592498779296875,8.08441162109375 M 9.760330200195312,8.769927978515625 L 9.760330200195312,8.769927978515625 L 10.2205810546875,8.773895263671875 L 10.669708251953125,8.7874755859375 L 11.11883544921875,8.801055908203125 L 11.572738647460938,8.81463623046875 L 12.026641845703125,8.828216552734375 L 12.380386352539062,8.841796875 M 12.111862182617188,9.844894409179688 L 12.111862182617188,9.844894409179688 L 11.751800537109375,9.920867919921875 L 11.294754028320312,9.796844482421875 L 10.847244262695312,9.6024169921875 L 10.485595703125,9.479995727539062 L 10.061935424804688,9.634368896484375 M 10.412612915039062,10.911849975585938 L 10.412612915039062,10.911849975585938 L 10.912612915039062,10.938217163085938 L 11.412612915039062,11.00299072265625 L 11.912612915039062,11.07257080078125 M 11.28240966796875,12.148452758789062 L 11.28240966796875,12.148452758789062 L 10.782424926757812,12.144424438476562 L 10.282440185546875,12.140396118164062 M 10.19512939453125,13.269882202148438 L 10.19512939453125,13.269882202148438 L 10.69512939453125,13.254653930664062 L 11.19512939453125,13.239425659179688 L 11.606109619140625,13.256195068359375 M 11.448089599609375,14.634475708007812 L 11.448089599609375,14.634475708007812 L 11.038742065429688,14.56805419921875 L 10.545135498046875,14.7208251953125 L 10.045150756835938,14.868789672851562 L 9.545166015625,14.803970336914062" fill="none" stroke="#000000" stroke-width="1"/>
</svg>
