<?xml version="1.0" ?>
<svg baseProfile="full" height="195mm" version="1.1" viewBox="0 0 27.5 19.5" width="275mm" xmlns="http://www.w3.org/2000/svg" xmlns:ev="http://www.w3.org/2001/xml-events" xmlns:xlink="http://www.w3.org/1999/xlink">
	<defs/>
	<path d="M 15.142539978027344,12.936325073242188 L 15.142539978027344,12.936325073242188 L 15.542228698730469,12.58770751953125 L 15.042243957519531,12.453109741210938 L 14.542259216308594,12.520614624023438 L 14.735679626464844,13.020599365234375 L 14.774818420410156,12.520599365234375 L 14.339958190917969,12.211898803710938 L 14.628959655761719,12.664321899414062 L 15.128959655761719,12.727035522460938 L 14.905403137207031,12.23626708984375 L 14.681846618652344,12.316558837890625 L 14.563926696777344,12.816543579101562 M 14.656776428222656,13.481460571289062 L 14.656776428222656,13.481460571289062 L 15.156776428222656,13.445892333984375 L 15.487709045410156,13.017410278320312 L 15.805229187011719,12.582550048828125 L 16.240135192871094,12.291427612304688 L 16.740135192871094,12.22869873046875 L 17.240135192871094,12.138809204101562 L 17.740135192871094,12.050521850585938 L 17.41260528564453,11.620437622070312 L 16.912620544433594,11.490631103515625 L 16.412635803222656,11.376800537109375 L 15.981132507324219,11.068099975585938 L 15.551292419433594,10.7578125 L 15.089607238769531,10.476272583007812 L 14.624549865722656,10.194732666015625 L 14.146095275878906,9.96270751953125 L 13.759864807128906,10.338470458984375 L 13.978431701660156,10.829238891601562 L 14.341224670410156,11.224166870117188 L 14.724143981933594,11.591949462890625 L 14.344627380371094,11.966110229492188 L 13.874549865722656,12.199722290039062 L 13.798561096191406,12.698471069335938 L 14.141227722167969,13.091796875 L 14.596244812011719,13.342971801757812" fill="none" stroke="#000000" stroke-width="1"/>
	<path d="M 19.23485565185547,6.8470916748046875 L 19.23485565185547,6.8470916748046875 L 19.31592559814453,6.3470916748046875 L 19.613319396972656,5.9297943115234375 L 20.063316345214844,5.6818084716796875 L 20.51667022705078,5.44818115234375 L 20.99852752685547,5.694580078125 L 21.466957092285156,5.9649200439453125 L 21.92700958251953,6.23846435546875 L 22.199241638183594,6.6829071044921875 L 22.43122100830078,7.1353302001953125 L 22.59278106689453,7.6244964599609375 L 22.618507385253906,8.124481201171875 L 22.594505310058594,8.624465942382812 L 22.444740295410156,9.12445068359375 L 22.25470733642578,9.624435424804688 L 22.031150817871094,10.118377685546875 L 21.683494567871094,10.5516357421875 L 21.258689880371094,10.877883911132812 L 20.81377410888672,11.15142822265625 L 20.32190704345703,11.353103637695312 L 19.821922302246094,11.232879638671875 L 19.559791564941406,10.742111206054688 L 19.314430236816406,10.248153686523438 L 19.069068908691406,9.754196166992188 L 18.830406188964844,9.260238647460938 L 18.69739532470703,8.760238647460938 L 18.613014221191406,8.260238647460938 L 18.610801696777344,7.7602386474609375 L 18.737144470214844,7.2602386474609375 L 18.97919464111328,6.7774505615234375 M 20.255455017089844,7.5737457275390625 L 20.255455017089844,7.5737457275390625 L 20.233131408691406,8.07373046875 L 20.528846740722656,8.518173217773438 L 20.802757263183594,8.962615966796875 L 20.870399475097656,9.462600708007812 L 21.271766662597656,9.113983154296875 L 21.594322204589844,8.698287963867188 L 21.80451202392578,8.215499877929688 L 21.487037658691406,7.7982025146484375 L 20.98705291748047,7.662017822265625 L 20.48706817626953,7.540191650390625 L 19.987083435058594,7.483856201171875 L 19.674644470214844,7.044189453125 L 19.723854064941406,6.544189453125 L 20.202354431152344,6.3680572509765625 L 20.702354431152344,6.5345916748046875 L 21.177513122558594,6.7777862548828125 L 21.530235290527344,7.171112060546875 L 21.78905487060547,7.6219329833984375 L 21.995887756347656,8.106292724609375 M 21.137123107910156,8.601882934570312 L 21.137123107910156,8.601882934570312 L 20.90851593017578,8.189376831054688 L 20.63129425048828,7.9717254638671875 L 20.63129425048828,8.293182373046875 L 20.80626678466797,8.616241455078125 L 20.99297332763672,8.685348510742188 L 20.824745178222656,8.68896484375 L 20.535789489746094,8.705352783203125 L 20.209938049316406,8.724945068359375 L 20.15239715576172,8.555221557617188 L 20.295509338378906,8.171463012695312 L 20.537559509277344,7.6870880126953125 L 20.918800354003906,7.880767822265625 L 21.33525848388672,8.208602905273438 L 21.167030334472656,8.261734008789062 L 20.889808654785156,8.54644775390625 L 20.91887664794922,8.38470458984375 L 20.74394989013672,8.119140625 L 20.711570739746094,8.268096923828125 L 20.625511169433594,8.659835815429688 L 20.521018981933594,8.531631469726562 L 20.346092224121094,8.099945068359375 L 20.497581481933594,8.146682739257812 L 20.833534240722656,8.204605102539062 L 20.98334503173828,8.236968994140625 L 21.175086975097656,8.302871704101562 M 22.20604705810547,13.298019409179688 L 22.20604705810547,13.298019409179688 L 21.70606231689453,13.411849975585938 L 21.206077575683594,13.323562622070312 L 20.710853576660156,13.048416137695312 L 20.21562957763672,12.773269653320312 L 19.722084045410156,12.568405151367188 L 19.22209930419922,12.712570190429688 L 18.83251190185547,13.062774658203125 L 18.489891052246094,13.459304809570312 L 18.318321228027344,13.956451416015625 L 18.24736785888672,14.456436157226562 L 18.240135192871094,14.9564208984375 L 18.346351623535156,15.456405639648438 L 18.53137969970703,15.947174072265625 L 18.77678680419922,16.410781860351562 L 19.11945343017578,16.813690185546875 L 19.514122009277344,17.163894653320312 L 19.95574188232422,16.853607177734375 L 20.370521545410156,16.503387451171875 L 20.78362274169922,16.153167724609375 L 21.19672393798828,15.802947998046875 L 21.60478973388672,15.449539184570312 L 21.77306365966797,14.949539184570312 L 21.678627014160156,14.449539184570312 L 21.564064025878906,13.949539184570312 L 21.44446563720703,13.449539184570312 L 21.29637908935547,12.949539184570312 M 20.652000427246094,14.4869384765625 L 20.652000427246094,14.4869384765625 L 20.467018127441406,14.3619384765625 L 19.96703338623047,14.235336303710938 L 19.46704864501953,14.1151123046875 L 18.990257263183594,14.36151123046875 L 18.90923309326172,14.852279663085938 L 19.29717254638672,15.228042602539062 L 19.74213409423828,15.509567260742188 L 20.24213409423828,15.530746459960938 L 20.616661071777344,15.148590087890625 L 20.895606994628906,14.673782348632812 L 20.94481658935547,14.173782348632812 M 19.36229705810547,14.957962036132812 L 19.36229705810547,14.957962036132812 L 19.755287170410156,15.189971923828125 L 20.13317108154297,14.811004638671875 L 19.92804718017578,14.45599365234375 L 19.726280212402344,14.953140258789062 L 19.55303192138672,14.93994140625 L 19.20873260498047,14.838882446289062 L 19.212669372558594,14.686721801757812 L 19.26355743408203,14.306167602539062 L 19.36139678955078,14.432754516601562 L 19.556480407714844,14.715866088867188 L 19.53919219970703,14.526962280273438 L 19.593421936035156,14.026962280273438 L 19.77007293701172,14.08807373046875 L 20.15465545654297,14.406326293945312" fill="none" stroke="#000000" stroke-width="1"/>
	<path d="M 13.026435852050781,8.895599365234375 L 13.026435852050781,8.895599365234375 L 12.749214172363281,8.69073486328125 L 12.249229431152344,8.640792846679688 L 11.749244689941406,8.722671508789062 L 11.249259948730469,8.820526123046875 L 10.785881042480469,9.060516357421875 L 10.466728210449219,9.4730224609375 L 10.275016784667969,9.957382202148438 L 10.148719787597656,10.456130981445312 L 10.084480285644531,10.95611572265625 L 10.035316467285156,11.456100463867188 L 10.074455261230469,11.956085205078125 L 10.113594055175781,12.456069946289062 L 10.224830627441406,12.9560546875 L 10.510490417480469,13.400497436523438 L 10.871604919433594,13.785842895507812 L 11.274650573730469,14.128067016601562 L 11.759864807128906,14.321746826171875 L 12.259864807128906,14.389251708984375 L 12.759864807128906,14.456756591796875 L 13.259864807128906,14.411590576171875 L 13.225791931152344,14.225875854492188 L 13.077705383300781,13.725875854492188 L 12.922889709472656,13.251068115234375 L 12.768074035644531,12.78106689453125 L 12.626686096191406,12.311065673828125 M 12.769340515136719,10.042434692382812 L 12.769340515136719,10.042434692382812 L 12.406593322753906,9.958953857421875 L 12.112602233886719,9.8770751953125 L 11.878974914550781,9.987701416015625 L 11.569877624511719,10.219711303710938 L 11.632499694824219,10.541168212890625 L 11.814186096191406,10.494430541992188 L 12.155174255371094,10.32470703125 L 12.640388488769531,10.23004150390625 L 13.140388488769531,10.37420654296875 M 10.585197448730469,12.04296875 L 10.585197448730469,12.04296875 L 10.805442810058594,12.021774291992188 L 11.072639465332031,12.008575439453125 L 11.339836120605469,11.921890258789062 L 11.563438415527344,11.542922973632812 L 11.063453674316406,11.3699951171875 L 10.563468933105469,11.373611450195312 L 10.063484191894531,11.396392822265625" fill="none" stroke="#000000" stroke-width="1"/>
</svg>
