<?xml version="1.0" ?>
<svg baseProfile="full" height="195mm" version="1.1" viewBox="0 0 27.5 19.5" width="275mm" xmlns="http://www.w3.org/2000/svg" xmlns:ev="http://www.w3.org/2001/xml-events" xmlns:xlink="http://www.w3.org/1999/xlink">
	<defs/>
	<path d="M 18.87049102783203,10.578765869140625 L 18.87049102783203,10.578765869140625 L 18.432273864746094,10.488876342773438 L 17.932289123535156,10.295181274414062 L 17.463890075683594,10.020034790039062 L 17.03404998779297,9.712936401367188 L 16.624351501464844,9.381881713867188 L 16.221351623535156,9.041244506835938 L 15.892143249511719,8.662277221679688 L 15.626670837402344,8.229019165039062 L 15.371253967285156,7.7957611083984375 L 15.107444763183594,7.36090087890625 L 14.727928161621094,7.005889892578125 L 14.286354064941406,6.7435150146484375 L 13.789451599121094,6.626495361328125 L 13.289466857910156,6.7515106201171875 L 12.851249694824219,7.06817626953125 L 12.488502502441406,7.482269287109375 L 12.236427307128906,7.958648681640625 L 12.263832092285156,8.458633422851562 L 12.366691589355469,8.9586181640625 L 12.560111999511719,9.457366943359375 L 12.844093322753906,9.911392211914062 L 13.151542663574219,10.357437133789062 L 13.341606140136719,10.84820556640625 L 13.415962219238281,11.348190307617188 L 13.294685363769531,11.848175048828125 L 13.367362976074219,12.348159790039062 L 13.252799987792969,12.84814453125 L 13.593788146972656,13.249465942382812 L 14.062217712402344,13.44793701171875 L 14.562217712402344,13.517044067382812 L 15.062217712402344,13.541427612304688 L 15.562217712402344,13.553024291992188 L 16.062217712402344,13.553024291992188 L 16.562217712402344,13.52703857421875 L 17.062217712402344,13.438751220703125 L 17.54071807861328,13.30096435546875 L 18.000770568847656,13.065750122070312 L 18.398780822753906,12.726715087890625 L 18.791770935058594,12.406845092773438 L 19.263572692871094,12.269058227539062 M 12.586524963378906,8.400436401367188 L 12.586524963378906,8.400436401367188 L 12.897331237792969,8.43280029296875 L 13.352348327636719,8.20556640625 L 13.795631408691406,7.9320068359375 L 13.802909851074219,7.4320068359375 L 13.426750183105469,7.06103515625 L 13.050590515136719,6.6900634765625" fill="none" stroke="#000000" stroke-width="1"/>
	<path d="M 20.613258361816406,12.309463500976562 L 20.613258361816406,12.309463500976562 L 20.908973693847656,12.429672241210938 L 21.34723663330078,12.69842529296875 L 21.785499572753906,13.023086547851562 L 22.081214904785156,13.469131469726562 L 22.26122283935547,13.96148681640625 L 22.31377410888672,14.461471557617188 L 22.21765899658203,14.961456298828125 L 22.03937530517578,15.461441040039062 L 21.85607147216797,15.95538330078125 L 21.66436004638672,16.446151733398438 M 20.42560577392578,9.9127197265625 L 20.42560577392578,9.9127197265625 L 20.821937561035156,9.600845336914062 L 21.223304748535156,9.288970947265625 L 21.62299346923828,8.977096557617188 L 22.01598358154297,8.634857177734375 L 22.140647888183594,8.144088745117188 L 22.17139434814453,7.6440887451171875 L 22.19544219970703,7.1440887451171875 L 22.18653106689453,6.6440887451171875 L 21.96800994873047,6.1549224853515625 L 21.752830505371094,5.6657562255859375 L 21.557777404785156,5.1845703125 M 21.36890411376953,6.92095947265625 L 21.36890411376953,6.92095947265625 L 20.997764587402344,6.556365966796875 L 20.497779846191406,6.5823516845703125 L 20.10315704345703,6.9772796630859375 L 19.99195098876953,7.477264404296875 L 20.197120666503906,7.963226318359375 L 20.54314422607422,8.34857177734375 L 21.041770935058594,8.412872314453125 L 21.48841094970703,8.120162963867188 L 21.530906677246094,7.6201629638671875 L 21.530372619628906,7.1201629638671875 M 21.537330627441406,14.007247924804688 L 21.537330627441406,14.007247924804688 L 21.407676696777344,13.507247924804688 L 20.951026916503906,13.260848999023438 L 20.45104217529297,13.328353881835938 L 20.06481170654297,13.699310302734375 L 19.926780700683594,14.19805908203125 L 20.13195037841797,14.685623168945312 L 20.52661895751953,15.013458251953125 L 21.02661895751953,15.003433227539062 L 21.30052947998047,14.566970825195312 L 21.334632873535156,14.079391479492188 L 21.362037658691406,13.591812133789062 M 20.845191955566406,14.03143310546875 L 20.845191955566406,14.03143310546875 L 20.68535614013672,13.532669067382812 L 20.201866149902344,13.780654907226562 L 20.006813049316406,14.25384521484375 L 20.465187072753906,14.49383544921875 L 20.895057678222656,14.212295532226562 L 20.89899444580078,13.723129272460938 L 20.399009704589844,13.723556518554688 L 20.16034698486328,14.179183959960938 L 20.192771911621094,13.998275756835938 L 20.32415008544922,13.544235229492188 L 20.349876403808594,13.694793701171875 L 20.319175720214844,14.025833129882812 L 20.326454162597656,14.181182861328125 L 20.30748748779297,14.681167602539062 L 20.45227813720703,14.594482421875 L 20.597068786621094,14.507797241210938 L 20.425498962402344,14.488189697265625 L 19.925514221191406,14.517349243164062 L 19.925514221191406,14.366775512695312 L 19.919960021972656,14.0037841796875 L 20.13182830810547,13.992172241210938 L 20.58014678955078,13.725006103515625 L 20.726600646972656,13.662277221679688 L 21.179954528808594,13.647476196289062 M 21.035560607910156,7.612030029296875 L 21.035560607910156,7.612030029296875 L 21.041160583496094,7.112030029296875 L 20.541175842285156,6.92791748046875 L 20.04119110107422,7.076873779296875 L 20.03563690185547,7.5768585205078125 L 20.37494659423828,7.968597412109375 L 20.87494659423828,7.999359130859375 L 21.14885711669922,7.5740814208984375 L 20.901817321777344,7.116851806640625 L 20.401832580566406,7.1036529541015625 L 20.195045471191406,7.57684326171875 L 20.586341857910156,7.7609405517578125 L 20.19005584716797,7.41552734375 L 19.763572692871094,7.11163330078125 L 20.176673889160156,6.810943603515625 L 20.665245056152344,6.719482421875 L 20.771461486816406,7.2194671630859375" fill="none" stroke="#000000" stroke-width="1"/>
	<path d="M 10.493080139160156,14.980514526367188 L 10.493080139160156,14.980514526367188 L 10.024681091308594,14.721343994140625 L 9.646842956542969,14.37750244140625 L 9.409858703613281,13.957000732421875 L 9.283561706542969,13.491775512695312 L 9.283561706542969,13.008987426757812 L 9.324363708496094,12.526199340820312 L 9.365165710449219,12.043411254882812 L 9.405967712402344,11.560623168945312 L 9.446769714355469,11.077835083007812 L 9.487571716308594,10.595046997070312 L 9.677635192871094,10.131423950195312 L 10.032051086425781,9.792388916015625 L 10.393165588378906,9.47412109375 L 10.816322326660156,9.222930908203125 L 11.278053283691406,9.1314697265625 L 11.736427307128906,9.428970336914062 L 11.236442565917969,9.385406494140625 L 10.736457824707031,9.341842651367188 L 10.236473083496094,9.29827880859375 L 9.736488342285156,9.254714965820312 L 9.236503601074219,9.211151123046875 L 8.736518859863281,9.167587280273438 L 8.236534118652344,9.195159912109375 L 7.736549377441406,9.320175170898438 L 7.236564636230469,9.4451904296875 L 6.736579895019531,9.57177734375 L 6.236595153808594,9.6983642578125 L 5.756462097167969,9.94476318359375 L 5.355140686035156,10.271011352539062 L 4.955497741699219,10.598846435546875 L 4.570945739746094,10.973007202148438 L 4.322227478027344,11.420639038085938 L 4.204307556152344,11.916183471679688 L 4.118247985839844,12.414932250976562 L 4.035545349121094,12.913681030273438 L 4.302742004394531,13.35333251953125 L 4.739326477050781,13.537429809570312 L 5.175910949707031,13.721527099609375 L 5.612495422363281,13.904022216796875 L 6.049079895019531,14.086517333984375 L 6.485664367675781,14.269012451171875 L 6.932304382324219,14.409988403320312 L 7.390678405761719,14.469512939453125 L 7.849052429199219,14.529037475585938 L 8.309104919433594,14.582168579101562 L 8.770835876464844,14.635299682617188 L 9.234245300292969,14.698013305664062 L 9.697654724121094,14.797454833984375 L 10.161064147949219,14.896896362304688 L 10.624473571777344,15.0123291015625 M 6.954597473144531,14.25537109375 L 6.954597473144531,14.25537109375 L 6.615333557128906,13.855636596679688 L 6.329719543457031,13.407989501953125 L 6.159828186035156,12.94757080078125 L 6.098930358886719,12.466384887695312 L 6.126335144042969,11.983596801757812 L 6.155403137207031,11.500808715820312 L 6.207954406738281,11.018020629882812 L 6.334297180175781,10.535232543945312 L 6.603172302246094,10.119537353515625 L 6.945838928222656,9.770919799804688 L 7.298561096191406,9.425506591796875" fill="none" stroke="#000000" stroke-width="1"/>
</svg>
