<?xml version="1.0" ?>
<svg baseProfile="full" height="195mm" version="1.1" viewBox="0 0 27.5 19.5" width="275mm" xmlns="http://www.w3.org/2000/svg" xmlns:ev="http://www.w3.org/2001/xml-events" xmlns:xlink="http://www.w3.org/1999/xlink">
	<defs/>
	<path d="M 18.751731872558594,11.418975830078125 L 18.751731872558594,11.418975830078125 L 18.780799865722656,11.703689575195312 L 18.818260192871094,12.20367431640625 L 18.74561309814453,12.703659057617188 L 18.595848083496094,13.203643798828125 L 18.38066864013672,13.697586059570312 L 18.133628845214844,14.18194580078125 L 17.787635803222656,14.583267211914062 L 17.369544982910156,14.909515380859375 L 16.94306182861328,15.234176635742188 L 16.494789123535156,15.507720947265625 L 15.994804382324219,15.592788696289062 L 15.494819641113281,15.461380004882812 L 14.994834899902344,15.321990966796875 L 14.494850158691406,15.180999755859375 L 14.002983093261719,15.000091552734375 L 13.625144958496094,14.659454345703125 L 13.337852478027344,14.274093627929688 L 13.050559997558594,13.883956909179688 L 12.828681945800781,13.453872680664062 L 12.705741882324219,12.987075805664062 L 12.681739807128906,12.505889892578125 L 12.717521667480469,12.021514892578125 L 12.756660461425781,11.538726806640625 L 12.797462463378906,11.055938720703125 L 12.836601257324219,10.573150634765625 L 12.932762145996094,10.090362548828125 L 13.406242370605469,9.856735229492188 L 13.879722595214844,9.642288208007812 L 14.379722595214844,9.494918823242188 L 14.879722595214844,9.41143798828125 L 15.379722595214844,9.506088256835938 L 15.879722595214844,9.60552978515625" fill="none" stroke="#000000" stroke-width="1"/>
	<path d="M 20.017906188964844,4.168426513671875 L 20.017906188964844,4.168426513671875 L 20.318641662597656,4.235931396484375 L 20.58415985107422,4.2619171142578125 M 20.36792755126953,3.7902984619140625 L 20.36792755126953,3.7902984619140625 L 20.21479034423828,4.1804351806640625 M 20.23662567138672,4.1667938232421875 L 20.23662567138672,4.1667938232421875 L 19.79840850830078,4.0353851318359375 L 20.176292419433594,4.3184967041015625 L 20.532386779785156,3.923553466796875 L 20.03240203857422,4.050140380859375 L 20.16210174560547,4.5501251220703125 L 20.442726135253906,4.097686767578125 L 20.044761657714844,4.4846343994140625 M 19.98889923095703,4.3005218505859375 L 19.98889923095703,4.3005218505859375 L 19.842491149902344,3.804962158203125 L 19.360679626464844,4.054534912109375 M 19.384727478027344,4.5545196533203125 L 19.384727478027344,4.5545196533203125 L 19.75757598876953,4.9334869384765625 L 19.800071716308594,4.4334869384765625 L 19.318260192871094,4.6894683837890625 M 22.845664978027344,6.4447784423828125 L 22.845664978027344,6.4447784423828125 L 22.538246154785156,6.4452056884765625 L 22.152015686035156,6.7219390869140625 L 21.941871643066406,7.21429443359375 L 22.209068298339844,7.67950439453125 L 22.55677032470703,8.077621459960938 L 23.016822814941406,8.306442260742188 M 23.11632537841797,8.175033569335938 L 23.11632537841797,8.175033569335938 L 23.31140899658203,7.9861297607421875 L 23.526634216308594,7.6454925537109375 L 23.632850646972656,7.1454925537109375 L 23.53003692626953,6.6454925537109375 L 23.24945831298828,6.1898651123046875 M 22.56536102294922,6.9425506591796875 L 22.56536102294922,6.9425506591796875 L 22.36359405517578,6.8718414306640625 L 22.119911193847656,7.0591278076171875 L 22.170799255371094,7.5083465576171875 L 22.520164489746094,7.7946624755859375 L 22.978538513183594,7.775054931640625 L 23.187049865722656,7.282684326171875 L 22.862876892089844,6.8637847900390625 M 22.64984893798828,13.669708251953125 L 22.64984893798828,13.669708251953125 L 22.38603973388672,13.804290771484375 L 22.068565368652344,14.095413208007812 L 21.947288513183594,14.59539794921875 L 21.93000030517578,15.095382690429688 L 22.170387268066406,15.584548950195312 L 22.606971740722656,15.81976318359375 L 23.072059631347656,15.99267578125 M 23.23529815673828,15.947509765625 L 23.23529815673828,15.947509765625 L 23.577964782714844,15.814498901367188 L 23.94243621826172,15.432342529296875 L 23.92011260986328,14.932342529296875 L 23.746864318847656,14.432342529296875 L 23.50988006591797,13.947967529296875 L 23.16558074951172,13.564208984375 L 22.66559600830078,13.480728149414062 M 23.132423400878906,15.271697998046875 L 23.132423400878906,15.271697998046875 L 23.409690856933594,15.232940673828125 L 23.653419494628906,14.759735107421875 L 23.475135803222656,14.259735107421875 L 22.97655487060547,14.077224731445312 L 22.47657012939453,14.293258666992188 L 22.12891387939453,14.73291015625 L 22.404518127441406,15.185333251953125 L 22.84278106689453,15.455673217773438 L 23.34278106689453,15.364212036132812 M 23.03429412841797,14.958831787109375 L 23.03429412841797,14.958831787109375 L 22.66315460205078,14.835403442382812 L 22.75092315673828,14.703994750976562 L 23.10869598388672,14.563003540039062 L 23.40776824951172,14.842941284179688 L 22.90778350830078,14.864120483398438" fill="none" stroke="#000000" stroke-width="1"/>
	<path d="M 11.351387023925781,8.414047241210938 L 11.351387023925781,8.414047241210938 L 11.551521301269531,8.644454956054688 L 11.692955017089844,8.957931518554688 L 11.805870056152344,9.2841796875 L 11.883567810058594,9.667922973632812 L 11.957923889160156,10.03887939453125 L 12.032279968261719,10.425827026367188 L 12.056327819824219,10.815963745117188 L 12.063606262207031,11.204498291015625 L 12.069206237792969,11.596237182617188 L 12.073143005371094,11.986373901367188 L 11.992118835449219,12.382904052734375 L 11.847373962402344,12.827346801757812 L 11.702629089355469,13.27178955078125 L 11.524345397949219,13.716232299804688 L 11.198493957519531,14.160675048828125 L 10.790473937988281,14.534835815429688 L 10.379096984863281,14.894622802734375 L 9.897285461425781,15.078720092773438 L 9.397300720214844,15.123870849609375 L 8.913810729980469,14.895034790039062 L 8.475593566894531,14.587936401367188 L 8.030677795410156,14.284042358398438 L 7.661216735839844,13.900283813476562 L 7.363868713378906,13.465423583984375 L 7.089988708496094,13.012985229492188 L 6.874809265136719,12.530197143554688 L 6.760246276855469,12.030197143554688 L 6.647361755371094,11.530197143554688 L 6.574714660644531,11.030197143554688 L 6.607139587402344,10.530197143554688 L 6.624473571777344,10.030197143554688 L 6.595451354980469,9.530197143554688 L 6.649681091308594,9.030197143554688 L 6.822975158691406,8.530197143554688 L 7.002983093261719,8.030197143554688 L 7.345649719238281,7.628875732421875 L 7.783912658691406,7.33135986328125 L 8.222175598144531,7.033843994140625 L 8.699012756347656,6.8672943115234375 L 9.199012756347656,6.8221282958984375 L 9.699012756347656,7.001434326171875 L 10.137275695800781,7.3324737548828125 L 10.580558776855469,7.601226806640625 L 11.080558776855469,7.6192169189453125 L 11.530555725097656,7.935882568359375 L 11.688743591308594,8.435867309570312 L 11.631202697753906,8.93585205078125 L 11.593772888183594,9.435836791992188 M 8.316078186035156,7.331390380859375 L 8.316078186035156,7.331390380859375 L 8.316642761230469,7.692779541015625 L 8.317207336425781,8.079727172851562 L 8.317771911621094,8.4666748046875 L 8.318336486816406,8.853622436523438 L 8.318336486816406,9.240570068359375 L 8.318336486816406,9.627517700195312 L 8.318336486816406,10.01446533203125 L 8.318336486816406,10.402999877929688 L 8.318336486816406,10.791534423828125 L 8.318336486816406,11.180068969726562 L 8.318336486816406,11.568603515625 L 8.318901062011719,11.955551147460938 L 8.319465637207031,12.342498779296875 L 8.319465637207031,12.72784423828125 L 8.319465637207031,13.114791870117188 L 8.319465637207031,13.501739501953125 L 8.320030212402344,13.888687133789062 L 8.320594787597656,14.275634765625 L 8.320594787597656,14.593887329101562 M 10.358268737792969,7.5839385986328125 L 10.358268737792969,7.5839385986328125 L 10.387336730957031,7.74566650390625 L 10.416404724121094,8.129409790039062 L 10.445472717285156,8.577041625976562 L 10.467842102050781,9.0770263671875 L 10.490211486816406,9.577011108398438 L 10.509223937988281,10.076995849609375 L 10.529914855957031,10.576980590820312 L 10.569053649902344,11.07696533203125 L 10.588066101074219,11.576950073242188 L 10.608757019042969,12.076934814453125 L 10.629447937011719,12.576919555664062 L 10.650138854980469,13.076904296875 L 10.670829772949219,13.576889038085938 L 10.691520690917969,14.076873779296875 L 10.710533142089844,14.576858520507812 M 8.354042053222656,12.929580688476562 L 8.354042053222656,12.929580688476562 L 8.165702819824219,12.953964233398438 L 7.970649719238281,12.978347778320312 L 7.772239685058594,13.002731323242188 L 7.573829650878906,13.027114868164062 L 7.375419616699219,13.0531005859375 L 7.175331115722656,13.075881958007812 M 6.903892517089844,11.904983520507812 L 6.903892517089844,11.904983520507812 L 6.718910217285156,11.877395629882812 L 6.870399475097656,11.877395629882812 L 7.125862121582031,11.877395629882812 L 7.404808044433594,11.870574951171875 L 7.683753967285156,11.854171752929688 L 7.961021423339844,11.82818603515625 L 8.238288879394531,11.802200317382812 L 8.458534240722656,11.774612426757812 M 8.346336364746094,10.572219848632812 L 8.346336364746094,10.572219848632812 L 8.005393981933594,10.595001220703125 L 7.505409240722656,10.649734497070312 L 7.037010192871094,10.710845947265625 L 6.578681945800781,10.7735595703125 M 6.664268493652344,9.341018676757812 L 6.664268493652344,9.341018676757812 L 6.938179016113281,9.29107666015625 L 7.220481872558594,9.241134643554688 L 7.501106262207031,9.170425415039062 L 7.783409118652344,9.104507446289062 L 8.064033508300781,9.040191650390625 L 8.331230163574219,8.975875854492188 M 8.335807800292969,7.9514923095703125 L 8.335807800292969,7.9514923095703125 L 8.098823547363281,7.8664093017578125 L 7.856819152832031,7.77972412109375 L 7.621513366699219,7.69464111328125 L 7.386207580566406,7.60955810546875 L 7.186119079589844,7.5228729248046875 M 10.790077209472656,8.420944213867188 L 10.790077209472656,8.420944213867188 L 11.005302429199219,8.420944213867188 L 11.384864807128906,8.420944213867188 L 11.764427185058594,8.420944213867188 M 11.661643981933594,9.3873291015625 L 11.661643981933594,9.3873291015625 L 11.253623962402344,9.437255859375 L 10.825462341308594,9.491989135742188 L 10.452659606933594,9.545120239257812 M 10.904960632324219,10.44195556640625 L 10.904960632324219,10.44195556640625 L 11.259376525878906,10.459945678710938 L 11.699317932128906,10.459945678710938 L 11.852485656738281,10.459945678710938 L 12.181739807128906,10.459503173828125 M 11.788902282714844,11.543243408203125 L 11.788902282714844,11.543243408203125 L 11.560295104980469,11.494903564453125 L 11.323310852050781,11.446563720703125 L 11.072914123535156,11.451766967773438 L 10.825874328613281,11.535232543945312 L 10.578834533691406,11.621902465820312 M 10.886314392089844,12.570724487304688 L 10.886314392089844,12.570724487304688 L 11.084770202636719,12.636627197265625 L 11.308372497558594,12.7169189453125 L 11.540351867675781,12.782821655273438 L 11.772331237792969,12.84393310546875 L 12.004310607910156,12.908233642578125 M 11.478523254394531,13.466812133789062 L 11.478523254394531,13.466812133789062 L 11.306953430175781,13.43603515625 L 11.051536560058594,13.419631958007812 L 10.871574401855469,13.44879150390625 L 10.512168884277344,13.500320434570312" fill="none" stroke="#000000" stroke-width="1"/>
</svg>
