<?xml version="1.0" ?>
<svg baseProfile="full" height="195mm" version="1.1" viewBox="0 0 27.5 19.5" width="275mm" xmlns="http://www.w3.org/2000/svg" xmlns:ev="http://www.w3.org/2001/xml-events" xmlns:xlink="http://www.w3.org/1999/xlink">
	<defs/>
	<path d="M 18.34832000732422,13.64849853515625 L 18.34832000732422,13.64849853515625 L 18.123085021972656,14.13446044921875 L 17.897850036621094,14.62042236328125 L 17.57032012939453,15.056869506835938 L 17.34844207763672,15.51409912109375 L 17.264060974121094,16.011245727539062 L 16.87615203857422,16.363052368164062 L 16.37616729736328,16.51361083984375 L 15.876182556152344,16.60028076171875 L 15.376197814941406,16.540756225585938 L 14.901084899902344,16.337478637695312 L 14.432685852050781,16.116622924804688 L 13.967628479003906,15.878204345703125 L 13.598167419433594,15.499237060546875 L 13.399757385253906,15.016448974609375 L 13.275138854980469,14.517684936523438 L 13.184059143066406,14.017684936523438 L 13.151679992675781,13.517684936523438 L 13.197532653808594,13.017684936523438 L 13.478157043457031,12.60198974609375 L 13.777229309082031,12.219833374023438 L 14.089698791503906,11.837677001953125 L 14.512855529785156,11.575302124023438 L 14.976264953613281,11.4151611328125 M 14.302238464355469,11.651962280273438 L 14.302238464355469,11.651962280273438 L 14.123954772949219,11.46624755859375 L 13.808158874511719,11.045745849609375 L 13.762351989746094,10.545745849609375 L 13.866889953613281,10.045745849609375 L 14.278312683105469,9.780181884765625 L 14.713218688964844,9.543365478515625 L 15.161537170410156,9.354461669921875 L 15.661537170410156,9.41876220703125 L 16.161537170410156,9.60125732421875 L 16.559547424316406,9.95306396484375 L 16.62049102783203,10.453048706054688 L 16.49755096435547,10.953033447265625 L 16.20691680908203,11.392684936523438 L 15.782112121582031,11.714141845703125" fill="none" stroke="#000000" stroke-width="1"/>
	<path d="M 20.548728942871094,12.240570068359375 L 20.548728942871094,12.240570068359375 L 20.675071716308594,12.3895263671875 L 20.843345642089844,12.546478271484375 L 21.04010772705078,12.679473876953125 L 21.238563537597656,12.812469482421875 L 21.43701934814453,12.945465087890625 L 21.63378143310547,13.124771118164062 L 21.82384490966797,13.391921997070312 L 21.966957092285156,13.743728637695312 L 22.032920837402344,14.141845703125 L 21.98041534423828,14.61663818359375 L 21.800453186035156,15.108993530273438 L 21.540000915527344,15.591766357421875 L 21.267799377441406,16.069747924804688 L 20.930213928222656,16.512588500976562 L 20.53894805908203,16.907516479492188 L 20.489784240722656,16.763336181640625 L 20.40540313720703,16.580825805664062 L 20.258995056152344,16.375961303710938 L 20.095802307128906,16.167892456054688 L 19.93260955810547,15.959823608398438 L 19.767738342285156,15.695846557617188 L 19.606224060058594,15.4127197265625 L 19.46147918701172,15.094451904296875 L 19.348594665527344,14.745834350585938 L 19.297752380371094,14.344512939453125 L 19.336891174316406,13.9320068359375 L 19.53197479248047,13.521087646484375 L 19.799171447753906,13.16448974609375 L 20.10997772216797,12.865371704101562 L 20.16252899169922,12.716400146484375 L 20.21508026123047,12.5418701171875 L 20.265968322753906,12.372146606445312 L 20.27660369873047,12.200820922851562 L 20.192222595214844,12.02789306640625 L 20.337013244628906,11.98272705078125 L 20.52539825439453,11.9439697265625 L 20.489646911621094,12.094528198242188 L 20.423728942871094,12.323348999023438 M 20.450767517089844,10.013107299804688 L 20.450767517089844,10.013107299804688 L 20.54357147216797,9.886505126953125 L 20.65984344482422,9.761505126953125 L 20.781166076660156,9.636505126953125 L 20.897438049316406,9.511505126953125 L 21.013710021972656,9.381698608398438 L 21.129981994628906,9.25189208984375 L 21.237876892089844,9.078964233398438 L 21.34577178955078,8.9012451171875 L 21.451988220214844,8.718734741210938 L 21.50957489013672,8.494705200195312 L 21.54871368408203,8.229141235351562 L 21.526390075683594,7.9332275390625 L 21.452064514160156,7.6309356689453125 L 21.33246612548828,7.328643798828125 L 21.20281219482422,7.0263519287109375 L 21.04631805419922,6.72406005859375 L 20.878089904785156,6.420166015625 L 20.626014709472656,6.149810791015625 L 20.30016326904297,5.9497222900390625 L 19.97431182861328,5.7448577880859375 L 19.910072326660156,5.5974884033203125 L 19.94249725341797,5.7464447021484375 L 19.976600646972656,5.9065704345703125 L 20.010704040527344,6.071502685546875 L 19.93975067138672,6.2779541015625 L 19.85369110107422,6.50836181640625 L 19.76763153076172,6.73876953125 L 19.59606170654297,6.9500274658203125 L 19.422813415527344,7.161285400390625 L 19.25794219970703,7.391693115234375 L 19.12828826904297,7.678009033203125 L 18.998634338378906,7.99786376953125 L 18.88239288330078,8.322525024414062 L 18.84832000732422,8.653564453125 L 18.899208068847656,8.984603881835938 L 19.09095001220703,9.31085205078125 L 19.40679168701172,9.47418212890625 L 19.729347229003906,9.623138427734375 L 19.86406707763672,9.736968994140625 L 20.06755828857422,9.901901245117188 L 20.188880920410156,9.996551513671875 L 20.126304626464844,10.137527465820312 L 20.050315856933594,10.353561401367188 L 20.08106231689453,10.569595336914062 L 20.180564880371094,10.447769165039062 L 20.28510284423828,10.3211669921875 L 20.27283477783203,10.167404174804688 L 20.301902770996094,9.948150634765625 L 20.30750274658203,9.720916748046875 M 19.073524475097656,8.226531982421875 L 19.073524475097656,8.226531982421875 L 19.266944885253906,8.295639038085938 L 19.47545623779297,8.366348266601562 L 19.682289123535156,8.427459716796875 L 19.889122009277344,8.453445434570312 L 20.09595489501953,8.477828979492188 L 20.30614471435547,8.4814453125 L 20.529747009277344,8.485061645507812 L 20.763404846191406,8.423934936523438 L 20.99706268310547,8.305313110351562 L 21.23072052001953,8.177108764648438 L 21.340293884277344,8.045700073242188 M 21.22405242919922,7.9462432861328125 L 21.22405242919922,7.9462432861328125 L 21.08434295654297,7.81964111328125 L 20.91779327392578,7.6834564208984375 L 20.741188049316406,7.563232421875 L 20.56122589111328,7.471771240234375 L 20.376243591308594,7.4090423583984375 L 20.073875427246094,7.50848388671875 L 19.776527404785156,7.6207122802734375 L 19.47583770751953,7.6834259033203125 L 19.175148010253906,7.7461395263671875 L 18.88115692138672,7.89190673828125 L 18.915260314941406,8.16864013671875 M 19.006385803222656,8.034042358398438 L 19.006385803222656,8.034042358398438 L 19.15117645263672,7.851531982421875 L 19.358009338378906,7.7249298095703125 L 19.423973083496094,7.8738861083984375 L 19.48155975341797,8.137847900390625 L 19.557579040527344,7.996856689453125 L 19.655418395996094,7.812744140625 L 19.62805938720703,7.9744720458984375 L 19.570518493652344,8.212875366210938 L 19.629783630371094,8.070297241210938 L 19.724266052246094,7.870208740234375 L 19.753334045410156,8.022354125976562 L 19.78240203857422,8.206451416015625 L 19.84166717529297,8.35382080078125 L 19.921043395996094,8.225616455078125 L 20.037315368652344,7.96484375 L 20.036781311035156,8.131378173828125 L 19.97588348388672,8.4033203125 L 20.055259704589844,8.273513793945312 L 20.164833068847656,8.051071166992188 L 20.27606964111328,7.95001220703125 L 20.26715850830078,8.108566284179688 L 20.299583435058594,8.27349853515625 L 20.479591369628906,8.347381591796875 L 20.67133331298828,8.062652587890625 L 20.671897888183594,8.213211059570312 L 20.671897888183594,8.408477783203125 L 20.80829620361328,8.324996948242188 L 20.953086853027344,8.048248291015625 L 21.08446502685547,7.74755859375 L 20.91791534423828,7.7359466552734375 L 20.680931091308594,7.7211456298828125 L 20.422157287597656,7.6360626220703125 L 20.250587463378906,7.6700286865234375 L 19.923057556152344,7.7199554443359375 L 20.06616973876953,7.776275634765625 L 20.335044860839844,7.7990570068359375 L 20.712928771972656,7.787445068359375 L 20.55309295654297,7.7774200439453125 L 20.31946563720703,7.76739501953125 L 20.01709747314453,7.72222900390625 L 19.723106384277344,7.84564208984375 L 19.615257263183594,7.9977874755859375 L 19.91265106201172,8.183486938476562 L 20.41265106201172,8.20947265625 L 20.41265106201172,7.70947265625 L 20.088478088378906,7.6898651123046875 L 19.91858673095703,8.107147216796875 L 20.264610290527344,7.9246368408203125 L 20.23223114013672,7.4246368408203125 L 20.47093963623047,7.74609375 L 20.877342224121094,8.065948486328125 L 21.028831481933594,8.057525634765625 L 21.24573516845703,8.057525634765625 L 21.507911682128906,8.156967163085938 L 21.25751495361328,8.182952880859375 L 20.928306579589844,8.038772583007812 L 20.761756896972656,8.004791259765625 L 20.53314971923828,7.9740142822265625 L 20.257591247558594,7.7931060791015625 L 20.075965881347656,7.7931060791015625 L 19.64612579345703,7.795135498046875 L 19.565101623535156,7.66693115234375 L 19.393531799316406,7.482818603515625 L 19.278968811035156,7.3562164306640625 L 19.254966735839844,7.530731201171875 L 19.09009552001953,7.9256591796875 L 19.09009552001953,8.077804565429688 L 19.09009552001953,8.324203491210938 L 19.19799041748047,8.208770751953125 L 19.418235778808594,8.018280029296875 L 19.75084686279297,7.83416748046875 L 19.75084686279297,8.013473510742188 L 20.021400451660156,8.079376220703125 M 19.405967712402344,14.46173095703125 L 19.405967712402344,14.46173095703125 L 19.55577850341797,14.522842407226562 L 19.740806579589844,14.574371337890625 L 19.959373474121094,14.6578369140625 L 20.177940368652344,14.741302490234375 L 20.40489959716797,14.80560302734375 L 20.64862823486328,14.8251953125 L 20.917503356933594,14.780029296875 L 21.19310760498047,14.709320068359375 L 21.470375061035156,14.63861083984375 L 21.747642517089844,14.567901611328125 L 22.02324676513672,14.48760986328125 M 21.91204071044922,14.373779296875 L 21.91204071044922,14.373779296875 L 21.79076385498047,14.2327880859375 L 21.639305114746094,14.093399047851562 L 21.461021423339844,14.005111694335938 L 21.282737731933594,13.916824340820312 L 21.04407501220703,13.90521240234375 L 20.78697967529297,13.983901977539062 L 20.519813537597656,14.064193725585938 L 20.230857849121094,14.090179443359375 L 19.940223693847656,14.080154418945312 L 19.64958953857422,14.07012939453125 L 19.357276916503906,14.094512939453125 L 19.140419006347656,14.288192749023438 M 19.29022979736328,14.266998291015625 L 19.29022979736328,14.266998291015625 L 19.440040588378906,14.177108764648438 L 19.440040588378906,14.353225708007812 L 19.40428924560547,14.743362426757812 L 19.46019744873047,14.600784301757812 L 19.51610565185547,14.458206176757812 L 19.60053253173828,14.207015991210938 L 19.689979553222656,14.330429077148438 L 19.79283905029297,14.452239990234375 L 19.897377014160156,14.7337646484375 L 20.08576202392578,14.586395263671875 L 20.21881866455078,14.218612670898438 L 20.20153045654297,14.378738403320312 L 20.184242248535156,14.69061279296875 L 20.23009490966797,14.546432495117188 L 20.27594757080078,14.276077270507812 L 20.35869598388672,14.063232421875 L 20.396156311035156,14.212188720703125 L 20.433616638183594,14.405868530273438 L 20.70081329345703,14.556427001953125 L 20.79529571533203,14.284469604492188 L 20.74279022216797,14.452606201171875 L 20.68860626220703,14.746902465820312 L 20.742835998535156,14.60272216796875 L 20.793724060058594,14.297225952148438 L 20.793724060058594,13.9853515625 L 20.899940490722656,14.1087646484375 L 21.039695739746094,14.2896728515625 L 21.04529571533203,14.116744995117188 L 21.049232482910156,13.857574462890625 L 21.00006866455078,14.020904541015625 L 20.890541076660156,14.323196411132812 L 20.92967987060547,14.470565795898438 L 20.967140197753906,14.707382202148438 L 21.071678161621094,14.59674072265625 L 21.17621612548828,14.30242919921875 L 21.233802795410156,14.155059814453125 L 21.29138946533203,13.889495849609375 L 21.27074432373047,14.04644775390625 L 21.250099182128906,14.27685546875 L 21.250099182128906,14.539215087890625 L 21.39990997314453,14.5635986328125 L 21.588294982910156,14.542404174804688 L 21.78337860107422,14.462112426757812 L 21.657081604003906,14.377029418945312 L 21.503944396972656,14.291946411132812 L 21.332374572753906,14.291946411132812 L 21.487220764160156,14.291946411132812 L 21.64038848876953,14.3275146484375 L 21.495643615722656,14.388626098632812 L 21.256980895996094,14.452926635742188 L 20.895912170410156,14.474105834960938 L 20.529808044433594,14.299575805664062 L 20.053016662597656,14.16339111328125 L 19.61479949951172,14.337905883789062 L 19.48346710205078,14.541183471679688 L 19.75066375732422,14.655014038085938 L 20.23419952392578,14.767242431640625 L 20.69257354736328,14.557571411132812 L 20.986610412597656,14.28082275390625 L 20.84186553955078,14.197341918945312 L 20.591468811035156,14.134613037109375 L 20.24884796142578,14.087875366210938 L 20.05211639404297,14.418914794921875 L 19.971092224121094,14.292312622070312 L 19.81963348388672,14.097030639648438 L 19.515586853027344,13.90972900390625 L 19.33228302001953,14.180068969726562 L 19.42676544189453,14.410476684570312 L 19.590003967285156,14.381301879882812 L 19.927635192871094,14.380859375 L 20.20825958251953,14.443572998046875 L 20.20825958251953,14.608505249023438 L 20.230628967285156,14.822952270507812 L 20.424049377441406,14.693145751953125 L 20.713050842285156,14.548965454101562 L 20.85784149169922,14.503799438476562 L 21.190452575683594,14.495376586914062 L 21.36878204345703,14.415084838867188 L 21.78356170654297,14.406661987304688 L 21.73271942138672,14.22735595703125 L 21.644996643066406,14.003326416015625 L 21.46337127685547,14.003753662109375 L 21.400794982910156,14.176666259765625 L 21.279518127441406,14.45819091796875 L 21.30858612060547,14.310821533203125 L 21.33765411376953,14.126708984375 L 21.22644805908203,14.251724243164062 L 21.01294708251953,14.432632446289062 L 21.157737731933594,14.39227294921875 L 21.383018493652344,14.342330932617188 L 21.68041229248047,14.319534301757812 L 21.539024353027344,14.237655639648438 L 21.350685119628906,14.152572631835938 L 21.096946716308594,14.040328979492188 L 20.856605529785156,14.189285278320312 L 20.602867126464844,14.317474365234375 L 20.35582733154297,14.491989135742188 L 20.52074432373047,14.516372680664062 L 20.871788024902344,14.539154052734375 L 21.308372497558594,14.65936279296875 L 21.123390197753906,14.607818603515625 L 20.760643005371094,14.51953125 L 20.34758758544922,14.337020874023438 L 19.89427947998047,14.212020874023438 L 19.44432830810547,14.117355346679688 M 21.920921325683594,10.13287353515625 L 21.920921325683594,10.13287353515625 L 22.25017547607422,10.082931518554688 L 22.09703826904297,10.032989501953125 L 21.93384552001953,9.90478515625 L 21.757240295410156,9.653594970703125 L 21.908729553222656,9.597259521484375 L 22.26818084716797,9.537734985351562 L 22.24585723876953,9.375991821289062 L 22.178260803222656,9.159942626953125 L 22.11066436767578,8.94549560546875 L 22.35607147216797,8.862014770507812 L 22.829551696777344,8.884796142578125 L 22.66803741455078,8.884796142578125 L 22.486412048339844,8.884353637695312 L 22.244407653808594,8.804061889648438 L 22.38751983642578,8.754119873046875 L 22.62285614013672,8.704177856445312 L 22.95880889892578,8.526458740234375 L 22.820777893066406,8.463729858398438 L 22.66931915283203,8.402603149414062 L 22.489356994628906,8.344680786132812 L 22.63414764404297,8.262802124023438 L 22.971778869628906,8.164932250976562 L 23.04613494873047,7.929718017578125 L 22.894676208496094,7.884552001953125 L 22.657691955566406,7.8441925048828125 L 22.400596618652344,7.8421478271484375 L 22.495079040527344,7.7139434814453125 L 22.60297393798828,7.470733642578125 L 22.747764587402344,7.18121337890625 L 22.584571838378906,7.15362548828125 L 22.367713928222656,7.082916259765625 L 22.515846252441406,7.0329742431640625 L 22.71430206298828,6.9846343994140625 L 22.926170349121094,6.8931732177734375 L 22.78813934326172,6.8096923828125 L 22.54613494873047,6.724609375 L 22.27057647705078,6.6395263671875 L 22.331520080566406,6.4761810302734375 L 22.457862854003906,6.274505615234375 L 22.83910369873047,6.1207427978515625 L 22.642372131347656,6.1419219970703125 L 22.516075134277344,6.0536346435546875 L 22.285804748535156,5.9653472900390625 L 22.47083282470703,6.00408935546875 L 22.838661193847656,6.041259765625 L 22.526222229003906,6.1199493408203125 L 22.202049255371094,6.0827789306640625 L 22.27472686767578,5.94976806640625 L 22.342369079589844,5.7672576904296875 L 22.288185119628906,5.554412841796875 L 21.912025451660156,5.57879638671875 L 21.497291564941406,5.643096923828125 M 22.22144317626953,12.011459350585938 L 22.22144317626953,12.011459350585938 L 22.59764862060547,12.037445068359375 L 22.900062561035156,12.135299682617188 L 22.743568420410156,12.193222045898438 L 22.530067443847656,12.29266357421875 L 22.634605407714844,12.417678833007812 L 22.863243103027344,12.705596923828125 L 22.71849822998047,12.655654907226562 L 22.550270080566406,12.605712890625 L 22.698402404785156,12.631698608398438 L 22.92870330810547,12.6640625 L 23.314964294433594,12.69482421875 L 23.158470153808594,12.720809936523438 L 22.986900329589844,12.746795654296875 L 23.049522399902344,12.895751953125 L 23.236228942871094,13.174087524414062 L 23.381019592285156,13.23040771484375 L 23.232933044433594,13.183670043945312 L 23.061363220214844,13.135330200195312 L 23.21117401123047,13.183670043945312 L 23.527015686035156,13.284713745117188 L 23.404075622558594,13.374588012695312 L 23.22077178955078,13.542724609375 L 23.37226104736328,13.565505981445312 L 23.56232452392578,13.588287353515625 L 23.75238800048828,13.611068725585938 L 23.58751678466797,13.637054443359375 L 23.337120056152344,13.885040283203125 L 23.386329650878906,14.03399658203125 L 23.49254608154297,14.21649169921875 L 23.734596252441406,14.344680786132812 L 23.569725036621094,14.35308837890625 L 23.374671936035156,14.356704711914062 L 23.511070251464844,14.45135498046875 L 23.758155822753906,14.550796508789062 L 23.983436584472656,14.680587768554688 L 23.83702850341797,14.738510131835938 L 23.646995544433594,14.839553833007812 L 23.440208435058594,14.988510131835938 L 23.57158660888672,15.078384399414062 L 23.741539001464844,15.179428100585938 L 23.94670867919922,15.314010620117188 L 23.79694366455078,15.352752685546875 L 23.55158233642578,15.479339599609375 L 23.25255584716797,15.430999755859375 L 23.193336486816406,15.62786865234375 L 23.341468811035156,15.882247924804688 L 23.23194122314453,16.131820678710938 L 22.953041076660156,16.197723388671875 L 22.714378356933594,16.324310302734375 L 22.69037628173828,16.570709228515625 L 22.540611267089844,16.590301513671875 L 22.34722137451172,16.619461059570312 L 22.13036346435547,16.717315673828125" fill="none" stroke="#000000" stroke-width="1"/>
	<path d="M 11.783317565917969,6.66644287109375 L 11.783317565917969,6.66644287109375 L 11.603355407714844,6.815399169921875 L 11.331153869628906,7.045806884765625 L 11.280311584472656,7.493438720703125 L 11.450263977050781,7.9921875 L 11.660453796386719,8.489334106445312 L 11.904182434082031,8.97210693359375 L 12.169700622558594,9.440505981445312 L 12.435218811035156,9.908905029296875 L 12.315620422363281,10.033920288085938 L 12.085350036621094,10.26593017578125 L 11.912101745605469,10.587387084960938 L 12.045158386230469,10.995086669921875 L 12.340873718261719,11.442718505859375 L 12.651679992675781,11.887161254882812 L 12.501914978027344,11.924331665039062 L 12.293449401855469,12.023773193359375 L 12.024604797363281,12.33404541015625 L 11.940223693847656,12.834030151367188 L 12.006187438964844,13.334014892578125 L 12.154319763183594,13.833999633789062 L 12.302452087402344,14.333984375 L 12.576362609863281,14.711349487304688 L 12.404792785644531,14.716552734375 L 12.161109924316406,14.716552734375 L 11.836936950683594,14.700149536132812 L 11.472511291503906,14.607086181640625 L 11.020881652832031,14.41339111328125 L 10.554161071777344,14.189361572265625 L 10.174644470214844,13.808807373046875 L 9.917549133300781,13.342010498046875 L 9.705726623535156,12.856033325195312 L 9.599555969238281,12.356033325195312 L 9.550392150878906,11.856033325195312 L 9.506263732910156,11.356033325195312 L 9.472190856933594,10.856033325195312 L 9.443168640136719,10.356033325195312 L 9.429222106933594,9.856033325195312 L 9.418632507324219,9.356033325195312 L 9.492988586425781,8.856033325195312 L 9.637779235839844,8.356033325195312 L 9.836235046386719,7.8560333251953125 L 10.212440490722656,7.4786529541015625 L 10.585289001464844,7.0996856689453125 L 10.958137512207031,6.7207183837890625 L 11.453407287597656,6.724334716796875 L 11.697135925292969,6.78863525390625 M 11.023246765136719,8.57330322265625 L 11.023246765136719,8.57330322265625 L 11.080833435058594,8.837265014648438 L 11.138420104980469,9.145950317382812 L 11.154090881347656,9.453033447265625 L 11.093193054199219,9.760116577148438 L 10.921623229980469,10.065597534179688 L 10.693016052246094,10.385452270507812 L 10.610313415527344,10.75640869140625 L 10.802055358886719,11.068283081054688 L 10.837837219238281,11.222030639648438 L 10.875297546386719,11.484390258789062 L 10.911079406738281,11.812225341796875 L 10.946861267089844,12.140060424804688 L 11.096672058105469,12.383255004882812 L 11.261589050292969,12.629653930664062 L 11.419776916503906,12.906387329101562 L 11.520957946777344,13.184722900390625 L 11.630531311035156,13.431121826171875" fill="none" stroke="#000000" stroke-width="1"/>
</svg>
