<?xml version="1.0" ?>
<svg baseProfile="full" height="195mm" version="1.1" viewBox="0 0 27.5 19.5" width="275mm" xmlns="http://www.w3.org/2000/svg" xmlns:ev="http://www.w3.org/2001/xml-events" xmlns:xlink="http://www.w3.org/1999/xlink">
	<defs/>
	<path d="M 17.70317840576172,12.987777709960938 L 17.70317840576172,12.987777709960938 L 17.51819610595703,13.261322021484375 L 17.220848083496094,13.707366943359375 L 16.923500061035156,14.153411865234375 L 16.595970153808594,14.597854614257812 L 16.266761779785156,15.031112670898438 L 15.818489074707031,15.306243896484375 L 15.318504333496094,15.362564086914062 L 14.818519592285156,15.279083251953125 L 14.408821105957031,14.9783935546875 L 14.041038513183594,14.620193481445312 L 13.844306945800781,14.164566040039062 L 13.796821594238281,13.665802001953125 L 13.830924987792969,13.165802001953125 L 13.901924133300781,12.667037963867188 L 14.309989929199219,12.35833740234375 L 14.751609802246094,12.706939697265625 L 14.981910705566406,13.19610595703125" fill="none" stroke="#000000" stroke-width="1"/>
	<path d="M 21.41535186767578,10.129669189453125 L 21.41535186767578,10.129669189453125 L 21.638954162597656,9.769866943359375 L 21.916221618652344,9.331802368164062 L 22.17168426513672,8.847427368164062 L 22.26616668701172,8.347427368164062 L 22.20024871826172,7.8474273681640625 L 22.08232879638672,7.3582611083984375 L 21.930870056152344,6.8738861083984375 L 21.74083709716797,6.40228271484375 L 21.53069305419922,5.9434661865234375 L 21.085777282714844,5.690673828125 L 20.585792541503906,5.5640716552734375 L 20.08580780029297,5.5093231201171875 L 19.58582305908203,5.6902313232421875 L 19.17780303955078,6.067596435546875 L 18.902244567871094,6.5279998779296875 L 18.72228240966797,7.021942138671875 L 18.602684020996094,7.5219268798828125 L 18.580360412597656,8.02191162109375 L 18.632911682128906,8.521896362304688 L 18.745826721191406,9.021881103515625 L 18.999610900878906,9.482284545898438 L 19.32886505126953,9.882003784179688 L 19.696693420410156,10.257766723632812 L 20.16010284423828,10.508941650390625 L 20.66010284423828,10.576446533203125 L 21.16010284423828,10.623184204101562 L 21.626853942871094,10.360809326171875 L 21.70623016357422,9.860809326171875 M 21.108863830566406,7.592071533203125 L 21.108863830566406,7.592071533203125 L 21.14128875732422,7.092071533203125 L 20.64130401611328,6.9095611572265625 L 20.141319274902344,7.0361480712890625 L 19.662864685058594,7.30010986328125 L 19.474525451660156,7.798858642578125 L 19.657875061035156,8.286422729492188 L 19.92675018310547,8.732467651367188 L 20.267738342285156,9.130584716796875 L 20.767738342285156,9.029525756835938 L 21.10369110107422,8.628204345703125 L 21.061241149902344,8.128204345703125 L 20.98021697998047,7.628204345703125 L 20.892494201660156,7.128204345703125 M 20.225730895996094,8.063385009765625 L 20.225730895996094,8.063385009765625 L 20.56671905517578,7.7850341796875 L 20.39514923095703,7.849334716796875 L 19.98377227783203,8.181976318359375 L 20.012840270996094,7.9994659423828125 L 20.157630920410156,7.5725860595703125 L 20.053138732910156,7.4395751953125 L 19.96875762939453,7.1564483642578125 L 20.10515594482422,7.377288818359375 L 20.30864715576172,7.8137359619140625 L 20.43163299560547,7.92596435546875 L 20.61833953857422,8.153182983398438 M 20.787437438964844,12.392166137695312 L 20.787437438964844,12.392166137695312 L 20.31232452392578,12.125 L 19.87578582763672,11.817901611328125 L 19.37580108642578,12.049911499023438 L 18.976158142089844,12.430465698242188 L 18.646949768066406,12.873306274414062 L 18.347923278808594,13.319351196289062 L 18.20317840576172,13.816497802734375 L 18.28087615966797,14.316482543945312 L 18.38709259033203,14.81646728515625 L 18.493309020996094,15.316452026367188 L 18.680015563964844,15.810394287109375 L 18.873435974121094,16.302749633789062 L 19.15070343017578,16.748794555664062 L 19.62920379638672,16.947265625 L 20.12920379638672,16.945220947265625 L 20.62920379638672,16.821792602539062 L 21.02050018310547,16.482757568359375 L 21.346397399902344,16.079833984375 L 21.642112731933594,15.660934448242188 L 21.822120666503906,15.178146362304688 L 21.78974151611328,14.688980102539062 L 21.673500061035156,14.199813842773438 L 21.54552459716797,13.713836669921875 L 21.412513732910156,13.227859497070312 L 21.279502868652344,12.74188232421875 L 21.14649200439453,12.255905151367188 M 20.164573669433594,14.590774536132812 L 20.164573669433594,14.590774536132812 L 20.26073455810547,14.090774536132812 L 20.193138122558594,13.590774536132812 L 19.749900817871094,13.312423706054688 L 19.42572784423828,13.758468627929688 L 19.48499298095703,14.258453369140625 L 19.54425811767578,14.758438110351562 L 19.620277404785156,15.2584228515625 L 20.056861877441406,15.576675415039062 L 20.178184509277344,15.082717895507812 L 19.89928436279297,14.646255493164062 M 19.71935272216797,14.200942993164062 L 19.71935272216797,14.200942993164062 L 19.98822784423828,13.74371337890625 L 19.920631408691406,14.109893798828125 L 20.09728240966797,14.609878540039062 L 19.99614715576172,14.795578002929688 L 19.60320281982422,15.164962768554688 L 19.574180603027344,15.014389038085938 L 19.530052185058594,14.514389038085938" fill="none" stroke="#000000" stroke-width="1"/>
	<path d="M 12.053474426269531,14.980514526367188 L 12.053474426269531,14.980514526367188 L 11.585075378417969,14.721343994140625 L 11.207237243652344,14.37750244140625 L 10.970252990722656,13.957000732421875 L 10.843955993652344,13.491775512695312 L 10.843955993652344,13.008987426757812 L 10.884757995605469,12.526199340820312 L 10.925559997558594,12.043411254882812 L 10.966361999511719,11.560623168945312 L 11.007164001464844,11.077835083007812 L 11.047966003417969,10.595046997070312 L 11.238029479980469,10.131423950195312 L 11.592445373535156,9.792388916015625 L 11.953559875488281,9.47412109375 L 12.376716613769531,9.222930908203125 L 12.838447570800781,9.1314697265625 L 13.296821594238281,9.428970336914062 L 12.796836853027344,9.385406494140625 L 12.296852111816406,9.341842651367188 L 11.796867370605469,9.29827880859375 L 11.296882629394531,9.254714965820312 L 10.796897888183594,9.211151123046875 L 10.296913146972656,9.167587280273438 L 9.796928405761719,9.195159912109375 L 9.296943664550781,9.320175170898438 L 8.796958923339844,9.4451904296875 L 8.296974182128906,9.57177734375 L 7.796989440917969,9.6983642578125 L 7.316856384277344,9.94476318359375 L 6.915534973144531,10.271011352539062 L 6.515892028808594,10.598846435546875 L 6.131340026855469,10.973007202148438 L 5.882621765136719,11.420639038085938 L 5.764701843261719,11.916183471679688 L 5.678642272949219,12.414932250976562 L 5.595939636230469,12.913681030273438 L 5.863136291503906,13.35333251953125 L 6.299720764160156,13.537429809570312 L 6.736305236816406,13.721527099609375 L 7.172889709472656,13.904022216796875 L 7.609474182128906,14.086517333984375 L 8.046058654785156,14.269012451171875 L 8.492698669433594,14.409988403320312 L 8.951072692871094,14.469512939453125 L 9.409446716308594,14.529037475585938 L 9.869499206542969,14.582168579101562 L 10.331230163574219,14.635299682617188 L 10.794639587402344,14.698013305664062 L 11.258049011230469,14.797454833984375 L 11.721458435058594,14.896896362304688 L 12.184867858886719,15.0123291015625 M 8.514991760253906,14.25537109375 L 8.514991760253906,14.25537109375 L 8.175727844238281,13.855636596679688 L 7.890113830566406,13.407989501953125 L 7.720222473144531,12.94757080078125 L 7.659324645996094,12.466384887695312 L 7.686729431152344,11.983596801757812 L 7.715797424316406,11.500808715820312 L 7.768348693847656,11.018020629882812 L 7.894691467285156,10.535232543945312 L 8.163566589355469,10.119537353515625 L 8.506233215332031,9.770919799804688 L 8.858955383300781,9.425506591796875" fill="none" stroke="#000000" stroke-width="1"/>
</svg>
