<?xml version="1.0" ?>
<svg baseProfile="full" height="195mm" version="1.1" viewBox="0 0 27.5 19.5" width="275mm" xmlns="http://www.w3.org/2000/svg" xmlns:ev="http://www.w3.org/2001/xml-events" xmlns:xlink="http://www.w3.org/1999/xlink">
	<defs/>
	<path d="M 16.663185119628906,11.363906860351562 L 16.663185119628906,11.363906860351562 L 16.63080596923828,11.181396484375 L 16.563209533691406,10.930206298828125 L 16.465415954589844,10.675811767578125 L 16.357566833496094,10.423019409179688 L 16.17760467529297,10.163848876953125 L 15.905403137207031,9.979736328125 L 15.561103820800781,9.902633666992188 L 15.168159484863281,9.997283935546875 L 14.760139465332031,10.256439208984375 L 14.466148376464844,10.649765014648438 L 14.395195007324219,11.14691162109375 L 14.481300354003906,11.646896362304688 L 14.771980285644531,11.957168579101562 L 15.062660217285156,12.086959838867188 L 14.978279113769531,12.213546752929688 L 14.892219543457031,12.391250610351562 L 14.782691955566406,12.706314086914062 L 14.795005798339844,12.872848510742188 L 14.808998107910156,13.101669311523438 L 14.843101501464844,13.376800537109375 L 14.905723571777344,13.650344848632812 L 14.985099792480469,13.927078247070312 L 15.253974914550781,14.21820068359375 L 15.677131652832031,14.39910888671875 L 16.147239685058594,14.352371215820312 L 16.613990783691406,14.101181030273438 L 16.996910095214844,13.7525634765625 L 17.10480499267578,13.2681884765625 L 17.043907165527344,12.7681884765625 L 16.872337341308594,12.2681884765625 L 16.63703155517578,11.997833251953125" fill="none" stroke="#000000" stroke-width="1"/>
	<path d="M 21.18671417236328,8.826934814453125 L 21.18671417236328,8.826934814453125 L 21.19567108154297,8.326934814453125 L 20.72895050048828,8.070938110351562 L 20.228965759277344,8.059326171875 L 19.728981018066406,8.047714233398438 L 19.22899627685547,8.037689208984375 L 18.72901153564453,8.135543823242188 L 18.229026794433594,8.284500122070312 L 17.79584503173828,8.617141723632812 L 17.753395080566406,9.11712646484375 L 17.98705291748047,9.60308837890625 L 18.359901428222656,9.991622924804688 L 18.818275451660156,10.230026245117188 L 19.311866760253906,10.29913330078125 L 19.81049346923828,10.312332153320312 L 20.28899383544922,10.228851318359375 L 20.75072479248047,10.039947509765625 L 21.150413513183594,9.748825073242188 L 21.39582061767578,9.318740844726562 L 21.50035858154297,8.831161499023438 L 21.35729217529297,8.338790893554688 L 20.99956512451172,7.9518280029296875 M 18.36449432373047,9.207717895507812 L 18.36449432373047,9.207717895507812 L 18.609901428222656,8.747299194335938 L 19.011268615722656,9.115081787109375 L 19.291893005371094,9.564300537109375 L 18.85199737548828,9.868179321289062 L 18.352012634277344,9.821441650390625 L 17.96074676513672,9.4840087890625 L 18.15081024169922,8.9996337890625 L 18.547142028808594,8.703720092773438 L 19.044090270996094,8.674545288085938 L 19.463890075683594,8.996002197265625 L 19.52985382080078,9.495986938476562 L 19.177162170410156,9.9036865234375 L 18.67717742919922,10.086181640625 L 18.202064514160156,9.862152099609375 L 17.80577850341797,9.553451538085938 L 17.635887145996094,9.077056884765625 L 18.02550506591797,8.768356323242188 L 18.49561309814453,8.614593505859375 L 18.98082733154297,8.793899536132812 L 19.39392852783203,9.116958618164062 L 19.589012145996094,9.601318359375 L 19.29334259033203,10.04736328125 L 18.848426818847656,10.335281372070312 L 18.34844207763672,10.393203735351562 M 21.270912170410156,8.299362182617188 L 21.270912170410156,8.299362182617188 L 21.439186096191406,7.7993621826171875 L 21.879127502441406,7.5337982177734375 L 22.35930633544922,7.53582763671875 M 21.517066955566406,8.7896728515625 L 21.517066955566406,8.7896728515625 L 21.780921936035156,8.308486938476562 L 22.256080627441406,8.137161254882812 L 22.746315002441406,8.158340454101562 M 20.725440979003906,7.9557952880859375 L 20.725440979003906,7.9557952880859375 L 20.599143981933594,7.4557952880859375 L 20.935096740722656,7.0384979248046875 L 21.40857696533203,6.870361328125 L 21.90552520751953,6.8963470458984375 M 21.66382598876953,12.73358154296875 L 21.66382598876953,12.73358154296875 L 21.478843688964844,12.242813110351562 L 21.106040954589844,11.873428344726562 L 20.606056213378906,11.834671020507812 L 20.10607147216797,11.836700439453125 L 19.60608673095703,11.838729858398438 L 19.106101989746094,11.84075927734375 L 18.64441680908203,12.0887451171875 L 18.26490020751953,12.4788818359375 L 17.897117614746094,12.872207641601562 L 17.60480499267578,13.319839477539062 L 17.845191955566406,13.788238525390625 L 18.264991760253906,14.103302001953125 L 18.730079650878906,14.3193359375 L 19.195167541503906,14.535369873046875 L 19.68708038330078,14.634811401367188 L 20.163917541503906,14.509811401367188 L 20.55017852783203,14.19952392578125 L 20.924705505371094,13.892425537109375 L 21.37134552001953,13.679580688476562 L 21.834754943847656,13.495468139648438 L 22.031517028808594,13.047821044921875 L 21.86664581298828,12.566635131835938 L 21.366661071777344,12.471969604492188 M 19.043724060058594,12.777420043945312 L 19.043724060058594,12.777420043945312 L 19.543724060058594,12.840133666992188 L 19.352012634277344,13.324493408203125 L 18.90373992919922,13.60760498046875 L 18.48230743408203,13.300506591796875 L 18.51641082763672,12.808135986328125 L 18.941246032714844,12.555343627929688 L 19.441246032714844,12.613265991210938 L 19.710121154785156,13.059310913085938 L 19.411094665527344,13.503753662109375 L 18.911109924316406,13.628768920898438 L 18.41112518310547,13.497360229492188 L 18.211036682128906,13.057693481445312 L 18.498374938964844,12.640396118164062 L 18.98358917236328,12.588851928710938 L 19.47382354736328,12.785720825195312 L 19.74102020263672,13.234939575195312 L 19.51410675048828,13.716110229492188 L 19.037315368652344,13.919387817382812 L 18.537330627441406,13.853469848632812 L 18.06725311279297,13.664566040039062 L 17.665931701660156,13.363876342773438 L 17.798988342285156,12.869918823242188 L 18.25568389892578,12.668243408203125 L 18.623512268066406,13.058380126953125 L 18.247352600097656,13.4437255859375 L 17.74736785888672,13.610260009765625 L 17.730079650878906,13.110260009765625 L 18.071067810058594,12.7552490234375 L 18.568016052246094,12.705307006835938 L 19.068016052246094,12.731292724609375 L 19.568016052246094,12.953720092773438 L 19.63397979736328,13.453704833984375 L 19.160545349121094,13.728836059570312 L 18.660560607910156,13.632568359375 L 18.277687072753906,13.31109619140625 L 17.997108459472656,12.901779174804688 L 18.18213653564453,12.406219482421875 L 18.655616760253906,12.266830444335938 L 19.11566925048828,12.546768188476562 M 21.723350524902344,13.456451416015625 L 21.723350524902344,13.456451416015625 L 21.89330291748047,13.956436157226562 L 22.33324432373047,14.237960815429688 L 22.83324432373047,14.302261352539062 M 21.302024841308594,14.39007568359375 L 21.302024841308594,14.39007568359375 L 21.591026306152344,14.83929443359375 L 22.066184997558594,15.01220703125 M 20.56835174560547,14.7808837890625 L 20.56835174560547,14.7808837890625 L 20.90766143798828,15.190185546875 L 21.384498596191406,15.3726806640625" fill="none" stroke="#000000" stroke-width="1"/>
	<path d="M 13.834770202636719,6.7613525390625 L 13.834770202636719,6.7613525390625 L 13.334785461425781,6.7146148681640625 L 12.834800720214844,6.667877197265625 L 12.334815979003906,6.6211395263671875 L 11.834831237792969,6.6031341552734375 L 11.334846496582031,6.5547943115234375 L 10.834861755371094,6.508056640625 L 10.334877014160156,6.4613189697265625 L 10.300804138183594,6.7093048095703125 L 10.288536071777344,7.20928955078125 L 10.276268005371094,7.7092742919921875 L 10.262321472167969,8.209259033203125 L 10.248374938964844,8.709243774414062 L 10.234428405761719,9.209228515625 L 10.220481872558594,9.709213256835938 L 10.208213806152344,10.209197998046875 L 10.195945739746094,10.709182739257812 L 10.183677673339844,11.20916748046875 L 10.171409606933594,11.709152221679688 L 10.159141540527344,12.209136962890625 L 10.146873474121094,12.709121704101562 L 10.134605407714844,13.2091064453125 L 10.122337341308594,13.709091186523438 L 10.110069274902344,14.209075927734375 L 10.097801208496094,14.709060668945312 L 10.085533142089844,15.20904541015625 L 10.560691833496094,15.162307739257812 L 11.035850524902344,15.115570068359375 L 11.511009216308594,15.067230224609375 L 11.987846374511719,15.020492553710938 L 12.464683532714844,14.9737548828125 L 12.941520690917969,14.927017211914062 L 13.418357849121094,14.880279541015625 L 13.895195007324219,14.831939697265625 L 13.872871398925781,14.649429321289062 L 13.848869323730469,14.149429321289062 L 13.826545715332031,13.649429321289062 L 13.804222106933594,13.149429321289062 L 13.780220031738281,12.649429321289062 L 13.756217956542969,12.149429321289062 L 13.732215881347656,11.649429321289062 L 13.708213806152344,11.149429321289062 L 13.685890197753906,10.649429321289062 L 13.663566589355469,10.149429321289062 L 13.639564514160156,9.649429321289062 L 13.661933898925781,9.149429321289062 L 13.687660217285156,8.649429321289062 L 13.711708068847656,8.149429321289062 L 13.735755920410156,7.6494293212890625 L 13.806755065917969,7.1494293212890625 L 13.882774353027344,6.6494293212890625 M 12.248695373535156,6.9318084716796875 L 12.248695373535156,6.9318084716796875 L 12.269386291503906,7.3874359130859375 L 12.290077209472656,7.887420654296875 L 12.310768127441406,8.387405395507812 L 12.283409118652344,8.88739013671875 L 12.252708435058594,9.387374877929688 L 12.222007751464844,9.887359619140625 L 12.191307067871094,10.387344360351562 L 12.160606384277344,10.8873291015625 L 12.129905700683594,11.387313842773438 L 12.097526550292969,11.887298583984375 L 12.071846008300781,12.387283325195312 L 12.102592468261719,12.88726806640625 L 12.138374328613281,13.387252807617188 L 12.234535217285156,13.887237548828125 L 12.268638610839844,14.387222290039062 L 12.302742004394531,14.88720703125 M 13.212852478027344,12.7418212890625 L 13.212852478027344,12.7418212890625 L 12.712867736816406,12.701461791992188 L 12.212882995605469,12.661102294921875 M 12.922065734863281,10.554092407226562 L 12.922065734863281,10.554092407226562 L 12.422080993652344,10.4674072265625 M 13.110267639160156,8.368759155273438 L 13.110267639160156,8.368759155273438 L 12.610282897949219,8.307632446289062 M 11.427879333496094,7.6015472412109375 L 11.427879333496094,7.6015472412109375 L 10.927894592285156,7.5308380126953125 L 10.427909851074219,7.4601287841796875 M 10.829307556152344,9.012680053710938 L 10.829307556152344,9.012680053710938 L 11.312843322753906,9.097747802734375 L 11.799736022949219,9.16845703125 M 11.149269104003906,11.643997192382812 L 11.149269104003906,11.643997192382812 L 10.649284362792969,11.627593994140625 M 11.510795593261719,13.742462158203125 L 11.510795593261719,13.742462158203125 L 11.010810852050781,13.742889404296875 L 10.510826110839844,13.743316650390625" fill="none" stroke="#000000" stroke-width="1"/>
</svg>
