<?xml version="1.0" ?>
<svg baseProfile="full" height="195mm" version="1.1" viewBox="0 0 27.5 19.5" width="275mm" xmlns="http://www.w3.org/2000/svg" xmlns:ev="http://www.w3.org/2001/xml-events" xmlns:xlink="http://www.w3.org/1999/xlink">
	<defs/>
	<path d="M 17.433273315429688,10.592071533203125 L 17.433273315429688,10.592071533203125 L 17.023574829101562,10.68353271484375 L 16.523590087890625,10.811721801757812 L 16.023605346679688,10.589279174804688 L 15.545150756835938,10.328506469726562 L 15.045166015625,10.362472534179688 L 14.545181274414062,10.444351196289062 L 14.066726684570312,10.703506469726562 M 14.216537475585938,10.780593872070312 L 14.216537475585938,10.780593872070312 L 14.708450317382812,10.919967651367188 L 15.108139038085938,11.060943603515625" fill="none" stroke="#000000" stroke-width="1"/>
	<path d="M 19.755355834960938,8.084121704101562 L 19.755355834960938,8.084121704101562 L 19.612289428710938,7.9191741943359375 L 19.417236328125,7.73345947265625 L 19.031005859375,7.86004638671875 L 18.560928344726562,8.122406005859375 L 18.375946044921875,8.62115478515625 L 18.376510620117188,9.121139526367188 L 18.61016845703125,9.616683959960938 L 19.06854248046875,9.888626098632812 L 19.553756713867188,9.91619873046875 L 20.018844604492188,9.703353881835938 L 20.351455688476562,9.324386596679688 L 20.332489013671875,8.832015991210938 L 20.17767333984375,8.349227905273438 L 19.724365234375,8.10601806640625 L 19.2425537109375,8.3555908203125 M 19.626296997070312,12.09228515625 L 19.626296997070312,12.09228515625 L 19.31719970703125,12.12945556640625 L 18.880661010742188,12.455703735351562 L 18.44915771484375,12.785140991210938 L 18.064605712890625,13.160903930664062 L 17.933273315429688,13.65484619140625 L 17.950607299804688,14.148788452148438 L 18.05682373046875,14.641143798828125 L 18.474960327148438,14.889129638671875 L 18.92327880859375,15.081222534179688 L 19.400115966796875,15.115188598632812 L 19.887008666992188,14.985382080078125 L 20.35711669921875,14.769332885742188 L 20.755126953125,14.46063232421875 L 21.111221313476562,14.104034423828125 L 21.125213623046875,13.619659423828125 L 20.941909790039062,13.149658203125 L 20.510406494140625,12.877700805664062 L 20.040328979492188,12.671234130859375 L 19.558517456054688,12.498306274414062 L 19.168930053710938,12.186431884765625 M 20.051437377929688,13.782913208007812 L 20.051437377929688,13.782913208007812 L 20.088897705078125,13.282913208007812 L 19.617141723632812,13.530899047851562 L 19.442214965820312,14.0308837890625 L 19.880477905273438,14.357131958007812 L 19.993392944335938,13.872756958007812 M 19.696304321289062,8.830886840820312 L 19.696304321289062,8.830886840820312 L 19.581741333007812,8.483871459960938 L 19.267623901367188,8.432327270507812 L 18.904876708984375,8.825653076171875 L 19.162017822265625,9.313217163085938 L 19.648910522460938,9.167434692382812 L 19.706497192382812,8.667434692382812" fill="none" stroke="#000000" stroke-width="1"/>
	<path d="M 9.660781860351562,14.058761596679688 L 9.660781860351562,14.058761596679688 L 9.568023681640625,13.874649047851562 L 9.4903564453125,13.422210693359375 L 9.521102905273438,12.922210693359375 L 9.717864990234375,12.422210693359375 L 9.963272094726562,11.93304443359375 L 10.069488525390625,11.43304443359375 L 10.138809204101562,10.93304443359375 L 10.179611206054688,10.43304443359375 L 10.220413208007812,9.93304443359375 L 10.329986572265625,9.43304443359375 L 10.451309204101562,8.93304443359375 L 10.621261596679688,8.43304443359375 L 10.811325073242188,7.93304443359375 L 11.003067016601562,7.43304443359375 L 11.191452026367188,6.9518585205078125 L 11.369781494140625,6.4518585205078125 L 11.425689697265625,5.9518585205078125 M 13.566726684570312,7.889007568359375 L 13.566726684570312,7.889007568359375 L 13.13018798828125,8.026779174804688 L 12.630203247070312,8.2012939453125 L 12.130218505859375,8.2879638671875 L 11.630233764648438,8.234817504882812 L 11.1302490234375,8.181671142578125 L 10.630264282226562,8.128524780273438 L 10.130279541015625,8.07537841796875 L 9.630294799804688,8.0965576171875 L 9.13031005859375,8.178436279296875 L 8.630325317382812,8.26031494140625 M 9.585723876953125,9.62762451171875 L 9.585723876953125,9.62762451171875 L 9.955230712890625,9.529754638671875 L 10.430389404296875,9.403152465820312 L 10.927337646484375,9.378768920898438 L 11.424285888671875,9.475021362304688 L 11.9195556640625,9.576065063476562 L 12.414825439453125,9.677108764648438 M 11.169830322265625,10.758071899414062 L 11.169830322265625,10.758071899414062 L 10.669845581054688,10.918197631835938 L 10.16986083984375,11.078323364257812 L 9.669876098632812,11.10589599609375 L 9.169891357421875,11.130279541015625 M 9.415985107421875,12.41168212890625 L 9.415985107421875,12.41168212890625 L 9.753616333007812,12.320220947265625 L 10.227096557617188,12.46759033203125 L 10.700576782226562,12.634124755859375 M 10.041122436523438,13.924758911132812 L 10.041122436523438,13.924758911132812 L 9.649856567382812,14.102462768554688 L 9.169723510742188,14.332870483398438 L 8.66973876953125,14.464263916015625" fill="none" stroke="#000000" stroke-width="1"/>
</svg>
