<?xml version="1.0" ?>
<svg baseProfile="full" height="195mm" version="1.1" viewBox="0 0 27.5 19.5" width="275mm" xmlns="http://www.w3.org/2000/svg" xmlns:ev="http://www.w3.org/2001/xml-events" xmlns:xlink="http://www.w3.org/1999/xlink">
	<defs/>
	<path d="M 17.812705993652344,10.653732299804688 L 17.812705993652344,10.653732299804688 L 17.312721252441406,10.5638427734375 L 16.81273651123047,10.477157592773438 L 16.31275177001953,10.392074584960938 L 15.812767028808594,10.303787231445312 L 15.312782287597656,10.199539184570312 M 18.02623748779297,11.879074096679688 L 18.02623748779297,11.879074096679688 L 17.54778289794922,12.111083984375 L 17.04779815673828,12.208938598632812 L 16.547813415527344,12.130233764648438 L 16.047828674316406,12.049942016601562 L 15.547843933105469,12.020767211914062 L 15.047859191894531,12.169723510742188 M 15.851173400878906,12.623397827148438 L 15.851173400878906,12.623397827148438 L 15.604133605957031,13.08380126953125 L 15.104148864746094,13.234359741210938 L 14.604164123535156,13.1907958984375 L 14.104179382324219,13.09613037109375 L 13.689445495605469,12.744308471679688 L 13.506141662597656,12.258331298828125 L 13.473762512207031,11.758331298828125 L 13.474327087402344,11.258331298828125 L 13.495018005371094,10.758331298828125 L 13.519065856933594,10.258331298828125 L 13.543113708496094,9.758331298828125 L 13.647651672363281,9.258331298828125 L 13.986961364746094,8.895339965820312 L 14.329627990722656,8.524368286132812 L 14.829627990722656,8.612640380859375 L 15.279624938964844,8.873397827148438 L 15.727943420410156,9.138946533203125 L 16.171226501464844,9.402908325195312" fill="none" stroke="#000000" stroke-width="1"/>
	<path d="M 19.76061248779297,9.577789306640625 L 19.76061248779297,9.577789306640625 L 20.08148956298828,9.451187133789062 L 20.34534454345703,9.308609008789062 L 20.40460968017578,9.15484619140625 L 20.50244903564453,8.902053833007812 L 20.36273956298828,8.614120483398438 L 20.243141174316406,8.326187133789062 L 20.11516571044922,8.0494384765625 L 19.896644592285156,7.854156494140625 L 19.664695739746094,7.7003936767578125 M 19.546775817871094,7.798248291015625 L 19.546775817871094,7.798248291015625 L 19.37854766845703,7.904083251953125 L 19.109703063964844,8.0802001953125 L 19.16393280029297,8.259506225585938 L 19.221519470214844,8.457977294921875 L 19.319358825683594,8.774642944335938 L 19.449058532714844,9.171173095703125 L 19.578758239746094,9.567703247070312 M 19.520896911621094,12.155044555664062 L 19.520896911621094,12.155044555664062 L 19.710960388183594,12.30560302734375 L 19.90772247314453,12.625457763671875 L 20.022315979003906,12.72650146484375 L 20.222450256347656,12.881851196289062 L 20.281715393066406,13.323089599609375 L 20.24933624267578,13.4720458984375 L 20.086143493652344,13.812667846679688 L 19.894432067871094,14.047882080078125 L 19.72454071044922,14.124969482421875 L 19.388633728027344,14.315460205078125 L 19.24724578857422,14.241561889648438 L 18.96331024169922,14.11175537109375 L 18.572044372558594,13.929244995117188 L 18.52623748779297,13.51513671875 L 18.62909698486328,13.01513671875 L 18.95331573486328,12.575469970703125 L 19.270835876464844,12.123031616210938 L 19.665504455566406,11.76483154296875 M 19.87688446044922,8.946136474609375 L 19.87688446044922,8.946136474609375 L 19.93950653076172,8.76202392578125 L 19.86351776123047,8.383056640625 L 19.73889923095703,8.476119995117188 L 19.51702117919922,8.851882934570312 L 19.56957244873047,9.03118896484375 L 19.846839904785156,9.413330078125 M 19.25171661376953,12.69873046875 L 19.25171661376953,12.69873046875 L 19.35625457763672,13.064910888671875 L 19.46247100830078,12.935104370117188 L 19.83531951904297,12.575302124023438 L 19.67548370361328,12.517379760742188 L 19.399925231933594,12.459457397460938 L 19.33734893798828,12.637161254882812 L 19.019874572753906,13.083206176757812" fill="none" stroke="#000000" stroke-width="1"/>
	<path d="M 11.782875061035156,7.487396240234375 L 11.782875061035156,7.487396240234375 L 11.837104797363281,7.8519744873046875 L 11.916481018066406,7.9865570068359375 L 11.997550964355469,8.135513305664062 L 12.102088928222656,8.397872924804688 L 12.208305358886719,8.673004150390625 L 12.314521789550781,8.948135375976562 L 12.420738220214844,9.2232666015625 L 12.528633117675781,9.498397827148438 L 12.636528015136719,9.771942138671875 L 12.648841857910156,10.047073364257812 L 12.654441833496094,10.32220458984375 L 12.622062683105469,10.59893798828125 L 12.470603942871094,10.7894287109375 L 12.528190612792969,10.928802490234375 L 12.585777282714844,11.074569702148438 L 12.646720886230469,11.365692138671875 L 12.784797668457031,11.615264892578125 L 12.912818908691406,11.882415771484375 L 12.973762512207031,12.197479248046875 L 12.787101745605469,12.530120849609375 L 12.545097351074219,12.865951538085938 L 12.277931213378906,13.23052978515625 L 11.990638732910156,13.59991455078125 L 11.698326110839844,13.975677490234375 L 11.466377258300781,14.416915893554688 L 11.356849670410156,14.864547729492188 L 11.352973937988281,14.712387084960938 L 11.349098205566406,14.529876708984375 L 11.335151672363281,14.294662475585938 L 11.304450988769531,14.021102905273438 L 11.265342712402344,13.741165161132812 L 11.241340637207031,13.434066772460938 L 11.219017028808594,13.1253662109375 L 11.191658020019531,12.816665649414062 L 11.134117126464844,12.458465576171875 L 11.048057556152344,12.077911376953125 L 10.955299377441406,11.697357177734375 L 10.862541198730469,11.318389892578125 L 10.769783020019531,10.937835693359375 L 10.671989440917969,10.557281494140625 L 10.614448547363281,10.139984130859375 L 10.661979675292969,9.649215698242188 L 10.753105163574219,9.163238525390625 L 10.859321594238281,8.674072265625 L 11.106407165527344,8.199264526367188 L 11.439018249511719,7.8091278076171875 L 11.766593933105469,7.39501953125 L 11.864433288574219,6.89501953125 M 11.864997863769531,7.0535736083984375 L 11.864997863769531,7.0535736083984375 L 11.870597839355469,7.553558349609375 L 11.946617126464844,8.053543090820312 L 12.019294738769531,8.55352783203125 L 11.864479064941406,9.053512573242188 L 11.706321716308594,9.553497314453125 L 11.733726501464844,9.96600341796875 L 11.834907531738281,10.372100830078125 L 11.971305847167969,10.779800415039062 L 12.106025695800781,11.1875 L 12.082023620605469,11.60638427734375 L 11.997642517089844,12.041244506835938 L 11.914939880371094,12.487289428710938 L 11.832237243652344,12.933334350585938 L 11.749534606933594,13.380966186523438 L 11.472312927246094,13.828598022460938 L 11.317497253417969,14.274642944335938 L 11.373405456542969,14.720687866210938" fill="none" stroke="#000000" stroke-width="1"/>
</svg>
