<?xml version="1.0" ?>
<svg baseProfile="full" height="195mm" version="1.1" viewBox="0 0 27.5 19.5" width="275mm" xmlns="http://www.w3.org/2000/svg" xmlns:ev="http://www.w3.org/2001/xml-events" xmlns:xlink="http://www.w3.org/1999/xlink">
	<defs/>
	<path d="M 16.572731018066406,11.779327392578125 L 16.572731018066406,11.779327392578125 L 16.13451385498047,12.064041137695312 L 15.659400939941406,12.296051025390625 L 15.160820007324219,12.119918823242188 L 14.759498596191406,11.81121826171875 L 14.482276916503906,11.392318725585938 L 14.320762634277344,10.909530639648438 L 14.279991149902344,10.41876220703125 L 14.470054626464844,9.929595947265625 L 14.928428649902344,9.713546752929688 L 15.428428649902344,9.739532470703125 L 15.900230407714844,10.013076782226562 L 16.291526794433594,10.401611328125 L 16.758277893066406,10.635223388671875 L 17.220008850097656,10.92791748046875" fill="none" stroke="#000000" stroke-width="1"/>
	<path d="M 21.301918029785156,8.826934814453125 L 21.301918029785156,8.826934814453125 L 21.310874938964844,8.326934814453125 L 20.844154357910156,8.070938110351562 L 20.34416961669922,8.059326171875 L 19.84418487548828,8.047714233398438 L 19.344200134277344,8.037689208984375 L 18.844215393066406,8.135543823242188 L 18.34423065185547,8.284500122070312 L 17.911048889160156,8.617141723632812 L 17.86859893798828,9.11712646484375 L 18.102256774902344,9.60308837890625 L 18.47510528564453,9.991622924804688 L 18.93347930908203,10.230026245117188 L 19.42707061767578,10.29913330078125 L 19.925697326660156,10.312332153320312 L 20.404197692871094,10.228851318359375 L 20.865928649902344,10.039947509765625 L 21.26561737060547,9.748825073242188 L 21.511024475097656,9.318740844726562 L 21.615562438964844,8.831161499023438 L 21.472496032714844,8.338790893554688 L 21.114768981933594,7.9518280029296875 M 18.479698181152344,9.207717895507812 L 18.479698181152344,9.207717895507812 L 18.72510528564453,8.747299194335938 L 19.12647247314453,9.115081787109375 L 19.40709686279297,9.564300537109375 L 18.967201232910156,9.868179321289062 L 18.46721649169922,9.821441650390625 L 18.075950622558594,9.4840087890625 L 18.266014099121094,8.9996337890625 L 18.66234588623047,8.703720092773438 L 19.15929412841797,8.674545288085938 L 19.57909393310547,8.996002197265625 L 19.645057678222656,9.495986938476562 L 19.29236602783203,9.9036865234375 L 18.792381286621094,10.086181640625 L 18.31726837158203,9.862152099609375 L 17.920982360839844,9.553451538085938 L 17.75109100341797,9.077056884765625 L 18.140708923339844,8.768356323242188 L 18.610816955566406,8.614593505859375 L 19.096031188964844,8.793899536132812 L 19.509132385253906,9.116958618164062 L 19.70421600341797,9.601318359375 L 19.408546447753906,10.04736328125 L 18.96363067626953,10.335281372070312 L 18.463645935058594,10.393203735351562 M 21.38611602783203,8.299362182617188 L 21.38611602783203,8.299362182617188 L 21.55438995361328,7.7993621826171875 L 21.99433135986328,7.5337982177734375 L 22.474510192871094,7.53582763671875 M 21.63227081298828,8.7896728515625 L 21.63227081298828,8.7896728515625 L 21.89612579345703,8.308486938476562 L 22.37128448486328,8.137161254882812 L 22.86151885986328,8.158340454101562 M 20.84064483642578,7.9557952880859375 L 20.84064483642578,7.9557952880859375 L 20.71434783935547,7.4557952880859375 L 21.05030059814453,7.0384979248046875 L 21.523780822753906,6.870361328125 L 22.020729064941406,6.8963470458984375 M 21.779029846191406,12.73358154296875 L 21.779029846191406,12.73358154296875 L 21.59404754638672,12.242813110351562 L 21.22124481201172,11.873428344726562 L 20.72126007080078,11.834671020507812 L 20.221275329589844,11.836700439453125 L 19.721290588378906,11.838729858398438 L 19.22130584716797,11.84075927734375 L 18.759620666503906,12.0887451171875 L 18.380104064941406,12.4788818359375 L 18.01232147216797,12.872207641601562 L 17.720008850097656,13.319839477539062 L 17.96039581298828,13.788238525390625 L 18.38019561767578,14.103302001953125 L 18.84528350830078,14.3193359375 L 19.31037139892578,14.535369873046875 L 19.802284240722656,14.634811401367188 L 20.27912139892578,14.509811401367188 L 20.665382385253906,14.19952392578125 L 21.03990936279297,13.892425537109375 L 21.486549377441406,13.679580688476562 L 21.94995880126953,13.495468139648438 L 22.14672088623047,13.047821044921875 L 21.981849670410156,12.566635131835938 L 21.48186492919922,12.471969604492188 M 19.15892791748047,12.777420043945312 L 19.15892791748047,12.777420043945312 L 19.65892791748047,12.840133666992188 L 19.46721649169922,13.324493408203125 L 19.018943786621094,13.60760498046875 L 18.597511291503906,13.300506591796875 L 18.631614685058594,12.808135986328125 L 19.05644989013672,12.555343627929688 L 19.55644989013672,12.613265991210938 L 19.82532501220703,13.059310913085938 L 19.52629852294922,13.503753662109375 L 19.02631378173828,13.628768920898438 L 18.526329040527344,13.497360229492188 L 18.32624053955078,13.057693481445312 L 18.61357879638672,12.640396118164062 L 19.098793029785156,12.588851928710938 L 19.589027404785156,12.785720825195312 L 19.856224060058594,13.234939575195312 L 19.629310607910156,13.716110229492188 L 19.15251922607422,13.919387817382812 L 18.65253448486328,13.853469848632812 L 18.182456970214844,13.664566040039062 L 17.78113555908203,13.363876342773438 L 17.91419219970703,12.869918823242188 L 18.370887756347656,12.668243408203125 L 18.73871612548828,13.058380126953125 L 18.36255645751953,13.4437255859375 L 17.862571716308594,13.610260009765625 L 17.84528350830078,13.110260009765625 L 18.18627166748047,12.7552490234375 L 18.68321990966797,12.705307006835938 L 19.18321990966797,12.731292724609375 L 19.68321990966797,12.953720092773438 L 19.749183654785156,13.453704833984375 L 19.27574920654297,13.728836059570312 L 18.77576446533203,13.632568359375 L 18.39289093017578,13.31109619140625 L 18.11231231689453,12.901779174804688 L 18.297340393066406,12.406219482421875 L 18.77082061767578,12.266830444335938 L 19.230873107910156,12.546768188476562 M 21.83855438232422,13.456451416015625 L 21.83855438232422,13.456451416015625 L 22.008506774902344,13.956436157226562 L 22.448448181152344,14.237960815429688 L 22.948448181152344,14.302261352539062 M 21.41722869873047,14.39007568359375 L 21.41722869873047,14.39007568359375 L 21.70623016357422,14.83929443359375 L 22.18138885498047,15.01220703125 M 20.683555603027344,14.7808837890625 L 20.683555603027344,14.7808837890625 L 21.022865295410156,15.190185546875 L 21.49970245361328,15.3726806640625" fill="none" stroke="#000000" stroke-width="1"/>
	<path d="M 13.238212585449219,7.9643402099609375 L 13.238212585449219,7.9643402099609375 L 13.438346862792969,8.15643310546875 L 13.640159606933594,8.532196044921875 L 13.589317321777344,9.032180786132812 L 13.451286315917969,9.53216552734375 L 13.510551452636719,10.032150268554688 L 13.779426574707031,10.494155883789062 L 13.779991149902344,10.994140625 L 13.626853942871094,11.494125366210938 L 13.473716735839844,11.994110107421875 L 13.119346618652344,12.395431518554688 M 13.021110534667969,10.649429321289062 L 13.021110534667969,10.649429321289062 L 12.891456604003906,10.236923217773438 L 12.657829284667969,9.78448486328125 L 12.617057800292969,9.28448486328125 L 12.723274230957031,8.78448486328125" fill="none" stroke="#000000" stroke-width="1"/>
</svg>
