<?xml version="1.0" ?>
<svg baseProfile="full" height="600px" version="1.1" viewBox="14.241333274841308 8.492314414978027 4.101195755004883 4.441533889770508" width="555px" xmlns="http://www.w3.org/2000/svg" xmlns:ev="http://www.w3.org/2001/xml-events" xmlns:xlink="http://www.w3.org/1999/xlink">
	<defs/>
	<path d="M 15.174697875976562,10.02069091796875 L 15.174697875976562,10.02069091796875 L 14.830398559570312,10.42041015625 L 15.007049560546875,10.907974243164062 L 15.2977294921875,11.328460693359375 M 17.657562255859375,9.614776611328125 L 17.657562255859375,9.614776611328125 L 17.157577514648438,9.478591918945312 L 16.667388916015625,9.29608154296875 L 16.182220458984375,9.11517333984375 L 15.718841552734375,8.863983154296875 L 15.265533447265625,9.180648803710938 L 15.16607666015625,9.680633544921875 L 15.505386352539062,10.077163696289062 M 17.999221801757812,11.582611083984375 L 17.999221801757812,11.582611083984375 L 17.555984497070312,11.868927001953125 L 17.106033325195312,12.139266967773438 L 16.606048583984375,12.256271362304688 L 16.106063842773438,12.342941284179688 L 15.6292724609375,12.562179565429688 L 15.207839965820312,12.255081176757812 L 14.794784545898438,11.9495849609375 L 14.584640502929688,11.508331298828125 L 14.77972412109375,11.027145385742188 L 15.27972412109375,10.903717041015625 M 16.630050659179688,11.083755493164062 L 16.630050659179688,11.083755493164062 L 16.133148193359375,11.25347900390625 M 16.528152465820312,10.285018920898438 L 16.528152465820312,10.285018920898438 M 14.839309692382812,10.09014892578125 L 14.839309692382812,10.09014892578125 L 14.610702514648438,9.648895263671875 L 15.052322387695312,9.963958740234375 L 15.552322387695312,10.128890991210938 L 15.114105224609375,9.861724853515625 M 15.147735595703125,10.51544189453125 L 15.147735595703125,10.51544189453125 L 14.848709106445312,10.96307373046875 L 15.20648193359375,11.342041015625 L 15.034912109375,10.852874755859375 L 14.633590698242188,11.230239868164062" fill="none" stroke="#000000" stroke-width="0.0036981964111328126"/>
</svg>
