<?xml version="1.0" ?>
<svg baseProfile="full" height="600px" version="1.1" viewBox="12.231041915893554 8.051014144897461 5.467679962158203 5.656699737548828" width="580px" xmlns="http://www.w3.org/2000/svg" xmlns:ev="http://www.w3.org/2001/xml-events" xmlns:xlink="http://www.w3.org/1999/xlink">
	<defs/>
	<path d="M 17.027587890625,10.653732299804688 L 17.027587890625,10.653732299804688 L 16.527603149414062,10.5638427734375 L 16.027618408203125,10.477157592773438 L 15.527633666992188,10.392074584960938 L 15.02764892578125,10.303787231445312 L 14.527664184570312,10.199539184570312 M 17.241119384765625,11.879074096679688 L 17.241119384765625,11.879074096679688 L 16.762664794921875,12.111083984375 L 16.262680053710938,12.208938598632812 L 15.7626953125,12.130233764648438 L 15.262710571289062,12.049942016601562 L 14.762725830078125,12.020767211914062 L 14.262741088867188,12.169723510742188 M 15.066055297851562,12.623397827148438 L 15.066055297851562,12.623397827148438 L 14.819015502929688,13.08380126953125 L 14.31903076171875,13.234359741210938 L 13.819046020507812,13.1907958984375 L 13.319061279296875,13.09613037109375 L 12.904327392578125,12.744308471679688 L 12.721023559570312,12.258331298828125 L 12.688644409179688,11.758331298828125 L 12.689208984375,11.258331298828125 L 12.70989990234375,10.758331298828125 L 12.73394775390625,10.258331298828125 L 12.75799560546875,9.758331298828125 L 12.862533569335938,9.258331298828125 L 13.20184326171875,8.895339965820312 L 13.544509887695312,8.524368286132812 L 14.044509887695312,8.612640380859375 L 14.4945068359375,8.873397827148438 L 14.942825317382812,9.138946533203125 L 15.3861083984375,9.402908325195312" fill="none" stroke="#000000" stroke-width="0.004709991455078125"/>
</svg>
