<?xml version="1.0" ?>
<svg baseProfile="full" height="600px" version="1.1" viewBox="9.589451133728028 8.094932090759277 5.179572463989258 6.173249221801758" width="504px" xmlns="http://www.w3.org/2000/svg" xmlns:ev="http://www.w3.org/2001/xml-events" xmlns:xlink="http://www.w3.org/1999/xlink">
	<defs/>
	<path d="M 14.181060791015625,10.90374755859375 L 14.181060791015625,10.90374755859375 L 13.888748168945312,10.71484375 L 13.445510864257812,10.438095092773438 L 12.975433349609375,10.150161743164062 L 12.649581909179688,9.71209716796875 L 12.32373046875,9.277236938476562 L 11.867080688476562,8.987716674804688 L 11.40875244140625,8.69659423828125 L 10.908767700195312,8.61151123046875 L 10.408782958984375,8.8211669921875 L 10.082931518554688,9.225677490234375 L 10.138839721679688,9.725662231445312 L 10.473129272460938,10.17010498046875 L 10.80908203125,10.611343383789062 L 10.389328002929688,10.943984985351562 L 10.023223876953125,11.33251953125 L 10.253524780273438,11.821685791015625 L 10.691787719726562,12.14154052734375 L 10.298843383789062,12.518905639648438 L 10.110504150390625,13.011260986328125 L 10.374359130859375,13.497222900390625 L 10.844467163085938,13.751602172851562 L 11.344467163085938,13.65533447265625 L 11.809555053710938,13.4073486328125 L 12.1270751953125,13.006027221679688 L 12.444595336914062,12.604705810546875 L 12.83758544921875,12.297607421875 L 13.227203369140625,11.982528686523438 L 13.667144775390625,11.729736328125 L 14.10205078125,11.427444458007812 L 13.977432250976562,11.003768920898438 M 14.153564453125,10.8468017578125 L 14.153564453125,10.8468017578125 L 14.335250854492188,11.340744018554688 L 14.192184448242188,11.719711303710938 L 13.844528198242188,11.581924438476562 M 10.42938232421875,10.0927734375 L 10.42938232421875,10.0927734375 L 10.266189575195312,10.22735595703125 L 10.045989990234375,10.721298217773438 L 10.37860107421875,11.165740966796875 M 10.265777587890625,12.073043823242188 L 10.265777587890625,12.073043823242188 L 10.136123657226562,12.573028564453125 L 10.599533081054688,12.803436279296875" fill="none" stroke="#000000" stroke-width="0.005140090942382812"/>
</svg>
