<?xml version="1.0" ?>
<svg baseProfile="full" height="592px" version="1.1" viewBox="10.088220741271973 5.930328895568848 8.439601608276368 8.318861862182617" width="600px" xmlns="http://www.w3.org/2000/svg" xmlns:ev="http://www.w3.org/2001/xml-events" xmlns:xlink="http://www.w3.org/1999/xlink">
	<defs/>
	<path d="M 17.428512573242188,10.578765869140625 L 17.428512573242188,10.578765869140625 L 16.99029541015625,10.488876342773438 L 16.490310668945312,10.295181274414062 L 16.02191162109375,10.020034790039062 L 15.592071533203125,9.712936401367188 L 15.182373046875,9.381881713867188 L 14.779373168945312,9.041244506835938 L 14.450164794921875,8.662277221679688 L 14.1846923828125,8.229019165039062 L 13.929275512695312,7.7957611083984375 L 13.66546630859375,7.36090087890625 L 13.28594970703125,7.005889892578125 L 12.844375610351562,6.7435150146484375 L 12.34747314453125,6.626495361328125 L 11.847488403320312,6.7515106201171875 L 11.409271240234375,7.06817626953125 L 11.046524047851562,7.482269287109375 L 10.794448852539062,7.958648681640625 L 10.821853637695312,8.458633422851562 L 10.924713134765625,8.9586181640625 L 11.118133544921875,9.457366943359375 L 11.402114868164062,9.911392211914062 L 11.709564208984375,10.357437133789062 L 11.899627685546875,10.84820556640625 L 11.973983764648438,11.348190307617188 L 11.852706909179688,11.848175048828125 L 11.925384521484375,12.348159790039062 L 11.810821533203125,12.84814453125 L 12.151809692382812,13.249465942382812 L 12.6202392578125,13.44793701171875 L 13.1202392578125,13.517044067382812 L 13.6202392578125,13.541427612304688 L 14.1202392578125,13.553024291992188 L 14.6202392578125,13.553024291992188 L 15.1202392578125,13.52703857421875 L 15.6202392578125,13.438751220703125 L 16.098739624023438,13.30096435546875 L 16.558792114257812,13.065750122070312 L 16.956802368164062,12.726715087890625 L 17.34979248046875,12.406845092773438 L 17.82159423828125,12.269058227539062 M 11.144546508789062,8.400436401367188 L 11.144546508789062,8.400436401367188 L 11.455352783203125,8.43280029296875 L 11.910369873046875,8.20556640625 L 12.353652954101562,7.9320068359375 L 12.360931396484375,7.4320068359375 L 11.984771728515625,7.06103515625 L 11.608612060546875,6.6900634765625" fill="none" stroke="#000000" stroke-width="0.007027145385742188"/>
</svg>
