<?xml version="1.0" ?>
<svg baseProfile="full" height="441px" version="1.1" viewBox="13.18926252746582 6.773053115844727 5.874923431396485 4.314260589599609" width="600px" xmlns="http://www.w3.org/2000/svg" xmlns:ev="http://www.w3.org/2001/xml-events" xmlns:xlink="http://www.w3.org/1999/xlink">
	<defs/>
	<path d="M 18.57257080078125,8.81524658203125 L 18.57257080078125,8.81524658203125 L 18.488189697265625,8.677459716796875 L 18.340103149414062,8.490158081054688 L 18.168533325195312,8.286880493164062 L 17.827590942382812,8.174636840820312 L 17.459808349609375,8.08795166015625 L 17.092025756835938,7.9948883056640625 L 16.725921630859375,7.8682861328125 L 16.356460571289062,7.7145233154296875 L 15.98699951171875,7.560760498046875 L 15.619216918945312,7.3830413818359375 L 15.251434326171875,7.205322265625 L 14.881973266601562,7.134613037109375 L 14.400161743164062,7.363433837890625 L 13.926727294921875,7.6529541015625 L 13.74676513671875,7.982391357421875 L 13.837890625,8.29107666015625 L 13.949127197265625,8.66363525390625 L 14.055343627929688,9.052169799804688 L 14.159881591796875,9.440704345703125 L 14.109039306640625,9.881942749023438 L 13.680877685546875,10.22576904296875 L 13.708282470703125,10.725753784179688 L 14.208282470703125,10.67901611328125 L 14.5341796875,10.279281616210938 L 14.97076416015625,10.013717651367188 L 15.47076416015625,10.04608154296875 L 15.97076416015625,10.118377685546875 L 16.47076416015625,10.028488159179688 L 16.959335327148438,9.8411865234375 L 17.431137084960938,9.612350463867188 L 17.899566650390625,9.372344970703125 L 18.367996215820312,9.132339477539062 L 18.388687133789062,8.643173217773438" fill="none" stroke="#000000" stroke-width="0.004891693115234375"/>
</svg>
