<?xml version="1.0" ?>
<svg baseProfile="full" height="600px" version="1.1" viewBox="6.29912678527832 10.588802688598633 6.243848480224609 8.16696859741211" width="459px" xmlns="http://www.w3.org/2000/svg" xmlns:ev="http://www.w3.org/2001/xml-events" xmlns:xlink="http://www.w3.org/1999/xlink">
	<defs/>
	<path d="M 9.187057495117188,11.272216796875 L 9.187057495117188,11.272216796875 L 9.26812744140625,11.71826171875 L 9.33074951171875,12.218246459960938 L 9.334686279296875,12.718231201171875 L 9.330810546875,13.218215942382812 L 9.13909912109375,13.716964721679688 L 8.9473876953125,14.215713500976562 L 8.75567626953125,14.714462280273438 L 8.56396484375,15.213211059570312 L 8.326980590820312,15.69598388671875 L 7.9021759033203125,16.00946044921875 L 7.4756927490234375,16.32293701171875 L 7.0508880615234375,16.63641357421875 L 6.8222808837890625,17.120773315429688 L 7.052581787109375,17.576400756835938 L 7.291290283203125,18.025619506835938 L 7.791290283203125,18.072357177734375 L 8.291290283203125,17.939346313476562 L 8.791290283203125,17.80633544921875 L 9.291290283203125,17.6749267578125 L 9.719482421875,17.377410888671875 L 10.078933715820312,17.0128173828125 L 10.510482788085938,16.7376708984375 L 10.864898681640625,16.3682861328125 L 11.0499267578125,15.885498046875 L 11.203094482421875,15.397918701171875 L 11.435073852539062,14.9183349609375 L 11.697250366210938,14.475479125976562 L 11.883956909179688,13.994293212890625 L 11.939865112304688,13.513107299804688 L 11.967269897460938,13.028732299804688 L 12.019821166992188,12.552337646484375 M 9.146942138671875,14.814529418945312 L 9.146942138671875,14.814529418945312 L 9.484573364257812,15.22222900390625 L 9.713211059570312,15.705001831054688 L 9.5802001953125,16.204986572265625 L 9.123550415039062,16.456161499023438 L 8.623565673828125,16.475753784179688 L 8.123580932617188,16.395462036132812 L 7.7708892822265625,16.026077270507812 L 7.3896942138671875,15.734954833984375 M 8.546905517578125,14.964996337890625 L 8.546905517578125,14.964996337890625 L 8.143905639648438,14.65789794921875 L 8.04779052734375,14.237396240234375 M 8.2476806640625,15.629440307617188 L 8.2476806640625,15.629440307617188 L 7.7476959228515625,15.608245849609375 L 7.247711181640625,15.523162841796875 M 8.3663330078125,15.558242797851562 L 8.3663330078125,15.558242797851562 L 7.956634521484375,15.247955322265625 L 7.4899139404296875,14.999969482421875 L 7.0735015869140625,14.691268920898438 M 8.118087768554688,16.356033325195312 L 8.118087768554688,16.356033325195312 L 7.61810302734375,16.51458740234375 L 7.1413116455078125,16.3065185546875" fill="none" stroke="#000000" stroke-width="0.006800140380859375"/>
</svg>
