<?xml version="1.0" ?>
<svg baseProfile="full" height="489px" version="1.1" viewBox="14.578727607727052 9.247544746398926 4.361816635131836 3.548901596069336" width="600px" xmlns="http://www.w3.org/2000/svg" xmlns:ev="http://www.w3.org/2001/xml-events" xmlns:xlink="http://www.w3.org/1999/xlink">
	<defs/>
	<path d="M 18.20269775390625,9.830520629882812 L 18.20269775390625,9.830520629882812 L 18.575546264648438,9.783782958984375 L 18.417388916015625,9.783782958984375 L 18.091537475585938,9.783782958984375 L 17.921646118164062,9.714675903320312 L 17.476730346679688,9.661529541015625 L 17.323593139648438,9.651504516601562 L 17.150344848632812,9.6414794921875 L 16.921737670898438,9.5931396484375 L 16.6881103515625,9.5447998046875 L 16.491378784179688,9.5447998046875 L 16.301345825195312,9.570785522460938 L 16.074432373046875,9.66864013671875 L 15.819015502929688,9.892669677734375 L 15.462966918945312,10.1741943359375 L 15.0230712890625,10.490859985351562 L 14.9437255859375,10.9908447265625 L 15.024795532226562,11.490829467773438 L 15.30206298828125,11.941650390625 L 15.762115478515625,12.173660278320312 L 16.2540283203125,12.20123291015625 L 16.7540283203125,12.217620849609375 L 17.2540283203125,12.2340087890625 L 17.7540283203125,12.250396728515625 L 18.2540283203125,12.163711547851562 M 15.872039794921875,10.084152221679688 L 15.872039794921875,10.084152221679688 L 16.110748291015625,10.1995849609375 L 16.35113525390625,10.315017700195312 L 16.614990234375,10.449600219726562 L 16.739654541015625,10.681610107421875 L 16.88946533203125,10.750717163085938 L 17.081207275390625,10.877304077148438 L 17.170654296875,11.007095336914062 M 17.101425170898438,11.068191528320312 L 17.101425170898438,11.068191528320312 L 17.067352294921875,11.242706298828125 L 16.904159545898438,11.203948974609375 L 16.611846923828125,11.074142456054688 L 16.287673950195312,11.025802612304688 L 15.901443481445312,10.868850708007812 L 15.473281860351562,10.57293701171875 L 15.07196044921875,10.29779052734375 M 15.316329956054688,11.810806274414062 L 15.316329956054688,11.810806274414062 L 15.320266723632812,11.625091552734375 L 15.6998291015625,11.32757568359375 L 16.1998291015625,11.239288330078125 L 16.6998291015625,11.202117919921875 L 17.1998291015625,11.298370361328125 L 17.0953369140625,11.798355102539062 L 16.690658569335938,12.13897705078125 L 16.208847045898438,12.323074340820312 L 15.720321655273438,12.499191284179688" fill="none" stroke="#000000" stroke-width="0.0036318206787109377"/>
</svg>
