<?xml version="1.0" ?>
<svg baseProfile="full" height="600px" version="1.1" viewBox="13.188858451843261 7.428238334655761 2.597426528930664 6.138136978149414" width="254px" xmlns="http://www.w3.org/2000/svg" xmlns:ev="http://www.w3.org/2001/xml-events" xmlns:xlink="http://www.w3.org/1999/xlink">
	<defs/>
	<path d="M 13.92156982421875,9.309402465820312 L 13.92156982421875,9.309402465820312 L 13.884140014648438,8.893707275390625 L 14.178176879882812,8.993148803710938 L 14.406814575195312,9.448776245117188 L 14.07257080078125,9.886825561523438 L 13.688018798828125,10.275360107421875 L 13.407440185546875,10.724578857421875 L 13.735015869140625,11.154647827148438 L 14.23028564453125,11.255691528320312 L 14.725555419921875,11.466949462890625 L 14.580810546875,11.966934204101562 L 14.407562255859375,12.4669189453125 L 14.292999267578125,11.9669189453125 L 14.181793212890625,11.509689331054688 M 14.039871215820312,12.193771362304688 L 14.039871215820312,12.193771362304688 L 13.977294921875,12.6717529296875 L 14.365234375,12.948486328125 L 14.85882568359375,13.052734375 L 15.305465698242188,12.777587890625 L 15.41168212890625,12.277587890625 L 15.27197265625,11.777587890625 M 15.380996704101562,10.953750610351562 L 15.380996704101562,10.953750610351562 L 15.567703247070312,10.514083862304688 L 15.339096069335938,10.0233154296875 L 14.97802734375,9.641159057617188 M 13.528152465820312,8.842025756835938 L 13.528152465820312,8.842025756835938 L 13.563934326171875,8.342025756835938 L 14.0206298828125,8.111602783203125 L 14.49578857421875,7.9418792724609375 L 14.828399658203125,8.38153076171875 L 14.7960205078125,8.881515502929688 L 14.478546142578125,9.317962646484375" fill="none" stroke="#000000" stroke-width="0.005110855102539062"/>
</svg>
