<?xml version="1.0" ?>
<svg baseProfile="full" height="600px" version="1.1" viewBox="13.191266036987304 8.39384324645996 5.0814419250488285 5.838198516845703" width="523px" xmlns="http://www.w3.org/2000/svg" xmlns:ev="http://www.w3.org/2001/xml-events" xmlns:xlink="http://www.w3.org/1999/xlink">
	<defs/>
	<path d="M 17.563064575195312,9.923141479492188 L 17.563064575195312,9.923141479492188 L 17.33111572265625,9.705490112304688 L 16.9029541015625,9.481460571289062 L 16.431198120117188,9.34686279296875 L 15.949386596679688,9.141998291015625 L 15.467575073242188,8.935531616210938 L 14.96759033203125,8.88238525390625 L 14.500869750976562,9.191070556640625 L 14.16998291015625,9.6339111328125 L 13.916244506835938,10.10870361328125 L 14.00067138671875,10.608688354492188 L 14.143783569335938,11.108673095703125 L 14.28521728515625,11.608657836914062 L 13.9090576171875,12.00518798828125 L 13.616744995117188,12.45440673828125 L 13.672653198242188,12.954391479492188 L 14.035446166992188,13.355712890625 L 14.433456420898438,13.6883544921875 L 14.933456420898438,13.715927124023438 L 15.433456420898438,13.743499755859375 L 15.690597534179688,13.3038330078125 L 15.716323852539062,12.813064575195312 L 16.017059326171875,12.398956298828125 L 16.45867919921875,12.165328979492188 L 16.915374755859375,11.952484130859375 L 17.37542724609375,11.753997802734375 L 17.84722900390625,11.571487426757812 M 15.989456176757812,9.254074096679688 L 15.989456176757812,9.254074096679688 L 16.27679443359375,9.404632568359375 M 14.157623291015625,9.931777954101562 L 14.157623291015625,9.931777954101562 L 14.366134643554688,10.055191040039062 L 14.673583984375,10.352691650390625 L 14.727813720703125,10.725250244140625 L 14.27618408203125,11.016372680664062 L 13.7977294921875,10.753997802734375" fill="none" stroke="#000000" stroke-width="0.0048611145019531255"/>
</svg>
