<?xml version="1.0" ?>
<svg baseProfile="full" height="488px" version="1.1" viewBox="11.451810173034668 9.209889701843261 5.0384420318603516 4.0938924713134766" width="600px" xmlns="http://www.w3.org/2000/svg" xmlns:ev="http://www.w3.org/2001/xml-events" xmlns:xlink="http://www.w3.org/1999/xlink">
	<defs/>
	<path d="M 16.068634033203125,12.180831909179688 L 16.068634033203125,12.180831909179688 L 15.89202880859375,12.181259155273438 L 15.643310546875,12.181259155273438 L 15.379501342773438,12.205642700195312 L 15.114028930664062,12.230026245117188 L 14.848556518554688,12.254409790039062 L 14.583084106445312,12.2803955078125 L 14.310882568359375,12.35748291015625 L 14.031982421875,12.519210815429688 L 13.696075439453125,12.751220703125 L 13.35345458984375,12.96087646484375 L 12.992385864257812,12.925308227539062 L 12.627960205078125,12.835418701171875 L 12.263534545898438,12.65130615234375 L 12.03326416015625,12.325042724609375 L 11.873428344726562,11.962051391601562 L 11.875686645507812,11.60064697265625 L 11.9232177734375,11.228073120117188 L 11.9791259765625,10.847518920898438 L 12.063552856445312,10.473342895507812 L 12.17144775390625,10.201385498046875 L 12.321258544921875,10.002899169921875 L 12.51300048828125,9.828369140625 L 12.778518676757812,9.644256591796875 L 13.0557861328125,9.55279541015625 L 13.296173095703125,9.609115600585938 L 13.492935180664062,9.726119995117188 L 13.520339965820312,9.956527709960938 L 13.529296875,10.137435913085938 M 12.5927734375,10.58660888671875 L 12.5927734375,10.58660888671875 L 12.771102905273438,10.488739013671875 L 12.961166381835938,10.3892822265625 L 13.0673828125,10.507888793945312 L 13.166885375976562,10.653656005859375 L 13.273101806640625,10.861709594726562" fill="none" stroke="#000000" stroke-width="0.004195205688476563"/>
</svg>
