<?xml version="1.0" ?>
<svg baseProfile="full" height="600px" version="1.1" viewBox="21.980771087646485 7.489863800048828 3.526723815917969 6.270577575683594" width="338px" xmlns="http://www.w3.org/2000/svg" xmlns:ev="http://www.w3.org/2001/xml-events" xmlns:xlink="http://www.w3.org/1999/xlink">
	<defs/>
	<path d="M 24.016159057617188,12.791473388671875 L 24.016159057617188,12.791473388671875 L 23.992156982421875,12.4268798828125 L 23.974868774414062,11.9268798828125 L 24.0123291015625,11.4268798828125 L 24.187301635742188,10.937713623046875 L 24.397491455078125,10.469314575195312 L 24.661346435546875,10.047225952148438 L 24.925201416015625,9.626724243164062 L 25.18402099609375,9.199844360351562 L 25.21142578125,8.701080322265625 L 24.915756225585938,8.283782958984375 L 24.43896484375,8.102874755859375 L 23.938980102539062,8.01458740234375 L 23.438995361328125,8.125213623046875 L 22.960540771484375,8.4083251953125 L 22.644744873046875,8.8575439453125 L 22.3658447265625,9.314773559570312 M 23.307785034179688,8.362289428710938 L 23.307785034179688,8.362289428710938 L 23.45257568359375,8.245269775390625 L 23.697982788085938,8.118667602539062 L 23.997055053710938,8.190963745117188 L 23.859024047851562,8.418182373046875 L 23.467758178710938,8.811508178710938 L 22.974212646484375,9.046722412109375 L 22.474227905273438,8.980804443359375 M 22.582260131835938,10.914321899414062 L 22.582260131835938,10.914321899414062 L 22.534774780273438,11.23577880859375 L 22.472198486328125,11.735763549804688 L 22.501266479492188,12.235748291015625 L 22.560531616210938,12.735733032226562 L 22.63153076171875,13.2357177734375 M 22.411453247070312,10.622787475585938 L 22.411453247070312,10.622787475585938 L 22.680328369140625,10.568038940429688 L 23.126968383789062,10.300872802734375 L 22.89501953125,9.85003662109375 L 22.552398681640625,9.434341430664062 L 22.276840209960938,9.120864868164062" fill="none" stroke="#000000" stroke-width="0.00522113037109375"/>
</svg>
