<?xml version="1.0" ?>
<svg baseProfile="full" height="600px" version="1.1" viewBox="12.563043815612794 8.770587760925293 4.298213516235352 5.118782363891602" width="504px" xmlns="http://www.w3.org/2000/svg" xmlns:ev="http://www.w3.org/2001/xml-events" xmlns:xlink="http://www.w3.org/1999/xlink">
	<defs/>
	<path d="M 13.146743774414062,11.992691040039062 L 13.146743774414062,11.992691040039062 L 13.167434692382812,12.38922119140625 L 13.461471557617188,12.83685302734375 L 13.830978393554688,13.22698974609375 L 14.302780151367188,13.406295776367188 L 14.802780151367188,13.461029052734375 L 15.302780151367188,13.447830200195312 L 15.667251586914062,13.081634521484375 L 15.97637939453125,12.667526245117188 L 16.283828735351562,12.25341796875 L 16.45880126953125,11.76904296875 L 16.501296997070312,11.27667236328125 L 16.41021728515625,10.787506103515625 L 16.257080078125,10.309524536132812 L 16.08551025390625,9.842727661132812 L 15.722763061523438,9.48931884765625 L 15.239273071289062,9.361114501953125 L 14.74908447265625,9.23291015625 L 14.249099731445312,9.198928833007812 L 13.749114990234375,9.3702392578125 L 13.33270263671875,9.698074340820312 L 12.923004150390625,10.030715942382812 M 14.633071899414062,10.362472534179688 L 14.633071899414062,10.362472534179688 L 14.582229614257812,10.117660522460938 L 14.70355224609375,9.617660522460938 L 15.0948486328125,9.990219116210938 L 15.239639282226562,10.484161376953125 L 14.94061279296875,10.914230346679688 L 14.713699340820312,11.34429931640625 M 14.75115966796875,11.16339111328125 L 14.75115966796875,11.16339111328125 L 14.984817504882812,10.683807373046875 M 14.6346435546875,10.844375610351562 L 14.6346435546875,10.844375610351562 L 15.0745849609375,11.10833740234375 M 14.343917846679688,12.554672241210938 L 14.343917846679688,12.554672241210938 L 14.3763427734375,12.973556518554688 L 14.8763427734375,12.885269165039062 L 15.3763427734375,12.782623291015625 L 15.342269897460938,12.290252685546875 L 15.070068359375,11.872955322265625 L 14.570083618164062,11.767105102539062 L 14.452163696289062,12.26708984375 L 14.779739379882812,12.66680908203125" fill="none" stroke="#000000" stroke-width="0.004262100219726563"/>
</svg>
