<?xml version="1.0" ?>
<svg baseProfile="full" height="600px" version="1.1" viewBox="12.01334464263916 4.284162208557129 5.58030534362793 9.567738204956054" width="350px" xmlns="http://www.w3.org/2000/svg" xmlns:ev="http://www.w3.org/2001/xml-events" xmlns:xlink="http://www.w3.org/1999/xlink">
	<defs/>
	<path d="M 15.112335205078125,12.960311889648438 L 15.112335205078125,12.960311889648438 L 15.295684814453125,12.608489990234375 L 15.539413452148438,12.127304077148438 L 15.78314208984375,11.644515991210938 L 16.026870727539062,11.161727905273438 L 16.361160278320312,10.784347534179688 L 16.82958984375,10.60504150390625 L 17.12530517578125,10.192535400390625 L 17.069442749023438,9.700164794921875 L 16.860977172851562,9.257308959960938 L 16.79840087890625,8.763351440429688 L 16.834182739257812,8.269393920898438 L 16.876678466796875,7.773834228515625 L 16.949356079101562,7.279876708984375 L 16.976760864257812,6.7843170166015625 L 16.94940185546875,6.2903594970703125 L 16.920379638671875,5.7964019775390625 L 16.891357421875,5.2992401123046875 L 16.419601440429688,5.0847930908203125 L 15.91961669921875,5.1986236572265625 L 15.424392700195312,5.3795318603515625 L 14.9342041015625,5.56842041015625 L 14.4456787109375,5.74932861328125 L 13.9571533203125,5.93023681640625 L 13.47869873046875,6.1319122314453125 L 13.126007080078125,6.5172576904296875 L 12.89739990234375,6.9633026123046875 L 12.776123046875,7.4492645263671875 L 12.659881591796875,7.9352264404296875 L 12.568801879882812,8.419586181640625 L 12.53472900390625,8.90875244140625 L 12.509048461914062,9.396316528320312 L 12.481689453125,9.885482788085938 L 12.515792846679688,10.373046875 L 12.553253173828125,10.860610961914062 L 12.63262939453125,11.346572875976562 L 12.827713012695312,11.829345703125 L 13.116714477539062,12.265792846679688 L 13.445968627929688,12.665512084960938 L 13.835586547851562,12.9837646484375 L 14.312423706054688,13.05126953125 L 14.72552490234375,12.705856323242188 L 15.120193481445312,12.33966064453125 L 15.4930419921875,11.9591064453125 L 15.862548828125,11.596115112304688 M 15.389572143554688,6.9143829345703125 L 15.389572143554688,6.9143829345703125 L 14.9932861328125,6.784576416015625 L 14.493301391601562,6.63720703125 M 14.93170166015625,7.3962554931640625 L 14.93170166015625,7.3962554931640625 L 14.473373413085938,7.312774658203125 L 13.973388671875,7.1845703125 M 15.459213256835938,6.4138641357421875 L 15.459213256835938,6.4138641357421875 L 15.302719116210938,6.9126129150390625 L 15.124435424804688,7.40496826171875 L 14.7532958984375,7.79510498046875 L 14.509613037109375,8.24273681640625 M 14.066986083984375,7.4512481689453125 L 14.066986083984375,7.4512481689453125 L 14.295623779296875,7.08984375 L 14.582962036132812,6.639007568359375 L 14.875320434570312,6.1897735595703125" fill="none" stroke="#000000" stroke-width="0.007966476440429688"/>
</svg>
