<?xml version="1.0" ?>
<svg baseProfile="full" height="600px" version="1.1" viewBox="8.61924543762207 8.626256851196288 6.243213836669922 8.702228729248047" width="431px" xmlns="http://www.w3.org/2000/svg" xmlns:ev="http://www.w3.org/2001/xml-events" xmlns:xlink="http://www.w3.org/1999/xlink">
	<defs/>
	<path d="M 14.33917236328125,13.64849853515625 L 14.33917236328125,13.64849853515625 L 14.113937377929688,14.13446044921875 L 13.888702392578125,14.62042236328125 L 13.561172485351562,15.056869506835938 L 13.33929443359375,15.51409912109375 L 13.254913330078125,16.011245727539062 L 12.86700439453125,16.363052368164062 L 12.367019653320312,16.51361083984375 L 11.867034912109375,16.60028076171875 L 11.367050170898438,16.540756225585938 L 10.891937255859375,16.337478637695312 L 10.423538208007812,16.116622924804688 L 9.958480834960938,15.878204345703125 L 9.589019775390625,15.499237060546875 L 9.390609741210938,15.016448974609375 L 9.2659912109375,14.517684936523438 L 9.174911499023438,14.017684936523438 L 9.142532348632812,13.517684936523438 L 9.188385009765625,13.017684936523438 L 9.469009399414062,12.60198974609375 L 9.768081665039062,12.219833374023438 L 10.080551147460938,11.837677001953125 L 10.503707885742188,11.575302124023438 L 10.967117309570312,11.4151611328125 M 10.2930908203125,11.651962280273438 L 10.2930908203125,11.651962280273438 L 10.11480712890625,11.46624755859375 L 9.79901123046875,11.045745849609375 L 9.753204345703125,10.545745849609375 L 9.857742309570312,10.045745849609375 L 10.2691650390625,9.780181884765625 L 10.704071044921875,9.543365478515625 L 11.152389526367188,9.354461669921875 L 11.652389526367188,9.41876220703125 L 12.152389526367188,9.60125732421875 L 12.550399780273438,9.95306396484375 L 12.611343383789062,10.453048706054688 L 12.4884033203125,10.953033447265625 L 12.197769165039062,11.392684936523438 L 11.772964477539062,11.714141845703125" fill="none" stroke="#000000" stroke-width="0.007245819091796875"/>
</svg>
