<?xml version="1.0" ?>
<svg baseProfile="full" height="375px" version="1.1" viewBox="13.084749237060548 8.495872894287109 8.725795715332032 5.450698059082031" width="600px" xmlns="http://www.w3.org/2000/svg" xmlns:ev="http://www.w3.org/2001/xml-events" xmlns:xlink="http://www.w3.org/1999/xlink">
	<defs/>
	<path d="M 21.080368041992188,10.69036865234375 L 21.080368041992188,10.69036865234375 L 20.826629638671875,10.746688842773438 L 20.462203979492188,10.820571899414062 L 20.092742919921875,10.904037475585938 L 19.637771606445312,11.073760986328125 L 19.149246215820312,11.29779052734375 L 18.706008911132812,11.619247436523438 L 18.276168823242188,11.950286865234375 L 17.848007202148438,12.282928466796875 L 17.419845581054688,12.615570068359375 L 16.991683959960938,12.948211669921875 L 16.545089721679688,13.261688232421875 L 16.04510498046875,13.389877319335938 L 15.545120239257812,13.48931884765625 L 15.370193481445312,13.439376831054688 L 15.461318969726562,13.311172485351562 L 15.559158325195312,13.032821655273438 L 15.6318359375,12.6842041015625 L 15.557510375976562,12.311630249023438 L 15.409423828125,11.931076049804688 L 15.241195678710938,11.540939331054688 L 15.072967529296875,11.144393920898438 L 14.950027465820312,10.666412353515625 L 14.9327392578125,10.166412353515625 L 14.932205200195312,9.666412353515625 L 15.0367431640625,9.166412353515625 L 15.288864135742188,8.993484497070312 L 15.579544067382812,8.953125 L 15.938995361328125,8.959930419921875 L 16.3353271484375,9.057785034179688 L 16.731658935546875,9.283416748046875 L 16.745651245117188,9.609664916992188 L 16.517044067382812,9.9359130859375 M 15.7716064453125,10.916213989257812 L 15.7716064453125,10.916213989257812 L 15.82415771484375,11.122665405273438 L 15.771652221679688,10.980087280273438 L 15.645355224609375,10.668212890625 M 15.611282348632812,10.500076293945312 L 15.611282348632812,10.500076293945312 L 15.496719360351562,10.315963745117188 L 15.256378173828125,10.133453369140625 L 14.932205200195312,10.05157470703125 L 14.554367065429688,10.041549682617188 L 14.111129760742188,10.287948608398438 L 13.817138671875,10.737167358398438 L 13.814926147460938,11.237152099609375 L 14.179397583007812,11.630477905273438 L 14.642807006835938,11.798614501953125 L 15.040817260742188,11.6336669921875 L 15.100082397460938,11.459136962890625" fill="none" stroke="#000000" stroke-width="0.00726544189453125"/>
</svg>
