<?xml version="1.0" ?>
<svg baseProfile="full" height="210px" version="1.1" viewBox="13.661429229736328 9.976364532470702 6.9188712768554685 2.418212097167969" width="600px" xmlns="http://www.w3.org/2000/svg" xmlns:ev="http://www.w3.org/2001/xml-events" xmlns:xlink="http://www.w3.org/1999/xlink">
	<defs/>
	<path d="M 20.001327514648438,11.441864013671875 L 20.001327514648438,11.441864013671875 L 19.823043823242188,11.391921997070312 L 19.587738037109375,11.318023681640625 L 19.298782348632812,11.268081665039062 L 18.97125244140625,11.290863037109375 L 18.638687133789062,11.3056640625 L 18.267547607421875,11.314071655273438 L 17.874603271484375,11.320877075195312 L 17.481658935546875,11.327682495117188 L 17.0870361328125,11.334487915039062 L 16.687393188476562,11.339691162109375 L 16.208938598632812,11.57330322265625 L 15.752288818359375,11.88836669921875 L 15.293960571289062,12.190658569335938 L 14.902694702148438,12.099197387695312 L 14.492996215820312,11.956619262695312 L 14.286209106445312,11.684661865234375 L 14.240402221679688,11.304107666015625 L 14.388534545898438,11.075271606445312 L 14.580276489257812,10.881576538085938 L 14.824005126953125,10.790115356445312 L 14.818450927734375,10.6363525390625 L 14.787750244140625,10.452239990234375 L 14.713424682617188,10.180282592773438 L 14.85821533203125,10.225433349609375 L 15.004669189453125,10.281753540039062 L 15.15447998046875,10.330093383789062 L 15.181884765625,10.50140380859375 L 15.274688720703125,10.7877197265625" fill="none" stroke="#000000" stroke-width="0.00576092529296875"/>
</svg>
