<?xml version="1.0" ?>
<svg baseProfile="full" height="600px" version="1.1" viewBox="9.602175132751466 8.790212242126465 7.370005813598633 7.4238022003173825" width="596px" xmlns="http://www.w3.org/2000/svg" xmlns:ev="http://www.w3.org/2001/xml-events" xmlns:xlink="http://www.w3.org/1999/xlink">
	<defs/>
	<path d="M 16.288909912109375,11.418975830078125 L 16.288909912109375,11.418975830078125 L 16.317977905273438,11.703689575195312 L 16.355438232421875,12.20367431640625 L 16.282791137695312,12.703659057617188 L 16.133026123046875,13.203643798828125 L 15.9178466796875,13.697586059570312 L 15.670806884765625,14.18194580078125 L 15.324813842773438,14.583267211914062 L 14.906723022460938,14.909515380859375 L 14.480239868164062,15.234176635742188 L 14.031967163085938,15.507720947265625 L 13.531982421875,15.592788696289062 L 13.031997680664062,15.461380004882812 L 12.532012939453125,15.321990966796875 L 12.032028198242188,15.180999755859375 L 11.5401611328125,15.000091552734375 L 11.162322998046875,14.659454345703125 L 10.875030517578125,14.274093627929688 L 10.587738037109375,13.883956909179688 L 10.365859985351562,13.453872680664062 L 10.242919921875,12.987075805664062 L 10.218917846679688,12.505889892578125 L 10.25469970703125,12.021514892578125 L 10.293838500976562,11.538726806640625 L 10.334640502929688,11.055938720703125 L 10.373779296875,10.573150634765625 L 10.469940185546875,10.090362548828125 L 10.94342041015625,9.856735229492188 L 11.416900634765625,9.642288208007812 L 11.916900634765625,9.494918823242188 L 12.416900634765625,9.41143798828125 L 12.916900634765625,9.506088256835938 L 13.416900634765625,9.60552978515625" fill="none" stroke="#000000" stroke-width="0.0061813507080078125"/>
</svg>
