<?xml version="1.0" ?>
<svg baseProfile="full" height="290px" version="1.1" viewBox="12.095097412109375 7.83928076171875 8.924520751953125 4.312679931640625" width="600px" xmlns="http://www.w3.org/2000/svg" xmlns:ev="http://www.w3.org/2001/xml-events" xmlns:xlink="http://www.w3.org/1999/xlink">
	<defs/>
	<path d="M 20.272811889648438,10.036392211914062 L 20.272811889648438,10.036392211914062 L 19.7728271484375,9.946502685546875 L 19.272842407226562,9.85504150390625 L 18.772857666015625,9.868240356445312 L 18.272872924804688,9.883041381835938 L 17.77288818359375,9.897842407226562 L 17.272903442382812,9.752059936523438 L 16.879959106445312,9.444961547851562 L 16.495407104492188,9.10272216796875 L 16.124267578125,8.746124267578125 L 15.754806518554688,8.387924194335938 L 15.2880859375,8.20220947265625 L 14.788101196289062,8.201766967773438 L 14.288116455078125,8.298019409179688 L 13.788131713867188,8.474136352539062 L 13.373397827148438,8.817962646484375 L 13.1146240234375,9.28955078125 L 12.946395874023438,9.789535522460938 L 12.841903686523438,10.289520263671875 L 12.936386108398438,10.789505004882812 L 13.124771118164062,11.28948974609375 L 13.33160400390625,11.789474487304688 M 13.229461669921875,11.125823974609375 L 13.229461669921875,11.125823974609375 L 13.655975341796875,10.949691772460938 L 14.127777099609375,10.765579223632812 L 14.0987548828125,10.265579223632812 L 13.868484497070312,9.8275146484375 L 13.438644409179688,9.568344116210938 L 12.93865966796875,9.602310180664062" fill="none" stroke="#000000" stroke-width="0.007430908203125"/>
</svg>
