<?xml version="1.0" ?>
<svg baseProfile="full" height="600px" version="1.1" viewBox="13.540575103759766 8.036334686279297 3.943950500488281 4.646324768066406" width="510px" xmlns="http://www.w3.org/2000/svg" xmlns:ev="http://www.w3.org/2001/xml-events" xmlns:xlink="http://www.w3.org/1999/xlink">
	<defs/>
	<path d="M 17.154251098632812,10.064163208007812 L 17.154251098632812,10.064163208007812 L 17.043045043945312,9.567001342773438 L 16.873153686523438,9.067001342773438 L 16.704925537109375,8.567001342773438 L 16.204940795898438,8.505874633789062 L 15.7049560546875,8.443145751953125 L 15.204971313476562,8.425140380859375 L 14.723159790039062,8.673126220703125 L 14.35369873046875,9.084030151367188 L 14.061386108398438,9.530075073242188 L 13.87640380859375,10.0272216796875 L 13.870849609375,10.527206420898438 L 13.92340087890625,11.027191162109375 L 14.188919067382812,11.509963989257812 L 14.561767578125,11.888931274414062 L 14.961456298828125,12.216766357421875 L 15.455047607421875,12.293853759765625 L 15.930206298828125,12.181610107421875 L 16.4036865234375,12.039031982421875 L 16.873794555664062,11.85491943359375 L 16.936416625976562,11.362548828125 L 16.935882568359375,10.87017822265625 L 16.821319580078125,10.3778076171875 L 16.706756591796875,9.88543701171875 M 15.112152099609375,9.57147216796875 L 15.112152099609375,9.57147216796875 L 15.612152099609375,9.57147216796875 L 16.112152099609375,9.57147216796875 L 16.612152099609375,9.57147216796875 M 16.347381591796875,10.96905517578125 L 16.347381591796875,10.96905517578125 L 15.847396850585938,10.969482421875 L 15.347412109375,10.96990966796875 L 14.847427368164062,10.9703369140625 L 14.347442626953125,10.97076416015625" fill="none" stroke="#000000" stroke-width="0.00386871337890625"/>
</svg>
