<?xml version="1.0" ?>
<svg baseProfile="full" height="558px" version="1.1" viewBox="12.884606056213379 8.475772743225098 5.459532394409179 5.077080001831055" width="600px" xmlns="http://www.w3.org/2000/svg" xmlns:ev="http://www.w3.org/2001/xml-events" xmlns:xlink="http://www.w3.org/1999/xlink">
	<defs/>
	<path d="M 17.849334716796875,10.361495971679688 L 17.849334716796875,10.361495971679688 L 17.677764892578125,10.303573608398438 L 17.5045166015625,10.247238159179688 L 17.346359252929688,10.208480834960938 L 17.174789428710938,10.169723510742188 L 17.003219604492188,10.130966186523438 L 16.826614379882812,10.079421997070312 L 16.650009155273438,10.027877807617188 L 16.473403930664062,9.976333618164062 L 16.295120239257812,9.919998168945312 L 16.116836547851562,9.858871459960938 L 15.938552856445312,9.732269287109375 L 15.760269165039062,9.605667114257812 L 15.581985473632812,9.475860595703125 L 15.383575439453125,9.306137084960938 L 15.180130004882812,9.134811401367188 L 14.9766845703125,8.9666748046875 L 14.743057250976562,8.9007568359375 L 14.494338989257812,8.913955688476562 L 14.243942260742188,8.92236328125 L 13.988525390625,8.930770874023438 L 13.7364501953125,8.963134765625 L 13.598419189453125,9.051406860351562 L 13.482177734375,9.149261474609375 M 13.341461181640625,12.014480590820312 L 13.341461181640625,12.014480590820312 L 13.476181030273438,12.395034790039062 L 13.580718994140625,12.579132080078125 L 13.668487548828125,12.731277465820312 L 13.773025512695312,12.8834228515625 L 13.991592407226562,13.035568237304688 L 14.381210327148438,13.074310302734375 L 14.772506713867188,13.101882934570312 L 15.170516967773438,13.12786865234375 L 15.61883544921875,12.828750610351562 L 16.05877685546875,12.54241943359375 L 16.500396728515625,12.252899169921875 L 16.9420166015625,11.9649658203125 L 17.398712158203125,11.740936279296875 L 17.887283325195312,11.692596435546875" fill="none" stroke="#000000" stroke-width="0.004545822143554688"/>
</svg>
