<?xml version="1.0" ?>
<svg baseProfile="full" height="531px" version="1.1" viewBox="14.405662147521973 9.608842079162597 4.780304733276367 4.226483932495118" width="600px" xmlns="http://www.w3.org/2000/svg" xmlns:ev="http://www.w3.org/2001/xml-events" xmlns:xlink="http://www.w3.org/1999/xlink">
	<defs/>
	<path d="M 16.1883544921875,12.936325073242188 L 16.1883544921875,12.936325073242188 L 16.588043212890625,12.58770751953125 L 16.088058471679688,12.453109741210938 L 15.58807373046875,12.520614624023438 L 15.781494140625,13.020599365234375 L 15.820632934570312,12.520599365234375 L 15.385772705078125,12.211898803710938 L 15.674774169921875,12.664321899414062 L 16.174774169921875,12.727035522460938 L 15.951217651367188,12.23626708984375 L 15.7276611328125,12.316558837890625 L 15.6097412109375,12.816543579101562 M 15.702590942382812,13.481460571289062 L 15.702590942382812,13.481460571289062 L 16.202590942382812,13.445892333984375 L 16.533523559570312,13.017410278320312 L 16.851043701171875,12.582550048828125 L 17.28594970703125,12.291427612304688 L 17.78594970703125,12.22869873046875 L 18.28594970703125,12.138809204101562 L 18.78594970703125,12.050521850585938 L 18.458419799804688,11.620437622070312 L 17.95843505859375,11.490631103515625 L 17.458450317382812,11.376800537109375 L 17.026947021484375,11.068099975585938 L 16.59710693359375,10.7578125 L 16.135421752929688,10.476272583007812 L 15.670364379882812,10.194732666015625 L 15.191909790039062,9.96270751953125 L 14.805679321289062,10.338470458984375 L 15.024246215820312,10.829238891601562 L 15.387039184570312,11.224166870117188 L 15.76995849609375,11.591949462890625 L 15.39044189453125,11.966110229492188 L 14.920364379882812,12.199722290039062 L 14.844375610351562,12.698471069335938 L 15.187042236328125,13.091796875 L 15.642059326171875,13.342971801757812" fill="none" stroke="#000000" stroke-width="0.0039802703857421875"/>
</svg>
