<?xml version="1.0" ?>
<svg baseProfile="full" height="600px" version="1.1" viewBox="14.167071815490722 7.444716163635254 3.0599603729248046 6.91914616394043" width="266px" xmlns="http://www.w3.org/2000/svg" xmlns:ev="http://www.w3.org/2001/xml-events" xmlns:xlink="http://www.w3.org/1999/xlink">
	<defs/>
	<path d="M 16.069107055664062,9.246124267578125 L 16.069107055664062,9.246124267578125 L 15.569122314453125,9.272109985351562 L 15.099044799804688,9.545654296875 L 14.8050537109375,9.994873046875 L 14.65191650390625,10.494857788085938 L 14.510528564453125,10.994842529296875 L 14.424468994140625,11.494827270507812 L 14.4820556640625,11.99481201171875 L 14.779449462890625,12.44085693359375 L 15.266342163085938,12.56744384765625 L 15.763290405273438,12.646133422851562 L 16.236770629882812,12.441268920898438 L 16.643173217773438,12.1309814453125 L 16.9154052734375,11.692916870117188 L 16.969635009765625,11.192916870117188 L 16.92047119140625,10.692916870117188 L 16.864608764648438,10.192916870117188 L 16.785263061523438,9.692916870117188 L 16.352081298828125,9.411376953125 M 16.030838012695312,9.143035888671875 L 16.030838012695312,9.143035888671875 L 16.182327270507812,8.909408569335938 L 16.114730834960938,8.439407348632812 L 15.814041137695312,8.023712158203125 L 15.314056396484375,8.059280395507812 L 14.97479248046875,8.500518798828125 L 14.96923828125,9.000503540039062 L 15.087188720703125,9.50048828125 M 14.874420166015625,12.618011474609375 L 14.874420166015625,12.618011474609375 L 14.76824951171875,12.982589721679688 L 14.817459106445312,13.482574462890625 L 15.245651245117188,13.784866333007812 L 15.734222412109375,13.605560302734375 L 15.867279052734375,13.105560302734375 L 15.690673828125,12.605560302734375" fill="none" stroke="#000000" stroke-width="0.005761154174804687"/>
</svg>
