<?xml version="1.0" ?>
<svg baseProfile="full" height="327px" version="1.1" viewBox="4.276489784240723 5.286760475158691 8.095076461791992 4.410060592651368" width="600px" xmlns="http://www.w3.org/2000/svg" xmlns:ev="http://www.w3.org/2001/xml-events" xmlns:xlink="http://www.w3.org/1999/xlink">
	<defs/>
	<path d="M 11.694168090820312,7.459991455078125 L 11.694168090820312,7.459991455078125 L 11.321365356445312,7.8533172607421875 L 10.869735717773438,8.117279052734375 L 10.3697509765625,8.213531494140625 L 9.869766235351562,8.309783935546875 L 9.369781494140625,8.404434204101562 L 8.869796752929688,8.500686645507812 L 8.36981201171875,8.601730346679688 L 7.8698272705078125,8.702774047851562 L 7.4064483642578125,8.952346801757812 L 7.0151824951171875,9.326507568359375 L 6.51519775390625,9.19830322265625 L 6.2664794921875,8.776214599609375 L 6.2257080078125,8.290237426757812 L 6.2251739501953125,7.8026580810546875 L 6.2810821533203125,7.3134918212890625 L 6.3420257568359375,6.8259124755859375 L 6.5035858154296875,6.3383331298828125 L 6.83953857421875,5.922637939453125 L 7.29791259765625,5.657073974609375 M 6.7175140380859375,6.4201812744140625 L 6.7175140380859375,6.4201812744140625 L 7.2175140380859375,6.5691375732421875 L 7.1868133544921875,7.069122314453125 L 7.0152435302734375,7.5630645751953125 L 6.7631683349609375,8.013885498046875 L 6.3467559814453125,8.340133666992188 L 5.873321533203125,8.5146484375 M 6.080902099609375,6.8824462890625 L 6.080902099609375,6.8824462890625 L 5.8774566650390625,6.88287353515625 L 5.377471923828125,6.802581787109375 L 5.2528533935546875,6.6759796142578125 M 6.167999267578125,7.169891357421875 L 6.167999267578125,7.169891357421875 L 5.7113494873046875,7.446624755859375 L 5.2379150390625,7.6818389892578125 M 6.281951904296875,7.796783447265625 L 6.281951904296875,7.796783447265625 L 5.8755950927734375,8.121444702148438 L 5.43402099609375,8.371017456054688 L 4.953887939453125,8.553512573242188" fill="none" stroke="#000000" stroke-width="0.006740280151367187"/>
</svg>
