<?xml version="1.0" ?>
<svg baseProfile="full" height="319px" version="1.1" viewBox="14.656905952453613 9.894132820129395 4.387619369506836 2.329349105834961" width="600px" xmlns="http://www.w3.org/2000/svg" xmlns:ev="http://www.w3.org/2001/xml-events" xmlns:xlink="http://www.w3.org/1999/xlink">
	<defs/>
	<path d="M 18.6773681640625,11.329696655273438 L 18.6773681640625,11.329696655273438 L 18.52423095703125,11.308502197265625 L 18.359359741210938,11.28570556640625 L 18.194488525390625,11.262908935546875 L 18.027938842773438,11.2401123046875 L 17.86138916015625,11.22210693359375 L 17.694839477539062,11.199310302734375 L 17.528289794921875,11.1573486328125 L 17.363418579101562,11.110610961914062 L 17.1951904296875,11.039901733398438 L 17.021942138671875,10.911697387695312 L 16.84869384765625,10.764328002929688 L 16.675445556640625,10.600982666015625 L 16.502197265625,10.440841674804688 L 16.32391357421875,10.28070068359375 L 16.130523681640625,10.160476684570312 L 15.90191650390625,10.089767456054688 L 15.671646118164062,10.114151000976562 L 15.441375732421875,10.181655883789062 L 15.237930297851562,10.308242797851562 L 15.114990234375,10.466796875 L 15.055770874023438,10.641311645507812 L 15.053558349609375,10.815826416015625 L 15.082626342773438,10.990341186523438 L 15.140213012695312,11.16485595703125 L 15.216232299804688,11.339370727539062 L 15.29058837890625,11.513885498046875 M 15.228012084960938,11.664443969726562 L 15.228012084960938,11.664443969726562 L 15.128555297851562,11.845352172851562 L 15.024063110351562,12.027847290039062 M 15.600433349609375,10.985595703125 L 15.600433349609375,10.985595703125 L 15.534515380859375,11.265533447265625 L 15.515548706054688,11.089401245117188 L 15.4898681640625,10.791885375976562 L 15.63800048828125,10.852996826171875 L 15.905197143554688,11.01953125 L 15.797348022460938,11.170089721679688 L 15.56036376953125,11.459609985351562 L 15.4910888671875,11.317031860351562 L 15.394973754882812,11.064239501953125" fill="none" stroke="#000000" stroke-width="0.0036533050537109375"/>
</svg>
