<?xml version="1.0" ?>
<svg baseProfile="full" height="600px" version="1.1" viewBox="12.808590553283691 8.74340195465088 3.3924471893310546 6.066189865112305" width="336px" xmlns="http://www.w3.org/2000/svg" xmlns:ev="http://www.w3.org/2001/xml-events" xmlns:xlink="http://www.w3.org/1999/xlink">
	<defs/>
	<path d="M 14.226104736328125,10.5440673828125 L 14.226104736328125,10.5440673828125 L 14.236740112304688,10.361557006835938 L 14.26580810546875,10.087997436523438 L 14.410598754882812,10.150711059570312 L 14.583892822265625,10.213424682617188 L 14.49951171875,10.362380981445312 L 14.3883056640625,10.535293579101562 L 14.277099609375,10.708206176757812 L 14.1658935546875,10.812454223632812 L 14.0546875,10.921478271484375 L 13.9434814453125,11.0321044921875 L 13.832275390625,11.153915405273438 L 13.7210693359375,11.323638916015625 L 13.658493041992188,11.498153686523438 L 13.711044311523438,11.6630859375 L 13.768630981445312,11.821640014648438 L 13.809432983398438,12.020111083984375 L 13.803878784179688,12.1866455078125 L 13.796646118164062,12.43621826171875 L 13.941436767578125,12.492538452148438 L 14.0946044921875,12.5616455078125 L 14.252792358398438,12.635528564453125 L 14.414352416992188,12.728591918945312 L 14.508834838867188,12.893524169921875 L 14.508834838867188,13.149505615234375 L 14.431167602539062,13.32720947265625 L 14.314926147460938,13.624710083007812 L 14.302658081054688,13.446990966796875 L 14.293746948242188,13.256500244140625 L 14.2943115234375,12.94940185546875 L 14.29656982421875,12.776473999023438 L 14.315582275390625,12.555618286132812 M 14.475067138671875,13.502059936523438 L 14.475067138671875,13.502059936523438 L 14.631591796875,13.547210693359375 L 14.811599731445312,13.59075927734375 L 14.879241943359375,13.454574584960938 L 14.940185546875,13.2752685546875 L 14.775314331054688,12.834014892578125 M 14.203094482421875,10.074935913085938 L 14.203094482421875,10.074935913085938 L 14.347885131835938,9.991455078125 L 14.556396484375,9.848876953125 L 14.699508666992188,10.042556762695312 L 14.760452270507812,10.365615844726562 L 14.814682006835938,10.514572143554688 L 14.870590209960938,10.797683715820312 M 14.713668823242188,11.542037963867188 L 14.713668823242188,11.542037963867188 L 14.741073608398438,11.7548828125 L 14.771820068359375,12.018844604492188 L 14.7679443359375,12.182174682617188 L 14.76239013671875,12.415786743164062 L 14.804885864257812,12.2716064453125 L 14.847381591796875,12.127426147460938 L 14.884841918945312,11.964080810546875 L 15.029632568359375,11.914138793945312 L 15.174423217773438,11.868972778320312 L 15.356109619140625,11.860549926757812 L 15.542816162109375,11.853729248046875 L 15.729522705078125,11.846908569335938 L 15.916229248046875,11.840087890625 M 14.641159057617188,13.645050048828125 L 14.641159057617188,13.645050048828125 L 14.410888671875,13.742904663085938 L 14.155471801757812,13.925399780273438 L 13.8631591796875,14.085525512695312 L 13.570846557617188,14.245651245117188 L 13.275177001953125,14.301971435546875 M 14.473861694335938,9.746017456054688 L 14.473861694335938,9.746017456054688 L 14.277130126953125,9.691268920898438 L 14.038467407226562,9.633346557617188 L 13.798126220703125,9.548263549804688 L 13.544387817382812,9.4583740234375 L 13.406356811523438,9.368484497070312 L 13.263290405273438,9.302566528320312 L 13.093399047851562,9.251022338867188" fill="none" stroke="#000000" stroke-width="0.005050949096679688"/>
</svg>
