<?xml version="1.0" ?>
<svg baseProfile="full" height="600px" version="1.1" viewBox="14.428401313781738 9.140519844055175 3.9405759124755857 4.199963119506836" width="563px" xmlns="http://www.w3.org/2000/svg" xmlns:ev="http://www.w3.org/2001/xml-events" xmlns:xlink="http://www.w3.org/1999/xlink">
	<defs/>
	<path d="M 17.461868286132812,10.695693969726562 L 17.461868286132812,10.695693969726562 L 17.214828491210938,10.439697265625 L 16.7581787109375,10.17413330078125 L 16.258193969726562,10.007583618164062 L 15.758209228515625,9.841033935546875 L 15.258224487304688,9.67608642578125 L 14.75823974609375,9.491973876953125 L 14.876190185546875,9.991958618164062 L 14.989105224609375,10.491943359375 L 14.961746215820312,10.991928100585938 L 14.88909912109375,11.491912841796875 L 14.816452026367188,11.991897583007812 L 14.785751342773438,12.49188232421875 L 14.893646240234375,12.989028930664062 L 15.390594482421875,12.961441040039062 L 15.771835327148438,12.649566650390625 L 16.148040771484375,12.326507568359375 L 16.524246215820312,12.022613525390625 L 16.922256469726562,11.763442993164062 L 17.332000732421875,11.544189453125 L 17.745101928710938,11.329742431640625 L 18.039138793945312,10.923629760742188 L 17.756881713867188,10.450424194335938 M 17.09722900390625,10.245452880859375 L 17.09722900390625,10.245452880859375 L 17.59722900390625,10.333724975585938 L 17.822509765625,10.822891235351562 L 17.58050537109375,11.292877197265625" fill="none" stroke="#000000" stroke-width="0.0034970550537109374"/>
</svg>
