<?xml version="1.0" ?>
<svg baseProfile="full" height="581px" version="1.1" viewBox="11.124823852539063 9.354946228027345 5.561662109375 5.383994873046875" width="600px" xmlns="http://www.w3.org/2000/svg" xmlns:ev="http://www.w3.org/2001/xml-events" xmlns:xlink="http://www.w3.org/1999/xlink">
	<defs/>
	<path d="M 16.221084594726562,12.511474609375 L 16.221084594726562,12.511474609375 L 16.041122436523438,12.537460327148438 L 15.830978393554688,12.565032958984375 L 15.617477416992188,12.626144409179688 L 15.407333374023438,12.7447509765625 L 15.218994140625,12.893707275390625 L 15.039031982421875,13.061843872070312 L 14.85906982421875,13.22998046875 L 14.679107666015625,13.361373901367188 L 14.497482299804688,13.473602294921875 L 14.31585693359375,13.55706787109375 L 14.135894775390625,13.6341552734375 L 13.954269409179688,13.733596801757812 L 13.77264404296875,13.842620849609375 L 13.592681884765625,13.966033935546875 L 13.4127197265625,14.089447021484375 L 13.232757568359375,14.212860107421875 L 13.046096801757812,14.288345336914062 L 12.857757568359375,14.22882080078125 L 12.674453735351562,13.9808349609375 L 12.600128173828125,13.571517944335938 L 12.60406494140625,13.15582275390625 M 12.46771240234375,13.088302612304688 L 12.46771240234375,13.088302612304688 L 12.316253662109375,13.006423950195312 L 12.070892333984375,12.835098266601562 L 11.781936645507812,12.650985717773438 L 11.590225219726562,12.438140869140625 L 11.604217529296875,12.132644653320312 L 11.752349853515625,11.752090454101562 L 11.986007690429688,11.4002685546875 L 12.045272827148438,11.54443359375 L 12.096160888671875,11.712570190429688 L 12.133621215820312,11.903060913085938 L 12.169403076171875,12.099929809570312 M 12.363510131835938,11.225997924804688 L 12.363510131835938,11.225997924804688 L 12.2891845703125,11.003555297851562 L 12.21319580078125,10.691680908203125 L 12.238922119140625,10.355850219726562 L 12.383712768554688,10.023193359375 L 12.644210815429688,9.8055419921875 L 12.918121337890625,9.84271240234375 L 13.1937255859375,9.977294921875 L 13.469329833984375,10.20611572265625 L 13.677841186523438,10.487640380859375 L 13.74884033203125,10.78033447265625 L 13.667816162109375,11.07623291015625 M 12.50994873046875,11.136444091796875 L 12.50994873046875,11.136444091796875 L 12.644668579101562,11.052963256835938 L 12.779388427734375,10.969482421875 L 12.919143676757812,10.886001586914062 L 12.838119506835938,10.75140380859375 L 12.686660766601562,10.564102172851562 L 12.360809326171875,10.304931640625 L 11.97625732421875,10.042556762695312 M 12.237960815429688,13.176223754882812 L 12.237960815429688,13.176223754882812 L 12.21563720703125,13.325180053710938 L 12.213424682617188,13.475738525390625 L 12.234115600585938,13.62469482421875 L 12.370513916015625,13.687408447265625 L 12.511947631835938,13.751708984375 L 12.690277099609375,13.900665283203125 L 12.866928100585938,14.052810668945312 M 12.059494018554688,11.517745971679688 L 12.059494018554688,11.517745971679688 L 12.164031982421875,11.33203125 L 12.2752685546875,11.139938354492188 L 12.396591186523438,10.946243286132812" fill="none" stroke="#000000" stroke-width="0.004630859375"/>
</svg>
