<?xml version="1.0" ?>
<svg baseProfile="full" height="248px" version="1.1" viewBox="10.646314002990723 9.982042457580567 7.955800338745117 3.275386520385742" width="600px" xmlns="http://www.w3.org/2000/svg" xmlns:ev="http://www.w3.org/2001/xml-events" xmlns:xlink="http://www.w3.org/1999/xlink">
	<defs/>
	<path d="M 14.543624877929688,11.097686767578125 L 14.543624877929688,11.097686767578125 L 14.460922241210938,10.969482421875 L 14.378219604492188,10.841278076171875 L 14.293838500976562,10.698699951171875 L 14.322906494140625,10.544937133789062 L 14.455963134765625,10.461456298828125 L 14.60577392578125,10.3699951171875 L 14.75726318359375,10.25775146484375 L 14.90875244140625,10.261367797851562 L 15.018325805664062,10.368804931640625 L 15.126220703125,10.504989624023438 L 15.2391357421875,10.653945922851562 L 15.347030639648438,10.80450439453125 L 15.406295776367188,10.98541259765625 L 15.362167358398438,11.211044311523438 L 15.21240234375,11.441452026367188 L 15.032440185546875,11.671859741210938 L 14.85247802734375,11.900680541992188 L 14.640655517578125,12.129501342773438 L 14.360076904296875,12.305618286132812 L 14.079498291015625,12.481735229492188 L 13.7972412109375,12.641860961914062 L 13.5133056640625,12.798812866210938 L 13.219314575195312,12.9078369140625 L 12.918624877929688,12.981719970703125 L 12.619598388671875,12.968521118164062 L 12.33734130859375,12.819549560546875 L 12.086944580078125,12.61627197265625 L 11.891891479492188,12.3507080078125 L 11.691802978515625,12.08673095703125 L 11.491714477539062,11.82275390625 M 11.480209350585938,11.74456787109375 L 11.480209350585938,11.74456787109375 L 11.44110107421875,11.552474975585938 L 11.395294189453125,11.3555908203125 L 11.3494873046875,11.158706665039062 L 11.312057495117188,10.961822509765625 L 11.312057495117188,10.772918701171875 L 11.352859497070312,10.623947143554688 L 11.40374755859375,10.430252075195312 L 11.454635620117188,10.278091430664062 M 17.566696166992188,11.83544921875 L 17.566696166992188,11.83544921875 L 17.400146484375,11.965240478515625 L 17.233596801757812,12.09503173828125 L 17.14251708984375,12.215240478515625 L 17.026275634765625,12.36419677734375 L 16.9100341796875,12.513153076171875 L 16.800506591796875,12.663711547851562 L 16.637313842773438,12.886138916015625 L 16.614990234375,12.714813232421875 L 16.590988159179688,12.474807739257812 L 16.5653076171875,12.2252197265625 L 16.539627075195312,11.986801147460938 L 16.520660400390625,11.770751953125 L 16.515106201171875,11.556304931640625 L 16.509552001953125,11.34185791015625 L 16.509017944335938,11.127410888671875 L 16.506805419921875,10.9129638671875 L 16.504592895507812,10.716079711914062 L 16.50238037109375,10.520797729492188 L 16.500167846679688,10.325515747070312 L 16.594650268554688,10.445724487304688 L 16.690811157226562,10.57073974609375 L 16.786972045898438,10.695755004882812 L 16.883132934570312,10.819168090820312 L 16.979293823242188,10.944183349609375 L 17.075454711914062,11.069198608398438 L 17.171615600585938,11.1942138671875 L 17.267776489257812,11.319229125976562 L 17.362258911132812,11.444244384765625 L 17.503692626953125,11.503768920898438 L 17.645126342773438,11.56329345703125 L 17.7899169921875,11.622817993164062 L 17.936370849609375,11.682342529296875" fill="none" stroke="#000000" stroke-width="0.006624313354492188"/>
</svg>
