<?xml version="1.0" ?>
<svg baseProfile="full" height="566px" version="1.1" viewBox="15.113691093444825 10.404932548522948 4.912800308227539 4.629023452758789" width="600px" xmlns="http://www.w3.org/2000/svg" xmlns:ev="http://www.w3.org/2001/xml-events" xmlns:xlink="http://www.w3.org/1999/xlink">
	<defs/>
	<path d="M 19.560028076171875,13.489852905273438 L 19.560028076171875,13.489852905273438 L 19.3314208984375,13.517425537109375 L 19.084381103515625,13.554595947265625 L 18.83734130859375,13.614120483398438 L 18.590301513671875,13.67364501953125 L 18.338226318359375,13.801834106445312 L 18.089508056640625,13.979537963867188 L 17.84246826171875,14.158843994140625 L 17.595428466796875,14.3365478515625 L 17.269577026367188,14.420013427734375 L 16.9437255859375,14.50030517578125 L 16.617874145507812,14.580596923828125 L 16.292022705078125,14.646499633789062 M 16.269790649414062,13.98193359375 L 16.269790649414062,13.98193359375 L 16.229019165039062,13.796218872070312 L 16.084274291992188,13.612106323242188 L 15.874130249023438,13.536605834960938 L 15.724365234375,13.600906372070312 L 15.838958740234375,13.698760986328125 L 15.983749389648438,13.817367553710938 L 16.1285400390625,13.93597412109375 L 16.273330688476562,14.052978515625 M 16.239303588867188,13.79058837890625 L 16.239303588867188,13.79058837890625 L 16.382415771484375,13.864471435546875 L 16.527206420898438,13.936767578125 L 16.389175415039062,13.8516845703125 L 16.199142456054688,13.764999389648438 L 15.983963012695312,13.678314208984375 L 15.767105102539062,13.596435546875 M 15.744888305664062,13.484176635742188 L 15.744888305664062,13.484176635742188 L 15.65716552734375,13.3543701171875 L 15.587890625,13.171859741210938 L 15.532028198242188,12.98614501953125 L 15.524795532226562,12.802032470703125 L 15.5303955078125,12.617919921875 L 15.593017578125,12.433807373046875 L 15.732772827148438,12.275253295898438 L 15.882583618164062,12.147048950195312 L 16.034072875976562,12.02044677734375 L 16.185562133789062,11.893844604492188 M 16.311904907226562,11.807159423828125 L 16.311904907226562,11.807159423828125 L 16.453338623046875,11.706100463867188 L 16.604827880859375,11.491653442382812 L 16.6842041015625,11.245254516601562 L 16.735092163085938,10.994064331054688 L 16.694320678710938,10.792388916015625 L 16.514358520507812,10.837539672851562 L 16.326019287109375,10.984909057617188 L 16.154449462890625,11.167404174804688 L 16.138839721679688,11.353103637695312 L 16.20648193359375,11.490875244140625 L 16.2841796875,11.628646850585938 L 16.395416259765625,11.769622802734375 M 16.425064086914062,11.307159423828125 L 16.425064086914062,11.307159423828125 L 16.4625244140625,11.115066528320312 L 16.511734008789062,10.844711303710938 M 17.019882202148438,10.81158447265625 L 17.019882202148438,10.81158447265625 L 17.300506591796875,10.813613891601562 L 17.589508056640625,10.845977783203125 L 17.803054809570312,10.991744995117188 L 18.011566162109375,11.18701171875 L 18.220077514648438,11.395065307617188 L 18.4285888671875,11.585556030273438 L 18.637100219726562,11.768051147460938 L 18.864059448242188,11.89306640625 L 19.114501953125,11.938217163085938 L 19.364944458007812,11.981765747070312 L 19.615386962890625,12.025314331054688" fill="none" stroke="#000000" stroke-width="0.004090591430664063"/>
</svg>
