<?xml version="1.0" ?>
<svg baseProfile="full" height="413px" version="1.1" viewBox="14.029172050476074 10.359341728210449 4.474447036743165 3.079366470336914" width="600px" xmlns="http://www.w3.org/2000/svg" xmlns:ev="http://www.w3.org/2001/xml-events" xmlns:xlink="http://www.w3.org/1999/xlink">
	<defs/>
	<path d="M 18.129196166992188,11.456085205078125 L 18.129196166992188,11.456085205078125 L 17.942535400390625,11.434890747070312 L 17.724014282226562,11.4912109375 L 17.544052124023438,11.58746337890625 L 17.365768432617188,11.686904907226562 L 17.187484741210938,11.786346435546875 L 17.009201049804688,11.885787963867188 L 16.830917358398438,11.9852294921875 L 16.654312133789062,12.091064453125 L 16.479385375976562,12.2144775390625 L 16.306137084960938,12.3778076171875 L 16.134567260742188,12.55072021484375 L 15.964675903320312,12.771560668945312 L 15.788070678710938,12.992401123046875 L 15.601409912109375,13.176498413085938 M 15.449951171875,13.18011474609375 L 15.449951171875,13.18011474609375 L 15.2364501953125,13.1805419921875 L 15.001144409179688,13.100250244140625 L 14.797698974609375,12.892181396484375 L 14.6278076171875,12.6409912109375 L 14.498153686523438,12.381820678710938 L 14.423828125,12.101882934570312 L 14.4149169921875,11.80596923828125 L 14.437286376953125,11.510055541992188 L 14.464691162109375,11.212539672851562 L 14.492095947265625,10.915023803710938 L 14.519500732421875,10.617507934570312 M 14.630996704101562,11.2705078125 L 14.630996704101562,11.2705078125 L 14.760696411132812,11.448211669921875 L 14.677993774414062,11.584396362304688 L 14.566787719726562,11.763702392578125 L 14.403594970703125,11.79766845703125" fill="none" stroke="#000000" stroke-width="0.0037256011962890625"/>
</svg>
