<?xml version="1.0" ?>
<svg baseProfile="full" height="600px" version="1.1" viewBox="7.638110542297364 9.873755073547363 7.353310775756836 8.176516342163087" width="540px" xmlns="http://www.w3.org/2000/svg" xmlns:ev="http://www.w3.org/2001/xml-events" xmlns:xlink="http://www.w3.org/1999/xlink">
	<defs/>
	<path d="M 14.370452880859375,12.070480346679688 L 14.370452880859375,12.070480346679688 L 14.336380004882812,12.246597290039062 L 14.300628662109375,12.446670532226562 L 14.179351806640625,12.669097900390625 L 14.051376342773438,12.891525268554688 L 13.876449584960938,13.118743896484375 L 13.704879760742188,13.357147216796875 L 13.538330078125,13.600341796875 L 13.371780395507812,13.878677368164062 L 13.205230712890625,14.168197631835938 L 13.0118408203125,14.45611572265625 L 12.845291137695312,14.747238159179688 L 12.680419921875,15.043136596679688 L 12.513870239257812,15.375778198242188 L 12.3489990234375,15.71160888671875 L 12.182449340820312,16.047439575195312 L 12.015899658203125,16.383270263671875 L 11.8426513671875,16.719100952148438 L 11.481582641601562,17.0533447265625 M 11.226165771484375,17.1591796875 L 11.226165771484375,17.1591796875 L 10.923797607421875,17.2650146484375 L 10.614700317382812,17.366058349609375 L 10.246917724609375,17.327301025390625 L 9.867401123046875,17.290130615234375 L 9.432540893554688,17.205047607421875 L 8.99432373046875,16.996978759765625 L 8.522567749023438,16.748992919921875 L 8.25372314453125,16.277389526367188 L 8.326400756835938,15.777389526367188 L 8.600311279296875,15.321762084960938 L 8.869186401367188,14.85015869140625 L 8.973724365234375,14.35015869140625 L 9.078262329101562,13.85015869140625 L 9.196212768554688,13.35015869140625 L 9.34100341796875,12.85015869140625 L 9.487457275390625,12.35015869140625 L 9.719436645507812,11.864181518554688 L 9.9967041015625,11.416534423828125 L 10.282363891601562,10.97686767578125 L 10.579757690429688,10.557968139648438 M 9.298980712890625,14.196990966796875 L 9.298980712890625,14.196990966796875 L 9.467254638671875,14.22137451171875 L 9.679122924804688,14.25213623046875 L 9.892669677734375,14.37872314453125 L 10.106216430664062,14.6282958984375 L 10.31976318359375,15.0743408203125 L 10.20855712890625,15.574325561523438 M 11.907470703125,15.129791259765625 L 11.907470703125,15.129791259765625 L 11.742599487304688,14.763595581054688 L 11.569351196289062,14.389419555664062 M 12.618072509765625,13.478134155273438 L 12.618072509765625,13.478134155273438 L 12.2586669921875,13.0927734375 L 12.075363159179688,12.5927734375 M 13.414779663085938,12.234542846679688 L 13.414779663085938,12.234542846679688 L 13.1241455078125,12.050430297851562 L 12.764739990234375,11.634735107421875 L 12.573028564453125,11.140777587890625 M 13.559677124023438,14.084320068359375 L 13.559677124023438,14.084320068359375 L 13.967742919921875,14.372238159179688 L 14.375808715820312,14.66015625 M 12.791290283203125,15.603302001953125 L 12.791290283203125,15.603302001953125 L 13.150741577148438,15.95989990234375 L 13.540359497070312,16.295730590820312" fill="none" stroke="#000000" stroke-width="0.006808090209960938"/>
</svg>
