<?xml version="1.0" ?>
<svg baseProfile="full" height="367px" version="1.1" viewBox="12.068441757202148 8.960996994018554 5.805651885986328 3.541827423095703" width="600px" xmlns="http://www.w3.org/2000/svg" xmlns:ev="http://www.w3.org/2001/xml-events" xmlns:xlink="http://www.w3.org/1999/xlink">
	<defs/>
	<path d="M 16.381378173828125,10.580047607421875 L 16.381378173828125,10.580047607421875 L 16.082351684570312,10.164352416992188 L 15.605560302734375,9.922744750976562 L 15.105575561523438,9.800918579101562 L 14.6055908203125,9.618408203125 L 14.167373657226562,9.311309814453125 L 13.667388916015625,9.258163452148438 L 13.167404174804688,9.28094482421875 L 12.727508544921875,9.607192993164062 L 12.55426025390625,10.107177734375 L 12.600112915039062,10.607162475585938 L 12.746566772460938,11.107147216796875 L 13.038925170898438,11.43658447265625 L 13.527496337890625,11.61907958984375 L 14.012710571289062,11.860671997070312 M 13.033447265625,11.246475219726562 L 13.033447265625,11.246475219726562 L 13.082656860351562,10.937774658203125 L 13.277740478515625,10.963760375976562 L 13.257095336914062,11.147857666015625 L 13.182769775390625,11.317581176757812 L 13.167160034179688,11.650222778320312 L 13.148193359375,11.48687744140625 L 13.148757934570312,11.304367065429688 L 13.194610595703125,10.804367065429688 L 13.339401245117188,10.899017333984375 L 13.3388671875,11.07672119140625 L 13.267913818359375,11.302352905273438 M 14.1331787109375,11.668502807617188 L 14.1331787109375,11.668502807617188 L 14.184066772460938,12.168487548828125 L 13.68408203125,12.205657958984375 M 16.925994873046875,10.863845825195312 L 16.925994873046875,10.863845825195312 L 17.0758056640625,10.837860107421875 L 17.388275146484375,10.807083129882812 L 17.21502685546875,10.79547119140625 L 16.715042114257812,10.783859252929688 L 16.568634033203125,10.729110717773438 L 16.10357666015625,10.791824340820312" fill="none" stroke="#000000" stroke-width="0.004834014892578125"/>
</svg>
