<?xml version="1.0" ?>
<svg baseProfile="full" height="600px" version="1.1" viewBox="13.628939987182617 4.84329850769043 2.1759884338378908 7.432543609619141" width="176px" xmlns="http://www.w3.org/2000/svg" xmlns:ev="http://www.w3.org/2001/xml-events" xmlns:xlink="http://www.w3.org/1999/xlink">
	<defs/>
	<path d="M 14.184982299804688,8.22247314453125 L 14.184982299804688,8.22247314453125 L 14.324737548828125,7.72247314453125 L 14.255462646484375,8.222457885742188 M 14.833633422851562,9.204391479492188 L 14.833633422851562,9.204391479492188 L 15.15618896484375,9.647232055664062 L 15.45526123046875,10.093276977539062 L 15.391021728515625,10.59326171875 L 15.138946533203125,11.044082641601562 L 14.791290283203125,11.445404052734375 L 14.312835693359375,11.637496948242188 L 13.812850952148438,11.653884887695312 M 13.949325561523438,10.77410888671875 L 13.949325561523438,10.77410888671875 L 14.33056640625,11.138687133789062 L 14.529022216796875,10.683059692382812 L 14.655364990234375,10.203475952148438 L 14.58441162109375,9.714309692382812 L 14.084426879882812,9.74029541015625 L 13.91619873046875,10.240280151367188 L 14.035842895507812,10.740264892578125 L 14.535842895507812,10.8045654296875 L 14.69403076171875,10.328170776367188 L 14.364822387695312,9.952392578125 L 13.904815673828125,10.264266967773438 L 14.363189697265625,10.259048461914062 L 14.312347412109375,9.760284423828125 L 14.016677856445312,10.206329345703125 L 13.8199462890625,10.698684692382812 L 14.283355712890625,10.484237670898438 L 14.281143188476562,10.226669311523438 L 14.310211181640625,10.726654052734375 M 14.003204345703125,9.126083374023438 L 14.003204345703125,9.126083374023438 L 14.04400634765625,9.626068115234375 L 14.311203002929688,10.091278076171875 M 15.526535034179688,7.4408111572265625 L 15.526535034179688,7.4408111572265625 L 15.621017456054688,6.9408111572265625 L 15.5953369140625,6.4408111572265625 L 15.3499755859375,5.98199462890625 L 14.895004272460938,5.7132415771484375 L 14.4249267578125,5.4652557373046875 M 14.323822021484375,6.0774078369140625 L 14.323822021484375,6.0774078369140625 L 14.782196044921875,6.3238067626953125 L 15.190261840820312,6.678802490234375 L 15.015335083007812,7.1727447509765625 L 14.515350341796875,7.0812835693359375 L 14.441024780273438,6.5812835693359375 L 14.681411743164062,6.103302001953125 L 14.834579467773438,6.6032867431640625 L 14.61102294921875,7.0988311767578125 L 15.049285888671875,6.846038818359375 L 14.785476684570312,6.5948486328125" fill="none" stroke="#000000" stroke-width="0.0061886291503906255"/>
</svg>
