<?xml version="1.0" ?>
<svg baseProfile="full" height="600px" version="1.1" viewBox="14.17177066040039 8.617133514404298 2.3548992309570314 5.055649963378906" width="280px" xmlns="http://www.w3.org/2000/svg" xmlns:ev="http://www.w3.org/2001/xml-events" xmlns:xlink="http://www.w3.org/1999/xlink">
	<defs/>
	<path d="M 14.589096069335938,9.662933349609375 L 14.589096069335938,9.662933349609375 L 14.58966064453125,9.46923828125 L 14.692520141601562,9.20367431640625 L 15.031829833984375,9.2999267578125 L 15.08941650390625,9.440902709960938 L 15.148681640625,9.648956298828125 L 15.192855834960938,10.021514892578125 L 14.964248657226562,10.272689819335938 L 14.6685791015625,10.586166381835938 L 14.49365234375,10.885269165039062 L 14.4461669921875,11.219512939453125 M 14.374710083007812,11.597671508789062 L 14.374710083007812,11.597671508789062 L 14.485946655273438,11.82330322265625 L 14.783340454101562,11.924346923828125 L 15.112594604492188,11.943939208984375 L 15.415008544921875,12.1871337890625 L 15.460861206054688,12.685882568359375 L 15.15008544921875,13.112747192382812 L 14.909744262695312,12.83599853515625 L 14.852203369140625,12.528900146484375 M 14.566635131835938,12.951812744140625 L 14.566635131835938,12.951812744140625 L 14.741607666015625,13.1854248046875 L 15.022232055664062,13.249725341796875 L 15.3095703125,13.183807373046875 L 15.59857177734375,13.09552001953125 L 15.790313720703125,12.775650024414062 L 15.859634399414062,12.419052124023438 L 15.679672241210938,11.934677124023438 M 15.826126098632812,11.852798461914062 L 15.826126098632812,11.852798461914062 L 16.084945678710938,11.673492431640625 L 16.32867431640625,11.195510864257812 L 16.105117797851562,10.703140258789062 L 15.661880493164062,10.412017822265625 M 15.09527587890625,9.042236328125 L 15.09527587890625,9.042236328125 L 14.796249389648438,9.040191650390625 L 14.369766235351562,9.096511840820312 L 14.517898559570312,9.438735961914062" fill="none" stroke="#000000" stroke-width="0.0042095336914062505"/>
</svg>
