<?xml version="1.0" ?>
<svg baseProfile="full" height="411px" version="1.1" viewBox="7.127241432189941 8.385891639709472 7.80699479675293 5.343512130737305" width="600px" xmlns="http://www.w3.org/2000/svg" xmlns:ev="http://www.w3.org/2001/xml-events" xmlns:xlink="http://www.w3.org/1999/xlink">
	<defs/>
	<path d="M 13.735977172851562,11.331466674804688 L 13.735977172851562,11.331466674804688 L 13.537567138671875,11.294296264648438 L 13.245254516601562,11.253936767578125 L 12.942886352539062,11.215179443359375 L 12.637161254882812,11.330612182617188 L 12.331436157226562,11.498748779296875 L 12.005584716796875,11.682846069335938 L 11.738418579101562,12.004302978515625 L 11.51654052734375,12.3704833984375 L 11.321487426757812,12.75262451171875 L 11.148239135742188,13.145950317382812 M 13.263259887695312,10.52630615234375 L 13.263259887695312,10.52630615234375 L 12.970947265625,10.52630615234375 L 12.529373168945312,10.52630615234375 L 12.029388427734375,10.4140625 L 11.529403686523438,10.277877807617188 L 11.061004638671875,10.001129150390625 L 10.7821044921875,9.548690795898438 L 10.657485961914062,9.062713623046875 M 10.566055297851562,12.049819946289062 L 10.566055297851562,12.049819946289062 L 10.756118774414062,11.78265380859375 L 10.956253051757812,11.48834228515625 L 11.151336669921875,11.1844482421875 L 11.115585327148438,10.746383666992188 L 10.861846923828125,10.3514404296875 M 10.877716064453125,10.397628784179688 L 10.877716064453125,10.397628784179688 L 10.746383666992188,10.090530395507812 L 10.4842529296875,9.81378173828125 L 10.44012451171875,9.471542358398438 M 13.384628295898438,10.510177612304688 L 13.384628295898438,10.510177612304688 L 13.749099731445312,10.7421875 L 14.162200927734375,11.044479370117188 M 13.996963500976562,11.210968017578125 L 13.996963500976562,11.210968017578125 L 14.28094482421875,10.9326171875 M 8.179458618164062,8.833892822265625 L 8.179458618164062,8.833892822265625 L 8.14202880859375,9.281524658203125 L 8.07275390625,9.781509399414062 L 7.99676513671875,10.281494140625 L 7.919097900390625,10.781478881835938 L 7.8414306640625,11.281463623046875 L 7.7805328369140625,11.781448364257812 L 7.816314697265625,12.28143310546875 L 7.8638458251953125,12.781417846679688 L 7.911376953125,13.281402587890625" fill="none" stroke="#000000" stroke-width="0.006500411987304688"/>
</svg>
