<?xml version="1.0" ?>
<svg baseProfile="full" height="412px" version="1.1" viewBox="15.744350555419922 9.044895294189454 3.659370178222656 2.511573547363281" width="600px" xmlns="http://www.w3.org/2000/svg" xmlns:ev="http://www.w3.org/2001/xml-events" xmlns:xlink="http://www.w3.org/1999/xlink">
	<defs/>
	<path d="M 18.5845947265625,10.75250244140625 L 18.5845947265625,10.75250244140625 L 18.404632568359375,11.014862060546875 L 18.073745727539062,11.345901489257812 L 17.945770263671875,11.257614135742188 L 17.718856811523438,11.134185791015625 L 17.237045288085938,10.94049072265625 L 17.142608642578125,11.06707763671875 L 17.028045654296875,11.228805541992188 L 16.8765869140625,11.198028564453125 L 16.683197021484375,11.146484375 L 16.357345581054688,10.932037353515625 L 16.288070678710938,10.797439575195312 L 16.173507690429688,10.52069091796875 L 16.050567626953125,10.02069091796875 L 16.050567626953125,9.842971801757812 L 16.160140991210938,9.342971801757812 L 16.216049194335938,9.4935302734375 L 16.322265625,9.9395751953125 L 16.320053100585938,9.755462646484375 L 16.42626953125,9.255462646484375 L 16.597885131835938,9.354904174804688 L 16.927139282226562,9.789764404296875 L 17.073593139648438,9.736618041992188 L 17.422958374023438,9.56048583984375 L 17.852828979492188,9.360397338867188 L 18.039535522460938,9.386383056640625 L 18.539535522460938,9.511398315429688 L 18.95263671875,9.869598388671875 L 18.83807373046875,10.020156860351562 L 18.591033935546875,10.423065185546875 L 18.739166259765625,10.480987548828125 L 18.964447021484375,10.62994384765625 L 19.097503662109375,10.857162475585938 L 18.946044921875,10.894332885742188 L 18.49945068359375,10.83160400390625 L 18.368118286132812,10.926254272460938 M 16.683868408203125,9.933746337890625 L 16.683868408203125,9.933746337890625 L 16.557571411132812,9.784774780273438 L 16.308853149414062,9.608642578125 L 16.296585083007812,9.775177001953125 L 16.401123046875,10.275161743164062 L 16.550933837890625,10.76593017578125 L 16.68231201171875,10.2735595703125 L 16.6700439453125,9.7735595703125 M 17.119552612304688,10.416519165039062 L 17.119552612304688,10.416519165039062 L 16.849029541015625,10.328231811523438 L 16.879776000976562,10.477188110351562 L 16.915557861328125,10.905654907226562 L 16.921157836914062,10.734329223632812 L 16.99383544921875,10.379318237304688 L 17.143646240234375,10.413284301757812 L 17.306884765625,10.475997924804688 M 17.15374755859375,10.506759643554688 L 17.15374755859375,10.506759643554688 L 16.7457275390625,10.706832885742188" fill="none" stroke="#000000" stroke-width="0.00304693603515625"/>
</svg>
