<?xml version="1.0" ?>
<svg baseProfile="full" height="600px" version="1.1" viewBox="10.97607958984375 8.32496875 4.5822646484375 5.69008935546875" width="484px" xmlns="http://www.w3.org/2000/svg" xmlns:ev="http://www.w3.org/2001/xml-events" xmlns:xlink="http://www.w3.org/1999/xlink">
	<defs/>
	<path d="M 14.830841064453125,10.160125732421875 L 14.830841064453125,10.160125732421875 L 14.535171508789062,10.039901733398438 L 14.083541870117188,9.911697387695312 L 13.58355712890625,9.786697387695312 L 13.083572387695312,9.661697387695312 L 12.583587646484375,9.519119262695312 L 12.299652099609375,9.073074340820312 L 11.923492431640625,8.801116943359375 L 11.423507690429688,8.922927856445312 L 11.492828369140625,9.42291259765625 L 11.815383911132812,9.568679809570312 L 11.874649047851562,9.068679809570312 L 11.825485229492188,9.56866455078125 L 11.3839111328125,9.842208862304688 L 11.359909057617188,10.342193603515625 L 11.417495727539062,10.842178344726562 L 11.449920654296875,11.3421630859375 L 11.482345581054688,11.842147827148438 L 11.538253784179688,12.342132568359375 L 11.887619018554688,12.738662719726562 L 12.03240966796875,12.687118530273438 L 11.906112670898438,12.6036376953125 L 11.744598388671875,12.421127319335938 L 11.588104248046875,12.921112060546875 M 11.630599975585938,13.066879272460938 L 11.630599975585938,13.066879272460938 L 11.671401977539062,13.512924194335938 L 12.171401977539062,13.538909912109375 L 12.671401977539062,13.409103393554688 L 12.861465454101562,12.929519653320312 M 12.838104248046875,10.702713012695312 L 12.838104248046875,10.702713012695312 L 12.98455810546875,10.832504272460938 L 13.129348754882812,11.251388549804688 L 12.951065063476562,11.751373291015625 L 12.727508544921875,11.909927368164062 M 12.93994140625,11.647125244140625 L 12.93994140625,11.647125244140625 L 13.249069213867188,11.391128540039062 L 13.705764770507812,11.17828369140625 L 14.197677612304688,11.097991943359375 L 14.697677612304688,11.125564575195312 L 15.174514770507812,11.370361328125" fill="none" stroke="#000000" stroke-width="0.00473779296875"/>
</svg>
