<?xml version="1.0" ?>
<svg baseProfile="full" height="600px" version="1.1" viewBox="13.295391906738281 11.431645263671875 3.3940947265625 3.426779052734375" width="595px" xmlns="http://www.w3.org/2000/svg" xmlns:ev="http://www.w3.org/2001/xml-events" xmlns:xlink="http://www.w3.org/1999/xlink">
	<defs/>
	<path d="M 15.681396484375,13.58294677734375 L 15.681396484375,13.58294677734375 L 15.367279052734375,13.556961059570312 L 15.131973266601562,13.54693603515625 L 15.067733764648438,13.735824584960938 L 14.904541015625,14.183456420898438 L 14.734649658203125,14.28289794921875 L 14.568099975585938,14.404708862304688 L 14.40155029296875,14.526519775390625 L 14.228302001953125,14.571670532226562 L 13.998031616210938,14.357223510742188 L 13.750991821289062,13.98944091796875 L 13.579421997070312,13.551376342773438 L 13.633651733398438,13.189971923828125 L 13.904205322265625,12.874893188476562 L 14.149612426757812,12.556625366210938 L 13.98138427734375,12.255935668945312 L 13.749435424804688,11.89453125 L 14.145767211914062,11.718399047851562 L 14.645767211914062,11.741180419921875 L 15.145767211914062,11.990753173828125 L 15.417999267578125,12.417617797851562 L 15.717071533203125,12.858856201171875 L 16.217071533203125,12.818496704101562 L 16.40545654296875,12.431533813476562 M 16.341812133789062,13.83636474609375 L 16.341812133789062,13.83636474609375 L 15.875091552734375,13.82794189453125 M 16.00482177734375,13.699737548828125 L 16.00482177734375,13.699737548828125 L 16.282089233398438,13.797592163085938 M 14.647811889648438,13.50994873046875 L 14.647811889648438,13.50994873046875 L 14.355499267578125,13.407302856445312 L 13.920639038085938,13.479598999023438 L 14.0654296875,13.979583740234375 L 14.54058837890625,14.225982666015625 L 14.997283935546875,13.91888427734375 M 14.5518798828125,13.977096557617188 L 14.5518798828125,13.977096557617188 M 14.06414794921875,12.083282470703125 L 14.06414794921875,12.083282470703125 L 14.240798950195312,12.076461791992188 L 14.5113525390625,11.97540283203125 L 14.67962646484375,11.993392944335938 L 14.824417114257812,11.9466552734375 L 14.863555908203125,12.386306762695312 L 14.807693481445312,12.88629150390625 L 14.579086303710938,12.87786865234375 L 14.276718139648438,12.415847778320312 L 14.535537719726562,11.9378662109375" fill="none" stroke="#000000" stroke-width="0.002853271484375"/>
</svg>
