<?xml version="1.0" ?>
<svg baseProfile="full" height="500px" version="1.1" viewBox="10.945497184753417 7.475436454772949 9.258068740844728 7.7049498443603515" width="600px" xmlns="http://www.w3.org/2000/svg" xmlns:ev="http://www.w3.org/2001/xml-events" xmlns:xlink="http://www.w3.org/1999/xlink">
	<defs/>
	<path d="M 18.84185791015625,11.137603759765625 L 18.84185791015625,11.137603759765625 L 18.75579833984375,11.53253173828125 L 18.565765380859375,12.015304565429688 L 18.1845703125,12.392669677734375 L 17.691024780273438,12.519256591796875 L 17.1910400390625,12.644271850585938 L 16.719284057617188,12.84912109375 L 16.291122436523438,13.1641845703125 L 15.898178100585938,13.509597778320312 L 15.505233764648438,13.861404418945312 L 15.112289428710938,14.213211059570312 L 14.679107666015625,14.509109497070312 L 14.179122924804688,14.53509521484375 L 13.67913818359375,14.491531372070312 L 13.19732666015625,14.265899658203125 L 12.7188720703125,14.0242919921875 L 12.317550659179688,13.66448974609375 L 12.088943481445312,13.183303833007812 L 11.987808227539062,12.683303833007812 L 11.930267333984375,12.183303833007812 L 11.872726440429688,11.683303833007812 L 11.815185546875,11.183303833007812 L 11.759323120117188,10.683303833007812 L 11.72021484375,10.183303833007812 L 11.9102783203125,9.683303833007812 L 12.17413330078125,9.205322265625 L 12.441329956054688,8.736923217773438 L 12.805801391601562,8.365951538085938 L 13.257476806640625,8.167465209960938 L 13.725906372070312,8.1207275390625 L 14.189315795898438,8.333572387695312 L 14.619186401367188,8.603912353515625 L 15.015518188476562,8.928573608398438 L 15.410186767578125,9.25323486328125 L 15.8065185546875,9.577896118164062 L 16.202850341796875,9.902557373046875 L 16.59918212890625,10.198455810546875 L 17.06427001953125,10.235626220703125 L 17.534378051757812,10.188888549804688 L 18.006179809570312,10.140548706054688 L 18.467910766601562,10.369369506835938 L 18.845794677734375,10.70361328125 L 19.225357055664062,11.041030883789062 L 19.428848266601562,11.528594970703125 M 13.703582763671875,10.211868286132812 L 13.703582763671875,10.211868286132812 L 13.444808959960938,10.657913208007812 L 13.036788940429688,10.964996337890625 L 13.215118408203125,11.187423706054688 L 13.698654174804688,11.0975341796875 L 14.071502685546875,10.713775634765625 L 14.027374267578125,10.213775634765625 L 13.6109619140625,9.865158081054688 L 13.427658081054688,10.363906860351562 M 12.728561401367188,13.295318603515625 L 12.728561401367188,13.295318603515625 L 13.022598266601562,13.742950439453125 L 13.51116943359375,13.613143920898438 L 13.843780517578125,13.19903564453125 L 13.459228515625,12.81048583984375 L 12.959243774414062,12.81048583984375 L 12.537811279296875,13.128738403320312" fill="none" stroke="#000000" stroke-width="0.007708633422851562"/>
</svg>
