<?xml version="1.0" ?>
<svg baseProfile="full" height="600px" version="1.1" viewBox="11.147178253173829 7.0201167907714845 4.304596740722657 5.440052062988281" width="475px" xmlns="http://www.w3.org/2000/svg" xmlns:ev="http://www.w3.org/2001/xml-events" xmlns:xlink="http://www.w3.org/1999/xlink">
	<defs/>
	<path d="M 15.091171264648438,10.642608642578125 L 15.091171264648438,10.642608642578125 L 14.701583862304688,10.538360595703125 L 14.20159912109375,10.36383056640625 L 13.726486206054688,10.10943603515625 L 13.346969604492188,9.7288818359375 L 12.84698486328125,9.65338134765625 L 12.347000122070312,9.700119018554688 L 11.847015380859375,9.844284057617188 L 11.688858032226562,10.344268798828125 L 11.744766235351562,10.844253540039062 L 11.507781982421875,11.330215454101562 L 11.771636962890625,11.8145751953125 M 11.749954223632812,10.62481689453125 L 11.749954223632812,10.62481689453125 L 12.152999877929688,10.574874877929688 L 12.652999877929688,10.67431640625 L 13.092941284179688,10.9893798828125 L 13.217605590820312,11.489364624023438 L 12.833053588867188,11.868331909179688 L 12.33306884765625,11.939041137695312 L 11.833084106445312,12.00494384765625 M 12.029861450195312,8.6968994140625 L 12.029861450195312,8.6968994140625 L 12.369171142578125,8.348281860351562 L 12.475387573242188,7.895843505859375 L 12.144500732421875,7.475341796875 L 11.672744750976562,7.58917236328125 M 13.1585693359375,7.9317779541015625 L 13.1585693359375,7.9317779541015625 L 13.554901123046875,8.25323486328125 L 13.738250732421875,8.748779296875 L 13.672332763671875,9.248764038085938" fill="none" stroke="#000000" stroke-width="0.0045296020507812505"/>
</svg>
