<?xml version="1.0" ?>
<svg baseProfile="full" height="600px" version="1.1" viewBox="8.762770988464355 9.450737907409668 3.2560284576416016 5.4002667388916015" width="362px" xmlns="http://www.w3.org/2000/svg" xmlns:ev="http://www.w3.org/2001/xml-events" xmlns:xlink="http://www.w3.org/1999/xlink">
	<defs/>
	<path d="M 11.303970336914062,11.363906860351562 L 11.303970336914062,11.363906860351562 L 11.271591186523438,11.181396484375 L 11.203994750976562,10.930206298828125 L 11.106201171875,10.675811767578125 L 10.99835205078125,10.423019409179688 L 10.818389892578125,10.163848876953125 L 10.546188354492188,9.979736328125 L 10.201889038085938,9.902633666992188 L 9.808944702148438,9.997283935546875 L 9.400924682617188,10.256439208984375 L 9.10693359375,10.649765014648438 L 9.035980224609375,11.14691162109375 L 9.122085571289062,11.646896362304688 L 9.412765502929688,11.957168579101562 L 9.703445434570312,12.086959838867188 L 9.619064331054688,12.213546752929688 L 9.533004760742188,12.391250610351562 L 9.423477172851562,12.706314086914062 L 9.435791015625,12.872848510742188 L 9.449783325195312,13.101669311523438 L 9.48388671875,13.376800537109375 L 9.5465087890625,13.650344848632812 L 9.625885009765625,13.927078247070312 L 9.894760131835938,14.21820068359375 L 10.317916870117188,14.39910888671875 L 10.78802490234375,14.352371215820312 L 11.254776000976562,14.101181030273438 L 11.6376953125,13.7525634765625 L 11.745590209960938,13.2681884765625 L 11.6846923828125,12.7681884765625 L 11.51312255859375,12.2681884765625 L 11.277816772460938,11.997833251953125" fill="none" stroke="#000000" stroke-width="0.004496475219726562"/>
</svg>
