<?xml version="1.0" ?>
<svg baseProfile="full" height="422px" version="1.1" viewBox="15.925877349853515 9.735812347412109 3.199758972167969 2.2468964233398436" width="600px" xmlns="http://www.w3.org/2000/svg" xmlns:ev="http://www.w3.org/2001/xml-events" xmlns:xlink="http://www.w3.org/1999/xlink">
	<defs/>
	<path d="M 18.857879638671875,10.668182373046875 L 18.857879638671875,10.668182373046875 L 18.67791748046875,10.753250122070312 L 18.451004028320312,10.836715698242188 L 18.279434204101562,10.9744873046875 L 18.141403198242188,11.144210815429688 L 17.969833374023438,11.3953857421875 L 17.751312255859375,11.64178466796875 L 17.48583984375,11.76837158203125 L 17.188491821289062,11.794357299804688 L 16.86431884765625,11.7220458984375 L 16.538467407226562,11.577865600585938 L 16.276336669921875,11.31549072265625 L 16.193634033203125,10.942916870117188 L 16.366928100585938,10.639022827148438 L 16.642532348632812,10.391036987304688 L 17.040542602539062,10.253250122070312 L 17.438552856445312,10.274429321289062 M 17.0552978515625,10.292388916015625 L 17.0552978515625,10.292388916015625 L 16.9373779296875,10.1082763671875 L 16.811080932617188,9.924163818359375 L 16.870346069335938,10.095474243164062 L 17.05035400390625,10.471237182617188 L 16.868728637695312,10.53076171875 L 16.489212036132812,10.68450927734375 L 16.682632446289062,10.602630615234375 L 16.9498291015625,10.420120239257812 L 16.847015380859375,10.307876586914062 L 16.499359130859375,10.214813232421875 L 16.64581298828125,10.25836181640625 L 16.921417236328125,10.311492919921875 L 16.960556030273438,10.760711669921875 L 16.964492797851562,10.610137939453125 L 17.015380859375,10.3094482421875 L 16.847152709960938,10.40570068359375 L 16.42572021484375,10.735137939453125" fill="none" stroke="#000000" stroke-width="0.00266424560546875"/>
</svg>
