<?xml version="1.0" ?>
<svg baseProfile="full" height="600px" version="1.1" viewBox="12.975718528747558 9.669889671325684 3.036493240356445 3.7388491973876956" width="488px" xmlns="http://www.w3.org/2000/svg" xmlns:ev="http://www.w3.org/2001/xml-events" xmlns:xlink="http://www.w3.org/1999/xlink">
	<defs/>
	<path d="M 15.6265869140625,11.045989990234375 L 15.6265869140625,11.045989990234375 L 15.356063842773438,10.997650146484375 L 15.03021240234375,10.949310302734375 L 14.709381103515625,10.902572631835938 L 14.499237060546875,10.8590087890625 L 14.529983520507812,10.70684814453125 L 14.572479248046875,10.391769409179688 L 14.583114624023438,10.1102294921875 L 14.438369750976562,10.047500610351562 L 14.11083984375,9.99755859375 L 13.716217041015625,9.982757568359375 L 13.641891479492188,10.117340087890625 L 13.522293090820312,10.485122680664062 L 13.436233520507812,10.927963256835938 L 13.350173950195312,11.372406005859375 L 13.28759765625,11.816848754882812 L 13.230056762695312,12.26129150390625 L 13.348007202148438,12.705734252929688 L 13.615203857421875,13.095870971679688 L 14.073577880859375,13.053909301757812 L 14.417922973632812,12.646194458007812 L 14.018280029296875,12.324722290039062 L 14.419647216796875,12.392227172851562 L 14.839447021484375,12.459732055664062 L 15.289443969726562,12.430557250976562 L 15.75787353515625,12.348678588867188 M 13.665313720703125,10.78839111328125 L 13.665313720703125,10.78839111328125 L 13.702774047851562,10.28839111328125 L 13.702239990234375,10.4613037109375 L 13.639663696289062,10.853042602539062 L 13.67041015625,10.705673217773438 L 13.701156616210938,10.3394775390625 L 13.677154541015625,10.490036010742188 L 13.567626953125,10.936080932617188 M 13.381637573242188,12.165557861328125 L 13.381637573242188,12.165557861328125 L 13.42413330078125,11.665557861328125 L 13.420257568359375,11.910354614257812 L 13.350982666015625,12.41033935546875 L 13.348770141601562,12.24859619140625 L 13.348770141601562,11.74859619140625" fill="none" stroke="#000000" stroke-width="0.0031131134033203127"/>
</svg>
