<?xml version="1.0" ?>
<svg baseProfile="full" height="600px" version="1.1" viewBox="18.9460904006958 4.052781379699707 3.0715032806396483 13.525159286499024" width="137px" xmlns="http://www.w3.org/2000/svg" xmlns:ev="http://www.w3.org/2001/xml-events" xmlns:xlink="http://www.w3.org/1999/xlink">
	<defs/>
	<path d="M 20.056427001953125,12.309463500976562 L 20.056427001953125,12.309463500976562 L 20.352142333984375,12.429672241210938 L 20.7904052734375,12.69842529296875 L 21.228668212890625,13.023086547851562 L 21.524383544921875,13.469131469726562 L 21.704391479492188,13.96148681640625 L 21.756942749023438,14.461471557617188 L 21.66082763671875,14.961456298828125 L 21.4825439453125,15.461441040039062 L 21.299240112304688,15.95538330078125 L 21.107528686523438,16.446151733398438 M 19.8687744140625,9.9127197265625 L 19.8687744140625,9.9127197265625 L 20.265106201171875,9.600845336914062 L 20.666473388671875,9.288970947265625 L 21.066162109375,8.977096557617188 L 21.459152221679688,8.634857177734375 L 21.583816528320312,8.144088745117188 L 21.61456298828125,7.6440887451171875 L 21.63861083984375,7.1440887451171875 L 21.62969970703125,6.6440887451171875 L 21.411178588867188,6.1549224853515625 L 21.195999145507812,5.6657562255859375 L 21.000946044921875,5.1845703125 M 20.81207275390625,6.92095947265625 L 20.81207275390625,6.92095947265625 L 20.440933227539062,6.556365966796875 L 19.940948486328125,6.5823516845703125 L 19.54632568359375,6.9772796630859375 L 19.43511962890625,7.477264404296875 L 19.640289306640625,7.963226318359375 L 19.986312866210938,8.34857177734375 L 20.484939575195312,8.412872314453125 L 20.93157958984375,8.120162963867188 L 20.974075317382812,7.6201629638671875 L 20.973541259765625,7.1201629638671875 M 20.980499267578125,14.007247924804688 L 20.980499267578125,14.007247924804688 L 20.850845336914062,13.507247924804688 L 20.394195556640625,13.260848999023438 L 19.894210815429688,13.328353881835938 L 19.507980346679688,13.699310302734375 L 19.369949340820312,14.19805908203125 L 19.575119018554688,14.685623168945312 L 19.96978759765625,15.013458251953125 L 20.46978759765625,15.003433227539062 L 20.743698120117188,14.566970825195312 L 20.777801513671875,14.079391479492188 L 20.805206298828125,13.591812133789062 M 20.288360595703125,14.03143310546875 L 20.288360595703125,14.03143310546875 L 20.128524780273438,13.532669067382812 L 19.645034790039062,13.780654907226562 L 19.449981689453125,14.25384521484375 L 19.908355712890625,14.49383544921875 L 20.338226318359375,14.212295532226562 L 20.3421630859375,13.723129272460938 L 19.842178344726562,13.723556518554688 L 19.603515625,14.179183959960938 L 19.635940551757812,13.998275756835938 L 19.767318725585938,13.544235229492188 L 19.793045043945312,13.694793701171875 L 19.762344360351562,14.025833129882812 L 19.769622802734375,14.181182861328125 L 19.750656127929688,14.681167602539062 L 19.89544677734375,14.594482421875 L 20.040237426757812,14.507797241210938 L 19.868667602539062,14.488189697265625 L 19.368682861328125,14.517349243164062 L 19.368682861328125,14.366775512695312 L 19.363128662109375,14.0037841796875 L 19.574996948242188,13.992172241210938 L 20.0233154296875,13.725006103515625 L 20.169769287109375,13.662277221679688 L 20.623123168945312,13.647476196289062 M 20.478729248046875,7.612030029296875 L 20.478729248046875,7.612030029296875 L 20.484329223632812,7.112030029296875 L 19.984344482421875,6.92791748046875 L 19.484359741210938,7.076873779296875 L 19.478805541992188,7.5768585205078125 L 19.818115234375,7.968597412109375 L 20.318115234375,7.999359130859375 L 20.592025756835938,7.5740814208984375 L 20.344985961914062,7.116851806640625 L 19.845001220703125,7.1036529541015625 L 19.638214111328125,7.57684326171875 L 20.029510498046875,7.7609405517578125 L 19.633224487304688,7.41552734375 L 19.206741333007812,7.11163330078125 L 19.619842529296875,6.810943603515625 L 20.108413696289062,6.719482421875 L 20.214630126953125,7.2194671630859375" fill="none" stroke="#000000" stroke-width="0.011261581420898437"/>
</svg>
