<?xml version="1.0" ?>
<svg baseProfile="full" height="600px" version="1.1" viewBox="16.99651579284668 4.328469223022461 4.541224395751954 13.643232452392578" width="200px" xmlns="http://www.w3.org/2000/svg" xmlns:ev="http://www.w3.org/2001/xml-events" xmlns:xlink="http://www.w3.org/1999/xlink">
	<defs/>
	<path d="M 18.898040771484375,12.761962890625 L 18.898040771484375,12.761962890625 L 19.125,12.965240478515625 L 19.355300903320312,13.233993530273438 L 19.567169189453125,13.56024169921875 L 19.639846801757812,14.060226440429688 L 19.599075317382812,14.560211181640625 L 19.558303833007812,15.060195922851562 L 19.477279663085938,15.5601806640625 L 19.24365234375,16.022186279296875 L 18.875869750976562,16.4171142578125 L 18.50640869140625,16.812042236328125 L 18.344894409179688,16.830032348632812 L 18.3057861328125,16.330032348632812 L 18.015151977539062,15.850448608398438 L 17.71612548828125,15.388427734375 L 17.459030151367188,14.900848388671875 L 17.379684448242188,14.400848388671875 L 17.561370849609375,13.900848388671875 L 17.79840087890625,13.408477783203125 L 18.035430908203125,12.916107177734375 L 18.374740600585938,12.540328979492188 L 18.843170166015625,12.623794555664062 M 18.285736083984375,10.324234008789062 L 18.285736083984375,10.324234008789062 L 17.954849243164062,9.882980346679688 L 17.875503540039062,9.382980346679688 L 17.85821533203125,8.882980346679688 L 17.840927124023438,8.382980346679688 L 17.837051391601562,7.8829803466796875 L 18.1109619140625,7.43853759765625 L 18.351348876953125,6.9701385498046875 L 18.382095336914062,6.4701385498046875 L 18.414520263671875,5.9701385498046875 L 18.5391845703125,5.4701385498046875 M 18.626953125,5.59515380859375 L 18.626953125,5.59515380859375 L 18.549285888671875,6.0951385498046875 L 18.41461181640625,6.5906829833984375 L 18.732131958007812,7.0159454345703125 L 19.049652099609375,7.4412078857421875 L 19.10723876953125,7.9367523193359375 L 19.161468505859375,8.432296752929688 L 19.2156982421875,8.927841186523438 L 19.269927978515625,9.42498779296875 L 19.297332763671875,9.9205322265625 L 19.0821533203125,10.406494140625 L 18.582168579101562,10.63690185546875 M 17.867156982421875,8.444351196289062 L 17.867156982421875,8.444351196289062 L 18.159515380859375,8.007888793945312 L 18.52398681640625,8.247879028320312 L 18.7425537109375,8.73223876953125 L 18.721908569335938,9.227783203125 L 18.701263427734375,9.062835693359375 L 18.294906616210938,8.68865966796875 L 18.349136352539062,8.18865966796875 L 17.849151611328125,8.100372314453125 L 17.90673828125,8.600357055664062 L 18.287979125976562,8.961746215820312 L 18.70611572265625,8.640274047851562 L 18.815689086914062,8.140274047851562 L 18.424423217773438,8.533599853515625 L 18.308181762695312,9.0323486328125 L 18.709548950195312,8.725250244140625 L 18.763778686523438,8.225250244140625 L 18.2637939453125,8.1737060546875 L 17.97650146484375,8.621337890625 L 17.689208984375,8.685638427734375 L 17.40191650390625,8.573394775390625 M 18.906280517578125,14.34521484375 L 18.906280517578125,14.34521484375 L 18.962188720703125,13.84521484375 L 18.462203979492188,13.65472412109375 L 18.045791625976562,13.949020385742188 L 18.084930419921875,14.447769165039062 L 18.504730224609375,14.734085083007812 L 18.96478271484375,14.462127685546875 L 18.78985595703125,13.976150512695312 L 18.289871215820312,14.074005126953125 L 18.16021728515625,14.573989868164062 L 18.638717651367188,14.359542846679688 L 19.117218017578125,14.145095825195312 L 18.617233276367188,14.319610595703125 M 20.49383544921875,12.52935791015625 L 20.49383544921875,12.52935791015625 L 20.724136352539062,12.814071655273438 L 20.96954345703125,13.256912231445312 L 21.154571533203125,13.755661010742188 L 21.07354736328125,14.254409790039062 L 20.910354614257812,14.751556396484375 L 20.747161865234375,15.248703002929688 L 20.585647583007812,15.747451782226562 M 20.235366821289062,10.291122436523438 L 20.235366821289062,10.291122436523438 L 20.344940185546875,9.80035400390625 L 20.6356201171875,9.384658813476562 L 20.8189697265625,8.905075073242188 L 20.771484375,8.411117553710938 L 20.715621948242188,7.9187469482421875 L 20.651382446289062,7.4263763427734375 L 20.515029907226562,6.9340057373046875 L 20.324996948242188,6.4448394775390625" fill="none" stroke="#000000" stroke-width="0.011359893798828125"/>
</svg>
