<?xml version="1.0" ?>
<svg baseProfile="full" height="600px" version="1.1" viewBox="12.806007537841797 6.398695526123047 7.148727111816406 10.155794982910155" width="423px" xmlns="http://www.w3.org/2000/svg" xmlns:ev="http://www.w3.org/2001/xml-events" xmlns:xlink="http://www.w3.org/1999/xlink">
	<defs/>
	<path d="M 17.908905029296875,8.912826538085938 L 17.908905029296875,8.912826538085938 L 17.83795166015625,8.661636352539062 L 17.683135986328125,8.381698608398438 L 17.244918823242188,8.235916137695312 L 16.781539916992188,8.106109619140625 L 16.309783935546875,7.974700927734375 L 15.809799194335938,7.793792724609375 L 15.34979248046875,7.4866943359375 L 14.878036499023438,7.763427734375 L 14.511932373046875,8.153564453125 L 14.254837036132812,8.604385375976562 L 14.136917114257812,9.1043701171875 L 14.08441162109375,9.604354858398438 L 14.301315307617188,10.103103637695312 L 14.597030639648438,10.553924560546875 L 14.949752807617188,10.961624145507812 L 15.449752807617188,11.144119262695312 L 15.949752807617188,11.01751708984375 L 16.389694213867188,10.721603393554688 L 16.829635620117188,10.420913696289062 L 17.269577026367188,10.120223999023438 L 17.707839965820312,9.82110595703125 L 18.100830078125,9.477264404296875 L 17.977890014648438,8.981704711914062 L 17.4779052734375,9.004486083984375 M 14.541229248046875,8.431808471679688 L 14.541229248046875,8.431808471679688 L 14.761474609375,8.343521118164062 L 15.062210083007812,8.252059936523438 L 15.32940673828125,8.332351684570312 L 15.598281860351562,8.460540771484375 L 15.816848754882812,8.828323364257812 L 16.028717041015625,9.218460083007812 L 16.240585327148438,9.611785888671875 L 15.743682861328125,9.743179321289062 L 15.261871337890625,9.53033447265625 L 15.25799560546875,10.030319213867188 L 14.970703125,10.358154296875 L 14.470718383789062,10.314590454101562 L 14.159942626953125,10.0186767578125 M 17.566177368164062,13.181198120117188 L 17.566177368164062,13.181198120117188 L 17.280563354492188,12.877304077148438 L 16.879241943359375,12.512710571289062 L 16.441024780273438,12.194442749023438 L 15.9410400390625,12.010330200195312 L 15.441055297851562,11.915664672851562 L 14.941070556640625,11.830581665039062 L 14.462615966796875,12.073776245117188 L 14.0814208984375,12.451141357421875 L 13.8360595703125,12.901962280273438 L 13.69635009765625,13.401947021484375 L 13.6522216796875,13.901931762695312 L 13.872467041015625,14.3958740234375 L 14.208419799804688,14.837112426757812 L 14.648361206054688,15.134613037109375 L 15.148361206054688,15.23565673828125 L 15.648361206054688,15.201675415039062 L 16.1151123046875,14.985626220703125 L 16.568466186523438,14.73443603515625 L 17.0201416015625,14.481643676757812 L 17.471817016601562,14.228851318359375 L 17.32373046875,13.728851318359375 L 17.0465087890625,13.29559326171875 L 17.389175415039062,13.085922241210938 M 14.538314819335938,12.326812744140625 L 14.538314819335938,12.326812744140625 L 14.815582275390625,12.3511962890625 L 15.148193359375,12.375579833984375 L 15.41204833984375,12.623565673828125 L 15.215316772460938,12.940231323242188 L 14.750259399414062,13.189804077148438 L 15.250259399414062,13.104721069335938 L 15.750259399414062,13.056381225585938 L 16.074478149414062,13.504013061523438 L 15.90960693359375,13.996368408203125 L 15.6676025390625,14.4775390625 L 15.31658935546875,14.878860473632812 L 14.816604614257812,14.989486694335938 L 14.316619873046875,14.806976318359375 L 13.816635131835938,14.614883422851562 L 13.405258178710938,14.606460571289062 M 17.282684326171875,7.55560302734375 L 17.282684326171875,7.55560302734375 L 17.533126831054688,7.8467254638671875 L 17.85064697265625,8.279983520507812 L 18.096054077148438,8.751571655273438 L 18.214004516601562,9.250320434570312 L 18.308486938476562,9.75030517578125 L 18.431472778320312,10.250289916992188 L 18.626556396484375,10.750274658203125 L 19.08660888671875,10.51824951171875 L 19.355484008789062,10.102554321289062 L 19.078262329101562,9.677276611328125 L 18.712158203125,9.298309326171875 L 18.522125244140625,8.805938720703125 L 18.3421630859375,8.307174682617188 L 18.103500366210938,7.8515472412109375 L 17.687088012695312,7.526885986328125 L 17.213653564453125,7.24853515625 L 16.713668823242188,7.3671417236328125 M 18.935317993164062,13.519210815429688 L 18.935317993164062,13.519210815429688 L 18.520584106445312,13.850250244140625 L 18.335601806640625,14.336212158203125 L 18.153976440429688,14.820571899414062 L 17.977371215820312,15.306533813476562 L 17.6146240234375,15.70465087890625 L 17.114639282226562,15.627548217773438 L 17.05206298828125,15.127548217773438 L 17.25555419921875,14.630386352539062 L 17.591506958007812,14.240249633789062 L 17.92913818359375,13.842117309570312 L 18.083984375,13.342117309570312 L 18.230438232421875,12.842117309570312 L 18.730438232421875,12.939971923828125 L 19.182113647460938,13.231094360351562 L 19.350387573242188,13.7310791015625" fill="none" stroke="#000000" stroke-width="0.008456115722656251"/>
</svg>
