<?xml version="1.0" ?>
<svg baseProfile="full" height="600px" version="1.1" viewBox="16.242122299194335 3.9544437713623046 6.12081216430664 11.764177642822265" width="313px" xmlns="http://www.w3.org/2000/svg" xmlns:ev="http://www.w3.org/2001/xml-events" xmlns:xlink="http://www.w3.org/1999/xlink">
	<defs/>
	<path d="M 21.694412231445312,8.266708374023438 L 21.694412231445312,8.266708374023438 L 21.66033935546875,7.8685760498046875 L 21.575958251953125,7.3685760498046875 L 21.458038330078125,6.8685760498046875 L 21.340118408203125,6.3685760498046875 L 21.193710327148438,5.8685760498046875 L 20.89971923828125,5.4337158203125 L 20.432998657226562,5.16973876953125 L 19.933013916015625,4.995208740234375 L 19.433029174804688,4.938873291015625 L 18.93304443359375,4.996795654296875 L 18.433059692382812,5.160125732421875 L 17.962982177734375,5.4336700439453125 L 17.53314208984375,5.761505126953125 L 17.165359497070312,6.180389404296875 L 16.936752319335938,6.6711578369140625 L 16.763504028320312,7.171142578125 L 16.756271362304688,7.6711273193359375 L 16.889328002929688,8.171112060546875 L 17.092819213867188,8.66986083984375 L 17.353317260742188,9.139846801757812 L 17.697662353515625,9.541168212890625 L 18.102386474609375,9.869003295898438 L 18.570816040039062,10.054702758789062 L 19.066085815429688,10.12060546875 L 19.564712524414062,10.127410888671875 L 20.048248291015625,10.03912353515625 L 20.50494384765625,9.826278686523438 L 20.949905395507812,9.575088500976562 L 21.289215087890625,9.204116821289062 L 21.569839477539062,8.775634765625 L 21.848785400390625,8.345550537109375 M 19.65875244140625,13.394851684570312 L 19.65875244140625,13.394851684570312 L 19.425125122070312,13.143661499023438 L 18.925140380859375,13.005874633789062 L 18.448348999023438,13.285812377929688 L 18.073867797851562,13.695114135742188 L 18.183441162109375,14.195098876953125 L 18.415420532226562,14.68426513671875 L 18.915420532226562,14.73419189453125 L 19.412368774414062,14.647506713867188 L 19.82379150390625,14.342010498046875 L 19.857894897460938,13.842010498046875 L 19.62091064453125,13.365615844726562" fill="none" stroke="#000000" stroke-width="0.009795318603515625"/>
</svg>
