<?xml version="1.0" ?>
<svg baseProfile="full" height="600px" version="1.1" viewBox="18.363471755981447 2.2179410552978513 4.110016326904297 15.320923309326172" width="161px" xmlns="http://www.w3.org/2000/svg" xmlns:ev="http://www.w3.org/2001/xml-events" xmlns:xlink="http://www.w3.org/1999/xlink">
	<defs/>
	<path d="M 20.803421020507812,15.590286254882812 L 20.803421020507812,15.590286254882812 L 20.807357788085938,15.412567138671875 L 20.844818115234375,15.22845458984375 L 20.900726318359375,14.978866577148438 L 20.95831298828125,14.727676391601562 L 21.015899658203125,14.476486206054688 L 21.073486328125,14.225296020507812 L 21.172988891601562,13.93896484375 L 21.272491455078125,13.652633666992188 L 21.366973876953125,13.366302490234375 L 21.397720336914062,13.078369140625 L 21.361968994140625,12.7840576171875 L 21.237350463867188,12.476959228515625 L 21.100997924804688,12.137924194335938 L 20.927749633789062,11.830825805664062 L 20.754501342773438,11.523727416992188 L 20.581253051757812,11.216629028320312 L 20.408004760742188,10.907928466796875 L 20.238113403320312,10.599227905273438 L 20.088348388671875,10.29052734375 L 19.987213134765625,10.429901123046875 L 19.81396484375,10.669891357421875 L 19.617233276367188,10.96258544921875 L 19.433929443359375,11.253707885742188 L 19.2640380859375,11.562393188476562 L 19.139419555664062,11.885452270507812 L 19.070144653320312,12.218093872070312 L 19.03271484375,12.611419677734375 L 19.13055419921875,13.044677734375 L 19.360855102539062,13.420440673828125 L 19.59283447265625,13.818557739257812 L 19.81475830078125,14.266189575195312 L 20.035003662109375,14.7601318359375 L 20.2552490234375,15.249298095703125 L 20.49395751953125,15.7288818359375 L 20.769561767578125,16.123809814453125 L 21.051864624023438,16.256805419921875 M 20.5657958984375,12.590362548828125 L 20.5657958984375,12.590362548828125 L 20.556884765625,12.337570190429688 L 20.43896484375,12.032073974609375 L 20.106399536132812,11.942184448242188 L 19.695022583007812,11.876266479492188 L 19.203155517578125,12.1082763671875 L 18.711288452148438,12.340286254882812 L 19.007003784179688,12.63140869140625 L 19.507003784179688,12.738845825195312 L 20.007003784179688,12.820724487304688 L 20.507003784179688,12.846710205078125 L 20.61322021484375,12.354339599609375 M 20.031646728515625,7.651885986328125 L 20.031646728515625,7.651885986328125 L 20.1781005859375,7.4645843505859375 L 20.4000244140625,7.20220947265625 L 20.580032348632812,6.9206695556640625 L 20.75836181640625,6.608795166015625 L 20.936691284179688,6.2969207763671875 L 21.041229248046875,5.943511962890625 L 21.037353515625,5.562957763671875 L 20.852371215820312,5.123291015625 L 20.566757202148438,4.682037353515625 L 20.29119873046875,4.215240478515625 L 20.024032592773438,3.7500152587890625 L 19.74847412109375,3.5 M 19.635589599609375,3.6122283935546875 L 19.635589599609375,3.6122283935546875 L 19.45562744140625,3.829864501953125 L 19.270645141601562,4.106597900390625 L 19.083984375,4.38812255859375 L 18.942596435546875,4.7590789794921875 L 19.00018310546875,5.0869140625 L 19.106399536132812,5.44989013671875 L 19.215972900390625,5.8895416259765625 L 19.285293579101562,6.3895263671875 L 19.356292724609375,6.8866729736328125 L 19.427291870117188,7.3854217529296875 L 19.548614501953125,7.821868896484375 L 19.844329833984375,7.908538818359375 M 20.431488037109375,5.397003173828125 L 20.431488037109375,5.397003173828125 L 20.313568115234375,5.2480316162109375 L 20.0849609375,5.065521240234375 L 19.806060791015625,5.2144775390625 L 19.398040771484375,5.590240478515625 L 19.340499877929688,6.0314788818359375 L 19.741867065429688,6.3305816650390625 L 20.1583251953125,6.021881103515625 L 20.363494873046875,5.5470733642578125 L 20.3858642578125,5.0470733642578125 M 21.220687866210938,3.9285430908203125 L 21.220687866210938,3.9285430908203125 L 21.326904296875,4.0615386962890625 L 21.441497802734375,4.23284912109375 L 21.55609130859375,4.4536895751953125 L 21.6539306640625,4.775146484375 L 21.654495239257812,5.241943359375 L 21.648941040039062,5.6863861083984375 L 21.63165283203125,6.1356048583984375 L 21.612686157226562,6.6215667724609375 L 21.543411254882812,7.121551513671875 L 21.366806030273438,7.6215362548828125 L 21.042633056640625,8.070755004882812 M 21.163055419921875,10.257598876953125 L 21.163055419921875,10.257598876953125 L 21.307846069335938,10.440093994140625 L 21.528091430664062,10.756759643554688 L 21.713119506835938,11.256744384765625 L 21.866287231445312,11.756729125976562 L 22.019454956054688,12.2567138671875 L 22.12567138671875,12.756698608398438 L 22.04632568359375,13.256683349609375 L 21.852935791015625,13.75543212890625 L 21.656204223632812,14.255416870117188 L 21.481277465820312,14.755401611328125 L 21.522079467773438,15.255386352539062 L 21.566253662109375,15.75537109375" fill="none" stroke="#000000" stroke-width="0.012756805419921875"/>
</svg>
