<?xml version="1.0" ?>
<svg baseProfile="full" height="600px" version="1.1" viewBox="10.988628723144531 3.703167297363281 12.585395141601563 14.390448852539063" width="525px" xmlns="http://www.w3.org/2000/svg" xmlns:ev="http://www.w3.org/2001/xml-events" xmlns:xlink="http://www.w3.org/1999/xlink">
	<defs/>
	<path d="M 22.520248413085938,6.8675079345703125 L 22.520248413085938,6.8675079345703125 L 22.32183837890625,7.3614501953125 L 22.001007080078125,7.8058929443359375 L 21.618133544921875,8.205612182617188 L 21.24029541015625,8.60693359375 L 20.872512817382812,9.021026611328125 L 20.504730224609375,9.43353271484375 L 20.135269165039062,9.847625732421875 L 19.76580810546875,10.26171875 L 19.396347045898438,10.677398681640625 L 19.028564453125,11.09307861328125 L 19.001205444335938,10.907363891601562 L 18.952041625976562,10.407363891601562 L 18.842514038085938,9.907363891601562 L 18.734664916992188,9.407363891601562 L 18.693893432617188,8.907363891601562 L 18.696151733398438,8.407363891601562 L 18.718521118164062,7.9073638916015625 L 18.76605224609375,7.4073638916015625 L 18.811904907226562,6.9073638916015625 L 18.85943603515625,6.4073638916015625 L 18.906967163085938,5.9073638916015625 L 18.954498291015625,5.4073638916015625 L 19.002029418945312,4.9073638916015625 M 18.312789916992188,16.889419555664062 L 18.312789916992188,16.889419555664062 L 18.16302490234375,16.389419555664062 L 18.011566162109375,15.889419555664062 L 17.938919067382812,15.389419555664062 L 17.8763427734375,14.889419555664062 L 17.813766479492188,14.389419555664062 L 17.813766479492188,13.889419555664062 L 17.832778930664062,13.389419555664062 L 17.865203857421875,12.889419555664062 L 17.897628784179688,12.389419555664062 L 17.9300537109375,11.889419555664062 L 17.970855712890625,11.389419555664062 L 18.152542114257812,11.423385620117188 L 18.615951538085938,11.64581298828125 L 19.077682495117188,11.893798828125 L 19.47235107421875,12.258377075195312 L 19.82171630859375,12.651702880859375 L 20.18450927734375,13.040237426757812 L 20.54730224609375,13.42877197265625 L 20.91009521484375,13.817306518554688 L 21.27288818359375,14.205841064453125 L 21.63568115234375,14.595977783203125 L 22.000152587890625,14.986114501953125 L 22.362945556640625,15.376251220703125 M 19.1094970703125,12.535903930664062 L 19.1094970703125,12.535903930664062 L 18.877548217773438,13.005889892578125 L 18.64056396484375,13.475875854492188 L 18.52264404296875,13.2694091796875 L 18.1146240234375,12.927169799804688 L 18.030242919921875,13.11126708984375 L 17.774826049804688,13.562088012695312 M 20.034988403320312,9.825881958007812 L 20.034988403320312,9.825881958007812 L 19.855026245117188,9.338302612304688 L 19.443649291992188,9.0184326171875 L 18.94366455078125,8.899810791015625 L 18.765380859375,9.0775146484375 L 18.374114990234375,8.722503662109375 M 17.042251586914062,10.333770751953125 L 17.042251586914062,10.333770751953125 L 16.542266845703125,10.325347900390625 L 16.042282104492188,10.315322875976562 L 15.54229736328125,10.183914184570312 L 15.042312622070312,10.052505493164062 L 14.542327880859375,9.921096801757812 L 14.042343139648438,9.789688110351562 L 13.5423583984375,9.658279418945312 L 13.042373657226562,9.526870727539062 L 12.542388916015625,9.395462036132812 L 12.042404174804688,9.262451171875" fill="none" stroke="#000000" stroke-width="0.0119820556640625"/>
</svg>
