<?xml version="1.0" ?>
<svg baseProfile="full" height="582px" version="1.1" viewBox="11.239925514221191 7.647794471740722 10.333610275268555 10.01956608581543" width="600px" xmlns="http://www.w3.org/2000/svg" xmlns:ev="http://www.w3.org/2001/xml-events" xmlns:xlink="http://www.w3.org/1999/xlink">
	<defs/>
	<path d="M 18.64837646484375,12.3013916015625 L 18.64837646484375,12.3013916015625 L 19.14837646484375,12.328964233398438 L 19.64837646484375,12.552993774414062 L 20.126876831054688,12.802566528320312 L 20.558425903320312,13.136810302734375 L 20.686447143554688,13.636795043945312 L 20.708816528320312,14.13677978515625 L 20.3074951171875,14.466217041015625 L 19.870956420898438,14.76531982421875 L 19.434417724609375,15.064422607421875 L 18.997879028320312,15.363525390625 L 18.497894287109375,15.491714477539062 L 17.997909545898438,15.619903564453125 L 17.4979248046875,15.712966918945312 L 16.997940063476562,15.661422729492188 L 16.497955322265625,15.515640258789062 L 15.997970581054688,15.369857788085938 L 15.49798583984375,15.29595947265625 L 14.998001098632812,15.222061157226562 L 14.498016357421875,15.1529541015625 L 13.999435424804688,15.019943237304688 L 13.502532958984375,14.847015380859375 L 13.047561645507812,14.60540771484375 L 12.696548461914062,14.23443603515625 L 12.551803588867188,13.75164794921875 L 12.546249389648438,13.25164794921875 L 12.62060546875,12.75164794921875 L 12.963272094726562,12.3551025390625 L 13.33612060546875,11.984130859375 L 13.73748779296875,11.638717651367188 L 14.1925048828125,11.363571166992188 L 14.6925048828125,11.493362426757812 L 15.1925048828125,11.5496826171875 L 15.665985107421875,11.324050903320312 L 16.165985107421875,11.343643188476562 L 16.665985107421875,11.49420166015625 L 17.1226806640625,11.8172607421875 L 17.604537963867188,12.06524658203125 L 18.104537963867188,12.06524658203125 L 18.604537963867188,11.98016357421875 M 12.888214111328125,10.746231079101562 L 12.888214111328125,10.746231079101562 L 13.157089233398438,11.20025634765625 L 13.657089233398438,11.377960205078125 L 14.157089233398438,11.39434814453125 M 19.28326416015625,12.220947265625 L 19.28326416015625,12.220947265625 L 19.6494140625,11.848373413085938 L 20.080963134765625,11.5380859375 L 20.552764892578125,11.27410888671875 L 20.3795166015625,10.797714233398438 L 20.149246215820312,10.351669311523438 L 19.91729736328125,9.9072265625 L 19.685348510742188,9.464370727539062 L 19.238754272460938,9.249923706054688 L 18.766998291015625,9.037078857421875 L 18.298599243164062,8.806655883789062 L 17.835220336914062,8.57623291015625 L 17.335235595703125,8.486343383789062 L 16.835250854492188,8.486770629882812 L 16.33526611328125,8.487197875976562 L 15.835281372070312,8.487625122070312 L 15.335296630859375,8.487625122070312 L 14.835311889648438,8.488052368164062 L 14.3353271484375,8.488479614257812 L 13.835342407226562,8.55438232421875 L 13.335357666015625,8.663406372070312 L 12.835372924804688,8.788421630859375 L 12.991897583007812,9.288406372070312 L 13.098114013671875,9.78839111328125 M 13.275146484375,9.514389038085938 L 13.275146484375,9.514389038085938 L 13.031463623046875,10.000350952148438 L 12.556350708007812,10.210006713867188 L 12.329437255859375,10.694366455078125 L 12.766021728515625,10.967910766601562 L 13.266021728515625,10.807769775390625 M 13.250259399414062,9.015045166015625 L 13.250259399414062,9.015045166015625 L 13.750259399414062,9.183181762695312 L 14.124786376953125,9.576507568359375 L 14.497634887695312,9.966644287109375 L 14.282455444335938,10.44781494140625 L 14.047149658203125,10.9066162109375 L 13.7967529296875,11.357437133789062 L 13.330032348632812,11.5926513671875 M 13.065414428710938,11.868057250976562 L 13.065414428710938,11.868057250976562 L 13.515411376953125,11.616867065429688 L 13.446136474609375,11.121307373046875 L 13.192398071289062,10.689620971679688 L 12.88330078125,10.301071166992188 L 12.383316040039062,10.325454711914062 M 13.789932250976562,12.350311279296875 L 13.789932250976562,12.350311279296875 L 14.203033447265625,12.676559448242188 L 14.601043701171875,13.052322387695312 L 14.708938598632812,13.55230712890625 L 14.71453857421875,14.052291870117188 L 14.71453857421875,14.552276611328125 L 14.415512084960938,14.990325927734375 L 14.046051025390625,15.382064819335938 L 13.606155395507812,15.662002563476562 L 13.106170654296875,15.69757080078125 M 13.055908203125,15.10211181640625 L 13.055908203125,15.10211181640625 L 13.54949951171875,14.922805786132812 L 13.576904296875,14.422805786132812 L 13.480789184570312,13.932037353515625 L 13.541732788085938,13.44287109375 L 13.214202880859375,13.06390380859375 L 12.714218139648438,12.935699462890625 L 12.49066162109375,13.260360717773438 M 17.018157958984375,9.439453125 L 17.018157958984375,9.439453125 M 16.972915649414062,9.437835693359375 L 16.972915649414062,9.437835693359375 L 17.075775146484375,9.937820434570312 L 17.183670043945312,10.43780517578125 L 17.12445068359375,10.937789916992188 L 17.043426513671875,11.437774658203125 L 17.1546630859375,11.937759399414062 L 17.1546630859375,12.437744140625 L 17.095443725585938,12.937728881835938 L 17.011062622070312,13.437713623046875 L 17.232986450195312,13.907699584960938 L 17.329147338867188,14.406448364257812 L 17.30682373046875,14.90643310546875 L 17.284500122070312,15.406417846679688 L 17.258819580078125,15.906402587890625 L 17.05035400390625,16.379592895507812 L 16.815048217773438,16.828811645507812 M 17.243331909179688,15.697906494140625 L 17.243331909179688,15.697906494140625 L 16.74334716796875,15.7606201171875 L 16.243362426757812,15.7606201171875 M 17.149032592773438,14.695816040039062 L 17.149032592773438,14.695816040039062 L 16.6490478515625,14.623504638671875 L 16.149063110351562,14.551193237304688 M 17.029541015625,13.525222778320312 L 17.029541015625,13.525222778320312 L 16.529556274414062,13.55279541015625 L 16.029571533203125,13.580368041992188 M 17.205230712890625,13.148681640625 L 17.205230712890625,13.148681640625 L 16.705245971679688,13.211395263671875 L 16.20526123046875,13.269317626953125 L 15.705276489257812,13.13153076171875 M 16.916229248046875,12.016494750976562 L 16.916229248046875,12.016494750976562 L 16.416244506835938,12.0440673828125 L 15.916259765625,12.070053100585938 M 16.90350341796875,11.15155029296875 L 16.90350341796875,11.15155029296875 L 16.403518676757812,11.136749267578125 L 15.903533935546875,11.123550415039062 M 16.669418334960938,10.332809448242188 L 16.669418334960938,10.332809448242188 L 16.16943359375,10.360382080078125 L 15.669448852539062,10.386367797851562 L 16.122802734375,10.13037109375 L 16.572799682617188,9.877578735351562 L 17.072799682617188,9.988204956054688 M 16.292800903320312,9.828033447265625 L 16.292800903320312,9.828033447265625 L 15.792816162109375,9.935470581054688 M 13.0989990234375,11.30517578125 L 13.0989990234375,11.30517578125 L 13.453414916992188,11.2200927734375 L 13.27178955078125,11.168548583984375 L 12.935882568359375,11.118606567382812 L 12.435897827148438,11.103805541992188 L 12.880859375,11.225616455078125 L 12.767974853515625,11.350631713867188 L 12.398513793945312,11.74395751953125 L 12.457778930664062,11.24395751953125 L 12.525421142578125,10.78033447265625 L 12.152618408203125,10.398178100585938 L 12.466766357421875,10.845809936523438 L 12.938568115234375,10.680862426757812 L 12.706619262695312,10.8521728515625 L 12.906753540039062,11.2998046875 L 13.406753540039062,11.316192626953125 L 13.07586669921875,11.263046264648438 L 12.649383544921875,11.602066040039062 L 12.923294067382812,11.75421142578125 L 12.812088012695312,11.25421142578125 L 12.34033203125,10.995040893554688 L 12.788650512695312,10.74224853515625 L 13.236968994140625,10.479873657226562 L 13.442138671875,10.97064208984375 L 13.3560791015625,11.470626831054688 L 13.10400390625,10.995819091796875 L 12.930755615234375,10.768585205078125 L 12.499252319335938,11.054901123046875 L 12.976089477539062,11.181488037109375 L 13.476089477539062,11.407119750976562 L 13.163650512695312,11.832382202148438 L 12.681838989257812,12.002105712890625 M 12.342575073242188,11.589599609375 L 12.342575073242188,11.589599609375 L 12.261550903320312,11.089599609375 M 12.489639282226562,10.398666381835938 L 12.489639282226562,10.398666381835938 L 12.90106201171875,10.08837890625 L 13.159881591796875,10.540802001953125 L 12.968170166015625,11.026763916015625 L 13.050918579101562,11.25079345703125 L 13.197372436523438,11.750778198242188 L 12.990585327148438,11.718399047851562 L 12.4906005859375,11.761947631835938 L 12.129531860351562,11.381393432617188 M 12.855728149414062,13.676345825195312 L 12.855728149414062,13.676345825195312 L 13.2705078125,14.004180908203125 L 13.189483642578125,14.504165649414062 L 12.726104736328125,14.744155883789062 L 12.47906494140625,14.291717529296875 L 12.769744873046875,13.8712158203125 L 13.157684326171875,13.528976440429688 L 13.0380859375,14.028961181640625 L 12.564651489257812,14.265777587890625 L 12.104644775390625,14.358840942382812 L 12.601593017578125,14.423141479492188 L 13.076751708984375,14.6551513671875 L 13.22320556640625,14.1551513671875 L 13.106964111328125,13.67236328125 L 13.059478759765625,13.17236328125 L 12.559494018554688,13.367630004882812 L 12.483505249023438,13.86761474609375 L 12.846298217773438,14.268936157226562 L 12.98101806640625,14.7689208984375 L 13.328720092773438,14.39154052734375 L 13.436614990234375,13.899169921875 L 13.489166259765625,13.40679931640625 L 13.081146240234375,13.130050659179688 L 12.581161499023438,13.15283203125 L 12.14630126953125,13.479080200195312 L 12.433639526367188,13.920318603515625 L 12.62872314453125,14.390304565429688 L 12.689666748046875,14.884246826171875 L 13.189666748046875,14.748062133789062 L 13.438430786132812,14.29083251953125 L 13.325546264648438,13.80804443359375 L 12.956085205078125,13.461029052734375 L 12.456100463867188,13.417465209960938 L 12.339859008789062,13.917449951171875 L 12.674148559570312,14.3299560546875 L 13.174148559570312,14.341552734375 L 13.508438110351562,14.781204223632812 L 13.17755126953125,15.195297241210938 L 12.677566528320312,15.030349731445312 L 12.38189697265625,14.62103271484375 L 12.657501220703125,14.181365966796875 L 12.705032348632812,13.690597534179688 L 12.459671020507812,13.26531982421875" fill="none" stroke="#000000" stroke-width="0.008604171752929688"/>
</svg>
