<?xml version="1.0" ?>
<svg baseProfile="full" height="600px" version="1.1" viewBox="16.944946731567384 6.347903884887695 5.072295257568359 9.03722445678711" width="337px" xmlns="http://www.w3.org/2000/svg" xmlns:ev="http://www.w3.org/2001/xml-events" xmlns:xlink="http://www.w3.org/1999/xlink">
	<defs/>
	<path d="M 20.4114990234375,9.918441772460938 L 20.4114990234375,9.918441772460938 L 20.678695678710938,9.537887573242188 L 20.892242431640625,9.047119140625 L 20.928024291992188,8.55316162109375 L 20.632354736328125,8.139053344726562 L 20.24444580078125,7.79364013671875 L 19.834747314453125,7.48974609375 L 19.361312866210938,7.294464111328125 L 18.861328125,7.3236236572265625 L 18.362747192382812,7.555633544921875 L 17.9228515625,7.888275146484375 L 17.643951416015625,8.345504760742188 L 17.588088989257812,8.845489501953125 L 17.873748779296875,9.291534423828125 L 18.226470947265625,9.694442749023438 L 18.614410400390625,10.063827514648438 L 19.05267333984375,10.361328125 L 19.490936279296875,10.658828735351562 L 19.885604858398438,10.994659423828125 L 20.218215942382812,11.40875244140625 L 20.542434692382812,11.843612670898438 L 20.747604370117188,12.323196411132812 L 20.742050170898438,12.82318115234375 L 20.468170166015625,13.27880859375 L 20.033309936523438,13.568328857421875 L 19.561553955078125,13.770004272460938 L 19.061569213867188,13.89501953125 L 18.56158447265625,13.956130981445312 L 18.061599731445312,13.842300415039062 L 17.677047729492188,13.498458862304688 L 17.523910522460938,13.020477294921875 L 17.370773315429688,12.542495727539062 L 17.746978759765625,12.187484741210938 L 18.246978759765625,12.048095703125 L 18.746978759765625,11.908706665039062 L 19.20703125,11.635147094726562 L 19.63690185546875,11.334457397460938 L 20.031570434570312,10.993820190429688 L 20.327285766601562,10.581314086914062 L 20.60455322265625,10.167205810546875 L 20.642013549804688,9.673248291015625 M 20.644271850585938,9.8509521484375 L 20.644271850585938,9.8509521484375 L 20.648208618164062,10.084564208984375 M 19.762222290039062,8.82733154296875 L 19.762222290039062,8.82733154296875 L 19.7996826171875,8.44677734375 L 19.299697875976562,8.450393676757812 L 18.891677856445312,8.826156616210938 L 19.002914428710938,9.326141357421875 L 19.4478759765625,9.582122802734375 L 19.81402587890625,9.257461547851562 L 19.970550537109375,8.78106689453125 M 19.709182739257812,12.46185302734375 L 19.709182739257812,12.46185302734375 L 19.296127319335938,12.161163330078125 L 18.846176147460938,12.482620239257812 L 18.880279541015625,12.8040771484375 L 19.27996826171875,13.168655395507812 L 19.77996826171875,13.181854248046875 M 20.321624755859375,7.843780517578125 L 20.321624755859375,7.843780517578125 L 20.197006225585938,7.9943389892578125 L 20.274703979492188,7.835784912109375 L 20.463088989257812,7.6229400634765625 L 20.46087646484375,7.4723663330078125 L 20.518463134765625,7.2083892822265625 L 20.765548706054688,7.1041412353515625 M 20.912628173828125,8.02618408203125 L 20.912628173828125,8.02618408203125 L 21.11444091796875,7.8899993896484375 L 21.334686279296875,7.6995086669921875 M 21.114013671875,8.760101318359375 L 21.114013671875,8.760101318359375 L 21.3175048828125,8.941009521484375 L 21.591415405273438,9.264068603515625 M 21.1683349609375,9.528427124023438 L 21.1683349609375,9.528427124023438 L 21.39697265625,9.877029418945312 L 21.332733154296875,9.729660034179688 L 21.19805908203125,9.355484008789062 L 20.942642211914062,9.113876342773438 L 20.598342895507812,8.94415283203125 L 20.364715576171875,8.814346313476562 M 20.446487426757812,11.568984985351562 L 20.446487426757812,11.568984985351562 L 20.646621704101562,11.4822998046875 L 20.915496826171875,11.352493286132812 M 20.9044189453125,12.164703369140625 L 20.9044189453125,12.164703369140625 L 21.09783935546875,12.135528564453125 L 21.292922973632812,12.09356689453125 L 21.444412231445312,12.081954956054688 M 20.947021484375,12.709747314453125 L 20.947021484375,12.709747314453125 L 21.1370849609375,12.941757202148438 L 21.387527465820312,13.186553955078125 M 20.856582641601562,13.579559326171875 L 20.856582641601562,13.579559326171875 L 21.03826904296875,13.825958251953125 L 21.231689453125,14.133041381835938 M 20.207870483398438,14.166885375976562 L 20.207870483398438,14.166885375976562 L 20.483474731445312,14.628890991210938" fill="none" stroke="#000000" stroke-width="0.007524749755859375"/>
</svg>
