<?xml version="1.0" ?>
<svg baseProfile="full" height="600px" version="1.1" viewBox="15.348096817016602 5.446670120239258 9.383991302490234 12.00805746459961" width="469px" xmlns="http://www.w3.org/2000/svg" xmlns:ev="http://www.w3.org/2001/xml-events" xmlns:xlink="http://www.w3.org/1999/xlink">
	<defs/>
	<path d="M 16.85736083984375,6.576629638671875 L 16.85736083984375,6.576629638671875 L 17.34759521484375,6.6121978759765625 L 17.842864990234375,6.64776611328125 L 18.338134765625,6.6833343505859375 L 18.83172607421875,6.718902587890625 L 19.3253173828125,6.7544708251953125 L 19.81890869140625,6.7884368896484375 L 20.3125,6.8224029541015625 L 20.80609130859375,6.8563690185546875 L 20.831817626953125,7.0053253173828125 L 20.81787109375,7.3667144775390625 L 20.768707275390625,7.86669921875 L 20.71954345703125,8.366683959960938 L 20.670379638671875,8.866668701171875 L 20.6212158203125,9.366653442382812 L 20.572052001953125,9.86663818359375 L 20.524566650390625,10.366622924804688 L 20.47540283203125,10.866607666015625 L 20.302154541015625,10.819869995117188 L 19.802169799804688,10.731582641601562 L 19.30218505859375,10.643295288085938 L 18.802200317382812,10.555007934570312 L 18.302215576171875,10.466720581054688 L 17.802230834960938,10.380035400390625 L 17.30224609375,10.294952392578125 L 16.802261352539062,10.209869384765625 L 16.302276611328125,10.123184204101562 L 16.322967529296875,9.942276000976562 L 16.387252807617188,9.451507568359375 L 16.453216552734375,8.951507568359375 L 16.519180297851562,8.451507568359375 L 16.586822509765625,7.951507568359375 L 16.654464721679688,7.451507568359375 L 16.72210693359375,6.951507568359375 L 16.788070678710938,6.451507568359375 M 17.523941040039062,8.873519897460938 L 17.523941040039062,8.873519897460938 L 17.15447998046875,8.786834716796875 L 16.654495239257812,8.701751708984375 L 16.654495239257812,8.890640258789062 L 16.654495239257812,9.390625 L 16.655059814453125,9.589096069335938 L 16.89544677734375,9.589523315429688 L 17.373947143554688,9.560348510742188 L 17.71661376953125,9.586334228515625 L 17.767501831054688,9.379867553710938 L 17.939117431640625,8.879867553710938 M 20.153488159179688,11.907333374023438 L 20.153488159179688,11.907333374023438 L 19.65350341796875,11.822250366210938 L 19.153518676757812,11.73876953125 L 18.653533935546875,11.655288696289062 L 18.153549194335938,11.571807861328125 L 17.653564453125,11.48992919921875 L 17.153579711914062,11.408050537109375 L 16.653594970703125,11.326171875 L 16.153610229492188,11.244293212890625 L 16.153610229492188,11.434783935546875 L 16.151397705078125,11.934768676757812 L 16.149185180664062,12.43475341796875 L 16.145309448242188,12.934738159179688 L 16.141433715820312,13.434722900390625 L 16.140899658203125,13.934707641601562 L 16.138687133789062,14.4346923828125 L 16.136474609375,14.934677124023438 L 16.134262084960938,15.434661865234375 L 16.391403198242188,15.49737548828125 L 16.864883422851562,15.60321044921875 L 17.338363647460938,15.70904541015625 L 17.811843872070312,15.81488037109375 L 18.285324096679688,15.92071533203125 L 18.758804321289062,16.02655029296875 L 19.232284545898438,16.13238525390625 L 19.705764770507812,16.23822021484375 L 20.179244995117188,16.34405517578125 L 20.652725219726562,16.44989013671875 L 20.708633422851562,15.94989013671875 L 20.744415283203125,15.44989013671875 L 20.776840209960938,14.94989013671875 L 20.80926513671875,14.44989013671875 L 20.841690063476562,13.94989013671875 L 20.874114990234375,13.44989013671875 L 20.906539916992188,12.94989013671875 L 20.93896484375,12.44989013671875 L 20.971389770507812,11.94989013671875 L 20.471405029296875,11.906326293945312 L 19.971420288085938,11.9027099609375 M 17.362350463867188,12.085906982421875 L 17.362350463867188,12.085906982421875 L 16.86236572265625,12.002426147460938 L 16.362380981445312,11.9189453125 L 16.362945556640625,12.334625244140625 L 16.315460205078125,12.834609985351562 L 16.264617919921875,13.3345947265625 L 16.753189086914062,13.299026489257812 L 17.231689453125,13.299026489257812 L 17.710189819335938,13.302642822265625 L 17.704635620117188,13.121734619140625 L 17.704635620117188,12.621734619140625 L 17.7052001953125,12.121734619140625 L 17.5621337890625,12.038253784179688 M 21.761367797851562,12.256744384765625 L 21.761367797851562,12.256744384765625 L 22.057083129882812,12.701187133789062 L 22.339385986328125,13.147232055664062 L 22.608261108398438,13.594863891601562 L 22.87713623046875,14.042495727539062 L 23.144332885742188,14.490127563476562 L 23.411529541015625,14.937759399414062 L 23.678726196289062,15.383804321289062 L 23.9459228515625,15.829849243164062 M 21.669448852539062,10.413223266601562 L 21.669448852539062,10.413223266601562 L 21.638748168945312,9.913223266601562 L 21.608047485351562,9.413223266601562 L 21.577346801757812,8.913223266601562 L 21.546646118164062,8.413223266601562 L 21.515945434570312,7.9132232666015625 L 21.48187255859375,7.4132232666015625" fill="none" stroke="#000000" stroke-width="0.009998382568359375"/>
</svg>
