<?xml version="1.0" ?>
<svg baseProfile="full" height="600px" version="1.1" viewBox="15.320764266967773 6.49011393737793 5.581326080322266 11.51934487915039" width="291px" xmlns="http://www.w3.org/2000/svg" xmlns:ev="http://www.w3.org/2001/xml-events" xmlns:xlink="http://www.w3.org/1999/xlink">
	<defs/>
	<path d="M 18.999114990234375,13.220687866210938 L 18.999114990234375,13.220687866210938 L 19.19085693359375,13.278610229492188 L 19.511734008789062,13.457916259765625 L 19.849365234375,13.790557861328125 L 20.165206909179688,14.238189697265625 L 20.385452270507812,14.730545043945312 L 20.4329833984375,15.23052978515625 L 20.320098876953125,15.730514526367188 L 20.145172119140625,16.21807861328125 L 19.7606201171875,16.561904907226562 L 19.31402587890625,16.795516967773438 L 18.837234497070312,16.947662353515625 L 18.348709106445312,17.045516967773438 L 17.848724365234375,16.99237060546875 L 17.348739624023438,16.848190307617188 L 16.902145385742188,16.597000122070312 L 16.509201049804688,16.293106079101562 L 16.1632080078125,15.934906005859375 L 15.872573852539062,15.555938720703125 L 15.789871215820312,15.077957153320312 L 16.043655395507812,14.639892578125 L 16.325958251953125,14.225784301757812 L 16.579742431640625,13.792526245117188 L 16.793289184570312,13.352859497070312 L 17.179550170898438,13.0665283203125 L 17.641281127929688,13.194717407226562 L 18.101333618164062,13.321304321289062 L 18.568084716796875,13.3504638671875 L 19.034835815429688,13.310104370117188 M 19.190078735351562,10.263442993164062 L 19.190078735351562,10.263442993164062 L 19.274505615234375,9.763442993164062 L 19.566864013671875,9.322189331054688 L 19.944747924804688,9.016693115234375 L 20.148239135742188,8.559463500976562 L 19.763687133789062,8.215621948242188 L 19.307037353515625,7.9835968017578125 L 18.902359008789062,7.6653289794921875 L 18.432281494140625,7.4540557861328125 L 17.932296752929688,7.467254638671875 L 17.43231201171875,7.5363616943359375 L 16.932327270507812,7.611846923828125 L 16.502487182617188,7.907745361328125 L 16.3040771484375,8.37933349609375 L 16.184478759765625,8.8748779296875 L 16.06488037109375,9.37042236328125 L 16.241531372070312,9.854782104492188 L 16.5892333984375,10.18902587890625 L 16.947006225585938,10.516860961914062 L 17.386947631835938,10.718536376953125 L 17.860427856445312,10.718963623046875 L 18.333908081054688,10.659439086914062 L 18.805709838867188,10.587127685546875 L 18.9085693359375,10.087127685546875 M 19.07684326171875,10.03558349609375 L 19.07684326171875,10.03558349609375 L 19.518463134765625,9.821136474609375 M 18.168380737304688,9.15826416015625 L 18.168380737304688,9.15826416015625 L 18.137680053710938,9.658248901367188 L 17.69610595703125,9.912628173828125 L 17.196121215820312,9.827545166015625 L 16.870269775390625,9.446990966796875 L 16.790924072265625,8.962615966796875 L 17.128555297851562,8.60760498046875 L 17.516494750976562,8.316482543945312 L 17.993331909179688,8.470230102539062 L 18.357803344726562,8.83001708984375 L 18.648483276367188,9.252105712890625 M 18.195175170898438,9.527236938476562 L 18.195175170898438,9.527236938476562 M 18.8292236328125,15.38092041015625 L 18.8292236328125,15.38092041015625 L 18.8292236328125,15.834945678710938 L 18.494979858398438,16.233062744140625 L 17.9949951171875,16.319732666015625 L 17.514862060546875,16.111663818359375 L 17.128631591796875,15.79339599609375 L 16.953704833984375,15.352142333984375 L 17.244384765625,14.931640625 L 17.622268676757812,14.659683227539062 L 18.023635864257812,14.443634033203125 L 18.493743896484375,14.468017578125 L 18.78778076171875,14.872528076171875 L 18.904052734375,15.347320556640625 L 18.96331787109375,15.847305297851562" fill="none" stroke="#000000" stroke-width="0.009591461181640625"/>
</svg>
