<?xml version="1.0" ?>
<svg baseProfile="full" height="600px" version="1.1" viewBox="16.10556819152832 6.2024676055908206 2.4595789489746096 9.803682952880859" width="151px" xmlns="http://www.w3.org/2000/svg" xmlns:ev="http://www.w3.org/2001/xml-events" xmlns:xlink="http://www.w3.org/1999/xlink">
	<defs/>
	<path d="M 17.3140869140625,7.4194183349609375 L 17.3140869140625,7.4194183349609375 L 17.02679443359375,7.351898193359375 L 16.811614990234375,7.534393310546875 M 16.578033447265625,7.0228424072265625 L 16.578033447265625,7.0228424072265625 L 16.711090087890625,7.452911376953125 L 16.862579345703125,7.95166015625 L 16.810073852539062,8.451644897460938 L 16.569732666015625,8.9200439453125 L 16.317657470703125,9.374069213867188 M 16.938705444335938,8.86529541015625 L 16.938705444335938,8.86529541015625 L 17.234420776367188,9.033432006835938 L 17.734420776367188,8.905227661132812 L 18.07037353515625,8.526260375976562 L 18.131317138671875,8.026260375976562 L 17.95135498046875,7.5262603759765625 L 17.588607788085938,7.1472930908203125 M 17.263702392578125,8.376861572265625 L 17.263702392578125,8.376861572265625 L 17.559417724609375,8.746246337890625 L 17.667312622070312,8.246246337890625 L 17.684646606445312,7.746246337890625 L 17.499664306640625,8.243392944335938 M 16.4781494140625,12.267868041992188 L 16.4781494140625,12.267868041992188 L 16.5340576171875,12.693130493164062 L 16.643630981445312,13.193115234375 L 16.753204345703125,13.693099975585938 L 16.71075439453125,14.193084716796875 L 16.514022827148438,14.690231323242188 L 16.313934326171875,15.185775756835938 M 16.792999267578125,14.885513305664062 L 16.792999267578125,14.885513305664062 L 17.133987426757812,15.17022705078125 L 17.633987426757812,15.160202026367188 L 18.1024169921875,14.971298217773438 L 18.29583740234375,14.4901123046875 L 18.356781005859375,13.99615478515625 L 18.336135864257812,13.49615478515625 L 18.156173706054688,13.01177978515625 L 17.674362182617188,12.829269409179688 L 17.17437744140625,12.831298828125 L 16.674392700195312,13.063308715820312 M 17.189422607421875,13.753631591796875 L 17.189422607421875,13.753631591796875 L 16.970901489257812,14.1102294921875 L 17.31524658203125,14.275161743164062 L 17.78033447265625,14.452865600585938 L 17.953628540039062,13.952865600585938 L 17.453643798828125,13.826263427734375 L 17.038909912109375,14.019943237304688" fill="none" stroke="#000000" stroke-width="0.008162933349609375"/>
</svg>
