<?xml version="1.0" ?>
<svg baseProfile="full" height="600px" version="1.1" viewBox="18.13523469543457 4.671080642700195 4.828529632568359 13.46063412475586" width="216px" xmlns="http://www.w3.org/2000/svg" xmlns:ev="http://www.w3.org/2001/xml-events" xmlns:xlink="http://www.w3.org/1999/xlink">
	<defs/>
	<path d="M 20.343490600585938,9.806808471679688 L 20.343490600585938,9.806808471679688 L 20.57379150390625,9.715347290039062 L 20.835968017578125,9.566375732421875 L 20.95391845703125,9.289627075195312 L 21.0316162109375,8.982528686523438 L 21.09088134765625,8.6163330078125 L 21.151824951171875,8.245361328125 L 21.2127685546875,7.8264617919921875 L 21.183746337890625,7.3963775634765625 L 20.956832885742188,6.93756103515625 L 20.713150024414062,6.47393798828125 L 20.44598388671875,6.01031494140625 L 20.255950927734375,5.7974700927734375 L 20.10113525390625,5.823455810546875 L 19.874221801757812,5.90533447265625 L 19.643951416015625,6.177276611328125 L 19.465667724609375,6.57220458984375 L 19.29241943359375,6.9751129150390625 L 19.119171142578125,7.47509765625 L 18.947601318359375,7.9750823974609375 L 18.781051635742188,8.475067138671875 L 18.805099487304688,8.975051879882812 L 18.909637451171875,9.47503662109375 L 19.176834106445312,9.953018188476562 L 19.536285400390625,10.079605102539062 L 19.902435302734375,10.2381591796875 L 20.27362060546875,10.39190673828125 M 20.263809204101562,11.752853393554688 L 20.263809204101562,11.752853393554688 L 20.596420288085938,11.879440307617188 L 20.957534790039062,12.113052368164062 L 21.068771362304688,12.613037109375 L 21.164932250976562,13.113021850585938 L 21.257736206054688,13.613006591796875 L 21.225357055664062,14.112991333007812 L 21.068862915039062,14.61297607421875 L 20.897293090820312,15.112960815429688 L 20.717330932617188,15.612945556640625 L 20.49713134765625,16.106887817382812 L 20.208175659179688,16.556106567382812 L 19.919219970703125,17.005325317382812 L 19.419235229492188,16.976150512695312 L 18.997802734375,16.635513305664062 L 18.61492919921875,16.256546020507812 L 18.542282104492188,15.756546020507812 L 18.557952880859375,15.256546020507812 L 18.602127075195312,14.756546020507812 L 18.64630126953125,14.256546020507812 L 18.690475463867188,13.756546020507812 L 18.734649658203125,13.256546020507812 L 18.778823852539062,12.756546020507812 L 18.92193603515625,12.256546020507812 L 19.370254516601562,12.00054931640625 L 19.863845825195312,11.917068481445312 L 20.297073364257812,11.605194091796875 M 19.9383544921875,7.991546630859375 L 19.9383544921875,7.991546630859375 L 19.56219482421875,8.391265869140625 L 19.335281372070312,8.878829956054688 L 19.674591064453125,8.890426635742188 L 20.094390869140625,8.672775268554688 L 20.078781127929688,8.172775268554688 M 20.014755249023438,13.8470458984375 L 20.014755249023438,13.8470458984375 L 20.208175659179688,13.785919189453125 L 20.25738525390625,13.4676513671875 L 19.926498413085938,13.168533325195312 L 19.426513671875,13.247222900390625 L 19.038604736328125,13.640548706054688 L 19.3326416015625,14.09136962890625 L 19.799392700195312,14.285049438476562 L 19.65130615234375,13.802261352539062 M 19.903579711914062,10.352630615234375 L 19.903579711914062,10.352630615234375 L 20.053390502929688,10.099838256835938 L 20.209915161132812,9.962051391601562 M 21.788787841796875,9.524734497070312 L 21.788787841796875,9.524734497070312 L 22.198532104492188,9.47479248046875 L 22.015228271484375,9.292282104492188 L 21.781600952148438,9.103378295898438 L 21.8106689453125,8.895309448242188 L 22.151657104492188,8.759124755859375 L 21.872756958007812,8.450424194335938 L 22.019210815429688,8.4036865234375 L 22.494369506835938,8.392074584960938 L 22.010879516601562,8.171218872070312 L 21.557571411132812,7.9200286865234375 L 21.13446044921875,7.608154296875 L 20.964569091796875,7.366546630859375 L 21.429656982421875,7.5458526611328125 M 21.7825927734375,6.324188232421875 L 21.7825927734375,6.324188232421875 L 21.3896484375,6.324188232421875 M 21.530563354492188,6.60528564453125 L 21.530563354492188,6.60528564453125 L 21.189620971679688,6.5872802734375 M 21.765640258789062,12.340042114257812 L 21.765640258789062,12.340042114257812 L 22.14520263671875,12.5848388671875 L 21.965240478515625,12.629989624023438 L 21.510269165039062,12.731033325195312 L 21.693618774414062,13.009368896484375 L 22.068145751953125,13.295684814453125 L 21.591354370117188,13.320068359375 L 22.032974243164062,13.438674926757812 L 22.508132934570312,13.563690185546875 L 22.222518920898438,14.017715454101562 L 21.789337158203125,14.3487548828125 L 21.47186279296875,14.446609497070312 L 21.616653442382812,14.518905639648438 L 22.081741333007812,14.7413330078125 L 21.589874267578125,14.920639038085938 L 21.118118286132812,15.151046752929688 L 21.099151611328125,15.477294921875 L 21.282501220703125,15.51446533203125 L 21.762680053710938,15.738494873046875 L 21.788406372070312,16.186126708984375 L 21.338455200195312,16.459671020507812 L 20.838470458984375,16.48565673828125 L 20.42877197265625,16.527603149414062 M 21.671249389648438,7.3167724609375 L 21.671249389648438,7.3167724609375 L 21.802627563476562,7.228485107421875 L 22.068145751953125,7.14019775390625 L 22.556716918945312,7.0375518798828125 L 22.183914184570312,6.9492645263671875 L 21.790969848632812,6.8545989990234375 L 21.885452270507812,6.7263946533203125 L 22.005096435546875,6.26116943359375 L 21.563522338867188,5.960479736328125" fill="none" stroke="#000000" stroke-width="0.011207855224609375"/>
</svg>
