<?xml version="1.0" ?>
<svg baseProfile="full" height="600px" version="1.1" viewBox="14.81077439880371 3.707232833862305 5.385119293212891 14.916802642822265" width="217px" xmlns="http://www.w3.org/2000/svg" xmlns:ev="http://www.w3.org/2001/xml-events" xmlns:xlink="http://www.w3.org/1999/xlink">
	<defs/>
	<path d="M 17.457656860351562,12.377288818359375 L 17.457656860351562,12.377288818359375 L 17.644363403320312,12.575759887695312 L 17.839447021484375,12.758255004882812 L 18.036209106445312,12.940750122070312 L 18.231292724609375,13.156784057617188 L 18.426376342773438,13.37762451171875 L 18.549362182617188,13.622421264648438 L 18.547149658203125,14.01416015625 L 18.362167358398438,14.460205078125 L 18.21240234375,14.9078369140625 L 18.1263427734375,15.392196655273438 L 18.031906127929688,15.876556396484375 L 17.855300903320312,16.332183837890625 L 17.519393920898438,16.656845092773438 L 17.146591186523438,16.733932495117188 L 16.777130126953125,16.645645141601562 L 16.412704467773438,16.463134765625 L 16.081817626953125,16.248687744140625 L 15.752609252929688,16.013473510742188 L 15.465316772460938,15.711181640625 L 15.292068481445312,15.298675537109375 L 15.26470947265625,14.815887451171875 L 15.300491333007812,14.329910278320312 L 15.388259887695312,13.829910278320312 L 15.638702392578125,13.353515625 L 16.021621704101562,13.001693725585938 L 16.473297119140625,12.7489013671875 L 16.94677734375,12.564788818359375 L 17.413528442382812,12.29443359375 M 17.503128051757812,9.698333740234375 L 17.503128051757812,9.698333740234375 L 17.61102294921875,9.501449584960938 L 17.859786987304688,9.223098754882812 L 18.152145385742188,8.952743530273438 L 18.452880859375,8.682388305664062 L 18.721755981445312,8.373687744140625 L 18.677627563476562,7.873687744140625 L 18.502700805664062,7.37652587890625 L 18.326095581054688,6.8809661865234375 L 18.147811889648438,6.3809661865234375 L 17.902450561523438,5.9397125244140625 L 17.4024658203125,5.856231689453125 L 16.902481079101562,6.0882415771484375 L 16.464263916015625,6.4224853515625 L 16.088104248046875,6.838165283203125 L 15.886337280273438,7.3369140625 L 15.751663208007812,7.8368988037109375 L 15.800872802734375,8.336883544921875 L 15.873550415039062,8.836868286132812 L 16.239700317382812,9.209426879882812 L 16.701431274414062,9.466995239257812 L 17.164840698242188,9.724563598632812 L 17.624893188476562,10.039627075195312 M 16.3511962890625,8.361572265625 L 16.3511962890625,8.361572265625 L 16.24334716796875,8.55206298828125 L 16.115371704101562,8.945388793945312 L 16.21990966796875,9.071975708007812 L 16.418365478515625,9.286422729492188 L 16.685562133789062,9.400253295898438 L 16.875625610351562,9.547622680664062 M 15.890350341796875,8.563186645507812 L 15.890350341796875,8.563186645507812 L 16.023406982421875,8.691375732421875 L 16.166519165039062,8.843521118164062 L 16.361602783203125,8.950958251953125 L 16.591903686523438,8.956161499023438 L 16.8255615234375,8.859893798828125 L 17.05084228515625,8.6358642578125 L 17.271087646484375,8.5699462890625 L 17.496368408203125,8.57037353515625 L 17.725006103515625,8.749679565429688 L 17.784271240234375,8.587936401367188 L 17.789871215820312,8.149871826171875 L 17.764190673828125,7.780487060546875 L 17.668075561523438,7.4717864990234375 L 17.494827270507812,7.2014312744140625 L 17.155563354492188,7.108367919921875 L 16.769332885742188,7.2796783447265625 L 16.446823120117188,7.6426544189453125 L 16.446823120117188,7.967315673828125 L 16.53125,8.38299560546875 L 16.71795654296875,8.805084228515625 L 16.9818115234375,8.933273315429688 L 17.289260864257812,9.05828857421875 L 17.6051025390625,8.823074340820312 L 17.584457397460938,8.565505981445312 L 17.58502197265625,8.314315795898438 M 17.299087524414062,14.028121948242188 L 17.299087524414062,14.028121948242188 L 17.485794067382812,14.177078247070312 L 17.679214477539062,14.401107788085938 L 17.569686889648438,14.644302368164062 L 17.44171142578125,15.020065307617188 L 17.218154907226562,15.416595458984375 L 16.84869384765625,15.72686767578125 L 16.348709106445312,15.544357299804688 L 16.094970703125,15.361846923828125 L 15.945205688476562,14.88226318359375 L 16.2191162109375,14.528854370117188 L 16.548370361328125,14.239334106445312 L 16.924575805664062,14.0264892578125 L 17.324264526367188,14.04608154296875 L 17.661895751953125,14.401077270507812 M 16.680435180664062,14.960922241210938 L 16.680435180664062,14.960922241210938 L 16.510543823242188,14.826324462890625 L 16.340652465820312,14.691726684570312 L 16.485443115234375,14.636978149414062 L 16.682205200195312,14.56787109375 L 17.011459350585938,14.521133422851562 L 16.955596923828125,14.670089721679688 L 16.901412963867188,14.913284301757812 L 16.736541748046875,15.039871215820312 L 16.667266845703125,14.902084350585938 L 16.594619750976562,14.719573974609375 L 16.523666381835938,14.532272338867188 L 16.631561279296875,14.658859252929688 L 16.78472900390625,14.838165283203125 L 16.748977661132812,14.687591552734375 L 16.706527709960938,14.505081176757812 M 16.630905151367188,8.241973876953125 L 16.630905151367188,8.241973876953125 L 16.819290161132812,8.051483154296875 M 16.86346435546875,7.90411376953125 L 16.86346435546875,7.90411376953125 L 16.907638549804688,7.699249267578125 L 16.9920654296875,7.4959716796875 L 17.08990478515625,7.6209869384765625 L 17.139114379882812,7.928070068359375 L 17.195022583007812,8.214385986328125 L 16.978164672851562,8.246749877929688 L 16.865280151367188,8.376541137695312 L 16.67694091796875,8.3760986328125 L 16.727828979492188,8.206375122070312 L 16.991683959960938,7.897674560546875 L 17.272308349609375,7.8876495361328125 L 17.140975952148438,7.9775238037109375 L 16.800033569335938,8.105712890625 L 16.860977172851562,7.959930419921875 L 16.92694091796875,7.8061676025390625 L 17.009689331054688,7.5549774169921875 M 17.541519165039062,12.419509887695312 L 17.541519165039062,12.419509887695312 L 17.693008422851562,12.499801635742188 L 17.8646240234375,12.580093383789062 L 18.036239624023438,12.660385131835938 L 18.186050415039062,12.807754516601562 L 18.330841064453125,12.97589111328125 L 18.278335571289062,13.300552368164062 L 18.327545166015625,13.505401611328125 L 18.36834716796875,13.737411499023438 L 18.5164794921875,13.761795043945312 L 18.66796875,13.765411376953125 L 18.8194580078125,13.794570922851562 L 18.818923950195312,13.94512939453125 L 18.72113037109375,14.1915283203125 L 18.618316650390625,14.452285766601562 L 18.751373291015625,14.553329467773438 L 18.916290283203125,14.654373168945312 L 19.020828247070312,14.886383056640625 L 18.971664428710938,15.124786376953125 L 18.883941650390625,15.361602783203125 L 18.695602416992188,15.617584228515625 L 18.607879638671875,15.868759155273438 L 18.43463134765625,16.13751220703125 L 18.413986206054688,16.371124267578125 L 18.28936767578125,16.617523193359375 L 18.010467529296875,16.943771362304688 L 17.644363403320312,17.150222778320312 M 17.236404418945312,16.546768188476562 L 17.236404418945312,16.546768188476562 L 17.513671875,16.77398681640625 L 17.710433959960938,17.100234985351562 L 17.821670532226562,17.2220458984375 M 18.099533081054688,16.807937622070312 L 18.099533081054688,16.807937622070312 L 18.282882690429688,17.051132202148438 L 18.4561767578125,17.37579345703125 M 18.675430297851562,15.956954956054688 L 18.675430297851562,15.956954956054688 L 18.967788696289062,16.120285034179688 L 19.196426391601562,16.43695068359375 M 18.910888671875,15.147811889648438 L 18.910888671875,15.147811889648438 L 19.240142822265625,15.137786865234375 L 19.520767211914062,15.507171630859375 L 19.491744995117188,16.004318237304688 M 19.046951293945312,14.260040283203125 L 19.046951293945312,14.260040283203125 L 19.310806274414062,14.386627197265625 L 19.537765502929688,14.778366088867188 L 19.595352172851562,15.059890747070312 M 18.765396118164062,13.720138549804688 L 18.765396118164062,13.720138549804688 L 19.0325927734375,13.84832763671875 L 19.32159423828125,14.016464233398438 L 19.545196533203125,14.074386596679688 L 19.741958618164062,14.306396484375 M 18.279251098632812,12.872726440429688 L 18.279251098632812,12.872726440429688 L 18.4156494140625,12.750900268554688 L 18.562103271484375,12.665817260742188 L 18.743789672851562,12.718948364257812 L 18.922119140625,12.903045654296875 L 19.1121826171875,13.181381225585938 L 19.315673828125,13.31915283203125 M 17.635147094726562,9.639602661132812 L 17.635147094726562,9.639602661132812 L 17.783279418945312,9.554519653320312 L 18.013580322265625,9.469436645507812 L 18.2891845703125,9.409912109375 L 18.566452026367188,9.35516357421875 L 18.759872436523438,9.225357055664062 M 18.44525146484375,8.631912231445312 L 18.44525146484375,8.631912231445312 L 18.79461669921875,8.651504516601562 L 19.132247924804688,8.560043334960938 L 19.218353271484375,8.259353637695312 L 19.182601928710938,7.949066162109375 L 19.223403930664062,7.7729339599609375 M 18.637130737304688,7.572418212890625 L 18.637130737304688,7.572418212890625 L 18.877517700195312,7.271728515625 L 19.062545776367188,6.9997711181640625 L 19.115097045898438,6.707061767578125 L 18.943527221679688,6.403167724609375 M 18.224227905273438,6.5393218994140625 L 18.224227905273438,6.5393218994140625 L 18.415969848632812,6.3823699951171875 L 18.619461059570312,6.132781982421875 L 18.678726196289062,5.9406890869140625 L 18.858734130859375,5.7469940185546875 L 18.836410522460938,5.537322998046875 M 17.907516479492188,5.816497802734375 L 17.907516479492188,5.816497802734375 L 18.174713134765625,5.6803131103515625 L 18.451980590820312,5.4866180419921875 L 18.451980590820312,5.2545928955078125 L 18.43133544921875,4.955474853515625" fill="none" stroke="#000000" stroke-width="0.012420318603515626"/>
</svg>
