<?xml version="1.0" ?>
<svg baseProfile="full" height="391px" version="1.1" viewBox="11.059805740356445 8.564423049926758 9.982836029052734 6.499877044677734" width="600px" xmlns="http://www.w3.org/2000/svg" xmlns:ev="http://www.w3.org/2001/xml-events" xmlns:xlink="http://www.w3.org/1999/xlink">
	<defs/>
	<path d="M 15.557586669921875,11.640975952148438 L 15.557586669921875,11.640975952148438 L 15.616851806640625,11.793121337890625 L 15.723068237304688,12.021942138671875 L 15.909774780273438,12.159713745117188 L 16.138412475585938,12.111373901367188 L 16.370391845703125,11.968795776367188 L 16.479965209960938,11.711227416992188 L 16.373794555664062,11.472808837890625 L 16.146881103515625,11.234390258789062 L 15.7623291015625,11.064666748046875 L 15.285537719726562,11.011520385742188 L 14.855697631835938,11.265899658203125 L 14.479537963867188,11.67041015625 L 14.403549194335938,12.044570922851562 L 14.51312255859375,12.251022338867188 L 14.62603759765625,12.499008178710938 L 14.807723999023438,12.649566650390625 L 14.997787475585938,12.7889404296875 L 15.236495971679688,12.843673706054688 L 15.480224609375,12.85687255859375 L 15.725631713867188,12.7430419921875 L 15.919052124023438,12.431167602539062 L 16.288558959960938,12.338104248046875 L 16.626190185546875,12.2562255859375 L 16.755889892578125,12.129623413085938 L 16.977813720703125,11.8193359375 L 16.938705444335938,11.671966552734375 L 16.931472778320312,11.39202880859375 L 16.980682373046875,10.89202880859375 L 16.792343139648438,10.709518432617188 L 16.380966186523438,10.597274780273438 L 16.236221313476562,10.723861694335938 L 15.747695922851562,10.989410400390625 L 15.613021850585938,10.819686889648438 L 15.526962280273438,10.683502197265625 L 15.377197265625,10.60162353515625 L 15.126800537109375,10.519744873046875 L 15.102798461914062,10.684677124023438 L 14.857437133789062,11.157867431640625 L 14.7982177734375,11.32440185546875 L 14.6417236328125,11.63946533203125 M 15.927001953125,11.855377197265625 L 15.927001953125,11.855377197265625 L 15.845977783203125,11.676071166992188 L 15.674407958984375,11.493560791015625 L 15.711868286132812,11.658493041992188 L 15.809707641601562,11.884124755859375 L 16.001449584960938,12.063430786132812 L 16.114364624023438,11.944808959960938 L 16.051788330078125,11.684036254882812 L 15.821517944335938,11.479171752929688 L 15.847244262695312,11.648895263671875 L 15.867935180664062,12.003890991210938 L 16.0848388671875,11.915603637695312 L 16.049087524414062,11.626083374023438 L 15.8624267578125,11.441970825195312 L 15.362442016601562,11.339324951171875 L 15.564254760742188,11.462738037109375 L 15.844879150390625,11.493499755859375 L 16.128860473632812,11.549819946289062 L 16.07635498046875,11.37689208984375 L 15.90478515625,11.14007568359375 L 15.577255249023438,10.925628662109375 L 15.602981567382812,11.098541259765625 L 15.752792358398438,11.491867065429688 L 16.065261840820312,11.8165283203125 L 16.032882690429688,11.662765502929688 L 15.992111206054688,11.394012451171875 L 15.978164672851562,11.0501708984375 L 16.000534057617188,11.199127197265625 L 16.108428955078125,11.495025634765625 L 16.444381713867188,11.816482543945312 L 16.380142211914062,11.952667236328125 L 16.198516845703125,12.080856323242188 L 15.963211059570312,12.20904541015625 L 15.963211059570312,12.050491333007812 L 15.965469360351562,11.756179809570312 L 15.872711181640625,11.338882446289062 L 16.014144897460938,11.407989501953125 L 16.204208374023438,11.473892211914062 L 16.046051025390625,11.511062622070312 L 15.745361328125,11.581771850585938 L 15.417831420898438,11.493484497070312 L 15.45025634765625,11.346115112304688 L 15.4776611328125,11.150833129882812 L 15.62579345703125,10.94915771484375 L 15.906417846679688,10.8944091796875 L 15.879058837890625,11.046554565429688 L 15.787979125976562,11.326492309570312 L 15.668380737304688,11.681488037109375 L 15.78802490234375,11.780929565429688 L 15.904296875,11.942657470703125 L 15.933364868164062,11.784103393554688 L 15.979217529296875,11.47540283203125 L 16.05859375,11.637130737304688 L 16.203384399414062,11.766921997070312 L 16.142486572265625,11.625930786132812 L 16.081588745117188,11.44342041015625 L 16.087188720703125,11.593978881835938 L 16.111236572265625,11.837173461914062 L 16.1688232421875,11.981338500976562 L 16.226409912109375,12.125503540039062 L 16.285675048828125,12.301620483398438 L 16.313079833984375,12.119110107421875 L 16.340484619140625,11.705001831054688 L 16.187347412109375,11.648666381835938 L 15.923538208007812,11.561981201171875 L 15.72344970703125,11.476898193359375 M 18.535293579101562,9.525726318359375 L 18.535293579101562,9.525726318359375 L 18.358688354492188,9.488555908203125 L 18.143508911132812,9.444992065429688 L 17.919952392578125,9.358306884765625 L 17.679611206054688,9.27801513671875 L 17.41748046875,9.196136474609375 L 17.10504150390625,9.22052001953125 L 16.740615844726562,9.342330932617188 L 16.3359375,9.531219482421875 L 15.88934326171875,9.78399658203125 L 15.42596435546875,10.06072998046875 L 14.96258544921875,10.33746337890625 L 14.49920654296875,10.61419677734375 L 14.037521362304688,10.898910522460938 L 13.587570190429688,11.221969604492188 L 13.203018188476562,11.616897583007812 L 12.909027099609375,12.067718505859375 L 12.638504028320312,12.537704467773438 L 12.398162841796875,13.022064208984375 L 12.213180541992188,13.519210815429688 L 12.051666259765625,14.019195556640625 L 11.895172119140625,14.519180297851562 M 12.01983642578125,14.430892944335938 L 12.01983642578125,14.430892944335938 L 12.16796875,14.342605590820312 L 12.497222900390625,14.128158569335938 L 12.965652465820312,13.94085693359375 L 13.455886840820312,13.854171752929688 L 13.949478149414062,13.77069091796875 L 14.444747924804688,13.68560791015625 L 14.941696166992188,13.60052490234375 L 15.435287475585938,13.49627685546875 L 15.907089233398438,13.308975219726562 L 16.362106323242188,13.08013916015625 L 16.768508911132812,12.78582763671875 L 17.12628173828125,12.438812255859375 L 17.458892822265625,12.061431884765625 L 17.779769897460938,11.682464599609375 L 18.073806762695312,11.274749755859375 L 18.359466552734375,10.86224365234375 L 18.623321533203125,10.430557250976562 L 18.806671142578125,9.949371337890625 L 18.830718994140625,9.6326904296875 L 18.830718994140625,9.459762573242188 L 18.761444091796875,9.109542846679688 M 20.207275390625,10.421646118164062 L 20.207275390625,10.421646118164062 L 20.01556396484375,10.4300537109375 L 19.775222778320312,10.438461303710938 L 19.395706176757812,10.462844848632812 L 19.009475708007812,10.527145385742188 L 18.621566772460938,10.591445922851562 M 19.5758056640625,11.463623046875 L 19.5758056640625,11.463623046875 L 19.315353393554688,11.481613159179688 L 18.83856201171875,11.544326782226562 L 18.338577270507812,11.56231689453125 L 17.838592529296875,11.580307006835938 M 18.53125,12.750701904296875 L 18.53125,12.750701904296875 L 18.223831176757812,12.770294189453125 L 17.723846435546875,12.84417724609375 L 17.223861694335938,12.91168212890625 L 16.723876953125,12.936065673828125 L 16.223892211914062,12.936065673828125" fill="none" stroke="#000000" stroke-width="0.008312103271484374"/>
</svg>
