<?xml version="1.0" ?>
<svg baseProfile="full" height="600px" version="1.1" viewBox="10.94664421081543 5.488138961791992 8.91524429321289 13.792917633056641" width="388px" xmlns="http://www.w3.org/2000/svg" xmlns:ev="http://www.w3.org/2001/xml-events" xmlns:xlink="http://www.w3.org/1999/xlink">
	<defs/>
	<path d="M 19.0694580078125,7.75897216796875 L 19.0694580078125,7.75897216796875 L 19.013595581054688,8.258956909179688 L 18.95941162109375,8.758941650390625 L 18.905227661132812,9.258926391601562 L 18.851043701171875,9.7589111328125 L 18.795181274414062,10.258895874023438 M 18.262542724609375,10.69256591796875 L 18.262542724609375,10.69256591796875 L 17.896438598632812,11.066726684570312 M 17.676239013671875,10.585540771484375 L 17.676239013671875,10.585540771484375 L 17.445968627929688,10.110733032226562 L 17.214019775390625,9.642333984375 M 17.116226196289062,9.142333984375 L 17.116226196289062,9.142333984375 L 17.0184326171875,8.642333984375 L 16.922317504882812,8.142333984375 L 16.954742431640625,7.642333984375 L 16.987167358398438,7.142333984375 L 17.0548095703125,6.642333984375 M 18.407028198242188,13.025192260742188 L 18.407028198242188,13.025192260742188 L 17.90704345703125,12.844284057617188 M 17.515777587890625,13.22802734375 L 17.515777587890625,13.22802734375 L 17.208358764648438,13.658096313476562 M 16.865188598632812,14.403228759765625 L 16.865188598632812,14.403228759765625 L 16.748947143554688,14.900375366210938 L 16.649490356445312,15.39752197265625 L 16.8563232421875,15.859527587890625 L 17.150360107421875,16.260848999023438 L 17.44439697265625,16.660568237304688 L 17.610992431640625,17.124176025390625 L 17.643417358398438,17.618118286132812 L 17.670822143554688,18.1104736328125 L 18.169448852539062,18.126861572265625 L 18.530563354492188,17.778244018554688 L 18.801116943359375,17.365737915039062 L 19.066635131835938,16.951629638671875 L 19.114166259765625,16.451629638671875 L 18.900665283203125,15.9720458984375 L 18.675430297851562,15.492462158203125 L 18.45355224609375,15.014480590820312 L 18.527908325195312,14.514480590820312 L 18.736419677734375,14.04608154296875 L 18.96337890625,13.598434448242188 L 18.81024169921875,13.098434448242188 L 18.420654296875,12.748214721679688 M 18.235916137695312,15.638412475585938 L 18.235916137695312,15.638412475585938 L 17.94024658203125,16.086044311523438 L 17.440261840820312,16.20147705078125 L 16.940277099609375,16.028549194335938 L 16.661376953125,15.61285400390625 L 16.764236450195312,15.1204833984375 L 17.090133666992188,14.73992919921875 L 17.590133666992188,14.69158935546875 L 17.94622802734375,15.075332641601562 L 18.054122924804688,15.570877075195312 M 18.47412109375,8.608413696289062 L 18.47412109375,8.608413696289062 L 18.57196044921875,9.1083984375 L 18.23101806640625,9.506515502929688 L 17.731033325195312,9.483718872070312 L 17.231048583984375,9.30120849609375 L 17.05108642578125,8.808837890625 L 17.34344482421875,8.389938354492188 L 17.84344482421875,8.411117553710938 L 18.34344482421875,8.592025756835938 L 18.793441772460938,8.867156982421875 M 17.89337158203125,8.88861083984375 L 17.89337158203125,8.88861083984375 L 17.886138916015625,8.38861083984375 M 17.43267822265625,15.038436889648438 L 17.43267822265625,15.038436889648438 L 17.3499755859375,15.538421630859375 M 17.198516845703125,15.378280639648438 L 17.198516845703125,15.378280639648438 L 17.0252685546875,15.176605224609375 M 17.347824096679688,14.762496948242188 L 17.347824096679688,14.762496948242188 M 17.24053955078125,15.41143798828125 L 17.24053955078125,15.41143798828125 L 17.24053955078125,15.561996459960938 L 16.929763793945312,15.9537353515625 M 16.52679443359375,10.862716674804688 L 16.52679443359375,10.862716674804688 L 16.026809692382812,10.672225952148438 L 15.526824951171875,10.478530883789062 L 15.026840209960938,10.294418334960938 L 14.52685546875,10.159820556640625 L 14.026870727539062,10.04119873046875 L 13.526885986328125,9.981674194335938 L 13.026901245117188,10.037994384765625 L 12.52691650390625,10.113479614257812 L 12.026931762695312,10.262435913085938 L 11.694366455078125,10.66534423828125 L 11.824066162109375,11.164093017578125" fill="none" stroke="#000000" stroke-width="0.011484527587890625"/>
</svg>
