<?xml version="1.0" ?>
<svg baseProfile="full" height="600px" version="1.1" viewBox="16.32344026184082 6.477839370727539 5.045303924560547 10.684641082763672" width="284px" xmlns="http://www.w3.org/2000/svg" xmlns:ev="http://www.w3.org/2001/xml-events" xmlns:xlink="http://www.w3.org/1999/xlink">
	<defs/>
	<path d="M 19.70135498046875,14.669097900390625 L 19.70135498046875,14.669097900390625 L 19.69244384765625,14.47381591796875 L 19.685211181640625,14.177902221679688 L 19.65618896484375,13.880386352539062 L 19.484619140625,13.6787109375 L 19.250991821289062,13.587249755859375 L 18.883209228515625,13.624420166015625 L 18.383224487304688,13.835678100585938 L 17.939987182617188,14.16351318359375 L 17.64263916015625,14.61273193359375 L 17.482803344726562,15.112716674804688 L 17.542068481445312,15.612701416015625 L 17.81597900390625,16.085891723632812 L 18.299514770507812,16.268386840820312 L 18.799514770507812,16.184906005859375 L 19.262924194335938,15.978439331054688 L 19.691116333007812,15.704879760742188 L 20.119308471679688,15.431320190429688 M 19.974563598632812,15.379776000976562 L 19.974563598632812,15.379776000976562 L 19.772796630859375,15.328231811523438 L 19.3916015625,15.259124755859375 L 19.317276000976562,14.937652587890625 L 19.426849365234375,14.437652587890625 L 19.424636840820312,14.261520385742188 L 19.482223510742188,13.769149780273438 L 19.618621826171875,13.700042724609375 L 19.808685302734375,13.62933349609375 L 20.142974853515625,13.658493041992188 L 20.477264404296875,13.935226440429688 L 20.744461059570312,14.406814575195312 L 20.944595336914062,14.903961181640625 L 20.72271728515625,15.401107788085938 L 20.373382568359375,15.094009399414062 L 20.169937133789062,14.609634399414062 L 19.98663330078125,14.591629028320312 L 19.860336303710938,14.774124145507812 L 19.978286743164062,15.14508056640625 L 20.25555419921875,15.538406372070312 L 20.698837280273438,15.687362670898438 L 20.78326416015625,15.522415161132812 L 20.73577880859375,15.344696044921875 M 20.577621459960938,15.29315185546875 L 20.577621459960938,15.29315185546875 L 20.3758544921875,15.23681640625 L 20.081863403320312,15.118194580078125 L 20.0975341796875,14.94366455078125 L 20.128280639648438,14.6796875 L 20.175811767578125,14.295928955078125 L 19.900253295898438,14.159744262695312 L 19.431854248046875,14.224044799804688 L 18.931869506835938,14.374603271484375 L 19.0699462890625,14.435714721679688 L 19.213058471679688,14.498428344726562 L 19.398086547851562,14.625015258789062 L 19.586471557617188,14.812301635742188 L 19.433334350585938,14.836685180664062 L 19.194671630859375,14.885025024414062 L 18.897323608398438,14.949325561523438 L 19.03875732421875,15.015228271484375 L 19.20367431640625,15.09710693359375 L 19.36859130859375,15.178985595703125 L 19.5301513671875,15.280029296875 L 19.683319091796875,15.323577880859375 L 19.8851318359375,15.368728637695312 L 20.154006958007812,15.333160400390625 L 20.104843139648438,15.184188842773438 L 20.030517578125,15.0064697265625 L 19.931060791015625,14.830337524414062 L 19.895309448242188,14.681365966796875 L 19.84112548828125,14.502059936523438 L 19.7718505859375,14.32275390625 L 19.739471435546875,14.473312377929688 L 19.702041625976562,14.625457763671875 L 19.656234741210938,14.788787841796875 L 19.610427856445312,14.952117919921875 L 19.564620971679688,15.115447998046875 L 19.518814086914062,15.278778076171875 L 19.554595947265625,15.128204345703125 L 19.590377807617188,14.945693969726562 L 19.62615966796875,14.76318359375 M 20.0496826171875,9.713668823242188 L 20.0496826171875,9.713668823242188 L 20.206207275390625,9.280410766601562 L 20.158721923828125,8.780410766601562 L 20.022369384765625,8.280410766601562 L 19.696517944335938,7.8471527099609375 L 19.263336181640625,7.5464630126953125 L 18.763351440429688,7.3719329833984375 L 18.26336669921875,7.447418212890625 L 17.769821166992188,7.693817138671875 L 17.341659545898438,8.037643432617188 L 17.045989990234375,8.486862182617188 L 16.87274169921875,8.986846923828125 L 16.756500244140625,9.486831665039062 L 16.747589111328125,9.98681640625 L 16.883987426757812,10.486801147460938 L 17.121017456054688,10.979156494140625 L 17.475433349609375,11.380477905273438 L 17.943862915039062,11.562973022460938 L 18.434097290039062,11.630477905273438 L 18.920989990234375,11.554977416992188 L 19.401168823242188,11.426773071289062 L 19.847808837890625,11.189956665039062 L 20.172027587890625,10.78863525390625 L 20.214523315429688,10.291473388671875 L 20.078170776367188,9.7943115234375 L 19.9183349609375,9.297149658203125 M 18.949249267578125,8.805084228515625 L 18.949249267578125,8.805084228515625 L 18.75921630859375,9.121749877929688 L 18.461868286132812,9.569381713867188 L 18.15277099609375,10.02020263671875 L 17.652786254882812,10.044586181640625 L 17.266555786132812,9.699172973632812 L 17.192230224609375,9.199172973632812 L 17.4896240234375,8.781875610351562 L 17.68304443359375,9.044235229492188 L 17.856338500976562,9.544219970703125 L 18.004470825195312,10.044204711914062 L 18.254913330078125,10.437530517578125 L 18.743484497070312,10.621627807617188 L 19.124725341796875,10.30975341796875 L 19.045379638671875,9.8173828125 L 18.571945190429688,9.604537963867188 L 18.07196044921875,9.6656494140625 L 17.573379516601562,9.908843994140625 L 17.326339721679688,10.3900146484375 L 17.383926391601562,10.545364379882812 L 17.575668334960938,10.9227294921875 L 17.920013427734375,10.540573120117188 L 17.98095703125,10.0498046875 L 17.95025634765625,9.55743408203125 L 17.822280883789062,9.066665649414062 L 17.6993408203125,8.577499389648438 L 17.783767700195312,8.085128784179688 L 17.868194580078125,8.211715698242188 L 17.952621459960938,8.338302612304688 L 18.03704833984375,8.464889526367188 L 18.121475219726562,8.613845825195312 L 18.591583251953125,8.87939453125 L 19.063385009765625,9.085845947265625 L 19.56201171875,9.161331176757812 L 19.626296997070312,8.661331176757812 L 19.303787231445312,8.244033813476562 L 18.823654174804688,8.158950805664062 L 18.469284057617188,8.598602294921875 L 18.64593505859375,9.098587036132812 L 18.881271362304688,9.586151123046875 L 19.121658325195312,10.072113037109375 L 19.320114135742188,10.558074951171875 L 19.345840454101562,11.058059692382812 M 19.382293701171875,9.546905517578125 L 19.382293701171875,9.546905517578125 L 19.454971313476562,9.241409301757812 L 19.253204345703125,9.007781982421875 L 19.123550415039062,9.120010375976562 L 19.137542724609375,9.273757934570312 L 19.190093994140625,9.49139404296875 L 19.264450073242188,9.718612670898438 L 19.447799682617188,9.98895263671875 L 19.676437377929688,9.817626953125 L 19.590377807617188,9.691024780273438 L 19.469100952148438,9.564422607421875 L 19.275711059570312,9.4825439453125 L 19.073944091796875,9.545257568359375 L 18.89398193359375,9.737350463867188 L 19.0421142578125,9.911865234375 L 19.319381713867188,9.671859741210938" fill="none" stroke="#000000" stroke-width="0.008896453857421875"/>
</svg>
