<?xml version="1.0" ?>
<svg baseProfile="full" height="600px" version="1.1" viewBox="14.116873168945313 9.756350708007812 5.832049560546875 7.689508056640625" width="456px" xmlns="http://www.w3.org/2000/svg" xmlns:ev="http://www.w3.org/2001/xml-events" xmlns:xlink="http://www.w3.org/1999/xlink">
	<defs/>
	<path d="M 19.04833984375,15.047882080078125 L 19.04833984375,15.047882080078125 L 19.293746948242188,14.668914794921875 L 19.185897827148438,14.492782592773438 L 18.740982055664062,14.216033935546875 L 18.240997314453125,14.406524658203125 L 18.01239013671875,14.862152099609375 L 18.3466796875,15.263473510742188 L 18.8466796875,15.218307495117188 L 18.932785034179688,14.718307495117188 M 15.180923461914062,15.5780029296875 L 15.180923461914062,15.5780029296875 L 15.495071411132812,15.165496826171875 L 15.824325561523438,14.748199462890625 L 16.321273803710938,14.774185180664062 L 16.784683227539062,15.050918579101562 L 16.892578125,15.5509033203125 L 16.997116088867188,16.050888061523438 L 16.778594970703125,16.527267456054688 L 16.33367919921875,16.802398681640625 L 15.833694458007812,16.790786743164062 L 15.333709716796875,16.712081909179688 L 14.833724975585938,16.662139892578125 L 14.702392578125,16.162139892578125 L 15.011520385742188,15.760818481445312 L 15.072463989257812,15.260818481445312 M 15.734542846679688,15.921676635742188 L 15.734542846679688,15.921676635742188 L 15.966522216796875,15.652923583984375 L 16.15826416015625,15.653350830078125 L 16.430496215820312,15.751205444335938 L 16.399795532226562,16.071060180664062 L 16.1292724609375,16.189666748046875 L 16.091842651367188,15.775558471679688 M 16.122589111328125,15.922927856445312 L 16.122589111328125,15.922927856445312 L 16.09356689453125,16.202865600585938 L 16.020919799804688,16.578628540039062 L 15.840957641601562,16.525482177734375 L 15.340972900390625,16.398880004882812 L 15.56121826171875,16.031097412109375 L 15.76470947265625,15.90289306640625 L 15.973220825195312,15.463226318359375 L 16.111297607421875,15.581832885742188 L 16.457321166992188,15.772323608398438 L 16.3109130859375,16.077804565429688 L 15.854263305664062,16.389678955078125 L 15.5653076171875,15.983566284179688 M 18.26397705078125,16.105987548828125 L 18.26397705078125,16.105987548828125 L 18.591552734375,15.794113159179688 L 18.971115112304688,15.611602783203125 L 19.421112060546875,15.334854125976562 L 19.460250854492188,14.834854125976562 L 18.981796264648438,14.583663940429688 L 18.499984741210938,14.370819091796875 L 18.0,14.226638793945312 L 17.690902709960938,14.67108154296875 L 17.869232177734375,15.155441284179688 L 18.325927734375,15.381072998046875 L 18.48077392578125,15.865432739257812 L 18.690963745117188,16.341812133789062 M 16.713272094726562,13.527084350585938 L 16.713272094726562,13.527084350585938 L 16.38909912109375,13.11297607421875 L 15.889114379882812,12.965606689453125 L 15.389129638671875,12.781494140625 L 15.009613037109375,12.3929443359375 L 14.891693115234375,11.8929443359375 L 14.70166015625,11.3929443359375 L 14.605545043945312,10.89898681640625 L 14.877777099609375,10.448150634765625 L 15.3546142578125,10.399810791015625 L 15.833114624023438,10.521621704101562 L 16.304916381835938,10.771194458007812 L 16.694534301757812,11.156539916992188 L 17.084152221679688,11.543487548828125" fill="none" stroke="#000000" stroke-width="0.006402587890625"/>
</svg>
