<?xml version="1.0" ?>
<svg baseProfile="full" height="600px" version="1.1" viewBox="16.45397915649414 5.0266018371582035 6.108582214355469 9.500903991699218" width="386px" xmlns="http://www.w3.org/2000/svg" xmlns:ev="http://www.w3.org/2001/xml-events" xmlns:xlink="http://www.w3.org/1999/xlink">
	<defs/>
	<path d="M 19.713363647460938,9.761459350585938 L 19.713363647460938,9.761459350585938 L 20.04931640625,9.361724853515625 L 20.484222412109375,9.067413330078125 L 20.751419067382812,8.595809936523438 L 20.849258422851562,8.100250244140625 L 20.885040283203125,7.60308837890625 L 20.893997192382812,7.1075286865234375 L 20.777755737304688,6.611968994140625 L 20.468658447265625,6.1978607177734375 L 20.027084350585938,5.9195098876953125 L 19.527099609375,5.8216400146484375 L 19.027114868164062,5.9705963134765625 L 18.588897705078125,6.2473297119140625 L 18.20098876953125,6.5767669677734375 L 17.81475830078125,6.9094085693359375 L 17.44195556640625,7.286773681640625 L 17.163055419921875,7.734405517578125 L 16.966323852539062,8.217178344726562 L 17.040679931640625,8.7171630859375 L 17.125106811523438,9.215911865234375 L 17.22796630859375,9.71466064453125 L 17.5941162109375,10.1143798828125 L 18.064224243164062,10.298477172851562 L 18.539382934570312,10.16229248046875 L 19.001113891601562,9.965408325195312 L 19.501113891601562,9.989791870117188 L 20.001113891601562,10.014175415039062 L 20.31695556640625,9.633621215820312 L 20.416458129882812,9.146041870117188 L 20.512619018554688,8.658462524414062 M 17.915252685546875,7.96588134765625 L 17.915252685546875,7.96588134765625 L 17.795654296875,8.465866088867188 L 18.264083862304688,8.701080322265625 L 18.732513427734375,8.936294555664062 L 19.073501586914062,8.57330322265625 L 19.179718017578125,8.085723876953125 L 18.947769165039062,7.593353271484375 L 18.54644775390625,7.2399444580078125 L 18.046463012695312,7.262725830078125 L 17.739044189453125,7.708770751953125 L 18.194061279296875,7.958343505859375 M 18.401260375976562,13.23248291015625 L 18.401260375976562,13.23248291015625 L 18.437042236328125,13.732467651367188 L 18.937042236328125,13.607467651367188 L 19.437042236328125,13.480865478515625 L 19.732757568359375,13.063568115234375 L 19.510879516601562,12.590362548828125 L 19.010894775390625,12.404647827148438 L 18.510910034179688,12.531234741210938 L 18.01092529296875,12.657821655273438 L 18.081924438476562,13.157806396484375 L 18.401123046875,13.602249145507812 L 18.871231079101562,13.422943115234375 L 19.366500854492188,13.337860107421875 L 19.705810546875,12.938125610351562 L 19.532562255859375,12.448959350585938 L 19.032577514648438,12.521255493164062 L 18.619522094726562,12.897018432617188 L 18.303726196289062,13.344650268554688 L 18.639678955078125,12.951309204101562 L 18.960556030273438,12.5595703125 L 18.812469482421875,13.059555053710938 L 18.572128295898438,13.526351928710938 M 20.840301513671875,13.36663818359375 L 20.840301513671875,13.36663818359375 L 20.840301513671875,12.86663818359375 L 20.784439086914062,12.36663818359375 L 20.607833862304688,11.86663818359375 M 21.672332763671875,6.9317474365234375 L 21.672332763671875,6.9317474365234375 L 22.050216674804688,7.024810791015625 L 21.967514038085938,7.462860107421875 L 21.50750732421875,7.7411956787109375 L 21.801544189453125,8.188827514648438 L 21.983230590820312,8.671600341796875 L 21.494705200195312,8.852508544921875 L 21.088348388671875,9.228271484375 L 21.410903930664062,9.651947021484375 L 21.89276123046875,9.743408203125" fill="none" stroke="#000000" stroke-width="0.00791082763671875"/>
</svg>
