<?xml version="1.0" ?>
<svg baseProfile="full" height="600px" version="1.1" viewBox="19.004358352661132 3.6437260284423827 5.33475863647461 14.97478549194336" width="214px" xmlns="http://www.w3.org/2000/svg" xmlns:ev="http://www.w3.org/2001/xml-events" xmlns:xlink="http://www.w3.org/1999/xlink">
	<defs/>
	<path d="M 21.943893432617188,9.879318237304688 L 21.943893432617188,9.879318237304688 L 22.167495727539062,9.394943237304688 L 22.50848388671875,8.9808349609375 L 22.851150512695312,8.577911376953125 L 22.943954467773438,8.077911376953125 L 22.978057861328125,7.577911376953125 L 23.005462646484375,7.077911376953125 L 22.968032836914062,6.577911376953125 L 22.789749145507812,6.09033203125 L 22.509170532226562,5.657073974609375 L 22.131332397460938,5.3036651611328125 L 21.684738159179688,5.06524658203125 L 21.201248168945312,5.166290283203125 L 20.947509765625,5.6458740234375 L 20.77593994140625,6.1458587646484375 L 20.611068725585938,6.645843505859375 L 20.446197509765625,7.1458282470703125 L 20.358474731445312,7.64581298828125 L 20.494873046875,8.145797729492188 L 20.6983642578125,8.638153076171875 L 20.906875610351562,9.132095336914062 L 21.1170654296875,9.62445068359375 L 21.369186401367188,10.076873779296875 L 21.846023559570312,10.308883666992188 L 22.26416015625,10.384368896484375 M 21.733291625976562,11.4813232421875 L 21.733291625976562,11.4813232421875 L 22.119552612304688,11.8507080078125 L 22.520919799804688,12.218490600585938 L 22.749557495117188,12.699661254882812 L 22.85577392578125,13.19964599609375 L 22.940200805664062,13.699630737304688 L 23.024627685546875,14.199615478515625 L 22.950302124023438,14.699600219726562 L 22.800537109375,15.1995849609375 L 22.62896728515625,15.699569702148438 L 22.4573974609375,16.199554443359375 L 22.205322265625,16.672744750976562 L 21.705337524414062,16.490234375 L 21.3778076171875,16.114456176757812 L 21.127410888671875,15.695556640625 L 20.875335693359375,15.281448364257812 L 20.623260498046875,14.865753173828125 L 20.441635131835938,14.413314819335938 L 20.370681762695312,13.917755126953125 L 20.3148193359375,13.418991088867188 L 20.34222412109375,12.918991088867188 L 20.450119018554688,12.418991088867188 L 20.688827514648438,11.93780517578125 L 21.060012817382812,11.576400756835938 L 21.483169555664062,11.27410888671875 L 21.941543579101562,11.053253173828125 M 22.280120849609375,13.561431884765625 L 22.280120849609375,13.561431884765625 L 22.220901489257812,13.061431884765625 L 21.777664184570312,12.8773193359375 L 21.277679443359375,12.747512817382812 L 20.978652954101562,13.195144653320312 L 20.952972412109375,13.69512939453125 L 21.334213256835938,14.08526611328125 L 21.792587280273438,14.32366943359375 L 22.190597534179688,14.013381958007812 L 22.079391479492188,13.513381958007812 M 21.451904296875,13.532501220703125 L 21.451904296875,13.532501220703125 L 21.332305908203125,13.627151489257812 L 21.167434692382812,13.578811645507812 L 20.771148681640625,13.527267456054688 L 20.9561767578125,13.486907958984375 L 21.454803466796875,13.449737548828125 L 21.846099853515625,13.485305786132812 M 22.148574829101562,13.56005859375 L 22.148574829101562,13.56005859375 L 21.707000732421875,13.573257446289062 L 21.404632568359375,13.55206298828125 L 21.22802734375,13.50372314453125 L 20.836761474609375,13.493698120117188 L 20.959747314453125,13.405410766601562 L 21.1129150390625,13.27081298828125 L 21.450546264648438,13.115447998046875 L 21.598678588867188,13.17974853515625 L 21.892715454101562,13.344680786132812 L 22.334335327148438,13.595855712890625 M 22.16778564453125,13.639404296875 L 22.16778564453125,13.639404296875 L 21.857009887695312,13.769195556640625 L 21.38525390625,14.015594482421875 L 20.911819458007812,13.766006469726562 M 21.290573120117188,7.05487060546875 L 21.290573120117188,7.05487060546875 L 21.475601196289062,6.58807373046875 L 21.975601196289062,6.6875152587890625 L 22.433975219726562,6.948272705078125 L 22.729690551757812,7.3927154541015625 L 22.834228515625,7.8927001953125 L 22.602279663085938,8.381866455078125 L 22.177474975585938,8.693740844726562 L 21.677490234375,8.52081298828125 L 21.239273071289062,8.234481811523438 L 20.948638916015625,7.8379364013671875 L 20.974365234375,7.3379364013671875 L 21.310317993164062,6.955780029296875 L 21.649627685546875,7.3762664794921875 L 22.149627685546875,7.593902587890625 L 22.649627685546875,7.7556304931640625 L 22.782684326171875,7.834320068359375 L 22.492050170898438,7.789154052734375 L 21.9920654296875,7.740814208984375 L 21.600799560546875,8.134140014648438 L 21.100814819335938,8.06182861328125 L 20.692794799804688,7.7563323974609375 M 20.774734497070312,7.6493072509765625 L 20.774734497070312,7.6493072509765625 L 20.994979858398438,7.7072296142578125 L 21.494979858398438,7.6157684326171875 L 21.814178466796875,7.2368011474609375 L 22.314178466796875,7.2675628662109375 L 22.772552490234375,7.5458984375 L 22.982742309570312,8.039840698242188 M 22.829605102539062,7.9946746826171875 L 22.829605102539062,7.9946746826171875 L 22.570831298828125,7.9399261474609375 L 22.080642700195312,7.8021392822265625 L 21.580657958984375,8.030960083007812 L 21.080673217773438,8.061721801757812 L 20.706192016601562,7.6811676025390625 M 20.706192016601562,7.495452880859375 L 20.706192016601562,7.495452880859375 L 20.7039794921875,7.13885498046875 L 20.823623657226562,7.24310302734375 L 21.092498779296875,7.419219970703125 L 21.431808471679688,7.5506134033203125 L 21.7711181640625,7.2866363525390625 L 22.16241455078125,7.2015533447265625 L 22.5604248046875,7.4175872802734375 M 23.889358520507812,4.896820068359375 L 23.889358520507812,4.896820068359375 L 23.880447387695312,5.3968048095703125 L 23.858123779296875,5.89678955078125 L 23.835800170898438,6.3967742919921875 L 23.8134765625,6.896759033203125 L 23.789474487304688,7.3967437744140625 L 23.765472412109375,7.896728515625 L 23.666015625,8.396713256835938 L 23.4910888671875,8.896697998046875 L 23.29937744140625,9.393844604492188 L 23.069107055664062,9.883010864257812 L 22.766738891601562,10.324249267578125 L 22.388900756835938,10.695205688476562 L 21.95404052734375,10.96875 L 21.454055786132812,10.996322631835938 L 20.954071044921875,11.023895263671875 L 20.454086303710938,11.002700805664062 L 19.9541015625,10.920822143554688 L 19.454116821289062,10.838943481445312 M 21.929275512695312,11.149322509765625 L 21.929275512695312,11.149322509765625 L 22.429275512695312,11.3653564453125 L 22.884292602539062,11.650070190429688 L 23.173294067382812,12.096115112304688 L 23.24261474609375,12.596099853515625 L 23.281753540039062,13.096084594726562 L 23.309158325195312,13.5960693359375 L 23.336563110351562,14.096054077148438 L 23.363967895507812,14.596038818359375 L 23.363967895507812,15.096023559570312 L 23.309783935546875,15.59600830078125 L 23.198577880859375,16.095993041992188 L 22.961593627929688,16.556396484375 L 22.63238525390625,16.973678588867188 L 22.25286865234375,17.36541748046875" fill="none" stroke="#000000" stroke-width="0.012468597412109376"/>
</svg>
