<?xml version="1.0" ?>
<svg baseProfile="full" height="600px" version="1.1" viewBox="14.491594245910644 4.521222236633301 9.053096908569335 11.29894041442871" width="481px" xmlns="http://www.w3.org/2000/svg" xmlns:ev="http://www.w3.org/2001/xml-events" xmlns:xlink="http://www.w3.org/1999/xlink">
	<defs/>
	<path d="M 16.973831176757812,5.6528778076171875 L 16.973831176757812,5.6528778076171875 L 17.316497802734375,5.56298828125 L 17.806732177734375,5.4667205810546875 L 18.306732177734375,5.5038909912109375 L 18.806732177734375,5.6911773681640625 L 19.306732177734375,5.8784637451171875 L 19.806732177734375,5.9890899658203125 L 20.306732177734375,6.1156768798828125 L 20.796966552734375,6.34130859375 L 21.287200927734375,6.5669403076171875 L 21.745574951171875,6.84527587890625 L 22.016128540039062,7.29290771484375 L 21.985427856445312,7.7884521484375 L 21.907760620117188,8.282394409179688 L 21.731155395507812,8.774749755859375 L 21.497528076171875,9.246337890625 L 21.060989379882812,9.563003540039062 L 20.579177856445312,9.795013427734375 L 20.079193115234375,9.894454956054688 L 19.579208374023438,9.995498657226562 L 19.0792236328125,10.029464721679688 L 18.579238891601562,10.065032958984375 L 18.079254150390625,10.053421020507812 L 17.579269409179688,10.046600341796875 L 17.07928466796875,10.034988403320312 M 20.311004638671875,9.80572509765625 L 20.311004638671875,9.80572509765625 L 20.64361572265625,9.985031127929688 L 21.07684326171875,10.260162353515625 L 21.370880126953125,10.704605102539062 L 21.659881591796875,11.1490478515625 L 21.80633544921875,11.633407592773438 L 21.863922119140625,12.125762939453125 L 21.6839599609375,12.608535766601562 L 21.388290405273438,13.046585083007812 L 21.087600708007812,13.487823486328125 L 20.694656372070312,13.82684326171875 L 20.227935791015625,14.068435668945312 L 19.732711791992188,14.2381591796875 L 19.23272705078125,14.313644409179688 L 18.732742309570312,14.334823608398438 L 18.232757568359375,14.2337646484375 L 17.732772827148438,14.051254272460938 L 17.235870361328125,13.841583251953125 L 16.740646362304688,13.619140625 L 16.243743896484375,13.409469604492188 L 15.746841430664062,13.199798583984375 L 15.24993896484375,12.990127563476562 M 17.358230590820312,12.302871704101562 L 17.358230590820312,12.302871704101562 L 17.759597778320312,12.533279418945312 L 18.259597778320312,12.59918212890625 L 18.733078002929688,12.403900146484375 L 19.0791015625,12.042495727539062 L 18.630828857421875,11.778518676757812 L 18.130844116210938,11.776473999023438 L 17.630859375,11.7896728515625 L 17.130874633789062,11.804473876953125 L 17.58087158203125,12.0572509765625 L 18.08087158203125,12.055206298828125 L 18.192108154296875,11.818389892578125 L 17.799163818359375,11.941802978515625 L 17.7952880859375,12.387847900390625 L 18.238571166992188,12.658187866210938 L 18.354843139648438,12.172210693359375 L 18.102767944335938,11.735748291015625 L 17.778594970703125,12.176986694335938 L 18.275543212890625,12.273239135742188 L 18.599761962890625,11.892684936523438 L 18.680831909179688,11.392684936523438 L 18.3096923828125,11.781219482421875 L 18.2052001953125,12.275161743164062 L 17.8575439453125,12.67327880859375 L 17.367355346679688,12.801467895507812 L 17.3997802734375,12.301467895507812 L 17.608291625976562,11.801467895507812 M 17.266464233398438,8.375961303710938 L 17.266464233398438,8.375961303710938 L 17.760055541992188,8.443466186523438 L 18.260055541992188,8.4366455078125 L 18.733535766601562,8.252532958984375 L 19.084579467773438,7.892730712890625 L 18.973373413085938,7.3971710205078125 L 18.473388671875,7.4918212890625 L 17.973403930664062,7.7094573974609375 L 17.478179931640625,7.9191131591796875 L 16.978195190429688,7.7877044677734375 L 17.060943603515625,7.6371307373046875 L 17.334854125976562,7.2805328369140625 L 17.834854125976562,7.236968994140625 L 18.229522705078125,7.609527587890625 L 18.691253662109375,7.8351593017578125 L 18.824310302734375,7.74847412109375 L 18.883575439453125,7.593109130859375 L 18.964645385742188,7.099151611328125 L 18.662277221679688,7.3311614990234375 L 18.349838256835938,7.7787933349609375 L 17.903244018554688,8.034774780273438 L 17.470062255859375,7.72607421875 L 17.48907470703125,7.4573211669921875 L 17.438232421875,7.6765594482421875 L 17.315292358398438,8.159332275390625 L 17.500320434570312,8.101409912109375 L 17.973800659179688,7.9572296142578125 L 18.034744262695312,7.8066558837890625 L 18.152694702148438,7.906097412109375 L 18.485305786132812,8.0550537109375 L 18.092361450195312,7.698455810546875 M 20.4351806640625,6.415374755859375 L 20.4351806640625,6.415374755859375 L 20.497802734375,6.9153594970703125 L 20.562088012695312,7.41534423828125 L 20.6280517578125,7.9153289794921875 L 20.667190551757812,8.415313720703125 L 20.729812622070312,8.915298461914062 L 20.792434692382812,9.415283203125 L 20.853378295898438,9.915267944335938 M 20.964691162109375,10.751495361328125 L 20.964691162109375,10.751495361328125 L 20.7880859375,11.248641967773438 L 20.562850952148438,11.717041015625 L 20.226943969726562,12.118362426757812 L 19.921218872070312,12.518081665039062 L 19.680877685546875,12.965713500976562 L 19.499252319335938,13.426116943359375 L 19.317626953125,13.891326904296875 L 19.122573852539062,14.35333251953125 M 19.613555908203125,13.279006958007812 L 19.613555908203125,13.279006958007812 L 20.030014038085938,13.571701049804688 L 20.248580932617188,14.02252197265625 L 20.465484619140625,14.473342895507812 L 20.786361694335938,14.874664306640625 M 20.741653442382812,12.382476806640625 L 20.741653442382812,12.382476806640625 L 21.213455200195312,12.553787231445312 L 21.685256958007812,12.745880126953125 L 22.157058715820312,12.966720581054688 M 20.888381958007812,10.962326049804688 L 20.888381958007812,10.962326049804688 L 21.387008666992188,10.993087768554688 L 21.887008666992188,11.023849487304688 L 22.387008666992188,11.01702880859375 M 20.904266357421875,8.369796752929688 L 20.904266357421875,8.369796752929688 L 21.33245849609375,8.643341064453125 L 21.76568603515625,8.920074462890625 L 22.219039916992188,9.166473388671875 L 22.684127807617188,9.379318237304688 M 20.79107666015625,7.4975433349609375 L 20.79107666015625,7.4975433349609375 L 21.286346435546875,7.52032470703125 L 21.786346435546875,7.54150390625 L 22.286346435546875,7.56109619140625 L 22.786346435546875,7.51275634765625 M 20.529739379882812,6.43505859375 L 20.529739379882812,6.43505859375 L 20.808685302734375,6.2493438720703125 L 21.186569213867188,5.8895416259765625 L 21.661727905273438,5.762939453125 L 22.133529663085938,5.5932159423828125" fill="none" stroke="#000000" stroke-width="0.009407943725585937"/>
</svg>
