<?xml version="1.0" ?>
<svg baseProfile="full" height="600px" version="1.1" viewBox="13.329674789428712 3.7752894134521484 9.263196807861329 15.174976593017579" width="367px" xmlns="http://www.w3.org/2000/svg" xmlns:ev="http://www.w3.org/2001/xml-events" xmlns:xlink="http://www.w3.org/1999/xlink">
	<defs/>
	<path d="M 20.448898315429688,9.76409912109375 L 20.448898315429688,9.76409912109375 L 20.888839721679688,9.543243408203125 L 21.2281494140625,9.133926391601562 L 21.508773803710938,8.67669677734375 L 21.697158813476562,8.19390869140625 L 21.808395385742188,7.7015380859375 L 21.815673828125,7.204376220703125 L 21.565277099609375,6.7391510009765625 L 21.18072509765625,6.3617706298828125 L 20.792816162109375,5.9875946044921875 L 20.406585693359375,5.615020751953125 L 19.939865112304688,5.3622283935546875 L 19.451339721679688,5.1717376708984375 L 18.95135498046875,5.045135498046875 L 18.451370239257812,5.045135498046875 L 17.951385498046875,5.064727783203125 L 17.451400756835938,5.114654541015625 L 16.951416015625,5.2428436279296875 L 16.451431274414062,5.4173583984375 L 15.977996826171875,5.6621551513671875 L 15.543136596679688,5.9676361083984375 L 15.161941528320312,6.338592529296875 L 14.846145629882812,6.7415008544921875 L 14.609161376953125,7.1875457763671875 L 14.447647094726562,7.670318603515625 L 14.396804809570312,8.170303344726562 L 14.44769287109375,8.6702880859375 L 14.585769653320312,9.170272827148438 L 14.816070556640625,9.635482788085938 L 15.051406860351562,10.083114624023438 L 15.2867431640625,10.530746459960938 L 15.527130126953125,10.976791381835938 L 15.789306640625,11.414840698242188 L 16.07830810546875,11.814559936523438 L 16.37066650390625,12.214279174804688 L 16.750228881835938,12.54052734375 L 17.148239135742188,12.860382080078125 L 17.603256225585938,13.070037841796875 L 18.0733642578125,13.175872802734375 L 18.54852294921875,13.060440063476562 L 19.022003173828125,12.871536254882812 L 19.4954833984375,12.668258666992188 L 19.933746337890625,12.389907836914062 L 20.286468505859375,12.023712158203125 L 20.511749267578125,11.568084716796875 L 20.621322631835938,11.082107543945312 L 20.725860595703125,10.594528198242188 L 20.830398559570312,10.106948852539062 L 20.80303955078125,9.614578247070312 L 20.770660400390625,9.122207641601562 M 18.35137939453125,10.883590698242188 L 18.35137939453125,10.883590698242188 L 18.8265380859375,10.756988525390625 L 18.944488525390625,10.2694091796875 L 18.98529052734375,9.77703857421875 L 18.748306274414062,9.324600219726562 L 18.404006958007812,8.945632934570312 L 17.920516967773438,8.7535400390625 L 17.4205322265625,8.816253662109375 L 16.921951293945312,9.041885375976562 L 16.544113159179688,9.417648315429688 L 16.370864868164062,9.889236450195312 L 16.30828857421875,10.3800048828125 L 16.513458251953125,10.861175537109375 L 16.867874145507812,11.19061279296875 L 17.309494018554688,11.408248901367188 L 17.782974243164062,11.38226318359375 L 18.243026733398438,11.169418334960938 L 18.5789794921875,10.798446655273438 L 18.73382568359375,10.320465087890625 M 20.185150146484375,12.217269897460938 L 20.185150146484375,12.217269897460938 L 20.472488403320312,12.661712646484375 L 20.764846801757812,13.107757568359375 L 21.10247802734375,13.510665893554688 L 21.4300537109375,13.919967651367188 L 21.536270141601562,14.412322998046875 L 21.433456420898438,14.912307739257812 L 21.253494262695312,15.411056518554688 L 21.068511962890625,15.906600952148438 L 20.767822265625,16.351043701171875 L 20.329605102539062,16.672500610351562 L 19.886367797851562,16.990753173828125 L 19.45318603515625,17.307418823242188 L 18.986465454101562,17.576171875 L 18.486480712890625,17.680419921875 L 17.986495971679688,17.63525390625 L 17.48651123046875,17.553375244140625 L 16.986526489257812,17.497039794921875 L 16.486541748046875,17.450302124023438 L 15.986557006835938,17.330078125 L 15.51983642578125,17.059722900390625 L 15.079940795898438,16.76220703125 L 14.686996459960938,16.396011352539062 L 14.352752685546875,15.981903076171875 L 14.129196166992188,15.500717163085938 L 14.10687255859375,15.000717163085938 L 14.147674560546875,14.500717163085938 L 14.1884765625,14.000717163085938 L 14.289657592773438,13.505157470703125 L 14.436111450195312,13.02557373046875 L 14.698287963867188,12.592315673828125 L 14.973892211914062,12.175018310546875 L 15.301467895507812,11.796051025390625 L 15.637420654296875,11.425079345703125 M 17.875701904296875,10.194961547851562 L 17.875701904296875,10.194961547851562 L 18.002044677734375,10.589889526367188 L 17.577239990234375,10.919326782226562 L 17.107162475585938,10.625015258789062 L 17.137908935546875,10.125015258789062 L 17.396728515625,9.672576904296875 L 17.896728515625,9.698562622070312 L 18.091812133789062,10.195709228515625 M 18.133377075195312,14.921615600585938 L 18.133377075195312,14.921615600585938 L 18.362014770507812,15.3900146484375 L 18.479965209960938,15.8759765625 L 18.424102783203125,16.368331909179688 L 18.03955078125,16.76007080078125 L 17.609710693359375,17.07354736328125 L 17.109725952148438,17.193756103515625 L 16.6097412109375,17.020828247070312 L 16.109756469726562,16.851104736328125 L 15.61285400390625,16.646240234375 L 15.379226684570312,16.169845581054688 L 15.314987182617188,15.669845581054688 L 15.369216918945312,15.169845581054688 L 15.646484375,14.770111083984375 L 16.026046752929688,14.461410522460938 L 16.526046752929688,14.40826416015625 L 17.026046752929688,14.37109375 L 17.526046752929688,14.3626708984375 L 18.026046752929688,14.541976928710938 L 18.392196655273438,14.9161376953125 M 17.29107666015625,15.9072265625 L 17.29107666015625,15.9072265625 L 17.623687744140625,15.52825927734375 L 17.188827514648438,15.221160888671875 L 16.6888427734375,15.1600341796875 L 16.324417114257812,15.551773071289062 L 16.380325317382812,16.047317504882812 L 16.716278076171875,16.448638916015625 L 17.114288330078125,16.154327392578125" fill="none" stroke="#000000" stroke-width="0.012635284423828125"/>
</svg>
