<?xml version="1.0" ?>
<svg baseProfile="full" height="600px" version="1.1" viewBox="16.605669624328613 5.5550409622192385 2.392801986694336 10.509318099975586" width="137px" xmlns="http://www.w3.org/2000/svg" xmlns:ev="http://www.w3.org/2001/xml-events" xmlns:xlink="http://www.w3.org/1999/xlink">
	<defs/>
	<path d="M 18.285598754882812,11.996246337890625 L 18.285598754882812,11.996246337890625 L 18.608154296875,12.440689086914062 L 18.7596435546875,12.940673828125 L 18.795425415039062,13.440658569335938 L 18.652359008789062,13.940643310546875 L 18.428802490234375,14.426605224609375 L 18.047607421875,14.794387817382812 L 17.607711791992188,15.058349609375 L 17.114166259765625,15.1849365234375 M 17.600616455078125,12.238357543945312 L 17.600616455078125,12.238357543945312 L 17.318359375,12.693984985351562 L 17.062942504882812,13.168777465820312 L 17.008758544921875,13.66876220703125 L 17.06298828125,14.168746948242188 L 17.1507568359375,14.668731689453125 L 17.426361083984375,15.14031982421875 M 17.652969360351562,13.218978881835938 L 17.652969360351562,13.218978881835938 L 17.337173461914062,13.617095947265625 L 17.611083984375,14.0599365234375 L 17.884994506835938,14.502777099609375 L 18.222625732421875,14.101455688476562 L 18.37579345703125,13.62506103515625 L 18.356826782226562,13.134292602539062 L 17.856842041015625,13.100311279296875 L 17.742279052734375,13.600296020507812 M 17.802352905273438,9.691024780273438 L 17.802352905273438,9.691024780273438 L 17.955520629882812,9.195465087890625 L 18.217697143554688,8.743026733398438 L 18.550308227539062,8.360870361328125 L 18.316680908203125,7.876495361328125 L 17.92877197265625,7.5135040283203125 L 17.4754638671875,7.2447509765625 L 17.074142456054688,6.9344635009765625 L 17.125030517578125,6.4344635009765625 M 16.958480834960938,7.09814453125 L 16.958480834960938,7.09814453125 L 16.8087158203125,7.5981292724609375 L 17.067535400390625,8.087295532226562 L 17.363250732421875,8.538116455078125 L 17.62542724609375,9.022476196289062 L 17.62542724609375,9.5224609375 M 17.486312866210938,8.231674194335938 L 17.486312866210938,8.231674194335938 L 17.57073974609375,7.7316741943359375 L 18.07073974609375,7.7943878173828125 L 18.406692504882812,8.234039306640625 L 18.119400024414062,8.683258056640625 L 17.619415283203125,8.4991455078125 L 17.427703857421875,8.022750854492188 L 17.694900512695312,7.5671234130859375" fill="none" stroke="#000000" stroke-width="0.008750473022460938"/>
</svg>
