<?xml version="1.0" ?>
<svg baseProfile="full" height="600px" version="1.1" viewBox="17.422492698669434 4.413425926208496 6.1734929962158205 13.63507746887207" width="272px" xmlns="http://www.w3.org/2000/svg" xmlns:ev="http://www.w3.org/2001/xml-events" xmlns:xlink="http://www.w3.org/1999/xlink">
	<defs/>
	<path d="M 19.64208984375,12.240570068359375 L 19.64208984375,12.240570068359375 L 19.7684326171875,12.3895263671875 L 19.93670654296875,12.546478271484375 L 20.133468627929688,12.679473876953125 L 20.331924438476562,12.812469482421875 L 20.530380249023438,12.945465087890625 L 20.727142333984375,13.124771118164062 L 20.917205810546875,13.391921997070312 L 21.060317993164062,13.743728637695312 L 21.12628173828125,14.141845703125 L 21.073776245117188,14.61663818359375 L 20.893814086914062,15.108993530273438 L 20.63336181640625,15.591766357421875 L 20.361160278320312,16.069747924804688 L 20.023574829101562,16.512588500976562 L 19.632308959960938,16.907516479492188 L 19.583145141601562,16.763336181640625 L 19.498764038085938,16.580825805664062 L 19.35235595703125,16.375961303710938 L 19.189163208007812,16.167892456054688 L 19.025970458984375,15.959823608398438 L 18.861099243164062,15.695846557617188 L 18.6995849609375,15.4127197265625 L 18.554840087890625,15.094451904296875 L 18.44195556640625,14.745834350585938 L 18.39111328125,14.344512939453125 L 18.430252075195312,13.9320068359375 L 18.625335693359375,13.521087646484375 L 18.892532348632812,13.16448974609375 L 19.203338623046875,12.865371704101562 L 19.255889892578125,12.716400146484375 L 19.308441162109375,12.5418701171875 L 19.359329223632812,12.372146606445312 L 19.369964599609375,12.200820922851562 L 19.28558349609375,12.02789306640625 L 19.430374145507812,11.98272705078125 L 19.618759155273438,11.9439697265625 L 19.5830078125,12.094528198242188 L 19.51708984375,12.323348999023438 M 19.54412841796875,10.013107299804688 L 19.54412841796875,10.013107299804688 L 19.636932373046875,9.886505126953125 L 19.753204345703125,9.761505126953125 L 19.874526977539062,9.636505126953125 L 19.990798950195312,9.511505126953125 L 20.107070922851562,9.381698608398438 L 20.223342895507812,9.25189208984375 L 20.33123779296875,9.078964233398438 L 20.439132690429688,8.9012451171875 L 20.54534912109375,8.718734741210938 L 20.602935791015625,8.494705200195312 L 20.642074584960938,8.229141235351562 L 20.6197509765625,7.9332275390625 L 20.545425415039062,7.6309356689453125 L 20.425827026367188,7.328643798828125 L 20.296173095703125,7.0263519287109375 L 20.139678955078125,6.72406005859375 L 19.971450805664062,6.420166015625 L 19.719375610351562,6.149810791015625 L 19.393524169921875,5.9497222900390625 L 19.067672729492188,5.7448577880859375 L 19.003433227539062,5.5974884033203125 L 19.035858154296875,5.7464447021484375 L 19.069961547851562,5.9065704345703125 L 19.10406494140625,6.071502685546875 L 19.033111572265625,6.2779541015625 L 18.947052001953125,6.50836181640625 L 18.860992431640625,6.73876953125 L 18.689422607421875,6.9500274658203125 L 18.51617431640625,7.161285400390625 L 18.351303100585938,7.391693115234375 L 18.221649169921875,7.678009033203125 L 18.091995239257812,7.99786376953125 L 17.975753784179688,8.322525024414062 L 17.941680908203125,8.653564453125 L 17.992568969726562,8.984603881835938 L 18.184310913085938,9.31085205078125 L 18.500152587890625,9.47418212890625 L 18.822708129882812,9.623138427734375 L 18.957427978515625,9.736968994140625 L 19.160919189453125,9.901901245117188 L 19.282241821289062,9.996551513671875 L 19.21966552734375,10.137527465820312 L 19.1436767578125,10.353561401367188 L 19.174423217773438,10.569595336914062 L 19.27392578125,10.447769165039062 L 19.378463745117188,10.3211669921875 L 19.366195678710938,10.167404174804688 L 19.395263671875,9.948150634765625 L 19.400863647460938,9.720916748046875 M 18.166885375976562,8.226531982421875 L 18.166885375976562,8.226531982421875 L 18.360305786132812,8.295639038085938 L 18.568817138671875,8.366348266601562 L 18.775650024414062,8.427459716796875 L 18.98248291015625,8.453445434570312 L 19.189315795898438,8.477828979492188 L 19.399505615234375,8.4814453125 L 19.62310791015625,8.485061645507812 L 19.856765747070312,8.423934936523438 L 20.090423583984375,8.305313110351562 L 20.324081420898438,8.177108764648438 L 20.43365478515625,8.045700073242188 M 20.317413330078125,7.9462432861328125 L 20.317413330078125,7.9462432861328125 L 20.177703857421875,7.81964111328125 L 20.011154174804688,7.6834564208984375 L 19.834548950195312,7.563232421875 L 19.654586791992188,7.471771240234375 L 19.4696044921875,7.4090423583984375 L 19.167236328125,7.50848388671875 L 18.869888305664062,7.6207122802734375 L 18.569198608398438,7.6834259033203125 L 18.268508911132812,7.7461395263671875 L 17.974517822265625,7.89190673828125 L 18.008621215820312,8.16864013671875 M 18.099746704101562,8.034042358398438 L 18.099746704101562,8.034042358398438 L 18.244537353515625,7.851531982421875 L 18.451370239257812,7.7249298095703125 L 18.517333984375,7.8738861083984375 L 18.574920654296875,8.137847900390625 L 18.65093994140625,7.996856689453125 L 18.748779296875,7.812744140625 L 18.721420288085938,7.9744720458984375 L 18.66387939453125,8.212875366210938 L 18.72314453125,8.070297241210938 L 18.817626953125,7.870208740234375 L 18.846694946289062,8.022354125976562 L 18.875762939453125,8.206451416015625 L 18.935028076171875,8.35382080078125 L 19.014404296875,8.225616455078125 L 19.13067626953125,7.96484375 L 19.130142211914062,8.131378173828125 L 19.069244384765625,8.4033203125 L 19.14862060546875,8.273513793945312 L 19.258193969726562,8.051071166992188 L 19.369430541992188,7.95001220703125 L 19.360519409179688,8.108566284179688 L 19.3929443359375,8.27349853515625 L 19.572952270507812,8.347381591796875 L 19.764694213867188,8.062652587890625 L 19.7652587890625,8.213211059570312 L 19.7652587890625,8.408477783203125 L 19.901657104492188,8.324996948242188 L 20.04644775390625,8.048248291015625 L 20.177825927734375,7.74755859375 L 20.011276245117188,7.7359466552734375 L 19.7742919921875,7.7211456298828125 L 19.515518188476562,7.6360626220703125 L 19.343948364257812,7.6700286865234375 L 19.01641845703125,7.7199554443359375 L 19.159530639648438,7.776275634765625 L 19.42840576171875,7.7990570068359375 L 19.806289672851562,7.787445068359375 L 19.646453857421875,7.7774200439453125 L 19.412826538085938,7.76739501953125 L 19.110458374023438,7.72222900390625 L 18.81646728515625,7.84564208984375 L 18.7086181640625,7.9977874755859375 L 19.006011962890625,8.183486938476562 L 19.506011962890625,8.20947265625 L 19.506011962890625,7.70947265625 L 19.181838989257812,7.6898651123046875 L 19.011947631835938,8.107147216796875 L 19.35797119140625,7.9246368408203125 L 19.325592041015625,7.4246368408203125 L 19.564300537109375,7.74609375 L 19.970703125,8.065948486328125 L 20.1221923828125,8.057525634765625 L 20.339096069335938,8.057525634765625 L 20.601272583007812,8.156967163085938 L 20.350875854492188,8.182952880859375 L 20.02166748046875,8.038772583007812 L 19.855117797851562,8.004791259765625 L 19.626510620117188,7.9740142822265625 L 19.3509521484375,7.7931060791015625 L 19.169326782226562,7.7931060791015625 L 18.739486694335938,7.795135498046875 L 18.658462524414062,7.66693115234375 L 18.486892700195312,7.482818603515625 L 18.372329711914062,7.3562164306640625 L 18.34832763671875,7.530731201171875 L 18.183456420898438,7.9256591796875 L 18.183456420898438,8.077804565429688 L 18.183456420898438,8.324203491210938 L 18.291351318359375,8.208770751953125 L 18.5115966796875,8.018280029296875 L 18.844207763671875,7.83416748046875 L 18.844207763671875,8.013473510742188 L 19.114761352539062,8.079376220703125 M 18.49932861328125,14.46173095703125 L 18.49932861328125,14.46173095703125 L 18.649139404296875,14.522842407226562 L 18.83416748046875,14.574371337890625 L 19.052734375,14.6578369140625 L 19.27130126953125,14.741302490234375 L 19.498260498046875,14.80560302734375 L 19.741989135742188,14.8251953125 L 20.0108642578125,14.780029296875 L 20.286468505859375,14.709320068359375 L 20.563735961914062,14.63861083984375 L 20.84100341796875,14.567901611328125 L 21.116607666015625,14.48760986328125 M 21.005401611328125,14.373779296875 L 21.005401611328125,14.373779296875 L 20.884124755859375,14.2327880859375 L 20.732666015625,14.093399047851562 L 20.55438232421875,14.005111694335938 L 20.3760986328125,13.916824340820312 L 20.137435913085938,13.90521240234375 L 19.880340576171875,13.983901977539062 L 19.613174438476562,14.064193725585938 L 19.32421875,14.090179443359375 L 19.033584594726562,14.080154418945312 L 18.742950439453125,14.07012939453125 L 18.450637817382812,14.094512939453125 L 18.233779907226562,14.288192749023438 M 18.383590698242188,14.266998291015625 L 18.383590698242188,14.266998291015625 L 18.533401489257812,14.177108764648438 L 18.533401489257812,14.353225708007812 L 18.497650146484375,14.743362426757812 L 18.553558349609375,14.600784301757812 L 18.609466552734375,14.458206176757812 L 18.693893432617188,14.207015991210938 L 18.783340454101562,14.330429077148438 L 18.886199951171875,14.452239990234375 L 18.990737915039062,14.7337646484375 L 19.179122924804688,14.586395263671875 L 19.312179565429688,14.218612670898438 L 19.294891357421875,14.378738403320312 L 19.277603149414062,14.69061279296875 L 19.323455810546875,14.546432495117188 L 19.369308471679688,14.276077270507812 L 19.452056884765625,14.063232421875 L 19.489517211914062,14.212188720703125 L 19.5269775390625,14.405868530273438 L 19.794174194335938,14.556427001953125 L 19.888656616210938,14.284469604492188 L 19.836151123046875,14.452606201171875 L 19.781967163085938,14.746902465820312 L 19.836196899414062,14.60272216796875 L 19.8870849609375,14.297225952148438 L 19.8870849609375,13.9853515625 L 19.993301391601562,14.1087646484375 L 20.133056640625,14.2896728515625 L 20.138656616210938,14.116744995117188 L 20.142593383789062,13.857574462890625 L 20.093429565429688,14.020904541015625 L 19.983901977539062,14.323196411132812 L 20.023040771484375,14.470565795898438 L 20.060501098632812,14.707382202148438 L 20.1650390625,14.59674072265625 L 20.269577026367188,14.30242919921875 L 20.327163696289062,14.155059814453125 L 20.384750366210938,13.889495849609375 L 20.364105224609375,14.04644775390625 L 20.343460083007812,14.27685546875 L 20.343460083007812,14.539215087890625 L 20.493270874023438,14.5635986328125 L 20.681655883789062,14.542404174804688 L 20.876739501953125,14.462112426757812 L 20.750442504882812,14.377029418945312 L 20.597305297851562,14.291946411132812 L 20.425735473632812,14.291946411132812 L 20.580581665039062,14.291946411132812 L 20.733749389648438,14.3275146484375 L 20.589004516601562,14.388626098632812 L 20.350341796875,14.452926635742188 L 19.989273071289062,14.474105834960938 L 19.6231689453125,14.299575805664062 L 19.146377563476562,14.16339111328125 L 18.708160400390625,14.337905883789062 L 18.576828002929688,14.541183471679688 L 18.844024658203125,14.655014038085938 L 19.327560424804688,14.767242431640625 L 19.785934448242188,14.557571411132812 L 20.079971313476562,14.28082275390625 L 19.935226440429688,14.197341918945312 L 19.684829711914062,14.134613037109375 L 19.342208862304688,14.087875366210938 L 19.145477294921875,14.418914794921875 L 19.064453125,14.292312622070312 L 18.912994384765625,14.097030639648438 L 18.60894775390625,13.90972900390625 L 18.425643920898438,14.180068969726562 L 18.520126342773438,14.410476684570312 L 18.683364868164062,14.381301879882812 L 19.02099609375,14.380859375 L 19.301620483398438,14.443572998046875 L 19.301620483398438,14.608505249023438 L 19.323989868164062,14.822952270507812 L 19.517410278320312,14.693145751953125 L 19.806411743164062,14.548965454101562 L 19.951202392578125,14.503799438476562 L 20.2838134765625,14.495376586914062 L 20.462142944335938,14.415084838867188 L 20.876922607421875,14.406661987304688 L 20.826080322265625,14.22735595703125 L 20.738357543945312,14.003326416015625 L 20.556732177734375,14.003753662109375 L 20.494155883789062,14.176666259765625 L 20.372879028320312,14.45819091796875 L 20.401947021484375,14.310821533203125 L 20.431015014648438,14.126708984375 L 20.319808959960938,14.251724243164062 L 20.106307983398438,14.432632446289062 L 20.2510986328125,14.39227294921875 L 20.47637939453125,14.342330932617188 L 20.773773193359375,14.319534301757812 L 20.63238525390625,14.237655639648438 L 20.444046020507812,14.152572631835938 L 20.1903076171875,14.040328979492188 L 19.949966430664062,14.189285278320312 L 19.69622802734375,14.317474365234375 L 19.449188232421875,14.491989135742188 L 19.614105224609375,14.516372680664062 L 19.96514892578125,14.539154052734375 L 20.4017333984375,14.65936279296875 L 20.216751098632812,14.607818603515625 L 19.85400390625,14.51953125 L 19.440948486328125,14.337020874023438 L 18.987640380859375,14.212020874023438 L 18.537689208984375,14.117355346679688 M 21.0142822265625,10.13287353515625 L 21.0142822265625,10.13287353515625 L 21.343536376953125,10.082931518554688 L 21.190399169921875,10.032989501953125 L 21.027206420898438,9.90478515625 L 20.850601196289062,9.653594970703125 L 21.002090454101562,9.597259521484375 L 21.361541748046875,9.537734985351562 L 21.339218139648438,9.375991821289062 L 21.271621704101562,9.159942626953125 L 21.204025268554688,8.94549560546875 L 21.449432373046875,8.862014770507812 L 21.92291259765625,8.884796142578125 L 21.761398315429688,8.884796142578125 L 21.57977294921875,8.884353637695312 L 21.3377685546875,8.804061889648438 L 21.480880737304688,8.754119873046875 L 21.716217041015625,8.704177856445312 L 22.052169799804688,8.526458740234375 L 21.914138793945312,8.463729858398438 L 21.762680053710938,8.402603149414062 L 21.582717895507812,8.344680786132812 L 21.727508544921875,8.262802124023438 L 22.065139770507812,8.164932250976562 L 22.139495849609375,7.929718017578125 L 21.988037109375,7.884552001953125 L 21.751052856445312,7.8441925048828125 L 21.49395751953125,7.8421478271484375 L 21.58843994140625,7.7139434814453125 L 21.696334838867188,7.470733642578125 L 21.84112548828125,7.18121337890625 L 21.677932739257812,7.15362548828125 L 21.461074829101562,7.082916259765625 L 21.609207153320312,7.0329742431640625 L 21.807662963867188,6.9846343994140625 L 22.01953125,6.8931732177734375 L 21.881500244140625,6.8096923828125 L 21.639495849609375,6.724609375 L 21.363937377929688,6.6395263671875 L 21.424880981445312,6.4761810302734375 L 21.551223754882812,6.274505615234375 L 21.932464599609375,6.1207427978515625 L 21.735733032226562,6.1419219970703125 L 21.60943603515625,6.0536346435546875 L 21.379165649414062,5.9653472900390625 L 21.564193725585938,6.00408935546875 L 21.932022094726562,6.041259765625 L 21.619583129882812,6.1199493408203125 L 21.29541015625,6.0827789306640625 L 21.368087768554688,5.94976806640625 L 21.43572998046875,5.7672576904296875 L 21.381546020507812,5.554412841796875 L 21.005386352539062,5.57879638671875 L 20.590652465820312,5.643096923828125 M 21.314804077148438,12.011459350585938 L 21.314804077148438,12.011459350585938 L 21.691009521484375,12.037445068359375 L 21.993423461914062,12.135299682617188 L 21.836929321289062,12.193222045898438 L 21.623428344726562,12.29266357421875 L 21.72796630859375,12.417678833007812 L 21.95660400390625,12.705596923828125 L 21.811859130859375,12.655654907226562 L 21.643630981445312,12.605712890625 L 21.791763305664062,12.631698608398438 L 22.022064208984375,12.6640625 L 22.4083251953125,12.69482421875 L 22.2518310546875,12.720809936523438 L 22.08026123046875,12.746795654296875 L 22.14288330078125,12.895751953125 L 22.32958984375,13.174087524414062 L 22.474380493164062,13.23040771484375 L 22.3262939453125,13.183670043945312 L 22.15472412109375,13.135330200195312 L 22.304534912109375,13.183670043945312 L 22.620376586914062,13.284713745117188 L 22.4974365234375,13.374588012695312 L 22.314132690429688,13.542724609375 L 22.465621948242188,13.565505981445312 L 22.655685424804688,13.588287353515625 L 22.845748901367188,13.611068725585938 L 22.680877685546875,13.637054443359375 L 22.43048095703125,13.885040283203125 L 22.479690551757812,14.03399658203125 L 22.585906982421875,14.21649169921875 L 22.827957153320312,14.344680786132812 L 22.6630859375,14.35308837890625 L 22.468032836914062,14.356704711914062 L 22.60443115234375,14.45135498046875 L 22.851516723632812,14.550796508789062 L 23.076797485351562,14.680587768554688 L 22.930389404296875,14.738510131835938 L 22.7403564453125,14.839553833007812 L 22.5335693359375,14.988510131835938 L 22.664947509765625,15.078384399414062 L 22.83489990234375,15.179428100585938 L 23.040069580078125,15.314010620117188 L 22.890304565429688,15.352752685546875 L 22.644943237304688,15.479339599609375 L 22.345916748046875,15.430999755859375 L 22.286697387695312,15.62786865234375 L 22.434829711914062,15.882247924804688 L 22.325302124023438,16.131820678710938 L 22.046401977539062,16.197723388671875 L 21.8077392578125,16.324310302734375 L 21.783737182617188,16.570709228515625 L 21.63397216796875,16.590301513671875 L 21.440582275390625,16.619461059570312 L 21.223724365234375,16.717315673828125" fill="none" stroke="#000000" stroke-width="0.011353103637695313"/>
</svg>
