<?xml version="1.0" ?>
<svg baseProfile="full" height="600px" version="1.1" viewBox="15.357671859741211 2.682026412963867 5.357608551025391 17.237875885009764" width="187px" xmlns="http://www.w3.org/2000/svg" xmlns:ev="http://www.w3.org/2001/xml-events" xmlns:xlink="http://www.w3.org/1999/xlink">
	<defs/>
	<path d="M 19.18011474609375,11.989120483398438 L 19.18011474609375,11.989120483398438 L 19.289688110351562,12.101348876953125 L 19.43280029296875,12.264678955078125 L 19.575912475585938,12.428009033203125 L 19.720703125,12.664825439453125 L 19.865493774414062,12.925582885742188 L 20.011947631835938,13.237457275390625 L 20.133270263671875,13.568496704101562 L 20.199234008789062,13.96661376953125 L 20.190322875976562,14.399871826171875 L 20.085830688476562,14.884231567382812 L 19.932693481445312,15.38421630859375 L 19.737640380859375,15.884201049804688 L 19.42352294921875,16.331832885742188 L 18.993682861328125,16.65966796875 L 18.537033081054688,16.947586059570312 L 18.08038330078125,17.233901977539062 L 17.623733520507812,17.520217895507812 L 17.341476440429688,17.977447509765625 L 17.4443359375,18.477432250976562 M 17.353256225585938,18.306106567382812 L 17.353256225585938,18.306106567382812 L 17.156524658203125,18.054916381835938 L 16.728363037109375,17.846847534179688 L 16.3790283203125,17.435928344726562 L 16.190689086914062,16.941970825195312 L 16.037551879882812,16.441970825195312 L 15.901199340820312,15.941970825195312 L 15.81011962890625,15.441970825195312 L 15.86602783203125,14.941970825195312 L 16.18017578125,14.500717163085938 L 16.648605346679688,14.281463623046875 L 17.117034912109375,14.05902099609375 L 17.265167236328125,13.569854736328125 L 17.369705200195312,13.077484130859375 L 17.460830688476562,12.586715698242188 L 17.677734375,12.116714477539062 L 18.112640380859375,11.846359252929688 L 18.612640380859375,11.798019409179688 L 18.936859130859375,11.417465209960938 M 18.632843017578125,10.306472778320312 L 18.632843017578125,10.306472778320312 L 18.632843017578125,9.806472778320312 L 19.132843017578125,9.83404541015625 L 19.632843017578125,9.88238525390625 L 19.78265380859375,9.402801513671875 L 19.9307861328125,8.924819946289062 L 20.07891845703125,8.44683837890625 L 20.22705078125,7.9688568115234375 L 20.262832641601562,7.47808837890625 L 20.12982177734375,6.990509033203125 L 19.805648803710938,6.611541748046875 L 19.4764404296875,6.232574462890625 L 19.147232055664062,5.853607177734375 L 18.722427368164062,5.5608978271484375 L 18.222442626953125,5.5125579833984375 L 17.722457885742188,5.4642181396484375 L 17.410018920898438,5.082061767578125 L 17.318939208984375,4.6040802001953125 L 17.195999145507812,4.1244964599609375 L 16.751083374023438,4.436370849609375 L 16.666702270507812,4.9363555908203125 L 16.694107055664062,5.43634033203125 L 16.7449951171875,5.9363250732421875 L 16.71429443359375,6.436309814453125 L 16.549423217773438,6.9362945556640625 L 16.371139526367188,7.42864990234375 L 16.192855834960938,7.9210052490234375 L 16.016250610351562,8.413360595703125 L 16.315322875976562,8.862579345703125 L 16.756942749023438,9.190414428710938 L 17.198562622070312,9.51824951171875 L 17.640182495117188,9.844497680664062 L 18.081802368164062,10.12921142578125 L 18.513351440429688,10.473037719726562 L 18.5128173828125,10.971786499023438 L 18.480438232421875,11.471771240234375 M 17.873672485351562,7.7445068359375 L 17.873672485351562,7.7445068359375 L 17.378448486328125,7.9254150390625 L 17.091156005859375,7.46978759765625 L 17.18731689453125,6.96978759765625 L 17.603775024414062,6.69464111328125 L 18.103775024414062,6.719024658203125 L 18.567184448242188,7.00213623046875 L 18.866256713867188,7.4465789794921875 L 18.80535888671875,7.946563720703125 L 18.645523071289062,8.446548461914062 L 18.427001953125,8.927719116210938 L 17.927017211914062,9.022369384765625 L 17.537429809570312,8.659378051757812 L 17.53521728515625,8.175003051757812 L 17.539154052734375,7.693817138671875 M 18.333724975585938,14.640777587890625 L 18.333724975585938,14.640777587890625 L 18.476837158203125,15.140762329101562 L 18.384078979492188,15.6407470703125 L 17.991134643554688,15.990951538085938 L 17.499267578125,15.7940673828125 L 17.206954956054688,15.411911010742188 L 16.995132446289062,14.97705078125 L 16.979522705078125,14.49267578125 L 17.263504028320312,14.043441772460938 L 17.753738403320312,13.956756591796875 L 18.240631103515625,13.902008056640625 L 18.687271118164062,13.924789428710938" fill="none" stroke="#000000" stroke-width="0.014352935791015625"/>
</svg>
