<?xml version="1.0" ?>
<svg baseProfile="full" height="600px" version="1.1" viewBox="17.89711515045166 3.58450528717041 3.7667895965576172 13.764934127807617" width="165px" xmlns="http://www.w3.org/2000/svg" xmlns:ev="http://www.w3.org/2001/xml-events" xmlns:xlink="http://www.w3.org/1999/xlink">
	<defs/>
	<path d="M 20.4468994140625,8.863021850585938 L 20.4468994140625,8.863021850585938 L 20.641983032226562,8.547943115234375 L 20.972915649414062,8.140228271484375 L 21.230056762695312,7.6542510986328125 L 21.341293334960938,7.1650848388671875 L 21.345230102539062,6.6679229736328125 L 21.309478759765625,6.17236328125 L 21.08087158203125,5.7295074462890625 L 20.734878540039062,5.3649139404296875 L 20.37213134765625,5.0083160400390625 L 19.945648193359375,4.736358642578125 L 19.445663452148438,4.736358642578125 L 18.9456787109375,4.965179443359375 L 18.5594482421875,5.360107421875 L 18.377822875976562,5.8600921630859375 L 18.377822875976562,6.360076904296875 L 18.440444946289062,6.8600616455078125 L 18.623794555664062,7.3460235595703125 L 18.813858032226562,7.83038330078125 L 19.074356079101562,8.27960205078125 L 19.373428344726562,8.70806884765625 L 19.72113037109375,9.093414306640625 L 20.159393310546875,9.37335205078125 L 20.659393310546875,9.399337768554688 M 20.514892578125,6.7232666015625 L 20.514892578125,6.7232666015625 L 20.609375,6.2232666015625 L 20.2164306640625,5.9129791259765625 L 19.716445922851562,5.8342742919921875 L 19.232955932617188,6.0806732177734375 L 19.163681030273438,6.580657958984375 L 19.274917602539062,7.0806427001953125 L 19.652801513671875,7.4228668212890625 L 20.124603271484375,7.6229400634765625 L 20.59808349609375,7.406890869140625 L 20.59808349609375,6.9209136962890625 L 20.431533813476562,6.4381256103515625 M 19.903106689453125,6.769989013671875 L 19.903106689453125,6.769989013671875 L 19.927154541015625,6.60504150390625 L 19.894775390625,6.7779541015625 L 20.000991821289062,7.1057891845703125 L 19.960220336914062,6.6057891845703125 L 19.778594970703125,6.847381591796875 L 19.595291137695312,6.466827392578125 L 19.621017456054688,6.7020416259765625 L 19.179443359375,6.989959716796875 L 19.476837158203125,7.0255279541015625 L 19.976837158203125,7.057891845703125 M 20.299636840820312,11.743423461914062 L 20.299636840820312,11.743423461914062 L 20.451126098632812,12.135162353515625 L 20.639511108398438,12.630706787109375 L 20.775909423828125,13.130691528320312 L 20.835174560546875,13.63067626953125 L 20.832962036132812,14.130661010742188 L 20.755294799804688,14.630645751953125 L 20.555206298828125,15.121414184570312 L 20.345062255859375,15.610580444335938 L 19.96051025390625,15.973556518554688 L 19.490432739257812,16.197586059570312 L 18.990447998046875,16.152420043945312 L 18.513656616210938,15.901229858398438 L 18.221343994140625,15.520675659179688 L 18.215789794921875,15.028305053710938 L 18.218048095703125,14.535934448242188 L 18.22198486328125,14.03717041015625 L 18.225921630859375,13.538406372070312 L 18.243255615234375,13.041244506835938 L 18.483642578125,12.564849853515625 L 18.885009765625,12.222610473632812 L 19.376922607421875,12.032119750976562 L 19.876922607421875,11.85919189453125 L 20.343673706054688,11.649520874023438 M 20.046463012695312,14.168426513671875 L 20.046463012695312,14.168426513671875 L 20.12921142578125,13.751129150390625 L 20.05322265625,13.251129150390625 L 19.620040893554688,13.009521484375 L 19.12005615234375,13.150497436523438 L 18.678482055664062,13.47515869140625 L 18.506912231445312,13.975143432617188 L 18.7137451171875,14.461105346679688 L 19.148651123046875,14.717086791992188 L 19.648651123046875,14.827713012695312 L 20.132186889648438,14.643600463867188 L 20.019302368164062,14.143600463867188 M 19.40704345703125,14.010665893554688 L 19.40704345703125,14.010665893554688 L 19.742996215820312,14.287399291992188 L 19.356765747070312,13.930801391601562 L 18.856781005859375,13.892044067382812 L 18.909332275390625,13.392044067382812 L 19.396224975585938,13.507476806640625 L 19.693618774414062,13.953521728515625 L 19.684707641601562,14.453506469726562 L 19.648956298828125,13.954742431640625 L 20.01007080078125,13.785018920898438 L 19.536636352539062,14.015426635742188 L 19.036651611328125,14.039810180664062" fill="none" stroke="#000000" stroke-width="0.011461227416992188"/>
</svg>
