<?xml version="1.0" ?>
<svg baseProfile="full" height="600px" version="1.1" viewBox="18.52046071624756 4.640132347106934 6.0722530059814455 11.984582107543945" width="305px" xmlns="http://www.w3.org/2000/svg" xmlns:ev="http://www.w3.org/2001/xml-events" xmlns:xlink="http://www.w3.org/1999/xlink">
	<defs/>
	<path d="M 23.986770629882812,6.7779541015625 L 23.986770629882812,6.7779541015625 L 23.961090087890625,6.4293365478515625 L 23.7811279296875,6.1014862060546875 L 23.381484985351562,5.861480712890625 L 22.881500244140625,5.736480712890625 L 22.381515502929688,5.6897430419921875 L 21.88153076171875,5.64300537109375 L 21.381546020507812,5.7935638427734375 L 20.91314697265625,6.0335540771484375 L 20.506790161132812,6.3805694580078125 L 20.2144775390625,6.8234100341796875 L 20.120040893554688,7.320556640625 L 20.042373657226562,7.8177032470703125 L 20.0731201171875,8.314849853515625 L 20.26654052734375,8.797622680664062 L 20.573989868164062,9.21490478515625 L 20.881439208984375,9.632186889648438 L 21.381439208984375,9.761978149414062 L 21.85491943359375,9.577865600585938 L 22.311614990234375,9.350631713867188 L 22.758255004882812,9.099441528320312 L 23.057327270507812,8.675765991210938 L 23.348007202148438,8.24090576171875 L 23.596771240234375,7.7629241943359375 L 23.885772705078125,7.3360443115234375 L 24.082534790039062,6.870819091796875 L 24.0233154296875,6.376861572265625 M 21.262237548828125,8.678558349609375 L 21.262237548828125,8.678558349609375 L 21.433853149414062,8.888214111328125 L 21.7144775390625,9.2352294921875 L 22.2144775390625,9.129379272460938 L 22.5135498046875,8.700897216796875 L 22.606353759765625,8.200897216796875 L 22.434783935546875,7.706939697265625 L 22.026763916015625,7.4158172607421875 L 21.526779174804688,7.5392303466796875 L 21.02679443359375,7.7824249267578125 L 20.737838745117188,8.2364501953125 L 20.944671630859375,8.388595581054688 L 21.221939086914062,8.51361083984375 L 21.59814453125,8.756805419921875 M 22.068862915039062,8.466873168945312 L 22.068862915039062,8.466873168945312 L 22.069427490234375,8.96685791015625 L 21.646316528320312,8.757186889648438 L 21.602188110351562,8.257186889648438 L 22.102188110351562,8.281570434570312 L 21.908798217773438,8.78155517578125 L 21.824417114257812,8.4010009765625 L 21.970870971679688,7.9010009765625 L 21.47088623046875,7.9988555908203125 M 21.608566284179688,11.765090942382812 L 21.608566284179688,11.765090942382812 L 22.108566284179688,11.85015869140625 L 22.608566284179688,11.93682861328125 L 22.971359252929688,12.328567504882812 L 23.16644287109375,12.81292724609375 L 23.316253662109375,13.310073852539062 L 23.230194091796875,13.81005859375 L 23.174331665039062,14.310043334960938 L 22.996047973632812,14.799209594726562 L 22.752365112304688,15.248428344726562 L 22.300735473632812,15.496414184570312 L 21.800750732421875,15.559127807617188 L 21.300765991210938,15.621841430664062 L 20.80078125,15.45849609375 L 20.302200317382812,15.272781372070312 L 19.803619384765625,15.066314697265625 L 19.417388916015625,14.720901489257812 L 19.158615112304688,14.305206298828125 L 19.0306396484375,13.833602905273438 L 19.068099975585938,13.349227905273438 L 19.31854248046875,12.90478515625 L 19.657852172851562,12.5338134765625 L 19.99884033203125,12.169219970703125 L 20.385101318359375,11.855743408203125 L 20.856903076171875,11.730743408203125 L 21.356903076171875,11.67919921875 L 21.856903076171875,11.667587280273438 M 21.488143920898438,12.830001831054688 L 21.488143920898438,12.830001831054688 L 21.291412353515625,12.546875 L 20.9068603515625,12.180679321289062 L 20.49884033203125,11.857620239257812 L 20.2115478515625,12.314849853515625 L 19.92425537109375,12.770477294921875 L 20.033828735351562,13.270462036132812 L 20.346298217773438,13.71490478515625 L 20.814727783203125,13.89739990234375 L 21.304962158203125,13.923385620117188 L 21.640914916992188,13.560394287109375 L 21.720291137695312,13.068023681640625 L 21.55877685546875,12.578857421875 L 21.3804931640625,12.163162231445312 M 20.77020263671875,13.100357055664062 L 20.77020263671875,13.100357055664062 L 21.106155395507812,13.100357055664062 L 21.494094848632812,12.727783203125 L 20.994110107421875,12.840011596679688 L 20.906387329101562,13.339996337890625 L 21.18365478515625,12.893951416015625 L 20.742080688476562,12.629974365234375 L 20.265289306640625,12.914688110351562 L 20.606277465820312,13.336776733398438 L 20.64373779296875,12.84600830078125 L 20.530853271484375,12.36322021484375 L 20.897003173828125,12.764541625976562 L 21.231292724609375,13.177047729492188 L 21.063064575195312,12.7613525390625" fill="none" stroke="#000000" stroke-width="0.009978836059570314"/>
</svg>
