<?xml version="1.0" ?>
<svg baseProfile="full" height="600px" version="1.1" viewBox="18.10396960449219 5.472666198730469 6.212364135742187 12.379008422851562" width="302px" xmlns="http://www.w3.org/2000/svg" xmlns:ev="http://www.w3.org/2001/xml-events" xmlns:xlink="http://www.w3.org/1999/xlink">
	<defs/>
	<path d="M 21.862762451171875,9.157058715820312 L 21.862762451171875,9.157058715820312 L 22.071273803710938,8.663101196289062 L 21.817535400390625,8.181915283203125 L 21.486648559570312,7.7630157470703125 L 21.014892578125,7.4926605224609375 L 20.514907836914062,7.2813873291015625 L 20.014923095703125,7.313751220703125 L 19.581741333007812,7.6431884765625 L 19.178741455078125,8.014144897460938 L 18.785797119140625,8.3883056640625 L 18.625961303710938,8.885452270507812 L 18.759017944335938,9.38543701171875 L 18.987655639648438,9.874603271484375 L 19.32696533203125,10.287109375 L 19.761871337890625,10.6005859375 L 20.261871337890625,10.58258056640625 L 20.69677734375,10.294647216796875 L 21.114913940429688,9.989151000976562 L 21.534713745117188,9.709213256835938 L 21.949493408203125,9.430862426757812 M 20.560684204101562,12.691696166992188 L 20.560684204101562,12.691696166992188 L 21.060684204101562,12.716079711914062 L 21.527435302734375,12.986419677734375 L 21.905319213867188,13.373367309570312 L 22.202713012695312,13.816207885742188 L 22.290481567382812,14.316192626953125 L 22.150772094726562,14.816177368164062 L 21.87689208984375,15.2606201171875 L 21.48394775390625,15.628402709960938 L 21.0306396484375,15.876388549804688 L 20.530654907226562,15.950271606445312 L 20.030670166015625,15.97784423828125 L 19.530685424804688,15.844833374023438 L 19.152847290039062,15.435516357421875 L 18.981277465820312,14.935516357421875 L 18.814727783203125,14.435516357421875 L 18.649856567382812,13.935516357421875 L 18.739303588867188,13.435516357421875 L 19.01824951171875,12.997451782226562 L 19.474945068359375,12.783004760742188 L 19.974945068359375,12.931961059570312 L 20.474945068359375,13.0841064453125 M 23.124267578125,6.508544921875 L 23.124267578125,6.508544921875 L 22.665939331054688,6.8156280517578125 L 23.131027221679688,7.041259765625 L 23.606185913085938,7.2061920166015625 L 23.106201171875,7.3663177490234375 L 22.704879760742188,7.743682861328125 L 23.204879760742188,7.8079833984375 L 23.704879760742188,7.9393768310546875 L 23.360580444335938,8.3406982421875 L 23.071624755859375,8.79632568359375 L 23.53167724609375,9.041122436523438 L 23.14544677734375,9.420089721679688 L 22.661956787109375,9.570648193359375 L 23.1387939453125,9.738784790039062 L 23.585433959960938,10.049057006835938 L 23.08544921875,10.049057006835938 L 22.585464477539062,10.226760864257812 M 23.173385620117188,12.655532836914062 L 23.173385620117188,12.655532836914062 L 23.673385620117188,12.780548095703125 L 23.221755981445312,13.047698974609375 L 22.927764892578125,13.495330810546875 L 23.379440307617188,13.74810791015625 L 22.934524536132812,14.00408935546875 L 22.474517822265625,14.236099243164062 L 22.911102294921875,14.52081298828125 L 23.35272216796875,14.795944213867188 L 23.794342041015625,15.071075439453125 L 23.294357299804688,15.223220825195312 L 22.79437255859375,15.418487548828125 L 23.262802124023438,15.599395751953125 L 22.780990600585938,15.780303955078125 L 22.281005859375,15.878158569335938 L 22.682373046875,16.209197998046875 L 22.47222900390625,16.623291015625 L 22.618682861328125,16.686004638671875 L 23.097183227539062,16.8157958984375 M 21.080734252929688,14.5487060546875 L 21.080734252929688,14.5487060546875 L 21.099746704101562,14.0487060546875 L 21.157333374023438,14.204055786132812 L 21.246780395507812,14.70404052734375 L 21.013153076171875,14.229232788085938 L 21.114334106445312,14.6976318359375 L 21.173599243164062,14.840194702148438 L 20.673614501953125,14.867767333984375 L 20.502044677734375,14.367767333984375 L 20.784347534179688,13.950469970703125 L 20.955963134765625,14.276718139648438 L 20.829666137695312,14.1756591796875 L 20.4669189453125,13.993148803710938 L 20.61505126953125,14.068634033203125 L 20.986236572265625,14.295852661132812 L 20.801254272460938,14.309051513671875 L 20.5106201171875,14.16326904296875 L 20.65875244140625,14.187652587890625 L 21.157379150390625,14.227996826171875 L 20.663833618164062,14.418487548828125 L 20.723098754882812,14.597793579101562 L 21.198257446289062,14.467987060546875 L 20.822097778320312,14.421249389648438 M 20.866455078125,8.88018798828125 L 20.866455078125,8.88018798828125 L 20.900558471679688,8.38018798828125 L 20.40057373046875,8.385391235351562 L 20.163589477539062,8.872955322265625 L 20.559921264648438,9.218368530273438 L 20.8707275390625,8.78668212890625 L 20.444244384765625,8.96917724609375 L 20.64605712890625,9.015914916992188 L 20.452667236328125,8.970748901367188 L 20.269363403320312,8.751495361328125 L 20.315216064453125,8.549819946289062 L 20.815216064453125,8.549819946289062 L 20.315231323242188,8.458358764648438 L 20.029617309570312,8.905990600585938 L 19.951950073242188,8.77618408203125 L 19.787078857421875,8.403610229492188 L 20.287078857421875,8.554168701171875 L 20.787078857421875,8.59771728515625 L 20.620529174804688,8.725906372070312" fill="none" stroke="#000000" stroke-width="0.0103072509765625"/>
</svg>
