<?xml version="1.0" ?>
<svg baseProfile="full" height="600px" version="1.1" viewBox="15.54873258972168 4.348555587768555 6.148659088134766 15.718446685791015" width="235px" xmlns="http://www.w3.org/2000/svg" xmlns:ev="http://www.w3.org/2001/xml-events" xmlns:xlink="http://www.w3.org/1999/xlink">
	<defs/>
	<path d="M 17.284515380859375,6.942230224609375 L 17.284515380859375,6.942230224609375 L 17.643966674804688,6.564849853515625 L 18.023529052734375,6.1890716552734375 L 18.416519165039062,5.8628082275390625 L 18.561309814453125,5.752166748046875 L 18.687652587890625,5.66387939453125 L 18.797225952148438,5.76812744140625 L 18.93194580078125,5.89471435546875 L 19.085113525390625,6.042083740234375 L 19.23828125,6.189453125 L 19.391448974609375,6.338409423828125 L 19.54461669921875,6.48736572265625 L 19.697784423828125,6.636322021484375 L 19.849273681640625,6.790069580078125 L 20.000762939453125,6.9582061767578125 L 20.106979370117188,7.171051025390625 L 20.203140258789062,7.390289306640625 L 20.242279052734375,7.6350860595703125 L 20.257949829101562,7.895843505859375 L 20.185302734375,8.220504760742188 L 20.06402587890625,8.570709228515625 L 19.914260864257812,9.010360717773438 L 19.761123657226562,9.454803466796875 L 19.574462890625,9.947158813476562 L 19.344192504882812,10.43951416015625 L 19.008285522460938,10.8775634765625 L 18.766281127929688,11.005752563476562 L 18.380050659179688,11.106796264648438 L 17.931777954101562,11.01690673828125 L 17.545547485351562,10.781692504882812 L 17.264968872070312,10.472991943359375 L 17.086685180664062,10.162704467773438 L 16.95367431640625,9.873184204101562 L 16.869293212890625,9.741775512695312 L 16.903396606445312,9.570449829101562 L 16.9375,9.35760498046875 L 16.978302001953125,8.997802734375 L 17.022476196289062,8.532577514648438 L 17.078384399414062,8.032577514648438 L 17.132614135742188,7.5325775146484375 L 17.180145263671875,7.0325775146484375 L 17.224319458007812,6.5325775146484375 M 18.251388549804688,13.03179931640625 L 18.251388549804688,13.03179931640625 L 18.2972412109375,12.806167602539062 L 18.406814575195312,12.3585205078125 L 18.60357666015625,11.934844970703125 L 18.75506591796875,11.96881103515625 L 18.951828002929688,12.042694091796875 L 19.193878173828125,12.151718139648438 L 19.435928344726562,12.2591552734375 L 19.679656982421875,12.374588012695312 L 19.9200439453125,12.501174926757812 L 20.160430908203125,12.666107177734375 L 20.40081787109375,12.835830688476562 L 20.641204833984375,13.00555419921875 L 20.881591796875,13.196044921875 L 21.108551025390625,13.44403076171875 L 21.179550170898438,13.765487670898438 L 21.150527954101562,14.20513916015625 L 20.972244262695312,14.65118408203125 L 20.798995971679688,15.10040283203125 L 20.63916015625,15.600387573242188 L 20.481002807617188,16.100372314453125 L 20.322845458984375,16.600357055664062 L 20.164688110351562,17.100341796875 L 19.988082885742188,17.55914306640625 L 19.886947631835938,17.716094970703125 L 19.876358032226562,17.869842529296875 L 19.807083129882812,18.0731201171875 L 19.630477905273438,18.32269287109375 L 19.443817138671875,18.5706787109375 L 19.297409057617188,18.615829467773438 L 19.067138671875,18.660980224609375 L 18.823455810546875,18.70452880859375 L 18.576416015625,18.743270874023438 L 18.329376220703125,18.751678466796875 L 18.080657958984375,18.716110229492188 L 17.843673706054688,18.67254638671875 L 17.668746948242188,18.62738037109375 L 17.517288208007812,18.58221435546875 L 17.34906005859375,18.538650512695312 L 17.128860473632812,18.491912841796875 L 16.89691162109375,18.446746826171875 L 16.695144653320312,18.323318481445312 L 16.506805419921875,18.19671630859375 L 16.477783203125,18.049346923828125 L 16.443710327148438,17.870040893554688 L 16.376113891601562,17.63482666015625 L 16.291732788085938,17.375656127929688 L 16.207351684570312,17.116485595703125 L 16.133026123046875,16.847732543945312 L 16.075485229492188,16.577377319335938 L 16.066574096679688,16.299026489257812 L 16.068832397460938,16.015899658203125 L 16.081146240234375,15.72796630859375 L 16.172271728515625,15.438446044921875 L 16.317062377929688,15.147323608398438 L 16.574203491210938,14.8546142578125 L 16.848114013671875,14.545913696289062 L 17.122024536132812,14.195693969726562 L 17.394256591796875,13.816726684570312 L 17.666488647460938,13.4345703125 L 17.938720703125,13.042831420898438 L 18.209274291992188,12.606369018554688 L 18.48150634765625,12.168304443359375 L 18.624618530273438,12.078414916992188" fill="none" stroke="#000000" stroke-width="0.013087799072265625"/>
</svg>
