<?xml version="1.0" ?>
<svg baseProfile="full" height="600px" version="1.1" viewBox="18.246088272094728 4.432649856567383 2.9424700622558593 12.866878021240234" width="138px" xmlns="http://www.w3.org/2000/svg" xmlns:ev="http://www.w3.org/2001/xml-events" xmlns:xlink="http://www.w3.org/1999/xlink">
	<defs/>
	<path d="M 19.928726196289062,9.213302612304688 L 19.928726196289062,9.213302612304688 L 19.9796142578125,9.030792236328125 L 20.060684204101562,8.765228271484375 L 20.158523559570312,8.498062133789062 L 20.341873168945312,8.246871948242188 L 20.563796997070312,8.034027099609375 L 20.785720825195312,7.819580078125 L 20.938888549804688,7.5476226806640625 L 20.929977416992188,7.0808258056640625 L 20.847274780273438,6.6204071044921875 L 20.600234985351562,6.4362945556640625 L 20.353195190429688,6.2521820068359375 L 20.07763671875,6.069671630859375 L 19.813827514648438,5.8136749267578125 L 19.642257690429688,5.635955810546875 L 19.527694702148438,5.5093536376953125 L 19.515426635742188,5.659912109375 L 19.46124267578125,5.9047088623046875 L 19.397003173828125,6.1606903076171875 L 19.314300537109375,6.2952728271484375 L 19.154464721679688,6.43145751953125 L 18.91748046875,6.5868072509765625 L 18.747589111328125,6.75653076171875 L 18.63134765625,6.9358367919921875 L 18.573806762695312,7.13751220703125 L 18.641448974609375,7.3663330078125 L 18.749343872070312,7.6111297607421875 L 18.914260864257812,7.855926513671875 L 19.079177856445312,8.105499267578125 L 19.265884399414062,8.356674194335938 L 19.454269409179688,8.623825073242188 L 19.632598876953125,8.972427368164062 L 19.745513916015625,9.33221435546875 L 19.833282470703125,9.6951904296875 M 19.691482543945312,12.54296875 L 19.691482543945312,12.54296875 L 20.086151123046875,12.869216918945312 L 20.086715698242188,13.072494506835938 L 20.054336547851562,13.572479248046875 L 20.163909912109375,13.830047607421875 L 20.337203979492188,14.194625854492188 L 20.5675048828125,14.600723266601562 L 20.62677001953125,15.046768188476562 L 20.34954833984375,15.425735473632812 L 20.184677124023438,15.694488525390625 L 19.9510498046875,16.086227416992188 L 19.650360107421875,16.148941040039062 L 19.321151733398438,16.222824096679688 L 19.236770629882812,16.096221923828125 L 19.085311889648438,15.912109375 L 18.91876220703125,15.635360717773438 L 18.779052734375,15.440078735351562 L 18.644378662109375,15.244796752929688 L 18.50970458984375,15.049514770507812 L 18.495758056640625,14.836669921875 L 18.551666259765625,14.623825073242188 L 18.59246826171875,14.409378051757812 L 18.633270263671875,14.194931030273438 L 18.597518920898438,13.940536499023438 L 18.529922485351562,13.665390014648438 L 18.558990478515625,13.38385009765625 L 18.67694091796875,13.100723266601562 L 18.994461059570312,12.855911254882812 L 19.311981201171875,12.609512329101562 L 19.57415771484375,12.403045654296875" fill="none" stroke="#000000" stroke-width="0.010713470458984376"/>
</svg>
