<?xml version="1.0" ?>
<svg baseProfile="full" height="508px" version="1.1" viewBox="15.26702604675293 8.609558395385742 6.376683990478516 5.392638580322266" width="600px" xmlns="http://www.w3.org/2000/svg" xmlns:ev="http://www.w3.org/2001/xml-events" xmlns:xlink="http://www.w3.org/1999/xlink">
	<defs/>
	<path d="M 19.456161499023438,10.745773315429688 L 19.456161499023438,10.745773315429688 L 19.657974243164062,10.374801635742188 L 19.541732788085938,9.884033203125 L 19.116928100585938,9.754226684570312 L 18.616943359375,9.879241943359375 L 18.116958618164062,9.977096557617188 L 17.616973876953125,9.975051879882812 L 17.116989135742188,10.052139282226562 L 16.67877197265625,10.379974365234375 L 16.56085205078125,10.879959106445312 L 17.014205932617188,11.37994384765625 L 17.514205932617188,11.4378662109375 L 18.014205932617188,11.308059692382812 L 18.514205932617188,11.130340576171875 L 19.006118774414062,10.94622802734375 L 19.498031616210938,10.762115478515625 L 19.822250366210938,10.3687744140625 M 19.396987915039062,10.7724609375 L 19.396987915039062,10.7724609375 L 19.836929321289062,10.690582275390625 L 19.968307495117188,11.190567016601562 L 19.90740966796875,11.6905517578125 L 19.757644653320312,12.187698364257812 L 19.431793212890625,12.597000122070312 L 19.052276611328125,12.972763061523438 L 18.645919799804688,13.29901123046875 L 18.184234619140625,13.5294189453125 L 17.684249877929688,13.55059814453125 L 17.18426513671875,13.510238647460938 L 16.684280395507812,13.4075927734375 L 16.185699462890625,13.19952392578125 L 15.883331298828125,12.788604736328125 L 15.800628662109375,12.301025390625 L 16.027587890625,11.842208862304688 L 16.35516357421875,11.458450317382812 L 16.687774658203125,11.077896118164062 M 18.209503173828125,10.826629638671875 L 18.209503173828125,10.826629638671875 L 18.478378295898438,10.843017578125 L 18.941787719726562,10.67169189453125 L 18.568984985351562,10.297515869140625 L 18.069000244140625,10.287490844726562 L 17.614028930664062,10.604156494140625 L 17.720245361328125,11.045394897460938 L 18.118255615234375,10.72552490234375 L 18.283172607421875,10.24273681640625 M 18.73828125,11.473892211914062 L 18.73828125,11.473892211914062 L 19.21343994140625,11.731460571289062 L 19.1307373046875,12.2314453125 L 18.892074584960938,12.68707275390625 L 18.512557983398438,13.067626953125 L 18.037445068359375,13.29803466796875 L 17.537460327148438,13.25286865234375 L 17.0374755859375,13.068756103515625 L 16.844085693359375,12.62908935546875 L 16.9620361328125,12.14471435546875 L 17.266128540039062,11.711456298828125 L 17.739608764648438,11.522552490234375 L 18.213088989257812,11.33843994140625 L 18.713088989257812,11.274124145507812 M 20.831161499023438,11.389022827148438 L 20.831161499023438,11.389022827148438 L 21.110107421875,11.836654663085938 L 20.948593139648438,12.335403442382812 L 20.6763916015625,12.784622192382812 L 20.285125732421875,13.157180786132812 L 19.808334350585938,13.387588500976562 M 20.083572387695312,10.246017456054688 L 20.083572387695312,10.246017456054688 L 20.12103271484375,9.746017456054688 L 19.687850952148438,9.445327758789062 L 19.212738037109375,9.230880737304688 L 18.712753295898438,9.0611572265625" fill="none" stroke="#000000" stroke-width="0.005309478759765625"/>
</svg>
