<?xml version="1.0" ?>
<svg baseProfile="full" height="551px" version="1.1" viewBox="8.597806823730469 3.771900451660156 16.043583129882812 14.716544555664063" width="600px" xmlns="http://www.w3.org/2000/svg" xmlns:ev="http://www.w3.org/2001/xml-events" xmlns:xlink="http://www.w3.org/1999/xlink">
	<defs/>
	<path d="M 18.277496337890625,15.175323486328125 L 18.277496337890625,15.175323486328125 L 18.253494262695312,14.675323486328125 L 18.234527587890625,14.497604370117188 L 18.232315063476562,13.997604370117188 L 18.223403930664062,13.497604370117188 M 17.9620361328125,9.937301635742188 L 17.9620361328125,9.937301635742188 L 17.839096069335938,9.437301635742188 L 17.71112060546875,8.937301635742188 L 17.753616333007812,8.437301635742188 L 17.794418334960938,7.9373016357421875 L 17.96771240234375,7.4373016357421875 M 23.298858642578125,10.823944091796875 L 23.298858642578125,10.823944091796875 L 23.14739990234375,10.440185546875 L 22.975830078125,9.940185546875 L 22.805938720703125,9.440185546875 L 22.758453369140625,8.940185546875 L 22.710968017578125,8.440185546875 L 22.606475830078125,7.940185546875 L 22.282302856445312,7.50372314453125 L 21.939682006835938,7.070465087890625 L 21.595382690429688,6.6387786865234375 L 21.251083374023438,6.20709228515625 L 20.873245239257812,5.8025665283203125 L 20.433349609375,5.492279052734375 L 19.956558227539062,5.2410888671875 L 19.456573486328125,5.05218505859375 L 18.956588745117188,5.00384521484375 L 18.45660400390625,5.041015625 L 17.956619262695312,5.0877532958984375 L 17.456634521484375,5.1217193603515625 L 16.956649780273438,5.1556854248046875 L 16.4566650390625,5.2183990478515625 L 15.956680297851562,5.346588134765625 L 15.456695556640625,5.4971466064453125 L 14.956710815429688,5.647705078125 L 14.46484375,5.8477783203125 L 13.98638916015625,6.0797882080078125 L 13.514633178710938,6.321380615234375 L 13.046234130859375,6.567779541015625 L 12.5811767578125,6.815765380859375 L 12.154693603515625,7.12445068359375 L 11.753372192382812,7.4554901123046875 L 11.375534057617188,7.8312530517578125 L 11.093276977539062,8.270904541015625 L 10.899887084960938,8.728134155273438 L 10.71826171875,9.196533203125 L 10.555068969726562,9.680892944335938 L 10.400253295898438,10.165252685546875 L 10.247116088867188,10.649612426757812 L 10.117462158203125,11.140380859375 L 10.0079345703125,11.634323120117188 L 9.940338134765625,12.129867553710938 L 9.971084594726562,12.623809814453125 L 10.073944091796875,13.117752075195312 L 10.247238159179688,13.605316162109375 L 10.484268188476562,14.0577392578125 L 10.801788330078125,14.471832275390625 L 11.141098022460938,14.869949340820312 L 11.5223388671875,15.213775634765625 L 11.903579711914062,15.549606323242188 L 12.336807250976562,15.821548461914062 L 12.783447265625,16.071121215820312 L 13.230087280273438,16.320693969726562 L 13.69683837890625,16.503189086914062 L 14.163589477539062,16.685684204101562 L 14.638748168945312,16.76116943359375 L 15.128982543945312,16.807907104492188 L 15.620895385742188,16.833892822265625 L 16.112808227539062,16.859878540039062 L 16.606399536132812,16.8858642578125 L 17.103347778320312,16.910247802734375 L 17.596939086914062,17.060806274414062 L 18.088851928710938,17.19219970703125 L 18.588851928710938,17.256500244140625 L 19.088851928710938,17.169815063476562 L 19.574066162109375,17.04638671875 L 20.045867919921875,16.863876342773438 L 20.5025634765625,16.654205322265625 L 20.878768920898438,16.324752807617188 L 21.19964599609375,15.942596435546875 L 21.515487670898438,15.560440063476562 L 21.8330078125,15.17828369140625 L 22.165618896484375,14.796127319335938 L 22.471389770507812,14.409164428710938 L 22.770462036132812,14.01422119140625 L 23.004119873046875,13.54742431640625 L 23.127105712890625,13.051864624023438 L 23.20648193359375,12.551864624023438 L 23.228851318359375,12.051864624023438 L 23.252899169921875,11.551864624023438 L 23.2752685546875,11.051864624023438 L 23.297637939453125,10.551864624023438" fill="none" stroke="#000000" stroke-width="0.0133585205078125"/>
</svg>
