<?xml version="1.0" ?>
<svg baseProfile="full" height="600px" version="1.1" viewBox="16.94334002685547 4.052498352050781 4.279091430664063 13.226393676757812" width="195px" xmlns="http://www.w3.org/2000/svg" xmlns:ev="http://www.w3.org/2001/xml-events" xmlns:xlink="http://www.w3.org/1999/xlink">
	<defs/>
	<path d="M 19.6358642578125,15.864639282226562 L 19.6358642578125,15.864639282226562 L 19.79071044921875,15.781158447265625 L 19.9908447265625,15.6529541015625 L 20.185928344726562,15.448089599609375 L 20.36761474609375,15.211273193359375 L 20.545944213867188,14.915359497070312 L 20.720916748046875,14.603485107421875 L 20.812042236328125,14.216522216796875 L 20.861251831054688,13.800827026367188 L 20.840606689453125,13.364364624023438 L 20.72772216796875,12.891159057617188 L 20.547760009765625,12.411575317382812 L 20.275558471679688,11.957534790039062 L 19.849075317382812,11.644058227539062 L 19.372283935546875,11.418426513671875 L 19.210769653320312,11.4891357421875 L 19.003982543945312,11.588577270507812 L 18.775375366210938,11.688018798828125 L 18.543426513671875,11.859329223632812 L 18.311477661132812,12.129669189453125 L 18.07952880859375,12.4591064453125 L 17.891189575195312,12.9051513671875 L 17.774948120117188,13.349594116210938 L 17.800674438476562,13.849578857421875 L 17.903533935546875,14.349563598632812 L 18.07012939453125,14.84954833984375 L 18.27362060546875,15.3450927734375 L 18.5877685546875,15.789535522460938 L 19.02435302734375,16.075851440429688 L 19.5179443359375,16.172103881835938 L 19.900863647460938,15.952850341796875 M 17.8450927734375,13.710464477539062 L 17.8450927734375,13.710464477539062 L 17.99322509765625,13.8131103515625 L 18.159820556640625,13.92694091796875 L 18.349884033203125,13.886581420898438 L 18.539947509765625,13.835037231445312 L 18.730010986328125,13.753158569335938 L 18.920074462890625,13.666473388671875 L 19.110137939453125,13.666473388671875 L 19.300201416015625,13.674880981445312 L 19.48858642578125,13.74078369140625 L 19.697097778320312,13.840225219726562 L 19.924057006835938,13.8677978515625 L 20.152694702148438,13.86822509765625 L 20.381332397460938,13.871841430664062 L 20.609970092773438,13.875457763671875 L 20.816802978515625,13.875457763671875 M 20.7139892578125,13.755233764648438 L 20.7139892578125,13.755233764648438 L 20.534027099609375,13.633407592773438 L 20.35406494140625,13.511581420898438 L 20.169082641601562,13.556732177734375 L 20.037750244140625,13.681747436523438 L 19.941635131835938,13.5615234375 L 19.847198486328125,13.441299438476562 L 19.732635498046875,13.322677612304688 L 19.567764282226562,13.242385864257812 L 19.40289306640625,13.2779541015625 L 19.249755859375,13.2779541015625 L 19.059722900390625,13.274337768554688 L 18.888153076171875,13.23876953125 L 18.716583251953125,13.203201293945312 L 18.586929321289062,13.281890869140625 L 18.458953857421875,13.374954223632812 L 18.330978393554688,13.468017578125 L 18.2030029296875,13.556289672851562 L 18.041488647460938,13.519119262695312 L 17.8531494140625,13.480361938476562 M 17.992904663085938,13.562240600585938 L 17.992904663085938,13.562240600585938 L 18.194717407226562,13.711196899414062 L 18.339508056640625,13.646881103515625 L 18.539642333984375,13.646438598632812 L 18.835357666015625,13.617263793945312 L 18.958343505859375,13.53057861328125 L 19.136672973632812,13.439117431640625 L 19.325057983398438,13.309310913085938 L 19.4061279296875,13.44549560546875 L 19.621353149414062,13.581680297851562 L 19.809738159179688,13.729049682617188 L 19.964584350585938,13.763015747070312 L 20.149612426757812,13.94232177734375 L 20.275955200195312,13.849258422851562 L 20.467697143554688,13.756195068359375 L 20.694656372070312,13.782180786132812 M 19.298202514648438,9.161163330078125 L 19.298202514648438,9.161163330078125 L 19.486587524414062,9.031356811523438 L 19.683349609375,8.899948120117188 L 19.881805419921875,8.766937255859375 L 20.029937744140625,8.584426879882812 L 20.166336059570312,8.389144897460938 L 20.277572631835938,8.18267822265625 L 20.336837768554688,7.936279296875 L 20.334625244140625,7.6307830810546875 L 20.268707275390625,7.31890869140625 L 20.1273193359375,7.000640869140625 L 19.9842529296875,6.682373046875 L 19.837844848632812,6.364105224609375 L 19.686386108398438,6.0442352294921875 L 19.486297607421875,5.7435455322265625 L 19.237579345703125,5.481170654296875 L 18.943588256835938,5.233184814453125 L 18.567428588867188,5.1592864990234375 L 18.415969848632812,5.2331695556640625 L 18.21588134765625,5.3294219970703125 L 18.00238037109375,5.4991455078125 L 17.82745361328125,5.7567138671875 L 17.743072509765625,6.0526123046875 L 17.65869140625,6.35809326171875 L 17.574310302734375,6.66357421875 L 17.453033447265625,6.9546966552734375 L 17.398849487304688,7.26177978515625 L 17.44805908203125,7.65191650390625 L 17.552597045898438,8.046844482421875 L 17.66217041015625,8.4417724609375 L 17.927688598632812,8.838302612304688 L 18.327377319335938,9.06072998046875 L 18.727066040039062,9.311904907226562 L 19.202224731445312,9.448089599609375 M 17.5538330078125,7.336669921875 L 17.5538330078125,7.336669921875 L 17.700286865234375,7.400970458984375 L 17.886993408203125,7.4716796875 L 18.073699951171875,7.542388916015625 L 18.26544189453125,7.5460052490234375 L 18.457183837890625,7.5623931884765625 L 18.64892578125,7.5787811279296875 L 18.844009399414062,7.5951690673828125 L 19.05755615234375,7.62115478515625 L 19.271102905273438,7.6471405029296875 L 19.484649658203125,7.5988006591796875 L 19.698196411132812,7.5504608154296875 L 19.9117431640625,7.4685821533203125 L 20.125289916992188,7.3867034912109375 M 19.998992919921875,7.300018310546875 L 19.998992919921875,7.300018310546875 L 19.872695922851562,7.2133331298828125 L 19.741363525390625,7.1282501220703125 L 19.574813842773438,7.081512451171875 L 19.386474609375,7.1074981689453125 L 19.196441650390625,7.13507080078125 L 19.004730224609375,7.178619384765625 L 18.816390991210938,7.1822357177734375 L 18.626358032226562,7.1370697021484375 L 18.434646606445312,7.087127685546875 L 18.244613647460938,7.038787841796875 L 18.054580688476562,6.990447998046875 L 17.864547729492188,6.95806884765625 L 17.674514770507812,6.9952392578125 L 17.484481811523438,7.0515594482421875 L 17.304519653320312,7.1158599853515625 M 17.7506103515625,7.25927734375 L 17.7506103515625,7.25927734375 L 17.903778076171875,7.27886962890625 L 18.05694580078125,7.2968597412109375 L 18.210113525390625,7.314849853515625 L 18.307952880859375,7.183441162109375 L 18.419189453125,6.9977264404296875 L 18.550567626953125,7.09716796875 L 18.698699951171875,7.1231536865234375 L 18.8485107421875,7.22259521484375 L 18.86920166015625,7.3779449462890625 L 18.888214111328125,7.6083526611328125 L 19.027969360351562,7.518463134765625 L 19.179458618164062,7.3950347900390625 L 19.327590942382812,7.3275146484375 L 19.477401733398438,7.3566741943359375 L 19.690948486328125,7.385833740234375 L 19.93133544921875,7.29754638671875 L 19.78826904296875,7.360260009765625 L 19.608306884765625,7.456512451171875 L 19.411575317382812,7.4129486083984375 L 19.21484375,7.363006591796875 L 19.066757202148438,7.3098602294921875 L 18.826416015625,7.4396514892578125 L 18.592788696289062,7.58062744140625 L 18.50506591796875,7.4508209228515625 L 18.415664672851562,7.2459564208984375 L 18.264205932617188,7.1912078857421875 L 18.111068725585938,7.2778778076171875 L 17.932785034179688,7.4555816650390625 L 17.8936767578125,7.30181884765625 L 17.82440185546875,7.117706298828125 L 17.733322143554688,6.9144287109375 M 19.514358520507812,5.8530120849609375 L 19.514358520507812,5.8530120849609375 L 19.44171142578125,5.713623046875 L 19.364044189453125,5.5726318359375 L 19.272964477539062,5.4396209716796875 L 19.1248779296875,5.3944549560546875 L 18.961685180664062,5.35089111328125 L 18.771652221679688,5.308929443359375 L 18.543045043945312,5.27655029296875 L 18.312774658203125,5.2393798828125 M 17.7718505859375,6.283233642578125 L 17.7718505859375,6.283233642578125 L 17.86968994140625,6.0064849853515625 L 17.967529296875,5.729736328125 L 18.107284545898438,5.6606292724609375 L 18.297348022460938,5.5947113037109375 L 18.50921630859375,5.594268798828125 L 18.726119995117188,5.5906524658203125 L 18.939666748046875,5.5906524658203125 L 19.161590576171875,5.6150360107421875 L 19.383514404296875,5.6985015869140625 M 19.861129760742188,8.61529541015625 L 19.861129760742188,8.61529541015625 L 19.707992553710938,8.676406860351562 L 19.546478271484375,8.6632080078125 L 19.381607055664062,8.6632080078125 L 19.208358764648438,8.574920654296875 L 19.006591796875,8.574920654296875 L 18.79644775390625,8.63763427734375 L 18.5863037109375,8.713119506835938 L 18.37615966796875,8.788604736328125 L 18.149246215820312,8.846527099609375 L 17.912261962890625,8.854934692382812 L 17.666900634765625,8.832138061523438 L 17.4232177734375,8.703933715820312 M 20.59063720703125,12.524459838867188 L 20.59063720703125,12.524459838867188 L 20.444229125976562,12.4345703125 L 20.292770385742188,12.346282958984375 L 20.141311645507812,12.25799560546875 L 19.989852905273438,12.19207763671875 L 19.84344482421875,12.12615966796875 L 19.680252075195312,12.074615478515625 L 19.508682250976562,12.0230712890625 L 19.310272216796875,12.04425048828125 L 19.100128173828125,12.070236206054688 L 18.844711303710938,12.19525146484375 L 18.5859375,12.2723388671875 L 18.325485229492188,12.343048095703125 L 18.065032958984375,12.41375732421875 M 18.24188232421875,15.16400146484375 L 18.24188232421875,15.16400146484375 L 18.426910400390625,15.228302001953125 L 18.638778686523438,15.33892822265625 L 18.88250732421875,15.467117309570312 L 19.129592895507812,15.534622192382812 L 19.398468017578125,15.559005737304688 L 19.667343139648438,15.510665893554688 L 19.941253662109375,15.460723876953125 L 20.173233032226562,15.33251953125" fill="none" stroke="#000000" stroke-width="0.0110128173828125"/>
</svg>
