<?xml version="1.0" ?>
<svg baseProfile="full" height="600px" version="1.1" viewBox="15.025164070129394 2.5639595413208007 5.561213607788086 14.655055160522462" width="228px" xmlns="http://www.w3.org/2000/svg" xmlns:ev="http://www.w3.org/2001/xml-events" xmlns:xlink="http://www.w3.org/1999/xlink">
	<defs/>
	<path d="M 16.193328857421875,4.168426513671875 L 16.193328857421875,4.168426513671875 L 16.494064331054688,4.235931396484375 L 16.75958251953125,4.2619171142578125 M 16.543350219726562,3.7902984619140625 L 16.543350219726562,3.7902984619140625 L 16.390213012695312,4.1804351806640625 M 16.41204833984375,4.1667938232421875 L 16.41204833984375,4.1667938232421875 L 15.973831176757812,4.0353851318359375 L 16.351715087890625,4.3184967041015625 L 16.707809448242188,3.923553466796875 L 16.20782470703125,4.050140380859375 L 16.3375244140625,4.5501251220703125 L 16.618148803710938,4.097686767578125 L 16.220184326171875,4.4846343994140625 M 16.164321899414062,4.3005218505859375 L 16.164321899414062,4.3005218505859375 L 16.017913818359375,3.804962158203125 L 15.536102294921875,4.054534912109375 M 15.560150146484375,4.5545196533203125 L 15.560150146484375,4.5545196533203125 L 15.932998657226562,4.9334869384765625 L 15.975494384765625,4.4334869384765625 L 15.493682861328125,4.6894683837890625 M 19.021087646484375,6.4447784423828125 L 19.021087646484375,6.4447784423828125 L 18.713668823242188,6.4452056884765625 L 18.327438354492188,6.7219390869140625 L 18.117294311523438,7.21429443359375 L 18.384490966796875,7.67950439453125 L 18.732192993164062,8.077621459960938 L 19.192245483398438,8.306442260742188 M 19.291748046875,8.175033569335938 L 19.291748046875,8.175033569335938 L 19.486831665039062,7.9861297607421875 L 19.702056884765625,7.6454925537109375 L 19.808273315429688,7.1454925537109375 L 19.705459594726562,6.6454925537109375 L 19.424880981445312,6.1898651123046875 M 18.74078369140625,6.9425506591796875 L 18.74078369140625,6.9425506591796875 L 18.539016723632812,6.8718414306640625 L 18.295333862304688,7.0591278076171875 L 18.346221923828125,7.5083465576171875 L 18.695587158203125,7.7946624755859375 L 19.153961181640625,7.775054931640625 L 19.362472534179688,7.282684326171875 L 19.038299560546875,6.8637847900390625 M 18.825271606445312,13.669708251953125 L 18.825271606445312,13.669708251953125 L 18.56146240234375,13.804290771484375 L 18.243988037109375,14.095413208007812 L 18.122711181640625,14.59539794921875 L 18.105422973632812,15.095382690429688 L 18.345809936523438,15.584548950195312 L 18.782394409179688,15.81976318359375 L 19.247482299804688,15.99267578125 M 19.410720825195312,15.947509765625 L 19.410720825195312,15.947509765625 L 19.753387451171875,15.814498901367188 L 20.11785888671875,15.432342529296875 L 20.095535278320312,14.932342529296875 L 19.922286987304688,14.432342529296875 L 19.685302734375,13.947967529296875 L 19.34100341796875,13.564208984375 L 18.841018676757812,13.480728149414062 M 19.307846069335938,15.271697998046875 L 19.307846069335938,15.271697998046875 L 19.585113525390625,15.232940673828125 L 19.828842163085938,14.759735107421875 L 19.650558471679688,14.259735107421875 L 19.1519775390625,14.077224731445312 L 18.651992797851562,14.293258666992188 L 18.304336547851562,14.73291015625 L 18.579940795898438,15.185333251953125 L 19.018203735351562,15.455673217773438 L 19.518203735351562,15.364212036132812 M 19.209716796875,14.958831787109375 L 19.209716796875,14.958831787109375 L 18.838577270507812,14.835403442382812 L 18.926345825195312,14.703994750976562 L 19.28411865234375,14.563003540039062 L 19.58319091796875,14.842941284179688 L 19.083206176757812,14.864120483398438" fill="none" stroke="#000000" stroke-width="0.012202377319335938"/>
</svg>
