<?xml version="1.0" ?>
<svg baseProfile="full" height="600px" version="1.1" viewBox="21.305916763305664 5.443505264282226 2.677930877685547 11.935194061279297" width="135px" xmlns="http://www.w3.org/2000/svg" xmlns:ev="http://www.w3.org/2001/xml-events" xmlns:xlink="http://www.w3.org/1999/xlink">
	<defs/>
	<path d="M 23.396011352539062,8.1590576171875 L 23.396011352539062,8.1590576171875 L 23.396011352539062,7.9254302978515625 L 23.392135620117188,7.623138427734375 L 23.363113403320312,7.3160400390625 L 23.19488525390625,7.0057525634765625 L 22.961257934570312,6.73699951171875 L 22.632049560546875,6.525726318359375 L 22.200546264648438,6.4422454833984375 L 21.760650634765625,6.7317657470703125 L 21.599136352539062,7.23175048828125 L 21.533218383789062,7.7317352294921875 L 21.594161987304688,8.231719970703125 L 21.7674560546875,8.731704711914062 L 21.987701416015625,9.228851318359375 L 22.22808837890625,9.716415405273438 L 22.565719604492188,10.132095336914062 L 22.896652221679688,10.196395874023438 L 22.748565673828125,10.002700805664062 L 22.582015991210938,9.732345581054688 L 22.220947265625,9.348587036132812 L 22.36907958984375,9.290664672851562 L 22.713424682617188,9.243927001953125 L 23.213424682617188,9.208358764648438 L 23.40850830078125,8.862945556640625 L 23.415786743164062,8.362945556640625 L 23.396820068359375,7.862945556640625 M 23.217666625976562,13.196121215820312 L 23.217666625976562,13.196121215820312 L 23.32220458984375,13.642166137695312 L 23.530715942382812,14.140914916992188 L 23.725799560546875,14.6380615234375 L 23.756546020507812,15.138046264648438 L 23.593353271484375,15.638031005859375 L 23.361404418945312,16.114410400390625 L 22.926544189453125,16.379959106445312 L 22.426559448242188,16.331619262695312 L 21.958160400390625,16.07244873046875 L 21.71112060546875,15.60565185546875 L 21.673690795898438,15.10565185546875 L 21.731277465820312,14.60565185546875 L 21.916305541992188,14.10565185546875 L 22.242202758789062,13.664398193359375 L 22.606674194335938,13.282241821289062 L 22.971145629882812,12.892105102539062 L 23.327239990234375,12.476409912109375 M 23.356307983398438,12.628555297851562 L 23.356307983398438,12.628555297851562 L 23.412216186523438,12.878128051757812 L 23.545272827148438,13.202789306640625 L 23.373703002929688,13.244735717773438 L 22.9002685546875,13.47674560546875 M 22.954498291015625,13.6304931640625 L 22.954498291015625,13.6304931640625 L 23.045623779296875,14.130477905273438 M 23.032882690429688,15.243026733398438 L 23.032882690429688,15.243026733398438 L 23.013916015625,15.060516357421875 L 22.947998046875,14.75341796875 L 22.521514892578125,14.4798583984375 L 22.118515014648438,14.85882568359375 L 21.928482055664062,15.3543701171875 L 22.292953491210938,15.749298095703125 L 22.657424926757812,16.14422607421875 L 22.850845336914062,15.64422607421875 L 22.8302001953125,15.14422607421875 M 22.926361083984375,15.274017333984375 L 22.926361083984375,15.274017333984375 L 23.11138916015625,15.579498291015625 L 23.050491333007812,15.406570434570312 L 22.749801635742188,15.128219604492188 L 22.24981689453125,15.171768188476562 L 22.049728393554688,15.66571044921875 L 21.965347290039062,15.213272094726562 L 21.837371826171875,14.713272094726562 L 22.24041748046875,14.934112548828125 L 22.692092895507812,15.260360717773438 L 22.88885498046875,15.759109497070312 L 22.750823974609375,15.882522583007812 L 22.611114501953125,15.573822021484375 L 22.374130249023438,15.175689697265625 L 22.834182739257812,14.902130126953125 L 23.267410278320312,15.030319213867188 L 23.090805053710938,15.5274658203125 L 22.76495361328125,15.9735107421875 L 22.293197631835938,16.197540283203125 L 22.118270874023438,15.713165283203125 L 22.067428588867188,15.213165283203125 L 22.567428588867188,15.20794677734375 L 22.663589477539062,14.70794677734375 L 22.667526245117188,14.20794677734375 M 22.505294799804688,8.207931518554688 L 22.505294799804688,8.207931518554688 L 22.697036743164062,8.700286865234375 L 22.902206420898438,8.204727172851562 L 22.8865966796875,7.7047271728515625 L 22.386611938476562,7.65478515625 L 22.476058959960938,8.154769897460938" fill="none" stroke="#000000" stroke-width="0.009937713623046875"/>
</svg>
