<?xml version="1.0" ?>
<svg baseProfile="full" height="600px" version="1.1" viewBox="16.89895632171631 4.359809898376465 4.887023880004882 13.736968948364257" width="214px" xmlns="http://www.w3.org/2000/svg" xmlns:ev="http://www.w3.org/2001/xml-events" xmlns:xlink="http://www.w3.org/1999/xlink">
	<defs/>
	<path d="M 20.523147583007812,10.129669189453125 L 20.523147583007812,10.129669189453125 L 20.746749877929688,9.769866943359375 L 21.024017333984375,9.331802368164062 L 21.27947998046875,8.847427368164062 L 21.37396240234375,8.347427368164062 L 21.30804443359375,7.8474273681640625 L 21.19012451171875,7.3582611083984375 L 21.038665771484375,6.8738861083984375 L 20.8486328125,6.40228271484375 L 20.63848876953125,5.9434661865234375 L 20.193572998046875,5.690673828125 L 19.693588256835938,5.5640716552734375 L 19.193603515625,5.5093231201171875 L 18.693618774414062,5.6902313232421875 L 18.285598754882812,6.067596435546875 L 18.010040283203125,6.5279998779296875 L 17.830078125,7.021942138671875 L 17.710479736328125,7.5219268798828125 L 17.688156127929688,8.02191162109375 L 17.740707397460938,8.521896362304688 L 17.853622436523438,9.021881103515625 L 18.107406616210938,9.482284545898438 L 18.436660766601562,9.882003784179688 L 18.804489135742188,10.257766723632812 L 19.267898559570312,10.508941650390625 L 19.767898559570312,10.576446533203125 L 20.267898559570312,10.623184204101562 L 20.734649658203125,10.360809326171875 L 20.81402587890625,9.860809326171875 M 20.216659545898438,7.592071533203125 L 20.216659545898438,7.592071533203125 L 20.24908447265625,7.092071533203125 L 19.749099731445312,6.9095611572265625 L 19.249114990234375,7.0361480712890625 L 18.770660400390625,7.30010986328125 L 18.582321166992188,7.798858642578125 L 18.765670776367188,8.286422729492188 L 19.0345458984375,8.732467651367188 L 19.375534057617188,9.130584716796875 L 19.875534057617188,9.029525756835938 L 20.21148681640625,8.628204345703125 L 20.169036865234375,8.128204345703125 L 20.0880126953125,7.628204345703125 L 20.000289916992188,7.128204345703125 M 19.333526611328125,8.063385009765625 L 19.333526611328125,8.063385009765625 L 19.674514770507812,7.7850341796875 L 19.502944946289062,7.849334716796875 L 19.091567993164062,8.181976318359375 L 19.120635986328125,7.9994659423828125 L 19.265426635742188,7.5725860595703125 L 19.160934448242188,7.4395751953125 L 19.076553344726562,7.1564483642578125 L 19.21295166015625,7.377288818359375 L 19.41644287109375,7.8137359619140625 L 19.5394287109375,7.92596435546875 L 19.72613525390625,8.153182983398438 M 19.895233154296875,12.392166137695312 L 19.895233154296875,12.392166137695312 L 19.420120239257812,12.125 L 18.98358154296875,11.817901611328125 L 18.483596801757812,12.049911499023438 L 18.083953857421875,12.430465698242188 L 17.754745483398438,12.873306274414062 L 17.455718994140625,13.319351196289062 L 17.31097412109375,13.816497802734375 L 17.388671875,14.316482543945312 L 17.494888305664062,14.81646728515625 L 17.601104736328125,15.316452026367188 L 17.787811279296875,15.810394287109375 L 17.981231689453125,16.302749633789062 L 18.258499145507812,16.748794555664062 L 18.73699951171875,16.947265625 L 19.23699951171875,16.945220947265625 L 19.73699951171875,16.821792602539062 L 20.1282958984375,16.482757568359375 L 20.454193115234375,16.079833984375 L 20.749908447265625,15.660934448242188 L 20.929916381835938,15.178146362304688 L 20.897537231445312,14.688980102539062 L 20.781295776367188,14.199813842773438 L 20.6533203125,13.713836669921875 L 20.520309448242188,13.227859497070312 L 20.387298583984375,12.74188232421875 L 20.254287719726562,12.255905151367188 M 19.272369384765625,14.590774536132812 L 19.272369384765625,14.590774536132812 L 19.3685302734375,14.090774536132812 L 19.300933837890625,13.590774536132812 L 18.857696533203125,13.312423706054688 L 18.533523559570312,13.758468627929688 L 18.592788696289062,14.258453369140625 L 18.652053833007812,14.758438110351562 L 18.728073120117188,15.2584228515625 L 19.164657592773438,15.576675415039062 L 19.285980224609375,15.082717895507812 L 19.007080078125,14.646255493164062 M 18.8271484375,14.200942993164062 L 18.8271484375,14.200942993164062 L 19.096023559570312,13.74371337890625 L 19.028427124023438,14.109893798828125 L 19.205078125,14.609878540039062 L 19.10394287109375,14.795578002929688 L 18.71099853515625,15.164962768554688 L 18.681976318359375,15.014389038085938 L 18.637847900390625,14.514389038085938" fill="none" stroke="#000000" stroke-width="0.011437942504882812"/>
</svg>
