<?xml version="1.0" ?>
<svg baseProfile="full" height="600px" version="1.1" viewBox="11.56600163269043 6.040662887573243 6.73249868774414 11.79144644165039" width="343px" xmlns="http://www.w3.org/2000/svg" xmlns:ev="http://www.w3.org/2001/xml-events" xmlns:xlink="http://www.w3.org/1999/xlink">
	<defs/>
	<path d="M 15.083953857421875,11.493911743164062 L 15.083953857421875,11.493911743164062 L 15.295822143554688,11.014328002929688 L 15.41546630859375,10.514328002929688 L 15.02252197265625,10.157730102539062 L 14.522537231445312,10.0518798828125 L 14.022552490234375,10.116180419921875 L 13.522567749023438,10.316253662109375 L 13.169876098632812,10.728759765625 L 13.028488159179688,11.227508544921875 L 13.13470458984375,11.727493286132812 L 13.24761962890625,12.22747802734375 L 13.583572387695312,12.627197265625 L 14.025192260742188,12.923095703125 L 14.525192260742188,12.988998413085938 L 15.002029418945312,12.788909912109375 L 15.264205932617188,12.339675903320312 L 15.410659790039062,11.8616943359375 L 15.471603393554688,11.3773193359375 L 15.490615844726562,10.889739990234375 L 15.421340942382812,10.40216064453125 M 13.609176635742188,7.3120880126953125 L 13.609176635742188,7.3120880126953125 L 14.010543823242188,7.590423583984375 L 14.437057495117188,7.9246673583984375 L 14.861892700195312,8.263687133789062 L 15.285049438476562,8.602706909179688 L 15.584121704101562,9.048751831054688 L 15.779205322265625,9.534713745117188 L 15.923995971679688,10.0318603515625 L 16.025177001953125,10.531845092773438 L 16.131393432617188,11.031829833984375 L 16.235931396484375,11.531814575195312 L 16.264999389648438,12.03179931640625 L 16.217514038085938,12.531784057617188 L 16.096237182617188,13.031768798828125 L 15.9364013671875,13.528915405273438 L 15.76483154296875,14.024459838867188 L 15.5546875,14.508819580078125 L 15.282485961914062,14.958038330078125 L 15.001907348632812,15.407257080078125 L 14.719650268554688,15.856475830078125 L 14.437393188476562,16.305694580078125 L 14.155136108398438,16.754913330078125 L 13.6551513671875,16.780899047851562 L 13.175018310546875,16.56805419921875 L 12.929656982421875,16.117218017578125 L 12.806716918945312,15.632843017578125 L 12.70892333984375,15.146865844726562 L 12.626220703125,14.660888671875 L 12.553573608398438,14.174911499023438 L 12.479248046875,13.688934326171875 L 12.406600952148438,13.204559326171875 L 12.333953857421875,12.718582153320312 L 12.261306762695312,12.23260498046875 L 12.193710327148438,11.746627807617188 L 12.131134033203125,11.260650634765625 L 12.133392333984375,10.7730712890625 L 12.1876220703125,10.285491943359375 L 12.26531982421875,9.79791259765625 L 12.3631591796875,9.310333251953125 L 12.5146484375,8.824356079101562 L 12.709732055664062,8.34796142578125 L 12.978607177734375,7.906707763671875 L 13.249160766601562,7.467041015625 L 13.518035888671875,7.027374267578125 M 14.5433349609375,7.69500732421875 L 14.5433349609375,7.69500732421875 L 15.0433349609375,7.7241668701171875 L 15.443023681640625,7.751739501953125 M 15.411865234375,8.642608642578125 L 15.411865234375,8.642608642578125 L 15.846771240234375,8.919342041015625 L 16.337005615234375,8.994827270507812 L 16.82891845703125,8.911346435546875 M 15.911758422851562,10.314926147460938 L 15.911758422851562,10.314926147460938 L 16.407028198242188,10.284149169921875 L 16.907028198242188,10.250167846679688 L 17.407028198242188,10.2161865234375 M 16.233367919921875,11.498809814453125 L 16.233367919921875,11.498809814453125 L 16.733367919921875,11.523193359375 L 17.233367919921875,11.547576904296875 L 17.733367919921875,11.57196044921875 M 16.311599731445312,13.029815673828125 L 16.311599731445312,13.029815673828125 L 16.803512573242188,13.090927124023438 L 17.303512573242188,13.15045166015625 M 15.9844970703125,14.51409912109375 L 15.9844970703125,14.51409912109375 L 16.4844970703125,14.532089233398438 M 15.322280883789062,15.610260009765625 L 15.322280883789062,15.610260009765625 L 15.822280883789062,15.75921630859375 M 14.673492431640625,16.587387084960938 L 14.673492431640625,16.587387084960938 L 15.1654052734375,16.755523681640625 L 15.660675048828125,16.84539794921875 M 14.320159912109375,11.454208374023438 L 14.320159912109375,11.454208374023438 L 14.14691162109375,10.968231201171875 L 13.646926879882812,10.87677001953125 L 13.155059814453125,11.119964599609375 L 13.067337036132812,11.619949340820312 L 13.542495727539062,11.794464111328125 L 14.042495727539062,11.830032348632812 L 14.474044799804688,11.567657470703125 M 13.13067626953125,11.692230224609375 L 13.13067626953125,11.692230224609375 L 13.63067626953125,11.683807373046875 L 13.877761840820312,11.199432373046875 L 13.377777099609375,11.07122802734375 L 13.209548950195312,11.571212768554688 L 13.666244506835938,11.809616088867188 L 13.774139404296875,12.048019409179688 L 13.6612548828125,11.5572509765625 L 13.5953369140625,11.066482543945312 L 14.0953369140625,11.0069580078125 L 14.132797241210938,11.194244384765625 L 14.1104736328125,11.694229125976562 M 13.52752685546875,11.541610717773438 L 13.52752685546875,11.541610717773438 L 13.027542114257812,11.456527709960938 L 13.527542114257812,11.520828247070312 L 13.4649658203125,11.314361572265625 L 13.038482666015625,11.02642822265625 L 13.283889770507812,11.186553955078125" fill="none" stroke="#000000" stroke-width="0.009818023681640625"/>
</svg>
