<?xml version="1.0" ?>
<svg baseProfile="full" height="600px" version="1.1" viewBox="19.525327682495117 5.774155807495117 1.8890113830566406 9.30676040649414" width="122px" xmlns="http://www.w3.org/2000/svg" xmlns:ev="http://www.w3.org/2001/xml-events" xmlns:xlink="http://www.w3.org/1999/xlink">
	<defs/>
	<path d="M 20.181732177734375,6.83306884765625 L 20.181732177734375,6.83306884765625 L 19.887741088867188,6.867034912109375 L 19.68597412109375,7.362579345703125 L 19.746917724609375,7.8625640869140625 L 20.0057373046875,8.346923828125 L 20.373565673828125,8.737060546875 L 20.373565673828125,8.552947998046875 L 20.41436767578125,8.052947998046875 L 20.443435668945312,7.552947998046875 L 20.312103271484375,7.052947998046875 L 20.150588989257812,6.552947998046875 M 20.121078491210938,7.28216552734375 L 20.121078491210938,7.28216552734375 L 19.885772705078125,7.528564453125 L 20.10601806640625,8.02410888671875 L 20.5040283203125,8.121963500976562 M 20.356674194335938,11.204193115234375 L 20.356674194335938,11.204193115234375 L 20.649032592773438,11.43780517578125 L 20.964874267578125,11.88702392578125 L 21.196853637695312,12.369796752929688 L 21.23095703125,12.869781494140625 L 21.024169921875,13.3685302734375 L 20.787185668945312,13.8544921875 L 20.471389770507812,14.3021240234375 M 20.674362182617188,13.580474853515625 L 20.674362182617188,13.580474853515625 L 20.385406494140625,13.359619140625 L 19.950546264648438,13.049331665039062 L 19.882949829101562,12.549331665039062 L 20.016006469726562,12.049331665039062 L 20.330154418945312,11.632034301757812 L 20.627548217773438,11.209945678710938 M 21.031768798828125,12.982589721679688 L 21.031768798828125,12.982589721679688 L 21.253692626953125,12.570083618164062 L 20.798721313476562,12.280563354492188 L 20.300140380859375,12.523757934570312 L 20.557281494140625,13.00811767578125 L 21.040817260742188,12.918228149414062" fill="none" stroke="#000000" stroke-width="0.007749176025390625"/>
</svg>
