<?xml version="1.0" ?>
<svg baseProfile="full" height="600px" version="1.1" viewBox="18.90216862487793 5.177757614135742 5.596419586181641 11.987899078369141" width="281px" xmlns="http://www.w3.org/2000/svg" xmlns:ev="http://www.w3.org/2001/xml-events" xmlns:xlink="http://www.w3.org/1999/xlink">
	<defs/>
	<path d="M 20.956527709960938,13.267425537109375 L 20.956527709960938,13.267425537109375 L 20.795013427734375,13.314163208007812 L 20.618408203125,13.36090087890625 L 20.441802978515625,13.407638549804688 L 20.26519775390625,13.454376220703125 L 20.088592529296875,13.501113891601562 L 19.913665771484375,13.565414428710938 L 19.7940673828125,13.66485595703125 L 19.709686279296875,13.793045043945312 L 19.630340576171875,13.922836303710938 L 19.571121215820312,14.063812255859375 L 19.51861572265625,14.215957641601562 L 19.466110229492188,14.36810302734375 L 19.438751220703125,14.517059326171875 L 19.436538696289062,14.667617797851562 L 19.455551147460938,14.81976318359375 L 19.4913330078125,14.968719482421875 L 19.560653686523438,15.11767578125 L 19.638351440429688,15.265045166015625 L 19.716049194335938,15.406021118164062 L 19.822265625,15.516647338867188 L 19.930160522460938,15.622482299804688 L 20.038055419921875,15.728317260742188 L 20.179489135742188,15.784637451171875 L 20.3209228515625,15.840957641601562 L 20.460678100585938,15.970748901367188 L 20.650741577148438,16.047836303710938 L 20.844161987304688,16.115341186523438 L 21.040924072265625,16.142913818359375 L 21.2393798828125,16.162506103515625 L 21.437835693359375,16.162506103515625 L 21.6396484375,16.06463623046875 L 21.838104248046875,15.971572875976562 L 22.03656005859375,15.883285522460938 L 22.235015869140625,15.794998168945312 L 22.4334716796875,15.706710815429688 L 22.631927490234375,15.618423461914062 L 22.83038330078125,15.530136108398438 L 23.028839111328125,15.441848754882812 L 23.227294921875,15.31524658203125 L 23.41064453125,15.132736206054688 L 23.555435180664062,14.934249877929688 L 23.629791259765625,14.710220336914062 L 23.658859252929688,14.476593017578125 L 23.579513549804688,14.242965698242188 L 23.431427001953125,14.00775146484375 L 23.239715576171875,13.820449829101562 L 23.04632568359375,13.690643310546875 L 22.851272583007812,13.580001831054688 L 22.631072998046875,13.4901123046875 L 22.410873413085938,13.400222778320312 L 22.188995361328125,13.339096069335938 L 21.967117309570312,13.290756225585938 L 21.7703857421875,13.366241455078125 L 21.573654174804688,13.441726684570312 L 21.37860107421875,13.5172119140625 L 21.155044555664062,13.511993408203125 L 20.926437377929688,13.455657958984375 L 20.6961669921875,13.389739990234375 L 20.469253540039062,13.33819580078125 M 20.886978149414062,14.925933837890625 L 20.886978149414062,14.925933837890625 L 20.886444091796875,15.161148071289062 L 21.0362548828125,15.151123046875 L 21.18438720703125,15.118743896484375 L 21.345947265625,15.065597534179688 L 21.524276733398438,15.006072998046875 L 21.675765991210938,14.911407470703125 L 21.766891479492188,14.733688354492188 L 21.7674560546875,14.464935302734375 L 21.636123657226562,14.18499755859375 L 21.367279052734375,14.120681762695312 L 21.08837890625,14.172210693359375 L 20.8363037109375,14.270065307617188 L 20.631179809570312,14.529220581054688 L 20.545120239257812,14.78997802734375 L 20.545684814453125,15.090667724609375 L 20.720657348632812,15.077468872070312 L 20.904006958007812,14.946060180664062 L 21.087356567382812,14.814651489257812 L 21.270706176757812,14.681640625 L 21.454055786132812,14.548629760742188 L 21.438446044921875,14.27667236328125 L 21.198104858398438,14.05902099609375 L 20.986282348632812,14.332565307617188 L 20.985748291015625,14.784988403320312 L 21.070175170898438,15.213455200195312 L 21.3876953125,15.2314453125 L 21.607940673828125,14.9371337890625 L 21.550399780273438,14.594894409179688 L 21.311737060546875,14.390029907226562 L 21.069732666015625,14.516616821289062 L 20.971939086914062,14.822097778320312 M 21.082992553710938,9.347305297851562 L 21.082992553710938,9.347305297851562 L 20.777267456054688,9.311737060546875 L 20.399429321289062,9.258590698242188 L 20.112136840820312,9.044143676757812 L 19.824844360351562,8.829696655273438 L 19.555999755859375,8.529006958007812 L 19.372695922851562,8.172409057617188 L 19.38165283203125,7.7918548583984375 L 19.4593505859375,7.4113006591796875 L 19.67791748046875,7.0403289794921875 L 19.9417724609375,6.7268524169921875 L 20.23748779296875,6.498016357421875 L 20.548294067382812,6.29315185546875 L 20.88592529296875,6.180908203125 L 21.223556518554688,6.20208740234375 L 21.561187744140625,6.2280731201171875 L 21.900497436523438,6.2508544921875 L 22.238128662109375,6.318359375 L 22.575759887695312,6.4769134521484375 L 22.91339111328125,6.6402435302734375 L 23.24432373046875,6.8227386474609375 L 23.556793212890625,7.030792236328125 L 23.795501708984375,7.3250885009765625 L 23.940292358398438,7.651336669921875 L 24.028060913085938,8.019119262695312 L 23.9923095703125,8.38690185546875 L 23.938125610351562,8.753082275390625 L 23.733001708984375,9.103286743164062 L 23.390380859375,9.429534912109375 L 22.98236083984375,9.6727294921875 L 22.524032592773438,9.821685791015625 L 22.05059814453125,9.81646728515625 L 21.577163696289062,9.756942749023438 L 21.103729248046875,9.697418212890625 L 20.628616333007812,9.497329711914062 L 20.203811645507812,9.222183227539062 L 19.963470458984375,8.739395141601562 M 21.265487670898438,8.070480346679688 L 21.265487670898438,8.070480346679688 L 21.0318603515625,8.07568359375 L 20.798233032226562,8.092071533203125 L 20.56292724609375,8.0006103515625 L 20.389678955078125,7.62005615234375 L 20.41204833984375,7.2059478759765625 L 20.744659423828125,6.8317718505859375 L 21.125900268554688,6.79620361328125 L 21.456832885742188,7.0218353271484375 L 21.747512817382812,7.2841949462890625 L 21.99627685546875,7.5784912109375 L 22.1192626953125,7.93988037109375 L 21.880599975585938,8.314041137695312 L 21.380615234375,8.418289184570312 L 20.880630493164062,8.296463012695312 L 20.410552978515625,8.029296875 L 20.45135498046875,7.529296875 L 20.795700073242188,7.116790771484375 L 21.289291381835938,7.3488006591796875 L 21.621902465820312,7.793243408203125 L 21.151824951171875,8.038040161132812 L 20.651840209960938,7.85552978515625 L 20.908981323242188,7.3647613525390625 L 21.348922729492188,7.6846160888671875 L 21.37799072265625,8.184600830078125 L 20.948150634765625,7.87750244140625 L 20.7547607421875,7.4122772216796875 L 21.2547607421875,7.5452728271484375 L 21.03790283203125,8.04241943359375" fill="none" stroke="#000000" stroke-width="0.009981597900390625"/>
</svg>
