<?xml version="1.0" ?>
<svg baseProfile="full" height="600px" version="1.1" viewBox="15.350139022827149 7.377093673706055 2.4929745178222658 8.94258999633789" width="168px" xmlns="http://www.w3.org/2000/svg" xmlns:ev="http://www.w3.org/2001/xml-events" xmlns:xlink="http://www.w3.org/1999/xlink">
	<defs/>
	<path d="M 16.367828369140625,12.586654663085938 L 16.367828369140625,12.586654663085938 L 16.557891845703125,12.871368408203125 L 16.788192749023438,13.245529174804688 L 17.020172119140625,13.693161010742188 L 17.252151489257812,14.140792846679688 L 17.485809326171875,14.620376586914062 L 17.63226318359375,15.120361328125 M 17.433319091796875,14.9326171875 L 17.433319091796875,14.9326171875 L 17.206405639648438,14.9241943359375 L 16.97613525390625,15.022048950195312 L 16.747528076171875,15.13427734375 L 16.5189208984375,15.132232666015625 L 16.37921142578125,14.829940795898438 L 16.408279418945312,14.657012939453125 L 16.437347412109375,14.388259887695312 L 16.43011474609375,14.09234619140625 L 16.370895385742188,13.796432495117188 L 16.201004028320312,13.500518798828125 L 16.201004028320312,13.159881591796875 L 16.396087646484375,12.721817016601562 L 16.631423950195312,12.622360229492188 M 16.864547729492188,13.742889404296875 L 16.864547729492188,13.742889404296875 L 16.801971435546875,14.029205322265625 L 16.976943969726562,14.336288452148438 L 17.381668090820312,14.360671997070312 M 15.826568603515625,12.785232543945312 L 15.826568603515625,12.785232543945312 L 15.824356079101562,13.014053344726562 L 15.751708984375,13.327529907226562 L 15.9417724609375,13.642593383789062 L 16.049667358398438,14.122177124023438 L 16.020645141601562,14.622161865234375 L 16.08660888671875,15.122146606445312 L 16.3118896484375,15.571365356445312 M 17.051116943359375,12.601699829101562 L 17.051116943359375,12.601699829101562 L 16.83929443359375,12.478271484375 L 16.546981811523438,12.295761108398438 L 16.607925415039062,12.473464965820312 M 16.419647216796875,11.618408203125 L 16.419647216796875,11.618408203125 L 16.658355712890625,11.536529541015625 L 17.032882690429688,11.464218139648438 L 17.42755126953125,11.581222534179688 M 17.247055053710938,11.456649780273438 L 17.247055053710938,11.456649780273438 L 17.256011962890625,11.956634521484375 M 16.798309326171875,11.669448852539062 L 16.798309326171875,11.669448852539062 L 16.712249755859375,11.237762451171875 M 16.434524536132812,10.749008178710938 L 16.434524536132812,10.749008178710938 L 16.19586181640625,10.749435424804688 L 16.25177001953125,10.61004638671875 L 16.409957885742188,10.298171997070312 L 16.779464721679688,9.933578491210938 L 17.009765625,9.449203491210938 L 17.2384033203125,8.963226318359375 L 17.467041015625,8.477249145507812 M 17.064666748046875,8.915725708007812 L 17.064666748046875,8.915725708007812 L 17.068603515625,8.632598876953125 L 16.782989501953125,8.4117431640625 L 16.537628173828125,8.536758422851562 L 16.36773681640625,8.749603271484375 L 16.202865600585938,8.996002197265625 L 16.243667602539062,9.459609985351562 L 16.304611206054688,9.9232177734375 L 16.412506103515625,10.386825561523438 L 16.627731323242188,10.516616821289062 M 16.905059814453125,9.20037841796875 L 16.905059814453125,9.20037841796875 L 16.706649780273438,9.309402465820312 L 16.436126708984375,9.53662109375 L 16.666427612304688,9.929946899414062 M 15.730880737304688,10.219879150390625 L 15.730880737304688,10.219879150390625 L 15.560989379882812,9.947921752929688 L 15.561553955078125,9.50506591796875 L 15.709686279296875,9.035064697265625 L 15.913177490234375,8.541107177734375 L 16.254165649414062,8.125411987304688" fill="none" stroke="#000000" stroke-width="0.007445953369140625"/>
</svg>
