<?xml version="1.0" ?>
<svg baseProfile="full" height="600px" version="1.1" viewBox="17.69274010467529 6.991595695495605 3.8377100982666015 8.865456680297852" width="260px" xmlns="http://www.w3.org/2000/svg" xmlns:ev="http://www.w3.org/2001/xml-events" xmlns:xlink="http://www.w3.org/1999/xlink">
	<defs/>
	<path d="M 19.83770751953125,8.084121704101562 L 19.83770751953125,8.084121704101562 L 19.69464111328125,7.9191741943359375 L 19.499588012695312,7.73345947265625 L 19.113357543945312,7.86004638671875 L 18.643280029296875,8.122406005859375 L 18.458297729492188,8.62115478515625 L 18.4588623046875,9.121139526367188 L 18.692520141601562,9.616683959960938 L 19.150894165039062,9.888626098632812 L 19.6361083984375,9.91619873046875 L 20.1011962890625,9.703353881835938 L 20.433807373046875,9.324386596679688 L 20.414840698242188,8.832015991210938 L 20.260025024414062,8.349227905273438 L 19.806716918945312,8.10601806640625 L 19.324905395507812,8.3555908203125 M 19.708648681640625,12.09228515625 L 19.708648681640625,12.09228515625 L 19.399551391601562,12.12945556640625 L 18.9630126953125,12.455703735351562 L 18.531509399414062,12.785140991210938 L 18.146957397460938,13.160903930664062 L 18.015625,13.65484619140625 L 18.032958984375,14.148788452148438 L 18.139175415039062,14.641143798828125 L 18.55731201171875,14.889129638671875 L 19.005630493164062,15.081222534179688 L 19.482467651367188,15.115188598632812 L 19.9693603515625,14.985382080078125 L 20.439468383789062,14.769332885742188 L 20.837478637695312,14.46063232421875 L 21.193572998046875,14.104034423828125 L 21.207565307617188,13.619659423828125 L 21.024261474609375,13.149658203125 L 20.592758178710938,12.877700805664062 L 20.1226806640625,12.671234130859375 L 19.640869140625,12.498306274414062 L 19.25128173828125,12.186431884765625 M 20.1337890625,13.782913208007812 L 20.1337890625,13.782913208007812 L 20.171249389648438,13.282913208007812 L 19.699493408203125,13.530899047851562 L 19.524566650390625,14.0308837890625 L 19.96282958984375,14.357131958007812 L 20.07574462890625,13.872756958007812 M 19.778656005859375,8.830886840820312 L 19.778656005859375,8.830886840820312 L 19.664093017578125,8.483871459960938 L 19.3499755859375,8.432327270507812 L 18.987228393554688,8.825653076171875 L 19.244369506835938,9.313217163085938 L 19.73126220703125,9.167434692382812 L 19.788848876953125,8.667434692382812" fill="none" stroke="#000000" stroke-width="0.007381729125976563"/>
</svg>
