<?xml version="1.0" ?>
<svg baseProfile="full" height="600px" version="1.1" viewBox="16.226612915039063 5.297636474609375 4.018087646484375 10.845065185546876" width="223px" xmlns="http://www.w3.org/2000/svg" xmlns:ev="http://www.w3.org/2001/xml-events" xmlns:xlink="http://www.w3.org/1999/xlink">
	<defs/>
	<path d="M 18.295425415039062,8.546478271484375 L 18.295425415039062,8.546478271484375 L 18.115463256835938,8.363967895507812 L 17.861724853515625,8.111175537109375 L 17.542572021484375,7.7529754638671875 L 17.360946655273438,7.25421142578125 L 17.609710693359375,6.7634429931640625 L 18.014434814453125,6.42120361328125 L 18.472808837890625,6.2051544189453125 L 18.963043212890625,6.303009033203125 L 19.402984619140625,6.5973052978515625 L 19.707077026367188,7.0433502197265625 L 19.900497436523438,7.5085601806640625 L 19.906097412109375,7.9945220947265625 L 19.73284912109375,8.442153930664062 L 19.348297119140625,8.674163818359375 L 18.848312377929688,8.773605346679688 L 18.34832763671875,8.758804321289062 L 17.948684692382812,8.668914794921875 M 18.292037963867188,12.7135009765625 L 18.292037963867188,12.7135009765625 L 18.063430786132812,12.529388427734375 L 17.657073974609375,12.185546875 L 17.157089233398438,12.001434326171875 L 16.8983154296875,12.231842041015625 L 16.661331176757812,12.708221435546875 L 16.565216064453125,13.208206176757812 L 16.622802734375,13.70819091796875 L 16.839706420898438,14.205337524414062 L 17.105224609375,14.689697265625 L 17.437835693359375,15.132537841796875 L 17.937835693359375,15.235183715820312 L 18.416336059570312,14.971206665039062 L 18.69696044921875,14.518768310546875 L 18.82666015625,14.018768310546875 L 18.826126098632812,13.518768310546875 L 18.771942138671875,13.018768310546875 L 18.702667236328125,12.518768310546875" fill="none" stroke="#000000" stroke-width="0.009030029296875"/>
</svg>
