<?xml version="1.0" ?>
<svg baseProfile="full" height="600px" version="1.1" viewBox="15.911523681640626 4.819058471679687 3.7989008789062497 14.5281123046875" width="157px" xmlns="http://www.w3.org/2000/svg" xmlns:ev="http://www.w3.org/2001/xml-events" xmlns:xlink="http://www.w3.org/1999/xlink">
	<defs/>
	<path d="M 17.704742431640625,7.4636993408203125 L 17.704742431640625,7.4636993408203125 L 17.785812377929688,7.6142578125 L 17.876937866210938,7.7823944091796875 L 17.983154296875,7.9776611328125 L 18.089370727539062,8.172927856445312 L 18.195587158203125,8.368194580078125 L 18.301803588867188,8.563461303710938 L 18.332550048828125,8.725189208984375 L 18.363296508789062,8.886917114257812 L 18.363296508789062,9.168441772460938 L 18.317489624023438,9.491500854492188 L 18.2633056640625,9.822540283203125 L 18.100112915039062,10.148788452148438 L 17.9000244140625,10.47503662109375 L 17.65802001953125,10.753372192382812 L 17.441162109375,11.022125244140625 M 17.328277587890625,10.92266845703125 L 17.328277587890625,10.92266845703125 L 17.2120361328125,10.792861938476562 L 17.080703735351562,10.608749389648438 L 16.94769287109375,10.408660888671875 L 16.814682006835938,10.1766357421875 L 16.676651000976562,9.944610595703125 L 16.548675537109375,9.71258544921875 L 16.4290771484375,9.4677734375 L 16.3497314453125,9.21337890625 L 16.353668212890625,8.96539306640625 L 16.44647216796875,8.773300170898438 L 16.676773071289062,8.362380981445312 L 16.9573974609375,7.9227142333984375 L 17.238021850585938,7.4830474853515625 L 17.480072021484375,7.17755126953125 M 17.357864379882812,13.420623779296875 L 17.357864379882812,13.420623779296875 L 17.442291259765625,13.751663208007812 L 17.541793823242188,14.19610595703125 L 17.728500366210938,14.640548706054688 L 17.9437255859375,15.124908447265625 L 17.97113037109375,15.624893188476562 L 17.854888916015625,16.1248779296875 L 17.621261596679688,16.612442016601562 L 17.33062744140625,17.061660766601562 M 17.187713623046875,17.029251098632812 L 17.187713623046875,17.029251098632812 L 17.073150634765625,16.897842407226562 L 16.920013427734375,16.710540771484375 L 16.766876220703125,16.516845703125 L 16.613739013671875,16.323150634765625 L 16.45892333984375,16.1007080078125 L 16.3057861328125,15.851119995117188 L 16.233139038085938,15.577560424804688 L 16.263885498046875,15.227340698242188 L 16.401962280273438,14.7557373046875 L 16.592025756835938,14.26336669921875 L 16.812271118164062,13.77099609375 L 17.050979614257812,13.280227661132812 L 17.294708251953125,12.874114990234375 M 16.536651611328125,15.095199584960938 L 16.536651611328125,15.095199584960938 L 16.521041870117188,15.32720947265625 L 16.510452270507812,15.58636474609375 L 16.54119873046875,15.850326538085938 L 16.618896484375,16.112686157226562 L 16.765350341796875,16.196151733398438 L 16.95037841796875,16.29400634765625 L 17.158889770507812,16.340744018554688 L 17.395919799804688,16.226913452148438 L 17.632949829101562,15.919815063476562 L 17.83978271484375,15.504119873046875 L 17.8990478515625,15.066055297851562 L 17.536300659179688,14.7509765625 L 17.03631591796875,14.850418090820312 L 16.613204956054688,15.10479736328125 L 16.330947875976562,15.5045166015625 M 17.170135498046875,15.40179443359375 L 17.170135498046875,15.40179443359375 L 17.136062622070312,15.1378173828125 L 16.979568481445312,14.792404174804688 L 16.861648559570312,14.931777954101562 M 16.78790283203125,15.37823486328125 L 16.78790283203125,15.37823486328125 M 16.872467041015625,15.442062377929688 L 16.872467041015625,15.442062377929688 L 16.908248901367188,15.600616455078125 L 16.94403076171875,15.770339965820312 M 16.95367431640625,15.277084350585938 L 16.95367431640625,15.277084350585938 M 16.92303466796875,15.260665893554688 L 16.92303466796875,15.260665893554688 L 16.764877319335938,15.3984375 L 16.608383178710938,15.536209106445312 M 17.117843627929688,15.714248657226562 L 17.117843627929688,15.714248657226562 L 16.959686279296875,15.944656372070312 M 18.015884399414062,9.575180053710938 L 18.015884399414062,9.575180053710938 L 18.019821166992188,9.400650024414062 L 18.12603759765625,9.023269653320312 L 18.163497924804688,8.644302368164062 L 18.030487060546875,8.565597534179688 L 17.862258911132812,8.488494873046875 L 17.571624755859375,8.419387817382812 L 17.279312133789062,8.382217407226562 L 16.988677978515625,8.382644653320312 L 16.765121459960938,8.464523315429688 L 16.647201538085938,8.635833740234375 L 16.569534301757812,8.866241455078125 L 16.495208740234375,9.112640380859375 L 16.454437255859375,9.360626220703125 L 16.437149047851562,9.611801147460938 L 16.449462890625,9.861373901367188 L 16.5372314453125,10.155670166015625 L 16.806106567382812,10.24713134765625 L 17.036407470703125,10.070999145507812 L 17.22479248046875,9.818206787109375 L 17.41485595703125,9.629302978515625 M 16.927520751953125,9.862594604492188 L 16.927520751953125,9.862594604492188 L 17.0555419921875,9.947662353515625 L 17.20367431640625,10.03912353515625 L 17.351806640625,10.140167236328125 L 17.412750244140625,9.991195678710938 L 17.495498657226562,9.80548095703125 L 17.601715087890625,9.592636108398438 L 17.701217651367188,9.70806884765625 L 17.80743408203125,9.869796752929688 M 17.971221923828125,9.895355224609375 L 17.971221923828125,9.895355224609375 L 18.030487060546875,9.7208251953125 L 18.089752197265625,9.544692993164062 L 18.149017333984375,9.368560791015625 M 18.118316650390625,9.531890869140625 L 18.118316650390625,9.531890869140625 L 18.072509765625,9.711196899414062 L 18.026702880859375,9.8905029296875 L 17.9775390625,10.074600219726562 L 17.893157958984375,10.22515869140625 L 17.766860961914062,10.324600219726562 L 17.575149536132812,10.40008544921875 L 17.319732666015625,10.469192504882812 M 17.08111572265625,10.147720336914062 L 17.08111572265625,10.147720336914062 L 17.23260498046875,10.212020874023438 L 17.42266845703125,10.277923583984375 L 17.624481201171875,10.343826293945312 M 17.315505981445312,9.182083129882812 L 17.315505981445312,9.182083129882812 L 17.505569458007812,9.188888549804688 L 17.72247314453125,9.175689697265625 L 17.949432373046875,9.19207763671875 L 18.053970336914062,9.436874389648438 L 18.103179931640625,9.708816528320312 L 18.002044677734375,9.98394775390625 L 17.785186767578125,10.048248291015625 L 17.479461669921875,10.048248291015625 L 17.188827514648438,9.856155395507812 L 16.899871826171875,9.659271240234375 L 16.735000610351562,9.42724609375 L 16.7791748046875,9.214401245117188 L 16.932342529296875,9.070220947265625 L 17.13751220703125,9.070220947265625 L 17.367813110351562,9.14251708984375 L 17.572982788085938,9.385711669921875 L 17.719436645507812,9.758270263671875 M 18.164535522460938,11.109542846679688 L 18.164535522460938,11.109542846679688 L 18.334487915039062,11.061203002929688 L 18.574874877929688,10.934600830078125 L 18.842071533203125,10.745697021484375 L 19.063995361328125,10.377914428710938 L 19.171890258789062,9.96221923828125 L 19.23785400390625,9.520965576171875 L 19.298797607421875,9.042984008789062 L 19.35302734375,8.552215576171875 L 19.388809204101562,8.052215576171875 L 19.22393798828125,7.552215576171875 L 18.986953735351562,7.06463623046875 L 18.657745361328125,6.631378173828125 L 18.222885131835938,6.2939453125 L 17.78802490234375,6.0347747802734375 M 18.126068115234375,12.892501831054688 L 18.126068115234375,12.892501831054688 L 18.269180297851562,13.12451171875 L 18.509567260742188,13.476318359375 L 18.763351440429688,13.844100952148438 L 18.970184326171875,14.34124755859375 L 19.121673583984375,14.841232299804688 L 19.1826171875,15.341217041015625 L 19.073089599609375,15.841201782226562 L 18.930023193359375,16.3411865234375 L 18.766830444335938,16.841171264648438 L 18.598602294921875,17.341156005859375 L 18.24591064453125,17.769622802734375 L 17.774154663085938,18.006439208984375 L 17.274169921875,18.131454467773438" fill="none" stroke="#000000" stroke-width="0.0120966796875"/>
</svg>
