<?xml version="1.0" ?>
<svg baseProfile="full" height="600px" version="1.1" viewBox="17.455211456298827 5.253197296142578 5.193825134277343 11.657484802246094" width="268px" xmlns="http://www.w3.org/2000/svg" xmlns:ev="http://www.w3.org/2001/xml-events" xmlns:xlink="http://www.w3.org/1999/xlink">
	<defs/>
	<path d="M 18.717681884765625,12.682464599609375 L 18.717681884765625,12.682464599609375 L 19.217681884765625,12.6988525390625 L 19.717681884765625,12.716842651367188 L 20.217681884765625,12.738021850585938 L 20.717681884765625,12.759201049804688 L 21.217681884765625,12.88421630859375 L 21.666000366210938,13.14337158203125 L 21.976806640625,13.560653686523438 L 22.057876586914062,14.059402465820312 L 22.017105102539062,14.55938720703125 L 21.838821411132812,15.056533813476562 L 21.51129150390625,15.494583129882812 L 21.042892456054688,15.717010498046875 L 20.54290771484375,15.802078247070312 L 20.042922973632812,15.82965087890625 L 19.542938232421875,15.857223510742188 L 19.042953491210938,15.883209228515625 L 18.54296875,15.909194946289062 L 18.042984008789062,15.9351806640625 M 18.065353393554688,15.751068115234375 L 18.065353393554688,15.751068115234375 L 18.257095336914062,15.258697509765625 L 18.443801879882812,14.758697509765625 L 18.632186889648438,14.258697509765625 L 18.562911987304688,13.758697509765625 L 18.325927734375,13.299880981445312 L 18.14764404296875,12.829879760742188 L 18.183425903320312,12.329879760742188 M 18.727691650390625,13.71868896484375 L 18.727691650390625,13.71868896484375 L 19.201171875,13.61444091796875 L 19.689743041992188,13.613998413085938 L 20.02569580078125,14.0057373046875 L 20.01678466796875,14.498092651367188 L 19.627197265625,14.8626708984375 L 19.127212524414062,14.877471923828125 L 18.627227783203125,14.790786743164062 L 18.127243041992188,14.7041015625 M 18.653594970703125,10.2108154296875 L 18.653594970703125,10.2108154296875 L 19.1136474609375,10.225616455078125 L 19.6038818359375,10.24041748046875 L 20.095794677734375,10.255218505859375 L 20.58770751953125,10.27001953125 L 21.07794189453125,10.234451293945312 L 21.554779052734375,10.093460083007812 L 21.929306030273438,9.764007568359375 L 22.174713134765625,9.327545166015625 L 22.212173461914062,8.835174560546875 L 22.211639404296875,8.342803955078125 L 22.211105346679688,7.850433349609375 L 22.193817138671875,7.358062744140625 L 21.867965698242188,6.9423675537109375 L 21.36798095703125,6.8604888916015625 L 20.867996215820312,6.921600341796875 L 20.368011474609375,7.0194549560546875 L 19.868026733398438,6.9742889404296875 L 19.3680419921875,6.839691162109375 L 18.96002197265625,6.526214599609375 L 18.543609619140625,6.22869873046875 L 18.112106323242188,6.5341796875 L 17.918716430664062,6.9850006103515625 L 18.0584716796875,7.4849853515625 L 18.344131469726562,7.92303466796875 L 18.629791259765625,8.354705810546875 L 18.915451049804688,8.784774780273438 L 19.041793823242188,9.269134521484375 L 18.898727416992188,9.763076782226562 L 18.5728759765625,10.194747924804688 M 18.843841552734375,8.709884643554688 L 18.843841552734375,8.709884643554688 L 19.337432861328125,8.7518310546875 L 19.831024169921875,8.803359985351562 L 20.175369262695312,8.453140258789062 L 20.305068969726562,7.97515869140625 L 19.892013549804688,7.70001220703125 L 19.39202880859375,7.71160888671875 L 18.892044067382812,7.774322509765625 L 18.392059326171875,7.8498077392578125 L 17.892074584960938,7.7679290771484375" fill="none" stroke="#000000" stroke-width="0.00970648193359375"/>
</svg>
