<?xml version="1.0" ?>
<svg baseProfile="full" height="600px" version="1.1" viewBox="18.195501335144044 6.6858959274292 3.8587837066650392 10.490589126586913" width="221px" xmlns="http://www.w3.org/2000/svg" xmlns:ev="http://www.w3.org/2001/xml-events" xmlns:xlink="http://www.w3.org/1999/xlink">
	<defs/>
	<path d="M 19.680801391601562,10.10589599609375 L 19.680801391601562,10.10589599609375 L 19.741744995117188,9.913803100585938 L 19.804367065429688,9.723312377929688 L 19.866989135742188,9.532821655273438 L 19.914520263671875,9.348709106445312 L 19.921798706054688,9.164596557617188 L 19.875991821289062,8.980484008789062 L 19.766464233398438,8.796371459960938 L 19.645187377929688,8.612258911132812 L 19.52056884765625,8.428146362304688 L 19.395950317382812,8.244033813476562 L 19.348464965820312,8.391403198242188 L 19.300979614257812,8.538772583007812 L 19.253494262695312,8.69091796875 L 19.206008911132812,8.843063354492188 L 19.160202026367188,8.993621826171875 L 19.126129150390625,9.148971557617188 L 19.102127075195312,9.3043212890625 L 19.083160400390625,9.459671020507812 L 19.075927734375,9.613418579101562 L 19.111709594726562,9.76397705078125 L 19.172653198242188,9.903350830078125 L 19.233596801757812,10.042724609375 L 19.294540405273438,10.182098388671875 L 19.355484008789062,10.32147216796875 M 19.413070678710938,10.468841552734375 L 19.413070678710938,10.468841552734375 L 19.472335815429688,10.699249267578125 L 19.50811767578125,10.548675537109375 L 19.543899536132812,10.359771728515625 L 19.579681396484375,10.143722534179688 L 19.638946533203125,9.98516845703125 L 19.71832275390625,9.802658081054688 L 19.779266357421875,9.64410400390625 L 19.924057006835938,9.3402099609375 M 19.219955444335938,13.482269287109375 L 19.219955444335938,13.482269287109375 L 19.28424072265625,13.623245239257812 L 19.348526000976562,13.762619018554688 L 19.412811279296875,13.906784057617188 L 19.4737548828125,14.050949096679688 L 19.534698486328125,14.195114135742188 L 19.59564208984375,14.345672607421875 L 19.624710083007812,14.504226684570312 L 19.615798950195312,14.675537109375 L 19.580047607421875,14.84844970703125 L 19.532562255859375,15.0213623046875 L 19.485076904296875,15.19427490234375 L 19.432571411132812,15.368789672851562 L 19.38006591796875,15.543304443359375 L 19.327560424804688,15.717819213867188 L 19.275054931640625,15.892333984375 L 19.222549438476562,16.066848754882812 L 19.1700439453125,16.239761352539062 L 19.073928833007812,16.119537353515625 L 18.959365844726562,15.980148315429688 L 18.844802856445312,15.84075927734375 L 18.730239868164062,15.69976806640625 L 18.613998413085938,15.55877685546875 L 18.554779052734375,15.41778564453125 L 18.520706176757812,15.248062133789062 L 18.520706176757812,15.07513427734375 L 18.524642944335938,14.902206420898438 L 18.526901245117188,14.730880737304688 L 18.529159545898438,14.559555053710938 L 18.531417846679688,14.388229370117188 L 18.533676147460938,14.216903686523438 L 18.564422607421875,14.043975830078125 L 18.613632202148438,13.8966064453125 L 18.662841796875,13.742843627929688 L 18.713729858398438,13.5938720703125 L 18.821624755859375,13.478439331054688 L 18.926162719726562,13.351837158203125 L 19.032379150390625,13.228408813476562 L 19.074874877929688,13.082626342773438 L 19.119049072265625,12.898513793945312 L 19.1380615234375,13.066650390625 L 19.157073974609375,13.287490844726562 M 19.385482788085938,14.795440673828125 L 19.385482788085938,14.795440673828125 L 19.29608154296875,14.923629760742188 L 19.201644897460938,15.05181884765625 L 19.107208251953125,15.1688232421875 L 19.051345825195312,15.023040771484375 L 18.945175170898438,14.83892822265625 L 18.833969116210938,14.654815673828125 L 18.891555786132812,14.510635375976562 L 18.9642333984375,14.328125 L 19.033554077148438,14.144012451171875 L 19.087783813476562,14.29296875 L 19.147048950195312,14.472274780273438 L 19.2130126953125,14.653182983398438 M 19.366226196289062,14.620071411132812 L 19.366226196289062,14.620071411132812 L 19.219818115234375,14.536590576171875 L 19.10693359375,14.430740356445312 L 18.989013671875,14.318496704101562 M 19.135513305664062,14.304092407226562 L 19.135513305664062,14.304092407226562 L 19.261856079101562,14.390762329101562 L 19.342926025390625,14.517349243164062 L 19.425674438476562,14.643936157226562 L 19.520156860351562,14.770523071289062 L 19.614639282226562,14.897109985351562 M 19.5054931640625,9.742263793945312 L 19.5054931640625,9.742263793945312 L 19.409378051757812,9.8736572265625 L 19.308242797851562,10.011428833007812 L 19.335647583007812,9.862457275390625 L 19.374786376953125,9.695907592773438 L 19.432373046875,9.50860595703125 L 19.469833374023438,9.655975341796875 L 19.507293701171875,9.81292724609375 L 19.536361694335938,9.663955688476562 L 19.563766479492188,9.49102783203125 L 19.59619140625,9.321304321289062 M 19.806411743164062,9.41827392578125 L 19.806411743164062,9.41827392578125 L 19.661666870117188,9.527297973632812 L 19.542068481445312,9.620361328125 L 19.417449951171875,9.71661376953125 L 19.319656372070312,9.84320068359375 L 19.149765014648438,10.06243896484375 M 19.858291625976562,9.1182861328125 L 19.858291625976562,9.1182861328125 L 19.742050170898438,8.98687744140625 L 19.625808715820312,8.85546875 L 19.549819946289062,8.994842529296875 L 19.504013061523438,9.139007568359375 L 19.463241577148438,9.31671142578125 L 19.387252807617188,9.473663330078125 L 19.272689819335938,9.705673217773438 M 19.803924560546875,11.25628662109375 L 19.803924560546875,11.25628662109375 L 19.854812622070312,11.105712890625 L 19.90570068359375,10.95513916015625 L 19.956588745117188,10.8045654296875 L 20.007476806640625,10.65399169921875 L 20.058364868164062,10.50341796875 L 20.1092529296875,10.356048583984375 L 20.160140991210938,10.207077026367188 L 20.211029052734375,10.05810546875 L 20.261917114257812,9.909133911132812 L 20.31280517578125,9.760162353515625 L 20.363693237304688,9.611190795898438 L 20.414581298828125,9.46221923828125 L 20.467132568359375,9.313247680664062 L 20.519683837890625,9.164276123046875 L 20.572235107421875,9.015304565429688 L 20.624786376953125,8.8663330078125 L 20.677337646484375,8.717361450195312 L 20.729888916015625,8.568389892578125 L 20.780776977539062,8.4210205078125 L 20.8316650390625,8.273651123046875 L 20.882553100585938,8.12628173828125 L 20.933441162109375,7.978912353515625 L 20.984329223632812,7.83154296875 L 21.03521728515625,7.684173583984375 M 19.93768310546875,11.33160400390625 L 19.93768310546875,11.33160400390625 L 20.030487060546875,11.201797485351562 L 20.124969482421875,11.070388793945312 L 20.219451904296875,10.938980102539062 L 20.248519897460938,10.786819458007812 L 20.279266357421875,10.534027099609375 L 20.310012817382812,10.270050048828125 L 20.34075927734375,10.1051025390625 L 20.389968872070312,9.949737548828125 L 20.444198608398438,9.781600952148438 L 20.498428344726562,9.61346435546875 L 20.554336547851562,9.459701538085938 L 20.613601684570312,9.312332153320312 L 20.689620971679688,9.177734375 L 20.787460327148438,9.049530029296875 L 20.891998291015625,8.922927856445312 L 20.999893188476562,8.797927856445312 L 21.10443115234375,8.67449951171875 L 21.207290649414062,8.546295166015625 L 21.305130004882812,8.416488647460938 L 21.396255493164062,8.285079956054688 L 21.445465087890625,8.140899658203125 L 21.487960815429688,7.9951171875 L 21.45220947265625,7.8461456298828125 M 21.324234008789062,7.7610626220703125 L 21.324234008789062,7.7610626220703125 L 21.161041259765625,7.667999267578125 L 20.992813110351562,7.563751220703125 M 19.623153686523438,12.460723876953125 L 19.623153686523438,12.460723876953125 L 19.727691650390625,12.683151245117188 L 19.833908081054688,12.932723999023438 L 19.94012451171875,13.182296752929688 L 20.046340942382812,13.431869506835938 L 20.145843505859375,13.681442260742188 L 20.240325927734375,13.931015014648438 L 20.334808349609375,14.18218994140625 L 20.4276123046875,14.434967041015625 L 20.517059326171875,14.69732666015625 L 20.604827880859375,14.959686279296875 L 20.687576293945312,15.2220458984375 L 20.766952514648438,15.48919677734375 L 20.844650268554688,15.759536743164062 L 20.922348022460938,16.031478881835938 L 20.995025634765625,16.298629760742188 M 19.765182495117188,12.22900390625 L 19.765182495117188,12.22900390625 L 19.87139892578125,12.336441040039062 L 19.975936889648438,12.463027954101562 L 20.080474853515625,12.589614868164062 L 20.185012817382812,12.716201782226562 L 20.28955078125,12.842788696289062 L 20.358871459960938,13.0045166015625 L 20.39801025390625,13.202987670898438 L 20.420379638671875,13.431808471679688 L 20.4427490234375,13.660629272460938 L 20.46343994140625,13.891036987304688 L 20.521026611328125,14.119857788085938 L 20.625564575195312,14.350265502929688 L 20.73345947265625,14.556716918945312 L 20.839675903320312,14.753585815429688 L 20.94757080078125,14.950454711914062 L 21.055465698242188,15.147323608398438 L 21.171737670898438,15.30267333984375 L 21.289688110351562,15.458023071289062 L 21.434478759765625,15.5606689453125 L 21.58428955078125,15.642547607421875 L 21.729080200195312,15.72283935546875 M 21.648056030273438,15.84942626953125 L 21.648056030273438,15.84942626953125 L 21.556976318359375,15.982421875 L 21.460861206054688,16.121795654296875 L 21.359725952148438,16.2515869140625 L 21.211639404296875,16.277572631835938 L 21.0601806640625,16.277572631835938 L 20.908721923828125,16.2308349609375" fill="none" stroke="#000000" stroke-width="0.008734878540039062"/>
</svg>
