<?xml version="1.0" ?>
<svg baseProfile="full" height="600px" version="1.1" viewBox="19.19719812774658 6.754343818664551 4.479688217163086 11.274896957397461" width="239px" xmlns="http://www.w3.org/2000/svg" xmlns:ev="http://www.w3.org/2001/xml-events" xmlns:xlink="http://www.w3.org/1999/xlink">
	<defs/>
	<path d="M 21.6715087890625,14.240798950195312 L 21.6715087890625,14.240798950195312 L 21.781082153320312,14.396148681640625 L 21.890655517578125,14.551498413085938 L 22.000228881835938,14.7164306640625 L 22.104766845703125,14.890945434570312 L 22.195892333984375,15.07025146484375 L 22.228317260742188,15.254348754882812 L 22.172454833984375,15.438446044921875 L 22.08807373046875,15.619354248046875 L 22.003692626953125,15.800262451171875 L 21.915969848632812,15.984359741210938 L 21.8282470703125,16.16845703125 L 21.738845825195312,16.363723754882812 L 21.64776611328125,16.565399169921875 L 21.555007934570312,16.763870239257812 L 21.363296508789062,16.960739135742188 L 21.107879638671875,17.08575439453125 L 20.844070434570312,16.999069213867188 L 20.602066040039062,16.8133544921875 L 20.3701171875,16.613265991210938 L 20.232086181640625,16.338119506835938 L 20.139328002929688,16.048599243164062 L 20.054946899414062,15.751083374023438 L 20.0208740234375,15.443984985351562 L 20.068405151367188,15.136886596679688 L 20.159530639648438,14.829788208007812 L 20.270767211914062,14.527496337890625 L 20.45245361328125,14.27630615234375 L 20.640838623046875,14.119354248046875 L 20.8292236328125,13.967193603515625 L 21.020965576171875,13.827804565429688 L 21.216049194335938,13.699600219726562 L 21.4111328125,13.636871337890625 L 21.587783813476562,13.721939086914062 L 21.72418212890625,13.87249755859375 L 21.848846435546875,14.03582763671875 L 21.956741333007812,14.211944580078125 M 21.831634521484375,14.667984008789062 L 21.831634521484375,14.667984008789062 L 21.743911743164062,14.520614624023438 L 21.651153564453125,14.373245239257812 L 21.558395385742188,14.225875854492188 L 21.437118530273438,14.0960693359375 L 21.285659790039062,14.009384155273438 L 21.12750244140625,13.957839965820312 L 20.962631225585938,13.963043212890625 L 20.792739868164062,14.062484741210938 L 20.621170043945312,14.221038818359375 M 21.779495239257812,16.052474975585938 L 21.779495239257812,16.052474975585938 L 21.669967651367188,16.25732421875 L 21.560440063476562,16.462173461914062 L 21.424087524414062,16.65106201171875 L 21.232376098632812,16.726547241210938 L 21.018875122070312,16.72857666015625 L 20.805374145507812,16.707382202148438 L 20.581817626953125,16.587158203125 L 20.364959716796875,16.462158203125 L 20.151458740234375,16.34033203125 M 21.080657958984375,15.510223388671875 L 21.080657958984375,15.510223388671875 L 21.27239990234375,15.463485717773438 L 21.422210693359375,15.33367919921875 L 21.3411865234375,15.207077026367188 L 21.231658935546875,15.080474853515625 L 21.078521728515625,15.108047485351562 L 21.162948608398438,15.236236572265625 L 21.255752563476562,15.362823486328125 L 21.350234985351562,15.54052734375 L 21.197097778320312,15.568099975585938 L 21.017135620117188,15.57012939453125 L 20.83551025390625,15.425949096679688 L 20.89141845703125,15.211502075195312 L 21.078125,14.9986572265625 L 21.224578857421875,15.083724975585938 L 21.2469482421875,15.253448486328125 L 21.120651245117188,15.423171997070312 L 20.940689086914062,15.570541381835938 L 20.928421020507812,15.396011352539062 L 20.952468872070312,15.179962158203125 L 21.026824951171875,15.352874755859375 L 21.121307373046875,15.521011352539062 M 21.823089599609375,13.615982055664062 L 21.823089599609375,13.615982055664062 L 22.019851684570312,13.721817016601562 L 22.241775512695312,13.829254150390625 L 22.460342407226562,13.954269409179688 L 22.655426025390625,14.13836669921875 L 22.8153076171875,14.362396240234375 L 22.943328857421875,14.594406127929688 L 23.052902221679688,14.828018188476562 L 23.100433349609375,15.07281494140625 L 23.102691650390625,15.32080078125 L 23.036773681640625,15.615097045898438 L 22.92724609375,15.9317626953125 L 22.633255004882812,16.250015258789062 L 22.367782592773438,16.6209716796875 L 22.11236572265625,16.9903564453125 M 22.206024169921875,15.969879150390625 L 22.206024169921875,15.969879150390625 L 22.466522216796875,16.058151245117188 M 22.344757080078125,15.494216918945312 L 22.344757080078125,15.494216918945312 L 22.53314208984375,15.44427490234375 L 22.7265625,15.392730712890625 M 22.166580200195312,14.786819458007812 L 22.166580200195312,14.786819458007812 L 22.356643676757812,14.605911254882812 L 22.545028686523438,14.4329833984375 M 21.961593627929688,14.247238159179688 L 21.961593627929688,14.247238159179688 L 22.113082885742188,14.16375732421875 M 21.663970947265625,10.82086181640625 L 21.663970947265625,10.82086181640625 L 21.75677490234375,10.651138305664062 L 21.8546142578125,10.481414794921875 L 21.950775146484375,10.310089111328125 L 22.04693603515625,10.138763427734375 L 22.14141845703125,9.967437744140625 L 22.224166870117188,9.7833251953125 L 22.2633056640625,9.570480346679688 L 22.217498779296875,9.33685302734375 L 22.11468505859375,9.103225708007812 L 22.011871337890625,8.869598388671875 L 21.90570068359375,8.635971069335938 L 21.799530029296875,8.40234375 L 21.6866455078125,8.170318603515625 L 21.553634643554688,7.9366912841796875 L 21.370330810546875,7.7509765625 L 21.128326416015625,7.6978302001953125 L 20.841033935546875,7.822845458984375 L 20.515182495117188,8.05645751953125 L 20.219512939453125,8.339569091796875 L 19.943954467773438,8.656234741210938 L 19.686859130859375,8.977691650390625 L 19.6058349609375,9.415740966796875 L 19.650009155273438,9.855392456054688 L 19.704238891601562,10.2950439453125 L 19.850692749023438,10.69476318359375 L 20.06591796875,11.025802612304688 L 20.341522216796875,11.26739501953125 L 20.63555908203125,11.488235473632812 L 20.974868774414062,11.49664306640625 L 21.289016723632812,11.309341430664062 L 21.53106689453125,11.002243041992188 M 21.531097412109375,10.788192749023438 L 21.531097412109375,10.788192749023438 L 21.320953369140625,10.87646484375 L 21.10577392578125,10.963134765625 L 20.885574340820312,11.027435302734375 L 20.665374755859375,11.055007934570312 L 20.441818237304688,11.016250610351562 L 20.21826171875,10.8896484375 L 19.998062133789062,10.755050659179688 L 19.777862548828125,10.620452880859375 L 19.574417114257812,10.484268188476562 M 20.5208740234375,8.180145263671875 L 20.5208740234375,8.180145263671875 L 20.762924194335938,7.99603271484375 L 21.056961059570312,7.858245849609375 L 21.347640991210938,7.849822998046875 L 21.634979248046875,7.8758087158203125 L 21.895477294921875,7.988037109375 L 21.99163818359375,8.1146240234375 M 20.7716064453125,9.789810180664062 L 20.7716064453125,9.789810180664062 L 20.871109008789062,9.94036865234375 L 21.04608154296875,10.043014526367188 L 21.022079467773438,9.86688232421875 L 20.98297119140625,9.66839599609375 L 20.943862915039062,9.455551147460938 L 20.934951782226562,9.622085571289062 L 20.977447509765625,9.871658325195312 L 20.894744873046875,9.74505615234375 L 20.812042236328125,9.618453979492188 L 20.672332763671875,9.547744750976562 L 20.50244140625,9.477035522460938 L 20.332550048828125,9.603622436523438 L 20.268310546875,9.782928466796875 L 20.309112548828125,9.963836669921875 L 20.353286743164062,9.819656372070312 L 20.392425537109375,9.646728515625 L 20.431564331054688,9.473800659179688 L 20.519332885742188,9.59881591796875 L 20.612136840820312,9.72222900390625 L 20.7938232421875,9.802520751953125 L 21.05767822265625,9.828506469726562 L 20.983352661132812,9.69232177734375 L 20.828536987304688,9.548141479492188 L 20.6435546875,9.536529541015625 L 20.480361938476562,9.634384155273438 L 20.416122436523438,9.813690185546875 L 20.4586181640625,9.994598388671875 L 20.682220458984375,10.1243896484375 L 20.88739013671875,9.946670532226562 L 20.8896484375,9.695480346679688 L 20.7784423828125,9.429916381835938 L 20.825973510742188,9.578872680664062 M 22.160919189453125,11.431350708007812 L 22.160919189453125,11.431350708007812 L 22.203414916992188,11.285568237304688 L 22.247589111328125,11.134994506835938 L 22.306854248046875,10.926925659179688 L 22.3677978515625,10.717254638671875 L 22.44549560546875,10.507583618164062 L 22.53997802734375,10.29791259765625 L 22.693145751953125,10.121780395507812 L 22.84295654296875,9.945648193359375 L 22.992767333984375,9.769515991210938 L 23.13922119140625,9.58221435546875 L 23.253814697265625,9.361358642578125 L 23.299667358398438,9.097381591796875 L 23.235427856445312,8.774322509765625 L 23.063858032226562,8.462448120117188 L 22.808441162109375,8.248001098632812 M 22.002685546875,10.462295532226562 L 22.002685546875,10.462295532226562 L 22.214553833007812,10.540985107421875 L 22.4281005859375,10.62127685546875 M 22.119674682617188,9.924789428710938 L 22.119674682617188,9.924789428710938 L 22.324844360351562,9.941177368164062 L 22.5350341796875,9.963958740234375 M 22.485397338867188,9.264266967773438 L 22.485397338867188,9.264266967773438 L 22.628509521484375,9.182388305664062 L 22.783355712890625,9.098907470703125 L 22.93316650390625,9.015426635742188 M 22.118331909179688,8.743316650390625 L 22.118331909179688,8.743316650390625 L 22.345291137695312,8.613510131835938" fill="none" stroke="#000000" stroke-width="0.009387924194335937"/>
</svg>
