<?xml version="1.0" ?>
<svg baseProfile="full" height="600px" version="1.1" viewBox="17.0392453994751 4.62683390045166 3.753403121948242 13.125436813354492" width="172px" xmlns="http://www.w3.org/2000/svg" xmlns:ev="http://www.w3.org/2001/xml-events" xmlns:xlink="http://www.w3.org/1999/xlink">
	<defs/>
	<path d="M 19.486907958984375,6.2308502197265625 L 19.486907958984375,6.2308502197265625 L 19.531082153320312,6.4740447998046875 L 19.593704223632812,6.7140350341796875 L 19.686508178710938,6.8869476318359375 L 19.779312133789062,7.0598602294921875 L 19.912368774414062,7.2040252685546875 L 20.0521240234375,7.345001220703125 L 20.186843872070312,7.4875640869140625 L 20.321563720703125,7.6700592041015625 L 20.426101684570312,7.902069091796875 L 20.475311279296875,8.138885498046875 L 20.39093017578125,8.374099731445312 L 20.294815063476562,8.614089965820312 L 20.195358276367188,8.911590576171875 L 20.0992431640625,9.239425659179688 L 19.979644775390625,9.565673828125 L 19.777877807617188,9.8248291015625 L 19.57611083984375,10.083984375 L 19.342483520507812,10.341552734375 L 19.160858154296875,10.527252197265625 M 19.07647705078125,10.3990478515625 L 19.07647705078125,10.3990478515625 L 18.9619140625,10.2564697265625 L 18.77020263671875,10.054794311523438 L 18.546646118164062,9.84832763671875 L 18.339859008789062,9.645050048828125 L 18.148147583007812,9.397064208984375 L 17.998382568359375,9.113937377929688 L 17.912322998046875,8.760528564453125 L 17.86651611328125,8.392745971679688 L 17.862640380859375,8.013778686523438 L 17.906814575195312,7.6348114013671875 L 17.997940063476562,7.2606353759765625 L 18.188003540039062,6.912017822265625 L 18.414962768554688,6.56817626953125 L 18.645263671875,6.2483062744140625 L 18.8990478515625,5.938018798828125 L 19.19476318359375,5.7251739501953125 M 19.607376098632812,7.0258026123046875 L 19.607376098632812,7.0258026123046875 L 19.424072265625,7.043792724609375 L 18.989212036132812,7.0617828369140625 L 18.6650390625,7.07977294921875 L 18.371047973632812,7.161651611328125 L 18.07537841796875,7.2435302734375 M 20.15155029296875,9.286468505859375 L 20.15155029296875,9.286468505859375 L 19.99505615234375,9.35076904296875 L 19.751373291015625,9.415069580078125 L 19.50433349609375,9.4793701171875 L 19.255615234375,9.439010620117188 L 19.00689697265625,9.393844604492188 L 18.736373901367188,9.308761596679688 L 18.465850830078125,9.223678588867188 L 18.193649291992188,9.138595581054688 L 17.923126220703125,9.05511474609375 M 19.1669921875,12.605560302734375 L 19.1669921875,12.605560302734375 L 19.216201782226562,12.807235717773438 L 19.2989501953125,13.037643432617188 L 19.3934326171875,13.2696533203125 L 19.496292114257812,13.501663208007812 L 19.605865478515625,13.733673095703125 L 19.71710205078125,13.997634887695312 L 19.83001708984375,14.327072143554688 L 19.92449951171875,14.723602294921875 L 19.92449951171875,15.1185302734375 L 19.702621459960938,15.513458251953125 L 19.442169189453125,15.906784057617188 L 19.211898803710938,16.335250854492188 L 18.86590576171875,16.65350341796875 M 18.714447021484375,16.6539306640625 L 18.714447021484375,16.6539306640625 L 18.497589111328125,16.627944946289062 L 18.222030639648438,16.584381103515625 L 17.94647216796875,16.464157104492188 L 17.731292724609375,16.195404052734375 L 17.5614013671875,15.8883056640625 L 17.508895874023438,15.534896850585938 L 17.544677734375,15.17669677734375 L 17.62237548828125,14.802520751953125 L 17.681640625,14.39959716796875 L 17.70904541015625,13.940780639648438 L 17.847122192382812,13.486740112304688 L 18.092529296875,13.010345458984375 L 18.465377807617188,12.647354125976562 L 18.922073364257812,12.340255737304688 M 19.388397216796875,13.69830322265625 L 19.388397216796875,13.69830322265625 L 19.218505859375,13.651565551757812 L 18.979843139648438,13.548919677734375 L 18.716033935546875,13.43988037109375 L 18.460617065429688,13.539321899414062 L 18.238739013671875,13.80328369140625 L 18.016860961914062,14.134323120117188 L 17.7781982421875,14.385498046875 M 19.437469482421875,15.793136596679688 L 19.437469482421875,15.793136596679688 L 19.148513793945312,15.792694091796875 L 18.770675659179688,15.818679809570312 L 18.391159057617188,15.733596801757812 L 18.018356323242188,15.630950927734375 L 17.652252197265625,15.50274658203125 L 17.356582641601562,15.328216552734375 M 19.04437255859375,8.205215454101562 L 19.04437255859375,8.205215454101562 L 19.236114501953125,8.35577392578125 M 18.962295532226562,8.2978515625 L 18.962295532226562,8.2978515625 L 19.019882202148438,8.469161987304688 M 19.077468872070312,8.315399169921875 L 19.077468872070312,8.315399169921875 L 19.135055541992188,7.955596923828125 M 18.754196166992188,14.714920043945312 L 18.754196166992188,14.714920043945312 L 18.580947875976562,14.666580200195312 M 18.633499145507812,14.896987915039062 L 18.633499145507812,14.896987915039062 L 18.674301147460938,14.690521240234375 L 18.824111938476562,14.678909301757812 L 19.00579833984375,14.670486450195312 L 18.928131103515625,14.800277709960938 L 18.82196044921875,14.949234008789062" fill="none" stroke="#000000" stroke-width="0.010928756713867187"/>
</svg>
