<?xml version="1.0" ?>
<svg baseProfile="full" height="600px" version="1.1" viewBox="15.245320579528808 5.192131492614746 3.6308340606689455 12.511778884887695" width="175px" xmlns="http://www.w3.org/2000/svg" xmlns:ev="http://www.w3.org/2001/xml-events" xmlns:xlink="http://www.w3.org/1999/xlink">
	<defs/>
	<path d="M 16.630096435546875,16.346115112304688 L 16.630096435546875,16.346115112304688 L 16.781585693359375,16.29937744140625 L 16.931396484375,16.257415771484375 L 17.081207275390625,16.213851928710938 L 17.229339599609375,16.168685913085938 L 17.379150390625,16.155487060546875 L 17.528961181640625,16.200637817382812 L 17.67877197265625,16.25537109375 L 17.828582763671875,16.316482543945312 L 17.9783935546875,16.383987426757812 L 18.1298828125,16.446701049804688 L 18.276336669921875,16.511001586914062 L 18.42279052734375,16.575302124023438 L 18.569244384765625,16.639602661132812 M 18.45635986328125,16.51617431640625 L 18.45635986328125,16.51617431640625 L 18.236160278320312,16.330459594726562 L 18.002532958984375,16.146347045898438 L 17.768905639648438,15.962234497070312 L 17.533599853515625,15.730209350585938 L 17.299972534179688,15.46783447265625 L 17.071365356445312,15.109634399414062 L 16.876312255859375,14.695526123046875 L 16.686279296875,14.246292114257812 L 16.492889404296875,13.795455932617188 L 16.29949951171875,13.343017578125 L 16.1077880859375,12.892181396484375 L 15.926162719726562,12.392181396484375 M 15.835647583007812,12.339462280273438 L 15.835647583007812,12.339462280273438 L 15.86639404296875,12.547515869140625 L 15.923980712890625,12.854598999023438 L 15.996658325195312,13.18084716796875 L 16.067657470703125,13.555007934570312 L 16.138656616210938,13.929168701171875 L 16.211334228515625,14.303329467773438 L 16.284011840820312,14.677490234375 L 16.356689453125,15.053253173828125 L 16.429367065429688,15.42901611328125 L 16.476898193359375,15.823944091796875 L 16.482498168945312,16.258804321289062 L 16.506546020507812,16.65692138671875 M 15.832199096679688,10.984481811523438 L 15.832199096679688,10.984481811523438 L 15.888107299804688,10.733291625976562 L 15.990966796875,10.411819458007812 L 16.105560302734375,10.087158203125 L 16.253692626953125,9.756103515625 L 16.401824951171875,9.418670654296875 L 16.549957275390625,9.076431274414062 L 16.61090087890625,8.644744873046875 L 16.671844482421875,8.21148681640625 L 16.781417846679688,7.778228759765625 L 17.206253051757812,7.4727325439453125 L 17.631088256835938,7.1656341552734375 L 17.946929931640625,6.7227783203125 L 18.299652099609375,6.339019775390625 M 18.148193359375,6.282684326171875 L 18.148193359375,6.282684326171875 L 17.756927490234375,6.2391204833984375 L 17.256942749023438,6.24114990234375 L 16.7569580078125,6.2431793212890625 L 16.256973266601562,6.2436065673828125 L 15.756988525390625,6.2440338134765625 M 15.759246826171875,6.408966064453125 L 15.759246826171875,6.408966064453125 L 15.76318359375,6.8502044677734375 L 15.904617309570312,7.350189208984375 L 16.046051025390625,7.8501739501953125 L 16.010299682617188,8.35015869140625 L 15.9208984375,8.850143432617188 L 15.821441650390625,9.350128173828125 L 15.725326538085938,9.850112915039062 L 15.72479248046875,10.35009765625 L 15.724258422851562,10.850082397460938 L 15.82879638671875,11.350067138671875 M 16.616165161132812,15.20709228515625 L 16.616165161132812,15.20709228515625 L 16.804550170898438,15.268203735351562 L 17.004684448242188,15.36285400390625 L 17.196426391601562,15.673126220703125 L 17.391510009765625,15.996185302734375 L 17.501083374023438,16.450210571289062 M 16.052215576171875,7.636016845703125 L 16.052215576171875,7.636016845703125 L 15.552230834960938,7.7003173828125 L 15.680252075195312,7.5800933837890625 L 15.975967407226562,7.3289031982421875 L 16.308578491210938,7.05694580078125 L 16.641189575195312,7.0389404296875 L 16.975479125976562,7.0113525390625 L 17.309768676757812,6.940643310546875 L 17.262283325195312,6.440643310546875" fill="none" stroke="#000000" stroke-width="0.010417800903320312"/>
</svg>
