<?xml version="1.0" ?>
<svg baseProfile="full" height="600px" version="1.1" viewBox="22.43057025909424 5.299007453918457 3.1445052337646486 12.708854598999023" width="149px" xmlns="http://www.w3.org/2000/svg" xmlns:ev="http://www.w3.org/2001/xml-events" xmlns:xlink="http://www.w3.org/1999/xlink">
	<defs/>
	<path d="M 24.330795288085938,9.548431396484375 L 24.330795288085938,9.548431396484375 L 24.43701171875,9.22216796875 L 24.580123901367188,8.867156982421875 L 24.723236083984375,8.51055908203125 L 24.804306030273438,8.147567749023438 L 24.838409423828125,7.784576416015625 L 24.819442749023438,7.41998291015625 L 24.743453979492188,7.055389404296875 L 24.451141357421875,6.800994873046875 L 24.085037231445312,6.546600341796875 L 23.646820068359375,6.36248779296875 L 23.175064086914062,6.60247802734375 L 22.792190551757812,6.9990081787109375 L 22.714523315429688,7.4482269287109375 L 22.839187622070312,7.8958587646484375 L 23.037643432617188,8.303558349609375 L 23.274673461914062,8.68890380859375 L 23.5804443359375,8.973617553710938 L 23.928146362304688,9.183273315429688 L 24.28759765625,9.38812255859375 L 24.467605590820312,9.838943481445312 M 24.2772216796875,13.502487182617188 L 24.2772216796875,13.502487182617188 L 24.479034423828125,13.597137451171875 L 24.749588012695312,13.758865356445312 L 24.961456298828125,14.085113525390625 L 25.143142700195312,14.462478637695312 L 25.239303588867188,14.96246337890625 L 25.308624267578125,15.462448120117188 L 25.267852783203125,15.962432861328125 L 25.034225463867188,16.45159912109375 L 24.676498413085938,16.852920532226562 L 24.176513671875,16.944381713867188 L 23.716506958007812,16.646865844726562 L 23.306808471679688,16.29345703125 L 22.892074584960938,15.940048217773438 L 22.697021484375,15.470046997070312 L 22.762985229492188,14.971282958984375 L 22.822250366210938,14.472518920898438 L 22.881515502929688,13.9737548828125 L 23.23760986328125,13.61395263671875 L 23.62890625,13.313262939453125 L 24.102386474609375,13.17547607421875 L 24.602386474609375,13.349990844726562" fill="none" stroke="#000000" stroke-width="0.010581893920898438"/>
</svg>
