<?xml version="1.0" ?>
<svg baseProfile="full" height="515px" version="1.1" viewBox="13.48420595550537 7.061037010192871 10.716143142700195 9.184612380981445" width="600px" xmlns="http://www.w3.org/2000/svg" xmlns:ev="http://www.w3.org/2001/xml-events" xmlns:xlink="http://www.w3.org/1999/xlink">
	<defs/>
	<path d="M 21.62896728515625,15.204177856445312 L 21.62896728515625,15.204177856445312 L 21.128982543945312,15.340362548828125 L 20.628997802734375,15.476547241210938 L 20.129013061523438,15.391464233398438 L 19.6290283203125,15.189788818359375 L 19.129043579101562,15.186172485351562 L 18.629058837890625,15.346298217773438 L 18.129074096679688,15.318710327148438 L 17.62908935546875,15.187301635742188 M 17.744903564453125,15.035552978515625 L 17.744903564453125,15.035552978515625 L 17.595138549804688,14.552764892578125 L 17.423568725585938,14.052764892578125 L 17.251998901367188,13.552764892578125 L 17.710372924804688,13.346298217773438 L 18.198944091796875,13.378662109375 L 18.6942138671875,13.409423828125 L 19.1844482421875,13.601516723632812 L 19.6844482421875,13.586715698242188 L 20.134445190429688,13.335525512695312 L 20.594497680664062,13.138641357421875 L 21.084732055664062,13.356277465820312 L 21.56658935546875,13.585098266601562 L 22.055160522460938,13.738845825195312 L 22.543731689453125,13.892593383789062 L 22.881362915039062,14.295501708984375 L 23.156967163085938,14.743133544921875 L 22.977005004882812,15.229095458984375 L 22.477020263671875,15.296600341796875 L 21.977035522460938,15.086929321289062 L 21.47705078125,15.211944580078125 M 19.66510009765625,14.532989501953125 L 19.66510009765625,14.532989501953125 L 19.165115356445312,14.560562133789062 L 18.665130615234375,14.580154418945312 L 18.165145874023438,14.582183837890625 M 17.44146728515625,9.761962890625 L 17.44146728515625,9.761962890625 L 17.893142700195312,9.656112670898438 L 18.385055541992188,9.524703979492188 L 18.878646850585938,9.753524780273438 L 19.280014038085938,10.0877685546875 L 19.780014038085938,10.037826538085938 L 20.253494262695312,9.832962036132812 L 20.748764038085938,9.779815673828125 L 21.248764038085938,9.815383911132812 L 21.748764038085938,9.849349975585938 L 22.248764038085938,9.868942260742188 L 22.722244262695312,9.67205810546875 L 23.06658935546875,9.305862426757812 L 23.303619384765625,8.864608764648438 L 23.2393798828125,8.364608764648438 L 22.804519653320312,8.022369384765625 L 22.304534912109375,7.8558197021484375 L 21.804550170898438,7.8690185546875 L 21.3045654296875,7.8965911865234375 L 20.804580688476562,7.924163818359375 L 20.304595947265625,7.9109649658203125 L 19.804611206054688,7.90093994140625 L 19.30462646484375,7.886138916015625 L 18.804641723632812,7.871337890625 L 18.304656982421875,7.856536865234375 L 17.804672241210938,7.8433380126953125 L 17.3046875,7.83013916015625 L 16.804702758789062,7.996673583984375 L 17.093704223632812,8.1632080078125 L 17.433013916015625,8.572509765625 L 17.626434326171875,9.0584716796875 L 17.730972290039062,9.558456420898438 L 17.770111083984375,10.058441162109375 M 19.457290649414062,8.960159301757812 L 19.457290649414062,8.960159301757812 L 18.957305908203125,8.9957275390625 L 18.457321166992188,9.018508911132812 L 17.95733642578125,9.04608154296875 M 14.380935668945312,8.083541870117188 L 14.380935668945312,8.083541870117188 L 14.7286376953125,8.422561645507812 L 15.067947387695312,8.855819702148438 L 15.34857177734375,9.306640625 L 15.402801513671875,9.806625366210938 L 15.400588989257812,10.306610107421875 L 15.389999389648438,10.806594848632812 L 15.379409790039062,11.30657958984375 L 15.368820190429688,11.806564331054688 L 15.358230590820312,12.306549072265625 L 15.347640991210938,12.806533813476562 L 15.337051391601562,13.3065185546875 L 15.326461791992188,13.806503295898438" fill="none" stroke="#000000" stroke-width="0.008922683715820313"/>
</svg>
