<?xml version="1.0" ?>
<svg baseProfile="full" height="600px" version="1.1" viewBox="16.41607236480713 8.925419898986817 2.5205926971435546 7.674169357299805" width="198px" xmlns="http://www.w3.org/2000/svg" xmlns:ev="http://www.w3.org/2001/xml-events" xmlns:xlink="http://www.w3.org/1999/xlink">
	<defs/>
	<path d="M 18.4371337890625,10.202545166015625 L 18.4371337890625,10.202545166015625 L 18.267242431640625,9.703781127929688 L 17.767257690429688,9.567596435546875 L 17.26727294921875,9.646286010742188 L 17.095703125,10.146270751953125 L 17.24383544921875,10.646255493164062 L 17.40875244140625,11.146240234375 L 17.57366943359375,11.646224975585938 L 17.869384765625,11.601058959960938 L 18.240570068359375,11.222091674804688 L 18.385360717773438,10.739303588867188 L 18.528472900390625,10.256515502929688 M 18.1783447265625,14.351394653320312 L 18.1783447265625,14.351394653320312 L 18.119125366210938,13.851394653320312 L 18.011276245117188,13.351394653320312 L 17.51129150390625,13.481185913085938 L 17.056320190429688,13.74993896484375 L 16.7237548828125,14.151260375976562 L 16.639373779296875,14.648406982421875 L 16.6287841796875,15.148391723632812 L 16.884246826171875,15.634353637695312 L 17.322509765625,15.957412719726562 L 17.680282592773438,15.592819213867188 L 17.85357666015625,15.119613647460938 L 18.023529052734375,14.644805908203125 L 18.290725708007812,14.227508544921875 L 18.723953247070312,13.974716186523438" fill="none" stroke="#000000" stroke-width="0.006389816284179688"/>
</svg>
