<?xml version="1.0" ?>
<svg baseProfile="full" height="600px" version="1.1" viewBox="15.397439468383789 6.289990127563477 5.170636199951172 8.129583953857422" width="382px" xmlns="http://www.w3.org/2000/svg" xmlns:ev="http://www.w3.org/2001/xml-events" xmlns:xlink="http://www.w3.org/1999/xlink">
	<defs/>
	<path d="M 16.494720458984375,8.9600830078125 L 16.494720458984375,8.9600830078125 L 16.418731689453125,8.708892822265625 L 16.342742919921875,8.270828247070312 L 16.521072387695312,7.7708282470703125 L 16.79833984375,7.299224853515625 L 17.27349853515625,7.2061614990234375 L 17.7486572265625,7.194549560546875 L 18.22381591796875,7.321136474609375 L 18.62518310546875,7.636199951171875 L 18.941024780273438,8.032730102539062 L 19.094192504882812,8.502716064453125 L 18.972915649414062,8.990280151367188 L 18.633651733398438,9.388397216796875 L 18.165252685546875,9.618804931640625 L 17.683441162109375,9.798110961914062 L 17.183456420898438,9.903945922851562 L 16.6834716796875,9.78851318359375 L 16.295562744140625,9.4095458984375 L 16.312896728515625,8.9095458984375 L 16.563339233398438,8.434738159179688 M 16.361236572265625,11.012496948242188 L 16.361236572265625,11.012496948242188 L 16.58148193359375,10.628738403320312 L 16.974472045898438,10.444625854492188 L 17.474472045898438,10.316421508789062 L 17.974472045898438,10.188217163085938 L 18.447952270507812,10.386688232421875 L 18.718505859375,10.82952880859375 L 18.927017211914062,11.286758422851562 L 19.127151489257812,11.747161865234375 L 18.992477416992188,12.239517211914062 L 18.5894775390625,12.562576293945312 L 18.112686157226562,12.743484497070312 L 17.619140625,12.84613037109375 L 17.119155883789062,12.908843994140625 L 16.619171142578125,12.836532592773438 L 16.24468994140625,12.452774047851562 L 16.074798583984375,11.952774047851562 L 16.0787353515625,11.452774047851562 L 16.416366577148438,11.073806762695312 L 16.873062133789062,10.8641357421875 M 16.663253784179688,7.8450164794921875 L 16.663253784179688,7.8450164794921875 L 16.888534545898438,7.7599334716796875 L 17.246307373046875,7.6668701171875 L 17.548721313476562,8.119293212890625 L 17.743804931640625,8.611648559570312 L 17.937225341796875,9.1055908203125 L 17.5107421875,9.414276123046875 L 17.171478271484375,9.329193115234375 L 16.8221435546875,9.245712280273438 L 16.4744873046875,9.240493774414062 L 16.128494262695312,9.306396484375 L 15.831146240234375,9.377105712890625 M 16.948089599609375,10.88580322265625 L 16.948089599609375,10.88580322265625 L 17.31256103515625,10.757598876953125 L 17.760879516601562,11.042312622070312 L 17.90399169921875,11.54229736328125 L 17.727386474609375,12.041046142578125 L 17.285812377929688,12.316177368164062 L 16.817413330078125,12.4954833984375 L 16.434539794921875,12.4503173828125 M 18.627243041992188,9.280532836914062 L 18.627243041992188,9.280532836914062 L 18.370147705078125,9.010177612304688 L 18.23211669921875,8.510177612304688 L 18.373550415039062,8.010177612304688 L 18.637405395507812,7.552947998046875 L 19.040451049804688,7.2650146484375 L 19.498825073242188,7.0968780517578125 L 19.957199096679688,6.97027587890625 M 18.7015380859375,10.790252685546875 L 18.7015380859375,10.790252685546875 L 18.462875366210938,11.27142333984375 L 18.3131103515625,11.771408081054688 L 18.374053955078125,12.271392822265625 L 18.66473388671875,12.719024658203125 L 19.0308837890625,13.11395263671875 L 19.39703369140625,13.508880615234375 L 19.8587646484375,13.739288330078125 L 20.134368896484375,13.323593139648438" fill="none" stroke="#000000" stroke-width="0.0067690124511718755"/>
</svg>
