<?xml version="1.0" ?>
<svg baseProfile="full" height="600px" version="1.1" viewBox="17.145588623046876 6.0158782348632815 6.282629516601562 10.211285522460937" width="370px" xmlns="http://www.w3.org/2000/svg" xmlns:ev="http://www.w3.org/2001/xml-events" xmlns:xlink="http://www.w3.org/1999/xlink">
	<defs/>
	<path d="M 21.254592895507812,8.826934814453125 L 21.254592895507812,8.826934814453125 L 21.2635498046875,8.326934814453125 L 20.796829223632812,8.070938110351562 L 20.296844482421875,8.059326171875 L 19.796859741210938,8.047714233398438 L 19.296875,8.037689208984375 L 18.796890258789062,8.135543823242188 L 18.296905517578125,8.284500122070312 L 17.863723754882812,8.617141723632812 L 17.821273803710938,9.11712646484375 L 18.054931640625,9.60308837890625 L 18.427780151367188,9.991622924804688 L 18.886154174804688,10.230026245117188 L 19.379745483398438,10.29913330078125 L 19.878372192382812,10.312332153320312 L 20.35687255859375,10.228851318359375 L 20.818603515625,10.039947509765625 L 21.218292236328125,9.748825073242188 L 21.463699340820312,9.318740844726562 L 21.5682373046875,8.831161499023438 L 21.4251708984375,8.338790893554688 L 21.06744384765625,7.9518280029296875 M 18.432373046875,9.207717895507812 L 18.432373046875,9.207717895507812 L 18.677780151367188,8.747299194335938 L 19.079147338867188,9.115081787109375 L 19.359771728515625,9.564300537109375 L 18.919876098632812,9.868179321289062 L 18.419891357421875,9.821441650390625 L 18.02862548828125,9.4840087890625 L 18.21868896484375,8.9996337890625 L 18.615020751953125,8.703720092773438 L 19.111968994140625,8.674545288085938 L 19.531768798828125,8.996002197265625 L 19.597732543945312,9.495986938476562 L 19.245040893554688,9.9036865234375 L 18.74505615234375,10.086181640625 L 18.269943237304688,9.862152099609375 L 17.8736572265625,9.553451538085938 L 17.703765869140625,9.077056884765625 L 18.0933837890625,8.768356323242188 L 18.563491821289062,8.614593505859375 L 19.0487060546875,8.793899536132812 L 19.461807250976562,9.116958618164062 L 19.656890869140625,9.601318359375 L 19.361221313476562,10.04736328125 L 18.916305541992188,10.335281372070312 L 18.41632080078125,10.393203735351562 M 21.338790893554688,8.299362182617188 L 21.338790893554688,8.299362182617188 L 21.507064819335938,7.7993621826171875 L 21.947006225585938,7.5337982177734375 L 22.42718505859375,7.53582763671875 M 21.584945678710938,8.7896728515625 L 21.584945678710938,8.7896728515625 L 21.848800659179688,8.308486938476562 L 22.323959350585938,8.137161254882812 L 22.814193725585938,8.158340454101562 M 20.793319702148438,7.9557952880859375 L 20.793319702148438,7.9557952880859375 L 20.667022705078125,7.4557952880859375 L 21.002975463867188,7.0384979248046875 L 21.476455688476562,6.870361328125 L 21.973403930664062,6.8963470458984375 M 21.731704711914062,12.73358154296875 L 21.731704711914062,12.73358154296875 L 21.546722412109375,12.242813110351562 L 21.173919677734375,11.873428344726562 L 20.673934936523438,11.834671020507812 L 20.1739501953125,11.836700439453125 L 19.673965454101562,11.838729858398438 L 19.173980712890625,11.84075927734375 L 18.712295532226562,12.0887451171875 L 18.332778930664062,12.4788818359375 L 17.964996337890625,12.872207641601562 L 17.672683715820312,13.319839477539062 L 17.913070678710938,13.788238525390625 L 18.332870483398438,14.103302001953125 L 18.797958374023438,14.3193359375 L 19.263046264648438,14.535369873046875 L 19.754959106445312,14.634811401367188 L 20.231796264648438,14.509811401367188 L 20.618057250976562,14.19952392578125 L 20.992584228515625,13.892425537109375 L 21.439224243164062,13.679580688476562 L 21.902633666992188,13.495468139648438 L 22.099395751953125,13.047821044921875 L 21.934524536132812,12.566635131835938 L 21.434539794921875,12.471969604492188 M 19.111602783203125,12.777420043945312 L 19.111602783203125,12.777420043945312 L 19.611602783203125,12.840133666992188 L 19.419891357421875,13.324493408203125 L 18.97161865234375,13.60760498046875 L 18.550186157226562,13.300506591796875 L 18.58428955078125,12.808135986328125 L 19.009124755859375,12.555343627929688 L 19.509124755859375,12.613265991210938 L 19.777999877929688,13.059310913085938 L 19.478973388671875,13.503753662109375 L 18.978988647460938,13.628768920898438 L 18.47900390625,13.497360229492188 L 18.278915405273438,13.057693481445312 L 18.566253662109375,12.640396118164062 L 19.051467895507812,12.588851928710938 L 19.541702270507812,12.785720825195312 L 19.80889892578125,13.234939575195312 L 19.581985473632812,13.716110229492188 L 19.105194091796875,13.919387817382812 L 18.605209350585938,13.853469848632812 L 18.1351318359375,13.664566040039062 L 17.733810424804688,13.363876342773438 L 17.866867065429688,12.869918823242188 L 18.323562622070312,12.668243408203125 L 18.691390991210938,13.058380126953125 L 18.315231323242188,13.4437255859375 L 17.81524658203125,13.610260009765625 L 17.797958374023438,13.110260009765625 L 18.138946533203125,12.7552490234375 L 18.635894775390625,12.705307006835938 L 19.135894775390625,12.731292724609375 L 19.635894775390625,12.953720092773438 L 19.701858520507812,13.453704833984375 L 19.228424072265625,13.728836059570312 L 18.728439331054688,13.632568359375 L 18.345565795898438,13.31109619140625 L 18.064987182617188,12.901779174804688 L 18.250015258789062,12.406219482421875 L 18.723495483398438,12.266830444335938 L 19.183547973632812,12.546768188476562 M 21.791229248046875,13.456451416015625 L 21.791229248046875,13.456451416015625 L 21.961181640625,13.956436157226562 L 22.401123046875,14.237960815429688 L 22.901123046875,14.302261352539062 M 21.369903564453125,14.39007568359375 L 21.369903564453125,14.39007568359375 L 21.658905029296875,14.83929443359375 L 22.134063720703125,15.01220703125 M 20.63623046875,14.7808837890625 L 20.63623046875,14.7808837890625 L 20.975540161132812,15.190185546875 L 21.452377319335938,15.3726806640625" fill="none" stroke="#000000" stroke-width="0.0085023193359375"/>
</svg>
