<?xml version="1.0" ?>
<svg baseProfile="full" height="600px" version="1.1" viewBox="16.50625609588623 4.270751945495605 5.265762344360351 14.070571914672852" width="225px" xmlns="http://www.w3.org/2000/svg" xmlns:ev="http://www.w3.org/2001/xml-events" xmlns:xlink="http://www.w3.org/1999/xlink">
	<defs/>
	<path d="M 17.944671630859375,6.8470916748046875 L 17.944671630859375,6.8470916748046875 L 18.025741577148438,6.3470916748046875 L 18.323135375976562,5.9297943115234375 L 18.77313232421875,5.6818084716796875 L 19.226486206054688,5.44818115234375 L 19.708343505859375,5.694580078125 L 20.176773071289062,5.9649200439453125 L 20.636825561523438,6.23846435546875 L 20.9090576171875,6.6829071044921875 L 21.141036987304688,7.1353302001953125 L 21.302597045898438,7.6244964599609375 L 21.328323364257812,8.124481201171875 L 21.3043212890625,8.624465942382812 L 21.154556274414062,9.12445068359375 L 20.964523315429688,9.624435424804688 L 20.740966796875,10.118377685546875 L 20.393310546875,10.5516357421875 L 19.968505859375,10.877883911132812 L 19.523590087890625,11.15142822265625 L 19.031723022460938,11.353103637695312 L 18.53173828125,11.232879638671875 L 18.269607543945312,10.742111206054688 L 18.024246215820312,10.248153686523438 L 17.778884887695312,9.754196166992188 L 17.54022216796875,9.260238647460938 L 17.407211303710938,8.760238647460938 L 17.322830200195312,8.260238647460938 L 17.32061767578125,7.7602386474609375 L 17.44696044921875,7.2602386474609375 L 17.689010620117188,6.7774505615234375 M 18.96527099609375,7.5737457275390625 L 18.96527099609375,7.5737457275390625 L 18.942947387695312,8.07373046875 L 19.238662719726562,8.518173217773438 L 19.5125732421875,8.962615966796875 L 19.580215454101562,9.462600708007812 L 19.981582641601562,9.113983154296875 L 20.30413818359375,8.698287963867188 L 20.514328002929688,8.215499877929688 L 20.196853637695312,7.7982025146484375 L 19.696868896484375,7.662017822265625 L 19.196884155273438,7.540191650390625 L 18.6968994140625,7.483856201171875 L 18.38446044921875,7.044189453125 L 18.433670043945312,6.544189453125 L 18.91217041015625,6.3680572509765625 L 19.41217041015625,6.5345916748046875 L 19.8873291015625,6.7777862548828125 L 20.24005126953125,7.171112060546875 L 20.498870849609375,7.6219329833984375 L 20.705703735351562,8.106292724609375 M 19.846939086914062,8.601882934570312 L 19.846939086914062,8.601882934570312 L 19.618331909179688,8.189376831054688 L 19.341110229492188,7.9717254638671875 L 19.341110229492188,8.293182373046875 L 19.516082763671875,8.616241455078125 L 19.702789306640625,8.685348510742188 L 19.534561157226562,8.68896484375 L 19.24560546875,8.705352783203125 L 18.919754028320312,8.724945068359375 L 18.862213134765625,8.555221557617188 L 19.005325317382812,8.171463012695312 L 19.24737548828125,7.6870880126953125 L 19.628616333007812,7.880767822265625 L 20.045074462890625,8.208602905273438 L 19.876846313476562,8.261734008789062 L 19.599624633789062,8.54644775390625 L 19.628692626953125,8.38470458984375 L 19.453765869140625,8.119140625 L 19.42138671875,8.268096923828125 L 19.3353271484375,8.659835815429688 L 19.2308349609375,8.531631469726562 L 19.055908203125,8.099945068359375 L 19.2073974609375,8.146682739257812 L 19.543350219726562,8.204605102539062 L 19.693161010742188,8.236968994140625 L 19.884902954101562,8.302871704101562 M 20.915863037109375,13.298019409179688 L 20.915863037109375,13.298019409179688 L 20.415878295898438,13.411849975585938 L 19.9158935546875,13.323562622070312 L 19.420669555664062,13.048416137695312 L 18.925445556640625,12.773269653320312 L 18.431900024414062,12.568405151367188 L 17.931915283203125,12.712570190429688 L 17.542327880859375,13.062774658203125 L 17.19970703125,13.459304809570312 L 17.02813720703125,13.956451416015625 L 16.957183837890625,14.456436157226562 L 16.949951171875,14.9564208984375 L 17.056167602539062,15.456405639648438 L 17.241195678710938,15.947174072265625 L 17.486602783203125,16.410781860351562 L 17.829269409179688,16.813690185546875 L 18.22393798828125,17.163894653320312 L 18.665557861328125,16.853607177734375 L 19.080337524414062,16.503387451171875 L 19.493438720703125,16.153167724609375 L 19.906539916992188,15.802947998046875 L 20.314605712890625,15.449539184570312 L 20.482879638671875,14.949539184570312 L 20.388442993164062,14.449539184570312 L 20.273880004882812,13.949539184570312 L 20.154281616210938,13.449539184570312 L 20.006195068359375,12.949539184570312 M 19.36181640625,14.4869384765625 L 19.36181640625,14.4869384765625 L 19.176834106445312,14.3619384765625 L 18.676849365234375,14.235336303710938 L 18.176864624023438,14.1151123046875 L 17.7000732421875,14.36151123046875 L 17.619049072265625,14.852279663085938 L 18.006988525390625,15.228042602539062 L 18.451950073242188,15.509567260742188 L 18.951950073242188,15.530746459960938 L 19.32647705078125,15.148590087890625 L 19.605422973632812,14.673782348632812 L 19.654632568359375,14.173782348632812 M 18.072113037109375,14.957962036132812 L 18.072113037109375,14.957962036132812 L 18.465103149414062,15.189971923828125 L 18.842987060546875,14.811004638671875 L 18.637863159179688,14.45599365234375 L 18.43609619140625,14.953140258789062 L 18.262847900390625,14.93994140625 L 17.918548583984375,14.838882446289062 L 17.9224853515625,14.686721801757812 L 17.973373413085938,14.306167602539062 L 18.071212768554688,14.432754516601562 L 18.26629638671875,14.715866088867188 L 18.249008178710938,14.526962280273438 L 18.303237915039062,14.026962280273438 L 18.479888916015625,14.08807373046875 L 18.864471435546875,14.406326293945312" fill="none" stroke="#000000" stroke-width="0.011715713500976563"/>
</svg>
