<?xml version="1.0" ?>
<svg baseProfile="full" height="446px" version="1.1" viewBox="5.972288284301758 4.49637580871582 17.083865814208984 12.688675384521485" width="600px" xmlns="http://www.w3.org/2000/svg" xmlns:ev="http://www.w3.org/2001/xml-events" xmlns:xlink="http://www.w3.org/1999/xlink">
	<defs/>
	<path d="M 19.338775634765625,10.021621704101562 L 19.338775634765625,10.021621704101562 L 19.768646240234375,9.843902587890625 L 20.230377197265625,9.61187744140625 L 20.568008422851562,9.205764770507812 L 20.840240478515625,8.7469482421875 L 21.035324096679688,8.25457763671875 L 21.007965087890625,7.75457763671875 L 20.8280029296875,7.25457763671875 L 20.478668212890625,6.8372802734375 L 20.072311401367188,6.482269287109375 L 19.617340087890625,6.1895599365234375 L 19.140548706054688,5.936767578125 L 18.64056396484375,5.8005828857421875 L 18.140579223632812,5.6883392333984375 L 17.640594482421875,5.59844970703125 L 17.140609741210938,5.5596923828125 L 16.640625,5.56011962890625 L 16.140640258789062,5.5972900390625 L 15.640655517578125,5.6488189697265625 L 15.140670776367188,5.7626495361328125 L 14.64068603515625,5.9307861328125 L 14.217575073242188,6.263427734375 L 13.893402099609375,6.7030792236328125 L 13.641326904296875,7.1650848388671875 L 13.4261474609375,7.6510467529296875 L 13.299850463867188,8.151031494140625 L 13.354080200195312,8.651016235351562 L 13.626312255859375,9.127395629882812 L 13.99078369140625,9.528717041015625 L 14.373703002929688,9.917251586914062 L 14.771713256835938,10.2882080078125 L 15.271713256835938,10.370086669921875 L 15.771713256835938,10.378494262695312 L 16.271713256835938,10.383697509765625 L 16.771713256835938,10.39849853515625 L 17.271713256835938,10.413299560546875 L 17.771713256835938,10.4281005859375 L 18.271713256835938,10.444488525390625 L 18.771713256835938,10.319488525390625 L 19.25860595703125,10.1146240234375 L 19.732086181640625,9.876205444335938 L 19.836624145507812,9.999618530273438 L 20.132339477539062,10.274749755859375 L 20.500167846679688,10.64093017578125 L 20.832778930664062,11.083770751953125 L 21.153656005859375,11.529815673828125 L 21.420852661132812,11.985443115234375 L 21.615936279296875,12.477798461914062 L 21.626571655273438,12.977783203125 L 21.523757934570312,13.477767944335938 L 21.35552978515625,13.976516723632812 L 21.165496826171875,14.46087646484375 L 20.797714233398438,14.857406616210938 L 20.371231079101562,15.18206787109375 L 19.90283203125,15.41888427734375 L 19.432754516601562,15.650894165039062 L 18.955963134765625,15.87811279296875 L 18.467437744140625,16.05902099609375 L 17.967453002929688,16.121734619140625 L 17.46746826171875,16.051025390625 L 16.967483520507812,15.926025390625 L 16.467498779296875,15.802597045898438 L 15.967514038085938,15.63287353515625 L 15.499114990234375,15.35772705078125 L 15.116241455078125,14.978759765625 L 14.78033447265625,14.56146240234375 L 14.447769165039062,14.1441650390625 L 14.170547485351562,13.683746337890625 L 14.035873413085938,13.183746337890625 L 13.914596557617188,12.683746337890625 L 13.87884521484375,12.183746337890625 L 13.881103515625,11.683746337890625 L 13.9688720703125,11.183746337890625 L 14.22265625,10.691375732421875 L 14.521728515625,10.246932983398438 M 19.369476318359375,9.779693603515625 L 19.369476318359375,9.779693603515625 L 19.072128295898438,9.352813720703125 L 18.5721435546875,9.165512084960938 L 18.072158813476562,9.113967895507812 L 17.572174072265625,9.062423706054688 L 17.072189331054688,9.101165771484375 L 16.57220458984375,9.270889282226562 L 16.139022827148438,9.603530883789062 L 15.705841064453125,9.936172485351562 L 15.274337768554688,10.272003173828125 L 14.916610717773438,10.70367431640625 L 15.212326049804688,10.270416259765625 L 15.605316162109375,9.913818359375 L 16.058670043945312,10.164993286132812 L 16.225265502929688,10.66497802734375 L 16.413650512695312,10.19818115234375 L 16.590301513671875,9.726577758789062 L 16.803848266601562,10.2093505859375 L 17.079452514648438,9.771286010742188 L 17.267837524414062,9.302886962890625 L 17.49981689453125,9.788848876953125 L 17.907882690429688,10.035247802734375 L 18.134841918945312,9.592391967773438 L 18.321548461914062,10.087936401367188 L 18.706130981445312,10.152236938476562 L 18.92303466796875,9.699798583984375 L 19.138259887695312,9.252151489257812 M 20.093902587890625,15.044647216796875 L 20.093902587890625,15.044647216796875 L 19.722763061523438,14.63214111328125 L 19.239273071289062,14.379348754882812 L 18.739288330078125,14.400527954101562 L 18.239303588867188,14.464828491210938 L 17.73931884765625,14.529129028320312 L 17.239334106445312,14.591842651367188 L 16.739349365234375,14.697677612304688 L 16.239364624023438,14.8131103515625 L 15.8011474609375,15.129776000976562 L 15.388092041015625,15.478378295898438 M 18.34686279296875,9.427947998046875 L 18.34686279296875,9.427947998046875 L 17.846878051757812,9.41314697265625 L 17.346893310546875,9.399948120117188 L 16.846908569335938,9.386749267578125 L 16.393600463867188,9.700225830078125 L 16.893600463867188,9.7437744140625 L 17.393600463867188,9.697036743164062 L 17.893600463867188,9.688613891601562 L 18.393600463867188,9.6754150390625 L 18.893600463867188,9.665390014648438 L 19.393600463867188,9.7935791015625 L 18.911788940429688,9.977676391601562 L 18.41180419921875,10.056365966796875 L 17.911819458007812,10.135055541992188 L 17.411834716796875,10.05157470703125 L 16.911849975585938,9.96649169921875 L 16.411865234375,9.990875244140625 L 15.911880493164062,10.013656616210938 M 9.926467895507812,6.036102294921875 L 9.926467895507812,6.036102294921875 L 9.567062377929688,6.4342193603515625 L 9.204315185546875,6.83074951171875 L 8.875106811523438,7.27838134765625 L 8.559310913085938,7.72601318359375 L 8.282089233398438,8.186416625976562 L 8.0233154296875,8.658004760742188 L 7.7846527099609375,9.139175415039062 L 7.6097259521484375,9.637924194335938 L 7.4934844970703125,10.137908935546875 L 7.4124603271484375,10.637893676757812 L 7.4018707275390625,11.13787841796875 L 7.4611358642578125,11.637863159179688 L 7.5858001708984375,12.137847900390625 L 7.72723388671875,12.637832641601562 L 7.877044677734375,13.1378173828125 L 8.063751220703125,13.636566162109375 L 8.327606201171875,14.120925903320312" fill="none" stroke="#000000" stroke-width="0.014224700927734375"/>
</svg>
