<?xml version="1.0" ?>
<svg baseProfile="full" height="600px" version="1.1" viewBox="16.40892091369629 5.669385391235352 8.566466033935548 10.495518768310546" width="490px" xmlns="http://www.w3.org/2000/svg" xmlns:ev="http://www.w3.org/2001/xml-events" xmlns:xlink="http://www.w3.org/1999/xlink">
	<defs/>
	<path d="M 19.946701049804688,8.591720581054688 L 19.946701049804688,8.591720581054688 L 19.80029296875,8.417190551757812 L 19.509658813476562,8.173980712890625 L 19.009674072265625,8.342117309570312 L 18.56475830078125,8.515029907226562 L 18.62066650390625,8.961074829101562 L 18.809051513671875,9.423080444335938 L 19.056137084960938,9.872299194335938 L 19.4508056640625,9.608322143554688 L 19.642547607421875,9.108322143554688 L 19.976837158203125,8.7501220703125 L 20.27423095703125,9.052413940429688 M 19.606658935546875,12.506149291992188 L 19.606658935546875,12.506149291992188 L 19.282485961914062,12.417861938476562 L 18.902969360351562,12.1986083984375 L 18.4412841796875,12.459365844726562 L 18.0550537109375,12.831924438476562 L 18.20318603515625,13.329071044921875 L 18.477096557617188,13.81024169921875 L 18.935470581054688,13.938430786132812 L 19.232864379882812,13.49078369140625 L 19.232864379882812,12.99078369140625 L 19.33740234375,12.49078369140625 L 19.733734130859375,12.277938842773438 M 21.724502563476562,8.565277099609375 L 21.724502563476562,8.565277099609375 L 21.430511474609375,8.3140869140625 L 21.024154663085938,8.090057373046875 L 20.58929443359375,7.9538726806640625 L 20.1427001953125,7.870391845703125 L 19.69610595703125,7.7869110107421875 L 19.24951171875,7.7869110107421875 L 18.797882080078125,7.825653076171875 L 18.34625244140625,8.044891357421875 L 17.92144775390625,8.366348266601562 L 17.640869140625,8.734130859375 L 17.566543579101562,9.188156127929688 L 17.726425170898438,9.688140869140625 L 17.963455200195312,10.180496215820312 L 18.386611938476562,10.501953125 L 18.886611938476562,10.52313232421875 L 19.383560180664062,10.38055419921875 L 19.880508422851562,10.234771728515625 L 20.372421264648438,10.1065673828125 L 20.864334106445312,9.978363037109375 L 21.332763671875,9.79425048828125 L 21.776046752929688,9.578201293945312 L 22.175735473632812,9.275909423828125 L 22.057815551757812,8.775909423828125 L 21.557830810546875,8.801895141601562 M 21.691650390625,12.70574951171875 L 21.691650390625,12.70574951171875 L 21.240020751953125,12.5743408203125 L 20.761566162109375,12.358291625976562 L 20.392105102539062,11.960159301757812 L 19.892120361328125,11.755294799804688 L 19.392135620117188,11.819595336914062 L 18.89215087890625,11.925430297851562 L 18.392166137695312,12.069595336914062 L 17.892181396484375,12.213760375976562 L 17.40533447265625,12.45855712890625 L 17.126434326171875,12.915786743164062 L 17.27288818359375,13.415771484375 L 17.546798706054688,13.89215087890625 L 17.822402954101562,14.360549926757812 L 18.200286865234375,14.74908447265625 L 18.69219970703125,14.851730346679688 L 19.165679931640625,14.653244018554688 L 19.528472900390625,14.2774658203125 L 20.000274658203125,14.093353271484375 L 20.500274658203125,14.247100830078125 L 20.9737548828125,14.495086669921875 L 21.465667724609375,14.3013916015625 L 21.70269775390625,13.824996948242188 L 21.911209106445312,13.342208862304688 L 22.1884765625,12.883392333984375 L 21.8089599609375,12.69927978515625 L 21.59210205078125,12.6605224609375 M 19.255615234375,8.81878662109375 L 19.255615234375,8.81878662109375 L 19.156158447265625,9.01885986328125 L 19.156158447265625,8.833145141601562 L 19.070098876953125,8.39508056640625 M 18.782546997070312,12.977096557617188 L 18.782546997070312,12.977096557617188 L 18.809951782226562,13.423141479492188 L 18.832321166992188,13.239028930664062 L 18.680862426757812,13.200271606445312 M 23.075912475585938,11.958984375 L 23.075912475585938,11.958984375 L 23.373306274414062,12.18939208984375 L 23.803176879882812,12.434188842773438 L 24.08380126953125,12.888214111328125 L 24.03631591796875,13.388198852539062 L 23.814437866210938,13.885345458984375 L 23.641189575195312,14.385330200195312 L 23.469619750976562,14.88531494140625 L 23.093460083007812,15.286636352539062 L 22.79443359375,14.977935791015625 L 22.579254150390625,14.477935791015625 L 22.824661254882812,13.996749877929688 L 23.308197021484375,13.822219848632812 L 23.364105224609375,13.322219848632812 L 23.044952392578125,12.882553100585938 L 22.913619995117188,12.382553100585938 L 22.881240844726562,11.882553100585938 L 22.806915283203125,11.382553100585938 M 23.313690185546875,9.75347900390625 L 23.313690185546875,9.75347900390625 L 23.5406494140625,9.272293090820312 L 23.898422241210938,8.886932373046875 L 24.25787353515625,8.501571655273438 L 24.030960083007812,8.0203857421875 L 23.62628173828125,7.676544189453125 L 23.404403686523438,7.2177276611328125 L 23.221099853515625,6.73974609375 L 22.727554321289062,6.5476531982421875 L 22.227569580078125,6.699798583984375 L 22.24658203125,7.1997833251953125 L 22.699935913085938,7.487701416015625 L 23.158309936523438,7.75006103515625 L 23.425506591796875,8.221649169921875 L 23.337783813476562,8.721633911132812 L 23.048828125,9.178863525390625 L 22.878936767578125,9.678848266601562 L 23.110916137695312,10.07696533203125 L 23.32110595703125,9.781051635742188" fill="none" stroke="#000000" stroke-width="0.008738983154296874"/>
</svg>
