<?xml version="1.0" ?>
<svg baseProfile="full" height="600px" version="1.1" viewBox="13.06791968536377 3.8428723831176756 11.120355697631837 13.75958299255371" width="485px" xmlns="http://www.w3.org/2000/svg" xmlns:ev="http://www.w3.org/2001/xml-events" xmlns:xlink="http://www.w3.org/1999/xlink">
	<defs/>
	<path d="M 21.710556030273438,9.569107055664062 L 21.710556030273438,9.569107055664062 L 22.006271362304688,9.397781372070312 L 22.441177368164062,9.124221801757812 L 22.872726440429688,8.823532104492188 L 23.072860717773438,8.348724365234375 L 23.170700073242188,7.856353759765625 L 23.256805419921875,7.363983154296875 L 23.256805419921875,7.1862640380859375 L 23.256805419921875,6.7066802978515625 L 23.1053466796875,6.2066802978515625 L 22.849929809570312,5.7510528564453125 L 22.470413208007812,5.37847900390625 L 22.030517578125,5.090545654296875 L 21.530532836914062,4.9942779541015625 L 21.030548095703125,5.1416473388671875 L 20.622528076171875,5.45831298828125 L 20.239654541015625,5.8260955810546875 L 19.863494873046875,6.2018585205078125 L 19.487335205078125,6.5792236328125 L 19.283889770507812,7.05560302734375 L 19.338119506835938,7.5555877685546875 L 19.595260620117188,7.9984283447265625 L 19.850723266601562,8.447647094726562 L 20.107864379882812,8.895278930664062 L 20.44549560546875,9.294998168945312 L 20.7982177734375,9.680343627929688 L 21.162689208984375,10.059310913085938 L 21.6395263671875,9.931106567382812 L 21.99224853515625,9.57928466796875 M 20.912521362304688,8.330520629882812 L 20.912521362304688,8.330520629882812 L 21.224990844726562,8.77496337890625 L 21.700149536132812,8.912734985351562 L 22.106552124023438,8.62640380859375 L 22.20941162109375,8.14361572265625 L 22.036163330078125,7.673614501953125 L 21.802536010742188,7.23394775390625 L 21.56890869140625,6.792694091796875 L 21.068923950195312,6.792694091796875 L 20.595489501953125,7.0247039794921875 L 20.512786865234375,7.5234527587890625 L 20.840362548828125,7.9551239013671875 L 21.167938232421875,8.381988525390625 L 21.656509399414062,8.362380981445312 L 21.987442016601562,7.986602783203125 L 22.0181884765625,7.4990234375 L 21.640350341796875,7.142425537109375 L 21.140365600585938,7.20672607421875 L 20.640380859375,7.3572845458984375 L 20.768402099609375,7.85443115234375 L 21.152984619140625,8.193450927734375 L 21.480560302734375,7.8112945556640625 L 21.436431884765625,7.320526123046875 L 20.986480712890625,7.6387786865234375 L 21.31573486328125,8.076828002929688 L 21.81268310546875,7.9518280029296875 L 22.30963134765625,7.8268280029296875 L 21.861358642578125,7.5756378173828125 L 21.379547119140625,7.378753662109375 L 20.879562377929688,7.53887939453125 L 21.0528564453125,8.038864135742188 L 21.41900634765625,7.6950225830078125 L 21.478271484375,7.2058563232421875 L 20.9964599609375,7.0121612548828125 L 20.694091796875,7.4582061767578125 M 21.292465209960938,12.3411865234375 L 21.292465209960938,12.3411865234375 L 21.579803466796875,12.7904052734375 L 21.877197265625,13.234848022460938 L 22.193038940429688,13.680892944335938 L 22.505508422851562,14.126937866210938 L 22.454666137695312,14.626922607421875 L 22.403823852539062,15.126907348632812 L 22.232254028320312,15.620849609375 L 21.924835205078125,16.0301513671875 L 21.518478393554688,16.350006103515625 L 21.01849365234375,16.4510498046875 L 20.518508911132812,16.324447631835938 L 20.127243041992188,16.017349243164062 L 19.82989501953125,15.636795043945312 L 19.628128051757812,15.200332641601562 L 19.456558227539062,14.74151611328125 L 19.25982666015625,14.276290893554688 L 19.0882568359375,13.817474365234375 L 19.21124267578125,13.331497192382812 L 19.56396484375,12.966903686523438 L 20.02569580078125,12.742874145507812 L 20.4874267578125,12.522018432617188 L 20.818359375,12.15423583984375 L 21.196243286132812,11.845535278320312 L 21.595932006835938,12.21649169921875 M 21.087326049804688,13.436065673828125 L 21.087326049804688,13.436065673828125 L 20.701095581054688,13.795852661132812 L 20.447357177734375,14.241897583007812 L 20.454635620117188,14.740646362304688 L 20.735260009765625,15.1802978515625 L 21.178543090820312,15.42987060546875 L 21.615127563476562,15.151519775390625 L 21.669357299804688,14.6639404296875 L 21.549758911132812,14.1795654296875 L 21.430160522460938,13.6951904296875 L 21.275344848632812,13.214004516601562 L 20.795211791992188,13.406097412109375 L 20.479415893554688,13.840957641601562 L 20.672836303710938,14.328521728515625 L 21.05072021484375,14.701080322265625 L 21.52587890625,14.515365600585938 L 21.772964477539062,14.072509765625 M 21.555587768554688,15.006118774414062 L 21.555587768554688,15.006118774414062 L 21.212966918945312,15.40423583984375 L 20.712982177734375,15.26165771484375 L 20.618545532226562,14.77886962890625 L 20.890777587890625,14.356781005859375 L 21.32904052734375,14.671844482421875 L 21.6817626953125,14.3072509765625 L 21.319015502929688,14.703781127929688 L 20.907638549804688,15.033218383789062 L 20.459365844726562,14.770843505859375 L 20.83892822265625,15.168960571289062 L 21.305679321289062,15.367431640625 L 21.562820434570312,14.929367065429688 L 21.082687377929688,14.716522216796875 L 20.60589599609375,14.946929931640625 M 19.058883666992188,10.092514038085938 L 19.058883666992188,10.092514038085938 L 18.667617797851562,9.732711791992188 L 18.259597778320312,9.414443969726562 L 17.844863891601562,9.104156494140625 L 17.378143310546875,8.851364135742188 L 16.985198974609375,8.545867919921875 L 16.798538208007812,8.1046142578125 L 16.626968383789062,7.6473846435546875 L 16.262542724609375,7.274810791015625 L 15.774017333984375,7.1290283203125 L 15.274032592773438,7.1290283203125 L 14.7740478515625,7.1550140380859375 L 14.298934936523438,7.3966064453125 L 14.115631103515625,7.6381988525390625 L 13.9993896484375,8.13818359375 L 14.149200439453125,8.638168334960938" fill="none" stroke="#000000" stroke-width="0.011456771850585938"/>
</svg>
