<?xml version="1.0" ?>
<svg baseProfile="full" height="600px" version="1.1" viewBox="15.113720817565918 5.568252677917481 4.198293838500977 10.903579483032226" width="232px" xmlns="http://www.w3.org/2000/svg" xmlns:ev="http://www.w3.org/2001/xml-events" xmlns:xlink="http://www.w3.org/1999/xlink">
	<defs/>
	<path d="M 17.012969970703125,8.398910522460938 L 17.012969970703125,8.398910522460938 L 17.070556640625,7.9289093017578125 L 16.5887451171875,7.7080535888671875 L 16.088760375976562,7.5798492431640625 L 15.9658203125,7.4516448974609375 L 16.048568725585938,7.3234405517578125 L 16.174911499023438,7.1952362060546875 L 16.31298828125,7.0670318603515625 L 16.233642578125,6.9388275146484375 L 16.114044189453125,6.8106231689453125 L 15.987747192382812,6.6824188232421875 M 16.028549194335938,7.182403564453125 L 16.028549194335938,7.182403564453125 L 16.069351196289062,7.6823883056640625 L 16.108489990234375,8.182373046875 L 16.358932495117188,8.6683349609375 L 16.858932495117188,8.742218017578125 L 17.043960571289062,8.81610107421875 L 17.133407592773438,8.317337036132812 L 17.022201538085938,7.8173370361328125 L 16.910995483398438,7.6619720458984375 L 16.799789428710938,7.7853851318359375 L 16.688583374023438,7.9822540283203125 L 16.200057983398438,8.23663330078125 L 15.830596923828125,8.653915405273438 M 16.017303466796875,8.65594482421875 L 16.017303466796875,8.65594482421875 L 16.475677490234375,8.689910888671875 L 16.893814086914062,8.715896606445312 L 16.958099365234375,8.215896606445312 L 16.958663940429688,7.7158966064453125 L 16.45867919921875,7.5940704345703125 L 15.958694458007812,7.5057830810546875 L 15.95648193359375,8.005767822265625 L 15.954269409179688,8.505752563476562 M 16.291900634765625,8.915054321289062 L 16.291900634765625,8.915054321289062 L 16.791900634765625,8.992141723632812 L 17.106048583984375,8.574844360351562 L 17.25250244140625,8.074844360351562 L 17.03564453125,7.5776824951171875 L 16.552154541015625,7.4063568115234375 L 16.070343017578125,7.6671142578125 L 15.865219116210938,8.157882690429688 L 15.84625244140625,8.657867431640625 M 18.380325317382812,7.923126220703125 L 18.380325317382812,7.923126220703125 L 18.358001708984375,7.61602783203125 L 18.332321166992188,7.11602783203125 L 18.045028686523438,6.665191650390625 L 17.5450439453125,6.5721282958984375 L 17.045059204101562,6.4806671142578125 L 17.449783325195312,6.806915283203125 L 17.918212890625,7.0037841796875 L 18.358154296875,7.314056396484375 L 18.248626708984375,7.8140411376953125 L 18.134063720703125,8.31402587890625 L 18.574005126953125,8.035675048828125 L 18.581283569335938,7.5369110107421875 M 17.078079223632812,14.301971435546875 L 17.078079223632812,14.301971435546875 L 17.137344360351562,14.089126586914062 L 17.130111694335938,13.719741821289062 L 16.8009033203125,13.339187622070312 L 16.300918579101562,13.292449951171875 L 15.886184692382812,13.665008544921875 L 15.6827392578125,14.158950805664062 L 15.983474731445312,14.606582641601562 L 16.482101440429688,14.674087524414062 L 16.958938598632812,14.493179321289062 L 17.2362060546875,14.050323486328125 L 16.965682983398438,13.57073974609375 L 16.49224853515625,13.3626708984375 L 15.992263793945312,13.541976928710938 L 15.740188598632812,14.013565063476562 L 16.02081298828125,14.454803466796875 L 16.494293212890625,14.621337890625 L 16.994293212890625,14.645721435546875 M 18.407577514648438,13.73284912109375 L 18.407577514648438,13.73284912109375 L 18.259490966796875,14.232833862304688 L 17.921905517578125,14.6724853515625 L 17.5306396484375,15.059432983398438 L 17.427825927734375,15.559417724609375 L 17.884521484375,15.530242919921875 L 18.248992919921875,15.144882202148438 L 18.44073486328125,14.649322509765625 L 18.726394653320312,14.185699462890625 L 18.9583740234375,13.701324462890625 L 18.754928588867188,13.205764770507812 L 18.358642578125,13.591110229492188 L 18.38604736328125,14.091094970703125 L 18.408416748046875,14.591079711914062 L 18.002059936523438,14.917327880859375 M 15.514862060546875,14.862258911132812 L 15.514862060546875,14.862258911132812 L 15.723373413085938,15.059127807617188 L 16.057662963867188,15.12823486328125 L 16.30474853515625,15.004806518554688 M 15.467361450195312,7.7310333251953125 L 15.467361450195312,7.7310333251953125 L 15.469619750976562,7.4814453125 L 15.473556518554688,7.164764404296875 L 15.846405029296875,6.8960113525390625 L 16.219253540039062,6.7837677001953125" fill="none" stroke="#000000" stroke-width="0.009078750610351563"/>
</svg>
