<?xml version="1.0" ?>
<svg baseProfile="full" height="600px" version="1.1" viewBox="9.24372661590576 4.992969779968262 13.05296730041504 14.229346694946289" width="551px" xmlns="http://www.w3.org/2000/svg" xmlns:ev="http://www.w3.org/2001/xml-events" xmlns:xlink="http://www.w3.org/1999/xlink">
	<defs/>
	<path d="M 20.137039184570312,6.62908935546875 L 20.137039184570312,6.62908935546875 L 20.265060424804688,6.7796478271484375 L 20.416549682617188,6.930206298828125 L 20.568038940429688,7.07757568359375 L 20.719528198242188,7.224945068359375 L 20.871017456054688,7.372314453125 L 21.020828247070312,7.5420379638671875 L 21.127044677734375,7.730926513671875 L 21.176254272460938,8.018844604492188 L 21.176254272460938,8.313140869140625 L 21.152252197265625,8.604263305664062 L 21.126571655273438,8.8985595703125 L 21.099212646484375,9.192855834960938 L 21.02154541015625,9.488754272460938 L 20.915374755859375,9.784652709960938 L 20.789077758789062,10.069366455078125 L 20.65606689453125,10.23590087890625 L 20.5029296875,10.333755493164062 L 20.34979248046875,10.431610107421875 L 20.198333740234375,10.555023193359375 L 20.046875,10.683212280273438 L 19.928955078125,10.586944580078125 L 19.80767822265625,10.4794921875 L 19.647842407226562,10.344894409179688 L 19.48297119140625,10.210296630859375 L 19.354995727539062,10.02618408203125 L 19.265594482421875,9.759017944335938 L 19.22314453125,9.480667114257812 L 19.17901611328125,9.20391845703125 L 19.133209228515625,8.927169799804688 L 19.094100952148438,8.647232055664062 L 19.058349609375,8.362503051757812 L 19.074020385742188,8.076171875 L 19.12322998046875,7.7818603515625 L 19.219390869140625,7.4763641357421875 L 19.320571899414062,7.170867919921875 L 19.4217529296875,6.8653717041015625 L 19.61181640625,6.5998077392578125 L 19.843795776367188,6.3853607177734375 L 20.105972290039062,6.183685302734375 M 20.801025390625,9.263687133789062 L 20.801025390625,9.263687133789062 L 20.662994384765625,9.20416259765625 L 20.457870483398438,9.146240234375 L 20.247726440429688,9.08831787109375 L 20.04931640625,9.170196533203125 L 19.855926513671875,9.349502563476562 L 19.68267822265625,9.565536499023438 L 19.568115234375,9.781570434570312 L 19.478713989257812,9.996017456054688 L 19.554733276367188,10.210464477539062 L 19.66094970703125,10.423309326171875 L 19.807403564453125,10.577056884765625 M 20.37158203125,13.737762451171875 L 20.37158203125,13.737762451171875 L 20.461029052734375,13.861175537109375 L 20.563888549804688,13.986190795898438 L 20.671783447265625,14.1112060546875 L 20.779678344726562,14.236221313476562 L 20.885894775390625,14.366012573242188 L 20.992111206054688,14.502197265625 L 21.09832763671875,14.638381958007812 L 21.159271240234375,14.81768798828125 L 21.2000732421875,15.003387451171875 L 21.204010009765625,15.225814819335938 L 21.20013427734375,15.4466552734375 L 21.196258544921875,15.667495727539062 L 21.1923828125,15.886734008789062 L 21.188507080078125,16.105972290039062 L 21.18463134765625,16.325210571289062 L 21.169021606445312,16.546051025390625 L 21.104782104492188,16.765289306640625 L 21.033828735351562,16.982925415039062 L 20.962875366210938,17.2005615234375 L 20.891921997070312,17.418197631835938 L 20.815933227539062,17.635833740234375 L 20.72149658203125,17.840682983398438 L 20.519729614257812,17.972076416015625 L 20.229095458984375,18.031600952148438 L 20.166519165039062,17.889022827148438 L 20.087173461914062,17.741653442382812 L 20.007827758789062,17.594284057617188 L 19.923446655273438,17.451705932617188 L 19.839065551757812,17.309127807617188 L 19.754684448242188,17.166549682617188 L 19.670303344726562,17.023971557617188 L 19.594314575195312,16.839859008789062 L 19.523361206054688,16.654144287109375 L 19.455764770507812,16.471633911132812 L 19.420013427734375,16.287521362304688 L 19.419479370117188,16.092239379882812 L 19.419479370117188,15.89215087890625 L 19.4200439453125,15.692062377929688 L 19.420608520507812,15.491973876953125 L 19.420074462890625,15.291885375976562 L 19.420074462890625,15.093399047851562 L 19.420639038085938,14.894912719726562 L 19.446365356445312,14.691635131835938 L 19.493896484375,14.488357543945312 L 19.598434448242188,14.301055908203125 L 19.706329345703125,14.115341186523438 L 19.812545776367188,13.987136840820312 L 19.878509521484375,13.847747802734375 L 19.941131591796875,13.703567504882812 L 20.003753662109375,13.55938720703125 L 20.064697265625,13.419998168945312 M 21.003875732421875,16.284347534179688 L 21.003875732421875,16.284347534179688 L 20.842361450195312,16.269546508789062 L 20.670791625976562,16.253143310546875 L 20.479080200195312,16.291885375976562 L 20.305831909179688,16.416900634765625 L 20.179534912109375,16.639328002929688 L 20.028076171875,16.839401245117188 L 19.863204956054688,17.009124755859375 L 19.84759521484375,17.180435180664062 L 19.859909057617188,17.35174560546875 L 19.915817260742188,17.53424072265625 L 20.027053833007812,17.73431396484375 M 15.602264404296875,10.03125 L 15.602264404296875,10.03125 L 15.708480834960938,10.189804077148438 L 15.814697265625,10.349929809570312 L 15.922592163085938,10.510055541992188 L 15.973480224609375,10.668609619140625 L 16.024368286132812,10.827163696289062 L 16.00372314453125,10.9857177734375 L 15.941146850585938,11.145843505859375 L 15.876907348632812,11.30596923828125 L 15.812667846679688,11.466094970703125 L 15.788665771484375,11.624649047851562 L 15.776397705078125,11.784774780273438 L 15.764129638671875,11.94970703125 L 15.751861572265625,12.119430541992188 L 15.739593505859375,12.285964965820312 L 15.7105712890625,12.452499389648438 L 15.65972900390625,12.619033813476562 L 15.582061767578125,12.783966064453125 L 15.417190551757812,12.783523559570312 L 15.3797607421875,12.637741088867188 L 15.33563232421875,12.491958618164062 L 15.268035888671875,12.315826416015625 L 15.195388793945312,12.130111694335938 L 15.12274169921875,11.94439697265625 L 15.050094604492188,11.758682250976562 L 14.977447509765625,11.520263671875 L 14.97021484375,11.280258178710938 L 14.970779418945312,11.035446166992188 L 15.013275146484375,10.792236328125 L 15.060806274414062,10.549026489257812 L 15.141876220703125,10.364913940429688 L 15.233001708984375,10.182403564453125 L 15.327484130859375,9.998291015625 L 15.41693115234375,9.814178466796875 M 11.750732421875,8.866622924804688 L 11.750732421875,8.866622924804688 L 11.799942016601562,9.015579223632812 L 11.849151611328125,9.164535522460938 L 11.898361206054688,9.315093994140625 L 11.935821533203125,9.465652465820312 L 11.915176391601562,9.6162109375 L 11.85931396484375,9.766769409179688 L 11.7833251953125,9.918914794921875 L 11.702301025390625,10.077468872070312 L 11.6246337890625,10.251983642578125 L 11.54864501953125,10.426498413085938 L 11.494461059570312,10.608993530273438 L 11.58056640625,10.856979370117188 L 11.718643188476562,11.132110595703125 L 11.853363037109375,11.41522216796875 L 11.934432983398438,11.73028564453125 L 12.0155029296875,12.04534912109375 L 12.046249389648438,12.451446533203125 L 12.076995849609375,12.8575439453125 L 12.107742309570312,13.258865356445312 L 12.107742309570312,13.75885009765625 L 12.19049072265625,14.258834838867188 L 12.420791625976562,14.751190185546875 L 12.76849365234375,15.021530151367188 M 11.0147705078125,9.578887939453125 L 11.0147705078125,9.578887939453125 L 10.849899291992188,9.619232177734375 L 10.681671142578125,9.68994140625 L 10.558731079101562,9.800567626953125 L 10.514602661132812,9.946334838867188 L 10.468795776367188,10.152786254882812 L 10.424667358398438,10.375213623046875 L 10.380538940429688,10.597640991210938 L 10.336410522460938,10.820068359375 L 10.365478515625,11.042495727539062 L 10.409652709960938,11.3367919921875 L 10.5091552734375,11.6326904296875 L 10.608657836914062,11.9285888671875 L 10.714874267578125,12.2244873046875 L 10.824447631835938,12.5203857421875 L 11.01953125,12.696502685546875 L 11.2481689453125,12.768798828125" fill="none" stroke="#000000" stroke-width="0.011847915649414063"/>
</svg>
