<?xml version="1.0" ?>
<svg baseProfile="full" height="600px" version="1.1" viewBox="14.078314521789551 4.687813117980957 5.639849227905273 13.435729354858399" width="252px" xmlns="http://www.w3.org/2000/svg" xmlns:ev="http://www.w3.org/2001/xml-events" xmlns:xlink="http://www.w3.org/1999/xlink">
	<defs/>
	<path d="M 18.614639282226562,8.411026000976562 L 18.614639282226562,8.411026000976562 L 18.801345825195312,8.2109375 L 19.132278442382812,7.8447418212890625 L 19.243515014648438,7.3603668212890625 L 19.212814331054688,6.869598388671875 L 19.021102905273438,6.405975341796875 L 18.589599609375,6.1340179443359375 L 18.106109619140625,5.9499053955078125 L 17.606124877929688,5.8121185302734375 L 17.10614013671875,5.905181884765625 L 16.607559204101562,6.095672607421875 L 16.130767822265625,6.3228912353515625 L 15.836776733398438,6.764129638671875 L 15.619918823242188,7.230926513671875 L 15.439956665039062,7.7200927734375 L 15.469024658203125,8.220077514648438 L 15.612136840820312,8.720062255859375 L 15.7552490234375,9.220046997070312 L 16.116363525390625,9.619766235351562 L 16.54119873046875,9.906082153320312 L 17.0347900390625,10.090179443359375 L 17.5347900390625,10.00189208984375 L 17.959625244140625,9.699600219726562 L 18.297256469726562,9.309463500976562 L 18.629867553710938,8.90972900390625 L 18.88031005859375,8.470062255859375 L 19.008331298828125,7.985687255859375 M 17.72821044921875,15.843124389648438 L 17.72821044921875,15.843124389648438 L 17.995407104492188,15.385894775390625 L 18.262603759765625,14.927078247070312 L 18.445953369140625,14.463455200195312 L 18.498504638671875,13.979080200195312 L 18.462753295898438,13.496292114257812 L 18.173797607421875,13.077392578125 L 17.717147827148438,12.845367431640625 L 17.2171630859375,12.715560913085938 L 16.717178344726562,12.624099731445312 L 16.217193603515625,12.672439575195312 L 15.717208862304688,12.802230834960938 L 15.232040405273438,13.002304077148438 L 14.820663452148438,13.320556640625 L 14.61553955078125,13.793746948242188 L 14.552963256835938,14.293731689453125 L 14.593765258789062,14.793716430664062 L 14.65972900390625,15.293701171875 L 14.760910034179688,15.793685913085938 L 14.954330444335938,16.292434692382812 L 15.30035400390625,16.6905517578125 L 15.741973876953125,16.999237060546875 L 16.241973876953125,16.9189453125 L 16.741973876953125,16.76837158203125 L 17.241973876953125,16.619400024414062 L 17.604766845703125,16.243621826171875 L 17.79315185546875,15.760833740234375 L 17.974838256835938,15.279647827148438 M 16.578399658203125,8.050445556640625 L 16.578399658203125,8.050445556640625 L 16.686294555664062,8.415023803710938 L 16.812637329101562,8.801971435546875 L 17.108352661132812,8.970108032226562 L 17.534866333007812,9.010452270507812 L 18.0032958984375,8.823150634765625 L 18.285598754882812,8.42022705078125 L 18.344863891601562,7.93743896484375 L 18.399093627929688,7.45306396484375 L 18.401351928710938,6.96868896484375 L 17.9013671875,6.8947906494140625 L 17.401382446289062,7.059722900390625 L 16.96148681640625,7.3332672119140625 L 16.526626586914062,7.6163787841796875 L 16.413742065429688,8.116363525390625 M 17.148513793945312,14.762252807617188 L 17.148513793945312,14.762252807617188 L 17.070846557617188,14.549407958984375 L 16.986465454101562,14.2982177734375 L 16.902084350585938,14.047027587890625 L 16.790878295898438,13.784652709960938 L 16.60589599609375,13.515899658203125 L 16.305206298828125,13.30145263671875 L 15.94915771484375,13.136505126953125 L 15.561248779296875,13.178451538085938 L 15.210235595703125,13.597335815429688 L 15.132568359375,14.097320556640625 L 15.108566284179688,14.597305297851562 L 15.12255859375,15.0972900390625 L 15.373001098632812,15.559295654296875 L 15.720703125,15.931854248046875 L 16.18243408203125,16.179840087890625 L 16.68243408203125,16.096359252929688 L 17.090499877929688,15.779678344726562 L 17.241989135742188,15.298492431640625 L 17.22637939453125,14.807723999023438 L 17.150390625,14.31695556640625" fill="none" stroke="#000000" stroke-width="0.011187118530273437"/>
</svg>
