<?xml version="1.0" ?>
<svg baseProfile="full" height="600px" version="1.1" viewBox="19.810109970092775 7.490018722534179 1.3294413146972657 6.910038238525391" width="116px" xmlns="http://www.w3.org/2000/svg" xmlns:ev="http://www.w3.org/2001/xml-events" xmlns:xlink="http://www.w3.org/1999/xlink">
	<defs/>
	<path d="M 20.089813232421875,13.50994873046875 L 20.089813232421875,13.50994873046875 L 20.338577270507812,13.821823120117188 L 20.371002197265625,13.321823120117188 L 19.984771728515625,12.947647094726562 L 20.164779663085938,13.444793701171875 L 20.624832153320312,13.7279052734375 L 20.233566284179688,13.355331420898438 L 20.122360229492188,13.478744506835938 L 20.265472412109375,13.02630615234375 L 20.529327392578125,13.109771728515625 L 20.253768920898438,13.241165161132812 L 20.063735961914062,13.736709594726562 L 20.503677368164062,13.436019897460938 L 20.3807373046875,12.936019897460938 L 20.616073608398438,13.426788330078125 M 20.5263671875,8.5302734375 L 20.5263671875,8.5302734375 L 21.0263671875,8.586593627929688 L 20.74578857421875,8.150131225585938 L 20.245803833007812,8.068252563476562 L 20.51971435546875,8.533462524414062 L 20.068084716796875,8.998672485351562 L 20.177658081054688,9.463882446289062 L 20.28387451171875,8.971511840820312 L 20.120681762695312,8.482345581054688 L 20.525405883789062,8.218368530273438 L 20.980422973632812,8.45037841796875 L 20.68475341796875,8.89959716796875 L 20.659072875976562,8.39959716796875 L 20.192352294921875,8.204315185546875 L 20.296890258789062,8.704299926757812 L 20.40142822265625,9.20428466796875 L 20.8765869140625,9.02337646484375 L 20.376602172851562,9.249008178710938 L 19.923294067382812,9.007400512695312 L 20.240814208984375,8.5885009765625 L 20.731048583984375,8.5609130859375 L 20.485687255859375,9.043685913085938" fill="none" stroke="#000000" stroke-width="0.0057535705566406255"/>
</svg>
