<?xml version="1.0" ?>
<svg baseProfile="full" height="600px" version="1.1" viewBox="18.0578762512207 5.749505279541015 2.9717719116210937 9.420270446777344" width="190px" xmlns="http://www.w3.org/2000/svg" xmlns:ev="http://www.w3.org/2001/xml-events" xmlns:xlink="http://www.w3.org/1999/xlink">
	<defs/>
	<path d="M 19.437667846679688,6.8127593994140625 L 19.437667846679688,6.8127593994140625 L 19.730026245117188,6.8946380615234375 L 20.062637329101562,7.1250457763671875 L 20.318099975585938,7.6062164306640625 L 20.565185546875,8.0889892578125 L 20.778732299804688,8.581344604492188 L 20.706085205078125,9.081329345703125 L 20.42718505859375,9.530548095703125 L 20.253936767578125,9.550140380859375 L 20.0806884765625,9.561737060546875 M 19.967803955078125,9.438308715820312 L 19.967803955078125,9.438308715820312 L 19.72412109375,9.203094482421875 L 19.3446044921875,8.907180786132812 L 18.9583740234375,8.537796020507812 L 18.783447265625,8.037796020507812 L 18.795761108398438,7.5377960205078125 L 18.849990844726562,7.0377960205078125 L 18.991424560546875,6.5377960205078125 L 19.126144409179688,6.6340484619140625 L 19.30615234375,6.7830047607421875 L 19.627029418945312,7.02459716796875 M 20.249908447265625,7.75567626953125 L 20.249908447265625,7.75567626953125 L 20.13702392578125,7.5172576904296875 L 19.85980224609375,7.184600830078125 L 19.775421142578125,7.323974609375 L 19.47137451171875,7.77001953125 L 19.162277221679688,8.216064453125 L 19.305389404296875,8.313919067382812 L 19.58099365234375,8.60821533203125 L 20.037689208984375,8.79071044921875 L 20.418930053710938,8.448471069335938 L 20.442977905273438,8.178115844726562 L 20.445236206054688,7.8742218017578125 M 20.4248046875,12.759841918945312 L 20.4248046875,12.759841918945312 L 20.186141967773438,13.068527221679688 L 19.848556518554688,13.493789672851562 L 19.505935668945312,13.917465209960938 L 19.163314819335938,14.341140747070312 L 18.990066528320312,14.381484985351562 L 18.912399291992188,14.242095947265625 L 18.735794067382812,13.859939575195312 L 18.540740966796875,13.369171142578125 L 18.308792114257812,12.8800048828125 L 18.3948974609375,12.3800048828125 L 18.774459838867188,12.009033203125 L 19.189239501953125,11.7147216796875 L 19.622467041015625,11.437973022460938 L 20.003707885742188,11.836090087890625 L 20.33966064453125,12.280532836914062 L 20.440841674804688,12.399139404296875 L 20.625869750976562,12.718994140625 M 19.79461669921875,12.781661987304688 L 19.79461669921875,12.781661987304688 L 19.925994873046875,13.010482788085938 L 20.07244873046875,13.357498168945312 L 19.942794799804688,13.495269775390625 L 19.558242797851562,13.882217407226562 L 19.101593017578125,14.112625122070312 L 18.705307006835938,13.762405395507812 L 18.473358154296875,13.28759765625 L 18.415817260742188,12.991683959960938 L 18.500244140625,12.852294921875 L 18.769119262695312,12.447769165039062 L 18.915573120117188,12.396224975585938 L 19.246505737304688,12.231277465820312 L 19.2459716796875,12.3994140625 L 19.285110473632812,12.62823486328125 L 19.377914428710938,13.080657958984375 L 19.418716430664062,12.901351928710938 L 19.459518432617188,12.401351928710938 L 19.646224975585938,12.38494873046875 L 19.98553466796875,12.60418701171875 L 19.939727783203125,12.778701782226562 L 19.699386596679688,13.253494262695312" fill="none" stroke="#000000" stroke-width="0.00784368896484375"/>
</svg>
