<?xml version="1.0" ?>
<svg baseProfile="full" height="600px" version="1.1" viewBox="10.47666357421875 6.566479858398438 7.74790576171875 13.3036552734375" width="350px" xmlns="http://www.w3.org/2000/svg" xmlns:ev="http://www.w3.org/2001/xml-events" xmlns:xlink="http://www.w3.org/1999/xlink">
	<defs/>
	<path d="M 17.119064331054688,10.111373901367188 L 17.119064331054688,10.111373901367188 L 17.128021240234375,9.8857421875 L 17.157089233398438,9.3857421875 L 17.1029052734375,8.8857421875 L 16.827346801757812,8.44927978515625 L 16.442794799804688,8.091079711914062 L 16.002899169921875,7.8207244873046875 L 15.502914428710938,7.6797332763671875 L 15.0029296875,7.8734130859375 L 14.586517333984375,8.194869995117188 L 14.19525146484375,8.52911376953125 L 13.803985595703125,8.863357543945312 L 13.471420288085938,9.256683349609375 L 13.232757568359375,9.7091064453125 L 13.141677856445312,10.209091186523438 L 13.366958618164062,10.70623779296875 L 13.763290405273438,11.083602905273438 L 14.154586791992188,11.459365844726562 L 14.54925537109375,11.831924438476562 L 14.945587158203125,12.206085205078125 L 15.445587158203125,12.388580322265625 L 15.88720703125,12.087890625 L 16.031997680664062,11.589126586914062 L 16.141571044921875,11.089126586914062 L 16.319900512695312,10.598358154296875 L 16.652511596679688,10.197036743164062 L 17.112564086914062,9.945846557617188 L 17.574295043945312,9.724990844726562 M 16.459579467773438,17.570785522460938 L 16.459579467773438,17.570785522460938 L 16.318191528320312,17.070785522460938 L 16.13153076171875,16.587997436523438 L 15.9532470703125,16.110015869140625 L 15.994049072265625,15.6224365234375 L 15.815765380859375,15.142852783203125 L 15.384262084960938,14.864501953125 L 14.88427734375,14.936798095703125 L 14.384292602539062,15.01068115234375 L 13.884307861328125,15.084564208984375 L 13.384323120117188,15.158447265625 L 12.88433837890625,15.369705200195312 L 12.384353637695312,15.580963134765625 L 12.41510009765625,15.792221069335938 L 12.497848510742188,16.00347900390625 L 12.724807739257812,16.492645263671875 L 12.981948852539062,16.978607177734375 L 13.091522216796875,17.478591918945312 L 13.362075805664062,17.92303466796875 L 13.827163696289062,18.214157104492188 L 14.327163696289062,18.296035766601562 L 14.827163696289062,18.553604125976562 L 15.327163696289062,18.756881713867188 L 15.827163696289062,18.631881713867188 L 16.255355834960938,18.32318115234375 L 16.755355834960938,18.158233642578125 L 17.047714233398438,17.7249755859375 M 14.931671142578125,16.903121948242188 L 14.931671142578125,16.903121948242188 L 14.990936279296875,16.514572143554688 L 14.960235595703125,16.014572143554688 L 14.460250854492188,16.078872680664062 L 14.074020385742188,16.472198486328125 L 13.897415161132812,16.972183227539062 L 14.397415161132812,16.8455810546875 L 14.818893432617188,16.540084838867188 L 15.295730590820312,16.768905639648438 M 15.186492919921875,10.021896362304688 L 15.186492919921875,10.021896362304688 L 15.299407958984375,9.521896362304688 L 15.32513427734375,9.021896362304688 L 14.828231811523438,9.250717163085938 L 14.602996826171875,9.703140258789062 L 14.376083374023438,10.15716552734375 L 14.149169921875,10.611190795898438 L 14.359359741210938,11.10833740234375 L 14.859359741210938,11.110366821289062 L 15.190292358398438,10.715423583984375 L 15.2646484375,10.221466064453125 L 15.240646362304688,9.722702026367188 M 15.581787109375,13.6806640625 L 15.581787109375,13.6806640625 L 15.126815795898438,13.958999633789062 L 14.6268310546875,14.133514404296875 L 14.126846313476562,14.064407348632812 L 13.626861572265625,13.9298095703125 L 13.126876831054688,13.847930908203125 L 12.62689208984375,13.770828247070312 L 12.126907348632812,13.692123413085938 L 11.626922607421875,13.611831665039062 L 11.126937866210938,13.533126831054688" fill="none" stroke="#000000" stroke-width="0.0110771484375"/>
</svg>
