<?xml version="1.0" ?>
<svg baseProfile="full" height="600px" version="1.1" viewBox="14.548395599365234 5.761562408447266 4.1559706420898435 10.080879089355468" width="248px" xmlns="http://www.w3.org/2000/svg" xmlns:ev="http://www.w3.org/2001/xml-events" xmlns:xlink="http://www.w3.org/1999/xlink">
	<defs/>
	<path d="M 16.93463134765625,7.7931365966796875 L 16.93463134765625,7.7931365966796875 L 16.915664672851562,7.5691070556640625 L 16.737380981445312,7.515960693359375 L 16.354507446289062,7.57867431640625 L 15.87939453125,7.679718017578125 L 15.379409790039062,7.8302764892578125 L 15.551025390625,8.33026123046875 L 16.04461669921875,8.428115844726562 L 16.54461669921875,8.478042602539062 L 16.98455810546875,8.2012939453125 L 17.359085083007812,7.8590545654296875 M 17.887374877929688,7.9792633056640625 L 17.887374877929688,7.9792633056640625 L 17.939926147460938,7.7392578125 L 18.1165771484375,7.2804412841796875 L 17.827621459960938,6.8264007568359375 L 17.350830078125,6.613555908203125 L 16.850845336914062,6.605133056640625 L 16.350860595703125,6.6135406494140625 M 17.016326904296875,14.043655395507812 L 17.016326904296875,14.043655395507812 L 17.110809326171875,13.6982421875 L 17.028106689453125,13.400726318359375 L 16.588211059570312,13.115997314453125 L 16.088226318359375,13.048477172851562 L 15.588241577148438,13.159103393554688 L 15.0882568359375,13.285690307617188 L 14.898223876953125,13.7828369140625 L 15.3331298828125,14.067550659179688 L 15.825042724609375,14.147842407226562 L 16.32366943359375,14.191390991210938 L 16.82061767578125,14.135055541992188 L 17.262237548828125,13.877487182617188 M 18.139312744140625,13.295669555664062 L 18.139312744140625,13.295669555664062 L 18.354537963867188,13.685806274414062 L 18.354537963867188,14.185791015625 L 17.976699829101562,14.56634521484375 L 17.506622314453125,14.777603149414062 L 17.029830932617188,14.961700439453125 L 16.52984619140625,14.998870849609375 L 16.029861450195312,14.915390014648438" fill="none" stroke="#000000" stroke-width="0.00839373779296875"/>
</svg>
