<?xml version="1.0" ?>
<svg baseProfile="full" height="600px" version="1.1" viewBox="17.43234093475342 6.032932975769043 4.021472305297852 11.941259902954101" width="203px" xmlns="http://www.w3.org/2000/svg" xmlns:ev="http://www.w3.org/2001/xml-events" xmlns:xlink="http://www.w3.org/1999/xlink">
	<defs/>
	<path d="M 20.159774780273438,16.465164184570312 L 20.159774780273438,16.465164184570312 L 20.356536865234375,16.281051635742188 L 20.680755615234375,16.096939086914062 L 20.825546264648438,15.984695434570312 L 21.114547729492188,15.870864868164062 L 20.988250732421875,15.645233154296875 L 20.856918334960938,15.339736938476562 L 20.67529296875,14.839736938476562 L 20.769775390625,14.62689208984375 L 20.830718994140625,14.414047241210938 L 20.8883056640625,14.231536865234375 L 20.797225952148438,14.021865844726562 L 20.56695556640625,13.709991455078125 L 20.26458740234375,13.393310546875 L 19.970596313476562,13.083023071289062 L 19.622940063476562,13.068222045898438 L 19.209884643554688,13.130935668945312 L 18.796829223632812,13.295867919921875 L 18.554824829101562,13.47357177734375 L 18.379898071289062,13.699203491210938 L 18.283782958984375,13.975936889648438 L 18.366531372070312,14.334136962890625 L 18.554916381835938,14.72906494140625 L 18.701370239257812,15.17510986328125 L 18.795852661132812,15.675094604492188 L 18.8433837890625,16.175079345703125 L 19.125686645507812,16.517303466796875 L 19.590774536132812,16.765289306640625 L 20.067611694335938,16.974945068359375 L 20.277801513671875,16.870697021484375 L 20.3001708984375,16.66583251953125 L 20.330917358398438,16.24853515625 M 20.117095947265625,11.286270141601562 L 20.117095947265625,11.286270141601562 L 20.270263671875,10.789108276367188 L 20.416717529296875,10.291946411132812 L 20.56317138671875,9.794784545898438 L 20.709625244140625,9.297622680664062 L 20.668853759765625,8.797622680664062 L 20.428512573242188,8.341995239257812 L 20.183151245117188,7.8863677978515625 L 19.8572998046875,7.48504638671875 L 19.487838745117188,7.1172637939453125 L 18.98785400390625,7.0321807861328125 L 18.596588134765625,7.4079437255859375 L 18.210357666015625,7.80126953125 L 17.891204833984375,8.247314453125 L 17.7716064453125,8.747299194335938 L 17.874465942382812,9.247283935546875 L 18.002487182617188,9.747268676757812 L 18.148941040039062,10.24725341796875 L 18.293731689453125,10.747238159179688 L 18.639755249023438,11.1485595703125 L 19.10986328125,11.318283081054688 L 19.60986328125,11.478408813476562 L 20.098434448242188,11.710418701171875 M 19.339828491210938,8.773574829101562 L 19.339828491210938,8.773574829101562 L 19.253768920898438,8.485641479492188 L 19.155975341796875,8.121047973632812 L 18.786514282226562,8.456878662109375 L 18.442214965820312,8.883743286132812 L 18.260589599609375,9.380889892578125 L 18.433883666992188,9.880874633789062 L 18.933883666992188,9.954757690429688 L 19.425796508789062,10.0909423828125 L 19.83721923828125,10.158447265625 L 19.923324584960938,9.878509521484375 L 19.874160766601562,9.378509521484375 L 19.78643798828125,8.878509521484375 L 19.661819458007812,8.378509521484375 M 18.917373657226562,9.153533935546875 L 18.917373657226562,9.153533935546875 L 18.953155517578125,8.8096923828125 L 19.101287841796875,8.775711059570312 L 19.378555297851562,8.838424682617188 L 19.781600952148438,9.08001708984375 L 20.042098999023438,9.564376831054688 L 19.771575927734375,10.013595581054688 L 19.304855346679688,10.231231689453125 L 18.80487060546875,10.087051391601562 L 18.621566772460938,9.594680786132812 L 19.081619262695312,9.33551025390625 M 19.224609375,15.331832885742188 L 19.224609375,15.331832885742188 L 19.2872314453125,15.147720336914062 L 19.24310302734375,14.850204467773438 L 19.0899658203125,14.900131225585938 L 18.7037353515625,15.03631591796875 L 18.542221069335938,15.536300659179688 L 18.921783447265625,15.662887573242188 L 18.972671508789062,15.4005126953125" fill="none" stroke="#000000" stroke-width="0.009942764282226563"/>
</svg>
