<?xml version="1.0" ?>
<svg baseProfile="full" height="600px" version="1.1" viewBox="19.192916816711424 6.023963874816895 4.557220565795898 12.161132919311523" width="225px" xmlns="http://www.w3.org/2000/svg" xmlns:ev="http://www.w3.org/2001/xml-events" xmlns:xlink="http://www.w3.org/1999/xlink">
	<defs/>
	<path d="M 22.079071044921875,7.6962432861328125 L 22.079071044921875,7.6962432861328125 L 21.749862670898438,7.3140869140625 L 21.2498779296875,7.1379547119140625 L 20.749893188476562,7.330047607421875 L 20.420684814453125,7.7265777587890625 L 20.138427734375,8.169418334960938 L 19.96014404296875,8.656982421875 L 19.922714233398438,9.155731201171875 L 20.059112548828125,9.651275634765625 L 20.297821044921875,10.114883422851562 L 20.57342529296875,10.559326171875 L 21.07342529296875,10.6651611328125 L 21.57342529296875,10.612014770507812 L 22.0670166015625,10.407150268554688 L 22.431488037109375,10.03936767578125 L 22.740615844726562,9.625259399414062 L 22.908889770507812,9.140884399414062 L 22.72222900390625,8.642120361328125 L 22.280654907226562,8.330245971679688 L 21.8575439453125,8.01995849609375 L 21.617202758789062,7.540374755859375 L 21.755279541015625,7.0416107177734375 M 21.188064575195312,8.914031982421875 L 21.188064575195312,8.914031982421875 L 21.269134521484375,8.414031982421875 L 21.46759033203125,8.740280151367188 L 21.697891235351562,9.22784423828125 L 21.316696166992188,9.6275634765625 L 20.81671142578125,9.453033447265625 L 20.770904541015625,8.953033447265625 L 21.106857299804688,8.572479248046875 L 21.566909790039062,8.847610473632812 L 22.026962280273438,9.12274169921875 L 21.533416748046875,9.3531494140625 L 21.033432006835938,9.2872314453125 L 21.211761474609375,8.7872314453125 L 21.711761474609375,8.754852294921875 L 21.593841552734375,9.251998901367188 L 21.170730590820312,9.5782470703125 L 20.851577758789062,9.116226196289062 L 20.755462646484375,8.616226196289062 L 21.175262451171875,8.971221923828125 L 21.3770751953125,9.453994750976562 L 21.26922607421875,9.936767578125 L 21.042312622070312,10.419540405273438 M 22.624908447265625,13.135772705078125 L 22.624908447265625,13.135772705078125 L 23.06317138671875,13.382171630859375 L 23.325347900390625,13.839401245117188 L 23.36614990234375,14.339385986328125 L 23.32537841796875,14.839370727539062 L 23.25946044921875,15.33935546875 L 23.089569091796875,15.83489990234375 L 22.767059326171875,16.258575439453125 L 22.345626831054688,16.5880126953125 L 21.919143676757812,16.909469604492188 L 21.45074462890625,17.136688232421875 L 20.950759887695312,17.167449951171875 L 20.48236083984375,16.865158081054688 L 20.07098388671875,16.4893798828125 L 19.69482421875,16.075271606445312 L 19.576904296875,15.575271606445312 L 19.683120727539062,15.075271606445312 L 19.871505737304688,14.576507568359375 L 20.059890747070312,14.077743530273438 L 20.248275756835938,13.5789794921875 L 20.436660766601562,13.0789794921875 L 20.764236450195312,12.66168212890625 L 21.212554931640625,12.448837280273438 L 21.677642822265625,12.535507202148438 L 22.136016845703125,12.765914916992188 L 22.594390869140625,12.996322631835938 L 23.052764892578125,13.220352172851562 M 21.834091186523438,14.933486938476562 L 21.834091186523438,14.933486938476562 L 21.675933837890625,15.4334716796875 L 21.197479248046875,15.164718627929688 L 20.747528076171875,14.85601806640625 L 20.857101440429688,14.35601806640625 L 21.19976806640625,13.941909790039062 L 21.53070068359375,14.3863525390625 L 21.7694091796875,14.838775634765625 L 21.914199829101562,15.070785522460938 L 21.740951538085938,15.070785522460938 L 21.240966796875,14.985702514648438 L 20.827911376953125,14.633880615234375 L 21.294662475585938,14.406646728515625 L 21.679244995117188,14.799972534179688 L 22.063827514648438,15.19329833984375 L 21.5638427734375,15.013992309570312 L 21.063858032226562,14.839462280273438 L 20.563873291015625,14.656951904296875" fill="none" stroke="#000000" stroke-width="0.010125839233398437"/>
</svg>
