<?xml version="1.0" ?>
<svg baseProfile="full" height="600px" version="1.1" viewBox="15.371087585449219 7.721408020019531 5.495739868164063 11.582055786132813" width="285px" xmlns="http://www.w3.org/2000/svg" xmlns:ev="http://www.w3.org/2001/xml-events" xmlns:xlink="http://www.w3.org/1999/xlink">
	<defs/>
	<path d="M 18.05413818359375,11.9219970703125 L 18.05413818359375,11.9219970703125 L 17.884246826171875,12.149215698242188 L 17.709320068359375,12.378036499023438 L 17.474014282226562,12.608444213867188 L 17.226974487304688,12.838851928710938 L 17.083908081054688,12.772933959960938 L 16.908981323242188,12.697433471679688 L 16.739089965820312,12.621932983398438 L 16.656387329101562,12.495330810546875 L 16.566986083984375,12.354339599609375 L 16.484283447265625,12.052047729492188 L 16.425064086914062,11.687454223632812 L 16.36920166015625,11.231826782226562 L 16.330093383789062,10.731826782226562 L 16.389358520507812,10.231826782226562 L 16.648178100585938,9.744247436523438 L 16.9271240234375,9.283828735351562 L 17.206069946289062,8.82501220703125 L 17.65606689453125,8.91168212890625 L 18.069168090820312,9.271469116210938 L 18.373260498046875,9.717514038085938 L 18.559967041015625,10.21466064453125 L 18.58233642578125,10.714645385742188 L 18.521438598632812,11.214630126953125 M 18.51922607421875,11.389144897460938 L 18.51922607421875,11.389144897460938 L 18.454986572265625,11.71697998046875 L 18.318634033203125,12.102325439453125 L 17.861984252929688,12.361480712890625 M 16.6900634765625,11.274887084960938 L 16.6900634765625,11.274887084960938 L 16.714111328125,11.5931396484375 L 16.8656005859375,11.592697143554688 L 17.067413330078125,11.592254638671875 L 17.292694091796875,11.592254638671875 L 17.517974853515625,11.592254638671875 L 17.659408569335938,11.472030639648438 L 17.6236572265625,11.271942138671875 L 17.477249145507812,10.849853515625 L 17.298965454101562,10.35748291015625 L 16.80206298828125,10.587890625 L 16.400741577148438,10.96844482421875 L 16.404678344726562,11.467193603515625 M 17.1444091796875,14.455825805664062 L 17.1444091796875,14.455825805664062 L 17.482040405273438,14.515350341796875 L 17.880050659179688,14.651535034179688 L 18.195892333984375,15.099166870117188 L 18.170211791992188,15.599151611328125 L 18.057327270507812,16.099136352539062 L 17.939407348632812,16.59912109375 L 17.818130493164062,17.099105834960938 L 17.696853637695312,17.599090576171875 L 17.335784912109375,17.998809814453125 L 16.843917846679688,18.13818359375 L 16.34393310546875,18.009979248046875 L 15.939254760742188,17.6629638671875 L 15.833084106445312,17.1629638671875 L 15.974517822265625,16.6629638671875 L 16.14111328125,16.1629638671875 L 16.312728881835938,15.6629638671875 L 16.482681274414062,15.1629638671875 L 16.652633666992188,14.6629638671875 L 16.822586059570312,14.1629638671875 M 16.57293701171875,16.517776489257812 L 16.57293701171875,16.517776489257812 L 16.679153442382812,16.960617065429688 L 17.050338745117188,16.928237915039062 L 17.491958618164062,16.758514404296875 L 17.7591552734375,16.280532836914062 L 17.624481201171875,15.780532836914062 L 17.14434814453125,15.553298950195312 L 16.76483154296875,15.946624755859375 L 16.5865478515625,16.432586669921875 L 16.43341064453125,16.932571411132812 M 16.748977661132812,11.20697021484375 L 16.748977661132812,11.20697021484375 L 16.890411376953125,11.27447509765625 L 17.167678833007812,11.365936279296875 L 17.195083618164062,11.19140625 L 17.220809936523438,10.69140625 L 17.156570434570312,10.872314453125 L 16.86761474609375,11.3199462890625 L 16.687652587890625,11.2747802734375 L 16.187667846679688,11.23602294921875 M 16.892120361328125,16.508621215820312 L 16.892120361328125,16.508621215820312 L 17.248214721679688,16.330902099609375 L 17.3829345703125,16.455917358398438 L 17.554550170898438,16.89556884765625 L 17.185089111328125,16.959869384765625 M 19.421005249023438,12.280960083007812 L 19.421005249023438,12.280960083007812 L 19.6865234375,11.935546875 L 19.995651245117188,11.524627685546875 L 20.308120727539062,11.11212158203125 L 20.308685302734375,10.61212158203125 L 20.120346069335938,10.124542236328125 L 19.89678955078125,9.646560668945312 L 19.673233032226562,9.1685791015625 L 19.449676513671875,8.690597534179688 M 19.600418090820312,14.8685302734375 L 19.600418090820312,14.8685302734375 L 20.0504150390625,15.095748901367188 L 20.404830932617188,15.4986572265625 L 20.360702514648438,15.998641967773438 L 20.132095336914062,16.473434448242188 L 19.89678955078125,16.938644409179688 L 19.659805297851562,17.403854370117188 L 19.422821044921875,17.869064331054688 L 19.185836791992188,18.334274291992188" fill="none" stroke="#000000" stroke-width="0.0096436767578125"/>
</svg>
