<?xml version="1.0" ?>
<svg baseProfile="full" height="600px" version="1.1" viewBox="15.745804565429687 3.396437805175781 5.598768676757812 15.270967163085938" width="220px" xmlns="http://www.w3.org/2000/svg" xmlns:ev="http://www.w3.org/2001/xml-events" xmlns:xlink="http://www.w3.org/1999/xlink">
	<defs/>
	<path d="M 19.642684936523438,12.853424072265625 L 19.642684936523438,12.853424072265625 L 19.91156005859375,13.0870361328125 L 20.289443969726562,13.414871215820312 L 20.652236938476562,13.81298828125 L 20.748397827148438,14.312973022460938 L 20.662338256835938,14.812957763671875 L 20.5125732421875,15.312942504882812 L 20.347702026367188,15.81292724609375 L 20.093963623046875,16.297286987304688 L 19.969345092773438,16.468597412109375 M 17.23614501953125,15.895492553710938 L 17.23614501953125,15.895492553710938 L 17.208786010742188,15.395492553710938 L 17.129440307617188,14.895492553710938 L 17.019912719726562,14.395492553710938 L 17.241836547851562,13.895492553710938 L 17.611343383789062,13.545272827148438 M 19.89324951171875,13.420623779296875 L 19.89324951171875,13.420623779296875 L 19.597579956054688,13.486526489257812 L 19.19793701171875,13.673812866210938 L 18.697952270507812,13.551986694335938 L 18.197967529296875,13.347122192382812 L 17.784912109375,13.682952880859375 L 17.599929809570312,14.180099487304688 L 17.215377807617188,14.578216552734375 L 16.822433471679688,14.96356201171875 L 17.042678833007812,15.462310791015625 L 17.541305541992188,15.6016845703125 L 18.041305541992188,15.737869262695312 L 18.444351196289062,16.10565185546875 L 18.944351196289062,16.131637573242188 L 19.444351196289062,16.044952392578125 L 19.944351196289062,15.903961181640625 L 20.444351196289062,15.762969970703125 M 19.541793823242188,14.147140502929688 L 19.541793823242188,14.147140502929688 L 20.035385131835938,14.211441040039062 L 20.18017578125,14.71142578125 L 20.020339965820312,15.211410522460938 L 19.639144897460938,15.599945068359375 L 19.21771240234375,15.921401977539062 L 18.747634887695312,16.123077392578125 M 18.87115478515625,13.949050903320312 L 18.87115478515625,13.949050903320312 L 18.493316650390625,13.897506713867188 L 17.993331909179688,13.817214965820312 M 18.189620971679688,14.833206176757812 L 18.189620971679688,14.833206176757812 L 17.904006958007812,15.2105712890625 L 17.549636840820312,15.64862060546875 L 18.011367797851562,15.462905883789062 L 18.473098754882812,15.2244873046875 L 18.2696533203125,15.024398803710938 L 17.84149169921875,14.717300415039062 M 20.080490112304688,16.607650756835938 L 20.080490112304688,16.607650756835938 L 20.16156005859375,17.055282592773438 L 20.52435302734375,17.3895263671875 M 20.43780517578125,16.227401733398438 L 20.43780517578125,16.227401733398438 L 20.872711181640625,16.518524169921875 M 19.452957153320312,9.35888671875 L 19.452957153320312,9.35888671875 L 19.619552612304688,9.011871337890625 L 19.772720336914062,8.511871337890625 L 19.925888061523438,8.011871337890625 L 20.077377319335938,7.511871337890625 L 19.998031616210938,7.011871337890625 L 19.734222412109375,6.5354766845703125 L 19.467056274414062,6.05908203125 L 19.19989013671875,5.5826873779296875 M 19.595108032226562,8.89599609375 L 19.595108032226562,8.89599609375 L 19.386642456054688,8.957107543945312 L 18.88665771484375,9.021408081054688 L 18.386672973632812,9.085708618164062 L 17.886688232421875,8.915985107421875 L 17.45684814453125,8.604110717773438 L 17.027008056640625,8.292236328125 L 16.590469360351562,7.9867401123046875 L 16.217666625976562,7.6029815673828125 L 16.273574829101562,7.1029815673828125 L 16.606185913085938,6.6856842041015625 L 17.079666137695312,6.4871978759765625 L 17.506179809570312,6.1800994873046875 L 17.919281005859375,5.8730010986328125 L 18.419281005859375,5.9373016357421875 L 18.87933349609375,6.202850341796875 L 19.377960205078125,6.32305908203125 L 19.877960205078125,6.290679931640625 M 17.322265625,6.4851531982421875 L 17.322265625,6.4851531982421875 L 17.795745849609375,6.6612701416015625 L 17.6962890625,7.1612548828125 L 17.569992065429688,7.6612396240234375 L 17.510772705078125,8.161224365234375 L 17.010787963867188,8.26226806640625 L 16.574249267578125,7.9535675048828125 M 17.0377197265625,7.4012298583984375 L 17.0377197265625,7.4012298583984375 L 17.356918334960938,6.9599761962890625 L 17.238998413085938,7.4599609375 L 16.9097900390625,7.91558837890625 L 16.409805297851562,7.83050537109375 M 18.786376953125,5.38287353515625 L 18.786376953125,5.38287353515625 L 18.760696411132812,4.88287353515625 L 19.234176635742188,4.7035675048828125 M 18.93243408203125,5.4195556640625 L 18.93243408203125,5.4195556640625 L 18.916824340820312,4.9195556640625 L 19.386932373046875,4.735443115234375 L 19.880523681640625,4.67431640625 M 19.463653564453125,5.7353973388671875 L 19.463653564453125,5.7353973388671875 L 19.61346435546875,5.2353973388671875 L 20.07855224609375,5.0289306640625" fill="none" stroke="#000000" stroke-width="0.0127152099609375"/>
</svg>
