<?xml version="1.0" ?>
<svg baseProfile="full" height="600px" version="1.1" viewBox="12.18253229522705 8.418317207336425 4.607728988647461 7.530568344116211" width="368px" xmlns="http://www.w3.org/2000/svg" xmlns:ev="http://www.w3.org/2001/xml-events" xmlns:xlink="http://www.w3.org/1999/xlink">
	<defs/>
	<path d="M 14.476242065429688,14.982101440429688 L 14.476242065429688,14.982101440429688 L 14.664627075195312,15.044815063476562 L 14.93853759765625,15.126693725585938 L 15.261093139648438,15.194198608398438 L 15.613815307617188,15.149032592773438 L 15.964859008789062,14.936187744140625 L 16.257217407226562,14.633895874023438 L 16.403671264648438,14.25811767578125 L 16.300857543945312,13.86798095703125 L 16.072250366210938,13.485824584960938 L 15.724594116210938,13.199493408203125 L 15.241104125976562,13.13836669921875 L 14.741119384765625,13.12994384765625 L 14.241134643554688,13.12994384765625 L 13.74114990234375,13.131973266601562 L 13.249282836914062,13.378372192382812 L 12.775848388671875,13.667892456054688 L 12.716629028320312,14.0692138671875 L 12.928497314453125,14.472122192382812 L 13.199050903320312,14.876632690429688 L 13.561843872070312,15.2012939453125 L 13.971588134765625,15.262405395507812 L 14.389724731445312,15.3187255859375 M 15.44073486328125,14.083084106445312 L 15.44073486328125,14.083084106445312 L 15.446334838867188,13.867034912109375 L 15.4468994140625,13.64459228515625 L 15.315567016601562,13.490829467773438 L 15.056793212890625,13.440887451171875 L 14.796340942382812,13.450897216796875 L 14.636505126953125,13.489639282226562 L 14.360946655273438,13.603469848632812 L 14.0635986328125,13.72528076171875 L 13.766250610351562,13.71685791015625 L 13.46722412109375,13.638153076171875 L 13.235275268554688,13.763168334960938 L 13.262680053710938,13.913726806640625 L 13.30853271484375,14.065872192382812 L 13.475128173828125,14.3873291015625 L 13.62158203125,14.3421630859375 L 13.768035888671875,14.38250732421875 L 13.954742431640625,14.448410034179688 L 14.223617553710938,14.5478515625 L 14.301315307617188,14.413253784179688 L 14.377334594726562,14.152481079101562 L 14.579147338867188,13.934829711914062 L 14.579147338867188,14.088577270507812 L 14.566879272460938,14.526626586914062 L 14.622787475585938,14.3824462890625 L 14.678695678710938,14.215896606445312 L 14.828506469726562,14.106857299804688 L 15.026962280273438,14.104812622070312 L 15.176773071289062,14.135574340820312 L 15.368515014648438,14.171142578125 L 15.585418701171875,14.237045288085938 L 15.48260498046875,14.12640380859375 L 15.316055297851562,14.0125732421875 L 15.09417724609375,13.847625732421875 L 15.203750610351562,13.961456298828125 L 15.313323974609375,14.188674926757812 L 15.337371826171875,14.036514282226562 L 15.337371826171875,13.758163452148438 L 15.296600341796875,13.484603881835938 L 15.138442993164062,13.48980712890625 L 14.883026123046875,13.657943725585938 L 14.733261108398438,13.912322998046875 L 14.903213500976562,13.903900146484375 L 15.165390014648438,13.92828369140625 L 15.286712646484375,13.792098999023438 L 15.136947631835938,13.742156982421875 L 14.9486083984375,13.6810302734375 L 14.64288330078125,13.6358642578125 L 14.717239379882812,13.784820556640625 L 14.867050170898438,14.005661010742188 L 15.082275390625,14.330322265625 L 14.96771240234375,14.230865478515625 L 14.816253662109375,14.067520141601562 L 14.637969970703125,13.880218505859375 L 14.476455688476562,14.0467529296875 L 14.304885864257812,13.996810913085938 L 14.103118896484375,14.126602172851562 L 14.1824951171875,13.996795654296875 L 14.285354614257812,13.817489624023438 L 14.28314208984375,13.988800048828125 L 14.279266357421875,14.362960815429688 L 14.149612426757812,14.276275634765625 L 13.921005249023438,14.093765258789062 L 13.891983032226562,14.269882202148438 L 13.7237548828125,14.717514038085938 L 13.736068725585938,14.5382080078125 L 13.791976928710938,14.156051635742188 L 13.821044921875,14.005477905273438 L 13.850112915039062,13.767059326171875 L 13.775787353515625,13.93359375 L 13.62432861328125,14.235885620117188 L 13.596969604492188,14.0677490234375 L 13.569610595703125,13.899612426757812 L 13.52716064453125,14.0517578125 L 13.429367065429688,14.370010375976562 L 13.429367065429688,14.193878173828125 L 13.429367065429688,13.88677978515625 L 13.575820922851562,13.976654052734375 L 13.908432006835938,14.104843139648438 L 14.294692993164062,13.891998291015625 L 14.61053466796875,13.664764404296875 L 14.876052856445312,13.74664306640625 L 15.025863647460938,13.69830322265625 L 14.9012451171875,13.608413696289062 L 14.734695434570312,13.4818115234375 L 14.353500366210938,13.688262939453125 L 14.277511596679688,13.905899047851562 L 14.109283447265625,13.905899047851562 L 13.821990966796875,13.8927001953125 L 13.531356811523438,13.877899169921875 M 12.918472290039062,10.99420166015625 L 12.918472290039062,10.99420166015625 L 13.12530517578125,11.224609375 L 13.45623779296875,11.39752197265625 L 13.815689086914062,11.46502685546875 L 14.181838989257812,11.484619140625 L 14.551345825195312,11.489822387695312 L 14.920852661132812,11.436676025390625 L 15.290359497070312,11.365966796875 L 15.659866333007812,11.255325317382812 L 16.029373168945312,11.104751586914062 L 16.315032958984375,10.872726440429688 L 16.3759765625,10.56402587890625 L 16.296630859375,10.21380615234375 L 16.135116577148438,9.86358642578125 L 15.921615600585938,9.553298950195312 L 15.686309814453125,9.241424560546875 L 15.331939697265625,9.081283569335938 L 14.920562744140625,9.056900024414062 L 14.504150390625,9.048477172851562 L 14.082717895507812,9.189453125 L 13.691452026367188,9.4278564453125 L 13.305221557617188,9.626327514648438 L 12.910598754882812,9.802444458007812 L 12.68536376953125,10.146270751953125 L 12.569122314453125,10.595489501953125 L 12.713912963867188,11.095474243164062 M 12.98614501953125,11.13421630859375 L 12.98614501953125,11.13421630859375 M 14.98345947265625,10.63970947265625 L 14.98345947265625,10.63970947265625 L 15.215438842773438,10.589767456054688 L 15.51953125,10.539825439453125 L 15.605636596679688,10.41162109375 L 15.6380615234375,10.26104736328125 L 15.6380615234375,10.092910766601562 L 15.570465087890625,9.908798217773438 L 15.397216796875,9.7310791015625 L 15.11663818359375,9.63641357421875 L 14.745498657226562,9.6575927734375 L 14.369338989257812,9.680374145507812 L 13.994857788085938,9.789398193359375 L 13.622055053710938,9.968704223632812 L 13.249252319335938,10.133636474609375 L 13.146438598632812,10.389617919921875 L 13.207382202148438,10.650375366210938 L 13.452789306640625,10.99578857421875 L 13.78204345703125,11.084060668945312 L 13.913421630859375,10.998977661132812 L 14.0447998046875,10.921875 L 14.182876586914062,10.844772338867188 L 14.332687377929688,10.766067504882812 L 14.29693603515625,10.58355712890625 L 14.261184692382812,10.319580078125 L 14.427780151367188,10.306381225585938 L 14.599395751953125,10.389846801757812 L 14.732452392578125,10.490890502929688 L 14.813522338867188,10.61907958984375 L 14.934844970703125,10.798385620117188 L 14.985733032226562,10.644622802734375 L 15.063430786132812,10.46051025390625 L 15.255172729492188,10.400985717773438 L 15.460342407226562,10.425369262695312 L 15.502838134765625,10.273208618164062 L 15.54364013671875,10.001251220703125 L 15.417343139648438,9.917770385742188 L 15.254150390625,9.835891723632812 L 15.025543212890625,9.744430541992188 L 15.06634521484375,9.893386840820312 L 15.123931884765625,10.194076538085938 L 15.267044067382812,10.145736694335938 L 15.346420288085938,9.896148681640625 L 15.20001220703125,9.962051391601562 L 14.998245239257812,10.053512573242188 L 15.114517211914062,10.154556274414062 L 15.271041870117188,10.198104858398438 L 15.446014404296875,10.217697143554688 L 15.620986938476562,10.3155517578125 L 15.469528198242188,10.319168090820312 L 15.308013916015625,10.34515380859375 L 15.077743530273438,10.226531982421875 L 15.073867797851562,10.056808471679688 L 15.073333740234375,9.853530883789062 L 14.93865966796875,9.763641357421875 L 14.736892700195312,9.643417358398438 L 14.602218627929688,9.809951782226562 L 14.698379516601562,10.010025024414062 L 14.960556030273438,10.250015258789062 L 14.926483154296875,10.102645874023438 L 14.892410278320312,9.955276489257812 L 14.80133056640625,10.080291748046875 L 14.706893920898438,10.371414184570312 L 14.664443969726562,10.699249267578125 L 14.583419799804688,10.572647094726562 L 14.473892211914062,10.37255859375 L 14.329147338867188,10.194839477539062 L 14.253158569335938,10.031494140625 L 14.177169799804688,9.761138916015625 L 14.168258666992188,9.913284301757812 L 14.227523803710938,10.087799072265625 L 14.556777954101562,10.17767333984375 L 14.405319213867188,10.164474487304688 L 14.233749389648438,10.149673461914062 L 13.96490478515625,10.316207885742188 L 14.022491455078125,10.469955444335938 L 14.182373046875,10.800994873046875 L 14.156692504882812,10.592926025390625 L 14.045486450195312,10.309799194335938 L 13.873916625976562,10.17999267578125 L 13.71240234375,10.245895385742188 L 13.46368408203125,10.37091064453125 L 13.601760864257812,10.548614501953125 L 13.922637939453125,10.574600219726562 L 14.060714721679688,10.313827514648438 L 13.8941650390625,10.129714965820312 L 13.580047607421875,10.227569580078125 L 13.405120849609375,10.533050537109375 L 13.598541259765625,10.7762451171875 L 13.438705444335938,10.742263793945312 L 13.231918334960938,10.660385131835938 L 13.259323120117188,10.809341430664062 L 13.313552856445312,10.983856201171875 L 13.45330810546875,11.16156005859375 L 13.500839233398438,11.017379760742188 L 13.54669189453125,10.78375244140625 L 13.5489501953125,10.428741455078125 L 13.631698608398438,10.297332763671875 L 13.736236572265625,10.084487915039062 L 13.884368896484375,9.87164306640625 L 14.071075439453125,9.951934814453125 L 14.313125610351562,9.94671630859375 L 14.652435302734375,9.946273803710938 L 14.85089111328125,9.972259521484375 L 14.677642822265625,9.955856323242188 L 14.393707275390625,9.939453125 L 14.109771728515625,10.002166748046875 L 14.038818359375,10.168701171875 L 13.84710693359375,10.336837768554688 L 13.727508544921875,10.560867309570312 L 13.835403442382812,10.7130126953125 L 13.707427978515625,10.629531860351562 L 13.535858154296875,10.546051025390625" fill="none" stroke="#000000" stroke-width="0.006270248413085938"/>
</svg>
