<?xml version="1.0" ?>
<svg baseProfile="full" height="600px" version="1.1" viewBox="15.183512550354004 7.582861000061035 6.790567672729492 9.138034713745117" width="446px" xmlns="http://www.w3.org/2000/svg" xmlns:ev="http://www.w3.org/2001/xml-events" xmlns:xlink="http://www.w3.org/1999/xlink">
	<defs/>
	<path d="M 20.789306640625,9.051528930664062 L 20.789306640625,9.051528930664062 L 20.93743896484375,9.550277709960938 L 21.083892822265625,10.049026489257812 L 21.146514892578125,10.54901123046875 L 20.99505615234375,11.048995971679688 L 20.843597412109375,11.548980712890625 L 20.343612670898438,11.336135864257812 L 19.860122680664062,11.121688842773438 L 19.562774658203125,10.70599365234375 L 19.45660400390625,10.216827392578125 L 19.517547607421875,9.718063354492188 L 19.620407104492188,9.21929931640625 L 19.939605712890625,8.814773559570312 L 20.3812255859375,8.539627075195312 L 20.85638427734375,8.3475341796875 M 20.912521362304688,13.124557495117188 L 20.912521362304688,13.124557495117188 L 21.129425048828125,13.513092041015625 L 21.405029296875,13.960723876953125 L 21.32904052734375,14.460708618164062 L 21.177581787109375,14.960693359375 L 21.011032104492188,15.460678100585938 L 20.78076171875,15.956222534179688 L 20.280776977539062,15.887115478515625 L 19.827468872070312,15.595993041992188 L 19.479812622070312,15.209030151367188 L 19.542434692382812,14.709030151367188 L 19.734176635742188,14.213470458984375 L 20.118759155273438,13.85687255859375 L 20.523483276367188,13.552978515625 L 20.913101196289062,13.204360961914062 M 19.134658813476562,12.808944702148438 L 19.134658813476562,12.808944702148438 L 18.869186401367188,13.259765625 L 18.46954345703125,13.595596313476562 L 18.00616455078125,13.833999633789062 L 17.512619018554688,14.0133056640625 L 17.019073486328125,14.192611694335938 L 16.525527954101562,14.371917724609375 L 16.031982421875,14.546432495117188 L 15.769851684570312,14.086013793945312 L 15.7525634765625,13.586013793945312 L 15.870513916015625,13.086013793945312 L 15.976730346679688,12.586013793945312" fill="none" stroke="#000000" stroke-width="0.007608688354492188"/>
</svg>
