<?xml version="1.0" ?>
<svg baseProfile="full" height="600px" version="1.1" viewBox="18.31669521331787 7.035579490661621 2.3780689239501953 7.944694900512696" width="180px" xmlns="http://www.w3.org/2000/svg" xmlns:ev="http://www.w3.org/2001/xml-events" xmlns:xlink="http://www.w3.org/1999/xlink">
	<defs/>
	<path d="M 19.751998901367188,9.577789306640625 L 19.751998901367188,9.577789306640625 L 20.0728759765625,9.451187133789062 L 20.33673095703125,9.308609008789062 L 20.39599609375,9.15484619140625 L 20.49383544921875,8.902053833007812 L 20.3541259765625,8.614120483398438 L 20.234527587890625,8.326187133789062 L 20.106552124023438,8.0494384765625 L 19.888031005859375,7.854156494140625 L 19.656082153320312,7.7003936767578125 M 19.538162231445312,7.798248291015625 L 19.538162231445312,7.798248291015625 L 19.36993408203125,7.904083251953125 L 19.101089477539062,8.0802001953125 L 19.155319213867188,8.259506225585938 L 19.212905883789062,8.457977294921875 L 19.310745239257812,8.774642944335938 L 19.440444946289062,9.171173095703125 L 19.570144653320312,9.567703247070312 M 19.512283325195312,12.155044555664062 L 19.512283325195312,12.155044555664062 L 19.702346801757812,12.30560302734375 L 19.89910888671875,12.625457763671875 L 20.013702392578125,12.72650146484375 L 20.213836669921875,12.881851196289062 L 20.273101806640625,13.323089599609375 L 20.24072265625,13.4720458984375 L 20.077529907226562,13.812667846679688 L 19.885818481445312,14.047882080078125 L 19.715927124023438,14.124969482421875 L 19.380020141601562,14.315460205078125 L 19.238632202148438,14.241561889648438 L 18.954696655273438,14.11175537109375 L 18.563430786132812,13.929244995117188 L 18.517623901367188,13.51513671875 L 18.6204833984375,13.01513671875 L 18.9447021484375,12.575469970703125 L 19.262222290039062,12.123031616210938 L 19.656890869140625,11.76483154296875 M 19.868270874023438,8.946136474609375 L 19.868270874023438,8.946136474609375 L 19.930892944335938,8.76202392578125 L 19.854904174804688,8.383056640625 L 19.73028564453125,8.476119995117188 L 19.508407592773438,8.851882934570312 L 19.560958862304688,9.03118896484375 L 19.838226318359375,9.413330078125 M 19.24310302734375,12.69873046875 L 19.24310302734375,12.69873046875 L 19.347640991210938,13.064910888671875 L 19.453857421875,12.935104370117188 L 19.826705932617188,12.575302124023438 L 19.6668701171875,12.517379760742188 L 19.391311645507812,12.459457397460938 L 19.3287353515625,12.637161254882812 L 19.011260986328125,13.083206176757812" fill="none" stroke="#000000" stroke-width="0.006615066528320313"/>
</svg>
