<?xml version="1.0" ?>
<svg baseProfile="full" height="600px" version="1.1" viewBox="16.122125854492186 6.901248779296875 7.1713671875 9.37401611328125" width="460px" xmlns="http://www.w3.org/2000/svg" xmlns:ev="http://www.w3.org/2001/xml-events" xmlns:xlink="http://www.w3.org/1999/xlink">
	<defs/>
	<path d="M 22.093032836914062,14.263031005859375 L 22.093032836914062,14.263031005859375 L 22.239486694335938,13.780242919921875 L 21.989089965820312,13.471542358398438 L 21.508956909179688,13.257095336914062 L 21.00897216796875,13.279876708984375 L 20.508987426757812,13.305862426757812 L 20.009002685546875,13.263900756835938 L 19.509017944335938,13.21075439453125 L 19.009033203125,13.157608032226562 L 18.509048461914062,13.104461669921875 L 18.009063720703125,13.165573120117188 L 17.545684814453125,13.479049682617188 L 17.248336791992188,13.928268432617188 L 17.19415283203125,14.37908935546875 L 17.305389404296875,14.834716796875 L 17.715133666992188,15.156173706054688 L 18.181884765625,15.365829467773438 L 18.670455932617188,15.4908447265625 L 19.170455932617188,15.448883056640625 L 19.670455932617188,15.405319213867188 L 20.170455932617188,15.421707153320312 L 20.670455932617188,15.44927978515625 L 21.170455932617188,15.481643676757812 L 21.558395385742188,15.1202392578125 L 21.580764770507812,14.6202392578125 L 21.749038696289062,14.1202392578125 L 22.245986938476562,13.987228393554688 L 22.692626953125,14.204864501953125 L 22.465713500976562,14.70361328125 M 21.9625244140625,9.5302734375 L 21.9625244140625,9.5302734375 L 21.98992919921875,9.108184814453125 L 21.974319458007812,8.625396728515625 L 21.737335205078125,8.331085205078125 L 21.262222290039062,8.0703125 L 20.762237548828125,7.9069671630859375 L 20.262252807617188,7.8410491943359375 L 19.76226806640625,7.90216064453125 L 19.262283325195312,7.926544189453125 L 18.762298583984375,7.8398590087890625 L 18.262313842773438,7.756378173828125 L 17.7623291015625,7.6856689453125 L 17.262344360351562,7.735595703125 L 16.904617309570312,8.17364501953125 L 16.722991943359375,8.673629760742188 L 16.782257080078125,9.173614501953125 L 16.841522216796875,9.673599243164062 L 17.123825073242188,10.129226684570312 L 17.523513793945312,10.485824584960938 L 18.023513793945312,10.58367919921875 L 18.523513793945312,10.530532836914062 L 19.023513793945312,10.5189208984375 L 19.523513793945312,10.543304443359375 L 20.023513793945312,10.56768798828125 L 20.523513793945312,10.592071533203125 L 21.023513793945312,10.616455078125 L 21.523513793945312,10.640838623046875 L 21.780654907226562,10.158050537109375 L 21.713058471679688,9.658050537109375 M 19.657424926757812,8.834121704101562 L 19.657424926757812,8.834121704101562 L 19.40032958984375,8.7474365234375 L 18.948699951171875,8.628814697265625 L 18.478622436523438,8.726669311523438 L 18.302017211914062,9.209442138671875 L 18.488723754882812,9.709426879882812 L 18.962203979492188,9.914276123046875 L 19.462203979492188,9.8531494140625 L 19.962203979492188,9.732925415039062 L 20.232757568359375,9.286880493164062 L 20.05615234375,8.786880493164062 L 19.556167602539062,8.8719482421875 M 19.882797241210938,9.176986694335938 L 19.882797241210938,9.176986694335938 L 19.901809692382812,9.346710205078125 L 19.920822143554688,9.580322265625 L 19.95660400390625,9.401016235351562 L 19.957168579101562,9.093917846679688 L 19.805709838867188,9.093917846679688 L 19.632461547851562,9.131088256835938 L 19.387100219726562,9.236923217773438 L 19.454742431640625,9.37469482421875 L 19.671646118164062,9.653030395507812 L 19.71917724609375,9.344329833984375 L 19.472137451171875,9.081954956054688 L 19.502883911132812,9.468902587890625 L 19.721450805664062,8.973342895507812 L 19.940017700195312,9.099929809570312 L 20.21728515625,9.577911376953125 L 19.717300415039062,9.571090698242188 L 19.217315673828125,9.54510498046875 L 19.052444458007812,9.551910400390625 L 18.75677490234375,9.667343139648438 L 18.72607421875,9.484832763671875 L 18.766876220703125,9.035598754882812 L 18.731124877929688,9.187744140625 L 18.59979248046875,9.534759521484375 L 18.612106323242188,9.3602294921875 L 18.706588745117188,8.955703735351562 L 18.837966918945312,9.032791137695312 L 19.014617919921875,9.157806396484375 L 18.869873046875,9.648574829101562 L 18.865997314453125,9.159408569335938 L 18.999053955078125,9.246078491210938 L 19.105270385742188,9.518020629882812 L 19.328872680664062,9.91455078125 L 19.438446044921875,9.41455078125 L 19.365798950195312,9.067535400390625 L 19.07684326171875,9.022369384765625 L 18.797943115234375,8.605072021484375 L 19.249618530273438,8.837081909179688 L 19.1568603515625,9.337066650390625 L 18.656875610351562,9.449295043945312 L 18.156890869140625,9.5615234375 L 18.656890869140625,9.54351806640625 L 19.156890869140625,9.522323608398438 L 19.531417846679688,9.1561279296875 L 19.161956787109375,9.38653564453125 L 19.454315185546875,9.838958740234375 L 19.438705444335938,10.2913818359375 L 18.938720703125,10.276580810546875 M 20.167572021484375,13.711212158203125 L 20.167572021484375,13.711212158203125 L 19.965805053710938,13.710769653320312 L 19.593002319335938,13.741531372070312 L 19.216842651367188,13.791458129882812 L 18.828933715820312,14.120895385742188 L 19.034103393554688,14.620880126953125 L 19.474044799804688,14.9295654296875 L 19.974044799804688,14.886001586914062 L 20.42236328125,14.602874755859375 L 20.553741455078125,14.102874755859375 L 20.3603515625,13.605712890625" fill="none" stroke="#000000" stroke-width="0.007805175781250001"/>
</svg>
