<?xml version="1.0" ?>
<svg baseProfile="full" height="600px" version="1.1" viewBox="10.030034156799317 6.359327980041504 4.12128239440918 8.751726730346679" width="283px" xmlns="http://www.w3.org/2000/svg" xmlns:ev="http://www.w3.org/2001/xml-events" xmlns:xlink="http://www.w3.org/1999/xlink">
	<defs/>
	<path d="M 13.186492919921875,10.655380249023438 L 13.186492919921875,10.655380249023438 L 13.475494384765625,10.517593383789062 L 13.574996948242188,10.033218383789062 L 13.170318603515625,9.716537475585938 L 12.696884155273438,9.495681762695312 L 12.513580322265625,9.0384521484375 L 12.40740966796875,8.5556640625 L 12.506912231445312,8.066497802734375 L 12.6114501953125,7.57891845703125 L 12.841751098632812,7.11529541015625 M 13.288619995117188,10.854705810546875 L 13.288619995117188,10.854705810546875 L 13.703399658203125,11.166580200195312 L 13.531829833984375,11.654144287109375 L 13.2847900390625,12.104965209960938 L 12.99749755859375,12.551010131835938 L 12.802444458007812,13.046554565429688 L 13.056228637695312,13.492599487304688 L 13.39385986328125,13.887527465820312 L 13.731491088867188,14.282455444335938 M 13.23150634765625,14.378707885742188 L 13.23150634765625,14.378707885742188 L 12.731521606445312,14.288818359375 L 12.231536865234375,14.111099243164062 L 11.749725341796875,13.914215087890625 L 11.36181640625,13.600738525390625 L 11.035964965820312,13.221771240234375 L 10.792282104492188,12.790084838867188 L 10.61065673828125,12.331268310546875 L 10.437408447265625,11.869247436523438 L 10.376510620117188,11.381668090820312 L 10.470993041992188,10.892501831054688 L 10.565475463867188,10.4017333984375 L 10.66497802734375,9.912567138671875 L 10.764480590820312,9.42340087890625 L 10.858963012695312,8.934234619140625 L 10.938339233398438,8.4466552734375 L 11.04791259765625,7.957489013671875 L 11.37213134765625,7.5577545166015625 L 11.813751220703125,7.285797119140625 L 12.313751220703125,7.1655731201171875 L 12.813751220703125,7.0916748046875 M 12.420516967773438,7.5995941162109375 L 12.420516967773438,7.5995941162109375 L 12.207015991210938,8.085556030273438 L 11.9801025390625,8.552352905273438 L 11.877288818359375,9.051101684570312 L 11.772796630859375,9.546646118164062 L 11.66998291015625,10.046630859375 L 11.66998291015625,10.545379638671875 L 11.776199340820312,11.04412841796875 L 11.882415771484375,11.542877197265625 L 11.988632202148438,12.0416259765625 L 12.0948486328125,12.540374755859375 L 12.201065063476562,13.040359497070312 L 12.537017822265625,13.446456909179688 L 12.945083618164062,13.76470947265625 L 13.36322021484375,14.081375122070312 L 13.804840087890625,14.351715087890625" fill="none" stroke="#000000" stroke-width="0.007287033081054687"/>
</svg>
