<?xml version="1.0" ?>
<svg baseProfile="full" height="600px" version="1.1" viewBox="8.405625877380372 5.571787986755371 3.757397537231445 10.401818923950195" width="217px" xmlns="http://www.w3.org/2000/svg" xmlns:ev="http://www.w3.org/2001/xml-events" xmlns:xlink="http://www.w3.org/1999/xlink">
	<defs/>
	<path d="M 11.370452880859375,10.825302124023438 L 11.370452880859375,10.825302124023438 L 11.76678466796875,10.612457275390625 L 11.799209594726562,10.233489990234375 L 11.473358154296875,9.7938232421875 L 11.268234252929688,9.2938232421875 L 11.198959350585938,8.7938232421875 L 11.027389526367188,8.306243896484375 L 10.874252319335938,7.8154754638671875 L 10.677520751953125,7.347076416015625 L 10.480789184570312,6.8786773681640625 L 10.19183349609375,6.4422149658203125 L 9.720077514648438,6.739715576171875 L 9.392547607421875,7.1602020263671875 L 9.36016845703125,7.654144287109375 L 9.337844848632812,8.146499633789062 L 9.312164306640625,8.646484375 L 9.219406127929688,9.146469116210938 L 9.046157836914062,9.645217895507812 L 8.921539306640625,10.143966674804688 L 8.933853149414062,10.643951416015625 L 9.046768188476562,11.143936157226562 L 9.210006713867188,11.641082763671875 L 9.373245239257812,12.138229370117188 L 9.536483764648438,12.6353759765625 L 9.577285766601562,13.129318237304688 L 9.577285766601562,13.629302978515625 L 9.762313842773438,14.124847412109375 L 9.950698852539062,14.614013671875 L 10.140762329101562,15.103179931640625 L 10.201705932617188,14.936630249023438 L 10.373321533203125,14.436630249023438 L 10.451019287109375,13.936630249023438 L 10.74505615234375,13.524124145507812 L 11.04412841796875,13.135574340820312 L 11.15704345703125,12.64959716796875 L 11.26995849609375,12.163619995117188 L 11.590835571289062,11.773483276367188 L 11.846298217773438,11.316253662109375 L 11.525466918945312,10.88299560546875 L 11.075515747070312,10.595062255859375 L 10.855316162109375,10.113876342773438 M 11.037628173828125,9.039276123046875 L 11.037628173828125,9.039276123046875 L 11.499359130859375,8.823226928710938 L 11.32611083984375,8.92266845703125 L 10.87615966796875,9.197799682617188 L 10.397705078125,9.4298095703125 L 10.036636352539062,9.869461059570312 L 10.461471557617188,10.20050048828125 L 10.961471557617188,10.234466552734375 L 11.40643310546875,9.93377685546875 M 10.624008178710938,10.481582641601562 L 10.624008178710938,10.481582641601562 L 10.683273315429688,10.204833984375 L 11.141647338867188,9.985580444335938 L 10.948257446289062,10.307037353515625 L 10.448272705078125,10.457595825195312 L 10.110687255859375,10.878082275390625 L 9.773101806640625,11.298568725585938 L 10.244903564453125,11.084121704101562 L 10.744903564453125,10.955917358398438 L 11.20831298828125,11.232650756835938 L 11.678421020507812,11.491806030273438 L 11.515228271484375,11.454635620117188 L 11.015243530273438,11.586029052734375 L 10.5152587890625,11.8292236328125 L 10.1424560546875,12.225753784179688 L 10.558914184570312,12.524856567382812 L 11.03741455078125,12.340744018554688 L 11.232498168945312,12.826705932617188 L 10.732513427734375,13.029983520507812 L 10.232528686523438,13.01837158203125 L 10.415878295898438,13.512313842773438 L 10.854141235351562,13.785858154296875 L 10.354156494140625,13.9156494140625 L 9.854171752929688,13.971969604492188 L 9.35418701171875,13.862930297851562 L 9.789093017578125,13.568618774414062 L 10.270950317382812,13.56817626953125 L 10.090988159179688,13.06817626953125 L 9.6175537109375,12.848922729492188 L 9.147476196289062,12.967529296875 L 9.518661499023438,12.612518310546875 L 9.710403442382812,12.129730224609375 L 9.816619873046875,11.635772705078125 L 9.316635131835938,11.66973876953125 L 9.515090942382812,11.190155029296875 L 9.738693237304688,10.728134155273438 L 10.176956176757812,10.457778930664062 L 9.792404174804688,10.113937377929688 L 9.29241943359375,10.286849975585938 L 8.81060791015625,10.561981201171875 L 8.7664794921875,10.061981201171875 L 8.72235107421875,9.561981201171875 L 9.18072509765625,9.360305786132812 L 9.68072509765625,9.50128173828125 L 10.18072509765625,9.326751708984375 L 10.121505737304688,8.826751708984375 L 9.62152099609375,8.855911254882812 L 9.121536254882812,8.88507080078125 L 9.175765991210938,8.387908935546875 L 9.6458740234375,8.141510009765625 L 10.1458740234375,8.240951538085938 L 9.920639038085938,7.7581634521484375 L 9.44720458984375,7.5069732666015625 L 8.947219848632812,7.738983154296875 L 9.318405151367188,7.361602783203125 L 9.78851318359375,7.1088104248046875 L 10.28851318359375,7.2386016845703125 L 10.78851318359375,7.40673828125 L 10.315078735351562,7.65472412109375 L 9.908721923828125,8.043258666992188 L 10.331878662109375,8.347137451171875 L 10.831878662109375,8.346694946289062 L 11.331878662109375,8.379058837890625" fill="none" stroke="#000000" stroke-width="0.008660964965820313"/>
</svg>
