<?xml version="1.0" ?>
<svg baseProfile="full" height="600px" version="1.1" viewBox="3.1231991271972657 4.108141754150391 7.790802673339844 11.780634216308593" width="397px" xmlns="http://www.w3.org/2000/svg" xmlns:ev="http://www.w3.org/2001/xml-events" xmlns:xlink="http://www.w3.org/1999/xlink">
	<defs/>
	<path d="M 10.134719848632812,5.77496337890625 L 10.134719848632812,5.77496337890625 L 9.959793090820312,6.2705078125 L 9.736236572265625,6.7644500732421875 L 9.505966186523438,7.2536163330078125 L 9.217010498046875,7.6996612548828125 L 8.928054809570312,8.145706176757812 L 8.637420654296875,8.59014892578125 L 8.3585205078125,9.03778076171875 L 8.195327758789062,9.531723022460938 L 8.195892333984375,10.030471801757812 L 8.251800537109375,10.53045654296875 L 8.381500244140625,11.022811889648438 L 8.519577026367188,11.508773803710938 L 8.66436767578125,11.991546630859375 L 8.809158325195312,12.477508544921875 L 8.953948974609375,12.963470458984375 L 9.097061157226562,13.449432373046875 L 9.24017333984375,13.936996459960938 L 9.384963989257812,14.424560546875 L 8.950103759765625,14.69171142578125 L 8.474990844726562,14.902969360351562 L 7.975006103515625,14.859405517578125 L 7.4750213623046875,14.751953125 L 6.97503662109375,14.642913818359375 L 6.4750518798828125,14.53387451171875 L 5.975067138671875,14.424835205078125 L 5.4750823974609375,14.3157958984375 L 4.9798583984375,14.133285522460938 L 4.5735015869140625,13.8245849609375 L 4.339874267578125,13.383331298828125 L 4.129730224609375,12.930892944335938 L 3.919586181640625,12.480056762695312 L 3.776519775390625,11.998870849609375 L 3.7854766845703125,11.504913330078125 L 3.8464202880859375,11.010955810546875 L 3.9626922607421875,10.516998291015625 L 4.0387115478515625,10.018234252929688 L 4.074493408203125,9.518234252929688 L 4.065582275390625,9.01947021484375 L 4.0415802001953125,8.51947021484375 L 4.015899658203125,8.020706176757812 L 3.9902191162109375,7.521942138671875 L 4.0511627197265625,7.0231781005859375 L 4.2160797119140625,6.5260162353515625 L 4.555389404296875,6.1278839111328125 L 4.9349517822265625,5.761688232421875 L 5.329620361328125,5.4130706787109375 L 5.7980499267578125,5.2082061767578125 L 6.27655029296875,5.115142822265625 L 6.7701416015625,5.0939483642578125 L 7.26373291015625,5.12310791015625 L 7.76373291015625,5.1522674560546875 L 8.26373291015625,5.181427001953125 L 8.76373291015625,5.2105865478515625 L 9.26373291015625,5.25732421875 L 9.76373291015625,5.3551788330078125 L 10.26068115234375,5.5376739501953125" fill="none" stroke="#000000" stroke-width="0.00980902099609375"/>
</svg>
