<?xml version="1.0" ?>
<svg baseProfile="full" height="600px" version="1.1" viewBox="7.1700048141479495 4.798543327331543 4.890337051391602 10.107213272094727" width="291px" xmlns="http://www.w3.org/2000/svg" xmlns:ev="http://www.w3.org/2001/xml-events" xmlns:xlink="http://www.w3.org/1999/xlink">
	<defs/>
	<path d="M 10.423538208007812,5.6658782958984375 L 10.423538208007812,5.6658782958984375 L 10.251968383789062,5.72698974609375 L 10.06866455078125,5.8392181396484375 L 9.890380859375,6.028106689453125 L 9.755706787109375,6.2984466552734375 L 9.694808959960938,6.62628173828125 L 9.632232666015625,6.9605255126953125 L 9.552886962890625,7.3921966552734375 L 9.44000244140625,7.828643798828125 L 9.290237426757812,8.314605712890625 L 9.177352905273438,8.806961059570312 L 9.139923095703125,9.30694580078125 L 9.195831298828125,9.806930541992188 L 9.36578369140625,10.306915283203125 L 9.597763061523438,10.802459716796875 L 9.82806396484375,11.298004150390625 L 10.058364868164062,11.793548583984375 L 10.288665771484375,12.289093017578125 L 10.567611694335938,12.757492065429688 L 10.863327026367188,13.209915161132812 L 11.256317138671875,13.603240966796875 L 11.649307250976562,13.996566772460938 M 11.374435424804688,14.059982299804688 L 11.374435424804688,14.059982299804688 L 11.129074096679688,14.01324462890625 L 10.828384399414062,13.966506958007812 L 10.502532958984375,13.883026123046875 L 10.106246948242188,13.714889526367188 L 9.688156127929688,13.5467529296875 L 9.204666137695312,13.346664428710938 L 8.788253784179688,12.999649047851562 L 8.4171142578125,12.603103637695312 L 8.087905883789062,12.1842041015625 L 7.860992431640625,11.6998291015625 L 7.7011566162109375,11.1998291015625 L 7.6218109130859375,10.6998291015625 L 7.5810394287109375,10.1998291015625 L 7.628570556640625,9.6998291015625 L 7.687835693359375,9.1998291015625 L 7.7370452880859375,8.6998291015625 L 7.721435546875,8.1998291015625 L 7.7041473388671875,7.6998291015625 L 7.75335693359375,7.1998291015625 L 7.9786376953125,6.7186431884765625 L 8.333053588867188,6.3444671630859375 L 8.72772216796875,6.0277862548828125 L 9.19952392578125,5.8197174072265625 L 9.69952392578125,5.7506103515625 L 10.19952392578125,5.69586181640625 L 10.69952392578125,5.644317626953125 M 8.826919555664062,6.4122467041015625 L 8.826919555664062,6.4122467041015625 L 8.737518310546875,6.6602325439453125 L 8.612899780273438,6.9497528076171875 L 8.486602783203125,7.2488555908203125 L 8.333465576171875,7.5814971923828125 L 8.21722412109375,7.9540557861328125 L 8.249649047851562,8.384124755859375 L 8.347488403320312,8.82696533203125 L 8.4520263671875,9.326950073242188 L 8.489486694335938,9.826934814453125 L 8.483932495117188,10.326919555664062 L 8.630386352539062,10.826904296875 L 8.781875610351562,11.326889038085938 L 9.050750732421875,11.814453125 L 9.381683349609375,12.260498046875 L 9.7109375,12.70654296875 L 10.070388793945312,13.101470947265625" fill="none" stroke="#000000" stroke-width="0.008415664672851562"/>
</svg>
