<?xml version="1.0" ?>
<svg baseProfile="full" height="600px" version="1.1" viewBox="4.403345977783203 4.056736480712891 6.666513610839844 13.162253356933594" width="304px" xmlns="http://www.w3.org/2000/svg" xmlns:ev="http://www.w3.org/2001/xml-events" xmlns:xlink="http://www.w3.org/1999/xlink">
	<defs/>
	<path d="M 9.83245849609375,6.62957763671875 L 9.83245849609375,6.62957763671875 L 9.637405395507812,7.1235198974609375 L 9.4541015625,7.62066650390625 L 9.270797729492188,8.117813110351562 L 9.152877807617188,8.6177978515625 L 9.046707153320312,9.117782592773438 L 9.005935668945312,9.617767333984375 L 8.966827392578125,10.117752075195312 L 8.941146850585938,10.61773681640625 L 8.925537109375,11.117721557617188 L 8.91326904296875,11.617706298828125 L 8.9010009765625,12.117691040039062 L 8.88873291015625,12.61767578125 L 8.936264038085938,13.117660522460938 L 9.00054931640625,13.617645263671875 L 9.069869995117188,14.117630004882812 L 9.13751220703125,14.61761474609375 L 9.242050170898438,15.117599487304688 L 9.38348388671875,15.617584228515625 L 9.524917602539062,16.117568969726562 L 9.373458862304688,16.075607299804688 L 8.9771728515625,16.025665283203125 L 8.477188110351562,15.96453857421875 L 7.9936981201171875,15.778823852539062 L 7.5437469482421875,15.527633666992188 L 7.107208251953125,15.260467529296875 L 6.7377471923828125,14.908645629882812 L 6.41021728515625,14.540863037109375 L 6.144744873046875,14.126754760742188 L 5.973175048828125,13.66473388671875 L 5.868682861328125,13.18194580078125 L 5.764190673828125,12.69915771484375 L 5.663055419921875,12.21636962890625 L 5.561920166015625,11.73358154296875 L 5.5010223388671875,11.247604370117188 L 5.441802978515625,10.760025024414062 L 5.3842620849609375,10.272445678710938 L 5.38372802734375,9.78167724609375 L 5.4329376220703125,9.289306640625 L 5.507293701171875,8.798538208007812 L 5.69903564453125,8.31256103515625 L 5.897491455078125,7.8265838623046875 L 6.1831512451171875,7.3901214599609375 L 6.470489501953125,6.95526123046875 L 6.8131561279296875,6.57470703125 L 7.170928955078125,6.2133026123046875 L 7.610870361328125,5.9397430419921875 L 8.059188842773438,5.6773681640625 L 8.559188842773438,5.5427703857421875 L 9.059188842773438,5.4145660400390625 L 9.559188842773438,5.2863616943359375 L 10.059188842773438,5.1581573486328125 L 10.484024047851562,5.532318115234375 L 10.509750366210938,6.0323028564453125 L 10.152023315429688,6.433624267578125 L 9.816116333007812,6.8317413330078125 L 9.48858642578125,7.2298583984375 M 10.1175537109375,6.220184326171875 L 10.1175537109375,6.220184326171875 L 9.691070556640625,6.5400390625 L 9.220993041992188,6.780029296875 L 8.72100830078125,6.9417572021484375 L 8.221023559570312,7.103485107421875 L 8.660964965820312,7.4281463623046875 L 9.095870971679688,7.74639892578125 L 9.532455444335938,8.063064575195312 L 9.16131591796875,8.438827514648438 L 8.766693115234375,8.769866943359375 L 8.331832885742188,9.052978515625 L 7.83184814453125,9.177993774414062 L 7.41375732421875,9.4722900390625 L 7.7882843017578125,9.8448486328125 L 8.263442993164062,10.003402709960938 L 8.738601684570312,10.155548095703125 L 9.213760375976562,10.307693481445312 L 9.013671875,10.772903442382812 L 8.667678833007812,11.16943359375 L 8.24456787109375,11.471725463867188 L 7.814727783203125,11.761245727539062 L 7.4134063720703125,12.084304809570312 L 7.1009674072265625,12.527145385742188 L 7.5593414306640625,12.727218627929688 L 8.059341430664062,12.645339965820312 L 8.559341430664062,12.55865478515625 L 9.037841796875,12.760330200195312 L 9.51300048828125,12.990737915039062 L 9.3028564453125,13.086990356445312 L 8.8394775390625,13.347747802734375 L 8.371078491210938,13.606903076171875 L 7.87109375,13.7366943359375 L 7.3711090087890625,13.901626586914062 L 6.96978759765625,14.275787353515625 L 7.46978759765625,14.410369873046875 L 7.96978759765625,14.489059448242188 L 8.46978759765625,14.572525024414062 L 8.96978759765625,14.670379638671875 L 9.46978759765625,14.769821166992188 M 6.4352874755859375,13.6444091796875 L 6.4352874755859375,13.6444091796875 L 6.754486083984375,13.2366943359375 L 7.0736846923828125,12.825775146484375 L 7.394561767578125,12.41485595703125 L 6.8945770263671875,12.368118286132812 L 6.74481201171875,12.24151611328125 L 6.3065948486328125,11.956787109375 L 5.8633575439453125,11.673660278320312 L 5.4134063720703125,11.390533447265625 L 4.9634552001953125,11.107406616210938 L 5.1065673828125,10.979202270507812 L 5.4492340087890625,10.611419677734375 L 5.8455657958984375,10.299545288085938 L 6.313995361328125,10.11383056640625 L 6.785797119140625,9.929718017578125 L 7.257598876953125,9.74560546875 L 7.102783203125,9.671707153320312 L 6.716552734375,9.516342163085938 L 6.23809814453125,9.308273315429688 L 5.8032379150390625,9.023544311523438 L 5.368377685546875,8.72125244140625 L 5.1381072998046875,8.471664428710938 L 5.31475830078125,8.410537719726562 L 5.7278594970703125,8.357391357421875 L 6.1929473876953125,8.30584716796875 L 6.6580352783203125,8.254302978515625 L 7.1231231689453125,8.2027587890625 L 7.5882110595703125,8.151214599609375 L 7.9778289794921875,8.098068237304688 L 7.8984832763671875,7.944305419921875 L 7.606170654296875,7.5781097412109375 L 7.251800537109375,7.1943511962890625 L 6.936004638671875,6.765869140625 L 6.630279541015625,6.3310089111328125" fill="none" stroke="#000000" stroke-width="0.01095941162109375"/>
</svg>
