<?xml version="1.0" ?>
<svg baseProfile="full" height="600px" version="1.1" viewBox="4.847700950622558 7.004793235778808 4.94539094543457 7.285259109497071" width="408px" xmlns="http://www.w3.org/2000/svg" xmlns:ev="http://www.w3.org/2001/xml-events" xmlns:xlink="http://www.w3.org/1999/xlink">
	<defs/>
	<path d="M 7.67315673828125,9.709640502929688 L 7.67315673828125,9.709640502929688 L 7.49822998046875,10.201995849609375 L 7.484283447265625,10.70074462890625 L 7.5536041259765625,11.197891235351562 L 7.63970947265625,11.693435668945312 L 7.7258148193359375,12.188980102539062 L 7.773345947265625,12.686126708984375 L 7.8191986083984375,13.183273315429688 L 7.9438629150390625,13.680419921875 L 7.47210693359375,13.465972900390625 L 6.9721221923828125,13.376083374023438 L 6.4903106689453125,13.19677734375 L 6.1040802001953125,12.886489868164062 L 5.7866058349609375,12.512313842773438 L 5.4741668701171875,12.138137817382812 L 5.2623443603515625,11.701675415039062 L 5.27130126953125,11.210906982421875 L 5.32720947265625,10.720138549804688 L 5.4049072265625,10.230972290039062 L 5.4775848388671875,9.741806030273438 L 5.764923095703125,9.300552368164062 L 6.0740509033203125,8.883255004882812 L 6.413360595703125,8.502700805664062 L 6.878448486328125,8.25311279296875 L 7.378448486328125,8.094558715820312 L 7.878448486328125,7.934417724609375 L 8.378448486328125,7.7742767333984375 L 8.878448486328125,7.6348876953125 L 9.378448486328125,7.6576690673828125 L 9.04254150390625,8.100509643554688 L 8.542556762695312,8.281417846679688 L 8.064102172851562,8.50225830078125 L 7.914337158203125,8.999404907226562 L 8.089309692382812,9.498153686523438 M 9.016082763671875,7.6144256591796875 L 9.016082763671875,7.6144256591796875 L 8.904876708984375,7.832061767578125 L 8.615921020507812,8.276504516601562 L 8.14752197265625,8.495742797851562 L 7.6475372314453125,8.537689208984375 L 7.2529144287109375,8.862350463867188 L 6.995819091796875,9.306793212890625 L 6.7387237548828125,9.752838134765625 L 6.4866485595703125,10.198883056640625 L 6.4889068603515625,10.6976318359375 L 6.595123291015625,11.197616577148438 L 6.7046966552734375,11.696365356445312 L 6.81427001953125,12.195114135742188 L 7.1938323974609375,12.53253173828125 L 7.576751708984375,12.866775512695312 L 7.8808441162109375,13.306427001953125" fill="none" stroke="#000000" stroke-width="0.0060659942626953125"/>
</svg>
