<?xml version="1.0" ?>
<svg baseProfile="full" height="559px" version="1.1" viewBox="5.287363868713379 4.62223477935791 13.37862614440918 12.459235275268554" width="600px" xmlns="http://www.w3.org/2000/svg" xmlns:ev="http://www.w3.org/2001/xml-events" xmlns:xlink="http://www.w3.org/1999/xlink">
	<defs/>
	<path d="M 15.999359130859375,6.3593292236328125 L 15.999359130859375,6.3593292236328125 L 15.499374389648438,6.3597564697265625 L 14.9993896484375,6.4400482177734375 L 14.499404907226562,6.552276611328125 L 13.999420166015625,6.666107177734375 L 13.499435424804688,6.779937744140625 L 13.02264404296875,7.00396728515625 L 12.557586669921875,7.247161865234375 L 12.122726440429688,7.533477783203125 L 11.7264404296875,7.8740997314453125 L 11.33685302734375,8.24505615234375 L 10.99591064453125,8.643173217773438 L 10.742172241210938,9.090805053710938 L 10.602462768554688,9.590789794921875 L 10.578460693359375,10.090774536132812 L 10.542709350585938,10.59075927734375 L 10.501937866210938,11.090744018554688 L 10.486328125,11.590728759765625 L 10.453948974609375,12.090713500976562 L 10.438339233398438,12.5906982421875 L 10.52276611328125,13.090682983398438 L 10.63568115234375,13.590667724609375 L 10.877731323242188,14.079833984375 L 11.257293701171875,14.466781616210938 L 11.727401733398438,14.7083740234375 L 12.227401733398438,14.855743408203125 L 12.727401733398438,15.00311279296875 L 13.227401733398438,15.148880004882812 L 13.727401733398438,15.294647216796875 L 14.227401733398438,15.440414428710938 L 14.727401733398438,15.5654296875 L 15.227401733398438,15.663284301757812 L 15.727401733398438,15.730789184570312 L 16.227401733398438,15.799896240234375 L 16.727401733398438,15.867401123046875 L 17.227401733398438,15.926925659179688 M 16.43310546875,6.25347900390625 L 16.43310546875,6.25347900390625 L 16.189422607421875,5.99591064453125 L 15.707611083984375,5.811798095703125 L 15.207626342773438,5.757049560546875 L 14.7076416015625,5.70550537109375 L 14.207656860351562,5.6651458740234375 L 13.707672119140625,5.7054901123046875 L 13.207687377929688,5.7697906494140625 L 12.70770263671875,5.8340911865234375 L 12.207717895507812,5.9255523681640625 L 11.707733154296875,6.02020263671875 L 11.207748413085938,6.16436767578125 L 10.707763671875,6.32769775390625 L 10.210861206054688,6.5070037841796875 L 9.71563720703125,6.69110107421875 L 9.220413208007812,6.89117431640625 L 8.768783569335938,7.14874267578125 L 8.318832397460938,7.40631103515625 L 7.880615234375,7.6798553466796875 L 7.496063232421875,8.050811767578125 L 7.1349945068359375,8.444137573242188 L 6.9550323486328125,8.936492919921875 L 6.796875,9.43524169921875 L 6.65380859375,9.933990478515625 L 6.5644073486328125,10.433975219726562 L 6.4984893798828125,10.9339599609375 L 6.4325714111328125,11.433944702148438 L 6.406890869140625,11.933929443359375 L 6.4644775390625,12.433914184570312 L 6.540496826171875,12.93389892578125 L 6.6148529052734375,13.433883666992188 L 6.7378387451171875,13.933868408203125 L 6.989959716796875,14.4134521484375 L 7.2672271728515625,14.864273071289062 L 7.603179931640625,15.27197265625 L 8.046463012695312,15.571075439453125 L 8.546463012695312,15.64178466796875 L 9.046463012695312,15.715667724609375 L 9.546463012695312,15.77996826171875 L 10.046463012695312,15.844268798828125 L 10.546463012695312,15.9085693359375 L 11.046463012695312,15.926559448242188 L 11.546463012695312,15.93975830078125 L 12.046463012695312,15.954559326171875 L 12.546463012695312,15.9693603515625 L 13.046463012695312,15.984161376953125 L 13.546463012695312,15.997360229492188 L 14.046463012695312,16.012161254882812 L 14.546463012695312,16.025360107421875 L 15.046463012695312,16.038558959960938 L 15.546463012695312,16.025360107421875 L 16.046463012695312,16.01055908203125 L 16.546463012695312,15.995758056640625 L 17.046463012695312,15.979354858398438 L 17.546463012695312,15.96295166015625 M 10.50811767578125,10.23187255859375 L 10.50811767578125,10.23187255859375 L 10.027984619140625,10.102066040039062 L 9.527999877929688,9.972259521484375 L 9.02801513671875,9.856826782226562 L 8.65521240234375,10.25494384765625 L 8.7144775390625,10.754928588867188 L 8.813980102539062,11.254913330078125 L 8.8648681640625,11.752059936523438 L 9.34002685546875,11.902618408203125 L 9.84002685546875,11.868637084960938 L 10.34002685546875,11.769180297851562 L 10.813507080078125,11.677719116210938 M 10.295455932617188,13.112228393554688 L 10.295455932617188,13.112228393554688 L 9.79547119140625,13.0958251953125 L 9.295486450195312,13.079421997070312 L 8.795501708984375,13.053436279296875 L 8.918487548828125,12.562667846679688 L 9.023025512695312,12.0718994140625 M 9.155532836914062,11.980819702148438 L 9.155532836914062,11.980819702148438 L 9.187957763671875,11.806289672851562 L 9.212005615234375,11.955245971679688 L 9.2159423828125,12.185653686523438 L 9.193618774414062,12.336212158203125 L 9.147811889648438,12.565032958984375" fill="none" stroke="#000000" stroke-width="0.011139572143554688"/>
</svg>
