<?xml version="1.0" ?>
<svg baseProfile="full" height="600px" version="1.1" viewBox="6.998433753967285 5.582172462463379 4.580341964721679 10.506019454956055" width="262px" xmlns="http://www.w3.org/2000/svg" xmlns:ev="http://www.w3.org/2001/xml-events" xmlns:xlink="http://www.w3.org/1999/xlink">
	<defs/>
	<path d="M 11.133010864257812,6.7613525390625 L 11.133010864257812,6.7613525390625 L 10.633026123046875,6.7146148681640625 L 10.133041381835938,6.667877197265625 L 9.633056640625,6.6211395263671875 L 9.133071899414062,6.6031341552734375 L 8.633087158203125,6.5547943115234375 L 8.133102416992188,6.508056640625 L 7.63311767578125,6.4613189697265625 L 7.5990447998046875,6.7093048095703125 L 7.5867767333984375,7.20928955078125 L 7.5745086669921875,7.7092742919921875 L 7.5605621337890625,8.209259033203125 L 7.5466156005859375,8.709243774414062 L 7.5326690673828125,9.209228515625 L 7.5187225341796875,9.709213256835938 L 7.5064544677734375,10.209197998046875 L 7.4941864013671875,10.709182739257812 L 7.4819183349609375,11.20916748046875 L 7.4696502685546875,11.709152221679688 L 7.4573822021484375,12.209136962890625 L 7.4451141357421875,12.709121704101562 L 7.4328460693359375,13.2091064453125 L 7.4205780029296875,13.709091186523438 L 7.4083099365234375,14.209075927734375 L 7.3960418701171875,14.709060668945312 L 7.3837738037109375,15.20904541015625 L 7.8589324951171875,15.162307739257812 L 8.334091186523438,15.115570068359375 L 8.809249877929688,15.067230224609375 L 9.286087036132812,15.020492553710938 L 9.762924194335938,14.9737548828125 L 10.239761352539062,14.927017211914062 L 10.716598510742188,14.880279541015625 L 11.193435668945312,14.831939697265625 L 11.171112060546875,14.649429321289062 L 11.147109985351562,14.149429321289062 L 11.124786376953125,13.649429321289062 L 11.102462768554688,13.149429321289062 L 11.078460693359375,12.649429321289062 L 11.054458618164062,12.149429321289062 L 11.03045654296875,11.649429321289062 L 11.006454467773438,11.149429321289062 L 10.984130859375,10.649429321289062 L 10.961807250976562,10.149429321289062 L 10.93780517578125,9.649429321289062 L 10.960174560546875,9.149429321289062 L 10.98590087890625,8.649429321289062 L 11.00994873046875,8.149429321289062 L 11.03399658203125,7.6494293212890625 L 11.104995727539062,7.1494293212890625 L 11.181015014648438,6.6494293212890625 M 9.54693603515625,6.9318084716796875 L 9.54693603515625,6.9318084716796875 L 9.567626953125,7.3874359130859375 L 9.58831787109375,7.887420654296875 L 9.6090087890625,8.387405395507812 L 9.581649780273438,8.88739013671875 L 9.550949096679688,9.387374877929688 L 9.520248413085938,9.887359619140625 L 9.489547729492188,10.387344360351562 L 9.458847045898438,10.8873291015625 L 9.428146362304688,11.387313842773438 L 9.395767211914062,11.887298583984375 L 9.370086669921875,12.387283325195312 L 9.400833129882812,12.88726806640625 L 9.436614990234375,13.387252807617188 L 9.53277587890625,13.887237548828125 L 9.566879272460938,14.387222290039062 L 9.600982666015625,14.88720703125 M 10.511093139648438,12.7418212890625 L 10.511093139648438,12.7418212890625 L 10.0111083984375,12.701461791992188 L 9.511123657226562,12.661102294921875 M 10.220306396484375,10.554092407226562 L 10.220306396484375,10.554092407226562 L 9.720321655273438,10.4674072265625 M 10.40850830078125,8.368759155273438 L 10.40850830078125,8.368759155273438 L 9.908523559570312,8.307632446289062 M 8.726119995117188,7.6015472412109375 L 8.726119995117188,7.6015472412109375 L 8.22613525390625,7.5308380126953125 L 7.7261505126953125,7.4601287841796875 M 8.127548217773438,9.012680053710938 L 8.127548217773438,9.012680053710938 L 8.611083984375,9.097747802734375 L 9.097976684570312,9.16845703125 M 8.447509765625,11.643997192382812 L 8.447509765625,11.643997192382812 L 7.9475250244140625,11.627593994140625 M 8.809036254882812,13.742462158203125 L 8.809036254882812,13.742462158203125 L 8.309051513671875,13.742889404296875 L 7.8090667724609375,13.743316650390625" fill="none" stroke="#000000" stroke-width="0.008747726440429688"/>
</svg>
