<?xml version="1.0" ?>
<svg baseProfile="full" height="459px" version="1.1" viewBox="5.001467247009277 8.539533348083497 9.248759231567384 7.064732131958008" width="600px" xmlns="http://www.w3.org/2000/svg" xmlns:ev="http://www.w3.org/2001/xml-events" xmlns:xlink="http://www.w3.org/1999/xlink">
	<defs/>
	<path d="M 12.232940673828125,14.980514526367188 L 12.232940673828125,14.980514526367188 L 11.764541625976562,14.721343994140625 L 11.386703491210938,14.37750244140625 L 11.14971923828125,13.957000732421875 L 11.023422241210938,13.491775512695312 L 11.023422241210938,13.008987426757812 L 11.064224243164062,12.526199340820312 L 11.105026245117188,12.043411254882812 L 11.145828247070312,11.560623168945312 L 11.186630249023438,11.077835083007812 L 11.227432250976562,10.595046997070312 L 11.417495727539062,10.131423950195312 L 11.77191162109375,9.792388916015625 L 12.133026123046875,9.47412109375 L 12.556182861328125,9.222930908203125 L 13.017913818359375,9.1314697265625 L 13.476287841796875,9.428970336914062 L 12.976303100585938,9.385406494140625 L 12.476318359375,9.341842651367188 L 11.976333618164062,9.29827880859375 L 11.476348876953125,9.254714965820312 L 10.976364135742188,9.211151123046875 L 10.47637939453125,9.167587280273438 L 9.976394653320312,9.195159912109375 L 9.476409912109375,9.320175170898438 L 8.976425170898438,9.4451904296875 L 8.4764404296875,9.57177734375 L 7.9764556884765625,9.6983642578125 L 7.4963226318359375,9.94476318359375 L 7.095001220703125,10.271011352539062 L 6.6953582763671875,10.598846435546875 L 6.3108062744140625,10.973007202148438 L 6.0620880126953125,11.420639038085938 L 5.9441680908203125,11.916183471679688 L 5.8581085205078125,12.414932250976562 L 5.7754058837890625,12.913681030273438 L 6.0426025390625,13.35333251953125 L 6.47918701171875,13.537429809570312 L 6.915771484375,13.721527099609375 L 7.35235595703125,13.904022216796875 L 7.7889404296875,14.086517333984375 L 8.22552490234375,14.269012451171875 L 8.672164916992188,14.409988403320312 L 9.130538940429688,14.469512939453125 L 9.588912963867188,14.529037475585938 L 10.048965454101562,14.582168579101562 L 10.510696411132812,14.635299682617188 L 10.974105834960938,14.698013305664062 L 11.437515258789062,14.797454833984375 L 11.900924682617188,14.896896362304688 L 12.364334106445312,15.0123291015625 M 8.6944580078125,14.25537109375 L 8.6944580078125,14.25537109375 L 8.355194091796875,13.855636596679688 L 8.069580078125,13.407989501953125 L 7.899688720703125,12.94757080078125 L 7.8387908935546875,12.466384887695312 L 7.8661956787109375,11.983596801757812 L 7.895263671875,11.500808715820312 L 7.94781494140625,11.018020629882812 L 8.07415771484375,10.535232543945312 L 8.343032836914062,10.119537353515625 L 8.685699462890625,9.770919799804688 L 9.038421630859375,9.425506591796875" fill="none" stroke="#000000" stroke-width="0.0077008819580078125"/>
</svg>
