<?xml version="1.0" ?>
<svg baseProfile="full" height="600px" version="1.1" viewBox="10.524620025634766 7.610595672607422 2.2197266235351565 7.2057800903320315" width="185px" xmlns="http://www.w3.org/2000/svg" xmlns:ev="http://www.w3.org/2001/xml-events" xmlns:xlink="http://www.w3.org/1999/xlink">
	<defs/>
	<path d="M 12.427719116210938,8.213577270507812 L 12.427719116210938,8.213577270507812 L 12.471893310546875,8.71356201171875 L 12.5126953125,9.213546752929688 L 12.556869506835938,9.713531494140625 L 12.554656982421875,10.213516235351562 L 12.525634765625,10.7135009765625 L 12.47479248046875,11.213485717773438 L 12.40887451171875,11.713470458984375 L 12.341278076171875,12.213455200195312 L 12.325668334960938,12.71343994140625 L 12.325668334960938,13.213424682617188 L 12.325668334960938,13.713409423828125 L 12.32513427734375,14.213394165039062 M 12.264801025390625,13.616790771484375 L 12.264801025390625,13.616790771484375 L 12.047943115234375,13.376785278320312 L 11.671783447265625,13.088851928710938 L 11.446548461914062,12.604476928710938 L 11.424224853515625,12.104476928710938 L 11.424224853515625,11.604476928710938 L 11.424224853515625,11.104476928710938 L 11.424224853515625,10.604476928710938 L 11.530441284179688,10.104476928710938 L 11.770828247070312,9.618499755859375 L 12.03802490234375,9.151702880859375 L 12.305221557617188,8.684906005859375 M 11.701095581054688,10.205581665039062 L 11.701095581054688,10.205581665039062 L 12.03704833984375,10.424819946289062 L 12.279098510742188,10.9075927734375 L 12.248397827148438,11.407577514648438 L 11.991302490234375,11.887161254882812 L 11.662094116210938,12.326812744140625 L 11.299346923828125,12.726531982421875 M 10.83441162109375,12.830734252929688 L 10.83441162109375,12.830734252929688 L 10.802032470703125,12.338363647460938 L 10.746170043945312,11.838363647460938 L 10.71209716796875,11.338363647460938 L 10.8099365234375,10.838363647460938 L 10.912796020507812,10.338363647460938 L 11.044174194335938,9.838363647460938" fill="none" stroke="#000000" stroke-width="0.00599981689453125"/>
</svg>
