<?xml version="1.0" ?>
<svg baseProfile="full" height="600px" version="1.1" viewBox="8.307724411010742 4.449365646362304 5.568938385009766 13.992595611572266" width="239px" xmlns="http://www.w3.org/2000/svg" xmlns:ev="http://www.w3.org/2001/xml-events" xmlns:xlink="http://www.w3.org/1999/xlink">
	<defs/>
	<path d="M 13.311508178710938,6.447967529296875 L 13.311508178710938,6.447967529296875 L 13.1617431640625,6.94671630859375 L 13.010284423828125,7.4467010498046875 L 12.85882568359375,7.946685791015625 L 12.707366943359375,8.446670532226562 L 12.535797119140625,8.9466552734375 L 12.337387084960938,9.44219970703125 L 12.120529174804688,9.932968139648438 L 11.91876220703125,10.422134399414062 L 11.7471923828125,10.920883178710938 L 11.57562255859375,11.419631958007812 L 11.4610595703125,11.91961669921875 L 11.442092895507812,12.419601440429688 L 11.484588623046875,12.919586181640625 L 11.532119750976562,13.419570922851562 L 11.658462524414062,13.9195556640625 L 11.83343505859375,14.419540405273438 L 12.05535888671875,14.913482666015625 L 12.27728271484375,15.407424926757812 L 12.49920654296875,15.9013671875 L 12.72113037109375,16.395309448242188 L 12.61328125,16.895294189453125 L 12.2337646484375,17.27105712890625 L 11.733779907226562,17.224319458007812 L 11.394515991210938,16.810211181640625 L 11.107223510742188,16.38970947265625 L 10.7813720703125,15.985183715820312 L 10.453842163085938,15.580657958984375 L 10.126312255859375,15.176132202148438 L 9.832321166992188,14.763626098632812 L 9.623855590820312,14.306396484375 L 9.442230224609375,13.836395263671875 L 9.26898193359375,13.358413696289062 L 9.1158447265625,12.877227783203125 L 8.9979248046875,12.391250610351562 L 8.91522216796875,11.900482177734375 L 8.83251953125,11.408111572265625 L 8.776657104492188,10.917343139648438 L 8.802383422851562,10.423385620117188 L 9.022628784179688,9.945404052734375 L 9.261337280273438,9.481781005859375 L 9.500045776367188,9.019760131835938 L 9.737075805664062,8.5577392578125 L 9.974105834960938,8.095718383789062 L 10.212814331054688,7.6320953369140625 L 10.451522827148438,7.1716766357421875 L 10.728790283203125,6.7384185791015625 L 11.046310424804688,6.3259124755859375 L 11.469467163085938,6.02362060546875 L 11.907730102539062,5.745269775390625 L 12.407730102539062,5.620269775390625 L 12.907730102539062,5.716522216796875 L 13.407730102539062,5.907012939453125 L 13.239501953125,6.4069976806640625 L 13.071273803710938,6.906982421875 M 12.136611938476562,6.699188232421875 L 12.136611938476562,6.699188232421875 L 12.055587768554688,7.1116943359375 L 11.971206665039062,7.6116790771484375 L 11.777816772460938,8.10882568359375 L 11.450286865234375,8.543685913085938 L 11.121078491210938,8.976943969726562 L 10.825408935546875,9.422988891601562 L 10.529739379882812,9.869033813476562 L 10.3262939453125,10.36138916015625 L 10.153045654296875,10.861373901367188 L 10.033447265625,11.361358642578125 L 9.9222412109375,11.861343383789062 L 9.904953002929688,12.361328125 L 10.074905395507812,12.861312866210938 L 10.264968872070312,13.360061645507812 L 10.455032348632812,13.858810424804688 L 10.645095825195312,14.357559204101562 L 10.835159301757812,14.856307983398438 L 11.142608642578125,15.303939819335938 L 11.450057983398438,15.751571655273438 L 11.75750732421875,16.199203491210938" fill="none" stroke="#000000" stroke-width="0.011650787353515626"/>
</svg>
