<?xml version="1.0" ?>
<svg baseProfile="full" height="600px" version="1.1" viewBox="8.422503562927247 5.947419639587403 3.960717971801758 6.509564407348633" width="366px" xmlns="http://www.w3.org/2000/svg" xmlns:ev="http://www.w3.org/2001/xml-events" xmlns:xlink="http://www.w3.org/1999/xlink">
	<defs/>
	<path d="M 11.230056762695312,7.286895751953125 L 11.230056762695312,7.286895751953125 L 10.9947509765625,7.2768707275390625 L 10.724227905273438,7.3076324462890625 L 10.447006225585938,7.47735595703125 L 10.149658203125,7.707763671875 L 9.828826904296875,7.9397735595703125 L 9.509674072265625,8.219711303710938 L 9.215682983398438,8.600265502929688 L 9.0340576171875,9.046310424804688 L 8.931243896484375,9.5035400390625 L 8.965347290039062,9.975128173828125 L 9.048095703125,10.44671630859375 L 9.155990600585938,10.918304443359375 L 9.307479858398438,11.319625854492188 M 9.660812377929688,11.42181396484375 L 9.660812377929688,11.42181396484375 L 9.428863525390625,11.52606201171875 L 9.180145263671875,11.59356689453125 L 8.92974853515625,11.686630249023438 L 8.75482177734375,11.912261962890625 M 11.035110473632812,6.4921417236328125 L 11.035110473632812,6.4921417236328125 L 11.039047241210938,6.6730499267578125 L 11.042984008789062,6.866729736328125 L 11.046920776367188,7.116302490234375 L 11.183319091796875,7.2189483642578125 L 11.324752807617188,7.3199920654296875 L 11.474563598632812,7.4929046630859375 L 11.75518798828125,7.63067626953125 L 12.0509033203125,7.6566619873046875" fill="none" stroke="#000000" stroke-width="0.005420120239257813"/>
</svg>
