<?xml version="1.0" ?>
<svg baseProfile="full" height="600px" version="1.1" viewBox="7.580502433776855 7.997578544616699 2.955328140258789 6.824255142211914" width="260px" xmlns="http://www.w3.org/2000/svg" xmlns:ev="http://www.w3.org/2001/xml-events" xmlns:xlink="http://www.w3.org/1999/xlink">
	<defs/>
	<path d="M 9.456878662109375,8.568634033203125 L 9.456878662109375,8.568634033203125 L 9.37921142578125,8.891693115234375 L 9.311614990234375,9.339324951171875 L 9.58721923828125,9.785369873046875 L 9.908096313476562,10.229812622070312 L 9.754959106445312,10.281341552734375 L 9.521331787109375,10.4478759765625 L 9.292724609375,10.873138427734375 L 9.360366821289062,11.373123168945312 L 9.793594360351562,11.624298095703125 L 10.287185668945312,11.632705688476562 L 10.0904541015625,11.703414916992188 L 9.71429443359375,11.898681640625 L 9.385086059570312,12.343124389648438 L 9.213516235351562,12.843109130859375 L 9.214080810546875,13.343093872070312 L 9.249862670898438,13.84307861328125 L 9.249862670898438,14.250778198242188 L 9.247650146484375,14.079452514648438 L 9.221969604492188,13.829864501953125 L 9.0621337890625,13.4732666015625 L 8.63397216796875,13.289154052734375 L 8.185699462890625,13.076309204101562 L 7.8933868408203125,12.652633666992188 L 7.8291473388671875,12.152633666992188 L 7.85821533203125,11.652633666992188 L 7.91412353515625,11.152633666992188 L 7.9800872802734375,10.652633666992188 L 8.324432373046875,10.240127563476562 L 8.75933837890625,9.945816040039062 L 9.154006958007812,9.5924072265625 L 9.345748901367188,9.10003662109375 L 9.433517456054688,8.60003662109375 M 8.9730224609375,9.91461181640625 L 8.9730224609375,9.91461181640625 L 8.846725463867188,10.2568359375 L 8.546035766601562,10.643783569335938 L 8.230239868164062,11.08343505859375 L 7.998291015625,11.574203491210938 L 7.994415283203125,12.074188232421875 L 8.38067626953125,12.410018920898438 L 8.7786865234375,12.75543212890625 L 9.012344360351562,13.239791870117188 L 9.227569580078125,13.732147216796875" fill="none" stroke="#000000" stroke-width="0.005682144165039062"/>
</svg>
