<?xml version="1.0" ?>
<svg baseProfile="full" height="600px" version="1.1" viewBox="5.228487037658692 5.617059730529785 6.553096725463867 11.313381149291992" width="348px" xmlns="http://www.w3.org/2000/svg" xmlns:ev="http://www.w3.org/2001/xml-events" xmlns:xlink="http://www.w3.org/1999/xlink">
	<defs/>
	<path d="M 10.770751953125,7.16998291015625 L 10.770751953125,7.16998291015625 L 10.36273193359375,7.5297698974609375 L 9.956375122070312,7.89434814453125 L 9.568466186523438,8.26690673828125 L 9.19732666015625,8.6474609375 L 8.911712646484375,9.091903686523438 L 8.709945678710938,9.566696166992188 L 8.533340454101562,10.05426025390625 L 8.413742065429688,10.548202514648438 L 8.37799072265625,11.046951293945312 L 8.43389892578125,11.544097900390625 L 8.4931640625,12.041244506835938 L 8.602737426757812,12.541229248046875 L 8.712310791015625,13.036773681640625 L 8.855422973632812,13.52593994140625 L 9.12261962890625,13.970382690429688 L 9.391494750976562,14.413223266601562 L 9.65869140625,14.856063842773438 L 9.927566528320312,15.29730224609375 L 10.196441650390625,15.738540649414062 M 10.689544677734375,15.490966796875 L 10.689544677734375,15.490966796875 L 10.2379150390625,15.775680541992188 L 9.756103515625,15.983734130859375 M 11.2315673828125,7.425506591796875 L 11.2315673828125,7.425506591796875 L 11.008010864257812,6.9459228515625 L 10.678802490234375,6.5637664794921875 M 9.153915405273438,8.567108154296875 L 9.153915405273438,8.567108154296875 L 8.660369873046875,8.778366088867188 L 8.18023681640625,9.002395629882812 L 7.7068023681640625,9.224822998046875 L 7.2384033203125,9.452041625976562 L 6.7767181396484375,9.687255859375 L 6.343536376953125,9.968780517578125 L 6.00091552734375,10.366897583007812 L 5.827667236328125,10.856063842773438 L 5.77850341796875,11.356048583984375 L 5.8880767822265625,11.856033325195312 L 6.15863037109375,12.302078247070312 L 6.491241455078125,12.703399658203125 L 6.932861328125,12.954574584960938 L 7.432861328125,13.046035766601562 L 7.932861328125,13.137496948242188 L 8.432861328125,13.228958129882812 L 8.932861328125,13.320419311523438 M 7.018646240234375,9.692520141601562 L 7.018646240234375,9.692520141601562 L 6.971160888671875,10.191268920898438 L 6.9136199951171875,10.691253662109375 L 6.790679931640625,11.191238403320312 L 6.548675537109375,11.638870239257812 L 6.2211456298828125,12.041778564453125 M 6.9898681640625,10.9447021484375 L 6.9898681640625,10.9447021484375 L 7.2201690673828125,11.425872802734375 L 7.3146514892578125,11.9150390625 L 7.1447601318359375,12.404205322265625 L 6.9010772705078125,12.851837158203125 L 6.63726806640625,13.297882080078125 M 10.186477661132812,13.091720581054688 L 10.186477661132812,13.091720581054688 L 10.490570068359375,12.679214477539062 L 10.250228881835938,13.128433227539062 L 9.971328735351562,13.5728759765625 L 10.371017456054688,13.267379760742188 L 10.197769165039062,13.291763305664062 L 9.715957641601562,13.525375366210938 L 9.812118530273438,13.025375366210938 L 10.312118530273438,13.228652954101562 L 10.247879028320312,13.7286376953125 L 10.432907104492188,13.2286376953125 L 10.373687744140625,12.73468017578125 L 9.873703002929688,12.835723876953125 L 10.171096801757812,13.281768798828125 L 10.64959716796875,13.155166625976562" fill="none" stroke="#000000" stroke-width="0.009419967651367187"/>
</svg>
