<?xml version="1.0" ?>
<svg baseProfile="full" height="600px" version="1.1" viewBox="10.102566780090331 5.607872261047364 3.405797836303711 13.149993392944335" width="156px" xmlns="http://www.w3.org/2000/svg" xmlns:ev="http://www.w3.org/2001/xml-events" xmlns:xlink="http://www.w3.org/1999/xlink">
	<defs/>
	<path d="M 10.883377075195312,6.7283782958984375 L 10.883377075195312,6.7283782958984375 L 11.028167724609375,6.9060821533203125 L 11.298721313476562,7.3553009033203125 L 11.567596435546875,7.8045196533203125 L 11.836471557617188,8.253738403320312 L 12.1053466796875,8.702957153320312 L 12.374221801757812,9.152175903320312 L 12.643096923828125,9.601394653320312 L 12.911972045898438,10.050613403320312 L 13.147308349609375,10.531784057617188 L 13.219985961914062,11.031768798828125 L 13.192626953125,11.531753540039062 L 13.1451416015625,12.03173828125 L 13.09765625,12.531723022460938 L 13.043472290039062,13.031707763671875 L 12.995986938476562,13.531692504882812 L 12.878067016601562,14.03167724609375 L 12.647796630859375,14.5272216796875 L 12.340377807617188,14.9764404296875 L 12.034652709960938,15.424072265625 L 11.725555419921875,15.8717041015625 L 11.416458129882812,16.3193359375 L 11.105682373046875,16.765380859375 L 10.794906616210938,17.21142578125 L 10.484130859375,17.657470703125 M 10.397186279296875,17.112319946289062 L 10.397186279296875,17.112319946289062 L 10.453094482421875,16.6263427734375 L 10.50732421875,16.1263427734375 L 10.786270141601562,15.664321899414062 L 11.1943359375,15.360427856445312 L 11.491729736328125,14.947921752929688 L 11.643218994140625,14.461944580078125 L 11.702484130859375,13.961944580078125 L 11.738265991210938,13.461944580078125 L 11.7740478515625,12.961944580078125 L 11.809829711914062,12.461944580078125 L 11.845611572265625,11.961944580078125 L 11.824966430664062,11.461944580078125 L 11.712081909179688,10.963180541992188 L 11.533798217773438,10.48199462890625 L 11.353836059570312,9.99761962890625 L 11.313064575195312,9.498855590820312 L 11.273956298828125,8.998855590820312 L 11.2415771484375,8.498855590820312 L 11.194091796875,8.001693725585938 L 11.017486572265625,7.515716552734375 L 10.715118408203125,7.1016082763671875 L 10.390945434570312,6.7082672119140625" fill="none" stroke="#000000" stroke-width="0.010949203491210938"/>
</svg>
