<?xml version="1.0" ?>
<svg baseProfile="full" height="268px" version="1.1" viewBox="11.65629995727539 6.664438995361328 9.328788024902344 4.163309509277344" width="600px" xmlns="http://www.w3.org/2000/svg" xmlns:ev="http://www.w3.org/2001/xml-events" xmlns:xlink="http://www.w3.org/1999/xlink">
	<defs/>
	<path d="M 18.34527587890625,9.77392578125 L 18.34527587890625,9.77392578125 L 17.876876831054688,10.026702880859375 L 17.37689208984375,10.024658203125 L 16.908493041992188,9.76068115234375 L 16.430038452148438,9.9910888671875 L 15.985122680664062,10.267822265625 L 15.485137939453125,10.134811401367188 L 15.045242309570312,9.866058349609375 L 14.545257568359375,9.840072631835938 L 14.045272827148438,10.022567749023438 L 13.602035522460938,10.297698974609375 L 13.10205078125,10.212615966796875 L 12.678939819335938,9.907119750976562 L 12.436935424804688,9.470657348632812 L 12.544830322265625,8.978286743164062 L 12.929412841796875,8.658416748046875 L 13.33245849609375,8.359298706054688 L 13.774078369140625,8.12567138671875 L 14.2156982421875,7.85211181640625 L 14.60699462890625,7.511474609375 L 15.070404052734375,7.3353424072265625 L 15.537155151367188,7.208740234375 L 16.00390625,7.0821380615234375 L 16.482406616210938,7.014617919921875 L 16.982406616210938,7.2354583740234375 L 17.482406616210938,7.264617919921875 L 17.982406616210938,7.2482147216796875 L 18.455886840820312,7.5041961669921875 L 18.904205322265625,7.816070556640625 L 19.382705688476562,7.912322998046875 L 19.859542846679688,8.120376586914062 L 20.197174072265625,8.560028076171875 L 20.204452514648438,9.057174682617188 L 19.880279541015625,9.472854614257812 L 19.406845092773438,9.714447021484375 L 18.9068603515625,9.81549072265625 L 18.502182006835938,10.146530151367188 L 18.097503662109375,10.477569580078125 L 17.615692138671875,10.269500732421875 L 17.274749755859375,9.893722534179688 L 16.804672241210938,10.141708374023438 M 14.223419189453125,8.246368408203125 L 14.223419189453125,8.246368408203125 L 14.492294311523438,7.7811431884765625 L 14.97918701171875,7.678497314453125 L 15.47918701171875,7.7044830322265625 L 15.952667236328125,7.939697265625 L 16.40936279296875,7.6709442138671875 L 16.9029541015625,7.5858612060546875 L 17.302642822265625,7.92010498046875 L 17.802642822265625,7.926910400390625 L 18.267730712890625,8.168502807617188 L 18.511459350585938,8.63690185546875" fill="none" stroke="#000000" stroke-width="0.00776751708984375"/>
</svg>
