<?xml version="1.0" ?>
<svg baseProfile="full" height="600px" version="1.1" viewBox="4.9939670028686525 3.792381614685058 9.389263259887695 15.678771316528321" width="360px" xmlns="http://www.w3.org/2000/svg" xmlns:ev="http://www.w3.org/2001/xml-events" xmlns:xlink="http://www.w3.org/1999/xlink">
	<defs/>
	<path d="M 12.202056884765625,6.5576324462890625 L 12.202056884765625,6.5576324462890625 L 11.702072143554688,6.580413818359375 L 11.20208740234375,6.64471435546875 L 10.702102661132812,6.7729034423828125 L 10.225311279296875,6.9458160400390625 L 9.751876831054688,7.1283111572265625 L 9.28179931640625,7.3108062744140625 L 8.811721801757812,7.4933013916015625 L 8.35003662109375,7.7221221923828125 L 7.9084625244140625,7.9653167724609375 L 7.471923828125,8.218093872070312 L 7.119232177734375,8.592254638671875 L 6.8805694580078125,9.038299560546875 L 6.6653900146484375,9.487518310546875 L 6.4552459716796875,9.935150146484375 L 6.2568359375,10.382781982421875 L 6.0735321044921875,10.830413818359375 L 5.9019622802734375,11.290817260742188 L 5.8092041015625,11.775177001953125 L 5.7818450927734375,12.269119262695312 L 5.867950439453125,12.767868041992188 L 6.052978515625,13.257034301757812 L 6.238006591796875,13.744598388671875 L 6.5102386474609375,14.192230224609375 L 6.8025970458984375,14.62548828125 L 7.143585205078125,15.012435913085938 L 7.57513427734375,15.258834838867188 L 8.013397216796875,15.495651245117188 L 8.453338623046875,15.7276611328125 L 8.893280029296875,15.959671020507812 L 9.33154296875,16.185302734375 L 9.769805908203125,16.407730102539062 L 10.20806884765625,16.630157470703125 L 10.668121337890625,16.761550903320312 L 11.13153076171875,16.886566162109375 L 11.59326171875,17.001998901367188 L 12.056671142578125,17.122207641601562 L 12.518402099609375,17.240814208984375 M 13.595352172851562,18.159149169921875 L 13.595352172851562,18.159149169921875 L 13.234283447265625,18.07086181640625 L 12.734298706054688,17.936264038085938 L 12.788528442382812,17.436264038085938 L 12.847793579101562,16.936264038085938 L 12.88189697265625,16.436264038085938 L 13.34698486328125,16.261734008789062 M 13.372360229492188,5.3799591064453125 L 13.372360229492188,5.3799591064453125 L 13.078369140625,5.2421722412109375 L 12.578384399414062,5.1043853759765625 L 12.299484252929688,5.548828125 L 12.131256103515625,6.0427703857421875 L 11.963027954101562,6.536712646484375 L 11.947418212890625,7.0366973876953125 L 12.179397583007812,7.4843292236328125 L 12.62603759765625,7.7466888427734375 L 13.099517822265625,7.9307861328125" fill="none" stroke="#000000" stroke-width="0.013054763793945313"/>
</svg>
