<?xml version="1.0" ?>
<svg baseProfile="full" height="600px" version="1.1" viewBox="12.383724403381347 5.3470453262329105 3.3829265594482423 10.465409469604491" width="194px" xmlns="http://www.w3.org/2000/svg" xmlns:ev="http://www.w3.org/2001/xml-events" xmlns:xlink="http://www.w3.org/1999/xlink">
	<defs/>
	<path d="M 14.705596923828125,6.8849334716796875 L 14.705596923828125,6.8849334716796875 L 14.456878662109375,7.215972900390625 L 14.31884765625,7.7159576416015625 L 14.20428466796875,8.2159423828125 L 14.074630737304688,8.715927124023438 L 13.9466552734375,9.215911865234375 L 13.8035888671875,9.715896606445312 L 13.757781982421875,10.21588134765625 L 13.795242309570312,10.715866088867188 L 13.89642333984375,11.215850830078125 L 14.0194091796875,11.709793090820312 L 14.191024780273438,12.190963745117188 L 14.407928466796875,12.640182495117188 L 14.626495361328125,13.089401245117188 L 14.84674072265625,13.538619995117188 L 15.066986083984375,13.98944091796875 L 15.402938842773438,14.401947021484375 L 15.16259765625,14.353607177734375 L 14.689163208007812,14.091232299804688 L 14.287841796875,13.745819091796875 L 13.931793212890625,13.378036499023438 L 13.565689086914062,13.0118408203125 L 13.226425170898438,12.63446044921875 L 12.972686767578125,12.201202392578125 L 12.765899658203125,11.743972778320312 L 12.688232421875,11.253204345703125 L 12.669265747070312,10.760833740234375 L 12.775482177734375,10.266876220703125 L 12.881698608398438,9.774505615234375 L 12.9879150390625,9.282135009765625 L 13.127670288085938,8.789764404296875 L 13.319412231445312,8.303787231445312 L 13.588287353515625,7.859344482421875 L 13.961135864257812,7.5107269287109375 L 14.4111328125,7.2898712158203125 L 14.8125,6.987579345703125 M 15.210556030273438,7.417633056640625 L 15.210556030273438,7.417633056640625 L 15.124496459960938,7.20635986328125 L 14.892547607421875,6.7523193359375 L 14.48284912109375,6.405303955078125 L 13.982864379882812,6.2227935791015625 M 15.481109619140625,13.822555541992188 L 15.481109619140625,13.822555541992188 L 15.331344604492188,14.322540283203125 L 14.953506469726562,14.719070434570312 L 14.471694946289062,14.93670654296875 L 13.971710205078125,14.89794921875 M 15.230300903320312,14.27972412109375 L 15.230300903320312,14.27972412109375 L 14.907791137695312,14.010971069335938 L 14.464553833007812,13.715057373046875 L 14.078323364257812,13.3680419921875 L 13.791030883789062,12.955535888671875 L 13.597640991210938,12.5142822265625 L 13.416015625,12.06024169921875 L 13.239410400390625,11.606201171875 L 13.186904907226562,11.1234130859375 L 13.176315307617188,10.6390380859375 L 13.294265747070312,10.15625 L 13.53631591796875,9.697433471679688 L 13.7364501953125,9.219451904296875 L 13.797393798828125,8.719451904296875 L 13.788482666015625,8.219451904296875 L 13.782928466796875,7.719451904296875 L 14.013229370117188,7.2542266845703125 L 14.35589599609375,6.8752593994140625 M 13.6578369140625,7.9541778564453125 L 13.6578369140625,7.9541778564453125 L 13.4124755859375,7.901031494140625 L 13.88763427734375,8.069168090820312 L 14.07769775390625,8.072784423828125 L 14.57769775390625,8.14349365234375 M 13.197708129882812,8.9305419921875 L 13.197708129882812,8.9305419921875 L 13.671188354492188,9.146575927734375 L 14.142990112304688,9.365814208984375 M 12.983856201171875,10.325820922851562 L 12.983856201171875,10.325820922851562 L 13.483856201171875,10.3533935546875 M 13.145248413085938,11.976318359375 L 13.145248413085938,11.976318359375 L 13.474502563476562,11.888031005859375 L 13.971450805664062,11.758224487304688 M 13.708816528320312,13.191436767578125 L 13.708816528320312,13.191436767578125 L 14.083343505859375,12.8348388671875 L 14.561843872070312,12.784896850585938" fill="none" stroke="#000000" stroke-width="0.008713912963867188"/>
</svg>
