<?xml version="1.0" ?>
<svg baseProfile="full" height="600px" version="1.1" viewBox="5.7971037597656245 6.321565124511719 5.8880465087890625 6.132107788085937" width="577px" xmlns="http://www.w3.org/2000/svg" xmlns:ev="http://www.w3.org/2001/xml-events" xmlns:xlink="http://www.w3.org/1999/xlink">
	<defs/>
	<path d="M 8.434112548828125,11.550155639648438 L 8.434112548828125,11.550155639648438 L 8.15521240234375,11.241455078125 L 8.030593872070312,10.7586669921875 L 8.076446533203125,10.259902954101562 L 8.266510009765625,9.799484252929688 L 8.4716796875,9.342254638671875 L 8.743911743164062,8.924957275390625 L 9.036270141601562,8.525222778320312 L 9.375579833984375,8.159027099609375 L 9.77191162109375,7.8503265380859375 L 10.24371337890625,7.6662139892578125 L 10.71551513671875,7.4821014404296875 L 11.192352294921875,7.3571014404296875 L 11.158279418945312,6.97174072265625 L 10.986709594726562,6.9329833984375 L 10.486724853515625,6.8830413818359375 L 9.986740112304688,6.8347015380859375 L 9.48675537109375,6.8670654296875 L 8.986770629882812,7.0352020263671875 L 8.486785888671875,7.214508056640625 L 7.9868011474609375,7.395416259765625 L 7.55194091796875,7.708892822265625 L 7.177459716796875,8.089447021484375 L 6.8784332275390625,8.49395751953125 L 6.581085205078125,8.90325927734375 L 6.35247802734375,9.35247802734375 L 6.2899017333984375,9.852462768554688 L 6.4028167724609375,10.352447509765625 L 6.6566009521484375,10.801666259765625 L 6.962371826171875,11.204574584960938 L 7.323486328125,11.577133178710938 L 7.761749267578125,11.863449096679688 L 8.2603759765625,11.940536499023438 L 8.740554809570312,11.750045776367188 M 7.9594573974609375,11.639404296875 L 7.9594573974609375,11.639404296875 L 7.45947265625,11.480850219726562 L 7.0883331298828125,11.089111328125 L 6.938568115234375,10.589111328125 L 6.9492034912109375,10.089111328125 L 6.986663818359375,9.589111328125 L 7.047607421875,9.089111328125 L 7.3198394775390625,8.67181396484375 L 7.76312255859375,8.419021606445312 L 8.213119506835938,8.16943359375 L 8.668136596679688,7.92144775390625 L 9.11309814453125,7.660675048828125 L 9.519500732421875,7.3551788330078125 L 9.9259033203125,7.0496826171875 L 10.4259033203125,6.964599609375 L 10.9259033203125,6.94659423828125" fill="none" stroke="#000000" stroke-width="0.0051058349609375"/>
</svg>
