<?xml version="1.0" ?>
<svg baseProfile="full" height="600px" version="1.1" viewBox="8.22026235961914 5.857406829833984 3.887707092285156 9.668181945800782" width="242px" xmlns="http://www.w3.org/2000/svg" xmlns:ev="http://www.w3.org/2001/xml-events" xmlns:xlink="http://www.w3.org/1999/xlink">
	<defs/>
	<path d="M 10.912277221679688,6.66644287109375 L 10.912277221679688,6.66644287109375 L 10.732315063476562,6.815399169921875 L 10.460113525390625,7.045806884765625 L 10.409271240234375,7.493438720703125 L 10.5792236328125,7.9921875 L 10.789413452148438,8.489334106445312 L 11.03314208984375,8.97210693359375 L 11.298660278320312,9.440505981445312 L 11.564178466796875,9.908905029296875 L 11.444580078125,10.033920288085938 L 11.214309692382812,10.26593017578125 L 11.041061401367188,10.587387084960938 L 11.174118041992188,10.995086669921875 L 11.469833374023438,11.442718505859375 L 11.7806396484375,11.887161254882812 L 11.630874633789062,11.924331665039062 L 11.422409057617188,12.023773193359375 L 11.153564453125,12.33404541015625 L 11.069183349609375,12.834030151367188 L 11.135147094726562,13.334014892578125 L 11.283279418945312,13.833999633789062 L 11.431411743164062,14.333984375 L 11.705322265625,14.711349487304688 L 11.53375244140625,14.716552734375 L 11.290069580078125,14.716552734375 L 10.965896606445312,14.700149536132812 L 10.601470947265625,14.607086181640625 L 10.14984130859375,14.41339111328125 L 9.683120727539062,14.189361572265625 L 9.303604125976562,13.808807373046875 L 9.0465087890625,13.342010498046875 L 8.834686279296875,12.856033325195312 L 8.728515625,12.356033325195312 L 8.679351806640625,11.856033325195312 L 8.635223388671875,11.356033325195312 L 8.601150512695312,10.856033325195312 L 8.572128295898438,10.356033325195312 L 8.558181762695312,9.856033325195312 L 8.547592163085938,9.356033325195312 L 8.6219482421875,8.856033325195312 L 8.766738891601562,8.356033325195312 L 8.965194702148438,7.8560333251953125 L 9.341400146484375,7.4786529541015625 L 9.714248657226562,7.0996856689453125 L 10.08709716796875,6.7207183837890625 L 10.582366943359375,6.724334716796875 L 10.826095581054688,6.78863525390625 M 10.152206420898438,8.57330322265625 L 10.152206420898438,8.57330322265625 L 10.209793090820312,8.837265014648438 L 10.267379760742188,9.145950317382812 L 10.283050537109375,9.453033447265625 L 10.222152709960938,9.760116577148438 L 10.050582885742188,10.065597534179688 L 9.821975708007812,10.385452270507812 L 9.739273071289062,10.75640869140625 L 9.931015014648438,11.068283081054688 L 9.966796875,11.222030639648438 L 10.004257202148438,11.484390258789062 L 10.0400390625,11.812225341796875 L 10.075820922851562,12.140060424804688 L 10.225631713867188,12.383255004882812 L 10.390548706054688,12.629653930664062 L 10.548736572265625,12.906387329101562 L 10.649917602539062,13.184722900390625 L 10.759490966796875,13.431121826171875" fill="none" stroke="#000000" stroke-width="0.00805010986328125"/>
</svg>
