<?xml version="1.0" ?>
<svg baseProfile="full" height="600px" version="1.1" viewBox="9.721726852416992 4.697959762573242 5.291470611572265 12.157669342041016" width="262px" xmlns="http://www.w3.org/2000/svg" xmlns:ev="http://www.w3.org/2001/xml-events" xmlns:xlink="http://www.w3.org/1999/xlink">
	<defs/>
	<path d="M 13.824615478515625,7.52581787109375 L 13.824615478515625,7.52581787109375 L 13.646331787109375,7.70672607421875 L 13.468048095703125,7.88763427734375 L 13.276336669921875,8.066940307617188 L 13.074569702148438,8.246246337890625 L 12.872802734375,8.425552368164062 L 12.672714233398438,8.622421264648438 L 12.4776611328125,8.85443115234375 L 12.297698974609375,9.137542724609375 L 12.139541625976562,9.623504638671875 L 12.150177001953125,10.120651245117188 L 12.3033447265625,10.620635986328125 L 12.481674194335938,11.120620727539062 L 12.358734130859375,11.62060546875 L 12.036224365234375,12.02032470703125 L 12.083755493164062,12.418441772460938 L 12.250350952148438,12.818161010742188 L 12.053619384765625,13.099685668945312 L 11.828384399414062,13.489822387695312 L 11.857452392578125,13.975784301757812 L 12.087753295898438,14.428207397460938 L 11.94134521484375,14.3814697265625 L 11.741256713867188,14.334732055664062 L 11.497573852539062,14.283187866210938 L 11.2086181640625,14.222061157226562 L 10.85089111328125,14.08905029296875 L 10.45794677734375,13.943267822265625 L 10.25115966796875,13.567489624023438 L 10.225479125976562,13.067489624023438 L 10.204833984375,12.567489624023438 L 10.184188842773438,12.067489624023438 L 10.166900634765625,11.567489624023438 L 10.212753295898438,11.067489624023438 L 10.268661499023438,10.567489624023438 L 10.467117309570312,10.067489624023438 L 10.749420166015625,9.594284057617188 L 11.1138916015625,9.205734252929688 L 11.495132446289062,8.849136352539062 L 11.899856567382812,8.538848876953125 L 12.338119506835938,8.270095825195312 L 12.803207397460938,8.0572509765625 L 13.275009155273438,7.8747406005859375 L 13.751846313476562,7.6938323974609375 M 14.568023681640625,7.8072052001953125 L 14.568023681640625,7.8072052001953125 L 14.394775390625,7.690185546875 L 14.221527099609375,7.53802490234375 L 14.043243408203125,7.387451171875 L 13.858261108398438,7.2241058349609375 L 13.67327880859375,7.0591583251953125 L 13.5587158203125,6.7153167724609375 L 13.574386596679688,6.2153167724609375 L 13.635330200195312,5.7153167724609375 M 11.781906127929688,14.387069702148438 L 11.781906127929688,14.387069702148438 L 11.674057006835938,14.25726318359375 L 11.552780151367188,14.092315673828125 L 11.429840087890625,13.920989990234375 L 11.305221557617188,13.751266479492188 L 11.17724609375,13.57196044921875 L 11.003997802734375,13.3638916015625 L 10.9749755859375,13.064773559570312 L 10.972763061523438,12.69219970703125 L 11.11419677734375,12.234970092773438 L 11.257308959960938,11.745803833007812 L 11.422225952148438,11.258224487304688 L 11.504974365234375,10.758224487304688 L 11.550827026367188,10.258224487304688 L 11.655364990234375,10.00543212890625 L 11.702896118164062,9.848480224609375 L 11.815811157226562,9.581314086914062 L 12.081329345703125,9.200759887695312 L 12.420639038085938,8.909637451171875 L 12.75994873046875,8.618515014648438 L 13.079147338867188,8.287460327148438 L 13.39666748046875,7.9580078125 M 12.553558349609375,13.81683349609375 L 12.553558349609375,13.81683349609375 L 12.388687133789062,13.842819213867188 L 12.101394653320312,13.985382080078125 L 11.81243896484375,14.13433837890625 L 11.518447875976562,14.39031982421875 L 11.236190795898438,14.844345092773438 L 11.026046752929688,15.338287353515625 L 10.8594970703125,15.838272094726562" fill="none" stroke="#000000" stroke-width="0.010122955322265625"/>
</svg>
