<?xml version="1.0" ?>
<svg baseProfile="full" height="600px" version="1.1" viewBox="5.458087013244629 5.2214125137329095 4.374261764526367 12.117370895385744" width="217px" xmlns="http://www.w3.org/2000/svg" xmlns:ev="http://www.w3.org/2001/xml-events" xmlns:xlink="http://www.w3.org/1999/xlink">
	<defs/>
	<path d="M 8.827972412109375,10.495040893554688 L 8.827972412109375,10.495040893554688 L 8.706695556640625,10.806915283203125 L 8.637420654296875,11.306900024414062 L 8.968353271484375,11.748138427734375 L 9.463623046875,11.855575561523438 L 9.350738525390625,12.355560302734375 L 9.179168701171875,12.855545043945312 L 8.846603393554688,13.261642456054688 L 8.483856201171875,13.661361694335938 L 8.121109008789062,14.061080932617188 L 7.75836181640625,14.460800170898438 L 7.48114013671875,14.908432006835938 L 7.2475128173828125,15.370437622070312 L 7.013885498046875,15.832443237304688 L 6.83392333984375,16.324798583984375 L 6.3339385986328125,16.148666381835938 L 5.966156005859375,15.796844482421875 L 5.9035797119140625,15.30926513671875 L 5.8695068359375,14.821685791015625 L 5.86395263671875,14.3341064453125 L 5.8583984375,13.844940185546875 L 5.854522705078125,13.35736083984375 L 5.848968505859375,12.868194580078125 L 5.8450927734375,12.380615234375 L 5.83953857421875,11.891448974609375 L 5.835662841796875,11.40386962890625 L 5.8334503173828125,10.916290283203125 L 5.83123779296875,10.4287109375 L 5.8290252685546875,9.941131591796875 L 5.826812744140625,9.45196533203125 L 5.826812744140625,8.964385986328125 L 5.826812744140625,8.476806640625 L 5.97998046875,7.992431640625 L 6.3008575439453125,7.57513427734375 L 6.618377685546875,7.1594390869140625 L 6.8352813720703125,6.7181854248046875 L 6.8911895751953125,6.2353973388671875 L 7.0812530517578125,6.3061065673828125 L 7.4742431640625,6.699432373046875 L 7.664306640625,7.1917877197265625 L 7.6967315673828125,7.6917724609375 L 7.533538818359375,8.191757202148438 L 7.5743408203125,8.691741943359375 L 7.70404052734375,9.191726684570312 L 7.998077392578125,9.639358520507812 L 8.362548828125,10.035888671875 L 8.802490234375,10.336578369140625 L 9.074722290039062,10.78900146484375 M 7.059814453125,10.11322021484375 L 7.059814453125,10.11322021484375 L 7.1257781982421875,10.613204956054688 L 7.191741943359375,11.113189697265625 L 7.2593841552734375,11.613174438476562 L 7.3270263671875,12.1131591796875 L 7.3946685791015625,12.613143920898438 L 7.4472198486328125,13.113128662109375" fill="none" stroke="#000000" stroke-width="0.010089401245117188"/>
</svg>
