<?xml version="1.0" ?>
<svg baseProfile="full" height="600px" version="1.1" viewBox="7.491824378967285 5.755397071838379 4.096124191284179 9.961816329956054" width="247px" xmlns="http://www.w3.org/2000/svg" xmlns:ev="http://www.w3.org/2001/xml-events" xmlns:xlink="http://www.w3.org/1999/xlink">
	<defs/>
	<path d="M 11.020828247070312,6.7496337890625 L 11.020828247070312,6.7496337890625 L 10.72515869140625,7.192474365234375 L 10.429489135742188,7.63531494140625 L 10.207611083984375,8.097320556640625 L 10.057846069335938,8.591262817382812 L 9.918136596679688,9.085205078125 L 9.82537841796875,9.585189819335938 L 9.78460693359375,10.085174560546875 L 9.760604858398438,10.585159301757812 L 9.80645751953125,11.08514404296875 L 9.867401123046875,11.585128784179688 L 9.950149536132812,12.085113525390625 L 10.066421508789062,12.585098266601562 L 10.20953369140625,13.0850830078125 L 10.407989501953125,13.572647094726562 L 10.676864624023438,14.025070190429688 L 10.957489013671875,14.461517333984375 L 11.243148803710938,14.88360595703125 M 10.920120239257812,14.864425659179688 L 10.920120239257812,14.864425659179688 L 10.420135498046875,14.737823486328125 L 9.920150756835938,14.606414794921875 L 9.475234985351562,14.358428955078125 L 9.089004516601562,14.046554565429688 L 8.736312866210938,13.694732666015625 L 8.494308471679688,13.277435302734375 L 8.2640380859375,12.852157592773438 L 8.079055786132812,12.412490844726562 L 7.9208984375,11.93450927734375 L 7.8834686279296875,11.437347412109375 L 7.866180419921875,10.938583374023438 L 7.8505706787109375,10.441421508789062 L 7.8366241455078125,9.944259643554688 L 7.9160003662109375,9.44549560546875 L 8.020538330078125,8.946731567382812 L 8.20892333984375,8.454360961914062 L 8.479476928710938,7.99554443359375 L 8.887542724609375,7.66448974609375 L 9.300643920898438,7.3398284912109375 L 9.720443725585938,7.0231475830078125 L 10.1905517578125,6.76715087890625 L 10.6905517578125,6.64215087890625 L 11.1905517578125,6.5890045166015625 M 11.01898193359375,6.5890045166015625 L 11.01898193359375,6.5890045166015625 L 10.560653686523438,6.677276611328125 L 10.095596313476562,6.9460296630859375 L 9.724456787109375,7.3249969482421875 L 9.405303955078125,7.7454833984375 L 9.11968994140625,8.193115234375 L 8.90618896484375,8.677474975585938 L 8.724563598632812,9.169830322265625 L 8.604965209960938,9.669815063476562 L 8.559158325195312,10.1697998046875 L 8.558624267578125,10.669784545898438 L 8.594406127929688,11.169769287109375 L 8.70062255859375,11.669754028320312 L 8.81689453125,12.16973876953125 L 8.998580932617188,12.663681030273438 L 9.235610961914062,13.140060424804688 L 9.511215209960938,13.587692260742188 L 9.842147827148438,13.974639892578125 L 10.209976196289062,14.3040771484375 L 10.638168334960938,14.531295776367188 L 11.094863891601562,14.721786499023438" fill="none" stroke="#000000" stroke-width="0.008294601440429688"/>
</svg>
