<?xml version="1.0" ?>
<svg baseProfile="full" height="600px" version="1.1" viewBox="4.829780250549316 4.92039151763916 7.684494674682617 12.092154586791992" width="382px" xmlns="http://www.w3.org/2000/svg" xmlns:ev="http://www.w3.org/2001/xml-events" xmlns:xlink="http://www.w3.org/1999/xlink">
	<defs/>
	<path d="M 11.740020751953125,5.9322662353515625 L 11.740020751953125,5.9322662353515625 L 11.258209228515625,6.111572265625 L 10.769683837890625,6.289276123046875 L 10.28619384765625,6.532470703125 L 9.968719482421875,6.9769134521484375 L 9.66802978515625,7.4197540283203125 L 9.367340087890625,7.8657989501953125 L 9.066650390625,8.311843872070312 L 8.767623901367188,8.757888793945312 L 8.570892333984375,9.2518310546875 L 8.46807861328125,9.751815795898438 L 8.455810546875,10.251800537109375 L 8.50836181640625,10.751785278320312 L 8.5609130859375,11.25177001953125 L 8.61346435546875,11.751754760742188 L 8.664352416992188,12.251739501953125 L 8.711883544921875,12.751724243164062 L 8.764434814453125,13.251708984375 L 8.996414184570312,13.739273071289062 L 9.298828125,14.1837158203125 L 9.693496704101562,14.538711547851562 L 10.125045776367188,14.845794677734375 L 10.559951782226562,15.133712768554688 L 10.996536254882812,15.421630859375 L 11.433120727539062,15.711151123046875 L 11.869705200195312,16.00067138671875 M 8.472549438476562,11.613067626953125 L 8.472549438476562,11.613067626953125 L 8.044387817382812,11.470489501953125 L 7.544403076171875,11.34228515625 L 7.0444183349609375,11.488052368164062 L 6.5558929443359375,11.668960571289062 L 6.0707244873046875,11.851455688476562 L 5.704620361328125,12.243194580078125 L 5.4743499755859375,12.694015502929688 L 5.5705108642578125,13.191162109375 L 5.918212890625,13.595672607421875 L 6.3128814697265625,13.929916381835938 L 6.7192840576171875,14.25457763671875 L 7.1776580810546875,14.4849853515625 L 7.6776580810546875,14.458999633789062 L 8.152816772460938,14.284469604492188 L 8.626296997070312,14.101959228515625 L 9.099777221679688,13.919448852539062 M 8.794113159179688,13.035324096679688 L 8.794113159179688,13.035324096679688 L 8.29412841796875,13.174697875976562 L 7.7941436767578125,13.314071655273438 L 7.294158935546875,13.43267822265625 L 6.7941741943359375,13.458663940429688 L 6.294189453125,13.371978759765625" fill="none" stroke="#000000" stroke-width="0.010068405151367187"/>
</svg>
