<?xml version="1.0" ?>
<svg baseProfile="full" height="600px" version="1.1" viewBox="9.209412223815917 7.680695182800293 3.7460467681884766 7.765028701782227" width="290px" xmlns="http://www.w3.org/2000/svg" xmlns:ev="http://www.w3.org/2001/xml-events" xmlns:xlink="http://www.w3.org/1999/xlink">
	<defs/>
	<path d="M 11.134033203125,8.330474853515625 L 11.134033203125,8.330474853515625 L 10.634048461914062,8.3548583984375 M 10.955490112304688,8.80523681640625 L 10.955490112304688,8.80523681640625 L 10.793975830078125,9.303985595703125 L 10.733078002929688,9.803970336914062 L 10.795700073242188,10.303955078125 L 10.856643676757812,10.803939819335938 L 10.92596435546875,11.303924560546875 L 11.204910278320312,11.751556396484375 L 10.977996826171875,12.210357666015625 L 10.719223022460938,12.659576416015625 L 11.05853271484375,13.060897827148438 L 11.401199340820312,13.457427978515625 L 11.775726318359375,13.831588745117188 L 12.255905151367188,13.970962524414062 L 12.620376586914062,13.968917846679688 M 12.604812622070312,13.845138549804688 L 12.604812622070312,13.845138549804688 L 12.640594482421875,14.345123291015625 L 12.59814453125,14.795944213867188 M 10.293533325195312,9.152297973632812 L 10.293533325195312,9.152297973632812 L 9.793548583984375,9.152297973632812 L 9.941680908203125,9.194244384765625 L 10.388320922851562,9.332015991210938 L 10.782989501953125,9.717361450195312 M 10.22857666015625,10.6214599609375 L 10.22857666015625,10.6214599609375 L 9.729995727539062,10.783187866210938 L 10.200103759765625,10.95770263671875 L 10.670211791992188,11.132217407226562 M 10.524246215820312,11.65380859375 L 10.524246215820312,11.65380859375 L 10.024261474609375,11.65380859375 L 9.524276733398438,11.88421630859375 L 9.920608520507812,12.2264404296875 L 10.318618774414062,12.562271118164062 L 10.721664428710938,12.890106201171875" fill="none" stroke="#000000" stroke-width="0.0064654693603515626"/>
</svg>
