<?xml version="1.0" ?>
<svg baseProfile="full" height="600px" version="1.1" viewBox="8.676664039611817 6.09408194732666 2.839146286010742 9.571403366088868" width="178px" xmlns="http://www.w3.org/2000/svg" xmlns:ev="http://www.w3.org/2001/xml-events" xmlns:xlink="http://www.w3.org/1999/xlink">
	<defs/>
	<path d="M 10.085006713867188,7.487396240234375 L 10.085006713867188,7.487396240234375 L 10.139236450195312,7.8519744873046875 L 10.218612670898438,7.9865570068359375 L 10.2996826171875,8.135513305664062 L 10.404220581054688,8.397872924804688 L 10.51043701171875,8.673004150390625 L 10.616653442382812,8.948135375976562 L 10.722869873046875,9.2232666015625 L 10.830764770507812,9.498397827148438 L 10.93865966796875,9.771942138671875 L 10.950973510742188,10.047073364257812 L 10.956573486328125,10.32220458984375 L 10.9241943359375,10.59893798828125 L 10.772735595703125,10.7894287109375 L 10.830322265625,10.928802490234375 L 10.887908935546875,11.074569702148438 L 10.9488525390625,11.365692138671875 L 11.086929321289062,11.615264892578125 L 11.214950561523438,11.882415771484375 L 11.275894165039062,12.197479248046875 L 11.0892333984375,12.530120849609375 L 10.84722900390625,12.865951538085938 L 10.580062866210938,13.23052978515625 L 10.292770385742188,13.59991455078125 L 10.000457763671875,13.975677490234375 L 9.768508911132812,14.416915893554688 L 9.658981323242188,14.864547729492188 L 9.655105590820312,14.712387084960938 L 9.651229858398438,14.529876708984375 L 9.637283325195312,14.294662475585938 L 9.606582641601562,14.021102905273438 L 9.567474365234375,13.741165161132812 L 9.543472290039062,13.434066772460938 L 9.521148681640625,13.1253662109375 L 9.493789672851562,12.816665649414062 L 9.436248779296875,12.458465576171875 L 9.350189208984375,12.077911376953125 L 9.257431030273438,11.697357177734375 L 9.1646728515625,11.318389892578125 L 9.071914672851562,10.937835693359375 L 8.97412109375,10.557281494140625 L 8.916580200195312,10.139984130859375 L 8.964111328125,9.649215698242188 L 9.05523681640625,9.163238525390625 L 9.161453247070312,8.674072265625 L 9.408538818359375,8.199264526367188 L 9.74114990234375,7.8091278076171875 L 10.0687255859375,7.39501953125 L 10.16656494140625,6.89501953125 M 10.167129516601562,7.0535736083984375 L 10.167129516601562,7.0535736083984375 L 10.1727294921875,7.553558349609375 L 10.248748779296875,8.053543090820312 L 10.321426391601562,8.55352783203125 L 10.166610717773438,9.053512573242188 L 10.008453369140625,9.553497314453125 L 10.035858154296875,9.96600341796875 L 10.137039184570312,10.372100830078125 L 10.2734375,10.779800415039062 L 10.408157348632812,11.1875 L 10.3841552734375,11.60638427734375 L 10.299774169921875,12.041244506835938 L 10.217071533203125,12.487289428710938 L 10.134368896484375,12.933334350585938 L 10.051666259765625,13.380966186523438 L 9.774444580078125,13.828598022460938 L 9.61962890625,14.274642944335938 L 9.675537109375,14.720687866210938" fill="none" stroke="#000000" stroke-width="0.007969528198242188"/>
</svg>
