<?xml version="1.0" ?>
<svg baseProfile="full" height="600px" version="1.1" viewBox="6.932693534851074 8.730249076843261 4.846298110961914 7.113949478149414" width="409px" xmlns="http://www.w3.org/2000/svg" xmlns:ev="http://www.w3.org/2001/xml-events" xmlns:xlink="http://www.w3.org/1999/xlink">
	<defs/>
	<path d="M 11.281524658203125,14.94342041015625 L 11.281524658203125,14.94342041015625 L 10.850021362304688,15.2489013671875 M 10.97222900390625,14.791229248046875 L 10.97222900390625,14.791229248046875 L 10.539047241210938,14.482528686523438 L 10.359085083007812,14.017303466796875 L 10.308242797851562,13.534515380859375 L 10.262435913085938,13.050140380859375 L 10.216629028320312,12.565765380859375 L 10.21441650390625,12.082977294921875 L 10.21441650390625,11.600189208984375 L 10.313919067382812,11.117401123046875 L 10.569381713867188,10.671356201171875 L 10.831558227539062,10.231689453125 L 11.10211181640625,9.801605224609375 L 11.372665405273438,9.369918823242188 M 11.217391967773438,9.509658813476562 L 11.217391967773438,9.509658813476562 L 10.7174072265625,9.325546264648438 M 10.954574584960938,9.889007568359375 L 10.954574584960938,9.889007568359375 L 10.568344116210938,10.277542114257812 L 10.1116943359375,10.514358520507812 L 9.611709594726562,10.642547607421875 L 9.111724853515625,10.788314819335938 L 8.611740112304688,10.966018676757812 L 8.136627197265625,11.20123291015625 L 7.686676025390625,11.485946655273438 L 7.339019775390625,11.884063720703125 L 7.63641357421875,12.328506469726562 L 8.093109130859375,12.60205078125 L 8.593109130859375,12.6695556640625 L 9.093109130859375,12.737060546875 L 9.593109130859375,12.866851806640625 L 10.071609497070312,13.098861694335938 L 10.449493408203125,13.471420288085938 L 10.748565673828125,13.91107177734375" fill="none" stroke="#000000" stroke-width="0.005923355102539062"/>
</svg>
