<?xml version="1.0" ?>
<svg baseProfile="full" height="600px" version="1.1" viewBox="9.348121963500976 6.610618911743164 3.1047814636230466 9.114486053466797" width="205px" xmlns="http://www.w3.org/2000/svg" xmlns:ev="http://www.w3.org/2001/xml-events" xmlns:xlink="http://www.w3.org/1999/xlink">
	<defs/>
	<path d="M 11.579696655273438,7.373321533203125 L 11.579696655273438,7.373321533203125 L 11.336013793945312,7.5190887451171875 L 11.156051635742188,7.792633056640625 L 11.053237915039062,8.117294311523438 L 10.947067260742188,8.517013549804688 L 10.966079711914062,9.016998291015625 L 11.099136352539062,9.516983032226562 L 11.237213134765625,10.0169677734375 L 11.375289916992188,10.516952514648438 L 11.195327758789062,11.016937255859375 L 10.958343505859375,11.516921997070312 L 10.783416748046875,12.01690673828125 L 10.851058959960938,12.516891479492188 L 10.9891357421875,13.016876220703125 L 11.17919921875,13.516860961914062 L 11.439697265625,13.988449096679688 L 11.713607788085938,14.4456787109375 L 12.046218872070312,14.862960815429688 L 12.191009521484375,14.96240234375 M 12.057998657226562,14.875717163085938 L 12.057998657226562,14.875717163085938 L 11.891448974609375,14.731536865234375 L 11.662841796875,14.54742431640625 L 11.409103393554688,14.363311767578125 L 11.170440673828125,14.128097534179688 L 10.92340087890625,13.838577270507812 L 10.631088256835938,13.549057006835938 L 10.33709716796875,13.22918701171875 L 10.140365600585938,12.738418579101562 L 9.946975708007812,12.247650146484375 L 9.751922607421875,11.756881713867188 L 9.615570068359375,11.256881713867188 L 9.610015869140625,10.756881713867188 L 9.724609375,10.256881713867188 L 9.897903442382812,9.756881713867188 L 10.161758422851562,9.272506713867188 L 10.427276611328125,8.788131713867188 L 10.712936401367188,8.32611083984375 L 11.005294799804688,7.865692138671875 L 11.337905883789062,7.43560791015625" fill="none" stroke="#000000" stroke-width="0.007589080810546875"/>
</svg>
