<?xml version="1.0" ?>
<svg baseProfile="full" height="600px" version="1.1" viewBox="11.046974670410156 6.89355517578125 3.754546142578125 8.07684228515625" width="279px" xmlns="http://www.w3.org/2000/svg" xmlns:ev="http://www.w3.org/2001/xml-events" xmlns:xlink="http://www.w3.org/1999/xlink">
	<defs/>
	<path d="M 13.620956420898438,7.7506256103515625 L 13.620956420898438,7.7506256103515625 L 13.1209716796875,7.8995819091796875 L 12.627426147460938,8.131591796875 L 12.200942993164062,8.462631225585938 L 11.922042846679688,8.918258666992188 L 11.765548706054688,9.418243408203125 L 11.642608642578125,9.918228149414062 L 11.519668579101562,10.418212890625 L 11.423553466796875,10.918197631835938 L 11.362655639648438,11.418182373046875 L 11.410186767578125,11.918167114257812 L 11.558319091796875,12.4105224609375 L 11.75006103515625,12.888504028320312 L 11.951873779296875,13.342529296875 L 12.24591064453125,13.745437622070312 L 12.63720703125,14.0301513671875 L 13.075469970703125,14.217437744140625 L 13.53887939453125,14.294525146484375 L 14.012359619140625,14.239776611328125 L 14.48583984375,14.1483154296875 M 14.30755615234375,14.1483154296875 L 14.30755615234375,14.1483154296875 L 13.881072998046875,14.211029052734375 L 13.381088256835938,14.214645385742188 L 12.957977294921875,13.899566650390625 L 12.726028442382812,13.431167602539062 L 12.56451416015625,12.938796997070312 L 12.480133056640625,12.441635131835938 L 12.397430419921875,11.944473266601562 L 12.318084716796875,11.447311401367188 L 12.245437622070312,10.94854736328125 L 12.234848022460938,10.44854736328125 L 12.418197631835938,9.960968017578125 L 12.608261108398438,9.478179931640625 L 12.8167724609375,9.000198364257812 L 13.023605346679688,8.522216796875 L 13.23211669921875,8.045822143554688 L 13.440628051757812,7.569427490234375" fill="none" stroke="#000000" stroke-width="0.00672509765625"/>
</svg>
