<?xml version="1.0" ?>
<svg baseProfile="full" height="600px" version="1.1" viewBox="6.31135774230957 5.115936904907226 5.051616180419922 12.064207733154298" width="252px" xmlns="http://www.w3.org/2000/svg" xmlns:ev="http://www.w3.org/2001/xml-events" xmlns:xlink="http://www.w3.org/1999/xlink">
	<defs/>
	<path d="M 8.45806884765625,6.500732421875 L 8.45806884765625,6.500732421875 L 8.943283081054688,6.678436279296875 L 9.43017578125,6.8960723876953125 L 9.8701171875,7.222320556640625 L 10.207748413085938,7.660369873046875 L 10.485015869140625,8.111190795898438 L 10.742156982421875,8.574798583984375 L 10.890289306640625,9.070343017578125 L 10.937820434570312,9.567489624023438 L 10.918853759765625,10.06463623046875 L 10.87640380859375,10.561782836914062 L 10.83563232421875,11.058929443359375 L 10.786468505859375,11.556076049804688 L 10.745697021484375,12.05322265625 L 10.704925537109375,12.550369262695312 L 10.664154052734375,13.047515869140625 L 10.623382568359375,13.544662475585938 L 10.431671142578125,14.029022216796875 L 10.154449462890625,14.478240966796875 L 9.862136840820312,14.922683715820312 L 9.475906372070312,15.306427001953125 L 9.037689208984375,15.61669921875 L 8.569290161132812,15.86468505859375 L 8.0723876953125,16.067962646484375 L 7.5724029541015625,16.170608520507812 L 7.072418212890625,16.111083984375 L 6.73651123046875,15.695388793945312 L 6.812530517578125,15.195388793945312 L 7.143463134765625,14.778091430664062 L 7.5179901123046875,14.41668701171875 L 7.894195556640625,14.056884765625 L 8.238540649414062,13.671524047851562 L 8.351455688476562,13.182357788085938 L 8.449295043945312,12.69158935546875 L 8.545455932617188,12.200820922851562 L 8.643295288085938,11.710052490234375 L 8.704238891601562,11.216094970703125 L 8.761825561523438,10.723724365234375 L 8.821090698242188,10.229766845703125 L 8.871978759765625,9.735809326171875 L 8.849655151367188,9.243438720703125 L 8.7032470703125,8.752670288085938 L 8.395828247070312,8.362533569335938 L 8.083389282226562,7.9723968505859375 L 7.72064208984375,7.6125946044921875 L 7.344482421875,7.2687530517578125 L 7.1578216552734375,6.787567138671875 L 7.3428497314453125,6.293609619140625 L 7.8428497314453125,6.1254730224609375 L 8.342849731445312,6.314361572265625 L 8.693893432617188,6.7108917236328125 L 9.147247314453125,6.974853515625 M 9.620498657226562,7.5007171630859375 L 9.620498657226562,7.5007171630859375 L 9.120513916015625,7.632110595703125 L 8.620529174804688,7.70599365234375 L 8.12054443359375,7.779876708984375 M 10.009719848632812,9.482223510742188 L 10.009719848632812,9.482223510742188 L 9.509735107421875,9.663131713867188 L 9.009750366210938,9.794525146484375 M 10.068511962890625,11.605819702148438 L 10.068511962890625,11.605819702148438 L 9.672225952148438,11.555877685546875 L 9.1722412109375,11.545852661132812 L 8.672256469726562,11.545852661132812 M 9.609786987304688,13.73858642578125 L 9.609786987304688,13.73858642578125 L 9.10980224609375,13.667877197265625 L 8.609817504882812,13.59716796875 L 8.109832763671875,13.526458740234375 M 8.752166748046875,15.374923706054688 L 8.752166748046875,15.374923706054688 L 8.252182006835938,15.326583862304688 L 7.752197265625,15.276641845703125 L 7.2522125244140625,15.226699829101562 L 6.752227783203125,15.175155639648438" fill="none" stroke="#000000" stroke-width="0.010045135498046875"/>
</svg>
