<?xml version="1.0" ?>
<svg baseProfile="full" height="600px" version="1.1" viewBox="17.740930084228516 2.6839919128417966 6.561612121582032 18.351681701660155" width="215px" xmlns="http://www.w3.org/2000/svg" xmlns:ev="http://www.w3.org/2001/xml-events" xmlns:xlink="http://www.w3.org/1999/xlink">
	<defs/>
	<path d="M 20.904434204101562,6.0695648193359375 L 20.904434204101562,6.0695648193359375 L 21.141464233398438,6.5587310791015625 L 21.475753784179688,7.0015716552734375 L 21.8536376953125,7.378936767578125 L 22.233200073242188,7.7563018798828125 L 22.612762451171875,8.1336669921875 L 22.992324829101562,8.511032104492188 L 23.19915771484375,8.993804931640625 L 23.233261108398438,9.4925537109375 L 23.260665893554688,9.989700317382812 L 23.286392211914062,10.488449096679688 L 23.312118530273438,10.987197875976562 L 23.205947875976562,11.485946655273438 L 23.025985717773438,11.968719482421875 L 22.892974853515625,12.46746826171875 L 22.980743408203125,12.966217041015625 L 23.160751342773438,13.45538330078125 L 23.42626953125,13.90142822265625 L 23.691787719726562,14.34747314453125 L 23.749374389648438,14.847457885742188 L 23.6884765625,15.347442626953125 L 23.553802490234375,15.84619140625 L 23.367141723632812,16.335357666015625 L 23.037933349609375,16.771804809570312 L 22.676864624023438,17.171524047851562 L 22.3157958984375,17.571243286132812 L 21.954727172851562,17.970962524414062 L 21.590301513671875,18.370681762695312 L 21.225875854492188,18.770401000976562 L 20.863128662109375,19.170120239257812 M 20.62518310546875,18.896575927734375 L 20.62518310546875,18.896575927734375 L 20.495529174804688,18.396575927734375 L 20.36419677734375,17.8994140625 L 20.234542846679688,17.403854370117188 L 20.098190307617188,16.914688110351562 L 19.91656494140625,16.449462890625 L 19.679580688476562,16.011398315429688 L 19.424163818359375,15.582916259765625 L 19.167068481445312,15.15924072265625 L 18.908294677734375,14.73236083984375 L 18.667953491210938,14.271942138671875 L 18.432647705078125,13.805145263671875 L 18.324798583984375,13.319168090820312 L 18.294097900390625,12.83319091796875 L 18.294097900390625,12.345611572265625 L 18.294662475585938,11.859634399414062 L 18.29522705078125,11.3736572265625 L 18.334365844726562,10.886077880859375 L 18.40704345703125,10.400100708007812 L 18.496490478515625,9.91412353515625 L 18.606063842773438,9.428146362304688 L 18.749176025390625,8.943771362304688 L 18.93756103515625,8.467376708984375 L 19.1309814453125,7.994171142578125 L 19.326065063476562,7.524169921875 L 19.5228271484375,7.0557708740234375 L 19.719589233398438,6.587371826171875 L 19.916351318359375,6.1189727783203125 L 20.116485595703125,5.6521759033203125 L 20.370269775390625,5.2125091552734375 L 20.66766357421875,4.7952117919921875 L 21.05224609375,4.48333740234375 M 20.881866455078125,5.71966552734375 L 20.881866455078125,5.71966552734375 L 20.81427001953125,5.21966552734375 L 20.780197143554688,4.71966552734375 L 20.780197143554688,4.21966552734375 M 20.552276611328125,4.8433990478515625 L 20.552276611328125,4.8433990478515625 L 20.50311279296875,5.236724853515625 L 20.472412109375,5.7367095947265625 L 20.72955322265625,6.1987152099609375 L 20.985015869140625,6.6607208251953125 L 21.0811767578125,7.16070556640625 L 20.99847412109375,7.6606903076171875 L 20.915771484375,8.160675048828125 L 20.802886962890625,8.660659790039062 L 20.684967041015625,9.16064453125 L 20.567047119140625,9.660629272460938 L 20.4508056640625,10.160614013671875 L 20.334564208984375,10.660598754882812 L 20.21832275390625,11.16058349609375 L 20.1876220703125,11.660568237304688 L 20.211669921875,12.160552978515625 L 20.250808715820312,12.660537719726562 L 20.3167724609375,13.1605224609375 L 20.498458862304688,13.644882202148438 L 20.680145263671875,14.129241943359375 L 20.861831665039062,14.613601684570312 L 21.03680419921875,15.099563598632812 L 21.183258056640625,15.585525512695312 L 21.274383544921875,16.081069946289062 L 21.303451538085938,16.578216552734375 L 21.249267578125,17.078201293945312 L 21.185028076171875,17.57818603515625 L 21.098968505859375,18.078170776367188 L 21.012908935546875,18.578155517578125 L 20.90338134765625,19.078140258789062 L 20.614425659179688,19.5" fill="none" stroke="#000000" stroke-width="0.01528033447265625"/>
</svg>
