<?xml version="1.0" ?>
<svg baseProfile="full" height="600px" version="1.1" viewBox="6.67313794708252 5.987803169250489 6.736731918334961 9.970392807006835" width="406px" xmlns="http://www.w3.org/2000/svg" xmlns:ev="http://www.w3.org/2001/xml-events" xmlns:xlink="http://www.w3.org/1999/xlink">
	<defs/>
	<path d="M 12.014663696289062,8.414047241210938 L 12.014663696289062,8.414047241210938 L 12.214797973632812,8.644454956054688 L 12.356231689453125,8.957931518554688 L 12.469146728515625,9.2841796875 L 12.546844482421875,9.667922973632812 L 12.621200561523438,10.03887939453125 L 12.695556640625,10.425827026367188 L 12.7196044921875,10.815963745117188 L 12.726882934570312,11.204498291015625 L 12.73248291015625,11.596237182617188 L 12.736419677734375,11.986373901367188 L 12.6553955078125,12.382904052734375 L 12.510650634765625,12.827346801757812 L 12.36590576171875,13.27178955078125 L 12.1876220703125,13.716232299804688 L 11.861770629882812,14.160675048828125 L 11.453750610351562,14.534835815429688 L 11.042373657226562,14.894622802734375 L 10.560562133789062,15.078720092773438 L 10.060577392578125,15.123870849609375 L 9.57708740234375,14.895034790039062 L 9.138870239257812,14.587936401367188 L 8.693954467773438,14.284042358398438 L 8.324493408203125,13.900283813476562 L 8.027145385742188,13.465423583984375 L 7.753265380859375,13.012985229492188 L 7.5380859375,12.530197143554688 L 7.42352294921875,12.030197143554688 L 7.310638427734375,11.530197143554688 L 7.2379913330078125,11.030197143554688 L 7.270416259765625,10.530197143554688 L 7.287750244140625,10.030197143554688 L 7.25872802734375,9.530197143554688 L 7.312957763671875,9.030197143554688 L 7.4862518310546875,8.530197143554688 L 7.666259765625,8.030197143554688 L 8.008926391601562,7.628875732421875 L 8.447189331054688,7.33135986328125 L 8.885452270507812,7.033843994140625 L 9.362289428710938,6.8672943115234375 L 9.862289428710938,6.8221282958984375 L 10.362289428710938,7.001434326171875 L 10.800552368164062,7.3324737548828125 L 11.24383544921875,7.601226806640625 L 11.74383544921875,7.6192169189453125 L 12.193832397460938,7.935882568359375 L 12.352020263671875,8.435867309570312 L 12.294479370117188,8.93585205078125 L 12.257049560546875,9.435836791992188 M 8.979354858398438,7.331390380859375 L 8.979354858398438,7.331390380859375 L 8.97991943359375,7.692779541015625 L 8.980484008789062,8.079727172851562 L 8.981048583984375,8.4666748046875 L 8.981613159179688,8.853622436523438 L 8.981613159179688,9.240570068359375 L 8.981613159179688,9.627517700195312 L 8.981613159179688,10.01446533203125 L 8.981613159179688,10.402999877929688 L 8.981613159179688,10.791534423828125 L 8.981613159179688,11.180068969726562 L 8.981613159179688,11.568603515625 L 8.982177734375,11.955551147460938 L 8.982742309570312,12.342498779296875 L 8.982742309570312,12.72784423828125 L 8.982742309570312,13.114791870117188 L 8.982742309570312,13.501739501953125 L 8.983306884765625,13.888687133789062 L 8.983871459960938,14.275634765625 L 8.983871459960938,14.593887329101562 M 11.02154541015625,7.5839385986328125 L 11.02154541015625,7.5839385986328125 L 11.050613403320312,7.74566650390625 L 11.079681396484375,8.129409790039062 L 11.108749389648438,8.577041625976562 L 11.131118774414062,9.0770263671875 L 11.153488159179688,9.577011108398438 L 11.172500610351562,10.076995849609375 L 11.193191528320312,10.576980590820312 L 11.232330322265625,11.07696533203125 L 11.2513427734375,11.576950073242188 L 11.27203369140625,12.076934814453125 L 11.292724609375,12.576919555664062 L 11.31341552734375,13.076904296875 L 11.3341064453125,13.576889038085938 L 11.35479736328125,14.076873779296875 L 11.373809814453125,14.576858520507812 M 9.017318725585938,12.929580688476562 L 9.017318725585938,12.929580688476562 L 8.8289794921875,12.953964233398438 L 8.633926391601562,12.978347778320312 L 8.435516357421875,13.002731323242188 L 8.237106323242188,13.027114868164062 L 8.0386962890625,13.0531005859375 L 7.8386077880859375,13.075881958007812 M 7.567169189453125,11.904983520507812 L 7.567169189453125,11.904983520507812 L 7.3821868896484375,11.877395629882812 L 7.5336761474609375,11.877395629882812 L 7.7891387939453125,11.877395629882812 L 8.068084716796875,11.870574951171875 L 8.347030639648438,11.854171752929688 L 8.624298095703125,11.82818603515625 L 8.901565551757812,11.802200317382812 L 9.121810913085938,11.774612426757812 M 9.009613037109375,10.572219848632812 L 9.009613037109375,10.572219848632812 L 8.668670654296875,10.595001220703125 L 8.168685913085938,10.649734497070312 L 7.700286865234375,10.710845947265625 L 7.2419586181640625,10.7735595703125 M 7.327545166015625,9.341018676757812 L 7.327545166015625,9.341018676757812 L 7.6014556884765625,9.29107666015625 L 7.883758544921875,9.241134643554688 L 8.164382934570312,9.170425415039062 L 8.446685791015625,9.104507446289062 L 8.727310180664062,9.040191650390625 L 8.9945068359375,8.975875854492188 M 8.99908447265625,7.9514923095703125 L 8.99908447265625,7.9514923095703125 L 8.762100219726562,7.8664093017578125 L 8.520095825195312,7.77972412109375 L 8.2847900390625,7.69464111328125 L 8.049484252929688,7.60955810546875 L 7.849395751953125,7.5228729248046875 M 11.453353881835938,8.420944213867188 L 11.453353881835938,8.420944213867188 L 11.6685791015625,8.420944213867188 L 12.048141479492188,8.420944213867188 L 12.427703857421875,8.420944213867188 M 12.324920654296875,9.3873291015625 L 12.324920654296875,9.3873291015625 L 11.916900634765625,9.437255859375 L 11.488739013671875,9.491989135742188 L 11.115936279296875,9.545120239257812 M 11.5682373046875,10.44195556640625 L 11.5682373046875,10.44195556640625 L 11.922653198242188,10.459945678710938 L 12.362594604492188,10.459945678710938 L 12.515762329101562,10.459945678710938 L 12.845016479492188,10.459503173828125 M 12.452178955078125,11.543243408203125 L 12.452178955078125,11.543243408203125 L 12.22357177734375,11.494903564453125 L 11.986587524414062,11.446563720703125 L 11.736190795898438,11.451766967773438 L 11.489151000976562,11.535232543945312 L 11.242111206054688,11.621902465820312 M 11.549591064453125,12.570724487304688 L 11.549591064453125,12.570724487304688 L 11.748046875,12.636627197265625 L 11.971649169921875,12.7169189453125 L 12.203628540039062,12.782821655273438 L 12.43560791015625,12.84393310546875 L 12.667587280273438,12.908233642578125 M 12.141799926757812,13.466812133789062 L 12.141799926757812,13.466812133789062 L 11.970230102539062,13.43603515625 L 11.714813232421875,13.419631958007812 L 11.53485107421875,13.44879150390625 L 11.175445556640625,13.500320434570312" fill="none" stroke="#000000" stroke-width="0.008301742553710937"/>
</svg>
