<?xml version="1.0" ?>
<svg baseProfile="full" height="600px" version="1.1" viewBox="10.08321678161621 8.288358993530274 2.232736358642578 7.3708222961425784" width="182px" xmlns="http://www.w3.org/2000/svg" xmlns:ev="http://www.w3.org/2001/xml-events" xmlns:xlink="http://www.w3.org/1999/xlink">
	<defs/>
	<path d="M 11.348785400390625,8.9051513671875 L 11.348785400390625,8.9051513671875 L 11.496917724609375,8.929534912109375 L 11.69873046875,8.961898803710938 L 11.895492553710938,8.997467041015625 L 11.85638427734375,9.14642333984375 L 11.778717041015625,9.392822265625 L 11.6943359375,9.664764404296875 L 11.609954833984375,9.93670654296875 L 11.52557373046875,10.208648681640625 L 11.437850952148438,10.514129638671875 L 11.34844970703125,10.904266357421875 L 11.284210205078125,11.297592163085938 L 11.224990844726562,11.69091796875 L 11.24066162109375,12.084243774414062 L 11.289871215820312,12.506332397460938 L 11.386032104492188,12.931594848632812 L 11.529144287109375,13.360061645507812 L 11.68231201171875,13.785324096679688 L 11.83380126953125,14.210586547851562 L 11.923248291015625,14.658218383789062 L 11.7818603515625,14.783233642578125 L 11.40234375,15.042388916015625 M 11.038009643554688,13.793609619140625 L 11.038009643554688,13.793609619140625 L 10.98382568359375,13.611099243164062 L 10.803863525390625,13.383865356445312 L 10.607131958007812,13.150238037109375 L 10.42047119140625,12.772857666015625 L 10.33441162109375,12.357162475585938 L 10.271835327148438,11.901535034179688 L 10.364639282226562,11.401535034179688 L 10.559722900390625,10.901535034179688 M 11.95672607421875,11.468597412109375 L 11.95672607421875,11.468597412109375 L 11.857269287109375,11.668670654296875 L 11.787994384765625,11.927825927734375 L 11.753921508789062,12.239700317382812 L 11.903732299804688,12.554763793945312 L 12.127334594726562,12.82989501953125" fill="none" stroke="#000000" stroke-width="0.0061372375488281256"/>
</svg>
