<?xml version="1.0" ?>
<svg baseProfile="full" height="600px" version="1.1" viewBox="8.099075782775879 3.680788124084472 6.021941207885742 15.575816940307618" width="232px" xmlns="http://www.w3.org/2000/svg" xmlns:ev="http://www.w3.org/2001/xml-events" xmlns:xlink="http://www.w3.org/1999/xlink">
	<defs/>
	<path d="M 13.328094482421875,16.894638061523438 L 13.328094482421875,16.894638061523438 L 13.365554809570312,16.458175659179688 L 13.404693603515625,16.010528564453125 L 13.3907470703125,15.510528564453125 L 13.375137329101562,15.010528564453125 L 13.359527587890625,14.510528564453125 L 13.343917846679688,14.010528564453125 L 13.32830810546875,13.510528564453125 L 13.312698364257812,13.010528564453125 L 13.297088623046875,12.510528564453125 L 13.28314208984375,12.010528564453125 L 13.269195556640625,11.510528564453125 L 13.2552490234375,11.010528564453125 L 13.239639282226562,10.510528564453125 L 13.224029541015625,10.010528564453125 L 13.208419799804688,9.510528564453125 L 13.19281005859375,9.010528564453125 L 13.177200317382812,8.510528564453125 L 13.161590576171875,8.010528564453125 L 13.14764404296875,7.510528564453125 L 13.132034301757812,7.010528564453125 L 13.116424560546875,6.510528564453125 L 13.100814819335938,6.010528564453125 L 13.085205078125,5.510528564453125 L 12.69561767578125,5.150726318359375 L 12.195632934570312,4.9841766357421875 L 11.695648193359375,5.1443023681640625 L 11.195663452148438,5.3044281005859375 L 10.6956787109375,5.3687286376953125 L 10.195693969726562,5.2980194091796875 L 9.695709228515625,5.52044677734375 L 9.2088623046875,5.73968505859375 L 9.03729248046875,6.2396697998046875 L 8.981430053710938,6.739654541015625 L 8.930587768554688,7.2396392822265625 L 8.986495971679688,7.7396240234375 L 9.030670166015625,8.239608764648438 L 9.133529663085938,8.738357543945312 L 9.238067626953125,9.237106323242188 L 9.293975830078125,9.735855102539062 L 9.29791259765625,10.234603881835938 L 9.298477172851562,10.734588623046875 L 9.299041748046875,11.23333740234375 L 9.299606323242188,11.732086181640625 L 9.3001708984375,12.2308349609375 L 9.300735473632812,12.729583740234375 L 9.301300048828125,13.22833251953125 L 9.301864624023438,13.727081298828125 L 9.301864624023438,14.225830078125 L 9.301864624023438,14.725814819335938 L 9.30242919921875,15.225799560546875 L 9.302993774414062,15.725784301757812 L 9.303558349609375,16.224533081054688 L 9.303558349609375,16.723281860351562 L 9.303558349609375,17.222030639648438 L 9.303558349609375,17.720779418945312 L 9.76361083984375,17.885711669921875 L 10.225341796875,17.953216552734375 L 10.68707275390625,17.904876708984375 L 11.1488037109375,17.802230834960938 L 11.61053466796875,17.715545654296875 L 12.077285766601562,17.717575073242188 L 12.547393798828125,17.780288696289062 L 13.019195556640625,17.822235107421875 L 13.490997314453125,17.636520385742188 L 13.528457641601562,17.144149780273438 L 13.184158325195312,16.771575927734375 M 13.154052734375,15.852325439453125 L 13.154052734375,15.852325439453125 L 12.654067993164062,15.993301391601562 L 12.154083251953125,16.103927612304688 L 11.654098510742188,16.109130859375 L 11.15411376953125,15.95697021484375 L 10.654129028320312,15.963775634765625 L 10.154144287109375,15.975372314453125 L 9.654159545898438,15.986968994140625 L 9.1541748046875,15.998565673828125 M 9.441116333007812,12.565536499023438 L 9.441116333007812,12.565536499023438 L 9.896133422851562,12.794357299804688 L 10.38134765625,12.8538818359375 L 10.8212890625,12.625045776367188 L 11.301467895507812,12.54156494140625 L 11.788360595703125,12.490020751953125 L 12.288360595703125,12.478408813476562 L 12.788360595703125,12.531539916992188 L 13.288360595703125,12.568710327148438 M 13.613784790039062,14.252334594726562 L 13.613784790039062,14.252334594726562 L 13.17724609375,14.125732421875 L 12.677261352539062,14.180465698242188 L 12.177276611328125,14.332611083984375 L 11.677291870117188,14.484756469726562 L 11.17730712890625,14.52032470703125 L 10.677322387695312,14.47515869140625 L 10.177337646484375,14.378890991210938 L 9.677352905273438,14.316162109375 L 9.1773681640625,14.251846313476562 M 9.22113037109375,10.878326416015625 L 9.22113037109375,10.878326416015625 L 9.3692626953125,10.829986572265625 L 9.8692626953125,10.780044555664062 L 10.3692626953125,10.744476318359375 L 10.8692626953125,10.737655639648438 L 11.3692626953125,10.726043701171875 L 11.8692626953125,10.716018676757812 L 12.3692626953125,10.70599365234375 L 12.8692626953125,10.695968627929688 L 13.3692626953125,10.684356689453125 M 12.92108154296875,8.775146484375 L 12.92108154296875,8.775146484375 L 12.421096801757812,8.801132202148438 L 11.921112060546875,8.841476440429688 L 11.421127319335938,8.937728881835938 L 10.921142578125,9.033981323242188 L 10.421157836914062,9.1318359375 L 9.921173095703125,9.229690551757812 L 9.421188354492188,9.313156127929688 L 8.92120361328125,9.38226318359375 M 9.357955932617188,7.6542205810546875 L 9.357955932617188,7.6542205810546875 L 9.857955932617188,7.6881866455078125 L 10.336456298828125,7.5376129150390625 L 10.811614990234375,7.3950347900390625 L 11.306884765625,7.3818359375 L 11.805511474609375,7.3686370849609375 L 12.305511474609375,7.35223388671875 L 12.805511474609375,7.3358306884765625 M 13.106170654296875,5.9860382080078125 L 13.106170654296875,5.9860382080078125 L 12.606185913085938,6.0247802734375 L 12.106201171875,6.1673431396484375 L 11.606216430664062,6.3706207275390625 L 11.106231689453125,6.5483245849609375 L 10.606246948242188,6.64617919921875 L 10.10626220703125,6.718475341796875 L 9.606277465820312,6.738067626953125 L 9.106292724609375,6.7432708740234375 L 8.606307983398438,6.7013092041015625" fill="none" stroke="#000000" stroke-width="0.012969039916992187"/>
</svg>
