<?xml version="1.0" ?>
<svg baseProfile="full" height="600px" version="1.1" viewBox="4.379631851196289 4.0472527008056645 7.199812225341796 13.628791717529296" width="317px" xmlns="http://www.w3.org/2000/svg" xmlns:ev="http://www.w3.org/2001/xml-events" xmlns:xlink="http://www.w3.org/1999/xlink">
	<defs/>
	<path d="M 10.9747314453125,6.531768798828125 L 10.9747314453125,6.531768798828125 L 10.741104125976562,6.502593994140625 L 10.306243896484375,6.626007080078125 L 9.9183349609375,6.845245361328125 L 9.597503662109375,7.2801055908203125 L 9.34710693359375,7.7516937255859375 L 9.10174560546875,8.231277465820312 L 8.906692504882812,8.728424072265625 L 8.770339965820312,9.228408813476562 L 8.758071899414062,9.7283935546875 L 8.870986938476562,10.228378295898438 L 8.9923095703125,10.728363037109375 L 9.113632202148438,11.228347778320312 L 9.234954833984375,11.72833251953125 L 9.374710083007812,12.228317260742188 L 9.536270141601562,12.728302001953125 L 9.724655151367188,13.228286743164062 L 9.916397094726562,13.725433349609375 L 10.106460571289062,14.225418090820312 L 10.296524047851562,14.72540283203125 L 10.255752563476562,15.225387573242188 L 9.95672607421875,15.677810668945312 L 9.50677490234375,15.940170288085938 L 9.04339599609375,16.176986694335938 L 8.576675415039062,16.40899658203125 L 8.091506958007812,16.53558349609375 L 7.591522216796875,16.351470947265625 L 7.1583404541015625,16.00762939453125 L 6.7301788330078125,15.660614013671875 L 6.3473052978515625,15.275253295898438 L 6.0600128173828125,14.826019287109375 L 5.9420928955078125,14.326019287109375 L 5.9248046875,14.137115478515625 L 5.9756927490234375,13.637115478515625 L 6.009796142578125,13.137115478515625 L 5.98077392578125,12.637115478515625 L 5.899749755859375,12.137115478515625 L 6.0093231201171875,11.637115478515625 L 6.1591339111328125,11.137115478515625 L 6.3089447021484375,10.637115478515625 L 6.1574859619140625,10.137115478515625 L 5.860137939453125,9.678298950195312 L 5.5594482421875,9.2034912109375 L 5.2671356201171875,8.744674682617188 L 5.070404052734375,8.252304077148438 L 4.984344482421875,7.7523040771484375 L 5.13751220703125,7.2523040771484375 L 5.4013671875,6.7695159912109375 L 5.6853485107421875,6.3074951171875 L 6.0196380615234375,5.8885955810546875 L 6.367340087890625,5.5048370361328125 L 6.79217529296875,5.205718994140625 L 7.2757110595703125,5.187713623046875 L 7.757568359375,5.311126708984375 L 8.22265625,5.5431365966796875 L 8.68438720703125,5.7799530029296875 L 9.11090087890625,6.074249267578125 L 9.443511962890625,6.4707794189453125 L 9.73419189453125,6.912017822265625 L 10.021530151367188,7.3548583984375 M 8.230422973632812,9.270858764648438 L 8.230422973632812,9.270858764648438 L 8.023635864257812,9.201751708984375 L 7.6390838623046875,9.15020751953125 L 7.6631317138671875,9.308761596679688 L 7.710662841796875,9.635009765625 L 7.76824951171875,10.069869995117188 L 7.884521484375,10.512710571289062 L 8.284210205078125,10.328598022460938 L 8.774444580078125,10.194000244140625 L 9.264678955078125,10.067398071289062 M 8.76904296875,11.68792724609375 L 8.76904296875,11.68792724609375 L 8.627655029296875,11.816116333007812 L 8.410797119140625,12.044937133789062 L 8.16375732421875,12.275344848632812 L 7.9921875,12.456253051757812 L 8.095046997070312,12.566879272460938 L 8.228103637695312,12.765350341796875 L 8.500335693359375,13.212982177734375 L 8.898345947265625,13.416259765625 L 9.199081420898438,12.975006103515625 L 9.243255615234375,12.475006103515625 M 9.155654907226562,7.4506378173828125 L 9.155654907226562,7.4506378173828125 L 8.925384521484375,7.320831298828125 L 8.61126708984375,7.1383209228515625 L 8.426284790039062,7.1786651611328125 L 8.301666259765625,7.3563690185546875 L 8.173690795898438,7.8375396728515625 L 8.273193359375,8.154205322265625 L 8.42132568359375,8.531570434570312 L 8.792510986328125,8.734848022460938 L 9.282745361328125,8.819915771484375" fill="none" stroke="#000000" stroke-width="0.011347869873046874"/>
</svg>
