<?xml version="1.0" ?>
<svg baseProfile="full" height="600px" version="1.1" viewBox="6.445774513244629 6.598452430725097 4.456687057495117 10.171610153198243" width="263px" xmlns="http://www.w3.org/2000/svg" xmlns:ev="http://www.w3.org/2001/xml-events" xmlns:xlink="http://www.w3.org/1999/xlink">
	<defs/>
	<path d="M 10.1546630859375,12.14630126953125 L 10.1546630859375,12.14630126953125 L 10.259201049804688,12.349578857421875 L 10.36541748046875,12.557632446289062 L 10.474990844726562,12.764083862304688 L 10.527542114257812,12.970535278320312 L 10.50018310546875,13.184982299804688 L 10.32525634765625,13.444137573242188 L 10.059783935546875,13.77197265625 L 9.874801635742188,14.163711547851562 L 9.736770629882812,14.58099365234375 L 9.612152099609375,15.007858276367188 L 9.517715454101562,15.433120727539062 L 9.46185302734375,15.855209350585938 M 9.390899658203125,15.720611572265625 L 9.390899658203125,15.720611572265625 L 9.311553955078125,15.576431274414062 L 9.208740234375,15.4130859375 L 9.09417724609375,15.249740600585938 L 8.981292724609375,15.086395263671875 L 8.868408203125,14.918258666992188 L 8.790740966796875,14.74853515625 L 8.728164672851562,14.578811645507812 L 8.728164672851562,14.410675048828125 L 8.753890991210938,14.242538452148438 L 8.779617309570312,14.07440185546875 L 8.81036376953125,13.906265258789062 L 8.836090087890625,13.738128662109375 L 8.843368530273438,13.569992065429688 L 8.837814331054688,13.40185546875 L 8.803741455078125,13.233718872070312 L 8.769668579101562,13.065582275390625 L 8.735595703125,12.897445678710938 L 8.701522827148438,12.72930908203125 L 8.667449951171875,12.561172485351562 L 8.633377075195312,12.393035888671875 L 8.597625732421875,12.224899291992188 L 8.561874389648438,12.0567626953125 L 8.531173706054688,11.888626098632812 L 8.51220703125,11.720489501953125 L 8.51220703125,11.550765991210938 L 8.581527709960938,11.390625 L 8.687744140625,11.254440307617188 L 8.837554931640625,11.119842529296875 L 8.98736572265625,10.985244750976562 L 9.10028076171875,10.802734375 L 9.154510498046875,10.625015258789062 L 9.12548828125,10.421737670898438 L 9.057891845703125,10.212066650390625 L 8.985244750976562,9.999221801757812 L 8.954544067382812,9.802337646484375 M 9.013809204101562,9.640594482421875 L 9.013809204101562,9.640594482421875 L 9.089828491210938,9.464462280273438 L 9.185989379882812,9.2867431640625 L 9.282150268554688,9.109024047851562 M 9.38836669921875,9.216461181640625 L 9.38836669921875,9.216461181640625 L 9.496261596679688,9.339874267578125 L 9.64105224609375,9.568695068359375 L 9.814346313476562,9.8118896484375 L 9.984298706054688,10.056686401367188 L 10.154251098632812,10.301483154296875 L 10.322525024414062,10.544677734375 L 10.46563720703125,10.805435180664062 L 10.526580810546875,11.1732177734375 L 10.485809326171875,11.657577514648438 L 10.319259643554688,12.141937255859375 L 10.100738525390625,12.626296997070312 M 9.515731811523438,10.227493286132812 L 9.515731811523438,10.227493286132812 L 9.513519287109375,10.411590576171875 L 9.511306762695312,10.64520263671875 L 9.507431030273438,10.878814697265625 L 9.501876831054688,11.1124267578125 L 9.496322631835938,11.346038818359375 L 9.490768432617188,11.57965087890625 L 9.485214233398438,11.813262939453125 L 9.479660034179688,12.046875 L 9.474105834960938,12.280487060546875 L 9.468551635742188,12.518890380859375 L 9.462997436523438,12.757293701171875 L 9.457443237304688,13.00048828125 L 9.451889038085938,13.243682861328125 L 9.446334838867188,13.48687744140625 L 9.439102172851562,13.72528076171875 L 9.431869506835938,13.968475341796875 L 9.424636840820312,14.208465576171875 L 9.417404174804688,14.448455810546875 L 9.410171508789062,14.688446044921875 L 9.402938842773438,14.928436279296875 M 8.948318481445312,10.168106079101562 L 8.948318481445312,10.168106079101562 L 8.922637939453125,10.347412109375 L 8.896957397460938,10.526718139648438 L 8.87127685546875,10.707626342773438 L 8.845596313476562,10.888534545898438 L 8.819915771484375,11.069442749023438 L 8.794235229492188,11.250350952148438 L 8.7685546875,11.431259155273438 L 8.742874145507812,11.612167358398438 M 8.362350463867188,11.820587158203125 L 8.362350463867188,11.820587158203125 L 8.39141845703125,12.050994873046875 L 8.420486450195312,12.294189453125 L 8.449554443359375,12.537384033203125 L 8.478622436523438,12.78057861328125 L 8.506027221679688,13.025375366210938 L 8.49041748046875,13.270172119140625 L 8.416091918945312,13.514968872070312 L 8.29315185546875,13.7406005859375 L 8.163497924804688,13.97100830078125 L 8.0673828125,14.2205810546875 L 8.021575927734375,14.514877319335938 L 8.054000854492188,14.897018432617188 L 8.099853515625,15.283966064453125 L 8.145706176757812,15.670913696289062 L 8.258621215820312,15.918899536132812 M 8.282241821289062,11.4403076171875 L 8.282241821289062,11.4403076171875 L 8.388458251953125,11.227462768554688 L 8.50640869140625,10.990646362304688 L 8.422027587890625,10.862442016601562 L 8.3192138671875,10.72625732421875 L 8.2080078125,10.546951293945312 L 8.0968017578125,10.362838745117188 L 8.061050415039062,10.1771240234375 L 8.061050415039062,9.993011474609375 L 8.100189208984375,9.810501098632812 L 8.171188354492188,9.583267211914062 L 8.243865966796875,9.308120727539062 L 8.276290893554688,9.020187377929688 L 8.1483154296875,8.716293334960938 L 7.975067138671875,8.406005859375 L 7.92926025390625,8.0350341796875 L 8.115966796875,7.6640625 L 8.389877319335938,7.449615478515625 M 7.626617431640625,11.181060791015625 L 7.626617431640625,11.181060791015625 L 7.63055419921875,11.411468505859375 L 7.6361541748046875,11.728134155273438 L 7.641754150390625,12.075149536132812 L 7.6473541259765625,12.422164916992188 L 7.6496124267578125,12.884170532226562 M 7.474945068359375,10.517959594726562 L 7.474945068359375,10.517959594726562 L 7.398956298828125,10.666915893554688 L 7.31793212890625,10.815872192382812 L 7.23187255859375,10.964828491210938 L 7.14581298828125,11.113784790039062 L 7.0580902099609375,11.262741088867188 L 6.9804229736328125,11.421295166015625 L 6.9111480712890625,11.594207763671875 L 6.8619842529296875,11.775115966796875 L 6.8329620361328125,11.9991455078125 L 6.8206939697265625,12.283859252929688 L 6.853118896484375,12.731491088867188 L 6.9006500244140625,13.231475830078125 L 6.9599151611328125,13.731460571289062 L 7.23046875,14.201446533203125 L 7.55804443359375,14.644287109375 M 9.988815307617188,12.203094482421875 L 9.988815307617188,12.203094482421875 L 9.83905029296875,12.224273681640625 L 9.670822143554688,12.24066162109375 M 10.033676147460938,12.401229858398438 L 10.033676147460938,12.401229858398438 L 9.882217407226562,12.427215576171875 L 9.710647583007812,12.453201293945312 L 9.483734130859375,12.47918701171875 M 9.296340942382812,11.822189331054688 L 9.296340942382812,11.822189331054688 L 9.348892211914062,12.066986083984375 L 9.406478881835938,12.335739135742188 M 9.16461181640625,13.025772094726562 L 9.16461181640625,13.025772094726562 L 9.223876953125,12.865631103515625 L 9.28314208984375,12.70068359375 L 9.344085693359375,12.530960083007812 M 9.212860107421875,12.553314208984375 L 9.212860107421875,12.553314208984375 L 9.212326049804688,12.364410400390625 L 9.2117919921875,12.173919677734375 L 9.211257934570312,11.983428955078125" fill="none" stroke="#000000" stroke-width="0.008469284057617188"/>
</svg>
