<?xml version="1.0" ?>
<svg baseProfile="full" height="600px" version="1.1" viewBox="7.282857788085938 6.8261652832031245 5.08934423828125 9.677198242187501" width="316px" xmlns="http://www.w3.org/2000/svg" xmlns:ev="http://www.w3.org/2001/xml-events" xmlns:xlink="http://www.w3.org/1999/xlink">
	<defs/>
	<path d="M 11.028045654296875,8.0537109375 L 11.028045654296875,8.0537109375 L 10.556289672851562,8.285720825195312 L 10.056304931640625,8.413909912109375 L 9.556320190429688,8.540496826171875 L 9.168411254882812,8.868331909179688 L 8.8760986328125,9.264862060546875 L 8.63409423828125,9.706100463867188 L 8.449111938476562,10.152145385742188 L 8.262451171875,10.599777221679688 L 8.075790405273438,11.047409057617188 L 7.89080810546875,11.496627807617188 L 7.71923828125,11.958633422851562 L 7.7103271484375,12.446197509765625 L 7.824920654296875,12.932159423828125 L 8.003250122070312,13.397369384765625 L 8.260391235351562,13.8402099609375 L 8.517532348632812,14.283050537109375 L 8.786407470703125,14.69873046875 L 9.139129638671875,15.023391723632812 L 9.592483520507812,15.199508666992188 L 10.0609130859375,15.302154541015625 L 10.531021118164062,15.400009155273438 L 11.001129150390625,15.49786376953125 L 11.472930908203125,15.595718383789062 L 11.944732666015625,15.693572998046875 L 11.773162841796875,15.662796020507812 L 11.273178100585938,15.6807861328125 L 10.773193359375,15.597305297851562 L 10.511062622070312,15.184799194335938 L 10.337814331054688,14.743545532226562 L 10.162887573242188,14.2958984375 L 9.987960815429688,13.843460083007812 L 9.85662841796875,13.373458862304688 L 9.829269409179688,12.887481689453125 L 9.8035888671875,12.39990234375 L 9.953399658203125,11.921920776367188 L 10.10321044921875,11.443939208984375 L 10.253021240234375,10.965957641601562 L 10.427993774414062,10.48956298828125 L 10.60296630859375,10.013168334960938 L 10.779617309570312,9.536773681640625 L 10.956268310546875,9.061965942382812 L 11.132919311523438,8.587158203125 L 11.3095703125,8.112350463867188 L 11.486221313476562,7.635955810546875 M 10.523513793945312,9.710800170898438 L 10.523513793945312,9.710800170898438 L 10.023529052734375,9.7239990234375 L 9.523544311523438,9.823440551757812 L 9.142349243164062,10.218368530273438 L 9.004318237304688,10.710723876953125 L 9.2161865234375,11.193496704101562 L 9.676239013671875,11.257797241210938 L 10.141326904296875,11.159927368164062 M 9.741546630859375,12.728988647460938 L 9.741546630859375,12.728988647460938 L 9.246322631835938,12.897125244140625 L 8.746337890625,13.066848754882812 L 8.452346801757812,13.508087158203125 L 8.680984497070312,13.990859985351562 L 9.142715454101562,14.163772583007812 L 9.636306762695312,14.093063354492188 L 10.126541137695312,13.91375732421875" fill="none" stroke="#000000" stroke-width="0.0080576171875"/>
</svg>
