<?xml version="1.0" ?>
<svg baseProfile="full" height="560px" version="1.1" viewBox="10.829076515197753 8.616227088928223 4.923832443237305 4.59539616394043" width="600px" xmlns="http://www.w3.org/2000/svg" xmlns:ev="http://www.w3.org/2001/xml-events" xmlns:xlink="http://www.w3.org/1999/xlink">
	<defs/>
	<path d="M 11.473388671875,10.366867065429688 L 11.473388671875,10.366867065429688 L 11.552764892578125,10.19073486328125 L 11.653945922851562,10.014602661132812 L 11.760162353515625,9.905563354492188 L 11.866378784179688,9.780563354492188 L 11.9759521484375,9.60284423828125 L 12.122406005859375,9.439498901367188 L 12.30743408203125,9.335250854492188 L 12.49749755859375,9.2421875 L 12.68756103515625,9.149124145507812 L 12.87762451171875,9.064041137695312 L 13.069366455078125,9.012496948242188 L 13.2611083984375,9.000885009765625 L 13.451171875,9.060409545898438 L 13.6412353515625,9.1295166015625 L 13.831298828125,9.249725341796875 L 14.0213623046875,9.36993408203125 L 14.21142578125,9.490142822265625 L 14.4014892578125,9.6103515625 L 14.591552734375,9.730560302734375 L 14.7816162109375,9.85076904296875 L 14.9716796875,9.970977783203125 L 15.0980224609375,10.201385498046875 L 15.170700073242188,10.47332763671875 L 15.24505615234375,10.743667602539062 L 15.319412231445312,10.991653442382812 M 14.672821044921875,11.232376098632812 L 14.672821044921875,11.232376098632812 L 14.514663696289062,11.072235107421875 L 14.662796020507812,11.101394653320312 L 14.810928344726562,11.13055419921875 L 14.990936279296875,11.158126831054688 L 15.165908813476562,11.185699462890625 L 15.34088134765625,11.213272094726562 M 14.577484130859375,11.218917846679688 L 14.577484130859375,11.218917846679688 L 14.379074096679688,11.300796508789062 L 14.25445556640625,11.397048950195312 L 14.298629760742188,11.546005249023438 L 14.352859497070312,11.725311279296875 L 14.432235717773438,11.957321166992188 L 14.518341064453125,12.195724487304688 L 14.703369140625,12.327117919921875 M 14.972503662109375,10.22601318359375 L 14.972503662109375,10.22601318359375 L 14.79254150390625,10.219192504882812 L 14.5823974609375,10.213973999023438 L 14.37225341796875,10.208755493164062 L 14.15875244140625,10.201934814453125 L 13.943572998046875,10.115249633789062 L 13.73175048828125,10.011001586914062 L 13.535018920898438,9.826889038085938 L 13.494247436523438,9.590072631835938 L 13.59710693359375,9.386795043945312 L 13.701644897460938,9.183517456054688 L 13.886672973632812,9.079269409179688 M 11.4361572265625,10.712921142578125 L 11.4361572265625,10.712921142578125 L 11.241104125976562,10.643814086914062 L 11.392593383789062,10.666595458984375 L 11.56756591796875,10.692581176757812 L 11.75762939453125,10.72015380859375 L 11.94769287109375,10.747726440429688 L 12.13775634765625,10.696182250976562 L 12.32110595703125,10.585540771484375 L 12.464218139648438,10.414215087890625 L 12.5067138671875,10.266845703125 L 12.4273681640625,10.138641357421875 L 12.316162109375,9.986480712890625 L 12.075820922851562,9.815155029296875 L 11.905929565429688,9.820358276367188 L 11.67901611328125,9.820358276367188 M 11.76080322265625,10.727188110351562 L 11.76080322265625,10.727188110351562 L 11.934097290039062,10.74517822265625 L 12.107391357421875,10.763168334960938 L 12.280685424804688,10.82269287109375 L 12.31646728515625,10.970062255859375 L 12.270660400390625,11.160552978515625 L 12.1611328125,11.3941650390625 L 11.991241455078125,11.637359619140625 L 11.749237060546875,11.878952026367188 L 11.420028686523438,12.064651489257812 M 11.79180908203125,11.967941284179688 L 11.79180908203125,11.967941284179688 L 11.936599731445312,11.897232055664062 L 12.083053588867188,11.83770751953125 L 12.229507446289062,11.776580810546875 L 12.36590576171875,11.84088134765625 L 12.507339477539062,11.90838623046875 L 12.648773193359375,11.97589111328125 L 12.788528442382812,12.048187255859375 L 12.76788330078125,12.1971435546875 L 12.733810424804688,12.346099853515625 L 12.649429321289062,12.49346923828125 L 12.481201171875,12.639236450195312 L 12.277755737304688,12.746673583984375 L 12.042449951171875,12.82696533203125" fill="none" stroke="#000000" stroke-width="0.004099777221679687"/>
</svg>
