<?xml version="1.0" ?>
<svg baseProfile="full" height="600px" version="1.1" viewBox="11.228289253234863 9.15134986114502 3.1374156341552735 7.844745956420899" width="240px" xmlns="http://www.w3.org/2000/svg" xmlns:ev="http://www.w3.org/2001/xml-events" xmlns:xlink="http://www.w3.org/1999/xlink">
	<defs/>
	<path d="M 13.633071899414062,16.338226318359375 L 13.633071899414062,16.338226318359375 L 13.779525756835938,16.106201171875 L 13.925979614257812,15.827850341796875 L 14.054000854492188,15.53033447265625 L 14.101531982421875,15.2088623046875 L 14.09429931640625,14.83148193359375 L 13.98980712890625,14.417373657226562 L 13.809844970703125,13.97930908203125 L 13.532623291015625,13.541244506835938 L 13.36273193359375,13.317214965820312 M 13.41864013671875,13.160263061523438 L 13.41864013671875,13.160263061523438 L 13.511444091796875,12.929840087890625 L 13.621017456054688,12.667465209960938 L 13.7305908203125,12.40509033203125 L 13.823394775390625,12.128341674804688 L 13.79437255859375,11.803680419921875 L 13.7183837890625,11.445480346679688 L 13.637359619140625,11.085678100585938 L 13.536224365234375,10.714706420898438 L 13.42669677734375,10.342132568359375 L 13.31549072265625,9.96795654296875 M 13.278060913085938,10.116912841796875 L 13.278060913085938,10.116912841796875 L 13.2037353515625,10.345733642578125 L 13.119354248046875,10.590530395507812 L 13.03497314453125,10.8353271484375 L 12.950592041015625,11.08331298828125 L 12.852798461914062,11.399978637695312 L 12.753341674804688,11.742202758789062 L 12.653884887695312,12.084426879882812 L 12.566162109375,12.436233520507812 L 12.532089233398438,12.810394287109375 L 12.569549560546875,13.202133178710938 L 12.655654907226562,13.595458984375 L 12.781997680664062,13.987197875976562 L 12.910018920898438,14.380523681640625 L 13.039718627929688,14.772262573242188 L 13.169418334960938,15.16400146484375 L 13.299118041992188,15.555740356445312 L 13.428817749023438,15.947479248046875 L 13.558517456054688,16.339218139648438 M 13.403701782226562,16.339645385742188 L 13.403701782226562,16.339645385742188 L 13.176788330078125,16.288101196289062 L 12.949874877929688,16.236557006835938 L 12.766571044921875,16.132308959960938 L 12.59332275390625,16.005706787109375 L 12.458648681640625,15.819992065429688 L 12.340728759765625,15.635879516601562 L 12.22784423828125,15.445388793945312 L 12.114959716796875,15.254898071289062 L 12.0020751953125,15.064407348632812 L 11.889190673828125,14.873916625976562 L 11.774627685546875,14.683425903320312 L 11.660064697265625,14.492935180664062 L 11.585739135742188,14.28009033203125 L 11.519821166992188,14.065643310546875 L 11.492462158203125,13.8511962890625 L 11.493026733398438,13.635147094726562 L 11.545578002929688,13.411117553710938 L 11.603164672851562,13.188674926757812 L 11.662429809570312,12.953460693359375 L 11.721694946289062,12.697463989257812 L 11.779281616210938,12.436691284179688 L 11.831832885742188,12.167938232421875 L 11.884384155273438,11.899185180664062 L 11.936935424804688,11.63043212890625 L 11.989486694335938,11.361679077148438 L 12.042037963867188,11.092926025390625 L 12.092926025390625,10.824172973632812 L 12.197463989257812,10.5570068359375 L 12.390884399414062,10.288253784179688 L 12.624542236328125,10.029083251953125 L 12.863250732421875,9.843368530273438 L 13.10028076171875,9.80780029296875 L 13.335617065429688,9.868911743164062" fill="none" stroke="#000000" stroke-width="0.006531845092773438"/>
</svg>
