<?xml version="1.0" ?>
<svg baseProfile="full" height="600px" version="1.1" viewBox="10.277338119506837 6.923926254272461 2.2947805480957033 8.128191192626954" width="170px" xmlns="http://www.w3.org/2000/svg" xmlns:ev="http://www.w3.org/2001/xml-events" xmlns:xlink="http://www.w3.org/1999/xlink">
	<defs/>
	<path d="M 11.546600341796875,7.852020263671875 L 11.546600341796875,7.852020263671875 L 11.467254638671875,8.021743774414062 L 11.3543701171875,8.24737548828125 L 11.24652099609375,8.477783203125 L 11.133636474609375,8.709793090820312 L 10.965408325195312,8.941802978515625 L 10.735137939453125,9.172210693359375 L 10.618896484375,9.485687255859375 L 10.546249389648438,9.813522338867188 L 10.510498046875,10.144561767578125 L 10.471389770507812,10.475601196289062 L 10.490402221679688,10.821014404296875 L 10.546310424804688,11.164840698242188 L 10.649169921875,11.51025390625 L 10.758743286132812,11.854080200195312 L 10.868316650390625,12.2138671875 L 10.974533081054688,12.608795166015625 L 11.069015502929688,13.056427001953125 L 11.1534423828125,13.50885009765625 L 11.284820556640625,13.919754028320312 M 11.28875732421875,13.769180297851562 L 11.28875732421875,13.769180297851562 L 11.28875732421875,13.57708740234375 L 11.28875732421875,13.370620727539062 L 11.28875732421875,13.164154052734375 L 11.271469116210938,12.957687377929688 L 11.198822021484375,12.751220703125 L 11.126174926757812,12.544754028320312 L 11.05352783203125,12.338287353515625 L 10.9775390625,12.12701416015625 L 10.94683837890625,11.902984619140625 L 10.9345703125,11.653396606445312 L 10.975372314453125,11.349502563476562 L 11.019546508789062,11.039215087890625 L 11.019546508789062,10.728927612304688 L 11.019546508789062,10.41864013671875 L 11.019546508789062,10.108352661132812 L 11.019546508789062,9.798065185546875 L 11.051971435546875,9.48138427734375 L 11.119613647460938,9.129562377929688 L 11.314697265625,8.777740478515625 L 11.511459350585938,8.425918579101562 L 11.68475341796875,8.051742553710938 L 11.707122802734375,7.604095458984375 M 11.811660766601562,7.7131195068359375 L 11.811660766601562,7.7131195068359375 L 11.917877197265625,7.882843017578125 L 12.02911376953125,8.102081298828125 L 12.101791381835938,8.319717407226562 L 12.107391357421875,8.609237670898438 L 12.111328125,8.93548583984375 L 12.082305908203125,9.320831298828125 L 12.05328369140625,9.707778930664062 L 12.1444091796875,10.093124389648438 L 12.378067016601562,10.41937255859375 L 12.32220458984375,10.726455688476562 L 12.145599365234375,11.044708251953125 L 12.173004150390625,11.47637939453125 L 12.140625,11.9320068359375 L 12.141189575195312,12.431991577148438 L 12.130599975585938,12.931976318359375 L 11.975784301757812,13.431961059570312 L 11.780731201171875,13.929107666015625 L 11.454879760742188,14.3719482421875 M 11.252593994140625,13.99444580078125 L 11.252593994140625,13.99444580078125 L 11.285018920898438,13.799163818359375 L 11.32415771484375,13.584716796875 L 11.368331909179688,13.368667602539062 L 11.441009521484375,13.154220581054688 L 11.53045654296875,12.93817138671875 L 11.609832763671875,12.704544067382812 L 11.682510375976562,12.458145141601562 L 11.673599243164062,12.147857666015625 L 11.61773681640625,11.835983276367188 L 11.426025390625,11.476181030273438 L 11.35003662109375,11.098800659179688 L 11.493148803710938,10.699066162109375 L 11.678176879882812,10.296142578125 L 11.735763549804688,9.856475830078125 L 11.67486572265625,9.356475830078125 L 11.629058837890625,8.856475830078125 L 11.629058837890625,8.356475830078125 L 11.631317138671875,7.856475830078125 M 11.662322998046875,9.776107788085938 L 11.662322998046875,9.776107788085938 L 11.336471557617188,9.800491333007812 L 11.178314208984375,9.75054931640625 L 10.961456298828125,9.673446655273438 M 11.479690551757812,10.389480590820312 L 11.479690551757812,10.389480590820312 L 11.316497802734375,10.409072875976562 L 11.154983520507812,10.402252197265625 M 11.132110595703125,10.87469482421875 L 11.132110595703125,10.87469482421875 M 11.322784423828125,11.634185791015625 L 11.322784423828125,11.634185791015625 L 11.137802124023438,11.64898681640625 L 10.986343383789062,11.64898681640625 L 10.757736206054688,11.643768310546875 M 11.499008178710938,12.085113525390625 L 11.499008178710938,12.085113525390625 L 11.327438354492188,12.07989501953125 L 11.175979614257812,12.053909301757812 L 10.960800170898438,12.024734497070312 M 11.377853393554688,12.48236083984375 L 11.377853393554688,12.48236083984375 L 11.085540771484375,12.462753295898438 M 11.37628173828125,9.1719970703125 L 11.37628173828125,9.1719970703125 L 11.146011352539062,9.118850708007812" fill="none" stroke="#000000" stroke-width="0.006767852783203125"/>
</svg>
