<?xml version="1.0" ?>
<svg baseProfile="full" height="600px" version="1.1" viewBox="5.016050193786621 5.096361778259277 5.932194046020507 10.223398880004883" width="349px" xmlns="http://www.w3.org/2000/svg" xmlns:ev="http://www.w3.org/2001/xml-events" xmlns:xlink="http://www.w3.org/1999/xlink">
	<defs/>
	<path d="M 6.544403076171875,14.058761596679688 L 6.544403076171875,14.058761596679688 L 6.4516448974609375,13.874649047851562 L 6.3739776611328125,13.422210693359375 L 6.40472412109375,12.922210693359375 L 6.6014862060546875,12.422210693359375 L 6.846893310546875,11.93304443359375 L 6.9531097412109375,11.43304443359375 L 7.022430419921875,10.93304443359375 L 7.063232421875,10.43304443359375 L 7.104034423828125,9.93304443359375 L 7.2136077880859375,9.43304443359375 L 7.334930419921875,8.93304443359375 L 7.5048828125,8.43304443359375 L 7.6949462890625,7.93304443359375 L 7.886688232421875,7.43304443359375 L 8.0750732421875,6.9518585205078125 L 8.253402709960938,6.4518585205078125 L 8.309310913085938,5.9518585205078125 M 10.450347900390625,7.889007568359375 L 10.450347900390625,7.889007568359375 L 10.013809204101562,8.026779174804688 L 9.513824462890625,8.2012939453125 L 9.013839721679688,8.2879638671875 L 8.51385498046875,8.234817504882812 L 8.013870239257812,8.181671142578125 L 7.513885498046875,8.128524780273438 L 7.0139007568359375,8.07537841796875 L 6.513916015625,8.0965576171875 L 6.0139312744140625,8.178436279296875 L 5.513946533203125,8.26031494140625 M 6.4693450927734375,9.62762451171875 L 6.4693450927734375,9.62762451171875 L 6.8388519287109375,9.529754638671875 L 7.3140106201171875,9.403152465820312 L 7.8109588623046875,9.378768920898438 L 8.307907104492188,9.475021362304688 L 8.803176879882812,9.576065063476562 L 9.298446655273438,9.677108764648438 M 8.053451538085938,10.758071899414062 L 8.053451538085938,10.758071899414062 L 7.553466796875,10.918197631835938 L 7.0534820556640625,11.078323364257812 L 6.553497314453125,11.10589599609375 L 6.0535125732421875,11.130279541015625 M 6.2996063232421875,12.41168212890625 L 6.2996063232421875,12.41168212890625 L 6.637237548828125,12.320220947265625 L 7.1107177734375,12.46759033203125 L 7.584197998046875,12.634124755859375 M 6.92474365234375,13.924758911132812 L 6.92474365234375,13.924758911132812 L 6.533477783203125,14.102462768554688 L 6.0533447265625,14.332870483398438 L 5.5533599853515625,14.464263916015625" fill="none" stroke="#000000" stroke-width="0.008512405395507813"/>
</svg>
