<?xml version="1.0" ?>
<svg baseProfile="full" height="600px" version="1.1" viewBox="7.6477014923095705 6.738952102661132 5.308478851318359 10.59359848022461" width="301px" xmlns="http://www.w3.org/2000/svg" xmlns:ev="http://www.w3.org/2001/xml-events" xmlns:xlink="http://www.w3.org/1999/xlink">
	<defs/>
	<path d="M 12.137374877929688,7.62542724609375 L 12.137374877929688,7.62542724609375 L 11.960769653320312,7.7631988525390625 L 11.730499267578125,7.95208740234375 L 11.498550415039062,8.172927856445312 L 11.2666015625,8.401748657226562 L 11.0531005859375,8.680084228515625 L 10.8463134765625,8.9696044921875 L 10.67138671875,9.3214111328125 L 10.5350341796875,9.706756591796875 L 10.448974609375,10.098495483398438 L 10.3629150390625,10.490234375 L 10.291961669921875,10.883560180664062 L 10.3143310546875,11.278488159179688 L 10.34173583984375,11.675018310546875 L 10.399322509765625,12.074737548828125 L 10.525665283203125,12.472854614257812 L 10.65032958984375,12.875762939453125 L 10.774993896484375,13.2818603515625 L 10.933181762695312,13.687957763671875 L 11.123245239257812,14.09246826171875 L 11.350204467773438,14.488998413085938 L 11.577163696289062,14.885528564453125 L 11.805801391601562,15.282058715820312 L 12.036102294921875,15.6785888671875 L 12.266403198242188,16.075119018554688 L 12.5101318359375,16.446075439453125 M 11.017562866210938,8.353851318359375 L 11.017562866210938,8.353851318359375 L 10.852691650390625,8.224044799804688 L 10.620742797851562,8.04791259765625 L 10.3502197265625,7.873382568359375 L 9.955596923828125,7.910552978515625 L 9.52911376953125,8.140960693359375 L 9.0506591796875,8.37457275390625 L 8.57220458984375,8.61456298828125 L 8.09375,8.85455322265625 L 8.429702758789062,9.276641845703125 L 8.819320678710938,9.660385131835938 L 9.219009399414062,10.031341552734375 L 9.657272338867188,10.352798461914062 L 10.157272338867188,10.417098999023438 L 10.657272338867188,10.481399536132812" fill="none" stroke="#000000" stroke-width="0.008820648193359376"/>
</svg>
