<?xml version="1.0" ?>
<svg baseProfile="full" height="600px" version="1.1" viewBox="7.812413078308105 4.764024406433105 5.770544326782226 14.462597549438478" width="240px" xmlns="http://www.w3.org/2000/svg" xmlns:ev="http://www.w3.org/2001/xml-events" xmlns:xlink="http://www.w3.org/1999/xlink">
	<defs/>
	<path d="M 12.513656616210938,6.312469482421875 L 12.513656616210938,6.312469482421875 L 12.274993896484375,6.7856597900390625 L 11.821685791015625,7.0336456298828125 L 11.4052734375,7.350311279296875 L 11.123016357421875,7.7947540283203125 L 10.882675170898438,8.247177124023438 L 10.712783813476562,8.739532470703125 L 10.631759643554688,9.239517211914062 L 10.57757568359375,9.739501953125 L 10.570343017578125,10.239486694335938 L 10.5631103515625,10.739471435546875 L 10.555877685546875,11.239456176757812 L 10.52685546875,11.73944091796875 L 10.497833251953125,12.239425659179688 L 10.46881103515625,12.739410400390625 L 10.573348999023438,13.239395141601562 L 10.800308227539062,13.73016357421875 L 11.0423583984375,14.21612548828125 L 11.309555053710938,14.697296142578125 L 11.543212890625,15.178466796875 L 11.85736083984375,15.627685546875 L 12.14971923828125,16.076904296875 L 12.440399169921875,16.527725219726562 L 12.268829345703125,17.02008056640625 L 12.114013671875,17.512435913085938 L 11.786483764648438,17.91534423828125 L 11.2864990234375,18.016387939453125 L 10.829849243164062,17.720474243164062 L 10.348037719726562,17.483657836914062 L 9.848052978515625,17.302749633789062 L 9.371261596679688,17.038772583007812 L 9.040374755859375,16.623077392578125 L 8.86712646484375,16.123077392578125 L 8.859893798828125,15.623077392578125 L 8.845947265625,15.123077392578125 L 8.733062744140625,14.623077392578125 L 8.559814453125,14.123077392578125 L 8.38824462890625,13.623077392578125 L 8.30218505859375,13.123077392578125 L 8.298309326171875,12.623077392578125 L 8.305587768554688,12.123077392578125 L 8.314544677734375,11.623077392578125 L 8.323501586914062,11.123077392578125 L 8.377731323242188,10.623077392578125 L 8.4873046875,10.123077392578125 L 8.596878051757812,9.623077392578125 L 8.70477294921875,9.123077392578125 L 8.669021606445312,8.623077392578125 L 8.70648193359375,8.123077392578125 L 8.89654541015625,7.635498046875 L 9.126846313476562,7.16229248046875 L 9.40411376953125,6.7242279052734375 L 9.76690673828125,6.361236572265625 L 10.247085571289062,6.2314300537109375 L 10.747085571289062,6.259002685546875 L 11.247085571289062,6.4207305908203125 L 11.7255859375,6.2685699462890625 L 12.153778076171875,5.9742584228515625 L 12.653778076171875,5.9890594482421875 L 13.097061157226562,6.2721710205078125 M 10.156280517578125,8.751190185546875 L 10.156280517578125,8.751190185546875 L 9.656295776367188,8.847442626953125 L 9.15631103515625,8.90057373046875 L 9.287689208984375,9.400558471679688 L 9.616943359375,9.843399047851562 L 9.952896118164062,9.63055419921875 L 10.251968383789062,9.189300537109375 L 10.7371826171875,9.062698364257812 M 10.215164184570312,8.582260131835938 L 10.215164184570312,8.582260131835938 L 10.52093505859375,8.3470458984375 L 10.607040405273438,8.475234985351562 L 10.862503051757812,8.849395751953125" fill="none" stroke="#000000" stroke-width="0.012042129516601562"/>
</svg>
