<?xml version="1.0" ?>
<svg baseProfile="full" height="600px" version="1.1" viewBox="8.273754158020019 8.532854499816894 4.921653671264648 5.6937361907958985" width="519px" xmlns="http://www.w3.org/2000/svg" xmlns:ev="http://www.w3.org/2001/xml-events" xmlns:xlink="http://www.w3.org/1999/xlink">
	<defs/>
	<path d="M 10.27801513671875,9.859405517578125 L 10.27801513671875,9.859405517578125 L 10.50665283203125,10.33099365234375 L 10.73529052734375,10.802581787109375 L 10.814666748046875,11.302566528320312 L 10.70513916015625,11.80255126953125 L 10.592254638671875,12.302536010742188 L 10.4793701171875,12.802520751953125 L 10.36480712890625,13.302505493164062 L 10.1160888671875,13.750137329101562 L 9.86737060546875,13.535690307617188 L 9.48114013671875,13.16790771484375 L 9.190505981445312,12.761795043945312 L 9.00384521484375,12.306167602539062 L 8.820541381835938,11.850540161132812 L 8.685867309570312,11.37255859375 L 8.718292236328125,10.886581420898438 L 8.750717163085938,10.400604248046875 L 8.86029052734375,9.91302490234375 L 9.01513671875,9.431838989257812 L 9.351089477539062,9.052871704101562 L 9.851089477539062,9.009307861328125 L 10.351089477539062,9.241317749023438 L 10.556259155273438,9.704925537109375 M 10.062957763671875,9.380538940429688 L 10.062957763671875,9.380538940429688 L 10.358673095703125,9.37371826171875 L 10.847244262695312,9.2598876953125 M 9.561843872070312,9.671615600585938 L 9.561843872070312,9.671615600585938 L 9.90618896484375,9.305419921875 L 10.315933227539062,9.0478515625 L 10.802825927734375,9.037826538085938 L 11.293060302734375,9.027801513671875 L 11.783294677734375,9.0225830078125 L 12.283294677734375,9.2034912109375 L 12.783294677734375,9.3843994140625 L 12.283309936523438,9.48065185546875 M 12.401519775390625,9.561721801757812 L 12.401519775390625,9.561721801757812 L 11.939834594726562,9.792129516601562 L 11.439849853515625,9.891571044921875 L 10.939865112304688,9.87677001953125 L 10.43988037109375,9.860366821289062 L 9.939895629882812,9.842361450195312 M 9.938156127929688,13.368392944335938 L 9.938156127929688,13.368392944335938 L 9.78839111328125,12.935134887695312 L 9.63525390625,12.435134887695312 L 9.63525390625,11.935134887695312 L 9.775009155273438,11.435134887695312 L 9.928176879882812,10.944366455078125 L 10.081344604492188,10.453598022460938 L 10.179183959960938,9.956436157226562" fill="none" stroke="#000000" stroke-width="0.004740829467773437"/>
</svg>
