<?xml version="1.0" ?>
<svg baseProfile="full" height="600px" version="1.1" viewBox="8.524363967895507 6.0862581939697264 6.403771453857422 8.187346893310547" width="470px" xmlns="http://www.w3.org/2000/svg" xmlns:ev="http://www.w3.org/2001/xml-events" xmlns:xlink="http://www.w3.org/1999/xlink">
	<defs/>
	<path d="M 14.381301879882812,6.990570068359375 L 14.381301879882812,6.990570068359375 L 14.12420654296875,6.9438323974609375 L 13.624221801757812,6.90826416015625 L 13.150787353515625,7.1434783935546875 L 12.803131103515625,7.540008544921875 L 12.515838623046875,7.986053466796875 L 12.258743286132812,8.432098388671875 L 12.00164794921875,8.879730224609375 L 11.866973876953125,9.370498657226562 L 11.95977783203125,9.867645263671875 L 12.235382080078125,10.31048583984375 L 12.510986328125,10.753326416015625 L 12.77484130859375,11.202545166015625 L 12.813980102539062,11.696487426757812 L 12.816238403320312,12.1904296875 L 13.09686279296875,12.636474609375 L 13.5267333984375,12.914810180664062 L 14.0267333984375,12.935989379882812 L 14.250335693359375,12.7630615234375 L 14.17938232421875,12.921615600585938 L 14.06146240234375,13.193557739257812 L 13.785903930664062,13.588485717773438 L 13.285919189453125,13.538543701171875 L 12.881240844726562,13.223464965820312 L 12.446380615234375,12.922775268554688 L 12.011520385742188,12.622085571289062 L 11.5699462890625,12.330963134765625 L 11.128372192382812,12.039840698242188 L 10.686798095703125,11.750320434570312 L 10.245223999023438,11.459197998046875 L 9.832168579101562,11.15850830078125 L 9.479476928710938,10.784332275390625 L 9.14691162109375,10.405364990234375 L 9.06085205078125,9.922576904296875 L 9.473953247070312,9.626663208007812 L 9.92059326171875,9.413818359375 L 10.373947143554688,9.199371337890625 L 10.776992797851562,8.890670776367188 L 10.918426513671875,8.412689208984375 L 11.026321411132812,7.93310546875 L 11.132537841796875,7.453521728515625 L 11.434951782226562,7.0394134521484375 L 11.891647338867188,6.8345489501953125 L 12.391647338867188,6.781402587890625 L 12.891647338867188,6.7713775634765625 L 13.391647338867188,6.8452606201171875 L 13.891647338867188,6.9942169189453125 L 14.391647338867188,7.032958984375 M 10.193069458007812,9.45355224609375 L 10.193069458007812,9.45355224609375 L 10.254013061523438,9.854873657226562 L 10.313278198242188,10.3548583984375 L 10.38763427734375,10.854843139648438 L 10.461990356445312,11.354827880859375 M 9.97308349609375,9.850982666015625 L 9.97308349609375,9.850982666015625 L 9.54827880859375,10.079803466796875 M 10.116317749023438,10.550201416015625 L 10.116317749023438,10.550201416015625 L 9.634506225585938,10.751876831054688 L 9.14263916015625,10.95355224609375 M 11.07958984375,9.10723876953125 L 11.07958984375,9.10723876953125 L 10.67156982421875,9.475021362304688 L 10.377578735351562,9.919464111328125 L 10.195953369140625,10.403823852539062 L 10.67279052734375,10.581527709960938 L 11.121109008789062,10.317550659179688 L 11.379928588867188,9.881088256835938 M 10.846771240234375,9.665008544921875 L 10.846771240234375,9.665008544921875 L 11.113967895507812,9.361114501953125 L 11.520370483398438,9.055618286132812 L 11.983779907226562,8.889068603515625" fill="none" stroke="#000000" stroke-width="0.006817108154296875"/>
</svg>
