<?xml version="1.0" ?>
<svg baseProfile="full" height="600px" version="1.1" viewBox="5.819406112670898 6.191072067260742 5.417263824462891 8.748776275634766" width="372px" xmlns="http://www.w3.org/2000/svg" xmlns:ev="http://www.w3.org/2001/xml-events" xmlns:xlink="http://www.w3.org/1999/xlink">
	<defs/>
	<path d="M 10.467269897460938,13.6156005859375 L 10.467269897460938,13.6156005859375 L 10.391281127929688,13.147201538085938 L 10.218032836914062,12.647201538085938 L 10.044784545898438,12.147201538085938 L 10.014083862304688,11.647201538085938 L 9.990081787109375,11.147201538085938 L 9.966079711914062,10.647201538085938 L 9.935379028320312,10.147201538085938 L 9.90130615234375,9.647201538085938 L 9.867233276367188,9.147201538085938 L 9.833160400390625,8.647201538085938 L 9.833724975585938,8.147201538085938 L 9.86279296875,7.6472015380859375 L 9.858917236328125,7.1472015380859375 L 9.358932495117188,7.1419830322265625 M 9.59381103515625,6.9231719970703125 L 9.59381103515625,6.9231719970703125 L 9.266281127929688,7.191925048828125 L 8.818008422851562,7.4798431396484375 L 8.349609375,7.73101806640625 M 9.529693603515625,6.9610595703125 L 9.529693603515625,6.9610595703125 L 9.029708862304688,7.0301666259765625 L 8.52972412109375,7.251007080078125 L 8.037857055664062,7.489410400390625 L 7.5510101318359375,7.735809326171875 L 7.0993804931640625,8.052474975585938 L 6.7332763671875,8.476150512695312 L 6.489593505859375,8.95892333984375 L 6.31298828125,9.457672119140625 L 6.2738800048828125,9.957656860351562 L 6.3281097412109375,10.4576416015625 L 6.464508056640625,10.957626342773438 L 6.6881103515625,11.446792602539062 L 6.9553070068359375,11.910400390625 L 7.2275390625,12.367630004882812 L 7.5651702880859375,12.770538330078125 L 7.976593017578125,13.093597412109375 L 8.40814208984375,13.384719848632812 L 8.8631591796875,13.627914428710938 L 9.329910278320312,13.82318115234375 L 9.811767578125,13.954574584960938 L 10.296981811523438,14.081161499023438 L 10.782196044921875,14.207748413085938 M 9.382110595703125,13.661788940429688 L 9.382110595703125,13.661788940429688 L 9.056259155273438,13.244491577148438 L 8.73040771484375,12.827194213867188 L 8.404556274414062,12.409896850585938 L 8.1474609375,11.951080322265625 L 7.9641571044921875,11.4619140625 L 7.8563079833984375,10.9619140625 L 7.781982421875,10.4619140625 L 7.7892608642578125,9.9619140625 L 7.893798828125,9.4619140625 L 8.08721923828125,8.966354370117188 L 8.361129760742188,8.525100708007812 L 8.6434326171875,8.090240478515625 L 8.940826416015625,7.6713409423828125 L 9.3304443359375,7.3291015625 L 9.743545532226562,7.0268096923828125 M 9.827972412109375,7.178955078125 L 9.827972412109375,7.178955078125 L 9.930831909179688,7.6789398193359375 L 10.03369140625,8.178924560546875 L 9.934234619140625,8.678909301757812 M 9.258010864257812,8.646087646484375 L 9.258010864257812,8.646087646484375 L 8.758026123046875,8.678451538085938 L 8.258041381835938,8.72998046875 M 9.615325927734375,9.75225830078125 L 9.615325927734375,9.75225830078125 L 9.115341186523438,9.83892822265625 L 8.6153564453125,9.923995971679688 L 8.115371704101562,10.007461547851562 L 7.615386962890625,10.090927124023438 M 9.695449829101562,11.193923950195312 L 9.695449829101562,11.193923950195312 L 9.349456787109375,11.247055053710938 L 8.849472045898438,11.386428833007812 L 8.3494873046875,11.525802612304688 L 7.8495025634765625,11.665176391601562 M 9.971542358398438,12.796051025390625 L 9.971542358398438,12.796051025390625 L 9.476318359375,12.975357055664062 L 8.976333618164062,13.1546630859375 L 8.476348876953125,13.333969116210938 M 8.292526245117188,12.528106689453125 L 8.292526245117188,12.528106689453125 L 7.83587646484375,12.803237915039062 L 7.3358917236328125,12.869140625 M 7.583587646484375,11.70745849609375 L 7.583587646484375,11.70745849609375 L 7.0836029052734375,11.837249755859375 M 7.3824462890625,10.122894287109375 L 7.3824462890625,10.122894287109375 L 6.8824615478515625,10.209564208984375 L 6.382476806640625,10.296234130859375 M 7.72637939453125,8.579849243164062 L 7.72637939453125,8.579849243164062 L 7.2263946533203125,8.561843872070312 L 6.726409912109375,8.543838500976562" fill="none" stroke="#000000" stroke-width="0.007284576416015625"/>
</svg>
