<?xml version="1.0" ?>
<svg baseProfile="full" height="600px" version="1.1" viewBox="7.018668014526368 3.978702194213867 3.8113578186035157 10.928520904541015" width="210px" xmlns="http://www.w3.org/2000/svg" xmlns:ev="http://www.w3.org/2001/xml-events" xmlns:xlink="http://www.w3.org/1999/xlink">
	<defs/>
	<path d="M 8.233169555664062,13.992721557617188 L 8.233169555664062,13.992721557617188 L 8.059921264648438,13.741531372070312 L 7.7810211181640625,13.2667236328125 L 7.540679931640625,12.788742065429688 L 7.365753173828125,12.291580200195312 L 7.3400726318359375,11.791580200195312 L 7.40435791015625,11.291580200195312 L 7.445159912109375,10.791580200195312 L 7.445159912109375,10.291580200195312 L 7.4842987060546875,9.791580200195312 L 7.5469207763671875,9.291580200195312 L 7.81915283203125,8.855117797851562 L 8.086349487304688,8.41705322265625 L 8.309951782226562,7.975799560546875 L 8.5201416015625,7.529754638671875 L 8.790695190429688,7.093292236328125 L 9.0595703125,6.6552276611328125 L 9.41229248046875,6.292236328125 L 9.865646362304688,6.055419921875 L 10.319000244140625,5.8170013427734375 L 10.428573608398438,5.699981689453125 M 10.449356079101562,6.6866912841796875 L 10.449356079101562,6.6866912841796875 L 10.508621215820312,6.1866912841796875 L 10.368911743164062,5.6866912841796875 L 10.084976196289062,5.2310638427734375 L 9.633346557617188,4.962310791015625 L 9.13336181640625,4.8932037353515625 L 8.983596801757812,5.098052978515625" fill="none" stroke="#000000" stroke-width="0.009099517822265625"/>
</svg>
