<?xml version="1.0" ?>
<svg baseProfile="full" height="600px" version="1.1" viewBox="5.69323836517334 5.79434920501709 6.659620071411133 9.655152297973633" width="414px" xmlns="http://www.w3.org/2000/svg" xmlns:ev="http://www.w3.org/2001/xml-events" xmlns:xlink="http://www.w3.org/1999/xlink">
	<defs/>
	<path d="M 10.766311645507812,7.362060546875 L 10.766311645507812,7.362060546875 L 10.4354248046875,7.804901123046875 L 10.195083618164062,8.287673950195312 L 10.159332275390625,8.78765869140625 L 10.108489990234375,9.287643432617188 L 10.061004638671875,9.787628173828125 L 10.013519287109375,10.287612915039062 L 9.966033935546875,10.78759765625 L 10.02362060546875,11.287582397460938 L 10.228790283203125,11.787567138671875 L 10.460769653320312,12.283111572265625 L 10.694427490234375,12.778656005859375 L 10.995162963867188,13.227874755859375 L 11.394851684570312,13.558914184570312 L 11.794540405273438,13.891555786132812 L 11.614578247070312,14.39154052734375 L 11.144500732421875,14.637939453125 L 10.644515991210938,14.641555786132812 L 10.14453125,14.55487060546875 L 9.644546508789062,14.480972290039062 L 9.144561767578125,14.387908935546875 L 8.644577026367188,14.24212646484375 L 8.14459228515625,14.097946166992188 L 7.7097320556640625,13.794052124023438 L 7.3285369873046875,13.42626953125 L 6.9406280517578125,13.053695678710938 L 6.5527191162109375,12.681121826171875 L 6.3643798828125,12.199935913085938 L 6.36663818359375,11.699935913085938 L 6.3493499755859375,11.199935913085938 L 6.251556396484375,10.699935913085938 L 6.5187530517578125,10.2379150390625 L 6.547821044921875,9.7379150390625 L 6.5802459716796875,9.2379150390625 L 6.91619873046875,8.838180541992188 L 7.2924041748046875,8.47998046875 L 7.7642059326171875,8.27191162109375 L 8.086761474609375,7.873779296875 L 8.181243896484375,7.3830108642578125 L 8.64129638671875,7.1414031982421875 L 9.14129638671875,7.26641845703125 L 9.64129638671875,7.2595977783203125 L 10.012481689453125,6.891815185546875 L 10.4541015625,6.602294921875 L 10.9541015625,6.6681976318359375 L 11.37725830078125,7.005615234375 L 11.024566650390625,7.4085235595703125 M 10.441864013671875,7.4331817626953125 L 10.441864013671875,7.4331817626953125 L 9.941879272460938,7.551788330078125 L 9.793792724609375,7.614501953125 L 9.322036743164062,7.84490966796875 L 9.766998291015625,8.161575317382812 L 10.242156982421875,8.34088134765625 M 9.52032470703125,9.5684814453125 L 9.52032470703125,9.5684814453125 L 9.020339965820312,9.74139404296875 L 8.8370361328125,10.238540649414062 L 9.313873291015625,10.46575927734375 L 9.802444458007812,10.34075927734375 L 10.14007568359375,10.491317749023438 M 9.960174560546875,11.864700317382812 L 9.960174560546875,11.864700317382812 L 9.552154541015625,12.197341918945312 L 9.1038818359375,12.498031616210938 L 9.6038818359375,12.6629638671875 L 10.1038818359375,12.842269897460938 L 10.6038818359375,12.938522338867188 M 10.9075927734375,13.35064697265625 L 10.9075927734375,13.35064697265625 L 10.407608032226562,13.453292846679688 L 10.105239868164062,13.900924682617188 L 10.605239868164062,13.925308227539062 L 11.105239868164062,14.008773803710938 L 11.496536254882812,14.394119262695312 M 8.215255737304688,8.08416748046875 L 8.215255737304688,8.08416748046875 L 8.601516723632812,8.261871337890625 L 8.6356201171875,8.761856079101562 L 8.142074584960938,8.981094360351562 L 7.64208984375,8.852890014648438 L 7.1421051025390625,8.80615234375 L 6.64520263671875,9.046142578125 M 6.5290985107421875,10.540390014648438 L 6.5290985107421875,10.540390014648438 L 6.80804443359375,10.567962646484375 L 7.29827880859375,10.661026000976562 L 7.630889892578125,11.055953979492188 L 7.6566162109375,11.509979248046875 L 7.230133056640625,11.844223022460938 L 6.7301483154296875,11.813446044921875 L 6.255035400390625,11.842605590820312 M 7.999176025390625,13.793380737304688 L 7.999176025390625,13.793380737304688 L 8.209365844726562,13.66357421875 L 8.615768432617188,13.35968017578125 L 9.072463989257812,13.130844116210938 L 9.131729125976562,13.630828857421875 L 8.760589599609375,14.032150268554688 L 8.387786865234375,14.4334716796875" fill="none" stroke="#000000" stroke-width="0.008039260864257812"/>
</svg>
