<?xml version="1.0" ?>
<svg baseProfile="full" height="600px" version="1.1" viewBox="8.170006202697754 4.111859535217285 6.304701950073242 8.813741256713868" width="430px" xmlns="http://www.w3.org/2000/svg" xmlns:ev="http://www.w3.org/2001/xml-events" xmlns:xlink="http://www.w3.org/1999/xlink">
	<defs/>
	<path d="M 10.695205688476562,6.5258636474609375 L 10.695205688476562,6.5258636474609375 L 10.699142456054688,7.025848388671875 L 10.703079223632812,7.5258331298828125 L 10.70867919921875,8.02581787109375 L 10.714279174804688,8.525802612304688 L 10.719879150390625,9.025787353515625 L 10.730514526367188,9.525772094726562 L 10.736114501953125,10.0257568359375 L 10.741714477539062,10.525741577148438 M 11.93743896484375,8.612152099609375 L 11.93743896484375,8.612152099609375 L 12.259994506835938,9.053390502929688 L 12.382980346679688,9.552139282226562 L 12.234893798828125,10.050888061523438 L 11.929168701171875,10.4617919921875 L 11.604995727539062,10.863113403320312 M 12.0823974609375,8.363113403320312 L 12.0823974609375,8.363113403320312 L 12.358001708984375,7.9442138671875 L 12.541351318359375,7.4758148193359375 L 12.619049072265625,6.9914398193359375 L 12.440765380859375,6.5294189453125 L 12.192047119140625,6.096160888671875 L 11.864517211914062,5.7140045166015625 L 11.439712524414062,5.4164886474609375 L 11.014907836914062,5.1189727783203125 L 10.514923095703125,5.0003509521484375 M 10.1236572265625,5.3729095458984375 L 10.1236572265625,5.3729095458984375 L 9.70892333984375,5.6959686279296875 L 9.294189453125,6.0190277099609375 L 9.040451049804688,6.4682464599609375 L 8.878936767578125,6.960601806640625 L 8.755996704101562,7.456146240234375 L 8.698455810546875,7.95489501953125 L 8.745986938476562,8.453643798828125 L 8.857223510742188,8.950790405273438 L 9.059036254882812,9.430374145507812 L 9.334640502929688,9.858840942382812 L 9.668930053710938,10.258560180664062 L 10.0048828125,10.65509033203125 L 10.381088256835938,11.021270751953125 L 10.834442138671875,11.258087158203125 L 11.319656372070312,11.300033569335938 M 13.318679809570312,8.931976318359375 L 13.318679809570312,8.931976318359375 L 13.282928466796875,9.431961059570312 L 13.206939697265625,9.93194580078125 L 12.958221435546875,10.382766723632812 L 12.664230346679688,10.817626953125 L 12.43060302734375,11.266845703125 L 12.551925659179688,11.760787963867188 L 12.8912353515625,12.158905029296875 L 13.3912353515625,12.188064575195312 L 13.727188110351562,11.810684204101562 L 13.708221435546875,11.32470703125 L 13.689254760742188,10.838729858398438 L 13.44891357421875,11.291152954101562 L 13.30584716796875,11.78350830078125 M 13.53131103515625,7.379180908203125 L 13.53131103515625,7.379180908203125 L 13.337921142578125,6.93792724609375 L 12.991928100585938,6.5589599609375 L 12.694580078125,6.17999267578125 L 12.511276245117188,5.7371368408203125 L 12.6141357421875,5.25115966796875 L 13.00543212890625,4.90093994140625 L 13.504058837890625,4.849395751953125 L 13.94232177734375,5.1660614013671875 L 13.946258544921875,5.48272705078125 L 13.612014770507812,5.8840484619140625 L 13.138580322265625,6.106475830078125 L 12.844589233398438,5.7067413330078125 L 12.960861206054688,5.22076416015625 L 13.434341430664062,5.1197052001953125 L 13.621047973632812,5.607269287109375 L 13.226425170898438,5.9383087158203125 L 13.3712158203125,5.4539337158203125" fill="none" stroke="#000000" stroke-width="0.0073386688232421875"/>
</svg>
