<?xml version="1.0" ?>
<svg baseProfile="full" height="600px" version="1.1" viewBox="11.481175514221192 8.317177101135254 1.9167535858154297 6.0541681365966795" width="190px" xmlns="http://www.w3.org/2000/svg" xmlns:ev="http://www.w3.org/2001/xml-events" xmlns:xlink="http://www.w3.org/1999/xlink">
	<defs/>
	<path d="M 11.806869506835938,9.33282470703125 L 11.806869506835938,9.33282470703125 L 11.993576049804688,9.199813842773438 L 12.155136108398438,9.2130126953125 L 12.395523071289062,9.258163452148438 L 12.35809326171875,9.408721923828125 L 12.275390625,9.656707763671875 L 12.204437255859375,9.978164672851562 L 12.26202392578125,10.41302490234375 L 12.31793212890625,10.913009643554688 L 12.3704833984375,11.412994384765625 L 12.421371459960938,11.912979125976562 L 12.4705810546875,12.4129638671875 L 12.5264892578125,12.912948608398438 L 12.584075927734375,13.412933349609375 L 12.41082763671875,13.451675415039062 L 12.115158081054688,13.509597778320312 M 12.021377563476562,12.641387939453125 L 12.021377563476562,12.641387939453125 L 11.868240356445312,12.289566040039062 L 11.64300537109375,11.808380126953125 L 11.714004516601562,11.308380126953125 L 11.801773071289062,10.808380126953125 L 11.799560546875,10.308380126953125 M 12.369964599609375,8.83221435546875 L 12.369964599609375,8.83221435546875 L 12.630462646484375,8.82379150390625 L 12.914443969726562,8.945602416992188 M 12.342269897460938,13.851531982421875 L 12.342269897460938,13.851531982421875 L 12.609466552734375,13.864730834960938 L 12.962188720703125,13.653457641601562 L 13.236099243164062,13.239349365234375" fill="none" stroke="#000000" stroke-width="0.0050409393310546875"/>
</svg>
