<?xml version="1.0" ?>
<svg baseProfile="full" height="600px" version="1.1" viewBox="4.596695289611817 8.05628849029541 3.8752739715576174 6.984972457885743" width="333px" xmlns="http://www.w3.org/2000/svg" xmlns:ev="http://www.w3.org/2001/xml-events" xmlns:xlink="http://www.w3.org/1999/xlink">
	<defs/>
	<path d="M 7.913177490234375,8.895599365234375 L 7.913177490234375,8.895599365234375 L 7.635955810546875,8.69073486328125 L 7.1359710693359375,8.640792846679688 L 6.635986328125,8.722671508789062 L 6.1360015869140625,8.820526123046875 L 5.6726226806640625,9.060516357421875 L 5.3534698486328125,9.4730224609375 L 5.1617584228515625,9.957382202148438 L 5.03546142578125,10.456130981445312 L 4.971221923828125,10.95611572265625 L 4.92205810546875,11.456100463867188 L 4.9611968994140625,11.956085205078125 L 5.000335693359375,12.456069946289062 L 5.111572265625,12.9560546875 L 5.3972320556640625,13.400497436523438 L 5.7583465576171875,13.785842895507812 L 6.1613922119140625,14.128067016601562 L 6.6466064453125,14.321746826171875 L 7.1466064453125,14.389251708984375 L 7.6466064453125,14.456756591796875 L 8.1466064453125,14.411590576171875 L 8.112533569335938,14.225875854492188 L 7.964447021484375,13.725875854492188 L 7.80963134765625,13.251068115234375 L 7.654815673828125,12.78106689453125 L 7.513427734375,12.311065673828125 M 7.6560821533203125,10.042434692382812 L 7.6560821533203125,10.042434692382812 L 7.2933349609375,9.958953857421875 L 6.9993438720703125,9.8770751953125 L 6.765716552734375,9.987701416015625 L 6.4566192626953125,10.219711303710938 L 6.5192413330078125,10.541168212890625 L 6.700927734375,10.494430541992188 L 7.0419158935546875,10.32470703125 L 7.527130126953125,10.23004150390625 L 8.027130126953125,10.37420654296875 M 5.4719390869140625,12.04296875 L 5.4719390869140625,12.04296875 L 5.6921844482421875,12.021774291992188 L 5.959381103515625,12.008575439453125 L 6.2265777587890625,11.921890258789062 L 6.4501800537109375,11.542922973632812 L 5.9501953125,11.3699951171875 L 5.4502105712890625,11.373611450195312 L 4.950225830078125,11.396392822265625" fill="none" stroke="#000000" stroke-width="0.005815963745117188"/>
</svg>
