<?xml version="1.0" ?>
<svg baseProfile="full" height="600px" version="1.1" viewBox="12.760224029541016 7.590010711669922 2.565657287597656 6.907289367675781" width="223px" xmlns="http://www.w3.org/2000/svg" xmlns:ev="http://www.w3.org/2001/xml-events" xmlns:xlink="http://www.w3.org/1999/xlink">
	<defs/>
	<path d="M 14.548171997070312,8.429214477539062 L 14.548171997070312,8.429214477539062 L 14.240753173828125,8.875259399414062 L 14.343612670898438,9.375244140625 L 14.503494262695312,9.875228881835938 L 14.666732788085938,10.375213623046875 L 14.495162963867188,10.87396240234375 L 14.321914672851562,11.367904663085938 L 14.148666381835938,11.861846923828125 L 14.025726318359375,12.355789184570312 L 13.929611206054688,12.852935791015625 L 13.843551635742188,13.350082397460938 L 14.17950439453125,13.729049682617188 L 14.636199951171875,13.879608154296875 L 15.10968017578125,13.807296752929688 M 14.8486328125,8.189208984375 L 14.8486328125,8.189208984375 L 14.348648071289062,8.168014526367188 L 13.848663330078125,8.18121337890625 L 13.6368408203125,8.671981811523438 L 13.431716918945312,9.162750244140625 L 13.226593017578125,9.653518676757812 L 13.086883544921875,10.15350341796875 L 13.049453735351562,10.653488159179688 L 13.038864135742188,11.153472900390625 L 13.02325439453125,11.653457641601562 L 13.007644653320312,12.1534423828125 L 12.992034912109375,12.653427124023438 L 12.976425170898438,13.153411865234375 L 13.28387451171875,13.570693969726562 L 13.666793823242188,13.919296264648438 L 14.152008056640625,13.791091918945312 L 14.5550537109375,13.487197875976562 M 14.380859375,8.488815307617188 L 14.380859375,8.488815307617188 L 14.406585693359375,8.988800048828125 L 14.340667724609375,9.488784790039062 L 14.16741943359375,9.97314453125 L 14.000869750976562,10.465499877929688 L 13.819244384765625,10.93548583984375 L 13.66778564453125,11.419845581054688 L 13.58172607421875,11.913787841796875 L 13.622528076171875,12.406143188476562 L 13.82098388671875,12.8905029296875 L 14.022796630859375,13.373275756835938 L 13.943450927734375,13.865631103515625" fill="none" stroke="#000000" stroke-width="0.00575128173828125"/>
</svg>
