<?xml version="1.0" ?>
<svg baseProfile="full" height="600px" version="1.1" viewBox="13.769517295837403 8.92696053314209 2.535077346801758 4.354742874145508" width="350px" xmlns="http://www.w3.org/2000/svg" xmlns:ev="http://www.w3.org/2001/xml-events" xmlns:xlink="http://www.w3.org/1999/xlink">
	<defs/>
	<path d="M 16.091827392578125,11.238388061523438 L 16.091827392578125,11.238388061523438 L 15.977264404296875,11.467208862304688 L 15.7486572265625,11.9068603515625 L 15.46136474609375,12.3560791015625 L 15.123779296875,12.789337158203125 L 15.123779296875,12.603622436523438 M 16.067596435546875,10.946624755859375 L 16.067596435546875,10.946624755859375 L 15.9547119140625,10.679458618164062 L 15.704315185546875,10.335617065429688 L 15.343246459960938,9.972625732421875 L 14.97210693359375,9.603240966796875 L 14.642898559570312,9.291366577148438 L 14.3824462890625,9.762954711914062 L 14.170623779296875,10.25689697265625 L 13.982284545898438,10.755645751953125 L 14.100234985351562,10.858291625976562 L 14.231613159179688,11.050384521484375 L 14.477020263671875,11.446914672851562 L 14.745895385742188,11.904144287109375 L 15.013092041015625,12.375732421875 L 15.280288696289062,12.847320556640625 M 14.831329345703125,9.441574096679688 L 14.831329345703125,9.441574096679688 L 15.014678955078125,9.935516357421875 L 15.198028564453125,10.429458618164062 L 15.381378173828125,10.92340087890625 L 15.559707641601562,11.417343139648438 L 15.473648071289062,11.917327880859375 L 15.303756713867188,12.417312622070312 L 15.130508422851562,12.91729736328125" fill="none" stroke="#000000" stroke-width="0.003625930786132813"/>
</svg>
