<?xml version="1.0" ?>
<svg baseProfile="full" height="600px" version="1.1" viewBox="5.770235176086426 7.281670112609863 4.486430892944336 9.235014877319337" width="292px" xmlns="http://www.w3.org/2000/svg" xmlns:ev="http://www.w3.org/2001/xml-events" xmlns:xlink="http://www.w3.org/1999/xlink">
	<defs/>
	<path d="M 9.079360961914062,8.36553955078125 L 9.079360961914062,8.36553955078125 L 8.58245849609375,8.599151611328125 L 8.117401123046875,8.845550537109375 L 7.674163818359375,9.130264282226562 L 7.3633880615234375,9.52838134765625 L 7.176727294921875,9.991989135742188 L 6.9900665283203125,10.453994750976562 L 6.805084228515625,10.916000366210938 L 6.6201019287109375,11.378005981445312 L 6.43511962890625,11.840011596679688 L 6.2568359375,12.3179931640625 L 6.147308349609375,12.817977905273438 L 6.225006103515625,13.317962646484375 L 6.3345794677734375,13.817947387695312 L 6.4827117919921875,14.31793212890625 L 6.6358795166015625,14.817916870117188 L 6.908111572265625,15.276718139648438 L 7.207183837890625,15.725936889648438 L 7.707183837890625,15.5865478515625 L 8.172271728515625,15.279449462890625 L 8.672271728515625,15.378890991210938 L 9.172271728515625,15.559799194335938 L 9.672271728515625,15.743896484375 M 9.280670166015625,15.218704223632812 L 9.280670166015625,15.218704223632812 L 9.120834350585938,14.718704223632812 L 8.945907592773438,14.226333618164062 L 8.770980834960938,13.73077392578125 L 8.520584106445312,13.268753051757812 L 8.69219970703125,12.771591186523438 L 8.862152099609375,12.2728271484375 L 9.0321044921875,11.774063110351562 L 9.203720092773438,11.276901245117188 L 9.373672485351562,10.776901245117188 L 9.493316650390625,10.276901245117188 L 9.602890014648438,9.776901245117188 L 9.714126586914062,9.276901245117188 L 9.825363159179688,8.776901245117188 L 9.879592895507812,8.276901245117188 L 9.40447998046875,8.054458618164062 M 8.205154418945312,9.926910400390625 L 8.205154418945312,9.926910400390625 L 8.349945068359375,10.426895141601562 L 8.494735717773438,10.9268798828125 L 8.616058349609375,11.426864624023438 L 8.727294921875,11.926849365234375 L 8.394729614257812,12.363296508789062 L 7.9112396240234375,12.587326049804688 L 7.7178497314453125,13.086074829101562 L 7.593231201171875,13.5860595703125 L 7.471954345703125,14.086044311523438 L 7.350677490234375,14.586029052734375 L 7.5826568603515625,15.086013793945312 L 8.082656860351562,15.100814819335938" fill="none" stroke="#000000" stroke-width="0.0076894378662109375"/>
</svg>
