<?xml version="1.0" ?>
<svg baseProfile="full" height="600px" version="1.1" viewBox="8.429889587402343 7.754862121582031 1.9821092529296875 7.7758592529296875" width="153px" xmlns="http://www.w3.org/2000/svg" xmlns:ev="http://www.w3.org/2001/xml-events" xmlns:xlink="http://www.w3.org/1999/xlink">
	<defs/>
	<path d="M 9.272003173828125,8.628372192382812 L 9.272003173828125,8.628372192382812 L 9.673370361328125,8.869964599609375 L 9.912078857421875,9.354324340820312 L 10.1004638671875,9.843490600585938 L 10.211700439453125,10.332656860351562 L 10.244125366210938,10.821823120117188 L 10.173171997070312,11.310989379882812 L 10.065322875976562,11.800155639648438 L 9.955795288085938,12.289321899414062 L 9.846267700195312,12.778488159179688 L 9.736740112304688,13.267654418945312 L 9.620498657226562,13.756820678710938 L 9.45562744140625,14.245986938476562 L 9.071075439453125,14.612167358398438 L 8.671432495117188,14.244384765625 L 8.749130249023438,13.744384765625 L 9.07000732421875,13.322296142578125 L 9.2181396484375,12.829925537109375 L 9.019729614257812,12.34075927734375 L 8.729095458984375,11.899505615234375 L 8.597763061523438,11.405548095703125 L 8.613433837890625,10.905548095703125 L 8.67437744140625,10.405548095703125 L 8.7269287109375,9.905548095703125 L 8.759353637695312,9.405548095703125 L 8.79010009765625,8.905548095703125 L 8.822525024414062,8.405548095703125 M 8.932098388671875,8.509796142578125 L 8.932098388671875,8.509796142578125 L 9.045013427734375,8.641189575195312 L 9.189804077148438,8.863616943359375 L 9.160781860351562,9.0125732421875 L 9.106597900390625,9.183883666992188 L 8.941726684570312,9.468597412109375 L 8.941726684570312,9.732559204101562 L 9.08148193359375,9.966171264648438 L 9.399002075195312,10.139083862304688 L 9.61590576171875,10.411026000976562 L 9.616470336914062,10.9110107421875 L 9.615936279296875,11.410995483398438 L 9.615402221679688,11.910980224609375 L 9.613189697265625,12.410964965820312 L 9.589187622070312,12.91094970703125 L 9.52996826171875,13.410934448242188 L 9.3516845703125,13.901702880859375 L 9.17340087890625,14.392471313476562 L 8.9951171875,14.880035400390625" fill="none" stroke="#000000" stroke-width="0.0064744873046875"/>
</svg>
