<?xml version="1.0" ?>
<svg baseProfile="full" height="600px" version="1.1" viewBox="4.949007888793945 3.5626812896728515 5.5891210632324215 15.295413787841797" width="220px" xmlns="http://www.w3.org/2000/svg" xmlns:ev="http://www.w3.org/2001/xml-events" xmlns:xlink="http://www.w3.org/1999/xlink">
	<defs/>
	<path d="M 9.450363159179688,6.1258392333984375 L 9.450363159179688,6.1258392333984375 L 9.280471801757812,6.625823974609375 L 9.060272216796875,7.1181793212890625 L 8.836715698242188,7.5945587158203125 L 8.6131591796875,8.072540283203125 L 8.389602661132812,8.548919677734375 L 8.211318969726562,9.033279418945312 L 8.033035278320312,9.51763916015625 L 7.869842529296875,10.008407592773438 L 7.76702880859375,10.502349853515625 L 7.76702880859375,10.999496459960938 L 7.8145599365234375,11.49664306640625 L 7.865447998046875,11.9921875 L 7.9163360595703125,12.489334106445312 L 7.9688873291015625,12.984878540039062 L 8.019775390625,13.480422973632812 L 8.14947509765625,13.975967407226562 L 8.357986450195312,14.447555541992188 L 8.581588745117188,14.907958984375 L 8.823638916015625,15.357177734375 L 9.080780029296875,15.806396484375 L 9.337921142578125,16.255615234375 L 9.563201904296875,16.709640502929688 L 9.7130126953125,17.19720458984375 L 9.293258666992188,17.536224365234375 L 8.79327392578125,17.578170776367188 L 8.293289184570312,17.3717041015625 L 7.821533203125,17.09814453125 L 7.4218902587890625,16.744735717773438 L 7.025604248046875,16.384933471679688 L 6.6276397705078125,16.020339965820312 L 6.29339599609375,15.583877563476562 L 6.0530548095703125,15.096298217773438 L 5.81439208984375,14.607131958007812 L 5.5874786376953125,14.114761352539062 L 5.533294677734375,13.614761352539062 L 5.5092926025390625,13.114761352539062 L 5.490325927734375,12.614761352539062 L 5.47637939453125,12.114761352539062 L 5.465789794921875,11.614761352539062 L 5.4552001953125,11.114761352539062 L 5.44293212890625,10.614761352539062 L 5.432342529296875,10.114761352539062 L 5.420074462890625,9.614761352539062 L 5.4307098388671875,9.114761352539062 L 5.503387451171875,8.614761352539062 L 5.690093994140625,8.114761352539062 L 5.9237518310546875,7.6255950927734375 L 6.2513275146484375,7.21148681640625 L 6.5805816650390625,6.798980712890625 L 6.9098358154296875,6.386474609375 L 7.2390899658203125,5.973968505859375 L 7.5700225830078125,5.56146240234375 L 7.9009552001953125,5.148956298828125 L 8.369384765625,5.020751953125 L 8.839492797851562,4.9276885986328125 L 9.314651489257812,4.8426055908203125 L 9.7830810546875,5.0235137939453125 L 10.067062377929688,5.4663543701171875 L 9.964248657226562,5.958709716796875 L 9.5662841796875,6.2945404052734375 L 9.143173217773438,6.606414794921875" fill="none" stroke="#000000" stroke-width="0.012735565185546876"/>
</svg>
