<?xml version="1.0" ?>
<svg baseProfile="full" height="600px" version="1.1" viewBox="9.059483200073242 12.512443405151368 4.399740875244141 6.916488922119141" width="382px" xmlns="http://www.w3.org/2000/svg" xmlns:ev="http://www.w3.org/2001/xml-events" xmlns:xlink="http://www.w3.org/1999/xlink">
	<defs/>
	<path d="M 12.069061279296875,16.862197875976562 L 12.069061279296875,16.862197875976562 L 12.150131225585938,16.564682006835938 L 12.335159301757812,16.07391357421875 L 12.161911010742188,16.027175903320312 L 11.66192626953125,16.03558349609375 L 11.651336669921875,15.880218505859375 L 11.642425537109375,15.380218505859375 L 11.6318359375,14.880218505859375 L 11.430068969726562,14.909378051757812 L 10.930084228515625,15.00244140625 L 10.430099487304688,14.795974731445312 L 10.038833618164062,14.4345703125 M 9.42852783203125,15.309494018554688 L 9.42852783203125,15.309494018554688 M 9.553192138671875,15.4073486328125 L 9.553192138671875,15.4073486328125 L 9.889144897460938,15.783111572265625 L 10.223434448242188,16.222763061523438 L 10.267608642578125,16.722747802734375 M 10.20001220703125,17.205520629882812 L 10.20001220703125,17.205520629882812 L 10.376663208007812,17.23150634765625 L 10.78472900390625,17.276657104492188 L 11.261566162109375,17.321807861328125 L 11.741744995117188,17.366958618164062 M 11.531158447265625,16.800674438476562 L 11.531158447265625,16.800674438476562 L 11.285797119140625,16.53192138671875 L 10.847579956054688,16.248794555664062 L 10.406005859375,15.965667724609375 M 9.673385620117188,13.654296875 L 9.673385620117188,13.654296875 L 9.843338012695312,13.401504516601562 L 10.273208618164062,13.091217041015625 M 11.72119140625,18.468017578125 L 11.72119140625,18.468017578125 L 12.063858032226562,18.85015869140625 L 12.540695190429688,18.68841552734375 L 12.854843139648438,18.251953125 L 13.090179443359375,17.7691650390625" fill="none" stroke="#000000" stroke-width="0.005758941650390625"/>
</svg>
