<?xml version="1.0" ?>
<svg baseProfile="full" height="600px" version="1.1" viewBox="4.597949211120605 4.962680046081543 4.666391006469727 12.010751358032227" width="234px" xmlns="http://www.w3.org/2000/svg" xmlns:ev="http://www.w3.org/2001/xml-events" xmlns:xlink="http://www.w3.org/1999/xlink">
	<defs/>
	<path d="M 8.524703979492188,5.967742919921875 L 8.524703979492188,5.967742919921875 L 8.168655395507812,6.3658599853515625 L 7.71368408203125,6.6425933837890625 L 7.2570343017578125,6.940093994140625 L 6.9160919189453125,7.3845367431640625 L 6.7394866943359375,7.884521484375 L 6.5645599365234375,8.384506225585938 L 6.39801025390625,8.884490966796875 L 6.2314605712890625,9.384475708007812 L 6.1672210693359375,9.88446044921875 L 6.14825439453125,10.384445190429688 L 6.1292877197265625,10.884429931640625 L 6.1237335205078125,11.384414672851562 L 6.2701873779296875,11.8843994140625 L 6.6044769287109375,12.324050903320312 L 6.6536865234375,12.82403564453125 L 6.607879638671875,13.324020385742188 L 6.9455108642578125,13.725341796875 L 7.323394775390625,14.097900390625 L 7.3211822509765625,14.597885131835938 L 7.6537933349609375,15.016769409179688 L 8.0283203125,15.392532348632812 L 8.4296875,15.715591430664062 L 8.871307373046875,15.968368530273438 M 5.9885711669921875,9.089035034179688 L 5.9885711669921875,9.089035034179688 L 5.6073760986328125,9.040695190429688 L 5.165802001953125,9.341384887695312 L 5.1417999267578125,9.84136962890625 L 5.608551025390625,10.025466918945312 L 6.0904083251953125,9.8892822265625 M 5.490966796875,10.791015625 L 5.490966796875,10.791015625 L 4.9909820556640625,11.024627685546875 L 5.0670013427734375,11.524612426757812 L 5.4666900634765625,11.852447509765625 L 5.93511962890625,11.602859497070312" fill="none" stroke="#000000" stroke-width="0.010000625610351564"/>
</svg>
