<?xml version="1.0" ?>
<svg baseProfile="full" height="600px" version="1.1" viewBox="5.154730651855469 10.557419250488282 3.4107230224609375 4.419158081054688" width="464px" xmlns="http://www.w3.org/2000/svg" xmlns:ev="http://www.w3.org/2001/xml-events" xmlns:xlink="http://www.w3.org/1999/xlink">
	<defs/>
	<path d="M 6.9653472900390625,11.151321411132812 L 6.9653472900390625,11.151321411132812 L 7.1520538330078125,11.228408813476562 L 7.4125518798828125,11.393341064453125 L 7.67974853515625,11.5694580078125 L 7.9469451904296875,11.897293090820312 L 8.2158203125,12.225128173828125 L 8.081146240234375,12.324569702148438 L 7.8106231689453125,12.515060424804688 L 7.556884765625,12.705551147460938 L 7.723480224609375,12.745895385742188 L 8.000747680664062,12.878890991210938 L 8.279693603515625,13.077362060546875 L 8.213775634765625,13.226318359375 L 8.047225952148438,13.48388671875 L 7.8203125,13.759017944335938 L 7.5900421142578125,14.032562255859375 L 7.3044281005859375,14.291717529296875 L 7.1412353515625,14.606781005859375 L 7.006561279296875,14.521697998046875 L 6.764556884765625,14.436614990234375 L 6.4638671875,14.297225952148438 L 6.2084503173828125,14.050827026367188 L 5.95135498046875,13.766098022460938 L 5.6808319091796875,13.481369018554688 L 5.44049072265625,13.177474975585938 L 5.4829864501953125,12.835235595703125 L 5.5388946533203125,12.421127319335938 L 5.7239227294921875,11.957504272460938 L 6.0146026611328125,11.578536987304688 L 6.42266845703125,11.354507446289062 L 6.827392578125,11.14166259765625 L 7.1449127197265625,10.927215576171875 M 6.793365478515625,11.498275756835938 L 6.793365478515625,11.498275756835938 L 6.650299072265625,11.82611083984375 L 6.619598388671875,12.002227783203125 L 6.501678466796875,12.393966674804688 L 6.4659271240234375,12.552520751953125 L 6.4217987060546875,12.83245849609375 L 6.5716094970703125,13.276901245117188 L 6.801910400390625,13.676620483398438 L 6.789642333984375,13.859115600585938 L 6.7639617919921875,14.282791137695312 L 6.90875244140625,14.347091674804688 L 7.0535430908203125,14.411392211914062 L 7.2419281005859375,14.499664306640625" fill="none" stroke="#000000" stroke-width="0.0036795654296875"/>
</svg>
