<?xml version="1.0" ?>
<svg baseProfile="full" height="600px" version="1.1" viewBox="9.987611572265624 7.706036560058593 3.0796627197265627 8.524724975585938" width="217px" xmlns="http://www.w3.org/2000/svg" xmlns:ev="http://www.w3.org/2001/xml-events" xmlns:xlink="http://www.w3.org/1999/xlink">
	<defs/>
	<path d="M 12.29052734375,8.839447021484375 L 12.29052734375,8.839447021484375 L 12.396743774414062,9.01556396484375 L 12.528121948242188,9.2459716796875 L 12.639358520507812,9.533889770507812 L 12.730484008789062,9.847366333007812 L 12.730484008789062,10.232711791992188 L 12.550521850585938,10.726654052734375 L 12.58966064453125,11.226638793945312 L 12.623764038085938,11.375595092773438 L 12.703140258789062,11.618789672851562 L 12.80767822265625,12.1187744140625 L 12.572372436523438,12.609542846679688 L 12.184463500976562,13.00128173828125 L 12.0162353515625,13.501266479492188 L 12.248214721679688,13.995208740234375 L 12.45672607421875,14.489151000976562 L 12.2147216796875,14.9735107421875 L 11.875457763671875,15.384414672851562 L 11.375473022460938,15.517410278320312 L 10.974151611328125,15.16558837890625 L 10.649978637695312,14.772247314453125 L 10.579025268554688,14.281478881835938 L 10.508071899414062,13.79071044921875 L 10.457229614257812,13.29833984375 L 10.40472412109375,12.80596923828125 L 10.352218627929688,12.3135986328125 L 10.299713134765625,11.82122802734375 L 10.247207641601562,11.328857421875 L 10.2779541015625,10.833297729492188 L 10.308700561523438,10.337738037109375 L 10.352874755859375,9.842178344726562 L 10.4456787109375,9.34661865234375 L 10.660903930664062,8.865432739257812 L 10.936508178710938,8.419387817382812 L 11.436508178710938,8.44537353515625 L 11.936508178710938,8.576766967773438 L 12.436508178710938,8.617111206054688" fill="none" stroke="#000000" stroke-width="0.0070980224609375"/>
</svg>
