<?xml version="1.0" ?>
<svg baseProfile="full" height="600px" version="1.1" viewBox="10.682775672912598 7.8413816299438475 5.378757125854492 6.176291305541993" width="523px" xmlns="http://www.w3.org/2000/svg" xmlns:ev="http://www.w3.org/2001/xml-events" xmlns:xlink="http://www.w3.org/1999/xlink">
	<defs/>
	<path d="M 14.960891723632812,8.58697509765625 L 14.960891723632812,8.58697509765625 L 14.730621337890625,8.898849487304688 L 14.495315551757812,9.245864868164062 L 14.338821411132812,9.677536010742188 L 14.33660888671875,10.177520751953125 L 14.382461547851562,10.677505493164062 L 14.523895263671875,11.177490234375 L 14.749176025390625,11.676239013671875 L 15.018051147460938,12.15740966796875 L 15.312088012695312,12.60662841796875 L 15.611160278320312,13.05584716796875 L 15.17462158203125,13.340560913085938 L 14.677719116210938,13.471954345703125 L 14.177734375,13.497940063476562 L 13.677749633789062,13.497940063476562 L 13.177764892578125,13.412857055664062 L 12.677780151367188,13.326171875 L 12.17779541015625,13.201171875 L 11.697662353515625,12.97393798828125 L 11.254425048828125,12.671646118164062 L 11.133148193359375,12.171646118164062 L 11.184036254882812,11.671646118164062 L 11.28857421875,11.171646118164062 L 11.490386962890625,10.671646118164062 L 11.7525634765625,10.187271118164062 L 12.130447387695312,9.819488525390625 L 12.572067260742188,9.528366088867188 L 13.04217529296875,9.281967163085938 L 13.520675659179688,9.030776977539062 L 13.99078369140625,8.846664428710938 L 14.46258544921875,8.6705322265625 L 14.93438720703125,8.494400024414062 L 15.411224365234375,8.35821533203125 M 13.538482666015625,9.17755126953125 L 13.538482666015625,9.17755126953125 L 13.63128662109375,9.562896728515625 L 13.735824584960938,10.062881469726562 L 13.619583129882812,10.5628662109375 L 13.442977905273438,11.062850952148438 L 13.366989135742188,11.562835693359375 L 13.3994140625,12.062820434570312 L 13.450302124023438,12.56280517578125 L 13.538070678710938,13.062789916992188 L 13.780120849609375,13.500839233398438 M 13.509140014648438,12.00244140625 L 13.509140014648438,12.00244140625 L 13.7813720703125,11.9541015625 L 14.1827392578125,11.851455688476562 L 14.5841064453125,11.763168334960938 L 14.956954956054688,11.705245971679688 M 13.442276000976562,10.442901611328125 L 13.442276000976562,10.442901611328125 L 13.662521362304688,10.394561767578125 L 14.053817749023438,10.307876586914062 L 14.461883544921875,10.224395751953125 M 12.069412231445312,10.154067993164062 L 12.069412231445312,10.154067993164062 L 12.10015869140625,10.654052734375 L 12.1024169921875,11.154037475585938 L 12.059967041015625,11.654022216796875 L 12.002426147460938,12.154006958007812 L 11.949920654296875,12.65399169921875 L 11.895736694335938,13.153976440429688 M 11.453155517578125,12.208236694335938 L 11.453155517578125,12.208236694335938 L 11.953155517578125,12.126358032226562 L 12.118072509765625,12.129974365234375 M 11.52593994140625,11.220230102539062 L 11.52593994140625,11.220230102539062 L 11.979293823242188,11.151123046875" fill="none" stroke="#000000" stroke-width="0.005142623901367187"/>
</svg>
