<?xml version="1.0" ?>
<svg baseProfile="full" height="600px" version="1.1" viewBox="5.631159606933593 5.335491577148438 7.321802490234375 12.293830078125" width="358px" xmlns="http://www.w3.org/2000/svg" xmlns:ev="http://www.w3.org/2001/xml-events" xmlns:xlink="http://www.w3.org/1999/xlink">
	<defs/>
	<path d="M 12.338546752929688,6.577728271484375 L 12.338546752929688,6.577728271484375 L 12.093185424804688,6.5277862548828125 L 11.715347290039062,6.6096649169921875 L 11.46160888671875,7.0812530517578125 L 11.278305053710938,7.5800018310546875 L 11.095001220703125,8.078750610351562 L 10.911697387695312,8.577499389648438 L 10.7283935546875,9.076248168945312 L 10.555145263671875,9.57623291015625 L 10.405380249023438,10.076217651367188 L 10.287460327148438,10.576202392578125 L 10.1947021484375,11.076187133789062 L 10.130462646484375,11.576171875 L 10.169601440429688,12.076156616210938 L 10.247299194335938,12.576141357421875 L 10.353515625,13.076126098632812 L 10.473159790039062,13.57611083984375 L 10.656509399414062,14.076095581054688 L 10.858322143554688,14.5732421875 L 11.093658447265625,15.062408447265625 L 11.337387084960938,15.546768188476562 L 11.579437255859375,16.0311279296875 L 11.821487426757812,16.515487670898438 M 11.658294677734375,16.515487670898438 L 11.658294677734375,16.515487670898438 L 11.404556274414062,16.511871337890625 L 10.951248168945312,16.56500244140625 L 10.451263427734375,16.600570678710938 L 9.951278686523438,16.465972900390625 L 9.481201171875,16.200408935546875 L 9.110061645507812,15.818252563476562 L 8.755691528320312,15.41693115234375 L 8.401321411132812,15.015609741210938 L 8.046951293945312,14.614288330078125 L 7.6909027099609375,14.212966918945312 L 7.3348541259765625,13.8116455078125 L 6.9788055419921875,13.410324096679688 L 6.5925750732421875,13.031356811523438 L 6.258331298828125,12.61724853515625 L 6.2561187744140625,12.11724853515625 L 6.362335205078125,11.61724853515625 L 6.362335205078125,11.11724853515625 L 6.3064727783203125,10.61724853515625 L 6.245574951171875,10.11724853515625 L 6.410491943359375,9.61724853515625 L 6.6877593994140625,9.164810180664062 L 6.93316650390625,8.710769653320312 L 7.2607421875,8.295074462890625 L 7.6201934814453125,7.924102783203125 L 7.9813079833984375,7.5563201904296875 L 8.419570922851562,7.2715911865234375 L 8.891372680664062,7.0539398193359375 L 9.346389770507812,6.781982421875 L 9.803085327148438,6.540374755859375 L 10.303085327148438,6.3642425537109375 L 10.803085327148438,6.4014129638671875 L 11.303085327148438,6.571136474609375 L 11.803085327148438,6.752044677734375 M 7.6585540771484375,8.321060180664062 L 7.6585540771484375,8.321060180664062 L 7.8502960205078125,8.530715942382812 L 8.052108764648438,8.807449340820312 L 8.09796142578125,9.223129272460938 L 8.120330810546875,9.670761108398438 L 8.034271240234375,10.170745849609375 L 7.8325042724609375,10.66949462890625 L 7.5200653076171875,11.109146118164062 L 7.1472625732421875,11.488113403320312 M 7.79742431640625,10.818023681640625 L 7.79742431640625,10.818023681640625 L 8.168609619140625,11.04205322265625 L 8.472702026367188,11.492874145507812 L 8.301132202148438,11.99285888671875 L 8.129562377929688,12.492843627929688 L 7.9512786865234375,12.992828369140625 L 7.71429443359375,13.46441650390625 L 7.36663818359375,13.862533569335938 L 7.1279754638671875,14.112106323242188 M 10.554183959960938,8.931167602539062 L 10.554183959960938,8.931167602539062 L 10.3524169921875,8.716720581054688 L 10.016510009765625,8.441574096679688 L 9.6571044921875,8.1424560546875 L 9.633102416992188,8.29620361328125 L 9.449798583984375,8.788558959960938 L 9.263137817382812,9.279327392578125 L 9.64605712890625,9.468215942382812 L 10.11785888671875,9.652313232421875 M 10.262649536132812,9.710235595703125 L 10.262649536132812,9.710235595703125 L 10.407440185546875,9.768157958984375 M 10.305740356445312,10.067245483398438 L 10.305740356445312,10.067245483398438 L 10.052001953125,10.025283813476562 L 9.674163818359375,9.972137451171875 L 9.294647216796875,9.9110107421875 L 8.992279052734375,9.848281860351562 L 9.0465087890625,10.00042724609375 L 9.080612182617188,10.44647216796875 L 8.981155395507812,10.772720336914062 L 9.021957397460938,10.950424194335938 L 9.042648315429688,11.345352172851562 L 9.244461059570312,11.371337890625 L 9.682723999023438,11.397323608398438 L 10.129364013671875,11.49676513671875" fill="none" stroke="#000000" stroke-width="0.010236328125000001"/>
</svg>
